<svg xmlns="http://www.w3.org/2000/svg" viewBox="0 0 517.87 383.08">
<defs>
    <style>
      .cls-3 {
        fill: #ba2a5d;
      }
    </style>
  </defs>
  <title>Ресурс 3</title>
  <g class="cls-1">
      <path class="cls-3" d="M317.09,335.69c9.73,11.34,16.41,25.08,26.48,36.12,6,6.6,14.35,12.49,23.16,11.06,6.24-1,11.38-5.56,15-10.72a35.19,35.19,0,0,0,6.81-20.46c-.1-7.31-3.2-14.7-8.9-19.27-5.36-4.29-12.39-5.8-18.45-9-23.62-12.54-28.08-47.64-52-59.57-11.66-5.81-26.38-5.09-36.42-13.39-4.75-3.93-7.85-9.44-11.55-14.37s-8.55-9.6-14.65-10.49a14.35,14.35,0,0,0-12.37,24.2c3.52,3.62,8.62,5.11,13.06,7.5S256,264,255.42,269c-.51,4.39-4.56,7.49-8.59,9.27s-8.51,2.84-11.9,5.67a14.12,14.12,0,0,0,14.19,24c4.79-1.88,8.18-6.19,12.58-8.87s11.35-2.9,13.57,1.74c1.28,2.67.43,5.8.1,8.74C274.1,321,287.72,317,295,319.66,303.67,322.73,311.18,328.79,317.09,335.69Z"/>
  </g>
</svg>
