<svg xmlns="http://www.w3.org/2000/svg" width="52" height="52" viewBox="0 0 52 52"><g><g><g><path fill="#b49060" d="M51.84 29.08l-5.13 2.29A52.49 52.49 0 0 0 20.87 5.61L23.13.48c9.37 2.32 26.09 18.95 28.71 28.6z"/></g><g><path fill="#b49060" d="M9.65 35.75a2.64 2.64 0 0 1-.17-1.18s.84.23 1.06.55a.63.63 0 0 1-.04.88.63.63 0 0 1-.85-.25zm2.26-3.25a.62.62 0 0 1 .395.272.63.63 0 0 1 .085.475.637.637 0 0 1-.83.293c-.37-.132-.83-.868-.83-.868a2.529 2.529 0 0 1 1.15-.172zm.54-2.78a.56.56 0 1 1 .19 1.08 2.68 2.68 0 0 1-1.14-.36s.57-.65.95-.72zM11.71 26L6.32 38.13a6.58 6.58 0 0 0 7.78-3.93 6.72 6.72 0 0 0-2.39-8.2z"/></g><g><path fill="#b49060" d="M36.33 31.79a2.55 2.55 0 0 1 0-3.6 2.68 2.68 0 0 1 3.64.08 2.55 2.55 0 0 1-.12 3.6 2.41 2.41 0 0 1-3.52-.05zm-8.71-1c-.57.24-.94-.08-1-.7-.06-.62-.13-1.36-.2-2.18-.68.07-1.34.14-2 .19a2.42 2.42 0 0 1-.55-4.81c.64-.08 1.29-.12 2.08-.2-.06-.72-.06-1.37-.17-2-.15-.88.28-1.09 1-1.09a5.44 5.44 0 0 1 5.39 4.88c.43 4.5-3.58 5.51-4.55 5.91zM5.731 47.58c-.53-.53-.53-1.39 0-1.92a1.44 1.44 0 0 1 1.948 0c.53.53.53 1.39 0 1.92a1.317 1.317 0 0 1-1.948 0zM20.67 15.8a1.612 1.612 0 0 1 0-2.28 1.681 1.681 0 0 1 2.292 0c.63.633.63 1.657 0 2.29a1.553 1.553 0 0 1-2.292-.01zm-.499-8.65l-8 18a7.49 7.49 0 0 1 3.82 9.46 7.47 7.47 0 0 1-9.43 4.75 5.31 5.31 0 0 1-.55-.23c-1.86 4.2-3.7 8.35-5.65 12.78l20.9-9.24a4.51 4.51 0 0 1-.94-.7 4.24 4.24 0 1 1 7.11-2c7.07-3.14 10.76-4.82 17.78-7.97C40.5 20.87 29.79 10.89 20.17 7.15z"/></g><g><path fill="#b49060" d="M22.257 42.229l4-1.75a3.36 3.36 0 1 0-5.4.92c.39.389.871.674 1.4.83z"/></g></g></g></svg>