<svg xmlns="http://www.w3.org/2000/svg" width="49" height="48" viewBox="0 0 49 48"><g><g><g><path fill="#b49060" d="M30.749 15.62a1.25 1.25 0 0 1-1.14-1.76L35.689.37h11.81a1.25 1.25 0 0 1 0 2.5h-10.19l-5.42 12a1.24 1.24 0 0 1-1.14.75z"/></g><g><path fill="#b49060" d="M12.347 23.636C5.924 23.75.625 18.634.512 12.211.399 5.788 5.514.49 11.937.376c6.402-.208 11.766 4.8 12 11.2l-2.44.09a9.13 9.13 0 1 0-8.8 9.46l.1 2.5z"/></g><g><path fill="#b49060" d="M11.357 4.722a7.36 7.36 0 0 0-3.64 1.58.31.31 0 0 0 0 .45l3.49 3.49a.3.3 0 0 0 .49-.24v-5a.31.31 0 0 0-.34-.28z"/></g><g><path fill="#b49060" d="M10.054 13h-4.62a.3.3 0 0 0-.3.35 7.36 7.36 0 0 0 1.52 3.3.31.31 0 0 0 .45 0l3.16-3.16a.3.3 0 0 0-.21-.49z"/></g><g><path fill="#b49060" d="M10.26 11.162l-3.44-3.44a.31.31 0 0 0-.46 0 7.34 7.34 0 0 0-1.32 3.59.31.31 0 0 0 .3.33h4.71a.31.31 0 0 0 .21-.48z"/></g><g><path fill="#b49060" d="M13.01 5.003v5a.3.3 0 0 0 .51.22L17 6.733a.31.31 0 0 0 0-.45 7.36 7.36 0 0 0-3.64-1.58.31.31 0 0 0-.35.3z"/></g><g><path fill="#b49060" d="M11.187 14.431l-3.12 3.11a.3.3 0 0 0 0 .46 7.34 7.34 0 0 0 3.26 1.29.31.31 0 0 0 .34-.3v-4.35a.3.3 0 0 0-.48-.21z"/></g><g><path fill="#b49060" d="M14.422 11.684h5a.21.21 0 0 0 .21-.22 7.37 7.37 0 0 0-1.4-3.8.2.2 0 0 0-.31 0l-3.69 3.69a.2.2 0 0 0 .19.33z"/></g><g><path fill="#b49060" d="M18.895 44.53c-.38-4.2-.842-8.39-1.273-12.59-.27-2.65-.53-5.29-.801-7.94h1.844c.45 4.29.811 6.33 1.222 10.62.351 3.61.481 7.23.892 10.84h-.781c-.702 0-1.023-.14-1.103-.93zm9.25-16.67c-1.19.58-2.402 1.12-3.583 1.71-.44.22-.7.17-.92-.26-.612-1.25-1.222-2.52-1.873-3.75-.34-.64-.12-1 .47-1.25l3.644-1.59c.29-.12.641-.2.841.08a14.224 14.224 0 0 1 1.932 4c.11.74-.15.92-.51 1.06zm2.43 14.21l-3.734 2a2.152 2.152 0 0 1-.3.12.73.73 0 0 1-.901-.5c-.57-1.24-1.131-2.48-1.702-3.71a.74.74 0 0 1 .32-1.07l3.855-2c.43-.21.62.08.78.4.631 1.21 1.262 2.42 1.902 3.63.24.44.33.84-.22 1.13zm4.249-10.4c-.622 1.28-1.313 2.75-2.005 4.21-.13.27-.381.18-.602.1a22.334 22.334 0 0 1-3.86-1.66c-.46-.26-.66-.54-.41-1.1.541-1.21 1.002-2.45 1.514-3.68.21-.52.48-.85 1.122-.54 1.253.62 2.537 1.2 3.8 1.8a.671.671 0 0 1 .47.86zm2.179-16c.8 0 1.13.07 1.06 1.05-.06.7-.13 1.4-.19 2.1a2.32 2.32 0 0 0-.31 0H16.23c-.33-3.15-.39-3.15 2.68-3.15h18.092zm1.879-2.46h-23.74c-1.17 0-1.7.57-1.6 1.63.12 1.28.25 2.55.39 3.83.627 6.227 1.267 12.457 1.92 18.69.33 3.11.32 6.25.76 9.36a1.24 1.24 0 0 0 1.32 1.28h18.42a1.17 1.17 0 0 0 1.29-1.2l.15-1.8c.47-5.12.92-10.24 1.42-15.36.46-4.787.943-9.573 1.45-14.36.16-1.56-.23-2.07-1.78-2.07z"/></g></g></g></svg>