<svg xmlns="http://www.w3.org/2000/svg" width="54" height="54" viewBox="0 0 54 54"><g><g><g><path fill="#d9255e" d="M52.296 15.379l-5.89 18.725-4.746-1.553 5.89-18.644c.328-.9 1.31-1.472 2.21-1.145l1.308.409c.982.245 1.555 1.308 1.228 2.208zM41.579 41.068l-.164-6.79 4.1 1.309zM5.501 48.993V1.636h24.63v12.269c0 .49.328.818.82.818h12.765v6.134L39.87 32.962v.246l.163 10.387c0 .327.246.654.573.736.327.082.737 0 .9-.327l2.21-2.945v7.934zm-3.845 3.364V4.99h2.209v44.831c0 .491.327.818.818.818h35.096v1.718zM31.762 2.781L42.478 13.09H31.762zm19.88 8.836l-1.31-.41c-.327-.081-.654-.163-1.063-.163-1.473 0-2.782.982-3.273 2.373l-.736 2.208v-1.718c0-.245-.164-.49-.327-.654L31.516.245A.884.884 0 0 0 30.944 0H4.683c-.49 0-.818.327-.818.818v2.536H.838c-.49 0-.818.327-.818.818v49.003c0 .491.327.818.818.818h39.759c.49 0 .818-.327.818-.818V50.64h3.027c.49 0 .818-.327.818-.818V38.777l2.29-3.109.082-.245 6.136-19.552c.655-1.8-.327-3.682-2.127-4.254z"/></g><g><path fill="#d9255e" d="M11.885 6.378h10.147v6.695H11.885zm-.817 8.343h11.78c.491 0 .819-.328.819-.819V5.559c0-.49-.328-.818-.818-.818H11.068c-.49 0-.818.327-.818.818v8.345c0 .409.41.818.818.818z"/></g><g><path fill="#d9255e" d="M9.428 22.416h24.87c.49 0 .818-.327.818-.818 0-.49-.327-.818-.818-.818H9.428c-.49 0-.818.327-.818.818 0 .49.327.818.818.818z"/></g><g><path fill="#d9255e" d="M9.428 28.386h24.87c.49 0 .818-.327.818-.818 0-.49-.327-.818-.818-.818H9.428c-.49 0-.818.327-.818.818 0 .49.327.818.818.818z"/></g><g><path fill="#d9255e" d="M9.428 34.356h24.87c.49 0 .818-.327.818-.818 0-.49-.327-.818-.818-.818H9.428c-.49 0-.818.327-.818.818 0 .49.327.818.818.818z"/></g><g><path fill="#d9255e" d="M35.034 39.518c0-.49-.327-.818-.818-.818H9.428c-.49 0-.818.327-.818.818 0 .49.327.818.818.818h24.87c.409 0 .736-.409.736-.818z"/></g><g><path fill="#d9255e" d="M37.731 44.67H25.378c-.49 0-.818.327-.818.818 0 .49.327.818.818.818h12.271c.491 0 .818-.327.818-.818 0-.49-.327-.818-.736-.818z"/></g></g></g></svg>