<svg xmlns="http://www.w3.org/2000/svg" width="54" height="54" viewBox="0 0 54 54"><g><g><g><path fill="#d9255e" d="M51.612 31.612l-1.363 1.366-3.124-3.13 1.363-1.365a2.193 2.193 0 0 1 1.562-.649 2.214 2.214 0 0 1 1.562 3.778zm-9.796 20.646H1.742V10.452h8.712v-8.71h31.362V32.7L31.457 43.056l-2.234 7.867 7.824-2.282 4.77-4.768zM8.71 2.974V8.71H2.974zm25.693 41.484l-.946-.946 12.437-12.436.946.946zm2.178 2.176l-.945-.945L48.07 33.254l.946.946zm-3.92-1.458l2.274 2.267-3.182.925zM54 30.043a3.955 3.955 0 0 0-3.95-3.95 3.926 3.926 0 0 0-2.793 1.157l-3.709 3.708V0H9.22L0 9.22V54h43.548V42.131l9.295-9.295A3.925 3.925 0 0 0 54 30.043z"/></g><g><path fill="#d9255e" d="M9.755 48.663c-2.424 0-4.396-1.935-4.396-4.314 0-2.378 1.972-4.313 4.396-4.313 1.247 0 2.368.517 3.169 1.337l-3.31 3.572-2.008-1.313-.976 1.436 3.268 2.138 3.983-4.299c.165.453.271.933.271 1.442 0 2.379-1.972 4.314-4.396 4.314zM17.898 36l-3.784 4.09a6.194 6.194 0 0 0-4.358-1.782c-3.394 0-6.156 2.713-6.156 6.046S6.362 50.4 9.756 50.4c3.393 0 6.155-2.713 6.155-6.046 0-1.03-.264-2-.73-2.85l4.019-4.342z"/></g><g><path fill="#d9255e" d="M9.755 33.063c-2.424 0-4.396-1.935-4.396-4.314 0-2.378 1.972-4.313 4.396-4.313 1.247 0 2.368.517 3.169 1.337l-3.31 3.572-2.008-1.313-.976 1.436 3.268 2.138 3.983-4.299c.165.453.271.933.271 1.442 0 2.379-1.972 4.314-4.396 4.314zm4.359-8.574a6.194 6.194 0 0 0-4.359-1.78c-3.393 0-6.155 2.712-6.155 6.045 0 3.333 2.762 6.046 6.156 6.046 3.393 0 6.155-2.713 6.155-6.046 0-1.03-.264-2-.73-2.85l4.019-4.342-1.302-1.162z"/></g><g><path fill="#d9255e" d="M38.4 27.6h1.8v1.8h-1.8z"/></g><g><path fill="#d9255e" d="M19.2 27.6h17.4v1.8H19.2z"/></g><g><path fill="#d9255e" d="M19.2 24.6h21v1.8h-21z"/></g><g><path fill="#d9255e" d="M19.2 31.2h21V33h-21z"/></g><g><path fill="#d9255e" d="M19.2 43.8h9.6v1.8h-9.6z"/></g><g><path fill="#d9255e" d="M19.2 46.8h9.6v1.8h-9.6z"/></g><g><path fill="#d9255e" d="M19.2 40.2h9.6V42h-9.6z"/></g><g><path fill="#d9255e" d="M14.325 7.935a2.598 2.598 0 0 1 2.586-2.602H35.88a2.598 2.598 0 0 1 2.586 2.602v6.94a2.598 2.598 0 0 1-2.586 2.602H16.91a2.598 2.598 0 0 1-2.586-2.602zM16.913 19.2h18.975c2.377 0 4.312-1.944 4.312-4.333V7.933c0-2.389-1.935-4.333-4.313-4.333H16.914c-2.378 0-4.313 1.944-4.313 4.333v6.934c0 2.389 1.935 4.333 4.313 4.333z"/></g><g><path fill="#d9255e" d="M34.8 12H33v-1.8h1.8zm1.8-3.6h-5.4v5.4h5.4z"/></g><g><path fill="#d9255e" d="M27 12h-1.8v-1.8H27zm1.8-3.6h-5.4v5.4h5.4z"/></g><g><path fill="#d9255e" d="M19.2 12h-1.8v-1.8h1.8zM21 8.4h-5.4v5.4H21z"/></g></g></g></svg>