<?xml version="1.0" encoding="UTF-8"?>
<svg width="491px" height="115px" viewBox="0 0 491 115" version="1.1" xmlns="http://www.w3.org/2000/svg" xmlns:xlink="http://www.w3.org/1999/xlink">
    <!-- Generator: Sketch 63.1 (92452) - https://sketch.com -->
    <title>gastrobar_font_2</title>
    <desc>Created with Sketch.</desc>
    <g id="Кейс" stroke="none" stroke-width="1" fill="none" fill-rule="evenodd">
        <g id="Портфолио-GastroBar-XL" transform="translate(-777.000000, -3623.000000)" fill="#AFAFAF" fill-rule="nonzero">
            <g id="Group-17" transform="translate(165.000000, 3212.000000)">
                <g id="Group-20" transform="translate(612.000000, 364.000000)">
                    <path d="M3.89404297,66 L5.70068359,61.7763672 L13.9770508,61.7763672 L15.7470703,66 L18.9941406,66 L11.3037109,48.3730469 L8.44726562,48.3730469 L0.744628906,66 L3.89404297,66 Z M12.8540039,59.0541992 L6.82373047,59.0541992 L9.82666016,52.0473633 L12.8540039,59.0541992 Z M27.4394531,66.2807617 C29.2216797,66.2807617 30.6458333,65.6459961 31.7119141,64.3764648 L31.7119141,64.3764648 L31.7119141,66 L34.7148438,66 L34.7148438,58.175293 C34.7148438,56.3849284 34.228597,55.0075684 33.2561035,54.0432129 C32.28361,53.0788574 30.8370768,52.5966797 28.9165039,52.5966797 C27.9155273,52.5966797 27.0305176,52.6882324 26.2614746,52.8713379 C25.4924316,53.0544434 24.7010091,53.3291016 23.887207,53.6953125 L23.887207,53.6953125 L24.7172852,56.1245117 C26.0437826,55.5711263 27.3011068,55.2944336 28.4892578,55.2944336 C29.5390625,55.2944336 30.3426921,55.5365397 30.9001465,56.020752 C31.4576009,56.5049642 31.7363281,57.2068685 31.7363281,58.1264648 L31.7363281,58.1264648 L31.7363281,58.3706055 C30.5970052,58.0043945 29.3803711,57.8212891 28.0864258,57.8212891 C26.4832357,57.8212891 25.1913249,58.1895345 24.2106934,58.9260254 C23.2300618,59.6625163 22.7397461,60.7387695 22.7397461,62.1547852 C22.7397461,63.0255534 22.9594727,63.7783203 23.3989258,64.4130859 C23.8383789,65.0478516 24.4080404,65.5178223 25.1079102,65.822998 C25.8077799,66.1281738 26.5849609,66.2807617 27.4394531,66.2807617 Z M28.2939453,63.9980469 C27.5533854,63.9980469 26.9430339,63.8230794 26.4628906,63.4731445 C25.9827474,63.1232096 25.7426758,62.6471354 25.7426758,62.0449219 C25.7426758,61.3776042 26.0071615,60.8608398 26.5361328,60.4946289 C27.0651042,60.128418 27.8056641,59.9453125 28.7578125,59.9453125 C29.8971354,59.9453125 30.90625,60.1202799 31.7851562,60.4702148 L31.7851562,60.4702148 L31.7851562,61.2270508 C31.7851562,62.0408529 31.4555664,62.7061361 30.7963867,63.2229004 C30.137207,63.7396647 29.3030599,63.9980469 28.2939453,63.9980469 Z M48.7631836,66 C50.7488607,66 52.3235677,65.5849609 53.4873047,64.7548828 C54.6510417,63.9248047 55.2329102,62.7407227 55.2329102,61.2026367 C55.2329102,60.0551758 54.9338379,59.145752 54.3356934,58.4743652 C53.7375488,57.8029785 52.8810221,57.2801107 51.7661133,56.9057617 C53.4262695,56.0431315 54.2563477,54.7410482 54.2563477,52.9995117 C54.2563477,51.8113607 53.8657227,50.8266602 53.0844727,50.0454102 C52.050944,49.0118815 50.5250651,48.4951172 48.5068359,48.4951172 L48.5068359,48.4951172 L40.6577148,48.4951172 L40.6577148,66 L48.7631836,66 Z M47.8842773,55.8803711 L43.6850586,55.8803711 L43.6850586,51.2294922 L48.1162109,51.2294922 C49.0927734,51.2294922 49.8496094,51.4268392 50.3867188,51.8215332 C50.9238281,52.2162272 51.1923828,52.7594401 51.1923828,53.4511719 C51.1923828,54.2486979 50.8973796,54.852946 50.307373,55.263916 C49.7173665,55.6748861 48.909668,55.8803711 47.8842773,55.8803711 L47.8842773,55.8803711 Z M48.7875977,63.277832 L43.6850586,63.277832 L43.6850586,58.4804688 L48.5556641,58.4804688 C49.7519531,58.4804688 50.6512044,58.6839193 51.253418,59.0908203 C51.8556315,59.4977214 52.1567383,60.0755208 52.1567383,60.8242188 C52.1567383,61.6217448 51.861735,62.2300618 51.2717285,62.6491699 C50.681722,63.068278 49.8536784,63.277832 48.7875977,63.277832 L48.7875977,63.277832 Z M67.8530273,66.2807617 C68.6505534,66.2807617 69.4155273,66.1261393 70.1479492,65.8168945 C70.8803711,65.5076497 71.5334473,65.0681966 72.1071777,64.4985352 C72.6809082,63.9288737 73.1407064,63.2045898 73.4865723,62.3256836 C73.8324382,61.4467773 74.0053711,60.4783529 74.0053711,59.4204102 C74.0053711,58.3543294 73.8324382,57.3777669 73.4865723,56.4907227 C73.1407064,55.6036784 72.6788737,54.8753255 72.1010742,54.3056641 C71.5232747,53.7360026 70.8681641,53.2965495 70.1357422,52.9873047 C69.4033203,52.6780599 68.6424154,52.5234375 67.8530273,52.5234375 C66.0382487,52.5234375 64.5449219,53.3494466 63.3730469,55.0014648 L63.3730469,55.0014648 L63.3730469,47.7504883 L60.3579102,47.7504883 L60.3579102,66 L63.3730469,66 L63.3730469,63.9492188 C64.5530599,65.5035807 66.0463867,66.2807617 67.8530273,66.2807617 Z M67.1572266,63.644043 C66.0992839,63.644043 65.1918945,63.249349 64.4350586,62.4599609 C63.6782227,61.6705729 63.2998047,60.6573893 63.2998047,59.4204102 C63.2998047,58.1671549 63.6782227,57.1417643 64.4350586,56.3442383 C65.1918945,55.5467122 66.0992839,55.1479492 67.1572266,55.1479492 C68.2070312,55.1479492 69.0981445,55.5406087 69.8305664,56.3259277 C70.5629883,57.1112467 70.9291992,58.1264648 70.9291992,59.371582 C70.9291992,60.6655273 70.5670573,61.7010905 69.8427734,62.4782715 C69.1184896,63.2554525 68.2233073,63.644043 67.1572266,63.644043 Z M87.5776367,66.3051758 C88.6355794,66.3051758 89.6019694,66.1729329 90.4768066,65.9084473 C91.3516439,65.6439616 92.1084798,65.2960612 92.7473145,64.8647461 C93.3861491,64.433431 94.0310872,63.8800456 94.6821289,63.2045898 L94.6821289,63.2045898 L92.7045898,61.2026367 C91.8826497,61.9676107 91.0912272,62.5372721 90.3303223,62.9116211 C89.5694173,63.2859701 88.6844076,63.4731445 87.675293,63.4731445 C86.0232747,63.4731445 84.6479492,62.8688965 83.5493164,61.6604004 C82.4506836,60.4519043 81.9013672,58.980957 81.9013672,57.2475586 C81.9013672,56.1000977 82.1475423,55.0523275 82.6398926,54.104248 C83.1322428,53.1561686 83.8219401,52.4054362 84.7089844,51.8520508 C85.5960286,51.2986654 86.5847982,51.0219727 87.675293,51.0219727 C88.6193034,51.0219727 89.4819336,51.2091471 90.2631836,51.5834961 C91.0444336,51.9578451 91.8175456,52.4949544 92.5825195,53.1948242 L92.5825195,53.1948242 L94.5478516,50.9243164 C93.6282552,50.0454102 92.6333822,49.3719889 91.5632324,48.9040527 C90.4930827,48.4361165 89.2052409,48.2021484 87.699707,48.2021484 C86.4057617,48.2021484 85.1931966,48.4401855 84.0620117,48.9162598 C82.9308268,49.392334 81.9746094,50.0372721 81.1933594,50.8510742 C80.4121094,51.6648763 79.7976888,52.6251628 79.3500977,53.7319336 C78.9025065,54.8387044 78.6787109,56.0105794 78.6787109,57.2475586 C78.6787109,58.9239909 79.0632324,60.4539388 79.8322754,61.8374023 C80.6013184,63.2208659 81.6673991,64.3113607 83.0305176,65.1088867 C84.3936361,65.9064128 85.9093424,66.3051758 87.5776367,66.3051758 Z M105.397949,66.3051758 C106.602376,66.3051758 107.625732,66.0935872 108.468018,65.6704102 C109.310303,65.2472331 110.089518,64.6328125 110.805664,63.8271484 L110.805664,63.8271484 L108.974609,62.0205078 C108.453776,62.5576172 107.920736,62.9685872 107.375488,63.253418 C106.830241,63.5382487 106.223958,63.6806641 105.556641,63.6806641 C104.40918,63.6806641 103.463135,63.269694 102.718506,62.4477539 C101.973877,61.6258138 101.601562,60.6166992 101.601562,59.4204102 C101.601562,58.2322591 101.96167,57.2272135 102.681885,56.4052734 C103.4021,55.5833333 104.307454,55.1723633 105.397949,55.1723633 C106.114095,55.1723633 106.736654,55.3127441 107.265625,55.5935059 C107.794596,55.8742676 108.31543,56.2832031 108.828125,56.8203125 L108.828125,56.8203125 L110.708008,54.7939453 C110.048828,54.0615234 109.298096,53.5 108.455811,53.109375 C107.613525,52.71875 106.602376,52.5234375 105.422363,52.5234375 C104.136556,52.5234375 102.966715,52.8367513 101.912842,53.4633789 C100.858968,54.0900065 100.039062,54.9302572 99.453125,55.9841309 C98.8671875,57.0380046 98.5742188,58.183431 98.5742188,59.4204102 C98.5742188,60.6736654 98.8671875,61.8251953 99.453125,62.875 C100.039062,63.9248047 100.854899,64.7589518 101.900635,65.3774414 C102.94637,65.995931 104.112142,66.3051758 105.397949,66.3051758 Z M122.449219,66 C123.80013,66 125.057454,65.7741699 126.221191,65.3225098 C127.384928,64.8708496 128.369629,64.2543945 129.175293,63.4731445 C129.980957,62.6918945 130.611654,61.7641602 131.067383,60.6899414 C131.523112,59.6157227 131.750977,58.4682617 131.750977,57.2475586 C131.750977,56.0187174 131.523112,54.865153 131.067383,53.7868652 C130.611654,52.7085775 129.980957,51.7808431 129.175293,51.0036621 C128.369629,50.2264811 127.384928,49.6140951 126.221191,49.1665039 C125.057454,48.7189128 123.80013,48.4951172 122.449219,48.4951172 L122.449219,48.4951172 L115.918457,48.4951172 L115.918457,66 L122.449219,66 Z M122.449219,63.2045898 L118.994629,63.2045898 L118.994629,51.3027344 L122.449219,51.3027344 C124.263997,51.3027344 125.730876,51.8601888 126.849854,52.9750977 C127.968831,54.0900065 128.52832,55.5141602 128.52832,57.2475586 C128.52832,59.0053711 127.970866,60.4376628 126.855957,61.5444336 C125.741048,62.6512044 124.272135,63.2045898 122.449219,63.2045898 L122.449219,63.2045898 Z M142.564453,66.2807617 C144.395508,66.2807617 145.896973,65.4547526 147.068848,63.8027344 L147.068848,63.8027344 L147.068848,66 L150.096191,66 L150.096191,47.7504883 L147.068848,47.7504883 L147.068848,54.8549805 C145.856283,53.3006185 144.354818,52.5234375 142.564453,52.5234375 C141.766927,52.5234375 141.003988,52.6780599 140.275635,52.9873047 C139.547282,53.2965495 138.89624,53.7339681 138.32251,54.2995605 C137.748779,54.865153 137.291016,55.5874023 136.949219,56.4663086 C136.607422,57.3452148 136.436523,58.3136393 136.436523,59.371582 C136.436523,60.4376628 136.609456,61.4162598 136.955322,62.307373 C137.301188,63.1984863 137.763021,63.9268392 138.34082,64.4924316 C138.91862,65.0580241 139.571696,65.4974772 140.300049,65.810791 C141.028402,66.1241048 141.783203,66.2807617 142.564453,66.2807617 Z M143.296875,63.644043 C142.238932,63.644043 141.339681,63.2513835 140.599121,62.4660645 C139.858561,61.6807454 139.488281,60.6655273 139.488281,59.4204102 C139.488281,58.1264648 139.854492,57.0909017 140.586914,56.3137207 C141.319336,55.5365397 142.222656,55.1479492 143.296875,55.1479492 C144.34668,55.1479492 145.245931,55.5426432 145.994629,56.3320312 C146.743327,57.1214193 147.117676,58.1346029 147.117676,59.371582 C147.117676,60.6248372 146.743327,61.6502279 145.994629,62.4477539 C145.245931,63.2452799 144.34668,63.644043 143.296875,63.644043 Z M169.308105,66 L169.308105,63.253418 L159.286133,63.253418 L159.286133,58.5537109 L168.062988,58.5537109 L168.062988,55.7949219 L159.286133,55.7949219 L159.286133,51.2539062 L169.186035,51.2539062 L169.186035,48.4951172 L156.209961,48.4951172 L156.209961,66 L169.308105,66 Z M180.414551,66.3051758 C182.652507,66.3051758 184.455078,65.4791667 185.822266,63.8271484 L185.822266,63.8271484 L184.040039,62.2524414 C183.494792,62.7895508 182.941406,63.1862793 182.379883,63.442627 C181.818359,63.6989746 181.179525,63.8271484 180.463379,63.8271484 C179.47054,63.8271484 178.63029,63.5321452 177.942627,62.9421387 C177.254964,62.3521322 176.829753,61.5281576 176.666992,60.4702148 L176.666992,60.4702148 L186.371582,60.4702148 C186.404134,60.2749023 186.42041,59.9941406 186.42041,59.6279297 C186.42041,58.8629557 186.336995,58.1305339 186.170166,57.4306641 C186.003337,56.7307943 185.746989,56.0817871 185.401123,55.4836426 C185.055257,54.885498 184.636149,54.3666992 184.143799,53.9272461 C183.651449,53.487793 183.059408,53.1439616 182.367676,52.895752 C181.675944,52.6475423 180.919108,52.5234375 180.097168,52.5234375 C178.868327,52.5234375 177.757487,52.8326823 176.764648,53.4511719 C175.77181,54.0696615 175.002767,54.9017741 174.45752,55.9475098 C173.912272,56.9932454 173.639648,58.1427409 173.639648,59.3959961 C173.639648,60.7469076 173.938721,61.9513346 174.536865,63.0092773 C175.13501,64.0672201 175.946777,64.8810221 176.972168,65.4506836 C177.997559,66.0203451 179.14502,66.3051758 180.414551,66.3051758 Z M183.41748,58.4804688 L176.642578,58.4804688 C176.789062,57.4388021 177.169515,56.5985514 177.783936,55.9597168 C178.398356,55.3208822 179.161296,55.0014648 180.072754,55.0014648 C181.03304,55.0014648 181.804118,55.3249512 182.385986,55.9719238 C182.967855,56.6188965 183.311686,57.4550781 183.41748,58.4804688 L183.41748,58.4804688 Z M194.87793,66 L194.87793,58.8710938 L203.703613,58.8710938 L203.703613,56.0756836 L194.87793,56.0756836 L194.87793,51.3027344 L204.82666,51.3027344 L204.82666,48.4951172 L191.801758,48.4951172 L191.801758,66 L194.87793,66 Z M213.552734,66 L213.552734,55.4042969 L216.995117,55.4042969 L216.995117,52.9018555 L213.503906,52.9018555 L213.503906,52.1694336 C213.503906,50.8429362 214.085775,50.1796875 215.249512,50.1796875 C215.778483,50.1796875 216.36849,50.2854818 217.019531,50.4970703 L217.019531,50.4970703 L217.019531,47.9458008 C216.238281,47.7179362 215.424479,47.6040039 214.578125,47.6040039 C213.292318,47.6040039 212.299479,47.9539388 211.599609,48.6538086 C210.883464,49.3699544 210.525391,50.4604492 210.525391,51.925293 L210.525391,51.925293 L210.525391,52.8774414 L208.853027,52.8774414 L208.853027,55.4042969 L210.525391,55.4042969 L210.525391,66 L213.552734,66 Z M229.895996,66.3051758 C232.638509,66.3051758 235.071777,65.3937174 237.195801,63.5708008 L237.195801,63.5708008 L237.195801,56.222168 L229.749512,56.222168 L229.749512,58.8955078 L234.229492,58.8955078 L234.229492,62.1791992 C233.057617,63.0581055 231.645671,63.4975586 229.993652,63.4975586 C228.821777,63.4975586 227.782145,63.2269694 226.874756,62.685791 C225.967367,62.1446126 225.269531,61.4020182 224.78125,60.4580078 C224.292969,59.5139974 224.048828,58.4438477 224.048828,57.2475586 C224.048828,56.1245117 224.295003,55.0869141 224.787354,54.1347656 C225.279704,53.1826172 225.963298,52.4257812 226.838135,51.8642578 C227.712972,51.3027344 228.675293,51.0219727 229.725098,51.0219727 C230.766764,51.0219727 231.655843,51.1765951 232.392334,51.4858398 C233.128825,51.7950846 233.871419,52.2670898 234.620117,52.9018555 L234.620117,52.9018555 L236.573242,50.5703125 C235.629232,49.7646484 234.638428,49.1685384 233.60083,48.7819824 C232.563232,48.3954264 231.312012,48.2021484 229.847168,48.2021484 C228.561361,48.2021484 227.352865,48.4442546 226.22168,48.9284668 C225.090495,49.412679 224.134277,50.0657552 223.353027,50.8876953 C222.571777,51.7096354 221.955322,52.6719564 221.503662,53.7746582 C221.052002,54.87736 220.826172,56.0349935 220.826172,57.2475586 C220.826172,58.956543 221.196452,60.4966634 221.937012,61.8679199 C222.677572,63.2391764 223.741618,64.3215332 225.12915,65.1149902 C226.516683,65.9084473 228.105632,66.3051758 229.895996,66.3051758 Z M248.717285,70.0527344 C251.142415,70.0527344 252.949056,69.4586589 254.137207,68.2705078 C255.260254,67.1474609 255.821777,65.4913737 255.821777,63.3022461 L255.821777,63.3022461 L255.821777,52.8041992 L252.794434,52.8041992 L252.794434,54.7695312 C252.208496,54.0777995 251.547282,53.5305176 250.810791,53.1276855 C250.0743,52.7248535 249.193359,52.5234375 248.167969,52.5234375 C247.394857,52.5234375 246.650228,52.6658529 245.934082,52.9506836 C245.217936,53.2355143 244.579102,53.6363118 244.017578,54.1530762 C243.456055,54.6698405 243.006429,55.3249512 242.668701,56.1184082 C242.330973,56.9118652 242.162109,57.780599 242.162109,58.7246094 C242.162109,59.6767578 242.328939,60.5515951 242.662598,61.3491211 C242.996257,62.1466471 243.443848,62.8037923 244.005371,63.3205566 C244.566895,63.837321 245.205729,64.2381185 245.921875,64.5229492 C246.638021,64.8077799 247.386719,64.9501953 248.167969,64.9501953 C249.193359,64.9501953 250.0743,64.7406413 250.810791,64.3215332 C251.547282,63.9024251 252.216634,63.3022461 252.818848,62.5209961 L252.818848,62.5209961 L252.818848,63.5463867 C252.818848,64.8647461 252.460775,65.8697917 251.744629,66.5615234 C251.028483,67.2532552 249.994954,67.5991211 248.644043,67.5991211 C247.008301,67.5991211 245.441732,67.1311849 243.944336,66.1953125 L243.944336,66.1953125 L242.821289,68.4780273 C244.554688,69.527832 246.52002,70.0527344 248.717285,70.0527344 Z M248.961426,62.3989258 C247.903483,62.3989258 247.014404,62.0571289 246.294189,61.3735352 C245.573975,60.6899414 245.213867,59.8151042 245.213867,58.7490234 C245.213867,57.6585286 245.57194,56.7735189 246.288086,56.0939941 C247.004232,55.4144694 247.895345,55.074707 248.961426,55.074707 C250.035645,55.074707 250.951172,55.4165039 251.708008,56.1000977 C252.464844,56.7836914 252.843262,57.6585286 252.843262,58.7246094 C252.843262,59.7906901 252.464844,60.6695964 251.708008,61.3613281 C250.951172,62.0530599 250.035645,62.3989258 248.961426,62.3989258 Z M265.011719,66 L265.011719,58.6269531 L273.361328,58.6269531 L273.361328,66 L276.4375,66 L276.4375,48.4951172 L273.361328,48.4951172 L273.361328,55.7705078 L265.011719,55.7705078 L265.011719,48.4951172 L261.935547,48.4951172 L261.935547,66 L265.011719,66 Z M285.603027,66 L285.603027,58.5537109 C285.603027,57.5445964 285.877686,56.7450358 286.427002,56.1550293 C286.976318,55.5650228 287.694499,55.2700195 288.581543,55.2700195 C289.476725,55.2700195 290.172526,55.5528158 290.668945,56.1184082 C291.165365,56.6840007 291.413574,57.4794922 291.413574,58.5048828 L291.413574,58.5048828 L291.413574,66 L294.428711,66 L294.428711,57.6015625 C294.428711,56.0472005 294.013672,54.8122559 293.183594,53.8967285 C292.353516,52.9812012 291.201986,52.5234375 289.729004,52.5234375 C288.044434,52.5234375 286.669108,53.3006185 285.603027,54.8549805 L285.603027,54.8549805 L285.603027,47.7504883 L282.587891,47.7504883 L282.587891,66 L285.603027,66 Z M303.679688,66 L303.679688,48.4951172 L300.603516,48.4951172 L300.603516,66 L303.679688,66 Z M313.296875,50.777832 L313.296875,47.8969727 L310.049805,47.8969727 L310.049805,50.777832 L313.296875,50.777832 Z M313.199219,66 L313.199219,52.8041992 L310.171875,52.8041992 L310.171875,66 L313.199219,66 Z M323.365723,66.2441406 C325.172363,66.2441406 326.588379,65.7314453 327.61377,64.7060547 C328.696126,63.6236979 329.237305,62.0734049 329.237305,60.0551758 L329.237305,60.0551758 L329.237305,48.4951172 L326.087891,48.4951172 L326.087891,59.9697266 C326.087891,61.0927734 325.839681,61.9452311 325.343262,62.5270996 C324.846842,63.1089681 324.171387,63.3999023 323.316895,63.3999023 C322.608887,63.3999023 321.980225,63.2290039 321.430908,62.887207 C320.881592,62.5454102 320.33431,62.0327148 319.789062,61.3491211 L319.789062,61.3491211 L317.762695,63.4243164 C319.129883,65.3041992 320.997559,66.2441406 323.365723,66.2441406 Z M338.402832,50.777832 L338.402832,47.8969727 L335.155762,47.8969727 L335.155762,50.777832 L338.402832,50.777832 Z M334.447754,70.0771484 C337.019368,70.0771484 338.305176,68.7750651 338.305176,66.1708984 L338.305176,66.1708984 L338.305176,52.8041992 L335.277832,52.8041992 L335.277832,66 C335.277832,67.0660807 334.801758,67.5991211 333.849609,67.5991211 C333.589193,67.5991211 333.308431,67.574707 333.007324,67.5258789 L333.007324,67.5258789 L333.007324,69.9550781 C333.536296,70.0364583 334.016439,70.0771484 334.447754,70.0771484 Z M347.666016,66 L347.666016,60.921875 L350.388184,58.1264648 L356.369629,66 L360.092773,66 L352.487793,56.0268555 L359.763184,48.4951172 L355.991211,48.4951172 L347.666016,57.2963867 L347.666016,48.4951172 L344.589844,48.4951172 L344.589844,66 L347.666016,66 Z M367.378418,66 L367.378418,62.2280273 L369.233887,60.2993164 L373.213379,66 L376.70459,66 L371.284668,58.175293 L376.533691,52.8041992 L372.859375,52.8041992 L367.378418,58.6513672 L367.378418,47.7504883 L364.363281,47.7504883 L364.363281,66 L367.378418,66 Z M393.523926,66 L393.523926,63.2045898 L384.319824,63.2045898 L384.319824,48.4951172 L381.243652,48.4951172 L381.243652,66 L393.523926,66 Z M401.566406,66 L401.566406,47.7504883 L398.539062,47.7504883 L398.539062,66 L401.566406,66 Z M410.878418,66 L410.878418,53.5 L416.359375,61.703125 L416.457031,61.703125 L421.974609,53.4511719 L421.974609,66 L425.050781,66 L425.050781,48.4951172 L421.779297,48.4951172 L416.457031,56.7714844 L411.134766,48.4951172 L407.851074,48.4951172 L407.851074,66 L410.878418,66 Z M434.216309,66 L434.216309,58.578125 C434.216309,57.5608724 434.476725,56.7552083 434.997559,56.1611328 C435.518392,55.5670573 436.201986,55.2700195 437.04834,55.2700195 C437.886556,55.2700195 438.541667,55.5507812 439.013672,56.1123047 C439.485677,56.6738281 439.72168,57.4632161 439.72168,58.4804688 L439.72168,58.4804688 L439.72168,66 L442.749023,66 L442.749023,58.5537109 C442.749023,57.5120443 443.007406,56.7043457 443.52417,56.1306152 C444.040934,55.5568848 444.722493,55.2700195 445.568848,55.2700195 C446.42334,55.2700195 447.08252,55.5487467 447.546387,56.1062012 C448.010254,56.6636556 448.242188,57.4632161 448.242188,58.5048828 L448.242188,58.5048828 L448.242188,66 L451.269531,66 L451.269531,57.5771484 C451.269531,55.9739583 450.860596,54.7308757 450.042725,53.8479004 C449.224854,52.9649251 448.091634,52.5234375 446.643066,52.5234375 C444.852702,52.5234375 443.363444,53.3006185 442.175293,54.8549805 C441.81722,54.1306966 441.304525,53.5610352 440.637207,53.1459961 C439.969889,52.730957 439.172363,52.5234375 438.244629,52.5234375 C437.325033,52.5234375 436.549886,52.726888 435.919189,53.1337891 C435.288493,53.5406901 434.720866,54.0940755 434.216309,54.7939453 L434.216309,54.7939453 L434.216309,52.8041992 L431.201172,52.8041992 L431.201172,66 L434.216309,66 Z M460.312988,66 L460.312988,53.5488281 L469.96875,66 L472.544434,66 L472.544434,48.4951172 L469.51709,48.4951172 L469.51709,60.6044922 L460.14209,48.4951172 L457.285645,48.4951172 L457.285645,66 L460.312988,66 Z M481.697754,66 L481.697754,58.5537109 C481.697754,57.5445964 481.972412,56.7450358 482.521729,56.1550293 C483.071045,55.5650228 483.789225,55.2700195 484.67627,55.2700195 C485.571452,55.2700195 486.267253,55.5528158 486.763672,56.1184082 C487.260091,56.6840007 487.508301,57.4794922 487.508301,58.5048828 L487.508301,58.5048828 L487.508301,66 L490.523438,66 L490.523438,57.6015625 C490.523438,56.0472005 490.108398,54.8122559 489.27832,53.8967285 C488.448242,52.9812012 487.296712,52.5234375 485.82373,52.5234375 C484.13916,52.5234375 482.763835,53.3006185 481.697754,54.8549805 L481.697754,54.8549805 L481.697754,52.8041992 L478.682617,52.8041992 L478.682617,66 L481.697754,66 Z M10.5957031,101.305176 C11.9059245,101.305176 13.1368001,101.06307 14.2883301,100.578857 C15.43986,100.094645 16.414388,99.4436035 17.2119141,98.6257324 C18.0094401,97.8078613 18.6360677,96.8455404 19.0917969,95.7387695 C19.547526,94.6319987 19.7753906,93.4682617 19.7753906,92.2475586 C19.7753906,91.0105794 19.5495605,89.8387044 19.0979004,88.7319336 C18.6462402,87.6251628 18.0236816,86.6648763 17.2302246,85.8510742 C16.4367676,85.0372721 15.4703776,84.392334 14.3310547,83.9162598 C13.1917318,83.4401855 11.9628906,83.2021484 10.6445312,83.2021484 C9.3343099,83.2021484 8.10546875,83.4442546 6.95800781,83.9284668 C5.81054688,84.412679 4.83805339,85.0637207 4.04052734,85.8815918 C3.2430013,86.6994629 2.6163737,87.6597493 2.16064453,88.7624512 C1.70491536,89.865153 1.47705078,91.0268555 1.47705078,92.2475586 C1.47705078,93.8995768 1.85953776,95.4132487 2.62451172,96.7885742 C3.38948568,98.1638997 4.47184245,99.260498 5.87158203,100.078369 C7.27132161,100.89624 8.84602865,101.305176 10.5957031,101.305176 Z M10.6445312,98.4731445 C9.51334635,98.4731445 8.48999023,98.1923828 7.57446289,97.6308594 C6.65893555,97.0693359 5.95092773,96.3145345 5.45043945,95.3664551 C4.94995117,94.4183757 4.69970703,93.3787435 4.69970703,92.2475586 C4.69970703,91.1000977 4.94588216,90.054362 5.43823242,89.1103516 C5.93058268,88.1663411 6.63045247,87.4156087 7.5378418,86.8581543 C8.44523112,86.3006999 9.46451823,86.0219727 10.5957031,86.0219727 C11.726888,86.0219727 12.7502441,86.3027344 13.6657715,86.8642578 C14.5812988,87.4257812 15.2913411,88.1805827 15.7958984,89.1286621 C16.3004557,90.0767415 16.5527344,91.1163737 16.5527344,92.2475586 C16.5527344,93.3950195 16.3045247,94.4407552 15.8081055,95.3847656 C15.3116862,96.328776 14.6097819,97.0795085 13.7023926,97.6369629 C12.7950033,98.1944173 11.7757161,98.4731445 10.6445312,98.4731445 Z M31.4189453,101.305176 C32.4199219,101.305176 33.3598633,101.12207 34.2387695,100.755859 C35.1176758,100.389648 35.8663737,99.8952637 36.4848633,99.2727051 C37.1033529,98.6501465 37.5916341,97.9177246 37.949707,97.0754395 C38.3077799,96.2331543 38.4868164,95.3481445 38.4868164,94.4204102 C38.4868164,93.1590169 38.1857096,92.0013835 37.5834961,90.9475098 C36.9812826,89.8936361 36.1430664,89.0594889 35.0688477,88.4450684 C33.9946289,87.8306478 32.7942708,87.5234375 31.4677734,87.5234375 C30.1494141,87.5234375 28.9470215,87.8347168 27.8605957,88.4572754 C26.7741699,89.079834 25.9278158,89.9180501 25.3215332,90.9719238 C24.7152507,92.0257975 24.4121094,93.175293 24.4121094,94.4204102 C24.4121094,95.6736654 24.7132161,96.8251953 25.3154297,97.875 C25.9176432,98.9248047 26.7558594,99.7589518 27.8300781,100.377441 C28.9042969,100.995931 30.1005859,101.305176 31.4189453,101.305176 Z M31.4677734,98.6806641 C30.3121745,98.6806641 29.351888,98.2635905 28.5869141,97.4294434 C27.8219401,96.5952962 27.4394531,95.5922852 27.4394531,94.4204102 C27.4394531,93.2159831 27.8056641,92.2068685 28.5380859,91.3930664 C29.2705078,90.5792643 30.2307943,90.1723633 31.4189453,90.1723633 C32.5908203,90.1723633 33.5572103,90.5853678 34.3181152,91.411377 C35.0790202,92.2373861 35.4594727,93.2403971 35.4594727,94.4204102 C35.4594727,95.6166992 35.0932617,96.6258138 34.3608398,97.4477539 C33.628418,98.269694 32.6640625,98.6806641 31.4677734,98.6806641 Z M46.980957,101 L46.980957,95.3725586 L50.4599609,95.3725586 C51.7701823,95.3725586 52.9440918,95.152832 53.9816895,94.7133789 C55.0192871,94.2739258 55.8575033,93.5964355 56.4963379,92.6809082 C57.1351725,91.7653809 57.4545898,90.6728516 57.4545898,89.4033203 C57.4545898,87.6048177 56.8564453,86.1704915 55.6601562,85.1003418 C54.4638672,84.0301921 52.8484701,83.4951172 50.8139648,83.4951172 L50.8139648,83.4951172 L43.9047852,83.4951172 L43.9047852,101 L46.980957,101 Z M50.5576172,92.6015625 L46.980957,92.6015625 L46.980957,86.3027344 L50.5576172,86.3027344 C51.7294922,86.3027344 52.651123,86.5712891 53.3225098,87.1083984 C53.9938965,87.6455078 54.3295898,88.4186198 54.3295898,89.4277344 C54.3295898,90.3798828 53.987793,91.1468913 53.3041992,91.7287598 C52.6206055,92.3106283 51.7050781,92.6015625 50.5576172,92.6015625 L50.5576172,92.6015625 Z M65.2773438,105.003906 L65.2773438,98.9492188 C66.4573568,100.503581 67.9506836,101.280762 69.7573242,101.280762 C70.5548503,101.280762 71.3198242,101.126139 72.0522461,100.816895 C72.784668,100.50765 73.4377441,100.068197 74.0114746,99.4985352 C74.5852051,98.9288737 75.0450033,98.2045898 75.3908691,97.3256836 C75.736735,96.4467773 75.909668,95.4783529 75.909668,94.4204102 C75.909668,93.3543294 75.736735,92.3777669 75.3908691,91.4907227 C75.0450033,90.6036784 74.5831706,89.8753255 74.0053711,89.3056641 C73.4275716,88.7360026 72.7724609,88.2965495 72.0400391,87.9873047 C71.3076172,87.6780599 70.5467122,87.5234375 69.7573242,87.5234375 C67.9425456,87.5234375 66.4492188,88.3494466 65.2773438,90.0014648 L65.2773438,90.0014648 L65.2773438,87.8041992 L62.262207,87.8041992 L62.262207,105.003906 L65.2773438,105.003906 Z M69.0615234,98.644043 C68.0035807,98.644043 67.0961914,98.249349 66.3393555,97.4599609 C65.5825195,96.6705729 65.2041016,95.6573893 65.2041016,94.4204102 C65.2041016,93.1671549 65.5825195,92.1417643 66.3393555,91.3442383 C67.0961914,90.5467122 68.0035807,90.1479492 69.0615234,90.1479492 C70.1113281,90.1479492 71.0024414,90.5406087 71.7348633,91.3259277 C72.4672852,92.1112467 72.8334961,93.1264648 72.8334961,94.371582 C72.8334961,95.6655273 72.4713542,96.7010905 71.7470703,97.4782715 C71.0227865,98.2554525 70.1276042,98.644043 69.0615234,98.644043 Z M97.1357422,101.524902 L99.1010742,99.3276367 L97.1113281,97.6308594 C98.2913411,96.0602214 98.8813477,94.2657878 98.8813477,92.2475586 C98.8813477,91.0105794 98.6555176,89.8387044 98.2038574,88.7319336 C97.7521973,87.6251628 97.1296387,86.6648763 96.3361816,85.8510742 C95.5427246,85.0372721 94.5763346,84.392334 93.4370117,83.9162598 C92.2976888,83.4401855 91.0688477,83.2021484 89.7504883,83.2021484 C88.4402669,83.2021484 87.2114258,83.4442546 86.0639648,83.9284668 C84.9165039,84.412679 83.9440104,85.0637207 83.1464844,85.8815918 C82.3489583,86.6994629 81.7223307,87.6597493 81.2666016,88.7624512 C80.8108724,89.865153 80.5830078,91.0268555 80.5830078,92.2475586 C80.5830078,93.8995768 80.9654948,95.4132487 81.7304688,96.7885742 C82.4954427,98.1638997 83.5777995,99.260498 84.9775391,100.078369 C86.3772786,100.89624 87.9519857,101.305176 89.7016602,101.305176 C91.7036133,101.305176 93.4817708,100.75179 95.0361328,99.6450195 L95.0361328,99.6450195 L97.1357422,101.524902 Z M89.7504883,98.4731445 C88.6193034,98.4731445 87.5959473,98.1923828 86.6804199,97.6308594 C85.7648926,97.0693359 85.0568848,96.3145345 84.5563965,95.3664551 C84.0559082,94.4183757 83.8056641,93.3787435 83.8056641,92.2475586 C83.8056641,91.1000977 84.0518392,90.054362 84.5441895,89.1103516 C85.0365397,88.1663411 85.7364095,87.4156087 86.6437988,86.8581543 C87.5511882,86.3006999 88.5704753,86.0219727 89.7016602,86.0219727 C90.8328451,86.0219727 91.8562012,86.3027344 92.7717285,86.8642578 C93.6872559,87.4257812 94.3972982,88.1805827 94.9018555,89.1286621 C95.4064128,90.0767415 95.6586914,91.1163737 95.6586914,92.2475586 C95.6586914,93.5333659 95.3575846,94.6442057 94.7553711,95.5800781 L94.7553711,95.5800781 L91.7280273,92.8212891 L89.7504883,95.0795898 L92.753418,97.6308594 C91.8663737,98.1923828 90.8653971,98.4731445 89.7504883,98.4731445 Z M117.226562,105.003906 L117.226562,87.8041992 L114.199219,87.8041992 L114.199219,89.8549805 C112.986654,88.3006185 111.485189,87.5234375 109.694824,87.5234375 C108.897298,87.5234375 108.134359,87.6780599 107.406006,87.9873047 C106.677653,88.2965495 106.026611,88.7339681 105.452881,89.2995605 C104.87915,89.865153 104.421387,90.5874023 104.07959,91.4663086 C103.737793,92.3452148 103.566895,93.3136393 103.566895,94.371582 C103.566895,95.4376628 103.739827,96.4162598 104.085693,97.307373 C104.431559,98.1984863 104.893392,98.9268392 105.471191,99.4924316 C106.048991,100.058024 106.702067,100.497477 107.43042,100.810791 C108.158773,101.124105 108.913574,101.280762 109.694824,101.280762 C111.525879,101.280762 113.027344,100.454753 114.199219,98.8027344 L114.199219,98.8027344 L114.199219,105.003906 L117.226562,105.003906 Z M110.427246,98.644043 C109.369303,98.644043 108.470052,98.2513835 107.729492,97.4660645 C106.988932,96.6807454 106.618652,95.6655273 106.618652,94.4204102 C106.618652,93.1264648 106.984863,92.0909017 107.717285,91.3137207 C108.449707,90.5365397 109.353027,90.1479492 110.427246,90.1479492 C111.477051,90.1479492 112.376302,90.5426432 113.125,91.3320312 C113.873698,92.1214193 114.248047,93.1346029 114.248047,94.371582 C114.248047,95.6248372 113.873698,96.6502279 113.125,97.4477539 C112.376302,98.2452799 111.477051,98.644043 110.427246,98.644043 Z M126.416504,101 L126.416504,94.8964844 L130.225098,94.8964844 L134.570801,101 L138.196289,101 L133.472168,94.371582 C134.757975,94.0053711 135.775228,93.376709 136.523926,92.4855957 C137.272624,91.5944824 137.646973,90.457194 137.646973,89.0737305 C137.646973,87.3728841 137.069173,86.0179036 135.913574,85.0087891 C134.757975,83.9996745 133.166992,83.4951172 131.140625,83.4951172 L131.140625,83.4951172 L123.340332,83.4951172 L123.340332,101 L126.416504,101 Z M130.920898,92.1743164 L126.416504,92.1743164 L126.416504,86.3027344 L130.896484,86.3027344 C132.043945,86.3027344 132.935059,86.5529785 133.569824,87.0534668 C134.20459,87.5539551 134.521973,88.2680664 134.521973,89.1958008 C134.521973,90.1072591 134.196452,90.831543 133.54541,91.3686523 C132.894368,91.9057617 132.019531,92.1743164 130.920898,92.1743164 L130.920898,92.1743164 Z M146.080078,87.8041992 L143.064941,87.8041992 L143.064941,101 L146.080078,101 L146.080078,95.9707031 C146.080078,94.2698568 146.489014,92.973877 147.306885,92.0827637 C148.124756,91.1916504 149.217285,90.7460938 150.584473,90.7460938 L150.584473,90.7460938 L150.755371,90.7460938 L150.755371,87.5478516 L150.755371,87.5478516 L150.499023,87.5478516 C149.498047,87.5478516 148.635417,87.8123372 147.911133,88.3413086 C147.129883,88.9191081 146.519531,89.7288411 146.080078,90.7705078 L146.08,90.77 L146.080078,87.8041992 Z M161.849609,101.244141 C163.713216,101.244141 165.220785,100.776204 166.372314,99.840332 C167.523844,98.9044596 168.099609,97.6308594 168.099609,96.0195312 C168.099609,94.6035156 167.647949,93.5069173 166.744629,92.7297363 C165.841309,91.9525553 164.417155,91.3279622 162.472168,90.855957 C161.340983,90.5874023 160.482422,90.3269857 159.896484,90.074707 C159.310547,89.8224284 158.901611,89.5457357 158.669678,89.2446289 C158.437744,88.9435221 158.321777,88.5610352 158.321777,88.097168 C158.321777,87.4786784 158.578125,86.9700521 159.09082,86.5712891 C159.603516,86.172526 160.299316,85.9731445 161.178223,85.9731445 C162.724447,85.9731445 164.307292,86.5753581 165.926758,87.7797852 L165.926758,87.7797852 L167.574707,85.4482422 C165.759928,83.9833984 163.644043,83.2509766 161.227051,83.2509766 C159.477376,83.2509766 158.04305,83.7229818 156.924072,84.6669922 C155.805094,85.6110026 155.245605,86.8317057 155.245605,88.3291016 C155.245605,89.1347656 155.36971,89.8244629 155.61792,90.3981934 C155.86613,90.9719238 156.256755,91.4581706 156.789795,91.8569336 C157.322835,92.2556966 157.918945,92.583252 158.578125,92.8395996 C159.237305,93.0959473 160.071452,93.3421224 161.080566,93.578125 C162.154785,93.8304036 162.97876,94.0887858 163.55249,94.3532715 C164.126221,94.6177572 164.514811,94.8944499 164.718262,95.1833496 C164.921712,95.4722493 165.023438,95.8364258 165.023438,96.2758789 C165.023438,96.9676107 164.74471,97.5148926 164.187256,97.9177246 C163.629801,98.3205566 162.875,98.5219727 161.922852,98.5219727 C160.873047,98.5219727 159.908691,98.3327637 159.029785,97.9543457 C158.150879,97.5759277 157.276042,97.0083008 156.405273,96.2514648 L156.405273,96.2514648 L154.549805,98.4487305 C156.633138,100.312337 159.066406,101.244141 161.849609,101.244141 Z M177.887695,101.244141 C179.328125,101.244141 180.506104,100.888102 181.421631,100.176025 C182.337158,99.4639486 182.794922,98.4405924 182.794922,97.105957 C182.794922,96.6420898 182.709473,96.2148438 182.538574,95.8242188 C182.367676,95.4335938 182.160156,95.1101074 181.916016,94.8537598 C181.671875,94.5974121 181.352458,94.3573405 180.957764,94.1335449 C180.56307,93.9097493 180.200928,93.7327474 179.871338,93.6025391 C179.541748,93.4723307 179.149089,93.3380534 178.693359,93.199707 C178.668945,93.191569 178.626221,93.179362 178.565186,93.1630859 L178.510254,93.1481662 C178.477702,93.139124 178.453288,93.1318902 178.437012,93.1264648 C178.103353,93.0206706 177.863281,92.9413249 177.716797,92.8884277 C177.570312,92.8355306 177.364827,92.7582194 177.100342,92.6564941 C176.835856,92.5547689 176.642578,92.4652507 176.520508,92.3879395 C176.398438,92.3106283 176.262126,92.217041 176.111572,92.1071777 C175.961019,91.9973145 175.857259,91.8793132 175.800293,91.7531738 C175.743327,91.6270345 175.714844,91.4907227 175.714844,91.3442383 C175.714844,90.9291992 175.879639,90.5975749 176.209229,90.3493652 C176.538818,90.1011556 176.992513,89.9770508 177.570312,89.9770508 C178.685221,89.9770508 179.92627,90.3920898 181.293457,91.222168 L181.293457,91.222168 L182.489746,89.0737305 C181.781738,88.6017253 181.000488,88.2334798 180.145996,87.9689941 C179.291504,87.7045085 178.457357,87.5722656 177.643555,87.5722656 C176.292643,87.5722656 175.171631,87.9384766 174.280518,88.6708984 C173.389404,89.4033203 172.943848,90.3798828 172.943848,91.6005859 C172.943848,92.0970052 173.029297,92.5466309 173.200195,92.9494629 C173.371094,93.3522949 173.578613,93.6818848 173.822754,93.9382324 C174.066895,94.1945801 174.388346,94.4346517 174.787109,94.6584473 C175.185872,94.8822428 175.548014,95.0531413 175.873535,95.1711426 C176.199056,95.2891439 176.597819,95.4173177 177.069824,95.5556641 L177.069824,95.5556641 L177.289551,95.6289062 C177.322103,95.6370443 177.366862,95.6492513 177.423828,95.6655273 C177.724935,95.7550456 177.99349,95.8364258 178.229492,95.909668 C178.465495,95.9829102 178.699463,96.0703939 178.931396,96.1721191 C179.16333,96.2738444 179.354574,96.3776042 179.505127,96.4833984 C179.65568,96.5891927 179.777751,96.7173665 179.871338,96.8679199 C179.964925,97.0184733 180.011719,97.1873372 180.011719,97.3745117 C180.011719,97.8383789 179.830648,98.2005208 179.468506,98.4609375 C179.106364,98.7213542 178.603841,98.8515625 177.960938,98.8515625 C176.520508,98.8515625 175.080078,98.3103841 173.639648,97.2280273 L173.639648,97.2280273 L172.296875,99.2788086 C173.102539,99.9135742 173.995687,100.399821 174.976318,100.737549 C175.95695,101.075277 176.927409,101.244141 177.887695,101.244141 Z M195.622559,101 L195.622559,86.3515625 L201.164551,86.3515625 L201.164551,83.4951172 L186.967773,83.4951172 L186.967773,86.3515625 L192.521973,86.3515625 L192.521973,101 L195.622559,101 Z M209.768555,101.219727 C210.802083,101.219727 211.709473,100.995931 212.490723,100.54834 L212.490723,100.54834 L212.490723,98.0703125 C211.896647,98.3714193 211.274089,98.5219727 210.623047,98.5219727 C209.54069,98.5219727 208.999512,97.9726562 208.999512,96.8740234 L208.999512,96.8740234 L208.999512,90.4042969 L212.539551,90.4042969 L212.539551,87.8041992 L208.999512,87.8041992 L208.999512,84.1787109 L205.972168,84.1787109 L205.972168,87.8041992 L204.299805,87.8041992 L204.299805,90.4042969 L205.972168,90.4042969 L205.972168,97.3500977 C205.972168,99.9298503 207.23763,101.219727 209.768555,101.219727 Z M225.11084,101.280762 C227.45459,101.280762 229.295817,100.609375 230.634521,99.2666016 C231.973226,97.9238281 232.642578,95.9747721 232.642578,93.4194336 L232.642578,93.4194336 L232.642578,83.4951172 L229.566406,83.4951172 L229.566406,93.578125 C229.566406,95.1650391 229.177816,96.3735352 228.400635,97.2036133 C227.623454,98.0336914 226.543132,98.4487305 225.159668,98.4487305 C223.768066,98.4487305 222.683675,98.0174154 221.906494,97.1547852 C221.129313,96.2921549 220.740723,95.0592448 220.740723,93.4560547 L220.740723,93.4560547 L220.740723,83.4951172 L217.664551,83.4951172 L217.664551,93.578125 C217.664551,96.0764974 218.325765,97.9848633 219.648193,99.3032227 C220.970622,100.621582 222.791504,101.280762 225.11084,101.280762 Z M243.053223,101.280762 C244.737793,101.280762 246.113118,100.503581 247.179199,98.9492188 L247.179199,98.9492188 L247.179199,101 L250.206543,101 L250.206543,87.8041992 L247.179199,87.8041992 L247.179199,95.2504883 C247.179199,96.2596029 246.906576,97.0571289 246.361328,97.6430664 C245.816081,98.2290039 245.099935,98.5219727 244.212891,98.5219727 C243.317708,98.5219727 242.621908,98.2412109 242.125488,97.6796875 C241.629069,97.1181641 241.380859,96.324707 241.380859,95.2993164 L241.380859,95.2993164 L241.380859,87.8041992 L238.353516,87.8041992 L238.353516,96.2026367 C238.353516,97.7569987 238.768555,98.9919434 239.598633,99.9074707 C240.428711,100.822998 241.580241,101.280762 243.053223,101.280762 Z M264.828613,101.12207 L272.104004,83.4951172 L268.771484,83.4951172 L263.522461,96.9472656 L258.249023,83.4951172 L254.843262,83.4951172 L262.118652,101.12207 L264.828613,101.12207 Z M282.648926,101.097656 L288.044434,87.8041992 L284.870605,87.8041992 L281.293945,97.496582 L277.741699,87.8041992 L274.494629,87.8041992 L279.926758,101.097656 L282.648926,101.097656 Z M300.371582,101.12207 L304.668457,88.5488281 L308.965332,101.12207 L311.614258,101.12207 L317.717773,83.4951172 L314.495117,83.4951172 L310.320312,96.4711914 L306.01123,83.4462891 L303.411133,83.4462891 L299.114258,96.4711914 L294.939453,83.4951172 L291.619141,83.4951172 L297.710449,101.12207 L300.371582,101.12207 Z M327.505859,101.097656 L330.484375,92.0766602 L333.42627,101.097656 L336.124023,101.097656 L340.45752,87.8041992 L337.430176,87.8041992 L334.732422,96.8496094 L331.77832,87.7553711 L329.202637,87.7553711 L326.285156,96.8496094 L323.624023,87.8041992 L320.535645,87.8041992 L324.808105,101.097656 L327.505859,101.097656 Z M347.706543,101 L352.320801,94.371582 L356.922852,101 L360.54834,101 L354.200684,92.0522461 L360.304199,83.4951172 L356.776367,83.4951172 L352.40625,89.7695312 L348.04834,83.4951172 L344.422852,83.4951172 L350.550781,92.1010742 L344.178711,101 L347.706543,101 Z M367.443359,101 L370.666016,96.3735352 L373.913086,101 L377.208984,101 L372.338379,94.2250977 L377.013672,87.8041992 L373.791016,87.8041992 L370.739258,92.1499023 L367.6875,87.8041992 L364.391602,87.8041992 L369.066895,94.2983398 L364.208496,101 L367.443359,101 Z M390.45166,101 L390.45166,94.0297852 L397.409668,83.4951172 L393.881836,83.4951172 L388.925781,91.246582 L384.030762,83.4951172 L380.405273,83.4951172 L387.351074,94.1030273 L387.351074,101 L390.45166,101 Z M402.949707,105.077148 C404.00765,105.077148 404.864176,104.798421 405.519287,104.240967 C406.174398,103.683512 406.766439,102.729329 407.29541,101.378418 L407.29541,101.378418 L412.544434,87.8041992 L409.39502,87.8041992 L405.977051,97.5942383 L402.217285,87.8041992 L398.994629,87.8041992 L404.5,101 C404.255859,101.561523 403.989339,101.956217 403.700439,102.184082 C403.41154,102.411947 403.051432,102.525879 402.620117,102.525879 C402.042318,102.525879 401.452311,102.359049 400.850098,102.025391 L400.850098,102.025391 L399.824707,104.271484 C400.817546,104.808594 401.859212,105.077148 402.949707,105.077148 Z M431.194824,101 L431.194824,98.277832 L420.867676,98.277832 L431.194824,85.777832 L431.194824,83.4951172 L417.193359,83.4951172 L417.193359,86.2294922 L427.190918,86.2294922 L416.86377,98.7294922 L416.86377,101 L431.194824,101 Z M447.5625,101 L447.5625,98.5219727 L439.933105,98.5219727 L447.5625,89.8793945 L447.5625,87.8041992 L436.356445,87.8041992 L436.356445,90.2700195 L443.705078,90.2700195 L436.075684,98.9248047 L436.075684,101 L447.5625,101 Z M7.49511719,161 L7.49511719,143.373047 L5.34667969,143.373047 L0.646972656,144.874512 L1.29394531,147.376953 L4.45556641,146.498047 L4.45556641,161 L7.49511719,161 Z M25.7792969,161 L25.7792969,158.302246 L17.4541016,158.302246 L21.0551758,155.299316 C21.7469076,154.729655 22.3023275,154.253581 22.7214355,153.871094 C23.1405436,153.488607 23.5555827,153.071533 23.9665527,152.619873 C24.3775228,152.168213 24.6888021,151.745036 24.9003906,151.350342 C25.1119792,150.955648 25.2808431,150.522298 25.4069824,150.050293 C25.5331217,149.578288 25.5961914,149.069661 25.5961914,148.524414 C25.5961914,146.945638 25.063151,145.672038 23.9970703,144.703613 C22.9309896,143.735189 21.539388,143.250977 19.8222656,143.250977 C18.805013,143.250977 17.9037272,143.399495 17.1184082,143.696533 C16.3330892,143.993571 15.6617025,144.396403 15.104248,144.905029 C14.5467936,145.413656 13.9710286,146.087077 13.3769531,146.925293 L13.3769531,146.925293 L15.5498047,148.62207 C16.2659505,147.702474 16.9291992,147.035156 17.5395508,146.620117 C18.1499023,146.205078 18.8375651,145.997559 19.6025391,145.997559 C20.4244792,145.997559 21.0999349,146.241699 21.6289062,146.72998 C22.1578776,147.218262 22.4223633,147.88151 22.4223633,148.719727 C22.4223633,149.492839 22.1843262,150.217122 21.708252,150.892578 C21.2321777,151.568034 20.3797201,152.422526 19.1508789,153.456055 L19.1508789,153.456055 L13.1206055,158.570801 L13.1206055,161 L25.7792969,161 Z M36.9956055,161.305176 C38.8022461,161.305176 40.2752279,160.788411 41.4145508,159.754883 C42.5538737,158.721354 43.1235352,157.394857 43.1235352,155.775391 C43.1235352,155.010417 42.9872233,154.328857 42.7145996,153.730713 C42.4419759,153.132568 42.0635579,152.638184 41.5793457,152.247559 C41.0951335,151.856934 40.5539551,151.54362 39.9558105,151.307617 C39.357666,151.071615 38.6964518,150.900716 37.972168,150.794922 L37.972168,150.794922 L42.8427734,145.802246 L42.8427734,143.495117 L31.2705078,143.495117 L31.2705078,146.180664 L38.8388672,146.180664 L34.1147461,151.197754 L34.6152344,153.126465 L36.043457,153.126465 C37.2885742,153.126465 38.2712402,153.362467 38.9914551,153.834473 C39.7116699,154.306478 40.0717773,154.969727 40.0717773,155.824219 C40.0717773,156.638021 39.7869466,157.291097 39.2172852,157.783447 C38.6476237,158.275798 37.9233398,158.521973 37.0444336,158.521973 C36.1004232,158.521973 35.258138,158.330729 34.5175781,157.948242 C33.7770182,157.565755 33.0852865,156.992025 32.4423828,156.227051 L32.4423828,156.227051 L30.2939453,158.229004 C31.9785156,160.279785 34.2124023,161.305176 36.9956055,161.305176 Z M59.90625,161 L59.90625,157.069336 L62.4086914,157.069336 L62.4086914,154.554688 L59.90625,154.554688 L59.90625,143.373047 L57.2817383,143.373047 L47.5649414,154.87207 L48.1386719,157.069336 L56.9643555,157.069336 L56.9643555,161 L59.90625,161 Z M56.9643555,154.554688 L51.2148438,154.554688 L56.9643555,147.621094 L56.9643555,154.554688 Z M73.2832031,161.305176 C75.2200521,161.305176 76.7825521,160.761963 77.9707031,159.675537 C79.1588542,158.589111 79.7529297,157.154785 79.7529297,155.372559 C79.7529297,154.159993 79.480306,153.130534 78.9350586,152.28418 C78.3898112,151.437826 77.6675618,150.817301 76.7683105,150.422607 C75.8690592,150.027913 74.8375651,149.830566 73.6738281,149.830566 C72.7379557,149.830566 71.8142904,149.997396 70.902832,150.331055 L70.902832,150.331055 L71.1835938,146.229492 L78.9838867,146.229492 L78.9838867,143.495117 L68.5224609,143.495117 L68.0341797,152.07666 L69.8774414,153.297363 C70.9597982,152.784668 72.0340169,152.52832 73.1000977,152.52832 C74.1743164,152.52832 75.0471191,152.790771 75.7185059,153.315674 C76.3898926,153.840576 76.7255859,154.54248 76.7255859,155.421387 C76.7255859,156.357259 76.4102376,157.103923 75.779541,157.661377 C75.1488444,158.218831 74.3085938,158.497559 73.2587891,158.497559 C71.7776693,158.497559 70.2762044,157.797689 68.7543945,156.397949 L68.7543945,156.397949 L66.8500977,158.619629 C68.6974284,160.409993 70.8417969,161.305176 73.2832031,161.305176 Z M91.640625,161.305176 C92.8531901,161.305176 93.9558919,161.052897 94.9487305,160.54834 C95.941569,160.043783 96.722819,159.335775 97.2924805,158.424316 C97.8621419,157.512858 98.1469727,156.487467 98.1469727,155.348145 C98.1469727,154.200684 97.8702799,153.199707 97.3168945,152.345215 C96.7635091,151.490723 96.0290527,150.851888 95.1135254,150.428711 C94.197998,150.005534 93.1665039,149.793945 92.019043,149.793945 C91.0831706,149.793945 90.291748,149.950602 89.6447754,150.263916 C88.9978027,150.57723 88.3976237,151.00651 87.8442383,151.551758 C87.9174805,149.891602 88.3203125,148.550863 89.0527344,147.529541 C89.7851562,146.508219 90.7820638,145.997559 92.043457,145.997559 C92.7596029,145.997559 93.404541,146.121663 93.9782715,146.369873 C94.552002,146.618083 95.172526,147.002604 95.8398438,147.523438 L95.8398438,147.523438 L97.487793,145.155273 C96.6739909,144.504232 95.8500163,144.015951 95.0158691,143.69043 C94.181722,143.364909 93.2234701,143.202148 92.1411133,143.202148 C91.1726888,143.202148 90.279541,143.36084 89.4616699,143.678223 C88.6437988,143.995605 87.9418945,144.441162 87.355957,145.014893 C86.7700195,145.588623 86.2715658,146.272217 85.8605957,147.065674 C85.4496257,147.859131 85.1444499,148.731934 84.9450684,149.684082 C84.7456868,150.63623 84.6459961,151.649414 84.6459961,152.723633 C84.6459961,154.432617 84.822998,155.803874 85.177002,156.837402 C85.5310059,157.870931 86.0701497,158.749837 86.7944336,159.474121 C88.0151367,160.694824 89.6305339,161.305176 91.640625,161.305176 Z M91.5673828,158.644043 C90.485026,158.644043 89.6101888,158.344971 88.9428711,157.746826 C88.2755534,157.148682 87.9418945,156.397949 87.9418945,155.494629 C87.9418945,154.607585 88.2694499,153.86499 88.9245605,153.266846 C89.5796712,152.668701 90.4361979,152.369629 91.4941406,152.369629 C92.5683594,152.369629 93.4330241,152.656494 94.0881348,153.230225 C94.7432454,153.803955 95.0708008,154.534342 95.0708008,155.421387 C95.0708008,156.365397 94.753418,157.138509 94.1186523,157.740723 C93.4838867,158.342936 92.6334635,158.644043 91.5673828,158.644043 Z M107.263672,161 L115.161621,145.82666 L115.161621,143.495117 L102.856934,143.495117 L102.856934,146.205078 L111.658203,146.205078 L103.809082,161 L107.263672,161 Z M126.011719,161.244141 C127.289388,161.244141 128.430745,161.042725 129.435791,160.639893 C130.440837,160.237061 131.234294,159.647054 131.816162,158.869873 C132.398031,158.092692 132.688965,157.195475 132.688965,156.178223 C132.688965,155.169108 132.418376,154.326823 131.877197,153.651367 C131.336019,152.975911 130.556803,152.402181 129.539551,151.930176 C131.240397,151.043132 132.09082,149.741048 132.09082,148.023926 C132.09082,146.6486 131.515055,145.509277 130.363525,144.605957 C129.211995,143.702637 127.761393,143.250977 126.011719,143.250977 C124.270182,143.250977 122.821615,143.702637 121.666016,144.605957 C120.510417,145.509277 119.932617,146.632324 119.932617,147.975098 C119.932617,149.724772 120.78304,151.043132 122.483887,151.930176 C120.384277,152.809082 119.334473,154.233236 119.334473,156.202637 C119.334473,157.708171 119.963135,158.924805 121.220459,159.852539 C122.477783,160.780273 124.07487,161.244141 126.011719,161.244141 Z M126.011719,150.904785 C125.108398,150.904785 124.361735,150.660645 123.771729,150.172363 C123.181722,149.684082 122.886719,149.061523 122.886719,148.304688 C122.886719,147.604818 123.175618,147.016846 123.753418,146.540771 C124.331217,146.064697 125.083984,145.82666 126.011719,145.82666 C126.931315,145.82666 127.682048,146.062663 128.263916,146.534668 C128.845785,147.006673 129.136719,147.588542 129.136719,148.280273 C129.136719,149.053385 128.841715,149.684082 128.251709,150.172363 C127.661702,150.660645 126.915039,150.904785 126.011719,150.904785 Z M126.011719,158.680664 C124.89681,158.680664 124.005697,158.426351 123.338379,157.917725 C122.671061,157.409098 122.337402,156.784505 122.337402,156.043945 C122.337402,155.238281 122.685303,154.58724 123.381104,154.09082 C124.076904,153.594401 124.953776,153.346191 126.011719,153.346191 C127.069661,153.346191 127.946533,153.590332 128.642334,154.078613 C129.338135,154.566895 129.686035,155.205729 129.686035,155.995117 C129.686035,156.768229 129.354411,157.409098 128.691162,157.917725 C128.027913,158.426351 127.134766,158.680664 126.011719,158.680664 Z M143.355957,161.305176 C144.894043,161.305176 146.234782,160.902344 147.378174,160.09668 C148.521566,159.291016 149.388265,158.170003 149.978271,156.733643 C150.568278,155.297282 150.863281,153.643229 150.863281,151.771484 C150.863281,150.10319 150.68221,148.738037 150.320068,147.676025 C149.957926,146.614014 149.43099,145.737142 148.739258,145.04541 C148.11263,144.418783 147.414795,143.954915 146.645752,143.653809 C145.876709,143.352702 144.955078,143.202148 143.880859,143.202148 C141.968424,143.202148 140.40389,143.775879 139.187256,144.92334 C137.970622,146.070801 137.362305,147.51123 137.362305,149.244629 C137.362305,150.953613 137.927897,152.314697 139.059082,153.327881 C140.190267,154.341064 141.691732,154.847656 143.563477,154.847656 C145.272461,154.847656 146.639648,154.233236 147.665039,153.004395 C147.616211,154.648275 147.215413,155.974772 146.462646,156.983887 C145.70988,157.993001 144.69873,158.497559 143.429199,158.497559 C142.688639,158.497559 142.00708,158.365316 141.384521,158.10083 C140.761963,157.836344 140.112956,157.419271 139.4375,156.849609 L139.4375,156.849609 L137.765137,159.205566 C138.578939,159.881022 139.429362,160.399821 140.316406,160.761963 C141.203451,161.124105 142.216634,161.305176 143.355957,161.305176 Z M144.015137,152.271973 C142.940918,152.271973 142.076253,151.981038 141.421143,151.39917 C140.766032,150.817301 140.438477,150.066569 140.438477,149.146973 C140.438477,148.194824 140.75179,147.407471 141.378418,146.784912 C142.005046,146.162354 142.847331,145.851074 143.905273,145.851074 C144.995768,145.851074 145.876709,146.15625 146.548096,146.766602 C147.219482,147.376953 147.555176,148.145996 147.555176,149.07373 C147.555176,149.977051 147.233724,150.735921 146.59082,151.350342 C145.947917,151.964762 145.089355,152.271973 144.015137,152.271973 Z M163.300293,161.305176 C164.42334,161.305176 165.467041,161.067139 166.431396,160.591064 C167.395752,160.11499 168.205485,159.470052 168.860596,158.65625 C169.515706,157.842448 170.028402,156.882161 170.398682,155.775391 C170.768962,154.66862 170.954102,153.492676 170.954102,152.247559 C170.954102,150.562988 170.642822,149.037109 170.020264,147.669922 C169.397705,146.302734 168.502523,145.216309 167.334717,144.410645 C166.166911,143.60498 164.838379,143.202148 163.349121,143.202148 C161.851725,143.202148 160.51709,143.609049 159.345215,144.422852 C158.17334,145.236654 157.274089,146.327148 156.647461,147.694336 C156.020833,149.061523 155.70752,150.579264 155.70752,152.247559 C155.70752,153.932129 156.016764,155.460042 156.635254,156.831299 C157.253743,158.202555 158.144857,159.291016 159.308594,160.09668 C160.472331,160.902344 161.802897,161.305176 163.300293,161.305176 Z M163.349121,158.521973 C162.462077,158.521973 161.676758,158.239176 160.993164,157.673584 C160.30957,157.107992 159.786702,156.351156 159.424561,155.403076 C159.062419,154.454997 158.881348,153.403158 158.881348,152.247559 C158.881348,151.067546 159.060384,150.005534 159.418457,149.061523 C159.77653,148.117513 160.293294,147.366781 160.96875,146.809326 C161.644206,146.251872 162.421387,145.973145 163.300293,145.973145 C164.618652,145.973145 165.694906,146.577393 166.529053,147.785889 C167.3632,148.994385 167.780273,150.481608 167.780273,152.247559 C167.780273,153.419434 167.603271,154.477376 167.249268,155.421387 C166.895264,156.365397 166.378499,157.118164 165.698975,157.679688 C165.01945,158.241211 164.236165,158.521973 163.349121,158.521973 Z" id="gastrobar_font_2"></path>
                </g>
            </g>
        </g>
    </g>
</svg>