<svg xmlns="http://www.w3.org/2000/svg" width="52" height="51" viewBox="0 0 52 51"><g><g><g><path fill="#b49060" d="M12 32.703a7.426 7.426 0 0 0-2.16 1.916 4.439 4.439 0 0 0-.88 1.827c-.035.28-.178.534-.4.709-.22.14-.45.299-.72.14a.578.578 0 0 1-.24-.69 4.99 4.99 0 0 1 1.86-2.994 4.004 4.004 0 0 1 2.54-.908zm.66-2.274a8.06 8.06 0 0 0-5.85 12.47.46.46 0 0 1-.07.7c-1.78 1.75-3.54 3.53-5.31 5.3a2.58 2.58 0 0 0-.36.38 1 1 0 0 0-.07 1.18 1 1 0 0 0 1 .54 1.34 1.34 0 0 0 .88-.58c1.78-1.79 3.57-3.56 5.34-5.36a.44.44 0 0 1 .69-.06 7.82 7.82 0 0 0 7.84.82 8 8 0 0 0 3.47-12c-.23-.32-.24-.51.06-.77a11.14 11.14 0 0 0 1.19-1.19c.3-.37.48-.29.77 0 1.44 1.48 2.92 2.93 4.37 4.4.23.24.37.26.62 0 .93-.96 1.86-1.92 2.86-2.85.3-.3.18-.4-.12-.53a9.61 9.61 0 0 0-2.73-.69 14.8 14.8 0 0 1-2.58-.44 1.53 1.53 0 0 1-1.24-1.6 17.611 17.611 0 0 0-.2-2 8.15 8.15 0 0 0-4.09-6 .45.45 0 0 0-.66.08c-.86.9-1.74 1.78-2.64 2.64-.3.28-.28.42 0 .69 1.4 1.37 2.77 2.77 4.17 4.15.23.23.26.37 0 .61-.475.42-.926.868-1.35 1.34-.23.25-.39.23-.65.05a7.48 7.48 0 0 0-4.47-1.32c-.29-.001-.581.012-.87.04z"/></g><g><path fill="#b49060" d="M39.385 5.248a7.65 7.65 0 0 0-2.38 2.31 3.92 3.92 0 0 0-.65 1.44 1.46 1.46 0 0 1-.22.53c-.21.29-.52.52-.89.36-.37-.16-.29-.51-.24-.83a5 5 0 0 1 4-3.81zm8.72 9.54a7.74 7.74 0 0 0-.45-8.35c-.24-.36-.21-.52.08-.8 1.24-1.21 2.46-2.44 3.69-3.67.232-.19.397-.45.47-.74a1 1 0 0 0-.55-1.15 1.08 1.08 0 0 0-1.34.23c-1.34 1.29-2.63 2.57-3.9 3.85-.27.27-.43.27-.74.07a7.78 7.78 0 0 0-6.62-1 8 8 0 0 0-4.61 12.12c.24.37.23.56-.09.86-.67.62-1.34 1.3-2 2-.28.28-.44.31-.74 0-1.37-1.4-2.77-2.77-4.14-4.17-.22-.21-.36-.25-.59 0-.44.5-.95.97-1.44 1.45a.61.61 0 0 0-.2.51 3.12 3.12 0 0 0 2.38 3.2c1.02.32 2.08.56 3.08.85a4.84 4.84 0 0 1 3.68 3.95c.128.75.188 1.51.18 2.27a2.94 2.94 0 0 0 .51 1.63c.21.3.37.39.68.07.79-.84 1.61-1.66 2.45-2.45.3-.28.27-.44 0-.71-1.49-1.45-2.95-2.94-4.43-4.4-.21-.23-.26-.36 0-.62a56.519 56.519 0 0 0 2.19-2.19c.24-.2.39-.19.66 0a8.26 8.26 0 0 0 5 1.47 7.7 7.7 0 0 0 6.79-4.28z"/></g><g><path fill="#b49060" d="M23.505 17.13c.143.657.22 1.327.23 2a1.57 1.57 0 0 0 1.35 1.68c1.15.34 2.35.33 3.52.58 2.82.59 4.07 2 4.2 4.92v1.84a1.85 1.85 0 0 0 .68 1.47c.16.13.2.21 0 .37-.57.55-1.12 1.11-1.68 1.67-.1.1-.19.18-.35.08a15.27 15.27 0 0 0-3.87-1.27 10.93 10.93 0 0 1-1.14-.39 2.91 2.91 0 0 1-1.9-2.73 9 9 0 0 0-3.42-6.76c-.58-.51-.58-.51 0-1.05z"/></g></g></g></svg>