<?xml version="1.0" encoding="UTF-8"?>
<svg width="346px" height="20px" viewBox="0 0 346 20" version="1.1" xmlns="http://www.w3.org/2000/svg" xmlns:xlink="http://www.w3.org/1999/xlink">
    <!-- Generator: Sketch 63.1 (92452) - https://sketch.com -->
    <title>dvorik_сopperplate_4</title>
    <desc>Created with Sketch.</desc>
    <g id="Кейс" stroke="none" stroke-width="1" fill="none" fill-rule="evenodd" opacity="0.400000006">
        <g id="Дворик-Be" transform="translate(-1242.000000, -3653.000000)" fill="#12171E" fill-rule="nonzero">
            <g id="Цвета-и-шрифты" transform="translate(175.000000, 3225.000000)">
                <g id="Group-29-Copy" transform="translate(1066.500000, 305.500000)">
                    <path d="M4.94,138.1 C5.79333333,138.1 6.53,137.946667 7.15,137.64 C7.77,137.333333 8.24,136.906667 8.56,136.36 L8.56,136.36 L8.56,138 L9.92,138 L9.92,131.48 C9.92,130.133333 9.55333333,129.116667 8.82,128.43 C8.08666667,127.743333 7.03333333,127.4 5.66,127.4 C4.83333333,127.4 4.04666667,127.523333 3.3,127.77 C2.55333333,128.016667 1.91333333,128.366667 1.38,128.82 L1.38,128.82 L2.02,129.88 C2.46,129.493333 2.98666667,129.19 3.6,128.97 C4.21333333,128.75 4.85333333,128.64 5.52,128.64 C6.49333333,128.64 7.23333333,128.876667 7.74,129.35 C8.24666667,129.823333 8.5,130.513333 8.5,131.42 L8.5,131.42 L8.5,132.06 L5.16,132.06 C3.74666667,132.06 2.71666667,132.333333 2.07,132.88 C1.42333333,133.426667 1.1,134.146667 1.1,135.04 C1.1,135.96 1.44666667,136.7 2.14,137.26 C2.83333333,137.82 3.76666667,138.1 4.94,138.1 Z M5.16,136.98 C4.32,136.98 3.66666667,136.803333 3.2,136.45 C2.73333333,136.096667 2.5,135.613333 2.5,135 C2.5,133.746667 3.4,133.12 5.2,133.12 L5.2,133.12 L8.5,133.12 L8.5,134.84 C8.22,135.533333 7.79333333,136.063333 7.22,136.43 C6.64666667,136.796667 5.96,136.98 5.16,136.98 Z M21.2,138.1 C22.1866667,138.1 23.08,137.873333 23.88,137.42 C24.68,136.966667 25.3066667,136.333333 25.76,135.52 C26.2133333,134.706667 26.44,133.78 26.44,132.74 C26.44,131.7 26.2133333,130.773333 25.76,129.96 C25.3066667,129.146667 24.68,128.516667 23.88,128.07 C23.08,127.623333 22.1866667,127.4 21.2,127.4 C20.3466667,127.4 19.5766667,127.576667 18.89,127.93 C18.2033333,128.283333 17.64,128.8 17.2,129.48 L17.2,129.48 L17.2,123.16 L15.78,123.16 L15.78,138 L17.14,138 L17.14,135.92 C17.5666667,136.626667 18.13,137.166667 18.83,137.54 C19.53,137.913333 20.32,138.1 21.2,138.1 Z M21.1,136.84 C20.3533333,136.84 19.6833333,136.67 19.09,136.33 C18.4966667,135.99 18.03,135.506667 17.69,134.88 C17.35,134.253333 17.18,133.54 17.18,132.74 C17.18,131.94 17.35,131.226667 17.69,130.6 C18.03,129.973333 18.4966667,129.49 19.09,129.15 C19.6833333,128.81 20.3533333,128.64 21.1,128.64 C21.8333333,128.64 22.5,128.81 23.1,129.15 C23.7,129.49 24.17,129.973333 24.51,130.6 C24.85,131.226667 25.02,131.94 25.02,132.74 C25.02,133.54 24.85,134.253333 24.51,134.88 C24.17,135.506667 23.7,135.99 23.1,136.33 C22.5,136.67 21.8333333,136.84 21.1,136.84 Z M35.7,138.1 C36.5933333,138.1 37.4,137.923333 38.12,137.57 C38.84,137.216667 39.4066667,136.7 39.82,136.02 L39.82,136.02 L38.76,135.3 C38.4133333,135.82 37.9733333,136.206667 37.44,136.46 C36.9066667,136.713333 36.3266667,136.84 35.7,136.84 C34.94,136.84 34.2566667,136.67 33.65,136.33 C33.0433333,135.99 32.57,135.51 32.23,134.89 C31.89,134.27 31.72,133.553333 31.72,132.74 C31.72,131.94 31.89,131.226667 32.23,130.6 C32.57,129.973333 33.0433333,129.49 33.65,129.15 C34.2566667,128.81 34.94,128.64 35.7,128.64 C36.3266667,128.64 36.9066667,128.77 37.44,129.03 C37.9733333,129.29 38.4133333,129.68 38.76,130.2 L38.76,130.2 L39.82,129.48 C39.4066667,128.8 38.8433333,128.283333 38.13,127.93 C37.4166667,127.576667 36.6066667,127.4 35.7,127.4 C34.66,127.4 33.73,127.626667 32.91,128.08 C32.09,128.533333 31.4466667,129.166667 30.98,129.98 C30.5133333,130.793333 30.28,131.713333 30.28,132.74 C30.28,133.766667 30.5133333,134.69 30.98,135.51 C31.4466667,136.33 32.09,136.966667 32.91,137.42 C33.73,137.873333 34.66,138.1 35.7,138.1 Z M48.6,138.1 C49.48,138.1 50.27,137.913333 50.97,137.54 C51.67,137.166667 52.2333333,136.626667 52.66,135.92 L52.66,135.92 L52.66,138 L54.02,138 L54.02,123.16 L52.6,123.16 L52.6,129.48 C52.16,128.8 51.5966667,128.283333 50.91,127.93 C50.2233333,127.576667 49.4533333,127.4 48.6,127.4 C47.6133333,127.4 46.72,127.623333 45.92,128.07 C45.12,128.516667 44.4933333,129.146667 44.04,129.96 C43.5866667,130.773333 43.36,131.7 43.36,132.74 C43.36,133.78 43.5866667,134.706667 44.04,135.52 C44.4933333,136.333333 45.12,136.966667 45.92,137.42 C46.72,137.873333 47.6133333,138.1 48.6,138.1 Z M48.72,136.84 C47.9733333,136.84 47.3033333,136.67 46.71,136.33 C46.1166667,135.99 45.65,135.506667 45.31,134.88 C44.97,134.253333 44.8,133.54 44.8,132.74 C44.8,131.94 44.97,131.226667 45.31,130.6 C45.65,129.973333 46.1166667,129.49 46.71,129.15 C47.3033333,128.81 47.9733333,128.64 48.72,128.64 C49.4533333,128.64 50.1166667,128.81 50.71,129.15 C51.3033333,129.49 51.77,129.973333 52.11,130.6 C52.45,131.226667 52.62,131.94 52.62,132.74 C52.62,133.54 52.45,134.253333 52.11,134.88 C51.77,135.506667 51.3033333,135.99 50.71,136.33 C50.1166667,136.67 49.4533333,136.84 48.72,136.84 Z M64.44,138.1 C65.28,138.1 66.05,137.953333 66.75,137.66 C67.45,137.366667 68.0333333,136.94 68.5,136.38 L68.5,136.38 L67.7,135.46 C67.3,135.913333 66.8266667,136.256667 66.28,136.49 C65.7333333,136.723333 65.1333333,136.84 64.48,136.84 C63.32,136.84 62.36,136.503333 61.6,135.83 C60.84,135.156667 60.42,134.273333 60.34,133.18 L60.34,133.18 L69.14,133.18 L69.16,132.74 C69.16,131.7 68.94,130.776667 68.5,129.97 C68.06,129.163333 67.4533333,128.533333 66.68,128.08 C65.9066667,127.626667 65.0333333,127.4 64.06,127.4 C63.0866667,127.4 62.21,127.626667 61.43,128.08 C60.65,128.533333 60.0366667,129.166667 59.59,129.98 C59.1433333,130.793333 58.92,131.713333 58.92,132.74 C58.92,133.766667 59.1533333,134.686667 59.62,135.5 C60.0866667,136.313333 60.7366667,136.95 61.57,137.41 C62.4033333,137.87 63.36,138.1 64.44,138.1 Z M67.8,132.12 L60.34,132.12 C60.4333333,131.08 60.8233333,130.236667 61.51,129.59 C62.1966667,128.943333 63.0466667,128.62 64.06,128.62 C65.0866667,128.62 65.9433333,128.943333 66.63,129.59 C67.3166667,130.236667 67.7066667,131.08 67.8,132.12 L67.8,132.12 Z M75.72,138 L75.72,128.68 L78.92,128.68 L78.92,127.48 L75.68,127.48 L75.68,126.24 C75.68,125.586667 75.8366667,125.093333 76.15,124.76 C76.4633333,124.426667 76.9266667,124.26 77.54,124.26 C78.1666667,124.26 78.6866667,124.433333 79.1,124.78 L79.1,124.78 L79.58,123.72 C79.3266667,123.506667 79.0133333,123.343333 78.64,123.23 C78.2666667,123.116667 77.88,123.06 77.48,123.06 C76.4666667,123.06 75.6833333,123.34 75.13,123.9 C74.5766667,124.46 74.3,125.22 74.3,126.18 L74.3,126.18 L74.3,127.48 L72.42,127.48 L72.42,128.68 L74.3,128.68 L74.3,138 L75.72,138 Z M87.14,141.98 C88.9,141.98 90.2166667,141.55 91.09,140.69 C91.9633333,139.83 92.4,138.506667 92.4,136.72 L92.4,136.72 L92.4,127.48 L91.04,127.48 L91.04,129.5 C90.6,128.82 90.02,128.3 89.3,127.94 C88.58,127.58 87.7733333,127.4 86.88,127.4 C85.88,127.4 84.98,127.613333 84.18,128.04 C83.38,128.466667 82.75,129.066667 82.29,129.84 C81.83,130.613333 81.6,131.493333 81.6,132.48 C81.6,133.466667 81.83,134.35 82.29,135.13 C82.75,135.91 83.3833333,136.516667 84.19,136.95 C84.9966667,137.383333 85.8933333,137.6 86.88,137.6 C87.7466667,137.6 88.5366667,137.426667 89.25,137.08 C89.9633333,136.733333 90.54,136.226667 90.98,135.56 L90.98,135.56 L90.98,136.9 C90.98,138.206667 90.6666667,139.17 90.04,139.79 C89.4133333,140.41 88.4333333,140.72 87.1,140.72 C86.3,140.72 85.5366667,140.593333 84.81,140.34 C84.0833333,140.086667 83.4666667,139.733333 82.96,139.28 L82.96,139.28 L82.24,140.36 C82.7866667,140.866667 83.4966667,141.263333 84.37,141.55 C85.2433333,141.836667 86.1666667,141.98 87.14,141.98 Z M87.02,136.34 C86.26,136.34 85.5766667,136.176667 84.97,135.85 C84.3633333,135.523333 83.89,135.066667 83.55,134.48 C83.21,133.893333 83.04,133.226667 83.04,132.48 C83.04,131.733333 83.21,131.066667 83.55,130.48 C83.89,129.893333 84.3633333,129.44 84.97,129.12 C85.5766667,128.8 86.26,128.64 87.02,128.64 C87.7933333,128.64 88.4833333,128.803333 89.09,129.13 C89.6966667,129.456667 90.17,129.91 90.51,130.49 C90.85,131.07 91.02,131.733333 91.02,132.48 C91.02,133.226667 90.85,133.893333 90.51,134.48 C90.17,135.066667 89.6933333,135.523333 89.08,135.85 C88.4666667,136.176667 87.78,136.34 87.02,136.34 Z M99.8,138 L99.8,132.48 C99.8,131.293333 100.13,130.363333 100.79,129.69 C101.45,129.016667 102.346667,128.68 103.48,128.68 C104.493333,128.68 105.273333,128.966667 105.82,129.54 C106.366667,130.113333 106.64,130.946667 106.64,132.04 L106.64,132.04 L106.64,138 L108.06,138 L108.06,131.9 C108.06,130.433333 107.67,129.316667 106.89,128.55 C106.11,127.783333 105.06,127.4 103.74,127.4 C102.86,127.4 102.08,127.566667 101.4,127.9 C100.72,128.233333 100.186667,128.706667 99.8,129.32 L99.8,129.32 L99.8,123.16 L98.38,123.16 L98.38,138 L99.8,138 Z M114.64,125.18 C114.933333,125.18 115.18,125.08 115.38,124.88 C115.58,124.68 115.68,124.433333 115.68,124.14 C115.68,123.873333 115.58,123.643333 115.38,123.45 C115.18,123.256667 114.933333,123.16 114.64,123.16 C114.346667,123.16 114.1,123.26 113.9,123.46 C113.7,123.66 113.6,123.893333 113.6,124.16 C113.6,124.44 113.7,124.68 113.9,124.88 C114.1,125.08 114.346667,125.18 114.64,125.18 Z M115.34,138 L115.34,127.48 L113.92,127.48 L113.92,138 L115.34,138 Z M122.12,125.16 C122.413333,125.16 122.66,125.06 122.86,124.86 C123.06,124.66 123.16,124.413333 123.16,124.12 C123.16,123.853333 123.06,123.623333 122.86,123.43 C122.66,123.236667 122.413333,123.14 122.12,123.14 C121.826667,123.14 121.58,123.24 121.38,123.44 C121.18,123.64 121.08,123.873333 121.08,124.14 C121.08,124.42 121.18,124.66 121.38,124.86 C121.58,125.06 121.826667,125.16 122.12,125.16 Z M119.74,141.98 C120.726667,141.98 121.486667,141.693333 122.02,141.12 C122.553333,140.546667 122.82,139.766667 122.82,138.78 L122.82,138.78 L122.82,127.48 L121.4,127.48 L121.4,138.78 C121.4,139.433333 121.25,139.926667 120.95,140.26 C120.65,140.593333 120.22,140.76 119.66,140.76 C118.98,140.76 118.433333,140.58 118.02,140.22 L118.02,140.22 L117.52,141.3 C117.773333,141.526667 118.096667,141.696667 118.49,141.81 C118.883333,141.923333 119.3,141.98 119.74,141.98 Z M130.2,138 L130.2,135 L132.68,132.72 L136.92,138 L138.66,138 L133.74,131.78 L138.24,127.48 L136.48,127.48 L130.2,133.22 L130.2,123.16 L128.78,123.16 L128.78,138 L130.2,138 Z M144.22,138 L144.22,123.16 L142.8,123.16 L142.8,138 L144.22,138 Z M151.6,138 L151.6,132.48 C151.6,131.293333 151.916667,130.363333 152.55,129.69 C153.183333,129.016667 154.04,128.68 155.12,128.68 C156.093333,128.68 156.843333,128.966667 157.37,129.54 C157.896667,130.113333 158.16,130.946667 158.16,132.04 L158.16,132.04 L158.16,138 L159.58,138 L159.58,132.48 C159.58,131.293333 159.893333,130.363333 160.52,129.69 C161.146667,129.016667 162.006667,128.68 163.1,128.68 C164.06,128.68 164.803333,128.966667 165.33,129.54 C165.856667,130.113333 166.12,130.946667 166.12,132.04 L166.12,132.04 L166.12,138 L167.54,138 L167.54,131.9 C167.54,130.42 167.163333,129.3 166.41,128.54 C165.656667,127.78 164.62,127.4 163.3,127.4 C162.366667,127.4 161.536667,127.596667 160.81,127.99 C160.083333,128.383333 159.526667,128.926667 159.14,129.62 C158.82,128.886667 158.336667,128.333333 157.69,127.96 C157.043333,127.586667 156.28,127.4 155.4,127.4 C154.533333,127.4 153.766667,127.573333 153.1,127.92 C152.433333,128.266667 151.913333,128.76 151.54,129.4 L151.54,129.4 L151.54,127.48 L150.18,127.48 L150.18,138 L151.6,138 Z M174.82,138 L174.82,132.48 C174.82,131.293333 175.15,130.363333 175.81,129.69 C176.47,129.016667 177.366667,128.68 178.5,128.68 C179.513333,128.68 180.293333,128.966667 180.84,129.54 C181.386667,130.113333 181.66,130.946667 181.66,132.04 L181.66,132.04 L181.66,138 L183.08,138 L183.08,131.9 C183.08,130.433333 182.69,129.316667 181.91,128.55 C181.13,127.783333 180.08,127.4 178.76,127.4 C177.853333,127.4 177.056667,127.576667 176.37,127.93 C175.683333,128.283333 175.146667,128.78 174.76,129.42 L174.76,129.42 L174.76,127.48 L173.4,127.48 L173.4,138 L174.82,138 Z M193.28,138.1 C194.293333,138.1 195.206667,137.87 196.02,137.41 C196.833333,136.95 197.47,136.313333 197.93,135.5 C198.39,134.686667 198.62,133.766667 198.62,132.74 C198.62,131.713333 198.39,130.793333 197.93,129.98 C197.47,129.166667 196.833333,128.533333 196.02,128.08 C195.206667,127.626667 194.293333,127.4 193.28,127.4 C192.266667,127.4 191.353333,127.626667 190.54,128.08 C189.726667,128.533333 189.086667,129.166667 188.62,129.98 C188.153333,130.793333 187.92,131.713333 187.92,132.74 C187.92,133.766667 188.153333,134.686667 188.62,135.5 C189.086667,136.313333 189.726667,136.95 190.54,137.41 C191.353333,137.87 192.266667,138.1 193.28,138.1 Z M193.28,136.84 C192.533333,136.84 191.863333,136.67 191.27,136.33 C190.676667,135.99 190.21,135.506667 189.87,134.88 C189.53,134.253333 189.36,133.54 189.36,132.74 C189.36,131.94 189.53,131.226667 189.87,130.6 C190.21,129.973333 190.676667,129.49 191.27,129.15 C191.863333,128.81 192.533333,128.64 193.28,128.64 C194.026667,128.64 194.696667,128.81 195.29,129.15 C195.883333,129.49 196.346667,129.973333 196.68,130.6 C197.013333,131.226667 197.18,131.94 197.18,132.74 C197.18,133.54 197.013333,134.253333 196.68,134.88 C196.346667,135.506667 195.883333,135.99 195.29,136.33 C194.696667,136.67 194.026667,136.84 193.28,136.84 Z M204.94,141.88 L204.94,136.02 C205.38,136.7 205.943333,137.216667 206.63,137.57 C207.316667,137.923333 208.086667,138.1 208.94,138.1 C209.94,138.1 210.836667,137.876667 211.63,137.43 C212.423333,136.983333 213.046667,136.353333 213.5,135.54 C213.953333,134.726667 214.18,133.793333 214.18,132.74 C214.18,131.7 213.953333,130.773333 213.5,129.96 C213.046667,129.146667 212.42,128.516667 211.62,128.07 C210.82,127.623333 209.926667,127.4 208.94,127.4 C208.06,127.4 207.27,127.586667 206.57,127.96 C205.87,128.333333 205.306667,128.866667 204.88,129.56 L204.88,129.56 L204.88,127.48 L203.52,127.48 L203.52,141.88 L204.94,141.88 Z M208.84,136.84 C208.093333,136.84 207.423333,136.67 206.83,136.33 C206.236667,135.99 205.77,135.506667 205.43,134.88 C205.09,134.253333 204.92,133.54 204.92,132.74 C204.92,131.94 205.09,131.23 205.43,130.61 C205.77,129.99 206.236667,129.506667 206.83,129.16 C207.423333,128.813333 208.093333,128.64 208.84,128.64 C209.573333,128.64 210.24,128.813333 210.84,129.16 C211.44,129.506667 211.91,129.99 212.25,130.61 C212.59,131.23 212.76,131.94 212.76,132.74 C212.76,133.54 212.59,134.253333 212.25,134.88 C211.91,135.506667 211.44,135.99 210.84,136.33 C210.24,136.67 209.573333,136.84 208.84,136.84 Z M228.68,141.88 L228.68,127.48 L227.32,127.48 L227.32,129.56 C226.893333,128.866667 226.33,128.333333 225.63,127.96 C224.93,127.586667 224.14,127.4 223.26,127.4 C222.273333,127.4 221.38,127.623333 220.58,128.07 C219.78,128.516667 219.153333,129.146667 218.7,129.96 C218.246667,130.773333 218.02,131.7 218.02,132.74 C218.02,133.793333 218.246667,134.726667 218.7,135.54 C219.153333,136.353333 219.776667,136.983333 220.57,137.43 C221.363333,137.876667 222.26,138.1 223.26,138.1 C224.113333,138.1 224.883333,137.923333 225.57,137.57 C226.256667,137.216667 226.82,136.7 227.26,136.02 L227.26,136.02 L227.26,141.88 L228.68,141.88 Z M223.38,136.84 C222.633333,136.84 221.963333,136.67 221.37,136.33 C220.776667,135.99 220.31,135.506667 219.97,134.88 C219.63,134.253333 219.46,133.54 219.46,132.74 C219.46,131.94 219.63,131.23 219.97,130.61 C220.31,129.99 220.776667,129.506667 221.37,129.16 C221.963333,128.813333 222.633333,128.64 223.38,128.64 C224.113333,128.64 224.776667,128.813333 225.37,129.16 C225.963333,129.506667 226.43,129.99 226.77,130.61 C227.11,131.23 227.28,131.94 227.28,132.74 C227.28,133.54 227.11,134.253333 226.77,134.88 C226.43,135.506667 225.963333,135.99 225.37,136.33 C224.776667,136.67 224.113333,136.84 223.38,136.84 Z M236.06,138 L236.06,132.64 C236.06,131.413333 236.373333,130.46 237,129.78 C237.626667,129.1 238.493333,128.76 239.6,128.76 L239.6,128.76 L239.94,128.78 L239.94,127.4 C238.966667,127.4 238.15,127.58 237.49,127.94 C236.83,128.3 236.333333,128.833333 236,129.54 L236,129.54 L236,127.48 L234.64,127.48 L234.64,138 L236.06,138 Z M247.4,138.1 C248.76,138.1 249.823333,137.83 250.59,137.29 C251.356667,136.75 251.74,136.02 251.74,135.1 C251.74,134.42 251.56,133.886667 251.2,133.5 C250.84,133.113333 250.406667,132.84 249.9,132.68 C249.393333,132.52 248.72,132.36 247.88,132.2 C247.2,132.08 246.666667,131.963333 246.28,131.85 C245.893333,131.736667 245.57,131.56 245.31,131.32 C245.05,131.08 244.92,130.76 244.92,130.36 C244.92,129.84 245.15,129.42 245.61,129.1 C246.07,128.78 246.753333,128.62 247.66,128.62 C248.86,128.62 249.893333,128.92 250.76,129.52 L250.76,129.52 L251.38,128.38 C250.94,128.086667 250.38,127.85 249.7,127.67 C249.02,127.49 248.34,127.4 247.66,127.4 C246.353333,127.4 245.333333,127.68 244.6,128.24 C243.866667,128.8 243.5,129.52 243.5,130.4 C243.5,131.106667 243.683333,131.66 244.05,132.06 C244.416667,132.46 244.86,132.743333 245.38,132.91 C245.9,133.076667 246.586667,133.24 247.44,133.4 C248.08,133.506667 248.593333,133.616667 248.98,133.73 C249.366667,133.843333 249.686667,134.01 249.94,134.23 C250.193333,134.45 250.32,134.753333 250.32,135.14 C250.32,135.686667 250.09,136.11 249.63,136.41 C249.17,136.71 248.46,136.86 247.5,136.86 C246.78,136.86 246.086667,136.75 245.42,136.53 C244.753333,136.31 244.2,136.026667 243.76,135.68 L243.76,135.68 L243.12,136.8 C243.56,137.173333 244.17,137.483333 244.95,137.73 C245.73,137.976667 246.546667,138.1 247.4,138.1 Z M259.68,138.1 C260.106667,138.1 260.516667,138.036667 260.91,137.91 C261.303333,137.783333 261.633333,137.6 261.9,137.36 L261.9,137.36 L261.4,136.34 C261.2,136.513333 260.963333,136.646667 260.69,136.74 C260.416667,136.833333 260.133333,136.88 259.84,136.88 C259.253333,136.88 258.803333,136.716667 258.49,136.39 C258.176667,136.063333 258.02,135.586667 258.02,134.96 L258.02,134.96 L258.02,128.68 L261.22,128.68 L261.22,127.48 L258.02,127.48 L258.02,125.18 L256.6,125.18 L256.6,127.48 L254.72,127.48 L254.72,128.68 L256.6,128.68 L256.6,135.04 C256.6,136.013333 256.866667,136.766667 257.4,137.3 C257.933333,137.833333 258.693333,138.1 259.68,138.1 Z M270.82,138.1 C271.66,138.1 272.406667,137.923333 273.06,137.57 C273.713333,137.216667 274.226667,136.72 274.6,136.08 L274.6,136.08 L274.6,138 L275.96,138 L275.96,127.48 L274.54,127.48 L274.54,133 C274.54,134.2 274.22,135.136667 273.58,135.81 C272.94,136.483333 272.066667,136.82 270.96,136.82 C269.946667,136.82 269.166667,136.533333 268.62,135.96 C268.073333,135.386667 267.8,134.546667 267.8,133.44 L267.8,133.44 L267.8,127.48 L266.38,127.48 L266.38,133.58 C266.38,135.06 266.776667,136.183333 267.57,136.95 C268.363333,137.716667 269.446667,138.1 270.82,138.1 Z M286.1,138 L290.78,127.48 L289.38,127.48 L285.4,136.44 L281.46,127.48 L279.98,127.48 L284.64,138 L286.1,138 Z M298.16,138 L301.48,129.38 L304.8,138 L306.14,138 L310.12,127.48 L308.82,127.48 L305.48,136.42 L302.12,127.48 L300.9,127.48 L297.52,136.42 L294.22,127.48 L292.86,127.48 L296.82,138 L298.16,138 Z M313.66,138 L317.02,133.6 L320.36,138 L321.98,138 L317.78,132.6 L321.74,127.48 L320.18,127.48 L317.02,131.6 L313.86,127.48 L312.26,127.48 L316.22,132.6 L312.06,138 L313.66,138 Z M325.82,141.98 C326.606667,141.98 327.28,141.773333 327.84,141.36 C328.4,140.946667 328.893333,140.246667 329.32,139.26 L329.32,139.26 L334.58,127.48 L333.18,127.48 L329.22,136.42 L325.26,127.48 L323.78,127.48 L328.48,137.98 L328.02,139 C327.726667,139.64 327.41,140.093333 327.07,140.36 C326.73,140.626667 326.32,140.76 325.84,140.76 C325.093333,140.76 324.453333,140.493333 323.92,139.96 L323.92,139.96 L323.26,141.02 C323.58,141.34 323.96,141.58 324.4,141.74 C324.84,141.9 325.313333,141.98 325.82,141.98 Z M345.8,138 L345.8,136.82 L339.06,136.82 L345.68,128.42 L345.68,127.48 L337.36,127.48 L337.36,128.68 L343.86,128.68 L337.24,137.06 L337.24,138 L345.8,138 Z" id="dvorik_сopperplate_4"></path>
                </g>
            </g>
        </g>
    </g>
</svg>