<?xml version="1.0" encoding="UTF-8"?>
<svg width="207px" height="194px" viewBox="0 0 207 194" version="1.1" xmlns="http://www.w3.org/2000/svg" xmlns:xlink="http://www.w3.org/1999/xlink">
    <!-- Generator: Sketch 63.1 (92452) - https://sketch.com -->
    <title>attic_font_2</title>
    <desc>Created with Sketch.</desc>
    <g id="Кейс" stroke="none" stroke-width="1" fill="none" fill-rule="evenodd">
        <g id="Портфолио-Attic-XL" transform="translate(-1020.000000, -3311.000000)" fill="#12171E" fill-rule="nonzero">
            <g id="Colors-Fonts" transform="translate(165.000000, 3098.000000)">
                <path d="M857.502441,231 L859.650879,225.946289 L866.901855,225.946289 L869.172363,231 L871.674805,231 L864.04541,213.849121 L862.324219,213.849121 L855,231 L857.502441,231 Z M865.900879,223.773438 L860.603027,223.773438 L863.154297,217.59668 L865.900879,223.773438 Z M885.780273,231.195312 C886.113932,231.195312 886.43335,231.136312 886.738525,231.018311 C887.043701,230.900309 887.448568,230.678548 887.953125,230.353027 L887.953125,230.353027 L887.953125,228.998047 C887.383464,229.39681 886.964355,229.596191 886.695801,229.596191 C886.435384,229.596191 886.305176,229.404948 886.305176,229.022461 L886.305176,229.022461 L886.305176,224.249512 C886.305176,223.305501 886.278727,222.664632 886.22583,222.326904 C886.172933,221.989176 886.048828,221.651449 885.853516,221.313721 C885.658203,220.975993 885.438477,220.705404 885.194336,220.501953 C884.461914,219.867188 883.489421,219.549805 882.276855,219.549805 C880.657389,219.549805 879.416341,220.058431 878.553711,221.075684 L878.553711,221.075684 L878.553711,223.504883 C879.701172,222.251628 880.881185,221.625 882.09375,221.625 C883.444661,221.625 884.120117,222.300456 884.120117,223.651367 L884.120117,223.651367 L884.120117,224.249512 L881.275879,225.226074 C880.340007,225.551595 879.617757,225.993083 879.109131,226.550537 C878.600505,227.107992 878.346191,227.740723 878.346191,228.44873 C878.346191,229.22998 878.606608,229.878988 879.127441,230.395752 C879.648275,230.912516 880.299316,231.170898 881.080566,231.170898 C882.146647,231.170898 883.151693,230.804688 884.095703,230.072266 C884.266602,230.820964 884.828125,231.195312 885.780273,231.195312 Z M882.154785,229.64502 C881.68278,229.64502 881.298258,229.498535 881.001221,229.205566 C880.704183,228.912598 880.555664,228.53418 880.555664,228.070312 C880.555664,227.614583 880.712321,227.234131 881.025635,226.928955 C881.338949,226.623779 881.874023,226.320638 882.630859,226.019531 L882.630859,226.019531 L884.120117,225.445801 L884.120117,228.77832 C883.517904,229.35612 882.862793,229.64502 882.154785,229.64502 Z M901.997559,231 C903.299642,231 904.384033,230.784342 905.250732,230.353027 C906.117432,229.921712 906.774577,229.364258 907.222168,228.680664 C907.669759,227.99707 907.893555,227.219889 907.893555,226.349121 C907.893555,225.250488 907.525309,224.306478 906.788818,223.51709 C906.052327,222.727702 905.061523,222.215007 903.816406,221.979004 C905.549805,221.25472 906.416504,220.054362 906.416504,218.37793 C906.416504,217.507161 906.208984,216.740153 905.793945,216.076904 C905.378906,215.413656 904.776693,214.892822 903.987305,214.514404 C903.197917,214.135986 902.099284,213.946777 900.691406,213.946777 L900.691406,213.946777 L896.223633,213.946777 L896.223633,231 L901.997559,231 Z M900.288574,221.246582 L898.665039,221.246582 L898.665039,216.119629 L900.764648,216.119629 C902.847982,216.119629 903.889648,216.9375 903.889648,218.573242 C903.889648,219.36263 903.61499,220.005534 903.065674,220.501953 C902.516357,220.998372 901.590658,221.246582 900.288574,221.246582 L900.288574,221.246582 Z M901.069824,228.827148 L898.665039,228.827148 L898.665039,223.419434 L900.947754,223.419434 C902.160319,223.419434 903.047363,223.525228 903.608887,223.736816 C904.17041,223.948405 904.60376,224.269857 904.908936,224.701172 C905.214111,225.132487 905.366699,225.608561 905.366699,226.129395 C905.366699,226.633952 905.222249,227.105957 904.93335,227.54541 C904.64445,227.984863 904.261963,228.30835 903.785889,228.515869 C903.309814,228.723389 902.40446,228.827148 901.069824,228.827148 L901.069824,228.827148 Z M920.094727,231.195312 C921.901367,231.195312 923.343831,230.660238 924.422119,229.590088 C925.500407,228.519938 926.039551,227.081543 926.039551,225.274902 C926.039551,223.590332 925.587891,222.210938 924.68457,221.136719 C923.78125,220.0625 922.617513,219.525391 921.193359,219.525391 C920.102865,219.525391 919.077474,219.875326 918.117188,220.575195 L918.117188,220.575195 L918.117188,213.946777 L915.895508,213.946777 L915.895508,230.377441 C916.367513,230.613444 917.004313,230.808757 917.805908,230.963379 C918.607503,231.118001 919.370443,231.195312 920.094727,231.195312 Z M920.44873,229.120117 C919.651204,229.120117 918.874023,229.006185 918.117188,228.77832 L918.117188,228.77832 L918.117188,222.699219 C918.97168,221.966797 919.813965,221.600586 920.644043,221.600586 C921.579915,221.600586 922.338786,221.950521 922.920654,222.650391 C923.502523,223.35026 923.793457,224.25765 923.793457,225.372559 C923.793457,226.471191 923.482178,227.370443 922.859619,228.070312 C922.237061,228.770182 921.433431,229.120117 920.44873,229.120117 Z M943.294434,231.195312 C945.638184,231.195312 947.705241,230.707031 949.495605,229.730469 L949.495605,229.730469 L949.495605,227.044922 C947.526204,228.314453 945.507975,228.949219 943.440918,228.949219 C941.463379,228.949219 939.839844,228.347005 938.570312,227.142578 C937.300781,225.938151 936.666016,224.400065 936.666016,222.52832 C936.666016,220.672852 937.310954,219.128662 938.60083,217.895752 C939.890706,216.662842 941.512207,216.046387 943.465332,216.046387 C945.369629,216.046387 947.318685,216.616048 949.3125,217.755371 L949.3125,217.755371 L949.3125,215.130859 C947.123372,214.194987 945.133626,213.727051 943.343262,213.727051 C940.747233,213.727051 938.564209,214.573405 936.794189,216.266113 C935.02417,217.958822 934.13916,220.046224 934.13916,222.52832 C934.13916,224.09082 934.525716,225.543457 935.298828,226.88623 C936.07194,228.229004 937.121745,229.282878 938.448242,230.047852 C939.77474,230.812826 941.390137,231.195312 943.294434,231.195312 Z M963.344727,231.195312 C964.410807,231.195312 965.501302,230.987793 966.616211,230.572754 L966.616211,230.572754 L966.616211,228.375488 C965.50944,228.871908 964.528809,229.120117 963.674316,229.120117 C962.494303,229.120117 961.556396,228.782389 960.860596,228.106934 C960.164795,227.431478 959.816895,226.52002 959.816895,225.372559 C959.816895,224.282064 960.138346,223.384847 960.78125,222.680908 C961.424154,221.976969 962.246094,221.625 963.24707,221.625 C964.207357,221.625 965.249023,221.983073 966.37207,222.699219 L966.37207,222.699219 L966.37207,220.331055 C965.696615,220.029948 965.128988,219.824463 964.669189,219.7146 C964.209391,219.604736 963.690592,219.549805 963.112793,219.549805 C961.452637,219.549805 960.113932,220.090983 959.09668,221.17334 C958.079427,222.255697 957.570801,223.67985 957.570801,225.445801 C957.570801,227.195475 958.093669,228.591146 959.139404,229.632812 C960.18514,230.674479 961.586914,231.195312 963.344727,231.195312 Z M981.164388,230.975016 C982.516385,230.969699 983.443034,230.927165 983.944336,230.847412 C984.481445,230.761963 985.071452,230.593099 985.714355,230.34082 C986.812988,229.925781 987.777344,229.311361 988.607422,228.497559 C989.421224,227.708171 990.047852,226.792643 990.487305,225.750977 C990.926758,224.70931 991.146484,223.618815 991.146484,222.479492 C991.146484,220.88444 990.747721,219.411458 989.950195,218.060547 C989.152669,216.709635 988.078451,215.686279 986.727539,214.990479 C985.376628,214.294678 983.541504,213.946777 981.222168,213.946777 L981.222168,213.946777 L975.472656,213.946777 L975.472656,230.975586 L981.164388,230.975016 Z M981.039062,228.802734 L977.914062,228.802734 L977.914062,216.119629 L980.96582,216.119629 C982.137695,216.119629 982.988118,216.164388 983.51709,216.253906 C984.046061,216.343424 984.60555,216.52653 985.195557,216.803223 C985.785563,217.079915 986.308431,217.433919 986.76416,217.865234 C988.001139,219.020833 988.619629,220.51416 988.619629,222.345215 C988.619629,224.208822 988.017415,225.750977 986.812988,226.97168 C986.438639,227.346029 986.025635,227.661377 985.573975,227.917725 C985.122314,228.174072 984.558757,228.385661 983.883301,228.55249 C983.207845,228.71932 982.259766,228.802734 981.039062,228.802734 L981.039062,228.802734 Z M1009.62207,231 L1009.62207,213.946777 L1007.38818,213.946777 L1007.38818,220.001465 C1006.50928,219.684082 1005.69548,219.525391 1004.94678,219.525391 C1003.33545,219.525391 1002.01099,220.058431 1000.97339,221.124512 C999.935791,222.190592 999.416992,223.549642 999.416992,225.20166 C999.416992,226.967611 999.911377,228.375488 1000.90015,229.425293 C1001.88892,230.475098 1003.21338,231 1004.87354,231 L1004.87354,231 L1009.62207,231 Z M1007.38818,229.095703 L1005.66699,229.095703 C1004.67415,229.095703 1003.98649,229.030599 1003.604,228.900391 C1003.22152,228.770182 1002.85938,228.517904 1002.51758,228.143555 C1001.94792,227.516927 1001.66309,226.625814 1001.66309,225.470215 C1001.66309,224.241374 1001.99064,223.264811 1002.64575,222.540527 C1003.30086,221.816243 1004.1818,221.454102 1005.28857,221.454102 C1005.99658,221.454102 1006.69645,221.629069 1007.38818,221.979004 L1007.38818,221.979004 L1007.38818,229.095703 Z M1028.84229,230.975586 L1028.84229,228.802734 L1021.38379,228.802734 L1021.38379,223.504883 L1028.36621,223.504883 L1028.36621,221.319824 L1021.38379,221.319824 L1021.38379,216.119629 L1028.61035,216.119629 L1028.61035,213.946777 L1018.94238,213.946777 L1018.94238,230.975586 L1028.84229,230.975586 Z M1042.11768,231.170898 C1043.021,231.170898 1043.80835,231.073242 1044.47974,230.87793 C1045.15112,230.682617 1045.82861,230.357096 1046.51221,229.901367 L1046.51221,229.901367 L1046.51221,227.728516 C1045.27523,228.639974 1043.92432,229.095703 1042.45947,229.095703 C1041.40967,229.095703 1040.55314,228.77832 1039.88989,228.143555 C1039.22664,227.508789 1038.86654,226.654297 1038.80957,225.580078 L1038.80957,225.580078 L1046.70752,225.580078 L1046.70752,225.299316 C1046.70752,223.549642 1046.264,222.153971 1045.37695,221.112305 C1044.48991,220.070638 1043.30176,219.549805 1041.8125,219.549805 C1040.26628,219.549805 1039.00895,220.08488 1038.04053,221.155029 C1037.0721,222.225179 1036.58789,223.614746 1036.58789,225.32373 C1036.58789,226.463053 1036.81779,227.466064 1037.27759,228.332764 C1037.73739,229.199463 1038.34977,229.88916 1039.11475,230.401855 C1039.87972,230.914551 1040.8807,231.170898 1042.11768,231.170898 Z M1044.51025,224.249512 L1038.8584,224.249512 C1039.01302,223.362467 1039.34465,222.678874 1039.85327,222.19873 C1040.3619,221.718587 1041.01497,221.478516 1041.8125,221.478516 C1042.61003,221.478516 1043.24479,221.718587 1043.7168,222.19873 C1044.1888,222.678874 1044.45329,223.362467 1044.51025,224.249512 L1044.51025,224.249512 Z M859.345703,266 L859.345703,258.053223 L865.998535,258.053223 L865.998535,255.880371 L859.345703,255.880371 L859.345703,251.119629 L865.998535,251.119629 L865.998535,248.946777 L856.904297,248.946777 L856.904297,266 L859.345703,266 Z M876.783691,266 L876.783691,256.771484 L878.785645,256.771484 L878.785645,254.769531 L876.783691,254.769531 L876.783691,254.098145 C876.783691,252.909993 876.952555,252.083984 877.290283,251.620117 C877.628011,251.15625 878.232259,250.924316 879.103027,250.924316 C879.428548,250.924316 879.770345,250.989421 880.128418,251.119629 L880.128418,251.119629 L880.128418,248.946777 C879.493652,248.800293 878.944336,248.727051 878.480469,248.727051 C877.40625,248.727051 876.484619,249.170573 875.715576,250.057617 C874.946533,250.944661 874.562012,252.291504 874.562012,254.098145 L874.562012,254.098145 L874.562012,254.769531 L872.950684,254.769531 L872.950684,256.771484 L874.562012,256.771484 L874.562012,266 L876.783691,266 Z M895.552246,266.195312 C897.619303,266.195312 899.702637,265.739583 901.802246,264.828125 L901.802246,264.828125 L901.802246,257.601562 L896.077148,257.601562 L896.077148,259.774414 L899.36084,259.774414 L899.36084,263.32666 L899.128906,263.399902 C897.769857,263.847493 896.602051,264.071289 895.625488,264.071289 C893.615397,264.071289 891.971517,263.456868 890.693848,262.228027 C889.416178,260.999186 888.777344,259.416341 888.777344,257.479492 C888.777344,255.632161 889.416178,254.07373 890.693848,252.804199 C891.971517,251.534668 893.542155,250.899902 895.405762,250.899902 C897.407715,250.899902 899.425944,251.489909 901.460449,252.669922 L901.460449,252.669922 L901.460449,250.179688 C900.14209,249.626302 899.051595,249.24585 898.188965,249.03833 C897.326335,248.830811 896.414876,248.727051 895.45459,248.727051 C892.817871,248.727051 890.624674,249.573405 888.875,251.266113 C887.125326,252.958822 886.250488,255.078776 886.250488,257.625977 C886.250488,260.042969 887.094808,262.075439 888.783447,263.723389 C890.472087,265.371338 892.728353,266.195312 895.552246,266.195312 Z M914.760254,271.725098 C916.347168,271.725098 917.614665,271.407715 918.562744,270.772949 C919.510824,270.138184 919.984863,269.28776 919.984863,268.22168 C919.984863,267.407878 919.716309,266.732422 919.179199,266.195312 C918.861816,265.87793 918.505778,265.633789 918.111084,265.462891 C917.71639,265.291992 916.83138,265.05599 915.456055,264.754883 C914.634115,264.575846 914.066488,264.402913 913.753174,264.236084 C913.43986,264.069255 913.283203,263.855632 913.283203,263.595215 C913.283203,263.139486 913.702311,262.850586 914.540527,262.728516 C915.736816,262.549479 916.597412,262.309408 917.122314,262.008301 C917.647217,261.707194 918.076497,261.273844 918.410156,260.708252 C918.743815,260.14266 918.910645,259.566895 918.910645,258.980957 C918.910645,258.508952 918.825195,258.089844 918.654297,257.723633 C918.483398,257.357422 918.178223,256.950521 917.73877,256.50293 L917.73877,256.50293 L920.009277,256.50293 L920.009277,254.769531 L915.382812,254.769531 C913.869141,254.769531 912.674886,255.117432 911.800049,255.813232 C910.925212,256.509033 910.487793,257.455078 910.487793,258.651367 C910.487793,260.287109 911.313802,261.471191 912.96582,262.203613 C912.420573,262.34196 911.987223,262.557617 911.665771,262.850586 C911.34432,263.143555 911.183594,263.469076 911.183594,263.827148 C911.183594,264.299154 911.557943,264.775228 912.306641,265.255371 C910.426758,265.694824 909.486816,266.675456 909.486816,268.197266 C909.486816,269.271484 909.964925,270.128011 910.921143,270.766846 C911.87736,271.40568 913.157064,271.725098 914.760254,271.725098 Z M914.687012,260.775391 C914.052246,260.775391 913.527344,260.586182 913.112305,260.207764 C912.697266,259.829346 912.489746,259.351237 912.489746,258.773438 C912.489746,258.203776 912.701335,257.715495 913.124512,257.308594 C913.547689,256.901693 914.060384,256.698242 914.662598,256.698242 C915.297363,256.698242 915.826335,256.893555 916.249512,257.28418 C916.672689,257.674805 916.884277,258.163086 916.884277,258.749023 C916.884277,259.326823 916.674723,259.809001 916.255615,260.195557 C915.836507,260.582113 915.313639,260.775391 914.687012,260.775391 Z M914.711426,269.955078 C912.628092,269.955078 911.586426,269.377279 911.586426,268.22168 C911.586426,267.72526 911.824463,267.318359 912.300537,267.000977 C912.776611,266.683594 913.388997,266.524902 914.137695,266.524902 C915.220052,266.524902 916.103027,266.689697 916.786621,267.019287 C917.470215,267.348877 917.812012,267.774089 917.812012,268.294922 C917.812012,268.823893 917.541423,269.232829 917.000244,269.521729 C916.459066,269.810628 915.696126,269.955078 914.711426,269.955078 Z M930.477051,266 L930.477051,258.578125 L940.05957,258.578125 L940.05957,266 L942.500977,266 L942.500977,248.946777 L940.05957,248.946777 L940.05957,256.319824 L930.477051,256.319824 L930.477051,248.946777 L928.035645,248.946777 L928.035645,266 L930.477051,266 Z M954.128418,266 L954.128418,257.955566 C954.649251,257.369629 955.125326,256.950521 955.556641,256.698242 C955.987956,256.445964 956.447754,256.319824 956.936035,256.319824 C957.595215,256.319824 958.126221,256.570068 958.529053,257.070557 C958.931885,257.571045 959.133301,258.232259 959.133301,259.054199 L959.133301,259.054199 L959.133301,266 L961.35498,266 L961.35498,259.603516 C961.35498,258.301432 961.210531,257.320801 960.921631,256.661621 C960.632731,256.002441 960.191243,255.485677 959.597168,255.111328 C959.003092,254.736979 958.331706,254.549805 957.583008,254.549805 C956.207682,254.549805 955.056152,255.115397 954.128418,256.246582 L954.128418,256.246582 L954.128418,248.946777 L951.906738,248.946777 L951.906738,266 L954.128418,266 Z M973.226562,266 L973.226562,248.946777 L970.785156,248.946777 L970.785156,266 L973.226562,266 Z M983.853027,252.669922 C984.219238,252.669922 984.532552,252.539714 984.792969,252.279297 C985.053385,252.01888 985.183594,251.709635 985.183594,251.351562 C985.183594,250.985352 985.053385,250.676107 984.792969,250.423828 C984.532552,250.171549 984.219238,250.04541 983.853027,250.04541 C983.51123,250.04541 983.210124,250.177653 982.949707,250.442139 C982.68929,250.706624 982.559082,251.009766 982.559082,251.351562 C982.559082,251.701497 982.68929,252.008708 982.949707,252.273193 C983.210124,252.537679 983.51123,252.669922 983.853027,252.669922 Z M984.976074,266 L984.976074,254.769531 L982.754395,254.769531 L982.754395,266 L984.976074,266 Z M992.331055,271.749512 C993.340169,271.749512 994.202799,271.523682 994.918945,271.072021 C995.635091,270.620361 996.15389,270.018148 996.475342,269.265381 C996.796794,268.512614 996.95752,267.350911 996.95752,265.780273 L996.95752,265.780273 L996.95752,248.946777 L994.516113,248.946777 L994.516113,265.499512 C994.516113,266.899251 994.408285,267.814779 994.192627,268.246094 C993.976969,268.677409 993.684001,268.978516 993.313721,269.149414 C992.943441,269.320312 992.408366,269.405762 991.708496,269.405762 L991.708496,269.405762 L991.085938,269.405762 L991.537598,271.67627 C991.911947,271.725098 992.176432,271.749512 992.331055,271.749512 Z M1007.48633,252.669922 C1007.86068,252.669922 1008.17196,252.543783 1008.42017,252.291504 C1008.66838,252.039225 1008.79248,251.725911 1008.79248,251.351562 C1008.79248,250.99349 1008.66227,250.686279 1008.40186,250.429932 C1008.14144,250.173584 1007.82812,250.04541 1007.46191,250.04541 C1007.12012,250.04541 1006.81698,250.177653 1006.55249,250.442139 C1006.288,250.706624 1006.15576,251.009766 1006.15576,251.351562 C1006.15576,251.709635 1006.29004,252.01888 1006.55859,252.279297 C1006.82715,252.539714 1007.13639,252.669922 1007.48633,252.669922 Z M1006.3877,271.725098 C1007.88509,270.919434 1008.63379,269.544108 1008.63379,267.599121 L1008.63379,267.599121 L1008.63379,254.769531 L1006.41211,254.769531 L1006.41211,267.599121 C1006.41211,268.193197 1006.26156,268.71403 1005.96045,269.161621 C1005.65934,269.609212 1005.25244,269.922526 1004.73975,270.101562 L1004.73975,270.101562 L1006.3877,271.725098 Z M1020.68848,266 L1020.68848,257.577148 L1029.39209,266 L1032.73682,266 L1023.52051,257.027832 L1030.91797,248.946777 L1027.86621,248.946777 L1020.68848,256.74707 L1020.68848,248.946777 L1018.24707,248.946777 L1018.24707,266 L1020.68848,266 Z M1042.5332,266 L1042.5332,248.946777 L1040.31152,248.946777 L1040.31152,266 L1042.5332,266 Z M1051.23682,266 L1045.46289,260.274902 L1050.26025,254.769531 L1047.61133,254.769531 L1042.63086,260.274902 L1048.2583,266 L1051.23682,266 Z M866.999512,301 L866.999512,298.77832 L859.321289,298.77832 L859.321289,283.946777 L856.879883,283.946777 L856.879883,301 L866.999512,301 Z M877.101074,301 L877.101074,283.946777 L874.879395,283.946777 L874.879395,301 L877.101074,301 Z M889.009277,301 L889.009277,287.730957 L894.307129,294.322754 L894.758789,294.322754 L900.007812,287.730957 L900.007812,301 L902.461426,301 L902.461426,283.946777 L900.190918,283.946777 L894.539062,290.953613 L888.862793,283.946777 L886.567871,283.946777 L886.567871,301 L889.009277,301 Z M913.95459,301 L913.95459,292.845703 C914.451009,292.308594 914.892497,291.934245 915.279053,291.722656 C915.665609,291.511068 916.09082,291.405273 916.554688,291.405273 C917.384766,291.405273 917.966634,291.651449 918.300293,292.143799 C918.633952,292.636149 918.800781,293.504883 918.800781,294.75 L918.800781,294.75 L918.800781,301 L921.034668,301 L921.034668,292.845703 C921.832194,291.917969 922.690755,291.454102 923.610352,291.454102 C924.326497,291.454102 924.875814,291.702311 925.258301,292.19873 C925.640788,292.69515 925.832031,293.411296 925.832031,294.347168 L925.832031,294.347168 L925.832031,301 L928.053711,301 L928.053711,294.371582 C928.053711,292.73584 927.701742,291.519206 926.997803,290.72168 C926.293864,289.924154 925.396647,289.525391 924.306152,289.525391 C923.012207,289.525391 921.771159,290.208984 920.583008,291.576172 C919.801758,290.22526 918.699056,289.549805 917.274902,289.549805 C916.192546,289.549805 915.085775,290.115397 913.95459,291.246582 L913.95459,291.246582 L913.95459,289.769531 L911.73291,289.769531 L911.73291,301 L913.95459,301 Z M939.778809,301 L939.778809,287.877441 L951.180176,301 L953.279785,301 L953.279785,283.946777 L950.960449,283.946777 L950.960449,297.179199 L939.461426,283.946777 L937.483887,283.946777 L937.483887,301 L939.778809,301 Z M964.846191,301 L964.846191,292.97998 C965.578613,291.930176 966.469727,291.405273 967.519531,291.405273 C968.341471,291.405273 968.927409,291.651449 969.277344,292.143799 C969.627279,292.636149 969.802246,293.456055 969.802246,294.603516 L969.802246,294.603516 L969.802246,301 L972.023926,301 L972.023926,294.579102 C972.023926,293.211914 971.867269,292.212972 971.553955,291.582275 C971.240641,290.951579 970.782878,290.45516 970.180664,290.093018 C969.578451,289.730876 968.927409,289.549805 968.227539,289.549805 C966.966146,289.549805 965.83903,290.099121 964.846191,291.197754 L964.846191,291.197754 L964.846191,289.769531 L962.575684,289.769531 L962.575684,301 L964.846191,301 Z M989.669434,301.195312 C992.363118,301.195312 994.594971,300.371338 996.36499,298.723389 C998.13501,297.075439 999.02002,294.994141 999.02002,292.479492 C999.02002,289.964844 998.143148,287.873372 996.389404,286.205078 C994.635661,284.536784 992.44043,283.702637 989.803711,283.702637 C987.166992,283.702637 984.986003,284.536784 983.260742,286.205078 C981.535482,287.873372 980.672852,289.98112 980.672852,292.52832 C980.672852,295.010417 981.529378,297.075439 983.242432,298.723389 C984.955485,300.371338 987.097819,301.195312 989.669434,301.195312 Z M989.828125,298.949219 C987.931966,298.949219 986.35319,298.338867 985.091797,297.118164 C983.830404,295.897461 983.199707,294.367513 983.199707,292.52832 C983.199707,290.632161 983.828369,289.07373 985.085693,287.853027 C986.343018,286.632324 987.948242,286.021973 989.901367,286.021973 C991.756836,286.021973 993.32137,286.638428 994.594971,287.871338 C995.868571,289.104248 996.505371,290.624023 996.505371,292.430664 C996.505371,294.286133 995.868571,295.836426 994.594971,297.081543 C993.32137,298.32666 991.732422,298.949219 989.828125,298.949219 Z M1012.979,301.195312 C1014.72054,301.195312 1016.16504,300.660238 1017.3125,299.590088 C1018.45996,298.519938 1019.03369,297.17513 1019.03369,295.555664 C1019.03369,293.88737 1018.4681,292.501872 1017.33691,291.39917 C1016.20573,290.296468 1014.78564,289.745117 1013.07666,289.745117 C1011.3514,289.745117 1009.91707,290.292399 1008.77368,291.386963 C1007.63029,292.481527 1007.05859,293.850749 1007.05859,295.494629 C1007.05859,297.122233 1007.62419,298.479248 1008.75537,299.565674 C1009.88656,300.6521 1011.29443,301.195312 1012.979,301.195312 Z M1013.05225,299.120117 C1011.95361,299.120117 1011.05436,298.780355 1010.35449,298.10083 C1009.65462,297.421305 1009.30469,296.544434 1009.30469,295.470215 C1009.30469,294.387858 1009.64648,293.496745 1010.33008,292.796875 C1011.01367,292.097005 1011.88851,291.74707 1012.95459,291.74707 C1014.05322,291.74707 1014.96468,292.097005 1015.68896,292.796875 C1016.41325,293.496745 1016.77539,294.37972 1016.77539,295.445801 C1016.77539,296.52002 1016.42749,297.40096 1015.73169,298.088623 C1015.03589,298.776286 1014.14274,299.120117 1013.05225,299.120117 Z M1030.12402,301 L1030.12402,293.602539 L1031.93066,293.602539 C1033.54199,293.602539 1034.77897,293.429606 1035.6416,293.08374 C1036.50423,292.737874 1037.18376,292.182454 1037.68018,291.41748 C1038.1766,290.652507 1038.4248,289.7736 1038.4248,288.780762 C1038.4248,287.299642 1037.94059,286.119629 1036.97217,285.240723 C1036.00374,284.361816 1034.70573,283.922363 1033.07812,283.922363 L1033.07812,283.922363 L1027.67041,283.922363 L1027.67041,301 L1030.12402,301 Z M1032.79736,291.429688 L1030.12402,291.429688 L1030.12402,286.095215 L1032.65088,286.095215 C1034.81559,286.095215 1035.89795,286.970052 1035.89795,288.719727 C1035.89795,289.590495 1035.62939,290.259847 1035.09229,290.727783 C1034.55518,291.195719 1033.7902,291.429688 1032.79736,291.429688 L1032.79736,291.429688 Z M1048.36768,306.725098 L1048.36768,300.719238 C1049.23844,301.036621 1050.0319,301.195312 1050.74805,301.195312 C1052.36751,301.195312 1053.70011,300.654134 1054.74585,299.571777 C1055.79159,298.489421 1056.31445,297.105957 1056.31445,295.421387 C1056.31445,293.63916 1055.75903,292.251628 1054.64819,291.258789 C1053.53735,290.265951 1051.98503,289.769531 1049.99121,289.769531 L1049.99121,289.769531 L1046.09717,289.769531 L1046.09717,306.725098 L1048.36768,306.725098 Z M1050.51611,299.278809 C1049.76742,299.278809 1049.05127,299.103841 1048.36768,298.753906 L1048.36768,298.753906 L1048.36768,291.844727 L1049.94238,291.844727 C1050.98405,291.844727 1051.77547,291.9729 1052.31665,292.229248 C1052.85783,292.485596 1053.28507,292.894531 1053.59839,293.456055 C1053.9117,294.017578 1054.06836,294.664551 1054.06836,295.396973 C1054.06836,296.536296 1053.73674,297.468099 1053.07349,298.192383 C1052.41024,298.916667 1051.55778,299.278809 1050.51611,299.278809 Z M871.625977,339.45459 L874.07959,337.074219 C873.428548,337.293945 872.858887,337.403809 872.370605,337.403809 C871.483561,337.403809 870.034993,337.017253 868.024902,336.244141 L868.024902,336.244141 L867.37793,336 C869.469401,335.584961 871.174316,334.579915 872.492676,332.984863 C873.811035,331.389811 874.470215,329.538411 874.470215,327.430664 C874.470215,324.924154 873.597412,322.842855 871.851807,321.186768 C870.106201,319.53068 867.915039,318.702637 865.27832,318.702637 C862.625326,318.702637 860.432129,319.536784 858.69873,321.205078 C856.965332,322.873372 856.098633,324.98112 856.098633,327.52832 C856.098633,329.611654 856.772054,331.450846 858.118896,333.045898 C859.465739,334.640951 861.176758,335.625651 863.251953,336 C864.684245,336.984701 865.829671,337.680501 866.688232,338.087402 C867.546794,338.494303 868.393148,338.813721 869.227295,339.045654 C870.061442,339.277588 870.861003,339.4139 871.625977,339.45459 L871.625977,339.45459 Z M865.27832,333.949219 C863.374023,333.949219 861.791178,333.340902 860.529785,332.124268 C859.268392,330.907633 858.637695,329.383789 858.637695,327.552734 C858.637695,325.672852 859.264323,324.114421 860.517578,322.877441 C861.770833,321.640462 863.357747,321.021973 865.27832,321.021973 C867.207031,321.021973 868.802083,321.632324 870.063477,322.853027 C871.32487,324.07373 871.955566,325.615885 871.955566,327.479492 C871.955566,329.302409 871.312663,330.836426 870.026855,332.081543 C868.741048,333.32666 867.158203,333.949219 865.27832,333.949219 Z M892.652832,341.725098 L892.652832,324.769531 L888.453613,324.769531 C886.622559,324.769531 885.165853,325.286296 884.083496,326.319824 C883.001139,327.353353 882.459961,328.744954 882.459961,330.494629 C882.459961,332.146647 882.980794,333.509766 884.022461,334.583984 C885.064128,335.658203 886.382487,336.195312 887.977539,336.195312 C888.644857,336.195312 889.462728,336.065104 890.431152,335.804688 L890.431152,335.804688 L890.431152,341.725098 L892.652832,341.725098 Z M888.404785,334.352051 C887.31429,334.352051 886.425212,333.987874 885.737549,333.259521 C885.049886,332.531169 884.706055,331.593262 884.706055,330.445801 C884.706055,329.428548 885.01123,328.574056 885.621582,327.882324 C885.816895,327.662598 886.032552,327.477458 886.268555,327.326904 C886.504557,327.176351 886.783285,327.05835 887.104736,326.9729 C887.426188,326.887451 888.067057,326.844727 889.027344,326.844727 L889.027344,326.844727 L890.431152,326.844727 L890.431152,333.875977 L890.272461,333.924805 L890.101562,333.973633 C889.548177,334.160807 889.190104,334.270671 889.027344,334.303223 C888.864583,334.335775 888.657064,334.352051 888.404785,334.352051 Z M904.475586,336 L904.475586,328.578125 L905.110352,328.578125 C905.907878,328.578125 906.475505,328.669678 906.813232,328.852783 C907.15096,329.035889 907.529378,329.334961 907.948486,329.75 C908.367594,330.165039 908.829427,330.722493 909.333984,331.422363 L909.333984,331.422363 L910.151855,332.75293 L910.908691,333.998047 L911.384766,334.669434 C911.458008,334.76709 911.506836,334.836263 911.53125,334.876953 L911.53125,334.876953 L912.275879,336 L915.181152,336 L914.277832,334.779297 C913.919759,334.291016 913.443685,333.562663 912.849609,332.594238 C911.905599,331.056152 911.173177,329.977865 910.652344,329.359375 C910.13151,328.740885 909.59847,328.252604 909.053223,327.894531 C909.980957,327.536458 910.693034,326.99528 911.189453,326.270996 C911.685872,325.546712 911.934082,324.688151 911.934082,323.695312 C911.934082,322.238607 911.42749,321.083008 910.414307,320.228516 C909.401123,319.374023 908.031901,318.946777 906.306641,318.946777 L906.306641,318.946777 L902.03418,318.946777 L902.03418,336 L904.475586,336 Z M905.40332,326.405273 L904.475586,326.405273 L904.475586,321.021973 L905.208008,321.021973 C906.404297,321.021973 907.260824,321.111491 907.777588,321.290527 C908.294352,321.469564 908.69515,321.776774 908.97998,322.212158 C909.264811,322.647542 909.407227,323.133789 909.407227,323.670898 C909.407227,324.216146 909.279053,324.702393 909.022705,325.129639 C908.766357,325.556885 908.408285,325.876302 907.948486,326.087891 C907.488688,326.299479 906.640299,326.405273 905.40332,326.405273 L905.40332,326.405273 Z M925.13623,336 L925.13623,330.128418 C925.13623,329.192546 925.398682,328.382812 925.923584,327.699219 C926.448486,327.015625 927.06901,326.673828 927.785156,326.673828 C928.444336,326.673828 929.160482,327.040039 929.933594,327.772461 L929.933594,327.772461 L931.105469,325.819336 C930.19401,324.972982 929.319173,324.549805 928.480957,324.549805 C927.406738,324.549805 926.33252,325.416504 925.258301,327.149902 L925.258301,327.149902 L925.13623,327.345215 L925.13623,324.769531 L922.902344,324.769531 L922.902344,336 L925.13623,336 Z M942.781738,336.195312 C944.246582,336.195312 945.436768,335.768066 946.352295,334.913574 C947.267822,334.059082 947.725586,332.948242 947.725586,331.581055 C947.725586,329.660482 946.683919,328.081706 944.600586,326.844727 L944.600586,326.844727 L942.73291,325.746094 C941.894694,325.257812 941.288411,324.789876 940.914062,324.342285 C940.539714,323.894694 940.352539,323.414551 940.352539,322.901855 C940.352539,322.324056 940.608887,321.850016 941.121582,321.479736 C941.634277,321.109456 942.289388,320.924316 943.086914,320.924316 C944.50293,320.924316 945.825358,321.514323 947.054199,322.694336 L947.054199,322.694336 L947.054199,319.92334 C945.866048,319.125814 944.559896,318.727051 943.135742,318.727051 C941.646484,318.727051 940.435954,319.146159 939.50415,319.984375 C938.572347,320.822591 938.106445,321.913086 938.106445,323.255859 C938.106445,324.151042 938.35262,324.942464 938.844971,325.630127 C939.337321,326.31779 940.165365,327.015625 941.329102,327.723633 L941.329102,327.723633 L943.18457,328.84668 C944.681966,329.774414 945.430664,330.759115 945.430664,331.800781 C945.430664,332.443685 945.176351,332.97876 944.667725,333.406006 C944.159098,333.833252 943.522298,334.046875 942.757324,334.046875 C941.023926,334.046875 939.498047,333.212728 938.179688,331.544434 L938.179688,331.544434 L938.179688,334.64502 C939.563151,335.678548 941.097168,336.195312 942.781738,336.195312 Z M959.304199,336.195312 C960.435384,336.195312 961.361084,335.900309 962.081299,335.310303 C962.801514,334.720296 963.161621,333.965495 963.161621,333.045898 C963.161621,331.760091 962.225749,330.588216 960.354004,329.530273 L960.354004,329.530273 L959.560547,329.078613 C958.958333,328.744954 958.537191,328.460124 958.297119,328.224121 C958.057048,327.988118 957.937012,327.739909 957.937012,327.479492 C957.937012,327.178385 958.069255,326.936279 958.33374,326.753174 C958.598226,326.570068 958.946126,326.478516 959.377441,326.478516 C960.215658,326.478516 961.293945,326.877279 962.612305,327.674805 L962.612305,327.674805 L962.612305,325.477539 C961.456706,324.859049 960.32959,324.549805 959.230957,324.549805 C958.173014,324.549805 957.30835,324.822428 956.636963,325.367676 C955.965576,325.912923 955.629883,326.616862 955.629883,327.479492 C955.629883,328.14681 955.851644,328.763265 956.295166,329.328857 C956.738688,329.89445 957.676595,330.576009 959.108887,331.373535 C959.825033,331.780436 960.290934,332.091715 960.506592,332.307373 C960.722249,332.523031 960.830078,332.79362 960.830078,333.119141 C960.830078,333.436523 960.663249,333.709147 960.32959,333.937012 C959.995931,334.164876 959.597168,334.278809 959.133301,334.278809 C958.68571,334.278809 958.134359,334.142497 957.479248,333.869873 C956.824137,333.597249 956.183268,333.241211 955.556641,332.801758 L955.556641,332.801758 L955.556641,335.194336 C956.346029,335.576823 957.001139,335.839274 957.521973,335.981689 C958.042806,336.124105 958.636882,336.195312 959.304199,336.195312 Z M978.878418,336 L978.878418,321.095215 L984.823242,321.095215 L984.823242,318.922363 L970.577637,318.922363 L970.577637,321.095215 L976.424805,321.095215 L976.424805,336 L978.878418,336 Z M996.755859,336.195312 C997.764974,336.195312 998.696777,335.955241 999.55127,335.475098 L999.55127,335.475098 L999.55127,333.399902 C998.664225,333.937012 997.82194,334.205566 997.024414,334.205566 C995.958333,334.205566 995.425293,333.562663 995.425293,332.276855 L995.425293,332.276855 L995.425293,326.771484 L998.977539,326.771484 L998.977539,324.769531 L995.425293,324.769531 L995.425293,322.450195 L991.250488,326.551758 L991.250488,326.771484 L993.203613,326.771484 L993.203613,331.751953 C993.203613,332.769206 993.250407,333.458903 993.343994,333.821045 C993.437581,334.183187 993.553548,334.476156 993.691895,334.699951 C993.830241,334.923747 994.005208,335.125163 994.216797,335.304199 C994.892253,335.898275 995.738607,336.195312 996.755859,336.195312 Z M1027.396,336.195312 C1029.57699,336.195312 1031.34294,335.613444 1032.69385,334.449707 C1033.10075,334.099772 1033.44458,333.703044 1033.72534,333.259521 C1034.0061,332.815999 1034.24211,332.260579 1034.43335,331.593262 C1034.62459,330.925944 1034.72021,329.937174 1034.72021,328.626953 L1034.72021,328.626953 L1034.72021,318.946777 L1032.2666,318.946777 L1032.2666,328.626953 C1032.2666,329.969727 1032.16081,330.917806 1031.94922,331.471191 C1031.73763,332.024577 1031.39176,332.50472 1030.91162,332.911621 C1030.00016,333.668457 1028.82015,334.046875 1027.37158,334.046875 C1026.35433,334.046875 1025.47135,333.857666 1024.72266,333.479248 C1023.97396,333.10083 1023.4165,332.598307 1023.05029,331.97168 C1022.68408,331.345052 1022.50098,330.230143 1022.50098,328.626953 L1022.50098,328.626953 L1022.50098,318.946777 L1020.04736,318.946777 L1020.04736,328.602539 C1020.04736,329.977865 1020.13892,330.986979 1020.32202,331.629883 C1020.50513,332.272786 1020.73706,332.815999 1021.01782,333.259521 C1021.29858,333.703044 1021.64242,334.103841 1022.04932,334.461914 C1023.39209,335.617513 1025.17432,336.195312 1027.396,336.195312 Z M1047.51953,336.195312 C1048.12174,336.195312 1048.72599,336.052897 1049.33228,335.768066 C1049.93856,335.483236 1050.4777,335.084473 1050.94971,334.571777 L1050.94971,334.571777 L1050.94971,336 L1053.17139,336 L1053.17139,324.769531 L1050.94971,324.769531 L1050.94971,332.801758 C1050.20915,333.835286 1049.3099,334.352051 1048.25195,334.352051 C1047.4056,334.352051 1046.81356,334.118083 1046.47583,333.650146 C1046.1381,333.18221 1045.96924,332.358236 1045.96924,331.178223 L1045.96924,331.178223 L1045.96924,324.769531 L1043.74756,324.769531 L1043.74756,331.202637 C1043.74756,332.610514 1043.90015,333.617594 1044.20532,334.223877 C1044.5105,334.83016 1044.96216,335.310303 1045.5603,335.664307 C1046.15845,336.018311 1046.81152,336.195312 1047.51953,336.195312 Z M862.897949,371.073242 L870.100098,353.946777 L867.670898,353.946777 L862.580566,365.921875 L857.453613,353.946777 L855,353.946777 L862.348633,371.073242 L862.897949,371.073242 Z M881.996094,371.195312 L886.952148,359.769531 L884.547363,359.769531 L881.629883,366.678711 L878.602539,359.769531 L876.17334,359.769531 L881.251465,371.195312 L881.996094,371.195312 Z M900.447266,371.073242 L906.074707,357.206055 L911.65332,371.073242 L912.178223,371.073242 L919.075195,353.946777 L916.645996,353.946777 L911.995117,365.702148 L907.246582,353.946777 L904.927246,353.946777 L900.203125,365.702148 L895.503418,353.946777 L893.049805,353.946777 L899.922363,371.073242 L900.447266,371.073242 Z M930.824707,371.195312 L934.096191,363.370605 L937.428711,371.195312 L938.124512,371.195312 L943.080566,359.769531 L940.700195,359.769531 L937.770508,366.581055 L934.92627,359.769531 L933.27832,359.769531 L930.421875,366.581055 L927.47998,359.769531 L925.099609,359.769531 L930.104492,371.195312 L930.824707,371.195312 Z M952.10791,371 L957.979492,363.944336 L963.777832,371 L966.731934,371 L959.456543,362.174316 L966.255859,353.946777 L963.301758,353.946777 L957.979492,360.453125 L952.632812,353.946777 L949.654297,353.946777 L956.478027,362.174316 L949.129395,371 L952.10791,371 Z M975.576172,371 L978.908691,366.97168 L982.436523,371 L985.280762,371 L980.324707,365.299316 L984.951172,359.769531 L982.106934,359.769531 L978.908691,363.626953 L975.576172,359.769531 L972.780762,359.769531 L977.504883,365.299316 L972.780762,371 L975.576172,371 Z M1000.08203,371 L1000.08203,361.979004 L1006.38086,353.946777 L1003.42676,353.946777 L998.800293,359.830566 L994.234863,353.946777 L991.280762,353.946777 L997.57959,361.979004 L997.57959,371 L1000.08203,371 Z M1015.38379,376.725098 L1023.33057,359.769531 L1020.82812,359.769531 L1017.93506,366.10498 L1014.90771,359.769531 L1012.38086,359.769531 L1016.72656,368.595215 L1012.90576,376.725098 L1015.38379,376.725098 Z M1045.02881,371 L1045.02881,368.827148 L1034.12793,368.827148 L1045.02881,353.922363 L1030.33154,353.922363 L1030.33154,356.095215 L1040.56104,356.095215 L1029.63574,371 L1045.02881,371 Z M1061.6001,371 L1061.6001,368.924805 L1055.65527,368.924805 L1061.6001,359.769531 L1052.00537,359.769531 L1052.00537,361.844727 L1057.65723,361.844727 L1051.76123,371 L1061.6001,371 Z M862.495117,406 L862.495117,388.946777 L860.053711,388.946777 L860.053711,406 L862.495117,406 Z M885.145508,406 L885.145508,403.644043 L878.651367,403.644043 L879.17627,403.021484 C880.641113,401.27181 881.678711,399.890381 882.289062,398.877197 C882.899414,397.864014 883.324626,396.968831 883.564697,396.19165 C883.804769,395.414469 883.924805,394.684082 883.924805,394.000488 C883.924805,392.47054 883.442627,391.209147 882.478271,390.216309 C881.513916,389.22347 880.287109,388.727051 878.797852,388.727051 C877.389974,388.727051 876.022786,389.268229 874.696289,390.350586 L874.696289,390.350586 L874.696289,393.451172 C875.22526,392.71875 875.82137,392.151123 876.484619,391.748291 C877.147868,391.345459 877.821289,391.144043 878.504883,391.144043 C879.408203,391.144043 880.132487,391.434977 880.677734,392.016846 C881.222982,392.598714 881.495605,393.369792 881.495605,394.330078 C881.495605,395.02181 881.351156,395.72168 881.062256,396.429688 C880.773356,397.137695 880.154867,398.183431 879.206787,399.566895 C878.258708,400.950358 876.983073,402.634928 875.379883,404.620605 L875.379883,404.620605 L874.354492,405.829102 L874.354492,406 L885.145508,406 Z M897.34668,406.195312 C898.860352,406.195312 900.113607,405.709066 901.106445,404.736572 C902.099284,403.764079 902.595703,402.533203 902.595703,401.043945 C902.595703,400.441732 902.510254,399.87207 902.339355,399.334961 C902.168457,398.797852 901.928385,398.340088 901.619141,397.96167 C901.309896,397.583252 900.821615,397.263835 900.154297,397.003418 C900.919271,396.580241 901.476725,396.073649 901.82666,395.483643 C902.176595,394.893636 902.351562,394.167318 902.351562,393.304688 C902.351562,391.880534 901.897868,390.757487 900.990479,389.935547 C900.083089,389.113607 898.844076,388.702637 897.273438,388.702637 C896.101562,388.702637 895.019206,388.950846 894.026367,389.447266 L894.026367,389.447266 L894.026367,391.778809 C895.108724,391.225423 896.093424,390.94873 896.980469,390.94873 C897.859375,390.94873 898.569417,391.184733 899.110596,391.656738 C899.651774,392.128743 899.922363,392.743164 899.922363,393.5 C899.922363,394.338216 899.643636,394.977051 899.086182,395.416504 C898.528727,395.855957 897.71696,396.075684 896.650879,396.075684 L896.650879,396.075684 L896.504395,396.075684 L896.504395,398.321777 L896.724121,398.346191 C897.708822,398.468262 898.349691,398.596436 898.646729,398.730713 C898.943766,398.86499 899.214355,399.074544 899.458496,399.359375 C899.873535,399.863932 900.081055,400.453939 900.081055,401.129395 C900.081055,401.935059 899.830811,402.582031 899.330322,403.070312 C898.829834,403.558594 898.16862,403.802734 897.34668,403.802734 C896.134115,403.802734 894.884928,403.399902 893.599121,402.594238 L893.599121,402.594238 L893.599121,405.255371 C894.803548,405.881999 896.052734,406.195312 897.34668,406.195312 Z M920.375488,406 L920.375488,400.372559 L922.279785,400.372559 L922.279785,398.297363 L920.375488,398.297363 L920.375488,388.727051 L919.374512,388.727051 L910.780762,399.322754 L910.780762,400.372559 L917.995117,400.372559 L917.995117,406 L920.375488,406 Z M917.995117,398.297363 L914.052246,398.297363 L917.995117,393.353516 L917.995117,398.297363 Z M934.273438,406.170898 C935.94987,406.170898 937.315023,405.668376 938.368896,404.66333 C939.42277,403.658285 939.949707,402.354167 939.949707,400.750977 C939.949707,399.196615 939.416667,397.916911 938.350586,396.911865 C937.284505,395.90682 935.925456,395.404297 934.273438,395.404297 C934.094401,395.404297 933.919434,395.412435 933.748535,395.428711 L933.748535,395.428711 L933.748535,391.119629 L939.095215,391.119629 L939.095215,388.946777 L931.526855,388.946777 L931.526855,397.821289 C931.87679,397.658529 932.53597,397.577148 933.504395,397.577148 C934.635579,397.577148 935.57959,397.88029 936.336426,398.486572 C937.093262,399.092855 937.47168,399.847656 937.47168,400.750977 C937.47168,401.621745 937.123779,402.356201 936.427979,402.954346 C935.732178,403.55249 934.871582,403.851562 933.846191,403.851562 C932.674316,403.851562 931.473958,403.452799 930.245117,402.655273 L930.245117,402.655273 L930.245117,405.169922 C931.547201,405.83724 932.889974,406.170898 934.273438,406.170898 Z M953.994141,406.195312 C955.426432,406.195312 956.643066,405.698893 957.644043,404.706055 C958.64502,403.713216 959.145508,402.50472 959.145508,401.080566 C959.145508,399.697103 958.68571,398.529297 957.766113,397.577148 C956.846517,396.625 955.715332,396.148926 954.372559,396.148926 C953.477376,396.148926 952.578125,396.380859 951.674805,396.844727 C952.138672,395.501953 952.799886,394.334147 953.658447,393.341309 C954.517008,392.34847 955.597331,391.432943 956.899414,390.594727 L956.899414,390.594727 L955.422363,388.727051 L955.178223,388.897949 C953.737793,389.907064 952.539469,391.003662 951.583252,392.187744 C950.627035,393.371826 949.894613,394.641357 949.385986,395.996338 C948.87736,397.351318 948.623047,398.712402 948.623047,400.07959 C948.623047,401.902507 949.117432,403.377523 950.106201,404.504639 C951.094971,405.631755 952.390951,406.195312 953.994141,406.195312 Z M954.030762,403.949219 C953.159993,403.949219 952.445882,403.639974 951.888428,403.021484 C951.330973,402.402995 951.052246,401.613607 951.052246,400.65332 C951.052246,400.181315 951.084798,399.754069 951.149902,399.371582 C951.703288,398.997233 952.16512,398.740885 952.5354,398.602539 C952.90568,398.464193 953.318685,398.39502 953.774414,398.39502 C954.661458,398.39502 955.37557,398.649333 955.916748,399.157959 C956.457926,399.666585 956.728516,400.331868 956.728516,401.153809 C956.728516,401.959473 956.474202,402.62679 955.965576,403.155762 C955.45695,403.684733 954.812012,403.949219 954.030762,403.949219 Z M970.528809,406.195312 L978.255859,388.946777 L967.220703,388.946777 L967.220703,391.27832 L974.605957,391.27832 L968.355957,405.279785 L970.528809,406.195312 Z M990.774414,406.195312 C992.336914,406.195312 993.630859,405.735514 994.65625,404.815918 C995.681641,403.896322 996.194336,402.732585 996.194336,401.324707 C996.194336,399.550618 995.404948,398.207845 993.826172,397.296387 C995.242188,396.303548 995.950195,395.046224 995.950195,393.524414 C995.950195,392.173503 995.45988,391.036214 994.479248,390.112549 C993.498617,389.188883 992.296224,388.727051 990.87207,388.727051 C989.423503,388.727051 988.19873,389.192952 987.197754,390.124756 C986.196777,391.056559 985.696289,392.189779 985.696289,393.524414 C985.696289,394.289388 985.852946,394.962809 986.16626,395.544678 C986.479574,396.126546 986.998372,396.710449 987.722656,397.296387 C986.111328,398.232259 985.305664,399.566895 985.305664,401.300293 C985.305664,402.683757 985.830566,403.845459 986.880371,404.7854 C987.930176,405.725342 989.22819,406.195312 990.774414,406.195312 Z M990.847656,396.148926 C990.098958,396.148926 989.458089,395.896647 988.925049,395.39209 C988.392008,394.887533 988.125488,394.28125 988.125488,393.573242 C988.125488,392.832682 988.377767,392.2264 988.882324,391.754395 C989.386882,391.282389 990.033854,391.046387 990.823242,391.046387 C991.604492,391.046387 992.24943,391.286458 992.758057,391.766602 C993.266683,392.246745 993.520996,392.857096 993.520996,393.597656 C993.520996,394.297526 993.260579,394.897705 992.739746,395.398193 C992.218913,395.898682 991.588216,396.148926 990.847656,396.148926 Z M990.798828,403.875977 C989.903646,403.875977 989.175293,403.627767 988.61377,403.131348 C988.052246,402.634928 987.771484,401.992025 987.771484,401.202637 C987.771484,400.413249 988.046143,399.770345 988.595459,399.273926 C989.144775,398.777507 989.854818,398.529297 990.725586,398.529297 C991.61263,398.529297 992.33488,398.775472 992.892334,399.267822 C993.449788,399.760173 993.728516,400.396973 993.728516,401.178223 L993.728516,401.178223 L993.728516,401.422363 C993.728516,402.146647 993.453857,402.736654 992.904541,403.192383 C992.355225,403.648112 991.65332,403.875977 990.798828,403.875977 Z M1007.67529,406.195312 C1009.66911,404.990885 1011.30892,403.332764 1012.59473,401.220947 C1013.88053,399.109131 1014.52344,397.019694 1014.52344,394.952637 C1014.52344,393.12972 1014.01074,391.636393 1012.98535,390.472656 C1011.95996,389.308919 1010.6416,388.727051 1009.03027,388.727051 C1007.59798,388.727051 1006.38542,389.219401 1005.39258,390.204102 C1004.39974,391.188802 1003.90332,392.38916 1003.90332,393.805176 C1003.90332,395.164225 1004.36922,396.327962 1005.30103,397.296387 C1006.23283,398.264811 1007.34977,398.749023 1008.65186,398.749023 C1009.69352,398.749023 1010.60091,398.508952 1011.37402,398.028809 C1011.05664,399.225098 1010.42594,400.390869 1009.48193,401.526123 C1008.53792,402.661377 1007.43522,403.627767 1006.17383,404.425293 L1006.17383,404.425293 L1007.67529,406.195312 Z M1009.17676,396.50293 C1008.39551,396.50293 1007.72412,396.234375 1007.1626,395.697266 C1006.60107,395.160156 1006.32031,394.521322 1006.32031,393.780762 C1006.32031,392.975098 1006.57869,392.305745 1007.09546,391.772705 C1007.61222,391.239665 1008.2653,390.973145 1009.05469,390.973145 C1009.91732,390.973145 1010.62329,391.286458 1011.17261,391.913086 C1011.72192,392.539714 1011.99658,393.345378 1011.99658,394.330078 C1011.99658,394.525391 1011.94775,394.948568 1011.8501,395.599609 C1010.97933,396.201823 1010.08822,396.50293 1009.17676,396.50293 Z M1027.75,406.170898 C1029.3776,406.170898 1030.70207,405.361165 1031.72339,403.741699 C1032.74471,402.122233 1033.25537,400.018555 1033.25537,397.430664 C1033.25537,394.907878 1032.74471,392.826579 1031.72339,391.186768 C1030.70207,389.546956 1029.41016,388.727051 1027.84766,388.727051 C1026.19564,388.727051 1024.85286,389.538818 1023.81934,391.162354 C1022.78581,392.785889 1022.26904,394.891602 1022.26904,397.479492 C1022.26904,400.099935 1022.76953,402.203613 1023.77051,403.790527 C1024.77148,405.377441 1026.09798,406.170898 1027.75,406.170898 Z M1027.72559,403.924805 C1026.78158,403.924805 1026.04102,403.351074 1025.50391,402.203613 C1024.9668,401.056152 1024.69824,399.473307 1024.69824,397.455078 C1024.69824,395.485677 1024.9729,393.925212 1025.52222,392.773682 C1026.07153,391.622152 1026.81413,391.046387 1027.75,391.046387 L1027.75,391.046387 L1027.87207,391.046387 C1028.75911,391.046387 1029.46509,391.632324 1029.98999,392.804199 C1030.51489,393.976074 1030.77734,395.550781 1030.77734,397.52832 C1030.77734,399.497721 1030.50472,401.056152 1029.95947,402.203613 C1029.41423,403.351074 1028.6696,403.924805 1027.72559,403.924805 Z" id="attic_font_2"></path>
            </g>
        </g>
    </g>
</svg>