<svg xmlns="http://www.w3.org/2000/svg" width="54" height="54" viewBox="0 0 54 54"><g><g><g><path fill="#d9255e" d="M46.631 51.95c-.181.365-.78.364-.961 0l-5.313-10.626 2.316-1.157 3.484 1.74 3.478-1.74 2.31 1.157zM34.84 20.903v6.678c0 .25-.373.374-.524.174l-5.138-6.852H26.13v-1.536l-2.286-.626a9.211 9.211 0 0 0-.25-.596l1.177-2.06-3.403-3.404-2.06 1.176a8.62 8.62 0 0 0-.597-.248l-.625-2.286H13.27l-.625 2.286c-.2.075-.4.158-.597.249l-2.06-1.177-3.404 3.404 1.177 2.06c-.09.198-.174.396-.249.596l-2.287.626v1.536h-.871a2.616 2.616 0 0 1-2.613-2.613V4.355a2.616 2.616 0 0 1 2.613-2.613h33.097a2.63 2.63 0 0 1 2.365 1.503 7.784 7.784 0 0 0-1.5 4.594v13.064zm-10.452 1.948l-1.91.523-.14.457a6.93 6.93 0 0 1-.498 1.193l-.225.422.984 1.725-1.522 1.522-1.725-.984-.423.226a6.911 6.911 0 0 1-1.192.497l-.457.14-.525 1.912H14.6l-.523-1.91-.457-.14a6.93 6.93 0 0 1-1.193-.499l-.422-.224-1.725.984-1.522-1.523.984-1.724-.225-.422a6.862 6.862 0 0 1-.498-1.194l-.14-.456-1.911-.525v-2.154l1.91-.524.14-.456a6.93 6.93 0 0 1 .498-1.193l.225-.423-.984-1.724 1.522-1.523 1.725.985.422-.225c.39-.207.79-.375 1.193-.498l.457-.14.525-1.911h2.154l.523 1.91.457.14c.404.125.805.292 1.192.497l.423.226 1.725-.985 1.522 1.523-.984 1.724.225.423c.206.39.374.79.498 1.193l.14.456 1.911.526zM46.155 1.74a6.105 6.105 0 0 1 6.097 6.098v2.613H40.058V7.839a6.105 6.105 0 0 1 6.097-6.097zm-6.097 10.453h12.194v1.752H40.058zm9.585 26.026l-3.482 1.742-3.487-1.742-2.616 1.306V15.677h12.194v23.848zM46.155 0a7.796 7.796 0 0 0-5.108 1.906A4.379 4.379 0 0 0 37.452 0H4.355A4.36 4.36 0 0 0 0 4.355V18.29a4.36 4.36 0 0 0 4.355 4.355h.87v1.537l2.287.625c.075.2.159.399.25.597l-1.177 2.06 3.403 3.403 2.06-1.177c.198.091.396.175.597.25l.625 2.286h1.536v7.839h1.742v-7.84h1.537l.625-2.285c.2-.075.4-.159.597-.249l2.06 1.176 3.403-3.404-1.176-2.06c.09-.197.174-.396.249-.596l2.286-.625v-1.537h2.177l4.617 6.154c.381.51.989.814 1.626.814 1.12 0 2.032-.912 2.032-2.032v-4.936h1.735v18.496l5.8 11.599a2.272 2.272 0 0 0 2.04 1.26 2.27 2.27 0 0 0 2.039-1.26l5.799-11.598V7.839C53.994 3.516 50.478 0 46.155 0z"/></g><g><path fill="#d9255e" d="M15.676 25.26a3.487 3.487 0 0 1-3.484-3.484 3.487 3.487 0 0 1 3.484-3.484 3.487 3.487 0 0 1 3.484 3.484 3.487 3.487 0 0 1-3.484 3.484zm0-8.71a5.231 5.231 0 0 0-5.226 5.226 5.231 5.231 0 0 0 5.226 5.226 5.231 5.231 0 0 0 5.226-5.226 5.231 5.231 0 0 0-5.226-5.226z"/></g><g><path fill="#d9255e" d="M27.005 52.26a2.617 2.617 0 0 1-2.615-2.613 2.617 2.617 0 0 1 2.615-2.613 2.617 2.617 0 0 1 2.615 2.613 2.617 2.617 0 0 1-2.615 2.613zm.87-6.88v-1.83h-1.741v1.83a4.362 4.362 0 0 0-3.484 4.267 4.36 4.36 0 0 0 4.355 4.355 4.36 4.36 0 0 0 4.355-4.355 4.363 4.363 0 0 0-3.484-4.267z"/></g><g><path fill="#d9255e" d="M15.675 52.252a2.614 2.614 0 0 1-2.613-2.608 2.614 2.614 0 0 1 5.226 0 2.614 2.614 0 0 1-2.613 2.608zm.87-6.87V41.81h-1.741v3.572a4.362 4.362 0 0 0-3.484 4.267 4.36 4.36 0 0 0 4.355 4.355 4.36 4.36 0 0 0 4.355-4.355 4.363 4.363 0 0 0-3.484-4.267z"/></g><g><path fill="#d9255e" d="M4.355 52.26a2.616 2.616 0 0 1-2.613-2.613 2.616 2.616 0 0 1 2.613-2.613 2.616 2.616 0 0 1 2.613 2.613 2.616 2.616 0 0 1-2.613 2.613zm.87-6.88v-1.83H3.485v1.83A4.363 4.363 0 0 0 0 49.647a4.36 4.36 0 0 0 4.355 4.355 4.36 4.36 0 0 0 4.355-4.355 4.363 4.363 0 0 0-3.484-4.267z"/></g><g><path fill="#d9255e" d="M20.03 32.23v7.839h6.097v1.742h1.742v-3.484h-6.097V32.23z"/></g><g><path fill="#d9255e" d="M5.222 40.069h6.097V32.23H9.577v6.097H3.48v3.484h1.742z"/></g><g><path fill="#d9255e" d="M46.163 34.834a.873.873 0 0 1-.874-.871c0-.48.391-.871.874-.871s.874.39.874.87c0 .482-.391.872-.874.872zm0-3.484a2.616 2.616 0 0 0-2.613 2.613 2.616 2.616 0 0 0 2.613 2.613 2.616 2.616 0 0 0 2.613-2.613 2.616 2.616 0 0 0-2.613-2.613z"/></g><g><path fill="#d9255e" d="M46.163 27.877a.875.875 0 1 1 0-1.749.875.875 0 0 1 0 1.75zm0-3.487a2.616 2.616 0 0 0-2.613 2.613 2.616 2.616 0 0 0 2.613 2.613 2.616 2.616 0 0 0 2.613-2.613 2.616 2.616 0 0 0-2.613-2.613z"/></g><g><path fill="#d9255e" d="M46.163 20.904a.873.873 0 0 1-.874-.871c0-.48.391-.871.874-.871s.874.39.874.87c0 .482-.391.872-.874.872zm0-3.484a2.616 2.616 0 0 0-2.613 2.613 2.616 2.616 0 0 0 2.613 2.613 2.616 2.616 0 0 0 2.613-2.613 2.616 2.616 0 0 0-2.613-2.613z"/></g><g><path fill="#d9255e" d="M3.48 3.48h1.742v1.742H3.48z"/></g><g><path fill="#d9255e" d="M6.97 3.48h15.677v1.742H6.97z"/></g><g><path fill="#d9255e" d="M26.132 5.222h8.71v5.226h-8.71zM24.39 12.19h12.194V3.48H24.39z"/></g><g><path fill="#d9255e" d="M27.87 13.94h8.71v1.742h-8.71z"/></g><g><path fill="#d9255e" d="M27.87 17.42h8.71v1.742h-8.71z"/></g><g><path fill="#d9255e" d="M3.48 6.97h19.161v1.742H3.48z"/></g></g></g></svg>