<svg xmlns="http://www.w3.org/2000/svg" width="54" height="54" viewBox="0 0 54 54"><g><g><g><path fill="#d9255e" d="M52.172 41.38c0 .996-.805 1.803-1.799 1.803H3.598A1.801 1.801 0 0 1 1.8 41.38v-1.803h50.373zm-19.2 10.796H20.999l2.16-7.204h7.656zM50.374 7.2v1.799c.994 0 1.8.805 1.8 1.8v26.985H1.798V10.798c0-.994.805-1.799 1.8-1.799V7.2A3.598 3.598 0 0 0 0 10.798v30.584a3.598 3.598 0 0 0 3.598 3.598H21.28l-2.159 7.196h-2.03v1.8h19.79v-1.8h-2.029l-2.159-7.196h17.681a3.598 3.598 0 0 0 3.598-3.598V10.798A3.598 3.598 0 0 0 50.373 7.2z"/></g><g><path fill="#d9255e" d="M5.4 3.598v32.383h1.799V3.598c0-.994.805-1.799 1.8-1.799h35.98c.994 0 1.799.805 1.799 1.8V35.98h1.799V3.598A3.598 3.598 0 0 0 44.979 0H8.999A3.598 3.598 0 0 0 5.4 3.598z"/></g><g><path fill="#d9255e" d="M9 3.6h1.799v1.799H9z"/></g><g><path fill="#d9255e" d="M12.59 3.6h1.799v1.799H12.59z"/></g><g><path fill="#d9255e" d="M16.19 3.6h1.799v1.799H16.19z"/></g><g><path fill="#d9255e" d="M9 7.2h35.98v1.799H9z"/></g><g><path fill="#d9255e" d="M10.799 17.986V12.59h7.196v5.397zm8.995-5.397c0-.994-.805-1.799-1.799-1.799H10.8c-.994 0-1.799.805-1.799 1.799v5.397c0 .994.805 1.8 1.799 1.8h7.196c.994 0 1.8-.806 1.8-1.8z"/></g><g><path fill="#d9255e" d="M23.389 17.986V12.59h7.196v5.397zm8.995-5.397c0-.994-.805-1.799-1.799-1.799H23.39c-.994 0-1.799.805-1.799 1.799v5.397c0 .994.805 1.8 1.799 1.8h7.196c.994 0 1.8-.806 1.8-1.8z"/></g><g><path fill="#d9255e" d="M35.98 17.986V12.59h7.194v5.397zm8.994-5.397c0-.994-.805-1.799-1.799-1.799H35.98c-.994 0-1.799.805-1.799 1.799v5.397c0 .994.805 1.8 1.799 1.8h7.196c.994 0 1.8-.806 1.8-1.8z"/></g><g><path fill="#d9255e" d="M10.799 28.788v-5.401h7.196v5.401zm8.995-5.399c0-.994-.805-1.799-1.799-1.799H10.8c-.994 0-1.799.805-1.799 1.799v5.397c0 .994.805 1.8 1.799 1.8h7.196c.994 0 1.8-.806 1.8-1.8z"/></g><g><path fill="#d9255e" d="M23.389 28.788v-5.401h7.196v5.401zm8.995-5.399c0-.994-.805-1.799-1.799-1.799H23.39c-.994 0-1.799.805-1.799 1.799v5.397c0 .994.805 1.8 1.799 1.8h7.196c.994 0 1.8-.806 1.8-1.8z"/></g><g><path fill="#d9255e" d="M35.98 28.788v-5.401h7.194v5.401zm8.994-5.399c0-.994-.805-1.799-1.799-1.799H35.98c-.994 0-1.799.805-1.799 1.799v5.397c0 .994.805 1.8 1.799 1.8h7.196c.994 0 1.8-.806 1.8-1.8z"/></g><g><path fill="#d9255e" d="M19.794 35.978V34.18c0-.994-.805-1.799-1.799-1.799H10.8c-.994 0-1.799.805-1.799 1.799v1.8h1.799v-1.8h7.196v1.8z"/></g><g><path fill="#d9255e" d="M32.384 35.978V34.18c0-.994-.805-1.799-1.799-1.799H23.39c-.994 0-1.799.805-1.799 1.799v1.8h1.799v-1.8h7.196v1.8z"/></g><g><path fill="#d9255e" d="M44.974 35.978V34.18c0-.994-.805-1.799-1.799-1.799H35.98c-.994 0-1.799.805-1.799 1.799v1.8h1.799v-1.8h7.196v1.8z"/></g></g></g></svg>