<svg xmlns="http://www.w3.org/2000/svg" width="54" height="54" viewBox="0 0 54 54"><g><g><g><path fill="#d9255e" d="M27 14.4a7.2 7.2 0 1 1-7.2 7.2 7.208 7.208 0 0 1 7.2-7.2zm0 16.2a9 9 0 0 0 9-9 9 9 0 0 0-9-9 9 9 0 0 0-9 9 9.01 9.01 0 0 0 9 9z"/></g><g><path fill="#d9255e" d="M26.096 25.196a.9.9 0 0 0 .637-.263l5.4-5.4-1.273-1.273-4.764 4.764-2.063-2.064-1.273 1.273 2.7 2.7a.9.9 0 0 0 .636.263z"/></g><g><path fill="#d9255e" d="M49.5 41.4h-45a2.7 2.7 0 0 1-2.7-2.7V36h50.4v2.7a2.7 2.7 0 0 1-2.7 2.7zm-16.32 7.2H20.82l.675-5.4h11.01zm4.62 2.7a.9.9 0 0 1-.9.9H17.1a.9.9 0 0 1 0-1.8h19.8a.9.9 0 0 1 .9.9zM52.2 9v25.2H1.8V9zM4.5 1.8h45a2.7 2.7 0 0 1 2.7 2.7v2.7H1.8V4.5a2.7 2.7 0 0 1 2.7-2.7zm45-1.8h-45A4.505 4.505 0 0 0 0 4.5v34.2a4.505 4.505 0 0 0 4.5 4.5h15.18l-.675 5.4H17.1a2.7 2.7 0 0 0 0 5.4h19.8a2.7 2.7 0 0 0 0-5.4h-1.905l-.675-5.4H49.5a4.505 4.505 0 0 0 4.5-4.5V4.5A4.505 4.505 0 0 0 49.5 0z"/></g><g><path fill="#d9255e" d="M46.8 37.8h1.8v1.8h-1.8z"/></g><g><path fill="#d9255e" d="M5.4 3.6h1.8v1.8H5.4z"/></g><g><path fill="#d9255e" d="M9 3.6h1.8v1.8H9z"/></g><g><path fill="#d9255e" d="M12.6 3.6h1.8v1.8h-1.8z"/></g></g></g></svg>