<?xml version="1.0" encoding="UTF-8"?>
<svg width="168px" height="170px" viewBox="0 0 168 170" version="1.1" xmlns="http://www.w3.org/2000/svg" xmlns:xlink="http://www.w3.org/1999/xlink">
    <!-- Generator: Sketch 63.1 (92452) - https://sketch.com -->
    <title>mi-10</title>
    <desc>Created with Sketch.</desc>
    <g id="Сайт" stroke="none" stroke-width="1" fill="none" fill-rule="evenodd">
        <path d="M164.475,170 C165.325,170 166.06875,169.68125 166.70625,169.04375 C167.34375,168.40625 167.6625,167.6625 167.6625,166.8125 L167.6625,166.8125 L167.6625,4.25 C167.804167,4.10833333 167.875,3.68333333 167.875,2.975 C167.875,2.125 167.485417,1.41666667 166.70625,0.85 C165.927083,0.283333333 165.1125,0 164.2625,0 C163.270833,0 162.491667,0.425 161.925,1.275 L161.925,1.275 L84.15,110.5 L6.375,2.125 C5.80833333,1.13333333 4.8875,0.6375 3.6125,0.6375 C2.62083333,0.6375 1.84166667,0.95625 1.275,1.59375 C0.708333333,2.23125 0.425,2.975 0.425,3.825 C0.425,4.675 0.6375,5.38333333 1.0625,5.95 L1.0625,5.95 L117.9375,168.725 C118.504167,169.575 119.354167,170 120.4875,170 C121.3375,170 122.116667,169.68125 122.825,169.04375 C123.533333,168.40625 123.8875,167.591667 123.8875,166.6 C123.8875,166.033333 123.072917,164.545833 121.44375,162.1375 C119.814583,159.729167 117.795833,156.789583 115.3875,153.31875 C112.979167,149.847917 110.2875,146.164583 107.3125,142.26875 C104.3375,138.372917 101.539583,134.61875 98.91875,131.00625 C96.2979167,127.39375 93.9958333,124.241667 92.0125,121.55 C90.0291667,118.858333 88.7541667,117.016667 88.1875,116.025 L88.1875,116.025 L161.5,13.3875 L161.5,166.8125 C161.5,167.6625 161.783333,168.40625 162.35,169.04375 C162.916667,169.68125 163.625,170 164.475,170 Z M94.775,170 C95.625,170 96.4041667,169.68125 97.1125,169.04375 C97.8208333,168.40625 98.175,167.6625 98.175,166.8125 C98.175,166.3875 96.9708333,164.333333 94.5625,160.65 C92.1541667,156.966667 88.93125,152.25625 84.89375,146.51875 C80.85625,140.78125 76.2520833,134.264583 71.08125,126.96875 C65.9104167,119.672917 60.5625,112.164583 55.0375,104.44375 C49.5125,96.7229167 44.0229167,89.1083333 38.56875,81.6 C33.1145833,74.0916667 28.15625,67.2208333 23.69375,60.9875 C19.23125,54.7541667 15.40625,49.4770833 12.21875,45.15625 C9.03125,40.8354167 6.94166667,37.9666667 5.95,36.55 C5.38333333,35.5583333 4.53333333,35.0625 3.4,35.0625 C2.26666667,35.0625 1.41666667,35.4875 0.85,36.3375 C0.283333333,37.1875 0,38.1083333 0,39.1 L0,39.1 L0,165.75 C0,166.6 0.354166667,167.34375 1.0625,167.98125 C1.77083333,168.61875 2.55,168.9375 3.4,168.9375 C4.25,168.9375 5.02916667,168.654167 5.7375,168.0875 C6.44583333,167.520833 6.8,166.741667 6.8,165.75 L6.8,165.75 L6.8,48.875 L92.225,168.725 C92.7916667,169.575 93.6416667,170 94.775,170 Z" id="mi-10" fill="#D9255E" fill-rule="nonzero"></path>
    </g>
</svg>