<?xml version="1.0" encoding="UTF-8"?>
<svg width="164px" height="170px" viewBox="0 0 164 170" version="1.1" xmlns="http://www.w3.org/2000/svg" xmlns:xlink="http://www.w3.org/1999/xlink">
    <!-- Generator: Sketch 63.1 (92452) - https://sketch.com -->
    <title>mi-11</title>
    <desc>Created with Sketch.</desc>
    <g id="Сайт" stroke="none" stroke-width="1" fill="none" fill-rule="evenodd">
        <path d="M23.3142857,170 C26.2285714,170 27.6857143,168.542857 27.6857143,165.871429 L27.6857143,53.9142857 L68.2428571,140.128571 C70.6714286,145.471429 75.7714286,147.9 81.6,147.9 C87.4285714,147.9 91.8,145.957143 94.7142857,140.371429 L136.242857,53.9142857 L136.242857,165.871429 C136.242857,168.542857 137.7,170 140.371429,170 L159.071429,170 C161.985714,170 163.442857,168.542857 163.442857,165.871429 L163.442857,4.12857143 C163.442857,1.45714286 161.985714,0 159.071429,0 L142.071429,0 C137.7,0 135.271429,1.94285714 133.571429,5.58571429 L82.3285714,112.442857 L81.8428571,112.442857 L31.3285714,5.58571429 C29.8714286,2.18571429 27.4428571,0 22.8285714,0 L4.37142857,0 C1.45714286,0 0,1.45714286 0,4.12857143 L0,165.871429 C0,168.542857 1.7,170 4.37142857,170 L23.3142857,170 Z" id="mi-11" fill="#D9255E" fill-rule="nonzero"></path>
    </g>
</svg>