<?xml version="1.0" encoding="UTF-8"?>
<svg width="243px" height="170px" viewBox="0 0 243 170" version="1.1" xmlns="http://www.w3.org/2000/svg" xmlns:xlink="http://www.w3.org/1999/xlink">
    <!-- Generator: Sketch 63.1 (92452) - https://sketch.com -->
    <title>mi-22</title>
    <desc>Created with Sketch.</desc>
    <g id="Сайт" stroke="none" stroke-width="1" fill="none" fill-rule="evenodd">
        <path d="M61.179941,170 L61.179941,156.084071 C55.4965585,156.084071 50.6698623,154.788594 46.6998525,152.19764 C42.7298427,149.606686 40.2015733,146.451573 39.1150442,142.732301 C38.0285152,139.013029 37.4852507,133.225172 37.4852507,125.368732 L37.4852507,125.368732 L37.4852507,37.4852507 L100.671091,170 L110.449853,170 L173.384956,35.3539823 L173.384956,135.272861 C173.384956,142.878564 172.110374,148.248525 169.561209,151.382743 C167.012045,154.516962 161.516716,156.084071 153.075221,156.084071 L153.075221,156.084071 L149.690265,156.084071 L149.690265,170 L242.212389,170 L242.212389,156.084071 L238.325959,156.084071 C229.968043,156.084071 224.472714,154.558751 221.839971,151.508112 C219.207227,148.457473 217.890855,143.045723 217.890855,135.272861 L217.890855,135.272861 L217.890855,34.7271386 C217.890855,27.1214356 219.165438,21.7514749 221.714602,18.6172566 C224.263766,15.4830383 229.800885,13.9159292 238.325959,13.9159292 L238.325959,13.9159292 L241.710914,13.9159292 L241.710914,0 L173.384956,0 L120.479351,111.70354 L68.0752212,0 L0,0 L0,13.9159292 C9.02654867,13.9159292 15.023353,15.3576696 17.990413,18.2411504 C20.957473,21.1246313 22.4410029,26.8289086 22.4410029,35.3539823 L22.4410029,35.3539823 L22.4410029,124.741888 C22.4410029,132.765487 22.0022124,138.595133 21.1246313,142.230826 C20.2470501,145.866519 17.8441495,149.084317 13.9159292,151.884218 C9.98770895,154.68412 5.34906588,156.084071 0,156.084071 L0,156.084071 L0,170 L61.179941,170 Z" id="mi-22" fill="#D9255E" fill-rule="nonzero"></path>
    </g>
</svg>