<?xml version="1.0" encoding="UTF-8"?>
<svg width="158px" height="170px" viewBox="0 0 158 170" version="1.1" xmlns="http://www.w3.org/2000/svg" xmlns:xlink="http://www.w3.org/1999/xlink">
    <!-- Generator: Sketch 63.1 (92452) - https://sketch.com -->
    <title>mi-24</title>
    <desc>Created with Sketch.</desc>
    <g id="Сайт" stroke="none" stroke-width="1" fill="none" fill-rule="evenodd">
        <path d="M123.972245,169.834101 C130.476802,156.376398 126.663786,158.619349 125.318016,149.198956 C128.233851,111.517388 157.616503,11.0332041 157.616503,11.0332041 C148.420406,-4.66744953 138.327129,0.715631725 132.944047,1.61281193 C132.944047,1.61281193 95.4867735,65.3126068 76.4216941,100.52693 C74.4030386,72.0414584 71.711498,37.5000203 70.8143178,33.9112995 C70.8143178,33.9112995 67.449892,19.107826 63.8611711,12.1546794 L63.8611711,11.9303843 C63.8611711,11.9303843 53.3193037,-0.405843538 42.7774362,0.0427465671 C42.7774362,0.0427465671 34.7028143,5.65012288 30.4412083,15.9676953 C30.4412083,15.9676953 29.9926182,23.5937271 32.2355687,27.406743 C32.2355687,27.406743 19.6750458,111.293093 7.11452287,148.974661 C2.18003171,158.395054 -0.735803969,155.927808 0.161376241,169.609806 L0.17997749,169.613209 C0.54378092,169.678041 6.18424995,170.606265 11.824719,166.918266 C17.6563903,163.329545 20.7965211,160.862299 29.3197331,146.956006 C29.3197331,146.956006 45.9175669,81.4618506 56.4594344,40.6401511 C57.3566146,57.0136899 60.0481553,102.545586 62.2911058,129.460992 C62.0668107,129.685287 62.0668107,129.909582 62.0668107,130.133877 L62.2911058,130.358172 C62.9639909,138.432794 63.6368761,144.713055 64.3097612,147.853186 L79.1132347,138.657089 C79.1132347,138.657089 101.54274,95.816734 118.813459,61.9481811 C112.533198,100.97552 104.907166,147.180301 104.907166,147.180301 C107.823001,161.086594 108.944477,163.55384 113.206083,167.366856 C117.691984,170.955577 123.972245,169.834101 123.972245,169.834101 Z" id="mi-24" fill="#D9255E" fill-rule="nonzero"></path>
    </g>
</svg>