<?xml version="1.0" encoding="UTF-8"?>
<svg width="105px" height="170px" viewBox="0 0 105 170" version="1.1" xmlns="http://www.w3.org/2000/svg" xmlns:xlink="http://www.w3.org/1999/xlink">
    <!-- Generator: Sketch 63.1 (92452) - https://sketch.com -->
    <title>mi-9</title>
    <desc>Created with Sketch.</desc>
    <g id="Сайт" stroke="none" stroke-width="1" fill="none" fill-rule="evenodd">
        <path d="M27.5,170 C28.1818182,170 28.4090909,169.545455 28.4090909,169.090909 C28.4090909,168.636364 28.1818182,168.181818 27.5,168.181818 L23.4090909,168.181818 C19.3181818,168.181818 15.9090909,164.772727 15.9090909,160.681818 L15.9090909,19.3181818 L43.6363636,169.318182 C43.6363636,169.545455 43.8636364,169.545455 43.8636364,169.772727 L44.0909091,169.772727 C44.0909091,169.971591 44.2649148,169.996449 44.3084162,170 L44.7727273,170 C45,170 45,170 45.2272727,169.772727 C45.4545455,169.545455 45.4545455,169.545455 45.4545455,169.318182 L74.7727273,11.1363636 L74.7727273,160.681818 C74.7727273,164.772727 71.3636364,168.181818 67.2727273,168.181818 L63.1818182,168.181818 C62.5,168.181818 62.2727273,168.636364 62.2727273,169.090909 C62.2727273,169.545455 62.5,170 63.1818182,170 L103.863636,170 C104.318182,170 104.772727,169.545455 104.772727,169.090909 C104.772727,168.636364 104.318182,168.181818 103.863636,168.181818 L99.7727273,168.181818 C95.4545455,168.181818 92.2727273,164.772727 92.2727273,160.681818 L92.2727273,9.54545455 C92.2727273,5.22727273 95.4545455,1.81818182 99.7727273,1.81818182 L103.863636,1.81818182 C104.318182,1.81818182 104.772727,1.36363636 104.772727,0.909090909 C104.772727,0.454545455 104.318182,0 103.863636,0 L63.1818182,0 C62.5,0 62.2727273,0.454545455 62.2727273,0.909090909 C62.2727273,1.36363636 62.5,1.81818182 63.1818182,1.81818182 L67.5,1.81818182 C69.3181818,2.04545455 70.9090909,2.72727273 72.0454545,4.09090909 C73.1818182,5.45454545 73.6363636,7.27272727 73.1818182,9.09090909 L73.1818182,9.31818182 L52.2727273,122.045455 L31.5909091,9.09090909 C31.1363636,7.27272727 31.5909091,5.45454545 32.7272727,4.09090909 C34.0909091,2.72727273 35.6818182,1.81818182 37.5,1.81818182 L41.5909091,1.81818182 C42.0454545,1.81818182 42.5,1.36363636 42.5,0.909090909 C42.5,0.454545455 42.0454545,0 41.5909091,0 L0.909090909,0 C0.454545455,0 0,0.454545455 0,0.909090909 C0,1.36363636 0.454545455,1.81818182 0.909090909,1.81818182 L5,1.81818182 C9.31818182,1.81818182 13.1818182,5 14.0909091,9.31818182 L14.0909091,160.681818 C14.0909091,164.772727 10.6818182,168.181818 6.59090909,168.181818 L2.5,168.181818 C2.04545455,168.181818 1.59090909,168.636364 1.59090909,169.090909 C1.59090909,169.545455 2.04545455,170 2.5,170 L27.5,170 Z" id="mi-9" fill="#D9255E" fill-rule="nonzero"></path>
    </g>
</svg>