<svg xmlns="http://www.w3.org/2000/svg" width="44" height="54" viewBox="0 0 44 54"><g><g><g><path fill="#d9255e" d="M35.1 22.5H12.6a.9.9 0 1 0 0 1.8h22.5a.9.9 0 1 0 0-1.8z"/></g><g><path fill="#d9255e" d="M12.6 17.1h9a.9.9 0 1 0 0-1.8h-9a.9.9 0 1 0 0 1.8z"/></g><g><path fill="#d9255e" d="M35.1 29.7H12.6a.9.9 0 1 0 0 1.8h22.5a.9.9 0 1 0 0-1.8z"/></g><g><path fill="#d9255e" d="M35.1 36.9H12.6a.9.9 0 1 0 0 1.8h22.5a.9.9 0 1 0 0-1.8z"/></g><g><path fill="#d9255e" d="M35.1 44.1H12.6a.9.9 0 1 0 0 1.8h22.5a.9.9 0 1 0 0-1.8z"/></g><g><path fill="#d9255e" d="M6.3 52.2V6.3h22.5v12.6h12.6v33.3zm-4.5-4.5V1.8h35.1v9.527L30.073 4.5H4.5v43.2zM30.6 7.573l9.527 9.527H30.6zm8.1 5.554V0H0v49.5h4.5V54h38.7V17.627z"/></g></g></g></svg>