<svg xmlns="http://www.w3.org/2000/svg" width="54" height="54" viewBox="0 0 54 54"><g><g><g><path fill="#d9255e" d="M9.9 34.2a.9.9 0 0 1 .9-.9h2.7a.9.9 0 0 1 .9.9.9.9 0 0 0 .9.9h4.5a.9.9 0 0 1 .9.9v5.4H9.9zm-.9 9h12.6a.9.9 0 0 0 .9-.9V36a2.7 2.7 0 0 0-2.7-2.7h-3.754a2.705 2.705 0 0 0-2.546-1.8h-2.7a2.7 2.7 0 0 0-2.7 2.7v8.1a.9.9 0 0 0 .9.9z"/></g><g><path fill="#d9255e" d="M9.9 6.3a.9.9 0 0 1 .9-.9h2.7a.9.9 0 0 1 .9.9.9.9 0 0 0 .9.9h4.5a.9.9 0 0 1 .9.9v5.4H9.9zm-.9 9h12.6a.9.9 0 0 0 .9-.9V8.1a2.7 2.7 0 0 0-2.7-2.7h-3.754A2.705 2.705 0 0 0 13.5 3.6h-2.7a2.7 2.7 0 0 0-2.7 2.7v8.1a.9.9 0 0 0 .9.9z"/></g><g><path fill="#d9255e" d="M41.4 32.4V18h6.3v3.6a.9.9 0 0 0 .9.9h3.6v9.9zm9.527-11.7H49.5v-1.427zM28.8 47.7a.9.9 0 0 1-.9.9H2.7a.9.9 0 0 1-.9-.9v-.9h27zm-11.7 4.5h-3.6v-1.8h3.6zM2.7 29.7h25.2a.9.9 0 0 1 .9.9V45h-27V30.6a.9.9 0 0 1 .9-.9zm26.1-9.9a.9.9 0 0 1-.9.9H2.7a.9.9 0 0 1-.9-.9v-.9h27zm-11.7 4.5h-3.6v-1.8h3.6zM2.7 1.8h25.2a.9.9 0 0 1 .9.9v14.4h-27V2.7a.9.9 0 0 1 .9-.9zm51.242 19.511c-.01-.029-.017-.056-.03-.084a.9.9 0 0 0-.18-.263l-4.5-4.5a.9.9 0 0 0-.263-.18.834.834 0 0 0-.084-.03.893.893 0 0 0-.234-.047c-.019 0-.036-.01-.055-.01H47.7l2.152-2.152v-2.588L47.7 13.61V9a.9.9 0 0 0-.9-.9H30.6V2.7A2.7 2.7 0 0 0 27.9 0H2.7A2.7 2.7 0 0 0 0 2.7v17.1a2.7 2.7 0 0 0 2.7 2.7h9v1.8H8.1v1.8h14.4v-1.8h-3.6v-1.8h9a2.7 2.7 0 0 0 2.7-2.7V9.9h15.3v3.71l-2.152-2.153v2.591L45.9 16.2h-5.4a.9.9 0 0 0-.9.9v16.2a.9.9 0 0 0 .9.9h5.4v4.5H33.19l2.153-2.152h-2.591L30.6 38.7v-8.1a2.7 2.7 0 0 0-2.7-2.7H2.7A2.7 2.7 0 0 0 0 30.6v17.1a2.7 2.7 0 0 0 2.7 2.7h9v1.8H8.1V54h14.4v-1.8h-3.6v-1.8h9a2.7 2.7 0 0 0 2.7-2.7v-7.2l2.152 2.152h2.591L33.19 40.5H46.8a.9.9 0 0 0 .9-.9v-5.4h5.4a.9.9 0 0 0 .9-.9V21.6c0-.019-.01-.036-.01-.056a.9.9 0 0 0-.048-.233z"/></g></g></g></svg>