<svg width="245" height="120" viewBox="0 0 245 120" fill="none" xmlns="http://www.w3.org/2000/svg">
<path d="M84.2572 44.0192C84.3565 44.2068 84.4007 44.4055 84.3786 44.6152V73.738C84.3676 77.0376 81.6859 79.7193 78.3862 79.7303C75.1528 79.7303 72.5153 77.0928 72.5153 73.738V43.5447C72.5153 36.8351 66.9974 31.4387 60.2878 31.4387C53.5781 31.4387 48.0603 36.8351 48.0603 43.5447V73.738C48.0603 77.0928 45.4227 79.7303 42.1893 79.7303C38.8896 79.7193 36.208 77.0376 36.1969 73.738V43.5337C36.208 36.8682 30.8226 31.4387 24.146 31.4277C24.1239 31.4277 24.1019 31.4277 24.0908 31.4277C17.3812 31.4277 11.8633 36.8241 11.8633 43.5337V73.727C11.8633 77.0818 9.22581 79.7193 5.99236 79.7193C2.71477 79.7524 0.033107 77.1149 0 73.8373C0 73.8042 0 73.7601 0 73.727V43.5337C0 30.3572 10.7818 19.5645 24.0908 19.5645C31.2861 19.5645 37.753 22.6765 42.1893 27.8301C46.6256 22.6765 53.0925 19.5645 60.2878 19.5645C73.5857 19.5645 84.3786 30.3462 84.3786 43.5337C84.3676 43.7765 84.3676 43.8978 84.2572 44.0192Z" fill="#D9255E"/>
<path d="M42.3517 11.8631C43.9078 11.8631 45.4638 11.2671 46.5453 10.1857C47.6268 9.10421 48.2227 7.54822 48.2227 5.99222C48.2227 4.43623 47.6268 2.88024 46.5453 1.79877C45.4638 0.7173 43.9078 0 42.3517 0C40.7957 0 39.2397 0.7173 38.1582 1.79877C37.0767 2.88024 36.3594 4.43623 36.3594 5.99222C36.3594 7.54822 37.0767 9.10421 38.1582 10.1857C39.2397 11.2671 40.7847 11.8631 42.3517 11.8631Z" fill="#D9255E"/>
<g opacity="0.9">
<path opacity="0.9" d="M122.835 47.8168C122.835 31.1639 136.376 17.7335 152.918 17.7335C169.505 17.7004 182.969 31.1198 183.002 47.7064C183.002 47.7395 183.002 47.7837 183.002 47.8168C183.002 64.3593 169.582 77.9001 152.918 77.9001C136.376 77.889 122.835 64.3482 122.835 47.8168ZM134.698 47.8168C134.698 57.7599 142.843 66.0367 152.918 66.0367C162.994 66.0367 171.138 57.771 171.138 47.8168C171.127 37.7522 162.972 29.5968 152.907 29.6079C142.854 29.6079 134.709 37.7633 134.698 47.8168Z" fill="#39B54A"/>
</g>
<g opacity="0.9">
<path opacity="0.9" d="M74.502 47.9279C74.502 31.2751 87.9212 17.8447 104.464 17.8447C115.212 17.8447 125.155 23.5502 130.585 32.8201C132.262 35.7004 131.181 39.287 128.433 40.9644C125.553 42.5204 121.966 41.5603 120.289 38.8125C117.033 33.1622 110.997 29.686 104.475 29.7081C94.5316 29.7081 86.2549 37.8524 86.2549 47.9279C86.2549 57.871 94.5205 66.1478 104.475 66.1478C110.71 66.1478 116.459 63.0357 119.814 57.7607C121.613 55.0018 125.332 54.2845 128.08 55.9619C130.839 57.7607 131.556 61.4797 129.757 64.2276C124.239 72.8575 114.782 78.0111 104.475 78.0111C87.9323 78.0111 74.502 64.4704 74.502 47.9279Z" fill="#FBB03B"/>
</g>
<g opacity="0.9">
<path opacity="0.9" d="M231.726 47.8167C231.726 51.0502 229.089 53.6877 225.734 53.6877H184.395C186.911 60.883 193.62 66.0256 201.654 66.0256C204.413 66.0256 209.324 65.7828 215.074 62.0748C217.833 60.276 221.541 61.9535 222.986 64.8338C224.421 67.8244 222.865 70.9475 220.106 72.7464C212.193 78.0214 206.08 77.9 201.654 77.9C185.002 77.9 171.571 64.3592 171.571 47.8167C171.538 31.2301 184.958 17.7665 201.544 17.7334C201.577 17.7334 201.621 17.7334 201.654 17.7334C216.155 17.7334 231.726 28.2725 231.726 47.8167ZM184.395 41.8243H219.024C216.508 33.4372 208.839 29.5968 201.643 29.5968C193.62 29.5968 186.911 34.7505 184.395 41.8243Z" fill="#FF00FF"/>
</g>
<g opacity="0.9">
<path opacity="0.9" d="M207.646 23.6157C207.635 26.9153 204.954 29.597 201.654 29.608C191.601 29.597 183.445 37.7524 183.434 47.8058C183.434 47.8169 183.434 47.8169 183.434 47.8279V71.9187C183.434 75.1522 180.797 77.9111 177.564 77.9111C174.264 77.9001 171.582 75.2184 171.571 71.9187V47.8058C171.571 31.153 185.112 17.7227 201.654 17.7227C205.009 17.7337 207.646 20.3712 207.646 23.6157Z" fill="#29ABE2"/>
</g>
<path d="M18.1534 104.97C27.8758 104.97 27.8758 119.768 18.1534 119.768H13.1543V104.97H18.1534ZM18.1534 119.448C27.4454 119.448 27.4454 105.29 18.1534 105.29H13.4743V119.448H18.1534Z" fill="white"/>
<path d="M34.7484 119.448H42.6278V119.768H34.4062V104.97H42.5837V105.29H34.7484V112.187H42.4071V112.529H34.7484V119.448Z" fill="white"/>
<path d="M62.872 104.97H63.2362L57.288 120H56.9238L50.9756 104.97H51.3398L57.1004 119.581L62.872 104.97Z" fill="white"/>
<path d="M72.1165 119.448H79.996V119.768H71.7744V104.97H79.9518V105.29H72.1165V112.187H79.7753V112.529H72.1165V119.448Z" fill="white"/>
<path d="M89.3353 119.426H97.2922V119.768H88.9932V104.97H89.3353V119.426Z" fill="white"/>
<path d="M106.207 106.98C107.609 105.545 109.529 104.728 111.538 104.739C113.546 104.739 115.478 105.545 116.89 106.98C119.848 109.948 119.848 114.76 116.89 117.728C113.988 120.675 109.253 120.719 106.296 117.817C106.263 117.784 106.23 117.75 106.207 117.728C103.25 114.749 103.25 109.948 106.207 106.98ZM116.669 107.233C113.933 104.408 109.43 104.342 106.605 107.079C106.55 107.134 106.505 107.178 106.45 107.233C103.625 110.059 103.625 114.649 106.45 117.475C109.187 120.3 113.69 120.366 116.515 117.629C116.57 117.574 116.614 117.53 116.669 117.475C119.461 114.627 119.461 110.07 116.669 107.233Z" fill="white"/>
<path d="M128.034 104.949H133.155C139.081 104.949 139.081 114.141 133.155 114.141H128.366V119.77H128.023L128.034 104.949ZM133.155 113.821C138.662 113.821 138.662 105.291 133.155 105.291H128.366V113.821H133.155Z" fill="white"/>
<path d="M146.827 119.77H146.507V104.949H146.849L152.984 114.031L159.142 104.949H159.484V119.77H159.164V105.434L153.128 114.406H152.852L146.816 105.434L146.827 119.77Z" fill="white"/>
<path d="M169.273 119.448H177.152V119.768H168.931V104.97H177.108V105.29H169.273V112.187H176.932V112.529H169.273V119.448Z" fill="white"/>
<path d="M186.149 119.768V104.925L186.447 104.947L196.292 119.172V104.947H196.612V119.768H196.27L186.492 105.621V119.768H186.149Z" fill="white"/>
<path d="M210.372 119.836V105.291H205.252V104.949H215.813V105.291H210.693V119.836H210.372Z" fill="white"/>
<path d="M236.188 8.89551V9.53557H233.44V16.775H232.69V9.53557H229.953V8.89551H236.188Z" fill="white"/>
<path d="M238.01 8.89551L240.625 15.8038L243.34 8.89551H244.444V16.775H243.693V9.96596H243.671L240.978 16.775H240.272L237.679 9.96596H237.657V16.775H236.906V8.89551H238.01Z" fill="white"/>
</svg>
