<svg width="24" height="24" viewBox="0 0 24 24" fill="none" xmlns="http://www.w3.org/2000/svg">
<path d="M19.5 0H4.5C2.01562 0 0 2.01563 0 4.5V19.5C0 21.9844 2.01562 24 4.5 24H19.5C21.9844 24 24 21.9844 24 19.5V4.5C24 2.01563 21.9844 0 19.5 0ZM7.79688 5.73438C9.90625 5.73438 11.7344 6.32813 11.7344 8.78125C11.7344 10.0156 11.1563 10.8125 10.0625 11.3438C11.5625 11.7813 12.2969 12.9219 12.2969 14.4688C12.2969 16.9688 10.2031 18.0312 7.96875 18.0312H2V5.73438H7.79688ZM7.45313 10.7031C8.42188 10.7031 9.10938 10.2813 9.10938 9.23438C9.10938 8.09375 8.21875 7.82812 7.25 7.82812H4.70313V10.7031H7.45313ZM7.59375 15.9375C8.70313 15.9375 9.59375 15.5625 9.59375 14.3125C9.59375 13.0625 8.84375 12.5469 7.65625 12.5469H4.70313V15.9375H7.59375ZM17.75 16.4375C18.4844 16.4375 19.4375 16.0313 19.6719 15.2813H21.8281C21.1719 17.3125 19.7969 18.2656 17.6562 18.2656C14.8438 18.2656 13.0938 16.375 13.0938 13.5938C13.0938 10.9219 14.9531 8.875 17.6562 8.875C20.4531 8.875 22 11.0781 22 13.7031C22 13.8594 22 14.0156 21.9844 14.1719H15.5625C15.5625 15.5938 16.3125 16.4375 17.75 16.4375ZM17.5938 10.7188C16.4219 10.7188 15.6406 11.4531 15.5625 12.625H19.5313C19.4219 11.4531 18.8125 10.7188 17.5938 10.7188ZM15.0625 6.5625V7.76562H20.0469V6.5625H15.0625Z" fill="#585B5F"/>
</svg>
