<?xml version="1.0" encoding="UTF-8"?>
<svg width="30px" height="26px" viewBox="0 0 30 26" version="1.1" xmlns="http://www.w3.org/2000/svg">
    <!-- Generator: Sketch 61.2 (89653) - https://sketch.com -->
    <title>desktop</title>
    <desc>Created with Sketch.</desc>
    <g id="Кейс" stroke="none" stroke-width="1" fill="none" fill-rule="evenodd">
        <g id="Портфолио-злата-XL" transform="translate(-277.000000, -9565.000000)" fill="#12171E" fill-rule="nonzero">
            <g id="Group-32" transform="translate(256.000000, 9563.000000)">
                <path d="M41.625,27.0625 C41.8789062,27.0625 42.0986328,26.9697266 42.2841797,26.7841797 C42.4697266,26.5986328 42.5625,26.3789062 42.5625,26.125 C42.5625,25.8710938 42.4697266,25.6513672 42.2841797,25.4658203 C42.0986328,25.2802734 41.8789062,25.1875 41.625,25.1875 L36.9375,25.1875 L36.9375,22.375 L49.125,22.375 C49.6328125,22.375 50.0722656,22.1894531 50.4433594,21.8183594 C50.8144531,21.4472656 51,21.0078125 51,20.5 L51,4.5625 C51,4.03515625 50.8144531,3.59082031 50.4433594,3.22949219 C50.0722656,2.86816406 49.6328125,2.6875 49.125,2.6875 L22.875,2.6875 C22.3671875,2.6875 21.9277344,2.86816406 21.5566406,3.22949219 C21.1855469,3.59082031 21,4.03515625 21,4.5625 L21,20.5 C21,21.0078125 21.1855469,21.4472656 21.5566406,21.8183594 C21.9277344,22.1894531 22.3671875,22.375 22.875,22.375 L35.0625,22.375 L35.0625,25.1875 L30.375,25.1875 C30.1210938,25.1875 29.9013672,25.2802734 29.7158203,25.4658203 C29.5302734,25.6513672 29.4375,25.8710938 29.4375,26.125 C29.4375,26.3789062 29.5302734,26.5986328 29.7158203,26.7841797 C29.9013672,26.9697266 30.1210938,27.0625 30.375,27.0625 L41.625,27.0625 Z M49.125,20.5 L22.875,20.5 L22.875,4.5625 L49.125,4.5625 L49.125,20.5 Z"
                      id="desktop"></path>
            </g>
        </g>
    </g>
</svg>