<svg width="24" height="24" viewBox="0 0 24 24" fill="none" xmlns="http://www.w3.org/2000/svg">
<path fill-rule="evenodd" clip-rule="evenodd" d="M19.5 0C21.9844 0 24 2.01562 24 4.5V19.5C24 21.9844 21.9844 24 19.5 24H16.5625V14.7031H19.6719L20.1406 11.0781H16.5625V8.76562C16.5625 7.71875 16.8438 7.01563 18.3594 7.01563L20.2656 7V3.76562C19.9375 3.71875 18.7969 3.625 17.4844 3.625C14.7188 3.625 12.8125 5.3125 12.8125 8.40625V11.0781H9.6875V14.7031H12.8125V24H4.5C2.01562 24 0 21.9844 0 19.5V4.5C0 2.01562 2.01562 0 4.5 0H19.5Z" fill="#585B5F"/>
</svg>
