<svg xmlns="http://www.w3.org/2000/svg" width="50" height="48" viewBox="0 0 50 48"><g><g opacity=".7"><g opacity=".7"><path fill="#d9255e" d="M49.925 26.632a.617.617 0 0 1 .072.357v17.426c-.007 1.974-1.596 3.578-3.55 3.585-1.917 0-3.48-1.578-3.48-3.585V26.348c0-4.014-3.27-7.243-7.245-7.243s-7.245 3.229-7.245 7.243v18.067c0 2.007-1.563 3.585-3.479 3.585-1.955-.007-3.544-1.611-3.55-3.585V26.342c.006-3.988-3.185-7.237-7.14-7.244h-.033c-3.976 0-7.246 3.23-7.246 7.244v18.066c0 2.007-1.562 3.585-3.478 3.585-1.942.02-3.531-1.558-3.551-3.52V26.343C0 18.458 6.389 12 14.274 12c4.264 0 8.096 1.862 10.724 4.946A13.991 13.991 0 0 1 35.722 12c7.88 0 14.275 6.451 14.275 14.342-.007.145-.007.218-.072.29z"/></g><g opacity=".7"><path fill="#d9255e" d="M25.536 7c.918 0 1.836-.352 2.474-.99.638-.638.99-1.556.99-2.474 0-.918-.352-1.836-.99-2.475C27.372.423 26.454 0 25.536 0c-.918 0-1.836.423-2.475 1.061C22.423 1.7 22 2.618 22 3.536c0 .918.423 1.836 1.061 2.474.639.638 1.55.99 2.475.99z"/></g></g></g></svg>