<svg width="24" height="24" viewBox="0 0 24 24" fill="none" xmlns="http://www.w3.org/2000/svg">
<path fill-rule="evenodd" clip-rule="evenodd" d="M15.9993 12.0001C15.9993 9.79711 14.2026 8.00038 11.9996 8.00038C9.79668 8.00038 7.99995 9.79711 7.99995 12.0001C7.99995 14.203 9.79668 15.9997 11.9996 15.9997C14.2026 15.9997 15.9993 14.203 15.9993 12.0001ZM18.1557 12C18.1557 15.406 15.406 18.1557 12 18.1557C8.59402 18.1557 5.84424 15.406 5.84424 12C5.84424 8.59402 8.59402 5.84424 12 5.84424C15.406 5.84424 18.1557 8.59402 18.1557 12ZM19.8427 5.59414C19.8427 6.39095 19.2022 7.03153 18.4053 7.03153C17.6085 7.03153 16.968 6.39095 16.968 5.59414C16.968 4.79733 17.6085 4.15676 18.4053 4.15676C19.2022 4.15676 19.8427 4.79733 19.8427 5.59414ZM12.0002 2.15729C10.2504 2.15729 6.50068 2.01667 4.92269 2.64162C4.37586 2.86035 3.96964 3.12596 3.5478 3.5478C3.12596 3.96964 2.86035 4.37586 2.64162 4.92269C2.01667 6.50068 2.15729 10.2504 2.15729 12.0002C2.15729 13.7501 2.01667 17.4998 2.64162 19.0778C2.86035 19.6246 3.12596 20.0308 3.5478 20.4527C3.96964 20.8745 4.37586 21.1401 4.92269 21.3588C6.50068 21.9838 10.2504 21.8432 12.0002 21.8432C13.7501 21.8432 17.4998 21.9838 19.0778 21.3588C19.6246 21.1401 20.0308 20.8745 20.4527 20.4527C20.8745 20.0308 21.1401 19.6246 21.3588 19.0778C21.9838 17.4998 21.8432 13.7501 21.8432 12.0002C21.8432 10.2504 21.9838 6.50068 21.3588 4.92269C21.1401 4.37586 20.8745 3.96964 20.4527 3.5478C20.0308 3.12596 19.6246 2.86035 19.0778 2.64162C17.4998 2.01667 13.7501 2.15729 12.0002 2.15729ZM23.999 12C23.999 13.6561 24.0146 15.2966 23.9209 16.9527C23.8272 18.8744 23.3897 20.5774 21.9836 21.9836C20.5774 23.3897 18.8744 23.8272 16.9527 23.9209C15.2966 24.0146 13.6561 23.999 12 23.999C10.3439 23.999 8.70339 24.0146 7.04728 23.9209C5.12556 23.8272 3.42257 23.3897 2.01644 21.9836C0.610302 20.5774 0.172837 18.8744 0.0790951 16.9527C-0.0146472 15.2966 0.000976483 13.6561 0.000976483 12C0.000976483 10.3439 -0.0146472 8.70339 0.0790951 7.04728C0.172837 5.12556 0.610302 3.42257 2.01644 2.01644C3.42257 0.610302 5.12556 0.172837 7.04728 0.0790951C8.70339 -0.0146472 10.3439 0.000976483 12 0.000976483C13.6561 0.000976483 15.2966 -0.0146472 16.9527 0.0790951C18.8744 0.172837 20.5774 0.610302 21.9836 2.01644C23.3897 3.42257 23.8272 5.12556 23.9209 7.04728C24.0146 8.70339 23.999 10.3439 23.999 12Z" fill="#585B5F"/>
</svg>
