<?xml version="1.0" encoding="UTF-8"?>
<svg width="28px" height="28px" viewBox="0 0 28 28" version="1.1" xmlns="http://www.w3.org/2000/svg"
>
    <!-- Generator: Sketch 60.1 (88133) - https://sketch.com -->
    <title>instagram - FontAwesome</title>
    <desc>Created with Sketch.</desc>
    <g id="Сайт" stroke="none" stroke-width="1" fill="none" fill-rule="evenodd">
        <g id="Главная-1-XL" transform="translate(-185.000000, -954.000000)" fill="#FFFFFF">
            <g id="Group-2" transform="translate(49.000000, 954.000000)">
                <path d="M154.666287,14 C154.666287,11.4298967 152.570103,9.33371308 150,9.33371308 C147.429897,9.33371308 145.333713,11.4298967 145.333713,14 C145.333713,16.5701033 147.429897,18.6662869 150,18.6662869 C152.570103,18.6662869 154.666287,16.5701033 154.666287,14 Z M157.181707,14 C157.181707,17.973635 153.973635,21.1817072 150,21.1817072 C146.026365,21.1817072 142.818293,17.973635 142.818293,14 C142.818293,10.026365 146.026365,6.81829278 150,6.81829278 C153.973635,6.81829278 157.181707,10.026365 157.181707,14 Z M159.150297,6.52664985 C159.150297,7.4562617 158.402962,8.20359671 157.47335,8.20359671 C156.543738,8.20359671 155.796403,7.4562617 155.796403,6.52664985 C155.796403,5.597038 156.543738,4.84970299 157.47335,4.84970299 C158.402962,4.84970299 159.150297,5.597038 159.150297,6.52664985 Z M150,2.51655952 C147.958499,2.51655952 143.583855,2.35251038 141.742859,3.08161771 C141.104891,3.33680527 140.630971,3.64667589 140.138823,4.13882334 C139.646676,4.63097079 139.336805,5.10489055 139.081618,5.74285947 C138.35251,7.58385548 138.51656,11.9584995 138.51656,14 C138.51656,16.0415005 138.35251,20.4161445 139.081618,22.2571405 C139.336805,22.8951094 139.646676,23.3690292 140.138823,23.8611767 C140.630971,24.3533241 141.104891,24.6631947 141.742859,24.9183823 C143.583855,25.6474896 147.958499,25.4834405 150,25.4834405 C152.041501,25.4834405 156.416145,25.6474896 158.257141,24.9183823 C158.895109,24.6631947 159.369029,24.3533241 159.861177,23.8611767 C160.353324,23.3690292 160.663195,22.8951094 160.918382,22.2571405 C161.64749,20.4161445 161.48344,16.0415005 161.48344,14 C161.48344,11.9584995 161.64749,7.58385548 160.918382,5.74285947 C160.663195,5.10489055 160.353324,4.63097079 159.861177,4.13882334 C159.369029,3.64667589 158.895109,3.33680527 158.257141,3.08161771 C156.416145,2.35251038 152.041501,2.51655952 150,2.51655952 Z M163.998861,14 C163.998861,15.9321344 164.017088,17.8460412 163.907722,19.7781756 C163.798356,22.0201806 163.287981,24.0069981 161.64749,25.6474896 C160.006998,27.2879811 158.020181,27.7983563 155.778176,27.9077224 C153.846041,28.0170885 151.932134,27.9988608 150,27.9988608 C148.067866,27.9988608 146.153959,28.0170885 144.221824,27.9077224 C141.979819,27.7983563 139.993002,27.2879811 138.35251,25.6474896 C136.712019,24.0069981 136.201644,22.0201806 136.092278,19.7781756 C135.982912,17.8460412 136.001139,15.9321344 136.001139,14 C136.001139,12.0678656 135.982912,10.1539588 136.092278,8.2218244 C136.201644,5.97981935 136.712019,3.99300187 138.35251,2.35251038 C139.993002,0.712018879 141.979819,0.201643746 144.221824,0.0922776467 C146.153959,-0.0170884531 148.067866,0.00113923021 150,0.00113923021 C151.932134,0.00113923021 153.846041,-0.0170884531 155.778176,0.0922776467 C158.020181,0.201643746 160.006998,0.712018879 161.64749,2.35251038 C163.287981,3.99300187 163.798356,5.97981935 163.907722,8.2218244 C164.017088,10.1539588 163.998861,12.0678656 163.998861,14 Z"
                      id="instagram---FontAwesome"></path>
            </g>
        </g>
    </g>
</svg>