<?xml version="1.0" encoding="UTF-8"?>
<svg width="28px" height="26px" viewBox="0 0 28 26" version="1.1" xmlns="http://www.w3.org/2000/svg">
    <!-- Generator: Sketch 61.2 (89653) - https://sketch.com -->
    <title>laptop</title>
    <desc>Created with Sketch.</desc>
    <g id="Кейс" stroke="none" stroke-width="1" fill="none" fill-rule="evenodd">
        <g id="Портфолио-злата-XL" transform="translate(-563.000000, -9564.000000)" fill="#12171E" fill-rule="nonzero">
            <g id="Group-32" transform="translate(256.000000, 9563.000000)">
                <path d="M331.986328,22.2207031 C332.572266,22.2207031 333.070312,22.015625 333.480469,21.6054688 C333.890625,21.1953125 334.095703,20.6972656 334.095703,20.1113281 L334.095703,20.1113281 L334.095703,3.734375 C334.095703,3.1484375 333.890625,2.65039062 333.480469,2.24023438 C333.070312,1.83007812 332.572266,1.625 331.986328,1.625 L331.986328,1.625 L309.955078,1.625 C309.369141,1.625 308.871094,1.83007812 308.460938,2.24023438 C308.050781,2.65039062 307.845703,3.1484375 307.845703,3.734375 L307.845703,3.734375 L307.845703,20.1113281 C307.845703,20.6972656 308.050781,21.1953125 308.460938,21.6054688 C308.871094,22.015625 309.369141,22.2207031 309.955078,22.2207031 L309.955078,22.2207031 L331.986328,22.2207031 Z M309.955078,20.140625 L309.955078,3.734375 L331.986328,3.734375 L331.986328,20.1113281 L309.955078,20.140625 Z M333.041016,26.46875 C333.333984,26.46875 333.583008,26.3662109 333.788086,26.1611328 C333.993164,25.9560547 334.095703,25.7070312 334.095703,25.4140625 C334.095703,25.1210938 333.993164,24.8720703 333.788086,24.6669922 C333.583008,24.4619141 333.333984,24.359375 333.041016,24.359375 L333.041016,24.359375 L308.900391,24.359375 C308.607422,24.359375 308.358398,24.4619141 308.15332,24.6669922 C307.948242,24.8720703 307.845703,25.1210938 307.845703,25.4140625 C307.845703,25.7070312 307.948242,25.9560547 308.15332,26.1611328 C308.358398,26.3662109 308.607422,26.46875 308.900391,26.46875 L308.900391,26.46875 L333.041016,26.46875 Z"
                      id="laptop"></path>
            </g>
        </g>
    </g>
</svg>