<svg xmlns="http://www.w3.org/2000/svg" width="27" height="25" viewBox="0 0 27 25"><g><g><path fill="#f3ece0" d="M26.045 24.844H1.905c-.293 0-.542-.103-.747-.308a1.017 1.017 0 0 1-.308-.747c0-.293.103-.542.308-.747.205-.205.454-.308.747-.308h24.14c.293 0 .542.103.747.308.205.205.308.454.308.747s-.103.542-.308.747a1.017 1.017 0 0 1-.747.308zM24.991 0c.586 0 1.084.205 1.494.615.41.41.615.908.615 1.494v16.377c0 .586-.205 1.084-.615 1.494-.41.41-.908.616-1.494.616H2.959a2.034 2.034 0 0 1-1.494-.616 2.034 2.034 0 0 1-.615-1.494V2.11c0-.586.205-1.084.615-1.494C1.875.205 2.373 0 2.96 0zM2.959 2.11v16.406l22.032-.03V2.11z"/></g></g></svg>