<svg xmlns="http://www.w3.org/2000/svg" width="21" height="33" viewBox="0 0 21 33"><g><g><path fill="#ba2a5d" d="M7.073 10.607c0-.982.329-1.805.986-2.467.657-.663 1.472-.995 2.446-.995.974 0 1.79.332 2.446.995.657.662.986 1.485.986 2.467s-.328 1.805-.986 2.468c-.657.663-1.472.994-2.446.994-.974 0-1.801-.319-2.483-.957-.633-.688-.95-1.523-.95-2.505zm-7.073 0c0 2.456.972 5.684 2.917 9.687 1.944 4.002 3.5 6.85 4.666 8.544A251.71 251.71 0 0 0 10.5 33l2.625-3.757c1.75-2.504 3.5-5.622 5.25-9.355 1.75-3.732 2.625-6.825 2.625-9.28 0-2.947-1.02-5.452-3.063-7.514C15.896 1.03 13.418 0 10.5 0 7.583 0 5.104 1.031 3.062 3.094 1.022 5.156 0 7.66 0 10.607z"/></g></g></svg>