<?xml version="1.0" encoding="UTF-8"?>
<svg width="18px" height="31px" viewBox="0 0 18 31" version="1.1" xmlns="http://www.w3.org/2000/svg">
    <!-- Generator: Sketch 61.2 (89653) - https://sketch.com -->
    <title>phone</title>
    <desc>Created with Sketch.</desc>
    <g id="Кейс" stroke="none" stroke-width="1" fill="none" fill-rule="evenodd">
        <g id="Портфолио-злата-XL" transform="translate(-1139.000000, -9562.000000)" fill="#12171E" fill-rule="nonzero">
            <g id="Group-32" transform="translate(256.000000, 9563.000000)">
                <path d="M897.625,29.875 C898.40625,29.875 899.070312,29.6015625 899.617188,29.0546875 C900.164062,28.5078125 900.4375,27.84375 900.4375,27.0625 L900.4375,2.6875 C900.4375,1.90625 900.164062,1.2421875 899.617188,0.6953125 C899.070312,0.1484375 898.40625,-0.125 897.625,-0.125 L886.375,-0.125 C885.59375,-0.125 884.929688,0.1484375 884.382812,0.6953125 C883.835938,1.2421875 883.5625,1.90625 883.5625,2.6875 L883.5625,27.0625 C883.5625,27.84375 883.835938,28.5078125 884.382812,29.0546875 C884.929688,29.6015625 885.59375,29.875 886.375,29.875 L897.625,29.875 Z M897.625,28 L886.375,28 C886.121094,28 885.901367,27.9072266 885.71582,27.7216797 C885.530273,27.5361328 885.4375,27.3164062 885.4375,27.0625 L885.4375,2.6875 C885.4375,2.43359375 885.530273,2.21386719 885.71582,2.02832031 C885.901367,1.84277344 886.121094,1.75 886.375,1.75 L897.625,1.75 C897.878906,1.75 898.098633,1.84277344 898.28418,2.02832031 C898.469727,2.21386719 898.5625,2.43359375 898.5625,2.6875 L898.5625,27.0625 C898.5625,27.3164062 898.469727,27.5361328 898.28418,27.7216797 C898.098633,27.9072266 897.878906,28 897.625,28 Z M893.875,4.5625 C894.128906,4.5625 894.348633,4.46972656 894.53418,4.28417969 C894.719727,4.09863281 894.8125,3.87890625 894.8125,3.625 C894.8125,3.37109375 894.719727,3.15136719 894.53418,2.96582031 C894.348633,2.78027344 894.128906,2.6875 893.875,2.6875 L890.125,2.6875 C889.871094,2.6875 889.651367,2.78027344 889.46582,2.96582031 C889.280273,3.15136719 889.1875,3.37109375 889.1875,3.625 C889.1875,3.87890625 889.280273,4.09863281 889.46582,4.28417969 C889.651367,4.46972656 889.871094,4.5625 890.125,4.5625 L893.875,4.5625 Z M892,27.0625 C892.527344,27.0625 892.97168,26.8769531 893.333008,26.5058594 C893.694336,26.1347656 893.875,25.6953125 893.875,25.1875 C893.875,24.6796875 893.694336,24.2402344 893.333008,23.8691406 C892.97168,23.4980469 892.527344,23.3125 892,23.3125 C891.492188,23.3125 891.052734,23.4980469 890.681641,23.8691406 C890.310547,24.2402344 890.125,24.6796875 890.125,25.1875 C890.125,25.6953125 890.310547,26.1347656 890.681641,26.5058594 C891.052734,26.8769531 891.492188,27.0625 892,27.0625 Z"
                      id="phone"></path>
            </g>
        </g>
    </g>
</svg>