<svg xmlns="http://www.w3.org/2000/svg" width="26" height="30" viewBox="0 0 26 30"><g><g><path fill="#f3ece0" d="M11.12 2.813a.899.899 0 0 0-.657.278.902.902 0 0 0-.278.659c0 .254.093.474.278.66a.899.899 0 0 0 .658.277h3.743a.899.899 0 0 0 .658-.278.902.902 0 0 0 .278-.659.902.902 0 0 0-.278-.66.899.899 0 0 0-.658-.277zm.56 21.181c-.372.371-.557.81-.557 1.319 0 .507.185.947.556 1.318.371.37.81.556 1.319.556.507 0 .947-.185 1.318-.556.37-.371.556-.81.556-1.319 0-.507-.185-.947-.556-1.318a1.802 1.802 0 0 0-1.319-.556c-.507 0-.947.185-1.318.556zm11.342 3.853a.9.9 0 0 1-.659.278H3.623a.9.9 0 0 1-.66-.278.901.901 0 0 1-.278-.66V2.813c0-.253.093-.473.278-.659a.9.9 0 0 1 .66-.278h18.74a.9.9 0 0 1 .659.278.901.901 0 0 1 .278.66v24.375a.901.901 0 0 1-.278.659zM3.622 0c-.78 0-1.445.273-1.992.82a2.712 2.712 0 0 0-.82 1.992v24.375c0 .782.273 1.446.82 1.993.547.547 1.211.82 1.992.82h18.75c.782 0 1.446-.273 1.993-.82.547-.547.82-1.211.82-1.992V2.813c0-.782-.273-1.446-.82-1.993A2.712 2.712 0 0 0 22.373 0z"/></g></g></svg>