<svg xmlns="http://www.w3.org/2000/svg" width="193" height="84" viewBox="0 0 193 84"><defs><linearGradient id="ljc1a" x1="1.79" x2="7.91" y1="10.33" y2="17.9" gradientUnits="userSpaceOnUse"><stop offset=".57" stop-color="#1a0000" stop-opacity="0"/><stop offset=".8" stop-opacity=".3"/><stop offset="1" stop-opacity=".6"/></linearGradient><linearGradient id="ljc1b" x1="26.02" x2="13.67" y1="42.13" y2="42.13" gradientUnits="userSpaceOnUse"><stop offset=".57" stop-color="#1a0000" stop-opacity="0"/><stop offset=".8" stop-opacity=".3"/><stop offset="1" stop-opacity=".6"/></linearGradient></defs><g><g><g><path fill="#d4dd4e" d="M2.41 65.01h2.935v14.609H2.41z"/></g><g><path fill="#d4dd4e" d="M15.588 71.978a2.773 2.773 0 0 1 2.108.783c.554.544.838 1.294.78 2.056.06.77-.221 1.53-.772 2.087-.551.557-1.32.861-2.116.835-1.564-.098-2.782-1.358-2.782-2.88 0-1.522 1.218-2.783 2.782-2.88zm4.226 6.892a5.206 5.206 0 0 0 1.662-4.053c0-3.554-2.726-5.427-5.893-5.427S9.74 71.18 9.74 74.84c0 3.663 2.676 5.488 5.843 5.488a5.534 5.534 0 0 0 4.231-1.458z"/></g><g><path fill="#d4dd4e" d="M28.41 75.802a2.448 2.448 0 0 1 0-2.62 2.635 2.635 0 0 1 2.408-1.204c1.367.09 2.428 1.19 2.428 2.514 0 1.325-1.06 2.423-2.428 2.514a2.635 2.635 0 0 1-2.408-1.204zm7.748-6.213h-2.806v.848a4.089 4.089 0 0 0-2.992-1.04 5.038 5.038 0 0 0-3.808 1.441 4.684 4.684 0 0 0-1.383 3.72 4.521 4.521 0 0 0 1.37 3.663 4.868 4.868 0 0 0 3.784 1.341 4.093 4.093 0 0 0 3.165-1.194v.334c0 1.935-.964 2.7-3.202 2.7a10.58 10.58 0 0 1-4.19-.956v2.831c1.39.517 2.874.76 4.363.717 3.684 0 5.699-1.732 5.699-5.017z"/></g><g><path fill="#d4dd4e" d="M40.758 69.201h2.67V79.62h-2.67zm-.187-2.625c-.013-.427.14-.84.424-1.138.284-.298.67-.452 1.065-.425.798 0 1.445.7 1.445 1.563 0 .864-.647 1.563-1.445 1.563a1.353 1.353 0 0 1-1.06-.428 1.593 1.593 0 0 1-.43-1.135z"/></g><g><path fill="#d4dd4e" d="M48.735 76.72a8.256 8.256 0 0 0 4.308 1.304c1.187 0 1.709-.251 1.709-.85 0-.598-.617-.814-1.887-.981-2.635-.36-4.225-1.197-4.225-3.209 0-2.394 2.053-3.59 4.64-3.59a8.434 8.434 0 0 1 3.56.681v2.694a7.075 7.075 0 0 0-3.56-1.03c-1.02 0-1.91.168-1.91.814 0 .647.652.719 2.04.958 2.612.443 4.036 1.305 4.036 3.4 0 2.095-1.412 3.436-4.498 3.436a12.06 12.06 0 0 1-4.237-.767z"/></g><g><path fill="#d4dd4e" d="M65.093 75.386c0 1.185.465 1.67 1.6 1.67a3.048 3.048 0 0 0 1.022-.19v2.369a3.286 3.286 0 0 1-1.703.379c-2.496 0-3.642-1.315-3.642-4.145v-4.014h-1.26v-2.368h1.26V66.47h2.723v2.593h2.622v2.368h-2.622z"/></g><g><path fill="#d4dd4e" d="M71.581 69.202h2.7V79.62h-2.7zm.237-3.768a1.362 1.362 0 0 1 1.085-.42c.804.026 1.438.737 1.422 1.594-.016.857-.677 1.54-1.481 1.531-.804-.008-1.452-.705-1.453-1.562a1.557 1.557 0 0 1 .427-1.143z"/></g><g><path fill="#d4dd4e" d="M84.317 69.407a5.746 5.746 0 0 1 3.184.846v2.68a4.684 4.684 0 0 0-2.948-.906 2.66 2.66 0 0 0-2.132.718 2.717 2.717 0 0 0-.84 2.105 2.682 2.682 0 0 0 .819 2.155 2.625 2.625 0 0 0 2.176.703 4.813 4.813 0 0 0 2.96-.905v2.632a5.454 5.454 0 0 1-3.29.893 5.053 5.053 0 0 1-3.975-1.434 5.16 5.16 0 0 1-1.532-3.973 5.244 5.244 0 0 1 1.543-4.042 5.135 5.135 0 0 1 4.035-1.472z"/></g><g><path fill="#d4dd4e" d="M92.025 76.72a8.237 8.237 0 0 0 4.314 1.304c1.185 0 1.695-.251 1.695-.85 0-.598-.605-.814-1.885-.982-2.619-.359-4.219-1.197-4.219-3.208 0-2.394 2.05-3.591 4.646-3.591a8.494 8.494 0 0 1 3.556.682v2.694a7.153 7.153 0 0 0-3.556-1.03c-1.007 0-1.896.168-1.896.814 0 .647.64.718 2.026.958 2.608.443 4.03 1.305 4.03 3.4 0 2.095-1.398 3.436-4.492 3.436-1.444 0-2.877-.26-4.231-.767z"/></g><g><path fill="#494949" d="M57.708 34.618V22.953H66.6c5.181 0 8.146 1.572 8.146 5.98 0 4.113-3.025 5.685-8.206 5.685zM47.9 14.61v42.33h9.808V42.672h8.193l8.88 14.303H86.06l-10.23-15.84c5.663-1.938 8.507-6.844 8.507-12.34 0-9.646-6.29-14.185-16.592-14.185z"/></g><g><path fill="#494949" d="M93.4 14.61h9.54v42.365H93.4z"/></g><g><path fill="#494949" d="M124.413 48.625V22.96h5.64c10.283 0 14.21 4.91 14.21 12.957 0 8.046-3.927 12.708-14.21 12.708zm-9.733 8.35h15.372c15.193 0 24.255-7.571 24.255-21.13 0-14.515-9.062-21.235-24.255-21.235H114.68z"/></g><g><path fill="#494949" d="M162.38 14.61h30.087v8.286h-20.583v8.842h14.326v7.99h-14.326v8.961h20.583v8.286H162.38z"/></g><g><path fill="#494949" d="M21.947 13.15c-11.82 0-18.807 6.77-18.807 18.197v25.63h9.622V30.684c0-5.813 3.807-9.016 8.949-9.016 4.834 0 8.522 3.45 8.522 8.886 0 5.436-3.203 8.768-8.546 8.768a8.748 8.748 0 0 1-7.908-4.337v10.528a18.4 18.4 0 0 0 9.173 2.21c10.166 0 16.88-7.09 16.88-17.039.024-10.859-7.234-17.535-17.885-17.535z"/></g><g><path fill="#494949" d="M2.99 24.833c1.392-4.788 5.057-8.613 9.83-10.26V9.97h2.79L7.906 2.92.2 9.97h2.79z"/></g><g opacity=".3"><path fill="url(#ljc1a)" d="M3.14 10.96v13.878c1.351-4.772 4.907-8.585 9.54-10.228v-3.65z"/></g><g opacity=".3"><g opacity=".3"><path fill="url(#ljc1b)" d="M25.099 39.709c-1.013.275-2.06.41-3.112.4-3.354.129-6.508-1.533-8.197-4.319v10.485a19.698 19.698 0 0 0 9.508 2.201c.6 0 1.225 0 1.776-.07z"/></g></g><g><path fill="#d4dd4e" d="M6.81 55.51h.734v2.191H6.81z"/></g><g><path fill="#d4dd4e" d="M25.243 18.486a14.002 14.002 0 0 0-3.573-.31v-.633a14.608 14.608 0 0 1 3.713.322zm-9.494.885l-.21-.593.49-.178a21.19 21.19 0 0 1 3.095-.795l.105.617c-1.016.19-2.018.448-3 .771zm14.781 1.705a12.11 12.11 0 0 0-3.068-1.862l.234-.597a13.499 13.499 0 0 1 3.22 1.958zm-19.485 1.85l-.492-.346c.77-1.016 1.7-1.896 2.753-2.602l.34.537a10.619 10.619 0 0 0-2.601 2.412zm22.91 2.987a8.962 8.962 0 0 0-1.168-2.38 9.501 9.501 0 0 0-.607-.799l.478-.416c.234.286.444.56.643.845.499.771.892 1.608 1.167 2.488zM8.579 28.36l-.607-.144a16.22 16.22 0 0 1 1.25-3.581l.56.274a16.08 16.08 0 0 0-1.203 3.534zm26.789 3.581h-.631v-.824c.02-.945-.031-1.891-.152-2.83l.607-.107c.154.975.233 1.961.234 2.95-.047.286-.047.572-.058.859zM8.15 34.533h-.613v-3.727l.613.06v.726zm25.702 3.581l-.552-.286a13.592 13.592 0 0 0 1.174-3.44l.61.118a13.832 13.832 0 0 1-1.22 3.584zM8.15 40.824h-.613v-3.739h.613zm21.483 1.932l-.339-.537a14.721 14.721 0 0 0 1.787-1.445c.315-.282.608-.59.876-.919l.478.418a12.2 12.2 0 0 1-.934.979 17.014 17.014 0 0 1-1.868 1.492zm-8.35 2.101a13.913 13.913 0 0 1-3.62-.92l.222-.596c1.122.46 2.301.757 3.504.883zm2.5 0l-.059-.633a11.414 11.414 0 0 0 3.494-.883l.233.597a12.452 12.452 0 0 1-3.669.92zM8.15 47.077h-.613V43.33h.613zm0 6.244h-.613v-3.748h.613z"/></g><g><path fill="#d4dd4e" d="M15.225 43.09a24.54 24.54 0 0 1-1.815-.797v-.663c.655.321 1.488.725 2.202.984z"/></g><g><path fill="#d4dd4e" d="M8.105 16.262l-.396.54V14.61h.396v1.652z"/></g><g><path fill="#d4dd4e" d="M7.54 9.5h.734v2.191H7.54z"/></g><g><path fill="#d4dd4e" d="M7.905 0L.2 7.147v.888L7.905.875l7.706 7.16v-.888L7.905 0z"/></g></g></g></svg>