<?xml version="1.0" encoding="UTF-8"?>
<svg width="258px" height="199px" viewBox="0 0 258 199" version="1.1" xmlns="http://www.w3.org/2000/svg" xmlns:xlink="http://www.w3.org/1999/xlink">
    <!-- Generator: Sketch 63.1 (92452) - https://sketch.com -->
    <title>Group 40</title>
    <desc>Created with Sketch.</desc>
    <g id="Кейс" stroke="none" stroke-width="1" fill="none" fill-rule="evenodd">
        <g id="Pride-XL" transform="translate(-946.000000, -3010.000000)" fill-rule="nonzero">
            <g id="Group-24" transform="translate(166.000000, 3010.000000)">
                <g id="Group-40" transform="translate(780.000000, 0.000000)">
                    <path d="M43.16,199 C25.1370527,199 10.7505299,192.655494 0,179.966292 L16.7580952,164.078652 C24.6628967,172.887684 33.5688394,177.292135 43.4761905,177.292135 C48.113674,177.292135 51.8815728,176.059937 54.78,173.595506 C57.6784272,171.131074 59.127619,167.801519 59.127619,163.606742 C59.127619,159.097356 57.2304952,155.636716 53.4361905,153.224719 C49.6418858,150.812722 44.3193993,149.606742 37.4685714,149.606742 L27.3504762,149.606742 L23.5561905,134.191011 L49.9580952,107.764045 L6.48190476,107.764045 L6.48190476,87 L81.2609524,87 L81.2609524,105.247191 L53.2780952,131.831461 C73.0927975,135.187283 83,145.569201 83,162.977528 C83,173.569341 79.3901948,182.22094 72.1704762,188.932584 C64.9507576,195.644228 55.2806955,199 43.16,199 Z" id="3" fill="#FBEED9"></path>
                    <g id="Ресурс-2" transform="translate(65.000000, 0.000000)">
                        <path d="M103.4606,49.2572062 C103.314493,53.2526748 100.100137,56.3858995 98.5903632,59.859164 C96.9542857,63.4245033 97.1447348,67.5583822 99.101738,70.9590374 C99.6496397,71.9548685 100.246244,72.9142667 101.475978,73.0357095 C102.291928,73.064368 103.10856,73.0032781 103.911097,72.8535453 L107.113277,72.4284955 C109.244006,72.1370327 111.374734,71.8212814 113.505463,71.5055301 L116.695467,71.0683359 C116.914628,71.0683359 117.499056,70.8375946 117.57211,71.1654902 C117.645164,71.4933858 116.890277,72.1248884 116.756345,72.2949084 C112.044392,78.7556662 104.507701,82.9697319 96.9223072,85.1799911 C92.9695458,86.3203611 88.8580913,86.8165678 84.7467159,86.6494492 C80.5948393,86.5158621 76.6742989,84.6942199 72.4737199,85.216424 C68.5088573,85.7248875 64.7383637,87.2292066 61.5156878,89.5883654 C59.8963342,90.8027935 58.3987364,92.1629531 56.8280852,93.4259584 C55.2431821,94.713453 53.7387168,96.0964352 52.3231164,97.5671584 C49.4753293,100.511338 46.2873954,103.108122 42.8261552,105.303066 C39.2807697,107.42298 35.8617912,109.746448 32.5864829,112.261739 C31.0892639,113.396693 29.7823576,114.761727 28.7146449,116.305785 C27.7208005,117.854043 27.2199445,119.666036 27.2779251,121.503537 C27.2779251,124.588185 27.7649488,127.697121 27.5336126,130.781769 C27.5233096,132.123842 27.0981188,133.430062 26.3160534,134.522207 C25.4190055,135.492898 24.3226313,136.259215 23.1016973,136.768899 C21.8043421,137.457167 20.3783948,137.870621 18.9132939,137.983328 C17.8824721,138.085458 16.8610121,137.714567 16.1372591,136.975352 C15.0292803,135.615193 15.5528307,133.332068 15.9789764,131.814032 C16.5634048,129.810226 17.3061159,127.575678 17.987949,125.620449 C19.4139722,122.026941 20.3160284,118.248047 20.6665791,114.399133 C20.8126862,112.443903 19.9482192,110.172923 20.5691743,108.326992 C20.8735641,107.404026 21.9815429,107.319017 22.8460099,106.991121 C23.6812163,106.681296 24.4947343,106.316154 25.2811282,105.898136 C32.6473609,101.926955 34.3519437,92.6244358 36.7018328,85.3742997 C37.3217226,83.4341438 38.0659671,81.5357243 38.929966,79.6907759 C39.2835946,78.8796701 39.6903255,78.0926412 40.1475251,77.3347852 C40.6954267,76.5089741 41.3650842,75.81675 41.998215,75.0152274 C44.5550892,71.5298186 42.6922237,67.4007629 40.1353495,64.5468567 C38.8325613,63.0895429 37.4080171,61.7779605 36.2269847,60.2234925 C35.0119676,58.590933 33.9560161,56.8463836 33.0735066,55.0135957 C31.3189265,51.2574354 30.0623856,47.2893018 29.3356001,43.2093539 C28.532011,39.0802982 28.2519724,34.890521 27.7162464,30.7250324 C27.4483834,28.6240717 27.2170472,26.5352553 27.0100621,24.4342946 C26.8710591,23.4395045 26.6718269,22.4540165 26.4134582,21.4832342 C26.1942975,20.4874031 25.9873125,19.491572 25.6950983,18.5200294 C25.2539814,16.6837773 24.6467722,14.8912228 23.8809352,13.1644013 C23.1248664,11.6387235 22.0246387,10.3085436 20.6665791,9.27823114 C19.965695,8.83095291 19.3056635,8.322979 18.6941333,7.76019594 C18.0097321,7.0569576 17.5154035,6.19201794 17.2574135,5.24632965 C16.858765,3.50408503 16.9643223,1.68474648 17.5618033,0 C18.7793624,1.21442816 21.7380311,1.37230382 23.1869265,2.42885632 C24.6358218,3.48540882 24.7332266,5.63494666 24.8306313,7.38372321 C24.8392964,9.43579708 25.2530201,11.4660836 26.0481904,13.3587098 C27.5898205,17.0950452 28.8553997,20.9388443 29.8347993,24.8593444 C30.2974718,26.9238723 30.7236175,28.9641116 31.0523584,31.0407838 C31.7391314,35.3144842 32.6618205,39.5471287 33.8162177,43.7194138 C34.828527,47.6186039 36.3169667,51.3790776 38.2481329,54.9164414 C40.1073084,58.1878432 42.6786196,61.0015422 45.7726483,63.1502643 C47.270246,64.1460954 49.2913942,65.3969564 51.142084,64.8990409 C53.2119345,64.3404039 56.2436568,62.5916274 60.0424412,61.5957963 C63.1350414,60.7821294 67.0434062,60.5270995 68.9793252,60.1263382 C72.7794982,59.1647909 76.3618128,57.4915733 79.5355629,55.1957599 C82.9731308,52.7940255 86.2549192,50.1777798 89.361265,47.3626982 C90.7979144,45.9800013 92.3318957,44.7015887 93.9514629,43.5372495 C95.5761911,42.5736816 97.3623025,41.9112694 99.223494,41.5820202 C102.876171,40.841219 107.27156,40.8533633 110.656374,42.5778513 C112.124544,43.4500381 113.321506,44.7111824 114.114242,46.2211358 C115.187941,47.907271 116.104923,49.6877385 116.85375,51.5403311 C117.145964,50.9938384 115.636191,45.4681903 115.076114,44.2537622 C113.989469,42.1455447 112.091213,40.5677328 109.816258,39.8818208 C107.365894,39.1368438 104.788343,38.9012448 102.243041,39.1895967 C101.009855,39.2837061 99.7874907,39.4869097 98.5903632,39.7968108 C97.3527776,40.1390298 96.1336151,40.5443723 94.9376858,41.011239 C96.5205127,38.0480343 99.5765861,36.5907205 102.243041,34.8297996 C100.010213,35.1741376 97.847666,35.875363 95.8386796,36.9064718 C99.2113207,31.633643 104.60896,27.9756726 110.765954,26.7902852 C109.885635,26.5393716 108.991193,26.3406673 108.087324,26.1952154 C109.207479,25.2236729 124.901816,14.9010335 136.383399,20.96103 C136.21294,20.4995473 134.934503,19.5887262 135.165839,19.5522934 C136.894773,19.2608306 146.659598,21.5803884 150.726245,29.5591814 C151.04281,30.1663955 151.943804,31.3443908 152.029033,31.7087193 C152.268234,32.7810294 152.313589,33.8873211 152.162965,34.975531 C152.088178,35.4940409 151.957549,36.0029949 151.773346,36.4935662 C151.590712,37.0279146 151.249795,37.3800988 151.602888,37.86587 C152.248194,38.7402583 152.954378,39.590358 153.599685,40.4768906 C153.868177,40.7701347 154.060484,41.1245712 154.159762,41.5091545 C154.232815,42.0070701 153.940601,42.480697 153.977128,43.0029011 C154.135411,45.2010161 155.913047,47.1198126 156.814041,49.0750419 C157.094079,49.6579675 157.812439,51.1760027 157.288889,51.7589282 C156.765338,52.3418537 155.121633,52.2325552 154.354571,51.9532367 C154.02583,51.8317939 153.137012,51.3703112 153.137012,51.9532367 C153.137012,52.3054209 153.80667,52.9733563 154.001479,53.2405305 C154.252628,53.6464573 154.468516,54.0730611 154.646785,54.5156801 C154.878122,55.0378842 155.340794,54.3699487 155.57213,54.0420531 C155.803467,53.7141575 156.278315,53.216242 156.424422,53.4105505 C156.570529,53.604859 156.120032,54.8314314 155.998276,55.0621728 C155.87652,55.2929141 155.194687,56.1430138 154.780717,56.1308696 C154.52503,56.1308696 154.707663,55.5357998 154.366747,55.8394068 C154.09242,56.0417442 153.79879,56.2166556 153.490104,56.3616109 C152.455866,56.7336577 151.336994,56.8052498 150.263573,56.5680637 C149.628479,56.4718438 149.004485,56.3131956 148.400707,56.0944367 C147.855742,55.8636378 147.258401,55.7839175 146.671773,55.8636954 C146.974797,56.0700834 147.307271,56.2297514 147.657996,56.3373223 L149.08254,56.8109493 C149.980348,57.1579416 150.923412,57.3746976 151.882926,57.4545963 C152.430828,57.4545963 154.111059,57.0416907 153.928426,57.7582033 C153.522178,58.6470009 152.918443,59.4319144 152.162965,60.0534725 C150.945406,61.2679007 149.49651,61.8508262 147.901508,60.8428508 C146.306505,59.8348754 145.88036,58.2925517 144.614098,57.0781235 C142.008522,54.7342772 138.355844,54.0177646 135.762443,51.6617739 C133.169042,49.3057833 133.595188,45.8932402 135.433702,43.3672296 C136.712143,41.8427082 138.254473,40.5593672 139.987374,39.5782137 C140.864016,38.9952882 141.76501,38.3637856 142.653828,37.8294372 C143.483344,37.3908306 144.196847,36.7623986 144.735854,35.9956507 C144.011137,36.3601608 143.307867,36.7656294 142.629477,37.2100788 C141.789361,37.6594172 140.924894,38.0723228 140.072603,38.4973727 C138.384011,39.2565417 136.790336,40.2102879 135.324122,41.3391346 C132.694194,43.5736824 131.099192,47.7513153 132.889004,50.9695499 C134.678816,54.1877845 138.307142,54.6978443 141.022299,56.4587652 C142.349438,57.3088649 141.022299,58.8876215 140.194359,59.6648555 C139.366418,60.4420895 137.442675,61.8629705 136.237291,61.3650549 C134.276797,60.6185892 132.2325,60.1129072 130.149496,59.859164 C127.968851,59.5052713 125.819366,58.9814635 123.720784,58.2925517 C123.720784,58.8390444 127.227354,60.1020496 128.128348,60.3570796 C129.796404,60.8428508 131.488811,61.2314678 133.181218,61.6322291 C136.371223,62.3851746 141.241459,63.6481799 143.42089,66.1863347 C145.600321,68.7244896 146.330857,71.4812415 144.492342,75.5252873 C143.408715,77.9541436 140.182183,80.1644028 137.515729,79.824363 C136.23264,79.8340827 135.11006,78.9654418 134.800572,77.7234022 C134.647971,76.7433423 134.611193,75.7488075 134.690991,74.7601975 C134.690991,73.9586749 134.983206,73.3878937 134.25267,72.841401 C131.308894,70.8946283 127.921803,69.7169973 124.402617,69.4167136 C120.581331,68.9876001 116.726217,68.9469102 112.896683,69.2952708 C111.033817,69.4410022 109.170952,69.6717435 107.308087,69.9267735 C106.382742,70.0482163 105.445221,70.1939477 104.519876,70.339679 C103.725868,70.5787747 102.878766,70.5787747 102.084758,70.339679 C101.391794,69.8247179 100.87002,69.113884 100.58716,68.2994397 C100.192292,67.4944638 99.9213832,66.6346978 99.7835712,65.7491406 C99.5717128,63.799685 99.8391693,61.8280975 100.562809,60.0048954 C101.232467,58.0982432 102.096934,56.2887452 102.790942,54.3942373 C103.626333,52.6236536 103.910481,50.6439633 103.606707,48.7107135 C103.534483,48.8857983 103.48537,49.0694997 103.4606,49.2572062 Z M132.682019,39.6510794 C132.584614,38.4366513 132.316751,37.1372131 132.328927,35.8863521 C132.341102,34.6354911 132.499385,33.8339685 133.692593,33.4574958 C134.609785,33.1946133 135.597941,33.3990034 136.334696,34.0039885 C137.138285,34.6233468 137.75924,35.6677551 138.660234,36.1292378 C139.074204,36.3478348 139.098555,36.1292378 138.879395,35.7891979 C138.660234,35.449158 138.246264,34.8540882 137.905347,34.4047498 C137.256672,33.4906783 136.428123,32.7179771 135.470229,32.1337691 C133.558661,31.1015052 131.549689,32.6195404 131.05049,34.5626254 C130.814145,35.6959895 130.87283,36.8708487 131.220948,37.9751686 C131.379231,38.7038255 131.537513,39.4446266 131.671445,40.1854278 C131.744498,40.6104777 132.048888,41.399856 132.170644,41.9827815 C132.555239,41.2681255 132.732335,40.4606277 132.682019,39.6510794 Z M143.83486,43.0029011 C144.664219,43.6549533 145.616553,44.1340257 146.635246,44.4116378 C146.976163,44.4845035 147.329255,44.5573692 147.657996,44.6545234 C147.986737,44.7516777 148.388532,45.0309962 148.55899,44.982419 C148.912082,44.848832 148.193722,44.3144836 148.108493,44.0108765 C147.889332,43.1121997 148.412883,42.4685528 147.207499,42.4564085 C146.042651,42.420903 144.881638,42.6063522 143.786158,43.0029011 L143.83486,43.0029011 Z" id="Shape" fill="#C79636"></path>
                        <path d="M132.469184,75.325981 C132.35343,74.6194525 131.913103,74.0135506 131.286464,73.698529 C130.415606,73.167296 129.496677,72.7239508 128.542555,72.3747062 C126.63345,71.6988566 124.644343,71.2903399 122.628956,71.1601898 C122.215005,71.1601898 120.145245,70.6986735 120.192554,71.3423672 C120.192554,71.621706 123.303107,75.4595778 123.941775,76.2004328 C124.580444,76.9412878 124.403036,77.4999654 123.693404,78.3258365 C122.30415,79.7035969 120.817771,80.9741932 119.246378,82.1272729 C117.80346,83.3417893 116.987384,84.8842251 117.791633,86.7910159 C119.565713,91.0053878 125.597583,90.6288877 128.22322,88.1877097 C129.689793,86.7545804 132.622938,76.5404974 132.469184,75.325981 Z" id="Path" fill="#C79636"></path>
                        <path d="M73.475,87 C71.5237719,87.1935659 69.6056339,87.65191 67.7699596,88.3632343 C65.7921712,89.3203373 63.8923659,90.4412539 62.0890931,91.7150398 C58.6805732,94.2163872 51.9118813,100.582316 51.5492728,100.844958 C51.5492728,100.844958 51.1987512,101.032559 52.0206638,100.995039 C54.2084018,100.894985 55.7313575,100.995039 57.9190954,100.869971 C61.7627455,100.64485 63.6603966,100.619837 66.6337863,97.7808073 C68.0961046,96.4130522 69.2583452,94.7370802 70.0423062,92.8656596 C70.5620451,91.7775735 73.1970002,87.3877088 73.475,87 Z" id="Path" fill="#C79636"></path>
                        <path d="M28.4752507,123.154919 C28.4752507,125.055271 28.4110627,127.60964 30.3367031,127.979839 C31.1231035,128.06885 31.9147408,127.860916 32.5447707,127.399861 C33.904663,126.598712 34.9204464,125.355217 35.4075561,123.895316 C35.8157476,122.146334 35.9026402,120.342213 35.6643081,118.564459 C35.5540258,116.706535 35.6314135,114.842709 35.8953849,112.999143 C35.959573,112.579585 36.5115899,110.987731 36.4730771,111 C35.7196068,111.434472 35.0216268,111.952159 34.3933855,112.542565 C33.4559018,113.346969 32.5645177,114.199679 31.7231642,115.096934 C29.6851495,117.330321 28.5346602,120.184654 28.4752507,123.154919 L28.4752507,123.154919 Z" id="Path" fill="#C79636"></path>
                        <path d="M0.475,98.0004982 L12.8059298,98.0004982 C14.736068,97.9870659 16.6589038,98.2453258 18.5208415,98.7680792 C20.184531,99.215809 21.7580398,99.9624002 23.1686535,100.973352 C24.4590066,101.913935 25.5251422,103.142788 26.2869559,104.567581 C27.0796638,106.061806 27.4877872,107.739345 27.4726223,109.441111 C27.5089216,111.092222 27.1290669,112.724919 26.3699526,114.18062 C25.6654068,115.505145 24.6759332,116.646935 23.4769267,117.518988 C22.2355658,118.416494 20.8512741,119.084445 19.3863779,119.492768 C17.8425718,119.935733 16.2465599,120.15714 14.6437126,120.150694 C13.9560261,120.150694 13.2446263,120.150694 12.5095132,120.089775 L10.3753138,119.943569 C9.68762736,119.943569 9.04736754,119.821731 8.45453438,119.736444 C7.86170122,119.651158 7.39929135,119.578055 7.01987812,119.492768 L7.01987812,138 L0.475,138 L0.475,98.0004982 Z M7.01987812,117.250944 C7.76684791,117.470253 8.56124435,117.665194 9.39121078,117.860135 C10.2319083,118.053598 11.0907303,118.151655 11.95225,118.152547 C13.2112564,118.180704 14.4635958,117.957256 15.6396723,117.49462 C16.6278263,117.09728 17.5214149,116.486501 18.2599949,115.703598 C18.9709143,114.954156 19.5097115,114.050809 19.8369311,113.059708 C20.1930533,112.01884 20.3696015,110.922076 20.3586243,109.81881 C20.3750099,108.566107 20.1451425,107.322895 19.6827945,106.163662 C19.2580718,105.110611 18.6240421,104.160298 17.8212984,103.373566 C17.0294258,102.597426 16.0995383,101.985215 15.0824091,101.570359 C13.9891649,101.139577 12.8266382,100.924631 11.6558335,100.9368 L7.01987812,100.9368 L7.01987812,117.250944 Z" id="Shape" fill="#211F1E"></path>
                        <path d="M41.475,98.0025355 L55.2441743,98.0025355 C57.364862,97.9710314 59.4797662,98.2332436 61.5293119,98.7817859 C63.141427,99.2185511 64.6601512,99.9490172 66.0100459,100.9369 C67.1664515,101.799938 68.0973026,102.932211 68.7227064,104.236539 C69.3427708,105.543998 69.6575678,106.976598 69.6430734,108.42501 C69.6529006,109.628952 69.4180068,110.822223 68.9527982,111.931637 C68.4738206,113.019467 67.8006928,114.009877 66.9667431,114.853826 C66.0667823,115.76728 65.0285987,116.531649 63.8907798,117.118523 C62.6383355,117.772906 61.3131157,118.275625 59.9428899,118.616145 L74.475,138 L66.7245413,138 L52.822156,119.200583 L48.1597706,119.200583 L48.1597706,137.975648 L41.475,137.975648 L41.475,98.0025355 Z M48.1597706,117.191578 L52.035,117.191578 C53.4456759,117.206185 54.8503582,117.005014 56.2008716,116.594964 C57.3899822,116.261188 58.5069637,115.707925 59.4948165,114.963409 C61.3978441,113.46763 62.4883356,111.157504 62.4375688,108.729405 C62.4513389,107.599232 62.2413943,106.477592 61.8199541,105.429766 C61.4416215,104.432427 60.8505098,103.530559 60.088211,102.78762 C59.3273941,102.045584 58.4196003,101.47306 57.4239908,101.107362 C56.3400402,100.699731 55.1903809,100.497449 54.0331651,100.510748 L48.1597706,100.510748 L48.1597706,117.191578 Z" id="Shape" fill="#211F1E"></path>
                        <path d="M116.475,98.0086049 L129.747757,98.0086049 C133.311703,97.9365498 136.870423,98.3172615 140.339271,99.1416844 C143.039988,99.7684843 145.557591,101.020095 147.691456,102.79678 C149.859369,104.585573 151.597066,106.842892 152.774898,109.400318 C153.929673,111.976444 154.509394,114.775038 154.473423,117.599915 C154.496191,120.31344 153.984935,123.004751 152.969015,125.519288 C151.956079,127.993561 150.420353,130.217522 148.467925,132.037541 C146.358281,133.968322 143.882424,135.451834 141.188534,136.399287 C138.021306,137.515943 134.681157,138.056423 131.324958,137.995346 L116.475,137.995346 L116.475,98.0086049 Z M123.17204,135.095637 L130.281579,135.095637 C132.451121,135.115607 134.605902,134.735686 136.638914,133.974741 C138.57342,133.239295 140.333753,132.106422 141.807282,130.648604 C143.329018,129.105094 144.518362,127.263764 145.30139,125.239064 C146.195663,122.857609 146.632049,120.327433 146.587415,117.78267 C146.61543,115.463758 146.203693,113.160682 145.374184,110.996376 C144.622056,109.01626 143.478925,107.20935 142.013531,105.684305 C140.545209,104.19295 138.791164,103.015876 136.857296,102.224148 C134.78124,101.380712 132.557142,100.966332 130.317976,101.005783 L123.17204,101.005783 L123.17204,135.095637 Z" id="Shape" fill="#211F1E"></path>
                        <polygon id="Path" fill="#211F1E" points="192.475 98 192.475 100.579075 171.967321 100.579075 171.967321 114.946472 185.686496 114.946472 185.686496 117.525547 171.967321 117.525547 171.967321 135.420925 192.475 135.420925 192.475 138 165.475 138 165.475 98"></polygon>
                        <polygon id="Path" fill="#211F1E" points="99.475 100.583003 99.475 98 97.2313396 98 90.536742 98 88.475 98 88.475 100.583003 90.536742 100.583003 90.536742 135.416997 88.475 135.416997 88.475 138 90.536742 138 97.2313396 138 99.475 138 99.475 135.416997 97.2313396 135.416997 97.2313396 100.583003"></polygon>
                        <path d="M54.7607059,160.299709 C53.6270951,161.433589 52.0799761,162.047498 50.4830214,161.997128 C48.8806854,162.038896 47.3295978,161.42674 46.1820887,160.299709 C43.9059704,157.894181 43.9059704,154.11279 46.1820887,151.707262 C48.5994216,149.430913 52.3549971,149.430913 54.77233,151.707262 C57.0425567,154.115161 57.0425567,157.89181 54.77233,160.299709 L54.7607059,160.299709 Z M50.4830214,151.754087 C49.42673,151.745149 48.4118868,152.167471 47.6699789,152.92472 C46.8664356,153.752842 46.4447418,154.882478 46.5075647,156.038604 C46.4857712,156.857789 46.6867501,157.667389 47.0887718,158.379871 C47.4487286,158.979804 47.9681327,159.466387 48.5882862,159.784631 C49.1857447,160.090673 49.8476168,160.247273 50.5178938,160.241178 C51.5701617,160.246949 52.5802239,159.824873 53.3193122,159.070544 C54.8956795,157.293653 54.8956795,154.607961 53.3193122,152.831069 C52.5571211,152.101031 51.5340847,151.712569 50.4830214,151.754087 L50.4830214,151.754087 Z" id="Shape" fill="#C79636"></path>
                        <path d="M73.408864,151.921314 L73.408864,150.294114 L75.475,150.294114 L75.475,161.415262 C75.475,162.012293 75.475,162.480551 75.475,162.843452 C75.4214602,163.336546 75.3142998,163.82302 75.1552409,164.295055 C74.9923323,164.867474 74.7214631,165.406936 74.355843,165.887135 C73.8410811,166.540448 73.1652841,167.063104 72.3880945,167.408976 C71.5075811,167.815559 70.5378343,168.016227 69.559456,167.9943 C67.9759936,168.062996 66.4326155,167.508382 65.2919014,166.460752 C64.2636368,165.491256 63.6989281,164.162251 63.730001,162.78492 L65.7715401,162.78492 C65.7489961,163.647446 66.0747079,164.485377 66.6816238,165.126214 C67.4273324,165.880825 68.485021,166.283537 69.5717544,166.226622 C70.8587467,166.302126 72.0808989,165.681987 72.7324505,164.622836 C73.2348055,163.732969 73.4689009,162.728218 73.408864,161.719631 L73.408864,160.115844 C72.4598989,161.360899 70.9290496,162.082918 69.3134874,162.047412 C67.7827877,162.092576 66.3005856,161.533317 65.2181108,160.502158 C64.0179179,159.292895 63.3911397,157.668086 63.4840324,156.006873 C63.3999857,154.367899 64.0269428,152.76802 65.2181108,151.581826 C65.7412357,151.07969 66.3641704,150.681736 67.0505766,150.411179 C67.7705292,150.138494 68.5386362,149.999419 69.3134874,150.001453 C70.9268067,149.963247 72.4572103,150.680682 73.408864,151.921314 L73.408864,151.921314 Z M69.5348591,151.780836 C68.5196395,151.771809 67.5453754,152.161389 66.8415033,152.857832 C66.0021058,153.697183 65.558049,154.825747 65.6116605,155.98346 C65.5347325,157.232887 66.0278042,158.453169 66.9644876,159.331511 C67.659218,159.944751 68.5751703,160.280084 69.5225607,160.268028 C70.4964052,160.299589 71.4419168,159.953109 72.1421259,159.308098 C72.5812831,158.899061 72.921266,158.403645 73.1382986,157.856495 C73.3868103,157.268752 73.5121476,156.640415 73.5072515,156.006873 C73.5141564,155.379132 73.3973532,154.755724 73.1628955,154.168956 C72.6178805,152.693638 71.113684,151.739107 69.473367,151.827662 L69.5348591,151.780836 Z" id="Shape" fill="#C79636"></path>
                        <polygon id="Path" fill="#C79636" points="84.475 151 86.475 151 86.475 162 84.475 162"></polygon>
                        <polygon id="Path" fill="#C79636" points="84.475 147 86.475 147 86.475 149 84.475 149"></polygon>
                        <polygon id="Path" fill="#C79636" points="125.475 151 127.475 151 127.475 162 125.475 162"></polygon>
                        <polygon id="Path" fill="#C79636" points="125.475 147 127.475 147 127.475 149 125.475 149"></polygon>
                        <path d="M102.743717,152.032878 L101.120606,152.887669 C100.984584,152.560578 100.765766,152.274149 100.485475,152.056297 C100.215661,151.840413 99.8789103,151.724522 99.5327791,151.728433 C99.1755044,151.722173 98.8268454,151.837877 98.5447981,152.056297 C98.2613674,152.301768 98.1127697,152.667261 98.144901,153.039892 C98.1179418,153.369712 98.2593746,153.690923 98.5212748,153.894682 C98.9830797,154.209314 99.4804958,154.468708 100.003246,154.667506 C101.078861,155.019218 102.054655,155.621364 102.849572,156.423924 C103.270921,156.943104 103.492008,157.595114 103.472941,158.262309 C103.508672,159.304145 103.077775,160.307966 102.296774,161.002321 C101.515903,161.677161 100.507409,162.03275 99.4739707,161.997625 L98.9564569,161.997625 C98.6818671,161.954162 98.4106816,161.891558 98.144901,161.810274 C97.7948404,161.702657 97.4591514,161.553251 97.1451584,161.365315 C96.7897775,161.124518 96.475979,160.827931 96.2159858,160.487105 C95.8843292,160.072398 95.6330593,159.599884 95.475,159.09368 L97.1804434,158.391113 C97.2448885,158.583961 97.3317287,158.76866 97.4392003,158.941457 C97.5623546,159.155463 97.7082529,159.355673 97.8743824,159.538639 C98.2800634,160.008885 98.8749374,160.27496 99.4974941,160.264626 C100.021584,160.295217 100.531549,160.088695 100.885372,159.702572 C101.198695,159.355527 101.370656,158.904569 101.367601,158.437951 C101.374831,158.209792 101.334794,157.982595 101.249984,157.770512 C101.154459,157.569362 101.008666,157.395993 100.826564,157.267005 C100.654572,157.134102 100.473821,157.012832 100.285527,156.904012 L99.5210174,156.552728 C98.9105025,156.290399 98.3138045,155.997283 97.7332423,155.674519 C97.3540115,155.472019 97.0151876,155.202163 96.7334996,154.878276 C96.3697999,154.397456 96.1867005,153.805025 96.2159858,153.203824 C96.1670153,152.325512 96.5065125,151.469842 97.1451584,150.861933 C97.7926637,150.291411 98.6330764,149.986023 99.4974941,150.007143 C100.905228,149.914456 102.213933,150.731125 102.743717,152.032878 Z" id="Path" fill="#C79636"></path>
                        <polygon id="Path" fill="#C79636" points="115.453632 151.86747 113.88312 151.86747 113.88312 162 112.077564 162 112.077564 151.86747 110.475 151.86747 110.475 150 115.475 150"></polygon>
                        <polygon id="Path" fill="#C79636" points="33.8552817 159.963855 33.8552817 150 31.475 150 31.475 162 31.475 162 31.475 162 36.475 162 36.475 159.963855"></polygon>
                        <path d="M145.40273,151.076465 L145.40273,153.417699 C144.952032,152.844033 144.353799,152.395869 143.668241,152.118314 C143.059631,151.860445 142.404839,151.72124 141.741032,151.708598 C140.635838,151.699475 139.572961,152.121097 138.789993,152.879215 C137.170845,154.652437 137.170845,157.321968 138.789993,159.09519 C139.555844,159.849507 140.602481,160.271578 141.692852,160.265806 C142.384473,160.258728 143.066418,160.107013 143.692331,159.820972 C144.385536,159.512026 144.995701,159.051251 145.475,158.474763 L145.475,160.815996 C142.956607,162.570781 139.514125,162.35525 137.248226,160.300925 C136.071553,159.183265 135.429534,157.638231 135.477602,156.03988 C135.428576,154.418418 136.074146,152.8499 137.260271,151.708598 C139.490721,149.683399 142.867382,149.43059 145.390685,151.099878 L145.40273,151.076465 Z" id="Path" fill="#C79636"></path>
                        <path d="M159.748183,152.053655 L158.101648,152.908672 C157.968629,152.579255 157.74752,152.291803 157.461987,152.07708 C157.192262,151.857562 156.851746,151.741174 156.502495,151.749128 C156.14596,151.740713 155.797834,151.856834 155.519313,152.07708 C155.236439,152.315224 155.082947,152.670795 155.104718,153.03751 C155.083837,153.36635 155.225051,153.684879 155.483776,153.892528 C155.951955,154.202147 156.452322,154.461301 156.976318,154.665557 C158.061183,155.021351 159.046903,155.622988 159.854793,156.422442 C160.275832,156.942885 160.494359,157.595259 160.470763,158.261316 C160.521777,159.294114 160.110122,160.2967 159.345433,161.002056 C158.558993,161.677075 157.543305,162.032759 156.502495,161.997625 L155.993136,161.997625 C155.712395,161.955715 155.435222,161.893073 155.163945,161.810223 C154.814255,161.704889 154.479806,161.55529 154.168917,161.365146 C153.808501,161.127366 153.491983,160.830248 153.233117,160.486703 C152.890998,160.075372 152.633466,159.601902 152.475,159.092908 L154.192608,158.390154 C154.262425,158.58108 154.349651,158.765335 154.453211,158.940644 C154.581318,159.152074 154.727978,159.351958 154.891497,159.537985 C155.092675,159.756417 155.333826,159.935249 155.602232,160.065051 C155.891891,160.197119 156.207216,160.265072 156.526187,160.264165 C157.054878,160.300004 157.570699,160.092535 157.923964,159.701961 C158.244654,159.35794 158.41864,158.904783 158.409633,158.437004 C158.416914,158.208785 158.376592,157.981527 158.291177,157.769388 C158.195785,157.571088 158.053594,157.398358 157.876582,157.265747 C157.699486,157.132454 157.513482,157.011147 157.31984,156.902658 L156.561723,156.551281 C155.942059,156.290913 155.337055,155.997672 154.74935,155.672838 C154.37075,155.470429 154.033375,155.200383 153.754322,154.876384 C153.383806,154.397007 153.195163,153.804273 153.221271,153.201486 C153.171951,152.322941 153.51387,151.467044 154.157072,150.858973 C154.811009,150.291317 155.656182,149.986293 156.526187,150.003956 C157.932989,149.935566 159.228027,150.759415 159.748183,152.053655 Z" id="Path" fill="#C79636"></path>
                    </g>
                </g>
            </g>
        </g>
    </g>
</svg>