<?xml version="1.0" encoding="UTF-8"?>
<svg width="241px" height="128px" viewBox="0 0 241 128" version="1.1" xmlns="http://www.w3.org/2000/svg" xmlns:xlink="http://www.w3.org/1999/xlink">
    <!-- Generator: Sketch 63.1 (92452) - https://sketch.com -->
    <title>Group 39</title>
    <desc>Created with Sketch.</desc>
    <defs>
        <linearGradient x1="19.6983812%" y1="-4.52604611%" x2="50%" y2="50.0426985%" id="linearGradient-1">
            <stop stop-color="#1A0000" stop-opacity="0" offset="57%"></stop>
            <stop stop-color="#000000" stop-opacity="0.3" offset="80%"></stop>
            <stop stop-color="#000000" stop-opacity="0.6" offset="100%"></stop>
        </linearGradient>
        <linearGradient x1="108.125677%" y1="49.9810413%" x2="-1.08342362%" y2="49.9810413%" id="linearGradient-2">
            <stop stop-color="#1A0000" stop-opacity="0" offset="57%"></stop>
            <stop stop-color="#000000" stop-opacity="0.3" offset="80%"></stop>
            <stop stop-color="#000000" stop-opacity="0.6" offset="100%"></stop>
        </linearGradient>
    </defs>
    <g id="Кейс" stroke="none" stroke-width="1" fill="none" fill-rule="evenodd">
        <g id="Pride-XL" transform="translate(-958.000000, -2323.000000)" fill-rule="nonzero">
            <g id="Group-9" transform="translate(166.000000, 2323.000000)">
                <g id="Group-39" transform="translate(792.000000, 0.000000)">
                    <polygon id="1" fill="#FBEED9" points="24.1568627 128 24.1568627 41.5617021 5.01960784 46.2851064 0 26.4468085 31.5294118 17 48 17 48 128"></polygon>
                    <g id="Ресурс-3" transform="translate(48.000000, 0.000000)">
                        <polygon id="Path" fill="#D4DD4E" points="2.40583068 65.0086957 5.3411919 65.0086957 5.3411919 79.6173913 2.40583068 79.6173913"></polygon>
                        <path d="M15.5874626,80.3288624 C12.4203343,80.3288624 9.74423372,78.5039482 9.74423372,74.8421921 C9.74423372,71.180436 12.4203343,69.3913043 15.5874626,69.3913043 C18.7545908,69.3913043 21.4797942,71.2639288 21.4797942,74.818337 C21.5525878,76.3385823 20.947219,77.8155033 19.8187123,78.870886 C18.6902056,79.9262688 17.1481584,80.4576173 15.5874626,80.3288624 Z M15.5874626,71.9795815 C14.0241198,72.0773784 12.8076117,73.3379331 12.8076117,74.8600834 C12.8076117,76.3822337 14.0241198,77.6427884 15.5874626,77.7405853 C16.3821908,77.7664895 17.1507449,77.462715 17.7011852,76.9051268 C18.2516256,76.3475386 18.5319864,75.5887773 18.4722499,74.818337 C18.5304433,74.0558459 18.246585,73.3061325 17.6937016,72.7620714 C17.1408183,72.2180103 16.3728846,71.9327149 15.5874626,71.9795815 L15.5874626,71.9795815 Z" id="Shape" fill="#D4DD4E"></path>
                        <path d="M36.1624847,78.978421 C36.1624847,82.2631409 34.147697,83.9950841 30.46422,83.9950841 C28.9749732,84.038427 27.4917005,83.7948021 26.1009067,83.2784179 L26.1009067,80.4475866 C27.4122478,81.048228 28.8402917,81.3738815 30.2911708,81.4031415 C32.5284504,81.4031415 33.4925819,80.6386976 33.4925819,78.703699 L33.4925819,78.3692547 C32.6724892,79.1999885 31.5139178,79.637316 30.3282527,79.5636983 C28.9237489,79.6784975 27.5385901,79.1873158 26.5442967,78.2218954 C25.5500034,77.2564751 25.0483389,75.9156244 25.1738572,74.5589797 C25.0576488,73.1843921 25.5618039,71.8283335 26.5566925,70.8394779 C27.5515812,69.8506223 28.9401387,69.3254457 30.3653347,69.3989834 C31.4680828,69.3317889 32.550563,69.7078408 33.3566147,70.4381493 L33.3566147,69.5900943 L36.1624847,69.5900943 L36.1624847,78.978421 Z M30.8226792,77.0075891 C32.1902021,76.916453 33.2513361,75.817898 33.2513361,74.4932853 C33.2513361,73.1686726 32.1902021,72.0701176 30.8226792,71.9789815 C29.850298,71.914179 28.9216687,72.3787274 28.4150793,73.1833877 C27.9084898,73.988048 27.9084898,74.9985226 28.4150793,75.8031829 C28.9216687,76.6078432 29.850298,77.0723916 30.8226792,77.0075891 Z" id="Shape" fill="#D4DD4E"></path>
                        <path d="M40.5663149,66.5749469 C40.5530678,66.1477 40.707268,65.7342738 40.9909067,65.436574 C41.2745454,65.1388742 41.661237,64.9845943 42.0556658,65.0117628 C42.8538398,65.0117628 43.5008877,65.7116241 43.5008877,66.5749469 C43.5008877,67.4382696 42.8538398,68.138131 42.0556658,68.138131 C41.6621353,68.1615768 41.2774525,68.0060696 40.9946037,67.7091989 C40.711755,67.4123281 40.556481,67.0011107 40.5663149,66.5749469 Z M40.7538628,69.2001416 L43.4236621,69.2001416 L43.4236621,79.6173913 L40.7538628,79.6173913 L40.7538628,69.2001416 Z" id="Shape" fill="#D4DD4E"></path>
                        <path d="M48.7327141,76.720644 C50.0224657,77.5469077 51.5131437,77.998401 53.0408117,78.0254709 C54.2276154,78.0254709 54.749809,77.7740823 54.749809,77.1755378 C54.749809,76.5769933 54.1326711,76.3615173 52.8627911,76.1939248 C50.2280868,75.8347981 48.6377698,74.9968359 48.6377698,72.9857264 C48.6377698,70.5915485 50.6909403,69.3944596 53.2781724,69.3944596 C54.499813,69.3610169 55.7142323,69.5937562 56.8385836,70.0768003 L56.8385836,72.7702504 C55.7625854,72.116316 54.5342287,71.7611355 53.2781724,71.7407539 C52.2575212,71.7407539 51.3674184,71.9083464 51.3674184,72.5547744 C51.3674184,73.2012024 52.0201605,73.2730278 53.4087208,73.5124456 C56.019689,73.9553685 57.4438535,74.8172725 57.4438535,76.9121782 C57.4438535,79.0070839 56.0315571,80.3478261 52.9458674,80.3478261 C51.4996264,80.3487673 50.064829,80.0893196 48.7089781,79.5816866 L48.7327141,76.720644 Z" id="Path" fill="#D4DD4E"></path>
                        <path d="M65.0962191,75.3859539 C65.0962191,76.5700693 65.561489,77.0555566 66.6962936,77.0555566 C67.044402,77.0514233 67.3894739,76.9874115 67.7176178,76.8660981 L67.7176178,79.2343289 C67.1912655,79.5124026 66.6046933,79.6429755 66.0154109,79.6132458 C63.5188408,79.6132458 62.3726881,78.2988777 62.3726881,75.468842 L62.3726881,71.4546909 L61.113055,71.4546909 L61.113055,69.0864602 L62.3726881,69.0864602 L62.3726881,66.4695652 L65.0962191,66.4695652 L65.0962191,69.0627779 L67.7176178,69.0627779 L67.7176178,71.4310086 L65.0962191,71.4310086 L65.0962191,75.3859539 Z" id="Path" fill="#D4DD4E"></path>
                        <path d="M71.3880841,66.5757277 C71.3710638,66.1474114 71.5264675,65.7317249 71.8152235,65.4331804 C72.1039794,65.1346359 72.4986201,64.981632 72.8999247,65.0126372 C73.7038615,65.0388043 74.3381244,65.7497834 74.3218751,66.6065775 C74.3056259,67.4633715 73.6449241,68.1464704 72.8406514,68.1380133 C72.0363787,68.1295561 71.3884591,67.4326966 71.3880841,66.5757277 L71.3880841,66.5757277 Z M71.578464,69.2007652 L74.2773794,69.2007652 L74.2773794,79.6173913 L71.578464,79.6173913 L71.578464,69.2007652 Z" id="Shape" fill="#D4DD4E"></path>
                        <path d="M84.3121623,69.4087765 C85.4320719,69.3735549 86.5380418,69.6672718 87.4959308,70.2543027 L87.4959308,72.933787 C86.6413128,72.3073248 85.603256,71.9886221 84.547997,72.0287168 C83.7675627,71.9403657 82.9880822,72.202599 82.4160106,72.7459608 C81.8439391,73.2893226 81.5369963,74.05899 81.5764798,74.8511069 C81.5116782,75.6575588 81.8127996,76.4501301 82.3951177,77.0058152 C82.9774358,77.5615004 83.778009,77.8202367 84.5715805,77.7092235 C85.6295479,77.742043 86.6690647,77.4241636 87.531306,76.8041532 L87.531306,79.4360023 C86.5560542,80.0781872 85.4040409,80.3909432 84.2414119,80.3291637 C82.7731253,80.4558934 81.3226641,79.932744 80.266041,78.8953349 C79.2094179,77.8579258 78.6506797,76.4084117 78.7346717,74.9225598 C78.6441827,73.4128762 79.2069882,71.9378562 80.2771876,70.8798808 C81.347387,69.8219055 82.8195961,69.2851554 84.3121623,69.4087765 Z" id="Path" fill="#D4DD4E"></path>
                        <path d="M92.0291643,76.720498 C93.3205997,77.5489051 94.8136602,78.0005039 96.3433157,78.0253784 C97.5285221,78.0253784 98.0381608,77.7739795 98.0381608,77.1754105 C98.0381608,76.5768415 97.4337056,76.3613567 96.1536826,76.1937573 C93.5343765,75.8346159 91.9343478,74.9966194 91.9343478,72.9854276 C91.9343478,70.5911517 93.9847549,69.3940137 96.5803569,69.3940137 C97.8001439,69.3631802 99.0123851,69.5958247 100.135976,70.0763823 L100.135976,72.7699428 C99.0596406,72.1201329 97.8340596,71.7652628 96.5803569,71.7404041 C95.5729315,71.7404041 94.6840267,71.9080034 94.6840267,72.5544579 C94.6840267,73.2009124 95.3240381,73.2727407 96.7107296,73.5121683 C99.3181837,73.9551093 100.740431,74.8170487 100.740431,76.9120401 C100.740431,79.0070316 99.3418879,80.3478261 96.2484991,80.3478261 C94.8042944,80.3478261 93.3716054,80.0883223 92.0173122,79.5816578 L92.0291643,76.720498 Z" id="Path" fill="#D4DD4E"></path>
                        <path d="M67.7488992,14.6086957 C78.0509327,14.6086957 84.3405952,19.1478261 84.3405952,28.7934783 C84.3405952,34.2900815 81.496993,39.1956522 75.8338869,41.1342391 L86.0636254,56.973913 L74.7856098,56.973913 L65.9053775,42.6709239 L57.7119473,42.6709239 L57.7119473,56.9384511 L47.9039295,56.9384511 L47.9039295,14.6086957 L67.7488992,14.6086957 Z M66.543983,34.6210598 C71.7251227,34.6210598 74.7494623,33.048913 74.7494623,28.9353261 C74.7494623,24.5262228 71.7853685,22.9540761 66.6042289,22.9540761 L57.7119473,22.9540761 L57.7119473,34.6210598 L66.543983,34.6210598 Z" id="Shape" fill="#494949"></path>
                        <polygon id="Path" fill="#494949" points="93.4020284 14.6086957 102.941952 14.6086957 102.941952 56.973913 93.4020284 56.973913"></polygon>
                        <path d="M114.683397,14.6086957 L130.055467,14.6086957 C145.247957,14.6086957 154.310774,21.3284509 154.310774,35.8445418 C154.310774,49.4023579 145.247957,56.973913 130.055467,56.973913 L114.683397,56.973913 L114.683397,14.6086957 Z M130.055467,48.6215412 C140.33943,48.6215412 144.266251,43.9603026 144.266251,35.9155252 C144.266251,27.8707478 140.33943,22.9610675 130.055467,22.9610675 L124.416647,22.9610675 L124.416647,48.6215412 L130.055467,48.6215412 Z" id="Shape" fill="#494949"></path>
                        <polygon id="Path" fill="#494949" points="162.383017 14.6086957 192.470469 14.6086957 192.470469 22.8947119 171.886794 22.8947119 171.886794 31.737075 186.213032 31.737075 186.213032 39.7271621 171.886794 39.7271621 171.886794 48.6878968 192.470469 48.6878968 192.470469 56.973913 162.383017 56.973913"></polygon>
                        <path d="M21.9466634,13.1478261 C10.1258008,13.1478261 3.13967099,19.918478 3.13967099,31.3446915 L3.13967099,56.973913 L12.7618532,56.973913 L12.7618532,30.6829873 C12.7618532,24.8694433 16.5681709,21.6672676 21.7102462,21.6672676 C26.544979,21.6672676 30.2330881,25.1175824 30.2330881,30.5530097 C30.2330881,35.9884371 27.0296344,39.3205903 21.6866045,39.3205903 C18.4507345,39.4498089 15.4082206,37.7814127 13.7784474,34.9840646 L13.7784474,45.512251 C16.5918844,47.0335612 19.7535805,47.7951607 22.9514368,47.7218704 C33.1173786,47.7218704 39.8316862,40.6321826 39.8316862,30.6829873 C39.8552703,19.8239488 32.5972607,13.1478261 21.9466634,13.1478261 Z" id="Path" fill="#494949"></path>
                        <path d="M2.99416817,24.8347826 C4.38632529,20.0469431 8.05136476,16.2215838 12.8250978,14.5738187 L12.8250978,9.97243625 L15.6149562,9.97243625 L7.90963296,2.92173913 L0.20430977,9.97243625 L2.99416817,9.97243625 L2.99416817,24.8347826 Z" id="Path" fill="#494949"></path>
                        <path d="M3.13967099,10.9565217 L3.13967099,24.8347826 C4.49061882,20.0623438 8.04716936,16.2492892 12.6795949,14.6068243 L12.6795949,10.9565217 L3.13967099,10.9565217 Z" id="Path" fill="url(#linearGradient-1)" opacity="0.3"></path>
                        <g id="Group" opacity="0.3" transform="translate(13.413435, 35.791304)" fill="url(#linearGradient-2)">
                            <path d="M11.6883531,3.92162319 C10.6762024,4.19689109 9.62825045,4.33162861 8.57635973,4.32173913 C5.22248502,4.45043249 2.0690176,2.78881795 0.379810217,0.00284057971 L0.379810217,10.4882319 C3.29584691,12.0033582 6.57284278,12.761862 9.88731757,12.6888696 C10.4876628,12.6888696 11.1125118,12.6888696 11.6638492,12.6182609 L11.6883531,3.92162319 Z" id="Path"></path>
                        </g>
                        <rect id="Rectangle" fill="#D4DD4E" x="6.80887251" y="55.5130435" width="1" height="2.19130435"></rect>
                        <path d="M8.16162168,53.3217391 L7.54271281,53.3217391 L7.54271281,49.5731425 L8.16162168,49.5731425 L8.16162168,53.3217391 Z M8.16162168,47.0780575 L7.54271281,47.0780575 L7.54271281,43.3294609 L8.16162168,43.3294609 L8.16162168,47.0780575 Z M23.7861512,44.8575513 L23.7277635,44.2248264 C24.9332341,44.1176835 26.115092,43.8196508 27.2310213,43.3413991 L27.4645718,43.9383094 C26.2900691,44.4303414 25.050237,44.7401769 23.7861512,44.8575513 Z M21.2871607,44.8575513 C20.0461228,44.7156112 18.8288942,44.406518 17.6671277,43.9383094 L17.8890007,43.3413991 C19.0109883,43.8006668 20.1900598,44.0979969 21.3922584,44.2248264 L21.2871607,44.8575513 Z M29.6365916,42.7564271 L29.2979433,42.2192078 C29.929226,41.7857786 30.5265808,41.3028148 31.0846048,40.7746849 C31.3997446,40.4923044 31.6925921,40.1849361 31.9604192,39.8554431 L32.4391978,40.2732803 C32.145767,40.6170229 31.8338859,40.9438373 31.5049957,41.2522131 C30.9170181,41.7936001 30.2926908,42.2922441 29.6365916,42.7444888 L29.6365916,42.7564271 Z M8.16162168,40.8343759 L7.54271281,40.8343759 L7.54271281,37.0857793 L8.16162168,37.0857793 L8.16162168,40.8343759 Z M33.8521784,38.1244032 L33.3033347,37.8378863 C33.8435779,36.7471906 34.2364189,35.5865361 34.4710873,34.3877448 L35.0783186,34.5071269 C34.8383226,35.7566704 34.4295904,36.9660432 33.8638559,38.1005268 L33.8521784,38.1244032 Z M8.16162168,34.5429415 L7.54271281,34.5429415 L7.54271281,31.5942047 C7.54271281,31.5942047 7.54271281,31.3076878 7.54271281,30.8062831 L8.16162168,30.8659741 C8.16162168,31.319626 8.16162168,31.5942047 8.16162168,31.5942047 L8.16162168,34.5429415 Z M35.3702567,31.9404127 L34.7396703,31.9404127 C34.7396703,31.6658339 34.7396703,31.3912552 34.7396703,31.1166765 C34.7589748,30.1709932 34.7082272,29.2251727 34.5878625,28.2873217 L35.1950939,28.1798779 C35.3491588,29.1549219 35.4272543,30.1409323 35.4286444,31.1286147 C35.3819343,31.4151316 35.3819343,31.7016485 35.3702567,31.9881655 L35.3702567,31.9404127 Z M8.58201261,28.3589509 L7.97478127,28.2156925 C8.25041376,26.9753011 8.66987905,25.7729765 9.22427652,24.6342307 L9.78479776,24.9088095 C9.24873898,26.0340049 8.84499545,27.2201786 8.58201261,28.4425184 L8.58201261,28.3589509 Z M33.9572761,25.923557 C33.6874081,25.0722874 33.2937479,24.2673914 32.7895235,23.5359158 C32.6010894,23.258507 32.3983942,22.991512 32.1822922,22.736056 L32.6610708,22.3182188 C32.8946213,22.6047358 33.1048167,22.8793145 33.3033347,23.1658314 C33.8024131,23.9389906 34.1953305,24.7785196 34.4710873,25.6609164 L33.9572761,25.923557 Z M11.0459705,22.9270673 L10.5555145,22.5808594 C11.3230666,21.5640675 12.2504133,20.6846016 13.299733,19.9783305 L13.6383813,20.5155498 C12.6483,21.1653739 11.7719795,21.9805466 11.0459705,22.9270673 Z M30.5240835,21.0766454 C29.5994844,20.3052694 28.5685258,19.6777129 27.4645718,19.2142853 L27.6981223,18.6173751 C28.8521474,19.1146874 29.932934,19.7736176 30.9094419,20.5752408 L30.5240835,21.0766454 Z M15.7520134,19.3814202 L15.541818,18.7845099 L16.0322741,18.6054369 C17.0429398,18.2606646 18.0773142,17.9933055 19.1268184,17.8055771 L19.2319161,18.4263638 C18.2159791,18.6174657 17.2134397,18.8766865 16.230792,19.2023471 L15.7520134,19.3814202 Z M25.2458419,18.4860548 C24.0721862,18.2297598 22.8716469,18.1254761 21.672519,18.1756614 L21.672519,17.5429365 C22.9186484,17.4913326 24.166191,17.5996206 25.3859722,17.8652681 L25.2458419,18.4860548 Z" id="Shape" fill="#D4DD4E"></path>
                        <path d="M15.2282025,43.0956522 C14.543946,42.826272 14.0828166,42.6190564 13.4134352,42.2978723 L13.4134352,41.6347826 C14.0679415,41.9559667 14.9009494,42.360037 15.6149562,42.6190564 L15.2282025,43.0956522 Z" id="Path" fill="#D4DD4E"></path>
                        <polygon id="Path" fill="#D4DD4E" points="8.10776985 16.2611547 7.71149608 16.8 7.71149608 14.6086957 8.10776985 14.6086957"></polygon>
                        <rect id="Rectangle" fill="#D4DD4E" x="7.54271281" y="9.49565217" width="1" height="2.19130435"></rect>
                        <polygon id="Path" fill="#D4DD4E" points="7.90963296 0 0.20430977 7.14743143 0.20430977 8.03478261 7.90963296 0.875195685 15.6149562 8.03478261 15.6149562 7.14743143"></polygon>
                    </g>
                </g>
            </g>
        </g>
    </g>
</svg>