<?xml version="1.0" encoding="UTF-8"?>
<svg width="133px" height="57px" viewBox="0 0 133 57" version="1.1" xmlns="http://www.w3.org/2000/svg" xmlns:xlink="http://www.w3.org/1999/xlink">
    <title>ABCDEFGHIJKLMNOPQRSTUVWXYZ2</title>
    <g id="Кейс" stroke="none" stroke-width="1" fill="none" fill-rule="evenodd">
        <g id="Pride-XL" transform="translate(-411.000000, -3715.000000)" fill="#040D15" fill-rule="nonzero">
            <g id="Group-13" transform="translate(165.000000, 3457.000000)">
                <g id="Group-42" transform="translate(0.000000, 176.000000)">
                    <g id="Group-11-Copy" transform="translate(60.000000, 40.000000)">
                        <path d="M188.4375,54 L189.71875,50.9921875 L194.265625,50.9921875 L195.515625,54 L196.820312,54 L192.039062,42.8125 L187.125,54 L188.4375,54 Z M193.796875,49.875 L190.1875,49.875 L192.007812,45.6015625 L193.796875,49.875 Z M206.703125,54 C206.9375,54 207.139323,53.9934896 207.308594,53.9804688 C207.477865,53.9674479 207.683594,53.9414062 207.925781,53.9023438 C208.167969,53.8632812 208.401042,53.7929688 208.625,53.6914062 C208.848958,53.5898438 209.0625,53.4583333 209.265625,53.296875 C209.578125,53.0572917 209.83724,52.734375 210.042969,52.328125 C210.248698,51.921875 210.351562,51.4765625 210.351562,50.9921875 C210.351562,50.7213542 210.313802,50.453125 210.238281,50.1875 C210.16276,49.921875 210.048177,49.6614583 209.894531,49.40625 C209.740885,49.1510417 209.528646,48.9257812 209.257812,48.7304688 C208.986979,48.5351562 208.674479,48.3932292 208.320312,48.3046875 C209.023438,47.8307292 209.375,47.1328125 209.375,46.2109375 C209.375,45.6432292 209.276042,45.1796875 209.078125,44.8203125 C208.880208,44.4609375 208.658854,44.1875 208.414062,44 C207.856771,43.5520833 207.041667,43.328125 205.96875,43.328125 L205.96875,43.328125 L204.046875,43.328125 L204.046875,54 L206.703125,54 Z M206.125,48.015625 L205.234375,48.015625 L205.234375,44.4453125 L206.15625,44.4453125 C206.229167,44.4453125 206.303385,44.4479167 206.378906,44.453125 C206.454427,44.4583333 206.565104,44.4726562 206.710938,44.4960938 C206.856771,44.5195312 206.990885,44.5533854 207.113281,44.5976562 C207.235677,44.6419271 207.36849,44.7083333 207.511719,44.796875 C207.654948,44.8854167 207.776042,44.9908854 207.875,45.1132812 C207.973958,45.2356771 208.057292,45.3945312 208.125,45.5898438 C208.192708,45.7851562 208.226562,46.0026042 208.226562,46.2421875 C208.226562,46.5546875 208.171875,46.8268229 208.0625,47.0585938 C207.953125,47.2903646 207.822917,47.4648438 207.671875,47.5820312 C207.520833,47.6992188 207.339844,47.7929688 207.128906,47.8632812 C206.917969,47.9335938 206.738281,47.9765625 206.589844,47.9921875 C206.441406,48.0078125 206.286458,48.015625 206.125,48.015625 L206.125,48.015625 Z M206.59375,52.8828125 L205.234375,52.8828125 L205.234375,49.0703125 L206.445312,49.0703125 C207.278646,49.0703125 207.882812,49.1770833 208.257812,49.390625 C208.507812,49.5260417 208.721354,49.7252604 208.898438,49.9882812 C209.075521,50.2513021 209.164062,50.5755208 209.164062,50.9609375 C209.164062,51.2734375 209.10026,51.5572917 208.972656,51.8125 C208.845052,52.0677083 208.674479,52.2734375 208.460938,52.4296875 C208.226562,52.6119792 207.959635,52.7330729 207.660156,52.7929688 C207.360677,52.8528646 207.005208,52.8828125 206.59375,52.8828125 L206.59375,52.8828125 Z M223.195312,54.1953125 C224.367188,54.1953125 225.440104,53.8463542 226.414062,53.1484375 L226.414062,53.1484375 L226.414062,51.6796875 C226.039062,52.0546875 225.627604,52.3541667 225.179688,52.578125 C224.539062,52.90625 223.877604,53.0703125 223.195312,53.0703125 C222.799479,53.0703125 222.401042,53.0130208 222,52.8984375 C221.598958,52.7838542 221.210938,52.6067708 220.835938,52.3671875 C220.460938,52.1276042 220.130208,51.8398438 219.84375,51.5039062 C219.557292,51.1679688 219.326823,50.7591146 219.152344,50.2773438 C218.977865,49.7955729 218.890625,49.2760417 218.890625,48.71875 C218.890625,47.90625 219.075521,47.1601562 219.445312,46.4804688 C219.815104,45.8007812 220.329427,45.2630208 220.988281,44.8671875 C221.647135,44.4713542 222.377604,44.2734375 223.179688,44.2734375 C223.799479,44.2734375 224.411458,44.4114583 225.015625,44.6875 C225.526042,44.9270833 225.992188,45.2578125 226.414062,45.6796875 L226.414062,45.6796875 L226.414062,44.2109375 C225.486979,43.5026042 224.434896,43.1484375 223.257812,43.1484375 C222.471354,43.1484375 221.731771,43.2890625 221.039062,43.5703125 C220.346354,43.8515625 219.753906,44.2369792 219.261719,44.7265625 C218.769531,45.2161458 218.38151,45.8046875 218.097656,46.4921875 C217.813802,47.1796875 217.671875,47.9166667 217.671875,48.703125 C217.671875,49.71875 217.910156,50.6458333 218.386719,51.484375 C218.863281,52.3229167 219.523438,52.984375 220.367188,53.46875 C221.210938,53.953125 222.153646,54.1953125 223.195312,54.1953125 Z M236.476562,54 C237.398438,54 238.151042,53.9023438 238.734375,53.7070312 C239.317708,53.5117188 239.864583,53.1979167 240.375,52.765625 C241.625,51.6927083 242.25,50.328125 242.25,48.671875 C242.25,47.7708333 242.080729,46.9752604 241.742188,46.2851562 C241.403646,45.5950521 240.963542,45.0260417 240.421875,44.578125 C240.104167,44.3072917 239.766927,44.0833333 239.410156,43.90625 C239.053385,43.7291667 238.695312,43.6015625 238.335938,43.5234375 C237.976562,43.4453125 237.660156,43.3932292 237.386719,43.3671875 C237.113281,43.3411458 236.815104,43.328125 236.492188,43.328125 L236.492188,43.328125 L234.3125,43.328125 L234.3125,54 L236.476562,54 Z M236.539062,52.8828125 L235.5,52.8828125 L235.5,44.4453125 L236.539062,44.4453125 C237.893229,44.4453125 238.980469,44.8294271 239.800781,45.5976562 C240.621094,46.3658854 241.03125,47.390625 241.03125,48.671875 C241.03125,50.03125 240.552083,51.1145833 239.59375,51.921875 C238.828125,52.5625 237.809896,52.8828125 236.539062,52.8828125 L236.539062,52.8828125 Z M255.6875,54 L255.6875,52.8828125 L251.335938,52.8828125 L251.335938,48.734375 L255.554688,48.734375 L255.554688,47.6171875 L251.335938,47.6171875 L251.335938,44.4453125 L255.6875,44.4453125 L255.6875,43.328125 L250.148438,43.328125 L250.148438,54 L255.6875,54 Z M264.773438,54 L264.773438,48.71875 L268.320312,48.71875 L268.320312,47.6015625 L264.773438,47.6015625 L264.773438,44.4453125 L268.453125,44.4453125 L268.453125,43.328125 L263.585938,43.328125 L263.585938,54 L264.773438,54 Z M281.210938,54.1953125 C281.674479,54.1953125 282.115885,54.140625 282.535156,54.03125 C282.954427,53.921875 283.299479,53.7955729 283.570312,53.6523438 C283.841146,53.5091146 284.10026,53.3346354 284.347656,53.1289062 C284.595052,52.9231771 284.772135,52.7617188 284.878906,52.6445312 C284.985677,52.5273438 285.085938,52.4036458 285.179688,52.2734375 C285.507812,51.8255208 285.760417,51.3033854 285.9375,50.7070312 C286.114583,50.1106771 286.203125,49.5078125 286.203125,48.8984375 L286.203125,48.8984375 L286.203125,48.640625 L281.757812,48.640625 L281.757812,49.7578125 L284.921875,49.7578125 C284.895833,50.3255208 284.752604,50.8333333 284.492188,51.28125 C284.184896,51.8229167 283.739583,52.2565104 283.15625,52.5820312 C282.572917,52.9075521 281.929688,53.0703125 281.226562,53.0703125 C280.815104,53.0703125 280.40625,53.0130208 280,52.8984375 C279.59375,52.7838542 279.203125,52.6054688 278.828125,52.3632812 C278.453125,52.1210938 278.122396,51.8307292 277.835938,51.4921875 C277.549479,51.1536458 277.320312,50.7421875 277.148438,50.2578125 C276.976562,49.7734375 276.890625,49.25 276.890625,48.6875 C276.890625,47.8645833 277.072917,47.1184896 277.4375,46.4492188 C277.802083,45.7799479 278.31901,45.25 278.988281,44.859375 C279.657552,44.46875 280.414062,44.2734375 281.257812,44.2734375 C282.242188,44.2734375 283.106771,44.5729167 283.851562,45.171875 C284.216146,45.46875 284.552083,45.8359375 284.859375,46.2734375 L284.859375,46.2734375 L285.742188,45.46875 C285.393229,44.9947917 284.981771,44.5755208 284.507812,44.2109375 C283.585938,43.5026042 282.497396,43.1484375 281.242188,43.1484375 C280.195312,43.1484375 279.246094,43.3919271 278.394531,43.8789062 C277.542969,44.3658854 276.876302,45.03125 276.394531,45.875 C275.91276,46.71875 275.671875,47.6510417 275.671875,48.671875 C275.671875,49.6927083 275.911458,50.625 276.390625,51.46875 C276.869792,52.3125 277.532552,52.9778646 278.378906,53.4648438 C279.22526,53.9518229 280.169271,54.1953125 281.210938,54.1953125 Z M295.289062,54 L295.289062,48.78125 L300.757812,48.78125 L300.757812,54 L301.945312,54 L301.945312,43.328125 L300.757812,43.328125 L300.757812,47.6640625 L295.289062,47.6640625 L295.289062,43.328125 L294.101562,43.328125 L294.101562,54 L295.289062,54 Z M311.601562,54 L311.601562,43.328125 L310.414062,43.328125 L310.414062,54 L311.601562,54 Z M188.171875,76.1953125 C188.890625,76.1953125 189.455729,75.9713542 189.867188,75.5234375 C190.065104,75.3151042 190.216146,75.0533854 190.320312,74.7382812 C190.424479,74.4231771 190.484375,74.1510417 190.5,73.921875 C190.515625,73.6927083 190.523438,73.3880208 190.523438,73.0078125 L190.523438,73.0078125 L190.523438,65.328125 L189.335938,65.328125 L189.335469,73.2059375 C189.334219,73.4176042 189.330469,73.5859375 189.324219,73.7109375 C189.316406,73.8671875 189.28125,74.0507812 189.21875,74.2617188 C189.15625,74.4726562 189.0625,74.640625 188.9375,74.765625 C188.734375,74.96875 188.466146,75.0703125 188.132812,75.0703125 C187.690104,75.0703125 187.286458,74.8723958 186.921875,74.4765625 L186.921875,74.4765625 L186.265625,75.40625 C186.723958,75.9322917 187.359375,76.1953125 188.171875,76.1953125 Z M200.179688,76 L200.179688,71.40625 L200.484375,71.1015625 L204.851562,76 L206.484375,76 L201.328125,70.3046875 L206.320312,65.328125 L204.71875,65.328125 L200.179688,69.90625 L200.179688,65.328125 L198.992188,65.328125 L198.992188,76 L200.179688,76 Z M217.9375,76 L217.9375,74.8828125 L214.992188,74.8828125 L214.992188,65.328125 L213.804688,65.328125 L213.804688,76 L217.9375,76 Z M230.75,76.4453125 L234.375,68.578125 L235.390625,76 L236.601562,76 L234.9375,64.71875 L230.765625,73.7421875 L226.664062,64.734375 L224.890625,76 L226.109375,76 L227.164062,68.578125 L230.75,76.4453125 Z M254.296875,76.4765625 L254.296875,65.328125 L253.109375,65.328125 L253.109375,73.6015625 L244.789062,64.8828125 L244.789062,76 L245.976562,76 L245.976562,67.7578125 L254.296875,76.4765625 Z M267.742188,76.1953125 C268.502604,76.1953125 269.223958,76.0546875 269.90625,75.7734375 C270.59375,75.4921875 271.184896,75.109375 271.679688,74.625 C272.174479,74.140625 272.567708,73.5546875 272.859375,72.8671875 C273.151042,72.1796875 273.296875,71.4479167 273.296875,70.671875 C273.296875,69.890625 273.151042,69.15625 272.859375,68.46875 C272.567708,67.78125 272.173177,67.1953125 271.675781,66.7109375 C271.178385,66.2265625 270.588542,65.8450521 269.90625,65.5664062 C269.223958,65.2877604 268.502604,65.1484375 267.742188,65.1484375 C266.981771,65.1484375 266.260417,65.2877604 265.578125,65.5664062 C264.895833,65.8450521 264.30599,66.2265625 263.808594,66.7109375 C263.311198,67.1953125 262.916667,67.78125 262.625,68.46875 C262.333333,69.15625 262.1875,69.890625 262.1875,70.671875 C262.1875,71.4479167 262.333333,72.1796875 262.625,72.8671875 C262.916667,73.5546875 263.309896,74.140625 263.804688,74.625 C264.299479,75.109375 264.889323,75.4921875 265.574219,75.7734375 C266.259115,76.0546875 266.981771,76.1953125 267.742188,76.1953125 Z M267.742188,75.0703125 C266.955729,75.0703125 266.229167,74.875 265.5625,74.484375 C264.895833,74.09375 264.369792,73.5611979 263.984375,72.8867188 C263.598958,72.2122396 263.40625,71.4739583 263.40625,70.671875 C263.40625,69.8697917 263.598958,69.1315104 263.984375,68.4570312 C264.369792,67.7825521 264.895833,67.25 265.5625,66.859375 C266.229167,66.46875 266.955729,66.2734375 267.742188,66.2734375 C268.528646,66.2734375 269.255208,66.46875 269.921875,66.859375 C270.588542,67.25 271.114583,67.7825521 271.5,68.4570312 C271.885417,69.1315104 272.078125,69.8697917 272.078125,70.671875 C272.078125,71.4739583 271.885417,72.2122396 271.5,72.8867188 C271.114583,73.5611979 270.588542,74.09375 269.921875,74.484375 C269.255208,74.875 268.528646,75.0703125 267.742188,75.0703125 Z M282.382812,76 L282.382812,71.359375 L283.421875,71.359375 C283.890625,71.359375 284.317708,71.3033854 284.703125,71.1914062 C285.088542,71.0794271 285.408854,70.9296875 285.664062,70.7421875 C285.919271,70.5546875 286.134115,70.3307292 286.308594,70.0703125 C286.483073,69.8098958 286.608073,69.5390625 286.683594,69.2578125 C286.759115,68.9765625 286.796875,68.6796875 286.796875,68.3671875 C286.796875,67.4036458 286.471354,66.640625 285.820312,66.078125 C285.486979,65.7864583 285.105469,65.5885417 284.675781,65.484375 C284.246094,65.3802083 283.731771,65.328125 283.132812,65.328125 L283.132812,65.328125 L281.195312,65.328125 L281.195312,76 L282.382812,76 Z M283.359375,70.2421875 L282.382812,70.2421875 L282.382812,66.4453125 L283.257812,66.4453125 C283.445312,66.4453125 283.626302,66.4544271 283.800781,66.4726562 C283.97526,66.4908854 284.178385,66.5377604 284.410156,66.6132812 C284.641927,66.6888021 284.841146,66.7890625 285.007812,66.9140625 C285.174479,67.0390625 285.316406,67.2213542 285.433594,67.4609375 C285.550781,67.7005208 285.609375,67.9817708 285.609375,68.3046875 C285.609375,68.9192708 285.411458,69.3958333 285.015625,69.734375 C284.619792,70.0729167 284.067708,70.2421875 283.359375,70.2421875 L283.359375,70.2421875 Z M299.1875,76.1953125 C300.380208,76.1953125 301.453125,75.8697917 302.40625,75.21875 L302.40625,75.21875 L303.265625,76.109375 L304.804688,76.109375 L303.234375,74.4921875 C304.239583,73.4348958 304.742188,72.1614583 304.742188,70.671875 C304.742188,69.890625 304.595052,69.15625 304.300781,68.46875 C304.00651,67.78125 303.610677,67.1953125 303.113281,66.7109375 C302.615885,66.2265625 302.026042,65.8450521 301.34375,65.5664062 C300.661458,65.2877604 299.942708,65.1484375 299.1875,65.1484375 C298.427083,65.1484375 297.705729,65.2877604 297.023438,65.5664062 C296.341146,65.8450521 295.751302,66.2265625 295.253906,66.7109375 C294.75651,67.1953125 294.361979,67.78125 294.070312,68.46875 C293.778646,69.15625 293.632812,69.890625 293.632812,70.671875 C293.632812,71.4479167 293.778646,72.1796875 294.070312,72.8671875 C294.361979,73.5546875 294.75651,74.140625 295.253906,74.625 C295.751302,75.109375 296.341146,75.4921875 297.023438,75.7734375 C297.705729,76.0546875 298.427083,76.1953125 299.1875,76.1953125 Z M299.1875,75.0703125 C298.401042,75.0703125 297.674479,74.875 297.007812,74.484375 C296.341146,74.09375 295.815104,73.5611979 295.429688,72.8867188 C295.044271,72.2122396 294.851562,71.4739583 294.851562,70.671875 C294.851562,69.8697917 295.044271,69.1315104 295.429688,68.4570312 C295.815104,67.7825521 296.341146,67.25 297.007812,66.859375 C297.674479,66.46875 298.401042,66.2734375 299.1875,66.2734375 C299.96875,66.2734375 300.692708,66.46875 301.359375,66.859375 C302.026042,67.25 302.553385,67.7825521 302.941406,68.4570312 C303.329427,69.1315104 303.523438,69.8697917 303.523438,70.671875 C303.523438,71.8333333 303.145833,72.8203125 302.390625,73.6328125 L302.390625,73.6328125 L300.515625,71.7109375 L298.976562,71.7109375 L301.554688,74.3671875 C300.846354,74.8359375 300.057292,75.0703125 299.1875,75.0703125 Z M313.828125,76 L313.828125,71.328125 L314.132812,71.328125 L317.375,76 L318.820312,76 L315.421875,71.234375 C316.229167,71.1822917 316.880208,70.8828125 317.375,70.3359375 C317.869792,69.7890625 318.117188,69.1067708 318.117188,68.2890625 C318.117188,67.7526042 318.00651,67.2799479 317.785156,66.8710938 C317.563802,66.4622396 317.283854,66.1458333 316.945312,65.921875 C316.367188,65.5260417 315.502604,65.328125 314.351562,65.328125 L314.351562,65.328125 L312.640625,65.328125 L312.640625,76 L313.828125,76 Z M314.578125,70.2734375 L313.828125,70.2734375 L313.828125,66.4453125 L314.546875,66.4453125 C315.213542,66.4453125 315.723958,66.546875 316.078125,66.75 C316.645833,67.0729167 316.929688,67.5963542 316.929688,68.3203125 C316.929688,68.9401042 316.722656,69.4205729 316.308594,69.7617188 C315.894531,70.1028646 315.317708,70.2734375 314.578125,70.2734375 L314.578125,70.2734375 Z M191.109375,98.1953125 C192.083333,98.1953125 192.889323,97.8919271 193.527344,97.2851562 C194.165365,96.6783854 194.484375,95.8880208 194.484375,94.9140625 C194.484375,94.1328125 194.229167,93.4869792 193.71875,92.9765625 C193.380208,92.6380208 192.830729,92.3020833 192.070312,91.96875 L192.070312,91.96875 L191.046875,91.5234375 C190.854167,91.4348958 190.716146,91.3710938 190.632812,91.3320312 C190.549479,91.2929688 190.436198,91.2278646 190.292969,91.1367188 C190.14974,91.0455729 190.028646,90.9505208 189.929688,90.8515625 C189.783854,90.7161458 189.68099,90.578125 189.621094,90.4375 C189.561198,90.296875 189.53125,90.125 189.53125,89.921875 C189.53125,89.4270833 189.696615,89.0286458 190.027344,88.7265625 C190.358073,88.4244792 190.789062,88.2734375 191.320312,88.2734375 C191.794271,88.2734375 192.195312,88.3958333 192.523438,88.640625 C192.773438,88.84375 192.979167,89.109375 193.140625,89.4375 L193.140625,89.4375 L194.085938,88.8125 C193.825521,88.3177083 193.479167,87.9244792 193.046875,87.6328125 C192.557292,87.3098958 191.986979,87.1484375 191.335938,87.1484375 C190.466146,87.1484375 189.75,87.4036458 189.1875,87.9140625 C188.625,88.4244792 188.34375,89.0885417 188.34375,89.90625 C188.34375,90.2864583 188.404948,90.6132812 188.527344,90.8867188 C188.64974,91.1601562 188.833333,91.4140625 189.078125,91.6484375 C189.135417,91.7057292 189.196615,91.7604167 189.261719,91.8125 C189.326823,91.8645833 189.386719,91.9101562 189.441406,91.9492188 C189.496094,91.9882812 189.561198,92.03125 189.636719,92.078125 C189.71224,92.125 189.770833,92.1614583 189.8125,92.1875 C189.854167,92.2135417 189.916667,92.2473958 190,92.2890625 C190.083333,92.3307292 190.140625,92.359375 190.171875,92.375 C190.203125,92.390625 190.263021,92.4192708 190.351562,92.4609375 C190.440104,92.5026042 190.492188,92.5260417 190.507812,92.53125 L190.507812,92.53125 L191.460938,92.9765625 C191.705729,93.0859375 191.884115,93.1679688 191.996094,93.2226562 C192.108073,93.2773438 192.236979,93.3502604 192.382812,93.4414062 C192.528646,93.5325521 192.648438,93.6223958 192.742188,93.7109375 C193.096354,94.0338542 193.273438,94.4505208 193.273438,94.9609375 C193.273438,95.5390625 193.08724,96.0351562 192.714844,96.4492188 C192.342448,96.8632812 191.8125,97.0703125 191.125,97.0703125 C190.5,97.0703125 189.989583,96.8723958 189.59375,96.4765625 C189.239583,96.1067708 189.026042,95.6536458 188.953125,95.1171875 L188.953125,95.1171875 L187.796875,95.4375 C187.96875,96.2239583 188.299479,96.8541667 188.789062,97.328125 C189.377604,97.90625 190.151042,98.1953125 191.109375,98.1953125 Z M205.007812,98 L205.007812,88.4453125 L207.601562,88.4453125 L207.601562,87.328125 L201.234375,87.328125 L201.234375,88.4453125 L203.820312,88.4453125 L203.820312,98 L205.007812,98 Z M218.71875,98.1953125 C219.385417,98.1953125 219.989583,98.0664062 220.53125,97.8085938 C221.072917,97.5507812 221.507812,97.1979167 221.835938,96.75 C222.101562,96.3854167 222.279948,95.9986979 222.371094,95.5898438 C222.46224,95.1809896 222.507812,94.7161458 222.507812,94.1953125 L222.507812,94.1953125 L222.507812,87.328125 L221.320312,87.328125 L221.320312,93.875 C221.320312,94.1822917 221.315104,94.4166667 221.304688,94.578125 C221.294271,94.7395833 221.265625,94.9505208 221.21875,95.2109375 C221.171875,95.4713542 221.08724,95.7018229 220.964844,95.9023438 C220.842448,96.1028646 220.679688,96.2890625 220.476562,96.4609375 C220.263021,96.6432292 219.992188,96.7903646 219.664062,96.9023438 C219.335938,97.0143229 219.020833,97.0703125 218.71875,97.0703125 C218.416667,97.0703125 218.10026,97.0143229 217.769531,96.9023438 C217.438802,96.7903646 217.166667,96.6432292 216.953125,96.4609375 C216.75,96.2890625 216.58724,96.1028646 216.464844,95.9023438 C216.342448,95.7018229 216.257812,95.4713542 216.210938,95.2109375 C216.164062,94.9505208 216.135417,94.7395833 216.125,94.578125 C216.114583,94.4166667 216.109375,94.1822917 216.109375,93.875 L216.109375,93.875 L216.109375,87.328125 L214.921875,87.328125 L214.921875,94.1953125 C214.921875,94.7161458 214.967448,95.1809896 215.058594,95.5898438 C215.14974,95.9986979 215.328125,96.3854167 215.59375,96.75 C215.921875,97.1979167 216.358073,97.5507812 216.902344,97.8085938 C217.446615,98.0664062 218.052083,98.1953125 218.71875,98.1953125 Z M234.054688,98.640625 L238.375,87.328125 L237.0625,87.328125 L234.054688,95.46875 L231.046875,87.328125 L229.734375,87.328125 L234.054688,98.640625 Z M254.945312,98.5625 L259.429688,87.328125 L258.117188,87.328125 L254.992188,95.328125 L251.828125,86.78125 L248.484375,95.328125 L245.664062,87.328125 L244.351562,87.328125 L248.453125,98.5625 L251.8125,90.015625 L254.945312,98.5625 Z M266.84375,98 L269.320312,93.6171875 L271.765625,98 L273.117188,98 L270.023438,92.4765625 L272.953125,87.328125 L271.609375,87.328125 L269.335938,91.34375 L267.132812,87.328125 L265.789062,87.328125 L268.648438,92.4765625 L265.5,98 L266.84375,98 Z M283.875,98 L283.875,93.40625 L287.414062,87.328125 L286.039062,87.328125 L283.289062,92.09375 L280.570312,87.328125 L279.1875,87.328125 L282.695312,93.40625 L282.695312,98 L283.875,98 Z M301.296875,98 L301.296875,96.8828125 L295.632812,96.8828125 L301.460938,87.328125 L294.398438,87.328125 L294.398438,88.4453125 L299.476562,88.4453125 L293.648438,98 L301.296875,98 Z" id="ABCDEFGHIJKLMNOPQRSTUVWXYZ2"></path>
                    </g>
                </g>
            </g>
        </g>
    </g>
</svg>