<svg xmlns="http://www.w3.org/2000/svg" width="78" height="116" viewBox="0 0 78 116"><g><g><path fill="#595959" d="M77.397 32.85C74.474 14.266 58.477 0 39.005 0 17.47 0 0 17.411 0 38.875c0 11.1 4.722 21.04 12.208 28.121a18.272 18.272 0 0 0 1.948 1.836C35.48 86.296 28.174 112.866 27.836 116c23.58-21.384 36.993-39.211 46.098-60.136 1.599-3.272 2.774-6.754 3.41-10.458.423-2.163.645-4.305.645-6.447 0-.032.011-.053.011-.084 0-.94-.201-1.805-.265-2.723-.106-1.097-.116-2.205-.339-3.303z"/></g></g></svg>