<svg xmlns="http://www.w3.org/2000/svg" width="222" height="228" viewBox="0 0 222 228">
    <defs>
        <clipPath id="fdzha">
            <path d="M39.15 185.84h18.891v50.416H39.15z"/>
        </clipPath>
    </defs>
    <g>
        <g transform="scale(-1 1) rotate(44 0 -103.857)">
            <g>
                <path fill="#494257"
                      d="M26.305 154.583c-.685.055-1.372.097-2.057.17-.69.072-1.38.169-2.069.262-.715.097-1.427.217-2.144.297-.654.073-.865-.262-.656-.84 1.259-3.48 3.296-6.36 6.402-8.504 3.11-2.147 6.672-3.01 10.258-3.883 3.45-.84 6.94-1.577 10.298-2.696 1.864-.621 3.56-1.837 5.214-2.953a231.558 231.558 0 0 0 9.11-6.457c1.65-1.231 3.137-2.674 4.698-4.022l-.126-.227c-.757.187-1.53.328-2.269.568-4.31 1.398-8.67 2.674-12.904 4.275-4.38 1.655-8.646 3.609-12.936 5.485-1.625.711-3.24 1.48-4.752 2.394-1.442.87-2.857 1.846-4.09 2.983-2.936 2.708-5.676 5.628-8.651 8.292-2.725 2.44-5.525 4.836-8.526 6.92-3.6 2.5-7.692 3.852-12.171 3.927-2.728.045-5.388-.251-8.006-.991-.673-.19-.625-.603-.322-1.052 1.925-2.863 3.773-5.782 5.826-8.554 1.452-1.96 3.18-3.723 4.797-5.564 1.77-2.017 3.837-3.67 6.163-5.03 2.286-1.337 4.784-1.947 7.385-1.977 4.351-.05 8.705.12 13.057.078 2.305-.021 4.489-.676 6.602-1.65 3.155-1.454 6.328-2.89 9.58-4.105 5.28-1.973 10.615-3.804 15.957-5.603 2.267-.764 4.636-1.229 6.909-1.976.667-.22 1.21-.9 1.732-1.445 1.109-1.157 2.165-2.362 3.389-3.708-.436-.026-.656-.079-.862-.046-3.688.581-7.386 1.12-11.06 1.78-2.838.51-5.674 1.076-8.457 1.818-1.415.377-2.792 1.065-4.043 1.84-3.82 2.365-7.554 4.866-11.353 7.266-3.323 2.098-6.817 3.873-10.728 4.6-2.257.419-4.568.587-6.844.091-1.997-.436-3.967-1-5.949-1.507-.05-.013-.098-.03-.147-.048-1.796-.634-1.862-1.129-.491-2.447 1.31-1.26 2.453-2.694 3.796-3.914 2.1-1.907 4.276-3.735 6.477-5.527 2.228-1.813 4.765-3.124 7.472-4.083 1.978-.7 4.052-.8 6.102-.43 3.437.622 6.846 1.393 10.282 2.021 3.307.604 6.588.443 9.892-.279 2.963-.647 5.987-1.028 8.994-1.462 2.472-.358 4.96-.606 7.436-.947.305-.042.63-.313.843-.564.632-.747 1.214-1.536 1.918-2.249.32 1.045-.485 1.671-.933 2.576.4.013.71.049 1.016.03 3.243-.203 6.486-.58 9.729-.585a232.61 232.61 0 0 1 14.43.43c2.79.168 5.561.694 8.322 1.17 1.125.194 2.204.667 3.29 1.051.161.057.247.326.367.497-.206.036-.42.127-.617.098-3.988-.59-7.957-1.368-11.964-1.748-4.093-.389-8.222-.467-12.338-.531-2.417-.037-4.84.193-7.257.349-1.743.112-3.483.287-5.221.464-.316.033-.742.113-.906.33-1.16 1.526-2.267 3.094-3.146 4.312 2.817-.456 6.249-1.135 9.714-1.535 3.454-.4 6.938-.797 10.42-.3l.076.323c-.342.116-.679.304-1.03.336-3.559.32-7.133.52-10.68.95-3.013.364-5.988 1.03-8.993 1.478-1.753.261-2.925 1.318-4.14 2.45-3.586 3.347-7.516 6.274-11.583 9.02-2.022 1.365-4.142 2.6-6.08 4.07-.988.75-1.762 1.83-2.477 2.866-1.13 1.637-2.056 3.414-3.21 5.03-.79 1.106-1.678 2.246-2.778 3.007-2.16 1.496-4.74 2.074-7.293 2.607-1.08.224-2.17.399-3.248.698.235-.009.472-.005.707-.028 5.71-.571 11.425-.603 17.147-.191 2.824.203 5.648.402 8.473.607.151.011.301.063.452.092.748.142 1.276.221 1.917-.607 2.098-2.708 4.901-4.426 8.326-5.155 2.76-.589 5.495-.322 8.23.02 3.83.478 7.646 1.206 11.524.545 3.402-.58 6.833-1.053 10.183-1.852 3.727-.888 7.466-1.86 11.034-3.222 3.687-1.409 7.176-3.33 10.75-5.03.163-.077.302-.22.47-.263.193-.05.405-.021.61-.028-.074.216-.078.533-.229.633-1.135.75-2.254 1.542-3.462 2.16-6.091 3.118-12.562 5.192-19.237 6.647-3.595.784-7.227 1.403-10.839 2.11-1.68.33-2.957 1.395-4.276 2.374-1.562 1.161-3.059 2.426-4.706 3.454-1.76 1.099-3.809.94-5.802.83-.605-.032-1.21-.047-1.852.138.4.095.809.165 1.2.29 1.005.32 2.04.585 2.993 1.022.954.44 1.594.083 2.27-.504 2.094-1.817 4.56-2.802 7.324-2.9 2.41-.084 4.752.42 7.064 1.116 1.837.553 3.704 1.056 5.592 1.388 5.046.888 10.139.778 15.241.638 5.518-.152 10.941-.9 16.294-2.144 2.254-.524 4.438-1.339 6.655-2.018.254-.078.516-.13.774-.195l.141.243c-.23.172-.442.375-.692.51-2.498 1.352-5.209 2.123-7.981 2.6-4.007.687-8.026 1.462-12.072 1.733-4.9.328-9.833.123-14.75.254-1.097.03-2.258.336-3.255.798-1.673.776-3.218 1.815-4.855 2.673-1.315.69-2.744.848-4.208.54-.993-.208-1.982-.436-2.972-.656l-.09.228 4.76 2.326c.594-1.488 2.03-1.879 3.249-2.389 2.142-.897 4.41-.974 6.65-.223 3.454 1.159 6.889 2.379 10.359 3.493 2.051.657 4.146 1.187 6.235 1.726 2.01.519 4.022 1.05 6.06 1.442 2.495.48 5.011.877 7.532 1.209 4.43.584 8.883.662 13.342.381.54-.034 1.074-.163 1.613-.178.205-.006.417.185.626.286-.187.126-.36.327-.564.366-3.624.697-7.28.74-10.94.4-2.973-.276-5.948-.585-8.902-1.013-1.95-.283-3.873-.765-5.792-1.223-3.124-.744-6.325-1.303-9.32-2.401-1.98-.726-3.282.205-4.645.968-2.247 1.259-4.492 1.665-6.883.725-2.343-.92-4.632-1.972-6.945-2.966-.27-.116-.544-.228-.815-.342l-.122.232c1.214.673 2.424 1.354 3.644 2.017.541.294 1.13.51 1.648.837 2.49 1.574 5.023 3.095 7.433 4.787 2.703 1.898 5.404 3.828 7.898 5.982 2.71 2.339 5.243 4.89 7.733 7.463 2.064 2.133 4.014 4.384 5.9 6.676 1.56 1.895 2.993 3.897 4.409 5.903 1.843 2.613 3.681 5.233 5.395 7.93 1.494 2.35 2.875 4.777 4.19 7.23 1.535 2.863 2.983 5.773 4.395 8.697.778 1.61 1.422 3.286 2.083 4.948.09.23-.071.557-.116.84-.323-.17-.803-.259-.942-.523-.451-.855-.738-1.792-1.158-2.666-1.917-3.988-3.81-7.988-5.813-11.935-.877-1.726-1.95-3.362-3.012-4.988-1.987-3.038-3.889-6.146-6.089-9.027-2.778-3.638-5.69-7.194-8.785-10.57-2.759-3.008-5.787-5.786-8.808-8.545-1.846-1.685-3.889-3.162-5.872-4.696-1.576-1.218-3.162-2.429-4.807-3.552-1.29-.88-2.66-1.648-4.022-2.42-2.501-1.416-4.99-2.859-7.544-4.175a74.963 74.963 0 0 0-6.1-2.778 151.587 151.587 0 0 0-7.945-2.983c-2.228-.763-4.484-1.497-6.781-2.002-3.31-.728-6.661-1.277-10.008-1.823-2.005-.327-4.035-.508-6.055-.748-.35-.042-.702-.05-1.082.096.416.08.837.14 1.246.247 1.858.48 3.77.822 5.55 1.504 1.704.654 2.662 2.256 3.713 3.672 1.567 2.114 3.088 4.265 4.75 6.305.61.75 1.545 1.247 2.356 1.827 3.213 2.298 6.456 4.556 9.639 6.895.624.459 1.079 1 1.927.542.115-.063.358.105.54.167l-.448.914c.773.695 1.608 1.467 2.467 2.211 3.66 3.173 6.9 6.728 9.803 10.586.567.753 1.017 1.595 1.482 2.418.1.173.028.442.035.667-.244-.09-.576-.108-.711-.28-.362-.462-.596-1.022-.956-1.485-2.842-3.662-5.752-7.265-9.287-10.317a129.416 129.416 0 0 1-3.378-2.99c-.52-.482-1.07-.675-1.759-.522-.573.127-1.151.235-1.897.386.895.654 1.72 1.186 2.462 1.814 1.658 1.402 3.28 2.848 4.9 4.294.11.098.078.353.112.535-.163.008-.363.08-.483.012-.31-.176-.59-.406-.87-.628-1.698-1.344-3.393-2.692-5.09-4.037-.241-.191-.492-.37-.73-.564-.955-.782-1.93-1.273-3.29-1.153-4.63.41-9.261.249-13.873-.334-1.884-.238-3.762-.682-5.647-.707-1.06-.014-2.164.556-3.184 1.008-1.126.5-2.168 1.182-3.263 1.754-2.266 1.184-4.612.935-6.92.212-1.61-.505-3.158-1.212-4.737-1.82-.181-.07-.382-.092-.692.065.293.186.576.39.88.555 2.025 1.11 4.047 2.229 6.094 3.298.266.138.729.124 1.004-.011 2.073-1.02 4.209-1.619 6.557-1.296 2.39.328 4.486 1.292 6.51 2.57a58.114 58.114 0 0 0 6.277 3.444c1.231.579 2.647.774 3.98 1.138 1.062.29 2.118.606 3.189.853a37.18 37.18 0 0 0 3.093.59c2.697.387 5.391.934 8.103 1.052 3.232.14 6.48-.1 9.723-.178.221-.006.443-.034.665-.053l.122.244c-.265.149-.512.363-.797.435-2.416.611-4.893.73-7.353.576-3.201-.201-6.4-.536-9.578-.97-1.974-.268-3.915-.8-5.861-1.258-1.466-.344-2.898-.915-4.381-1.086-1.086-.125-2.24.183-3.345.395-1.514.29-2.998.754-4.518.99-1.36.212-2.65-.192-3.834-.895-.272-.162-.578-.27-.868-.402l-.136.19c.744.664 1.426 1.429 2.262 1.946.352.217 1.044-.038 1.561-.164 3.012-.73 5.736-.043 8.19 1.708 1.686 1.201 3.228 2.6 4.915 3.797a27.08 27.08 0 0 0 3.773 2.214c2.742 1.341 5.48 2.713 8.316 3.835 2.28.902 4.686 1.512 7.065 2.148 1.904.508 3.84.914 5.78 1.261 1.361.243 2.755.306 4.133.459.185.02.364.1.545.152l.023.246c-.286.08-.578.247-.857.225-2.074-.162-4.164-.244-6.211-.581-1.868-.308-3.698-.866-5.524-1.385a59.029 59.029 0 0 1-4.316-1.418 161.257 161.257 0 0 1-5.95-2.336c-1.212-.503-2.372-1.124-3.569-1.663-1.613-.726-4.223-.822-6.133-.206 2.377.417 4.133 1.668 5.742 3.192 1.896 1.796 3.765 3.627 5.756 5.314 2.088 1.769 4.235 3.49 6.49 5.04a88.207 88.207 0 0 0 7.783 4.804c2.068 1.125 4.312 1.933 6.485 2.865.418.18.872.273 1.304.422.132.046.245.149.366.225-.094.135-.16.338-.288.389-.202.079-.463.124-.668.067-2.711-.746-5.277-1.85-7.733-3.201-1.528-.84-3.066-1.673-4.525-2.623-1.752-1.14-3.434-2.386-5.127-3.614-1.217-.883-2.406-1.806-3.6-2.719-.569-.434-1.21-.814-1.667-1.346-1.058-1.232-2.397-1.357-3.861-1.173-1.637.206-3.24.09-4.557-.982-.967-.788-1.793-1.747-2.68-2.631-.175-.174-.345-.353-.655-.422.822 1.15 1.637 2.304 2.468 3.448.417.574.862 1.129 1.294 1.692l1.614 2.638c.515.963 1.09 1.901 1.534 2.896 1.541 3.45 3.193 6.863 4.503 10.399 1.177 3.178 1.97 6.497 2.893 9.765.067.24-.176.565-.276.851-.266-.21-.689-.371-.775-.639-1.296-4.008-2.384-8.09-3.852-12.034-1.605-4.31-3.698-8.424-6.203-12.31a293.188 293.188 0 0 0-3.409-5.184c-.236-.35-.604-.613-.912-.917l-1.036-1.299c-.398-.584-.756-1.2-1.204-1.745a181.538 181.538 0 0 0-3.377-3.964c-.14-.16-.384-.229-.581-.34-.742-.837-1.422-1.742-2.24-2.5-3.964-3.683-8.063-7.2-12.82-9.88-.677-.382-1.292-.871-1.936-1.31l-.177.206c.138.15.257.325.416.45 1.662 1.296 2.372 3.073 2.756 5.07.394 2.049.809 4.107 1.432 6.094.336 1.069 1.154 1.983 1.71 2.99 1.867 3.378 3.847 6.704 5.525 10.172 1.3 2.683 2.325 5.513 3.255 8.347.58 1.769.759 3.667 1.117 5.507-.132.06-.265.118-.399.177-.171-.262-.429-.503-.5-.789-.414-1.659-.686-3.36-1.19-4.99-1.265-4.103-2.818-8.103-4.996-11.827-1.703-2.913-3.4-5.84-5.31-8.621-.795-1.158-2.083-2.017-3.24-2.89-1.677-1.265-3.488-2.357-5.15-3.636-2.413-1.857-3.937-4.316-4.427-7.318-.17-1.033-.053-2.111-.07-3.368l-4.574-1.82-.163.3c.449.335.864.736 1.355.992 1.713.894 2.432 2.495 3.11 4.137.85 2.05 1.562 4.174 2.607 6.122.577 1.075 1.692 1.877 2.602 2.764 3.843 3.748 7.403 7.74 10.52 12.1 1.847 2.582 3.55 5.267 4.61 8.29.041.121.119.245.113.364-.01.224-.07.446-.11.67-.18-.146-.432-.255-.532-.443-.812-1.537-1.465-3.174-2.417-4.617-1.757-2.663-3.521-5.35-5.58-7.78-2.578-3.04-5.377-5.91-8.241-8.69-1.221-1.185-2.777-2.097-4.31-2.889-2.478-1.281-5.132-2.235-7.586-3.556-3.813-2.054-6.21-5.207-6.789-9.567-.026-.197.005-.4.014-.734-2.028-.195-4.04-.511-6.06-.555-3.55-.077-7.125-.21-10.654.097-1.926.166-3.84.49-5.748.852l-4.326-4.285c13.429-6.985 27.159-12.746 42.035-15.531m29.067 42.914c.546.664.914 1.108 1.279 1.556.976 1.195.976 1.196 2.565.59l-3.844-2.146m14.897-20.495c1.525 1.278 2.99.796 4.874.458-.89-.706-1.535-1.281-2.242-1.766-2.662-1.828-5.38-3.577-8.007-5.453-1.824-1.3-3.85-2.048-5.995-2.526-3.482-.777-7.012-1.368-10.446-2.307-1.613-.441-3.148-1.373-4.543-2.333-1.991-1.369-3.212-3.415-4.206-5.576-.562-1.223-.256-1.594 1.105-1.56 1.344.034 2.69-.052 4.034-.084-1.53-.629-16.002.217-16.738.705 2.047.13 4.36.08 6.59.485 1.489.27 3.067.931 4.234 1.87 2.025 1.626 3.742 3.622 5.624 5.425 1.253 1.2 2.574 2.288 4.305 2.835 1.907.604 3.768 1.353 5.631 2.081 1.1.43 2.163.952 3.25 1.417 1.484.634 3 1.2 4.454 1.894 1.338.64 2.61 1.413 3.914 2.121 1.4.76 2.97 1.314 4.162 2.314m-48.037-2.164c1.35.689 2.705 1.28 4.058 1.876.672.297 1.388.87 1.768-.346.04-.125.215-.214.338-.306 3.334-2.457 7.03-3.178 11.04-2.154 1.91.488 3.758 1.222 5.673 1.687 2.765.672 5.553 1.267 8.354 1.776 4.669.85 9.394 1.045 14.133.954.83-.016 1.657-.126 2.579-.2-1.242-.817-2.353-1.668-3.574-2.32-1.767-.944-3.627-1.717-5.423-2.61-3.81-1.894-7.819-3.284-11.815-4.718-.89-.319-1.698-.26-2.566-.084-2.447.495-4.902.945-7.345 1.455-1.076.225-2.21.391-3.171.871a24.749 24.749 0 0 0-4.098 2.577c-2.498 1.938-5.219 2.547-8.283 1.794-.543-.134-1.112-.17-1.668-.252m.126-11.396a53.298 53.298 0 0 1-3.474-4.168c-.379-.508-.629-.694-1.227-.493-3.902 1.314-7.814 2.597-11.713 3.917a27.102 27.102 0 0 0-3.006 1.199 1122.17 1122.17 0 0 0-12.403 6.027c-.915.453-1.753 1.062-2.626 1.598 9.18-.45 18.286-.42 27.3 1.48l.043-.236c-.58-.132-1.162-.26-1.74-.398-.726-.173-.93-.662-.421-1.153 2.073-2.003 4.452-3.53 7.354-3.974 3.657-.562 7.203.3 10.769.988 2.182.421 4.42.744 6.635.756 1.939.01 3.882-.46 5.816-.755.84-.127 1.663-.348 2.495-.527-.17-.18-.314-.213-.46-.217-3.992-.09-7.987-.097-11.973-.296-2.063-.102-4.182-.307-6.143-.896-1.888-.565-3.827-1.328-5.226-2.852"/>
            </g>
            <g>
                <path fill="#494257" d="M56.118 199.524c-.285-.527-.572-1.051-.998-1.834 1.11.937 2.026 1.71 3 2.53-1.24.714-1.24.713-2.002-.696"/>
            </g>
            <g>
                <path fill="#494257" d="M52.41 197.7"/>
            </g>
            <g>
                <g>
                    <path fill="#494257"
                          d="M3.1 136.893c3.2-3.214 6.53-6.305 9.843-9.406 1.848-1.729 3.728-3.43 5.68-5.041a264.54 264.54 0 0 1 8.771-6.963c2-1.513 4.137-2.85 6.207-4.272a.955.955 0 0 0 .413-.598c-1.33.805-2.667 1.598-3.985 2.421-.77.48-1.119.347-1.183-.573-.243-3.45.045-6.809 1.302-10.101 1.15-3.01 2.932-5.54 5.134-7.855 2.871-3.02 6.313-5.335 9.61-7.841 2.661-2.022 5.426-3.99 7.724-6.378 2.641-2.746 4.89-5.875 7.175-8.934 1.81-2.423 3.469-4.962 5.104-7.505 1.554-2.418 2.928-4.948 4.49-7.36 2.772-4.281 4.87-8.901 6.827-13.56 1.608-3.83 2.748-7.852 4.076-11.796.201-.595.264-1.234.454-1.833.062-.197.321-.334.49-.498.077.188.242.388.215.56-.218 1.4-.376 2.817-.739 4.182-.52 1.96-1.033 3.947-1.837 5.801-2.045 4.715-4.167 9.403-6.424 14.022-1.157 2.367-2.654 4.574-4.026 6.837-1.477 2.435-2.945 4.877-4.497 7.265-1.191 1.833-2.518 3.578-3.763 5.376-1.839 2.656-3.813 5.238-5.417 8.027-.751 1.306-.865 3.01-1.099 4.558-.394 2.607-.511 5.261-1.012 7.846-.445 2.29-1.353 4.405-3.066 6.194-2.67 2.792-5.721 5.075-8.933 7.186-.1.066-.18.16-.41.368 4.315-2.162 8.454-4.234 12.574-6.296-.015-3.057.75-5.936 2.056-8.762 1.75-3.781 4.659-6.418 8.107-8.549 2.26-1.397 4.64-2.605 6.984-3.87 3.41-1.84 6.807-3.705 9.674-6.34 4.05-3.722 8.15-7.395 12.064-11.252 2.778-2.74 5.353-5.69 7.888-8.656 1.888-2.207 3.638-4.54 5.32-6.906 2.106-2.963 4.193-5.951 6.073-9.054 1.369-2.26 2.391-4.724 3.567-7.097.057-.114.077-.258.16-.343.148-.15.33-.265.499-.395.048.2.185.427.13.593-.423 1.274-.73 2.619-1.363 3.788-1.575 2.902-3.17 5.809-5.005 8.553a134.751 134.751 0 0 1-7.091 9.678c-2.432 3.018-5.051 5.9-7.73 8.711-3.508 3.68-7.146 7.236-10.747 10.827-.777.775-1.575 1.553-2.468 2.186-1.83 1.296-2.536 3.196-3.094 5.197-.563 2.027-1.082 4.066-1.656 6.09-.848 2.996-2.466 5.466-5.238 7.061-2.419 1.392-4.879 2.714-7.322 4.064-.258.143-.525.267-.703.592 1.565-.554 3.114-1.16 4.699-1.654 4.201-1.308 8.397-2.642 12.635-3.825a161.199 161.199 0 0 1 10.644-2.607c4.402-.91 8.83-1.724 13.276-2.394 3.61-.545 7.255-.973 10.9-1.168a152.31 152.31 0 0 1 12.57-.148c4.939.142 9.876.48 14.804.86 2.817.217 5.622.641 8.42 1.055 3.61.533 7.222 1.08 10.809 1.75 3.308.617 6.593 1.36 9.87 2.128 3.148.737 6.286 1.526 9.402 2.385 2.35.647 4.664 1.422 6.982 2.174 2.977.964 5.97 1.894 8.906 2.97 2.674.977 5.304 2.083 7.916 3.217 3.346 1.453 6.686 2.927 9.97 4.511 2.214 1.068 4.36 2.287 6.474 3.54a125.764 125.764 0 0 1 6.68 4.24c1.434.975 2.744 2.128 4.101 3.211.122.098.182.27.157.61-.277-.097-.59-.143-.828-.299-1.883-1.232-3.688-2.596-5.641-3.707-3.606-2.05-7.291-3.964-10.953-5.92-1.717-.917-3.433-1.842-5.188-2.685-1.198-.575-2.465-1.01-3.698-1.516-3.134-1.288-6.235-2.665-9.41-3.847-2.857-1.063-5.796-1.912-8.698-2.86-.877-.286-1.744-.603-2.626-.876-2.01-.624-4.016-1.271-6.045-1.83a171.774 171.774 0 0 0-7.322-1.865c-2.98-.681-5.97-1.324-8.976-1.884a216.543 216.543 0 0 0-9.125-1.494c-3.46-.493-6.926-1-10.407-1.296-4.562-.387-9.138-.69-13.715-.818-7.656-.213-15.3.197-22.904 1.06-8.167.925-16.253 2.393-24.175 4.576a211.404 211.404 0 0 0-14.42 4.52 179.875 179.875 0 0 0-13.445 5.382c-3.485 1.56-6.806 3.483-10.179 5.282-1.83.977-3.644 1.989-5.414 3.068-1.858 1.134-3.703 2.301-5.468 3.572-4.18 3.008-8.416 5.954-12.423 9.177-3.465 2.787-6.699 5.864-9.932 8.92-2.2 2.08-4.276 4.297-6.31 6.539-1.642 1.808-3.158 3.729-4.693 5.628a317.953 317.953 0 0 0-4.586 5.828 32.233 32.233 0 0 0-1.643 2.385c-1.567 2.468-3.15 4.929-4.655 7.434-1.01 1.68-1.907 3.424-2.836 5.15-.855 1.588-1.688 3.188-2.527 4.786-.047.092-.088.19-.135.31l-1.454-1.435c-.04-.51-.085-1.021-.121-1.532-.027-.362.04-.776.2-1.099 1.031-2.074 2.003-4.187 3.18-6.178 1.785-3.016 3.617-6.017 5.626-8.89 1.89-2.7 3.978-5.272 6.083-7.817 1.867-2.258 3.778-4.496 5.846-6.573"/>
                </g>
                <g/>
            </g>
            <g>
                <path fill="#494257"
                      d="M5.369 47.898c.591 2.925 1.127 5.861 1.679 8.795.263 5.036.173 10.034-.181 15.031-.178 2.496-.273 5.001-.573 7.484-.396 3.288-.902 6.566-1.459 9.834-.59 3.465-1.248 6.92-1.964 10.362-.44 2.114-1.047 4.197-1.57 6.296-.074.297-.172.613-.134.905.354 2.731.637 5.476 1.137 8.184.542 2.934 1.426 5.812 1.917 8.753.452 2.711-.201 5.315-1.545 7.758-.817 1.486-1.493 3.043-2.319 4.525-.522.937-1.155 1.826-1.82 2.677a900.846 900.846 0 0 1-6.963 8.782c-1.729 2.154-3.488 4.287-5.243 6.421-.478.583-.896.226-1.101-.206-1.31-2.747-2.288-5.582-2.763-8.598-.66-4.179-.051-8.214 1.343-12.134.734-2.064 1.765-4.06 2.898-5.955 1.69-2.826 3.59-5.533 5.394-8.295 1.479-2.26 2.947-4.527 4.42-6.79.617-.947 1.32-1.851 1.826-2.849.576-1.136 1.094-2.326 1.428-3.545.916-3.338 1.83-6.682 2.545-10.063.945-4.461 1.821-8.942 2.497-13.447.532-3.555.842-7.152 1.02-10.74.17-3.435.083-6.884.03-10.325a63.747 63.747 0 0 0-.352-5.962c-.245-2.23-.653-4.442-.99-6.662-.004-.025-.018-.052-.014-.076.056-.35.114-.699.171-1.048.236.294.62.561.686.888"/>
            </g>
            <g>
                <path fill="#494257"
                      d="M29.318 81.602c-1.11 1.999-2.34 3.938-3.59 5.856-.797 1.223-.86 2.584-.764 3.896.233 3.158.61 6.306 1 9.45.45 3.616.243 7.08-1.959 10.2-1.217 1.725-2.233 3.609-3.599 5.207-2.097 2.455-4.38 4.763-6.656 7.063-2.158 2.18-4.417 4.265-6.618 6.405-.554.54-.832.369-.987-.286-.473-1.998-1.09-3.976-1.375-6-.357-2.54-.29-5.124.444-7.615.512-1.743 1.021-3.524 1.84-5.136 1.634-3.222 3.699-6.189 6.08-8.94 2.352-2.718 4.697-5.445 6.931-8.254 1.31-1.647 2.407-3.458 3.584-5.205.995-1.477 2.014-2.942 2.94-4.46a155.029 155.029 0 0 0 3.6-6.211 145.09 145.09 0 0 0 3.401-6.565c1.27-2.63 2.475-5.29 3.645-7.963.915-2.089 1.804-4.195 2.573-6.339.84-2.338 1.616-4.707 2.26-7.104.873-3.252 1.614-6.538 2.37-9.819.238-1.034.339-2.098.515-3.146.021-.133.116-.256.3-.636.154.486.337.758.303 1-.387 2.782-.753 5.568-1.238 8.334-.309 1.764-.752 3.51-1.233 5.237a42.365 42.365 0 0 1-1.403 4.101c-1.45 3.688-2.867 7.393-4.45 11.026-1.285 2.953-2.77 5.822-4.206 8.71-1.2 2.415-2.399 4.835-3.708 7.194"/>
            </g>
            <g>
                <path fill="#494257"
                      d="M62.719 107.816c2.896 1.41 5.771 2.886 8.762 4.072 1.332.528 2.923.498 4.404.576 4.62.244 9.26.257 13.863.662 5.424.478 10.835 1.17 16.222 1.963 3.434.507 6.835 1.279 10.21 2.096 3.123.757 6.254 1.569 9.267 2.66 2.56.93 4.956 2.291 7.422 3.467.079.038.123.148.391.488-.516-.068-.782-.055-1.01-.14-3.5-1.311-6.95-2.772-10.506-3.913-3.06-.983-6.233-1.628-9.368-2.376a87.69 87.69 0 0 0-5.455-1.138c-2.489-.428-4.984-.854-7.494-1.12-3.93-.419-7.87-.841-11.817-1.005-4.463-.185-8.937-.103-13.406-.105-3.296-.003-6.322 1.192-9.405 2.126-3.877 1.175-7.73 2.448-11.653 3.459-2.79.718-5.66.64-8.515.015-3.272-.717-6.101-2.255-8.72-4.235-.91-.688-.863-1.067.122-1.613 2.9-1.61 5.75-3.317 8.71-4.813 3.04-1.536 6.25-2.609 9.686-3.056 3.06-.4 5.671.655 8.29 1.93"/>
            </g>
            <g>
                <path fill="#494257"
                      d="M208.1 84.882c-2.384-.685-4.74-1.498-7.152-2.057-3.56-.826-7.146-1.56-10.748-2.172-3.656-.62-7.334-1.13-11.02-1.525-3.892-.418-7.8-.745-11.71-.927-3.96-.184-7.933-.253-11.896-.17-5.193.109-10.39.304-15.57.674-4.69.333-9.379.812-14.033 1.481-5.242.754-10.449 1.774-15.663 2.723-.873.159-1.692.602-2.558.824-2.602.666-5.209 1.324-7.829 1.912-1.397.314-2.831.45-4.24.718-.802.151-.98-.163-.815-.894.682-2.998 2.395-5.308 4.716-7.14 2.607-2.058 5.707-2.976 8.837-3.858 3.306-.93 6.555-2.071 9.831-3.114 4.595-1.463 9.162-3.028 13.796-4.349 4.264-1.215 8.58-2.262 12.91-3.21 5.97-1.306 12.026-2.058 18.122-2.35 2.576-.124 5.167.023 7.749.115 1.015.036 2.026.24 3.033.405.245.04.466.232.663.578-.2.031-.401.101-.598.088-4.401-.284-8.792-.285-13.198.052-5.65.433-11.268 1.066-16.788 2.369-4.815 1.137-9.602 2.405-14.369 3.74-2.637.74-5.217 1.7-7.801 2.626-1.59.57-3.198 1.145-4.678 1.948-.697.377-1.186 1.25-1.64 1.983-.791 1.276-1.487 2.615-2.214 3.933-.136.247-.23.518-.43.982 1.062-.138 1.976-.236 2.882-.38 1.77-.28 3.527-.656 5.303-.869 5.392-.647 10.778-1.379 16.187-1.804a222.033 222.033 0 0 1 15.954-.687c5.601-.037 11.206.2 16.805.43 3.45.143 6.915.328 10.332.8 5.09.703 10.175 1.529 15.205 2.583 3.695.775 7.309 1.966 10.937 3.047.844.251 1.601.807 2.398 1.224l-.093.283c-.206-.001-.425.043-.617-.012"/>
            </g>
            <g>
                <path fill="#494257"
                      d="M67.174 97.046c1.588-.562 3.296-.777 4.2-.982 3.175-.235 5.574-.193 7.76.965 1.311.695 2.507 1.61 3.76 2.417 2.242 1.446 4.46 2.934 6.753 4.294.595.352 1.432.293 2.16.42 4.754.826 9.533 1.542 14.26 2.51 4.368.894 8.713 1.947 13.01 3.138 3.853 1.066 7.686 2.264 11.422 3.685 3.306 1.259 6.504 2.827 9.678 4.404 2.179 1.083 4.258 2.377 6.33 3.661.456.283.694.92 1.033 1.392-.475-.217-.965-.408-1.423-.657-.722-.392-1.4-.872-2.138-1.233-3.366-1.648-6.722-3.322-10.13-4.88-2.45-1.118-4.965-2.092-7.469-3.083-1.072-.423-2.185-.747-3.292-1.074-2.362-.7-4.718-1.431-7.104-2.04-2.63-.67-5.277-1.3-7.944-1.801-4.19-.79-8.387-1.565-12.61-2.141-2.707-.37-5.488-.664-8.195-.455-2.977.23-5.917 1.03-8.856 1.665-3.54.765-7.117 1.307-10.711.877-2.327-.278-4.64-.967-6.555-2.493a154.898 154.898 0 0 1-4.196-3.455c-.59-.505-.476-.985.259-1.273 3.325-1.306 6.632-2.67 9.998-3.861"/>
            </g>
            <g>
                <path fill="#494257"
                      d="M102.254 89.654c3.924-.436 7.867-.69 11.787-.142 3.424.478 6.824 1.14 10.215 1.817a291.2 291.2 0 0 1 20.106 4.797 446.679 446.679 0 0 1 11.817 3.425c3.276 1.004 6.551 2.03 9.756 3.226a308.233 308.233 0 0 1 13.298 5.29c3.486 1.489 6.91 3.13 10.281 4.855 2.399 1.23 4.706 2.644 6.97 4.1 1.83 1.176 3.545 2.523 5.286 3.824.32.24.523.629.78.948l-.168.207c-26.229-16.831-55.462-25.507-86.229-30.222.343.37.674.751 1.03 1.107 1.125 1.118 2.242 2.243 3.4 3.327.281.263.691.435 1.074.546 2.323.671 4.67 1.266 6.981 1.973 3.921 1.2 7.84 2.411 11.724 3.723 2.243.758 4.427 1.688 6.612 2.6a463.17 463.17 0 0 1 10.006 4.296c1.5.669 2.95 1.459 4.382 2.264 2.353 1.324 4.76 2.582 6.983 4.095 2.493 1.697 4.808 3.645 7.193 5.49.159.124.303.295.381.474.067.153.032.349.042.526-.167-.026-.376.001-.493-.087-1.6-1.2-3.113-2.52-4.791-3.602-2.95-1.901-5.977-3.69-9.01-5.462-1.86-1.088-3.738-2.172-5.702-3.06-3.661-1.658-7.354-3.265-11.104-4.72-3.43-1.33-6.944-2.461-10.441-3.623-2.028-.674-4.087-1.269-6.15-1.834-1.712-.47-3.448-.858-5.18-1.256-1.18-.27-2.36-.574-3.558-.717a36.524 36.524 0 0 0-4.172-.234c-3.185-.014-6.38.077-9.475-.825-3.243-.943-5.547-3.024-7.207-5.836-.403-.683.235-.788.658-.868a39.126 39.126 0 0 1 2.918-.422"/>
            </g>
            <g>
                <path fill="#494257"
                      d="M91.37 90.691c2.248-.349 4.681-.269 6.701.912 1.8 1.051 3.325 2.588 4.957 3.929 1.48 1.215 2.867 2.563 4.438 3.64.824.565 1.95.691 2.95.978 1.266.365 2.555.65 3.812 1.042 2.819.882 5.637 1.771 8.43 2.73 2.145.735 4.263 1.549 6.372 2.382 2.98 1.177 5.982 2.312 8.899 3.636 2.827 1.282 5.59 2.722 8.325 4.2 2.466 1.332 4.924 2.705 7.261 4.25 2.784 1.842 5.564 3.72 7.862 6.202.176.19.284.444.423.668-.075.084-.15.167-.227.25-.51-.373-1.026-.74-1.532-1.12-1.511-1.132-2.993-2.304-4.533-3.393a91.782 91.782 0 0 0-4.531-2.99c-1.362-.846-2.746-1.67-4.17-2.402-3.743-1.923-7.471-3.885-11.288-5.648-2.584-1.194-5.306-2.09-7.975-3.097a79.38 79.38 0 0 0-3.814-1.343c-2.74-.878-5.477-1.764-8.24-2.564-2.535-.735-5.069-1.584-7.664-1.967-2.444-.361-4.974-.328-7.453-.198-3.158.164-6.313.557-9.463.105-2.184-.314-4.295-.89-6.205-2.158a17.027 17.027 0 0 1-4.675-4.587c-.437-.632-.217-1.03.366-1.16 3.649-.814 7.287-1.725 10.975-2.297"/>
            </g>
            <g>
                <path fill="#494257"
                      d="M121.245 58.413c-3.765 2.53-7.542 5.052-11.429 7.386-3.732 2.24-7.603 4.25-11.428 6.331-1.213.66-1.508 1.886-1.94 3.004-.815 2.11-1.43 4.304-2.337 6.37-.669 1.524-2.07 2.471-3.454 3.373-3.571 2.325-7.602 3.546-11.578 4.903-1.038.354-2.075.71-3.107 1.08-.662.239-.917.115-.922-.64.071-.486.112-1.129.267-1.744.652-2.593 1.68-4.981 3.548-6.981 2.14-2.292 4.68-3.968 7.49-5.286 5.238-2.455 10.534-4.795 15.691-7.411a142.12 142.12 0 0 0 11.74-6.685 214.075 214.075 0 0 0 12.646-8.69 88.417 88.417 0 0 0 12.292-10.987c1.573-1.696 3.09-3.444 4.653-5.151.155-.17.445-.213.673-.315-.045.279.007.643-.151.824-2.441 2.794-4.785 5.69-7.407 8.305-2.533 2.528-5.294 4.84-8.077 7.097-2.294 1.86-4.717 3.57-7.17 5.217"/>
            </g>
            <g>
                <path fill="#494257"
                      d="M59.497 150.454c-1.034 1.169-2.488 1.717-3.985 2.132-4.523 1.252-9.154 1.106-13.778 1.068a40.256 40.256 0 0 0-2.026.044c-.693.029-.916-.212-.621-.876 1.028-2.32 2.622-4.194 4.611-5.772 2.861-2.27 6.235-3.2 9.794-3.547 6.478-.629 12.92-1.457 19.13-3.452 3.53-1.134 7.013-2.42 10.474-3.745 4.248-1.629 8.24-3.77 12.039-6.248 1.017-.664 2-1.376 3.008-2.054.19-.129.418-.204.628-.304l.189.238c-.178.226-.325.485-.538.672-2.6 2.28-5.521 4.092-8.637 5.585-2.87 1.376-5.747 2.76-8.715 3.908-3.236 1.253-6.571 2.26-9.879 3.33-1.43.462-2.899.811-4.349 1.215-1.43.398-2.183 1.586-3.054 2.608-1.458 1.71-2.803 3.516-4.291 5.198"/>
            </g>
            <g>
                <g/>
                <g clip-path="url(#fdzha)">
                    <path fill="#494257"
                          d="M52.679 196.105c.816 1.132 1.63 2.265 2.45 3.394 1.024 1.412 1.017 3.002.76 4.607-.199 1.246-.615 2.467-.726 3.717-.092 1.029.038 2.1.217 3.125.587 3.349 1.374 6.667 1.832 10.03.442 3.237.64 6.51.81 9.776.083 1.608-.115 3.235-.247 4.847-.019.233-.384.438-.59.655-.104-.224-.303-.451-.298-.672.049-1.803.287-3.614.178-5.405-.225-3.719-.486-7.447-1.005-11.134-.403-2.847-1.107-5.668-1.902-8.438-.424-1.48-1.267-2.857-2.027-4.223-.888-1.599-1.955-3.102-2.82-4.713-.453-.845-.638-1.83-1.149-2.765.045 1.35-.177 2.777.187 4.038.892 3.091 2.206 6.065 3.067 9.162.97 3.497 1.82 7.049 2.366 10.63.417 2.728.288 5.539.375 8.313.01.299-.155.603-.24.905l-.32.014c-.077-.335-.204-.667-.22-1.005-.109-2.341.02-4.716-.337-7.017-.556-3.582-1.243-7.168-2.237-10.652-.987-3.459-2.292-6.848-3.721-10.156-.624-1.442-1.85-2.65-2.9-3.885-1.595-1.874-3.288-3.682-4.244-5.977-.907-2.18-1.057-4.444-.313-6.716.27-.823.661-.929 1.308-.377 1.694 1.447 3.441 2.843 5.035 4.39 1.207 1.173 2.207 2.55 2.382 4.325.013.14.1.274.247.65.286-.54.492-.897.67-1.269.389-.817.58-.859 1.215-.253.73.695 1.465 1.386 2.197 2.08z"/>
                </g>
            </g>
            <g>
                <path fill="#494257" d="M52.41 197.7z"/>
            </g>
            <g/>
            <g>
                <path fill="#494257"
                      d="M75.756 171.315c.598 1.575 1.892 2.64 2.987 3.855 2.981 3.312 5.98 6.61 8.838 10.028 1.867 2.233 3.635 4.577 5.197 7.03 1.661 2.608 3.07 5.38 4.5 8.128.538 1.032.844 2.188 1.215 3.3.064.191-.072.448-.115.674-.166-.157-.389-.285-.487-.477-1.625-3.162-3.088-6.42-4.893-9.476-1.634-2.77-3.573-5.372-5.5-7.955a63.453 63.453 0 0 0-4.685-5.593c-2.162-2.29-4.394-4.528-6.748-6.618-2.001-1.778-4.457-2.862-6.958-3.818-.903-.346-1.758-.842-2.59-1.343-1.844-1.107-3.722-2.178-5.13-3.867-1.551-1.861-2.442-4.009-2.814-6.385l-.057-.691c-.054-.666.24-.89.886-.726 1.86.47 3.782.761 5.57 1.423 2.415.894 4.945 1.707 6.794 3.632.742.771 1.351 1.75 1.761 2.74.833 2.01 1.457 4.104 2.23 6.14"/>
            </g>
            <g>
                <path fill="#494257"
                      d="M149.51 220.08c-1.701-2.556-3.29-5.187-5.08-7.681-1.834-2.557-3.74-5.081-5.82-7.447a209.048 209.048 0 0 0-9.211-9.834c-2.215-2.213-4.643-4.227-7.053-6.24-2.424-2.025-4.926-3.96-7.428-5.892-1.053-.814-2.189-1.526-3.294-2.276-1.977-1.342-3.935-2.712-5.95-3.998-.898-.572-1.956-.898-2.864-1.458a90.076 90.076 0 0 1-5.093-3.362c-.75-.537-.08-.848.397-1.054 2.429-1.05 4.917-1.317 7.391-.235 1.671.732 3.252 1.657 4.898 2.446 3.501 1.677 7.054 3.254 10.517 5.004 2.276 1.15 4.454 2.495 6.633 3.82 1.977 1.201 3.94 2.433 5.828 3.762 1.89 1.332 3.763 2.711 5.492 4.235 1.807 1.593 3.442 3.375 5.126 5.1.237.242.325.624.482.94l-.328.225c-.707-.712-1.39-1.45-2.128-2.13-1.623-1.5-3.213-3.043-4.93-4.434-2.016-1.633-4.117-3.174-6.25-4.662-1.367-.953-2.845-1.758-4.294-2.593-1.672-.963-3.333-1.952-5.06-2.813-2.614-1.304-5.276-2.518-7.932-3.74a1.736 1.736 0 0 0-1.037-.111c-1.276.294-2.535.652-4.019 1.043.469.418.728.688 1.027.907 3.074 2.246 6.29 4.328 9.202 6.76 4.597 3.838 9.183 7.723 13.413 11.935 3.904 3.888 7.411 8.17 10.949 12.395a52.609 52.609 0 0 1 7.084 11.042c.166.346.139.782.202 1.176-.294-.275-.654-.507-.87-.83"/>
            </g>
            <g>
                <path fill="#494257"
                      d="M110.571 199.672c-1.642-3.201-3.368-6.377-5.313-9.401-1.132-1.76-2.731-3.236-4.185-4.78-1.662-1.762-3.171-3.596-3.37-6.122-.068-.869.026-1.757.117-2.629.07-.66.477-.843 1.049-.466 3.377 2.224 6.245 4.968 8.51 8.315 1.77 2.619 3.634 5.183 5.27 7.882 2.71 4.473 5.392 8.97 7.854 13.58 2.195 4.11 4.151 8.352 6.062 12.602 1.018 2.263 1.761 4.652 2.545 7.013.56 1.692.981 3.43 1.463 5.148.042.149.135.318.099.449-.079.282-.226.546-.345.817-.2-.192-.507-.35-.583-.583-.364-1.106-.603-2.254-1-3.347-1.447-3.986-2.843-7.996-4.443-11.921-1.239-3.039-2.607-6.046-4.184-8.923-2.364-4.311-4.881-8.546-7.488-12.718-1.934-3.096-4.112-6.041-6.188-9.05a1.904 1.904 0 0 0-.61-.561c.078 1.65-.47 3.214.509 4.882 2.21 3.77 4.231 7.66 6.135 11.593 1.996 4.127 3.7 8.382 4.956 12.81.899 3.171 1.788 6.329 1.927 9.64.014.333-.072.669-.11 1.003l-.31.047c-.12-.306-.315-.605-.35-.92-.592-5.473-2.122-10.712-4.134-15.806a96.12 96.12 0 0 0-3.883-8.554"/>
            </g>
            <g>
                <path fill="#494257"
                      d="M74.36 161.43c2.774 1.297 5.618 2.476 8.268 3.995 2.278 1.305 3.29 3.635 3.731 6.203.188 1.089.483 2.16.647 3.251.277 1.842 1.363 3.207 2.413 4.648 1.947 2.674 3.863 5.381 5.62 8.184 1.934 3.084 3.806 6.222 5.466 9.461 2.017 3.935 3.807 7.993 4.729 12.368.115.55.1 1.129.146 1.694l-.423.086c-.179-.535-.397-1.06-.531-1.607-1.01-4.099-2.654-7.948-4.466-11.738-2.417-5.055-5.384-9.777-8.677-14.275-1.898-2.593-3.717-5.31-6.323-7.293-.893-.68-1.875-1.239-2.793-1.886-1.814-1.283-3.771-2.416-5.38-3.926-2.4-2.249-3.567-5.155-3.39-8.533.038-.71.418-.886.964-.631"/>
            </g>
            <g>
                <path fill="#494257"
                      d="M60.171 206.62c1.056 1.713 1.731 3.48.862 5.494-.055.127-.041.284.114.5.222-.471.412-.962.68-1.407.14-.234.421-.544.628-.535.232.009.53.294.665.534 1.3 2.31 2.476 4.684 3.03 7.293.472 2.212.883 4.44 1.203 6.679.405 2.837.691 5.69 1.027 8.537.02.175.084.375.026.522-.096.238-.277.442-.422.661-.154-.194-.412-.372-.445-.584-.187-1.218-.28-2.451-.48-3.666-.558-3.396-1.15-6.787-1.74-10.179-.052-.304-.186-.593-.33-1.04-.646 1.14-1.134 2.072-1.03 3.31.31 3.709.514 7.427.706 11.145.022.434.324 1.279-.46 1.275-.76-.003-.352-.77-.392-1.216-.395-4.328-.736-8.662-1.212-12.981-.11-.995-.674-1.942-1.034-2.908-.52-1.4-.958-2.812-.688-4.338a.951.951 0 0 0-.01-.298c-.006-.041-.056-.075-.141-.18-.747 1.376-1.106 2.78-.965 4.32.22 2.402.46 4.804.577 7.21.109 2.208.095 4.422.083 6.633a33.822 33.822 0 0 1-.214 3.464c-.028.256-.377.478-.578.715-.098-.244-.298-.495-.28-.73.37-4.751.34-9.495-.086-14.243-.3-3.331-1.205-6.445-2.785-9.402-1.322-2.473-1.427-5.063-.137-7.605.214-.422.748-.684 1.134-1.02l1.013 1.28c.56.92 1.116 1.843 1.681 2.76"/>
            </g>
            <g>
                <path fill="#494257"
                      d="M99.738 188.784c-1.123-2.041-2.344-4.058-3.768-5.893-1.036-1.335-2.447-2.39-3.745-3.507-1.894-1.63-3.702-3.307-4.71-5.678-.74-1.742-.833-3.534-.575-5.371.084-.593.346-.798.952-.498 2.494 1.233 4.86 2.66 6.88 4.593 1.228 1.176 1.957 2.629 2.111 4.343.106 1.179.275 2.36.271 3.54-.005 1.635.561 3.036 1.371 4.411 3.988 6.77 7.308 13.855 9.822 21.307 1.178 3.489 2.024 7.063 2.44 10.729.07.63-.042 1.28-.07 1.92l-.354.02c-.074-.229-.184-.454-.216-.688a70.357 70.357 0 0 0-3.475-14.039c-1.886-5.268-4.246-10.303-6.934-15.189"/>
            </g>
            <g>
                <path fill="#494257"
                      d="M63.173 209c2.657-.185 4.686.97 6.307 2.965 1.812 2.227 3.707 4.39 5.46 6.66 2.593 3.353 5.172 6.72 7.6 10.188 1.396 1.995 2.483 4.199 3.71 6.308l-.307.316c-.299-.205-.71-.345-.877-.625-.833-1.398-1.501-2.897-2.414-4.238a210.904 210.904 0 0 0-6.162-8.631c-1.228-1.623-2.67-3.09-4.032-4.613a1.09 1.09 0 0 0-.597-.337c-.947-.14-1.9-.234-3.03-.366.634 1.097 1.2 2.035 1.726 2.994 1.539 2.805 3.125 5.587 4.57 8.438 1.13 2.23 2.09 4.544 3.086 6.837.13.301.137.955.004 1.013-.58.255-.78-.228-.993-.673-1.515-3.157-2.942-6.361-4.601-9.444-1.736-3.224-3.641-6.363-5.594-9.467-.898-1.428-2.084-2.682-3.14-4.014l-1.639-2.658c.307-.227.602-.632.923-.654"/>
            </g>
            <g>
                <path fill="#494257" d="M-16.666 169.898c.092-.225.159-.402.218-.556l.294.292c-.171.089-.342.175-.512.264"/>
            </g>
        </g>
    </g>
</svg>