<?xml version="1.0" encoding="UTF-8"?>
<svg width="347px" height="46px" viewBox="0 0 347 46" version="1.1" xmlns="http://www.w3.org/2000/svg" xmlns:xlink="http://www.w3.org/1999/xlink">
    <!-- Generator: Sketch 63.1 (92452) - https://sketch.com -->
    <title>marinist_4</title>
    <desc>Created with Sketch.</desc>
    <g id="Кейс" stroke="none" stroke-width="1" fill="none" fill-rule="evenodd">
        <g id="Marinist-XL" transform="translate(-829.000000, -3162.000000)" fill="#12171E" fill-rule="nonzero">
            <g id="Цвета-и-шрифты" transform="translate(165.000000, 2738.000000)">
                <g id="Group-10" transform="translate(664.000000, 297.000000)">
                    <path d="M6.022,149.45 C6.238,149.45 6.418,149.384 6.562,149.252 C6.826,149.036 7.03,148.832 7.174,148.64 C7.414,148.328 7.828,147.746 8.416,146.894 L8.416,146.894 L8.866,146.246 C9.226,145.718 9.541,145.274 9.811,144.914 C10.081,144.554 10.378,144.218 10.702,143.906 C10.618,143.834 10.54,143.798 10.468,143.798 C10.408,143.798 10.348,143.816 10.288,143.852 C10.144,143.936 10.03,144.026 9.946,144.122 C9.562,144.554 9.292,144.878 9.136,145.094 L9.136,145.094 L8.272,146.318 L7.39,147.542 C7.318,147.638 7.213,147.791 7.075,148.001 C6.937,148.211 6.802,148.382 6.67,148.514 C6.502,148.706 6.316,148.874 6.112,149.018 C6.064,149.054 6.016,149.072 5.968,149.072 C5.848,149.072 5.782,149.012 5.77,148.892 C5.71,148.592 5.686,148.34 5.698,148.136 C5.746,147.428 5.806,146.906 5.878,146.57 C6.262,144.782 6.742,143.306 7.318,142.142 C7.342,142.094 7.384,141.98 7.444,141.8 C7.324,141.68 7.243,141.608 7.201,141.584 C7.159,141.56 7.054,141.536 6.886,141.512 C6.814,141.62 6.742,141.758 6.67,141.926 C6.598,142.094 6.538,142.232 6.49,142.34 L6.49,142.34 L6.328,142.682 C6.16,143.006 6.022,143.306 5.914,143.582 C5.866,143.69 5.806,143.744 5.734,143.744 L5.734,143.744 L5.68,143.744 C5.692,143.66 5.71,143.519 5.734,143.321 C5.758,143.123 5.77,142.946 5.77,142.79 C5.77,142.394 5.56,142.094 5.14,141.89 C4.96,141.782 4.768,141.728 4.564,141.728 C4.372,141.728 4.18,141.788 3.988,141.908 C3.724,142.064 3.46,142.256 3.196,142.484 C2.608,142.976 2.08,143.714 1.612,144.698 C1.144,145.67 0.91,146.594 0.91,147.47 C0.91,147.782 0.958,148.1 1.054,148.424 C1.126,148.652 1.258,148.838 1.45,148.982 C1.666,149.126 1.882,149.198 2.098,149.198 C2.266,149.198 2.428,149.162 2.584,149.09 C2.896,148.946 3.19,148.724 3.466,148.424 C4.186,147.668 4.708,147.014 5.032,146.462 C5.068,146.414 5.107,146.366 5.149,146.318 C5.191,146.27 5.242,146.21 5.302,146.138 L5.302,146.138 L5.248,146.516 C5.14,146.936 5.086,147.5 5.086,148.208 C5.086,148.508 5.152,148.772 5.284,149 C5.368,149.144 5.476,149.255 5.608,149.333 C5.74,149.411 5.878,149.45 6.022,149.45 Z M1.918,148.838 C1.774,148.706 1.672,148.508 1.612,148.244 C1.564,148.052 1.54,147.842 1.54,147.614 C1.54,147.302 1.588,146.972 1.684,146.624 C2.104,145.088 2.818,143.816 3.826,142.808 C4.126,142.508 4.426,142.304 4.726,142.196 C4.822,142.172 4.882,142.16 4.906,142.16 C5.062,142.16 5.17,142.262 5.23,142.466 C5.266,142.586 5.284,142.712 5.284,142.844 C5.284,143.252 5.242,143.738 5.158,144.302 L5.158,144.302 L5.086,144.914 C5.062,145.082 5.008,145.238 4.924,145.382 C4.516,146.054 4.186,146.573 3.934,146.939 C3.682,147.305 3.388,147.662 3.052,148.01 C2.668,148.418 2.29,148.694 1.918,148.838 Z M16.804,149.99 C16.936,149.99 17.062,149.948 17.182,149.864 C17.314,149.78 17.437,149.705 17.551,149.639 C17.665,149.573 17.77,149.51 17.866,149.45 C19.546,148.394 20.836,146.876 21.736,144.896 L21.736,144.896 L21.952,144.482 C22.072,144.434 22.162,144.404 22.222,144.392 C22.846,144.272 23.365,144.182 23.779,144.122 C24.193,144.062 24.604,144.032 25.012,144.032 C25.216,144.032 25.384,144.044 25.516,144.068 C25.648,144.092 25.756,144.152 25.84,144.248 C25.852,144.26 25.87,144.26 25.894,144.248 C25.918,144.236 25.948,144.224 25.984,144.212 C25.96,144.188 25.936,144.152 25.912,144.104 C25.888,144.056 25.864,144.026 25.84,144.014 C25.624,143.87 25.354,143.786 25.03,143.762 C24.946,143.75 24.814,143.744 24.634,143.744 C24.178,143.744 23.578,143.81 22.834,143.942 C22.774,143.954 22.675,143.975 22.537,144.005 C22.399,144.035 22.276,144.044 22.168,144.032 C22.18,143.996 22.186,143.948 22.186,143.888 C22.186,143.828 22.192,143.78 22.204,143.744 L22.204,143.744 L22.42,142.934 C22.48,142.754 22.51,142.532 22.51,142.268 C22.51,142.064 22.504,141.908 22.492,141.8 C22.468,141.536 22.351,141.302 22.141,141.098 C21.931,140.894 21.688,140.792 21.412,140.792 C21.172,140.792 20.932,140.876 20.692,141.044 C20.416,141.236 20.194,141.416 20.026,141.584 C19.378,142.232 18.826,143.024 18.37,143.96 C18.202,144.32 18.028,144.716 17.848,145.148 C17.836,145.16 17.824,145.19 17.812,145.238 C17.8,145.286 17.764,145.31 17.704,145.31 L17.704,145.31 L17.686,145.31 L17.776,144.752 C17.968,143.72 18.31,142.466 18.802,140.99 C18.946,140.582 19.144,140.294 19.396,140.126 C19.492,140.054 19.582,139.982 19.666,139.91 C19.75,139.838 19.822,139.778 19.882,139.73 C20.89,138.914 21.844,138.002 22.744,136.994 C23.608,136.046 24.508,134.894 25.444,133.538 C26.092,132.602 26.608,131.738 26.992,130.946 C27.244,130.418 27.418,129.908 27.514,129.416 C27.562,129.152 27.586,128.96 27.586,128.84 C27.586,128.672 27.574,128.552 27.55,128.48 C27.418,128 27.13,127.76 26.686,127.76 C26.506,127.76 26.35,127.79 26.218,127.85 C25.834,127.994 25.468,128.234 25.12,128.57 C24.64,129.05 24.286,129.422 24.058,129.686 C23.626,130.19 23.227,130.727 22.861,131.297 C22.495,131.867 22.09,132.548 21.646,133.34 C20.038,136.232 18.778,138.95 17.866,141.494 C17.554,142.406 17.308,143.3 17.128,144.176 C16.972,145.064 16.828,146.18 16.696,147.524 C16.672,147.86 16.606,148.166 16.498,148.442 C16.33,148.802 16.246,149.12 16.246,149.396 C16.246,149.648 16.36,149.828 16.588,149.936 C16.66,149.972 16.732,149.99 16.804,149.99 Z M19.342,139.73 C19.342,139.574 19.378,139.412 19.45,139.244 C19.63,138.908 19.801,138.545 19.963,138.155 C20.125,137.765 20.224,137.522 20.26,137.426 L20.26,137.426 L20.674,136.454 C21.202,135.23 21.862,133.934 22.654,132.566 C23.206,131.594 23.896,130.598 24.724,129.578 C25.18,129.038 25.654,128.63 26.146,128.354 C26.362,128.234 26.578,128.15 26.794,128.102 C26.89,128.078 26.971,128.09 27.037,128.138 C27.103,128.186 27.142,128.258 27.154,128.354 C27.166,128.426 27.172,128.546 27.172,128.714 L27.172,128.714 L27.172,128.858 C27.148,129.182 27.004,129.644 26.74,130.244 C26.272,131.3 25.702,132.296 25.03,133.232 L25.03,133.232 L24.634,133.772 C23.77,134.984 23.056,135.908 22.492,136.544 C22.036,137.048 21.334,137.786 20.386,138.758 L20.386,138.758 L19.954,139.19 L19.63,139.478 L19.342,139.73 Z M18.136,146.156 C18.148,146.096 18.157,146.039 18.163,145.985 C18.169,145.931 18.178,145.88 18.19,145.832 C18.382,145.448 18.52,145.16 18.604,144.968 C18.856,144.428 19.087,143.963 19.297,143.573 C19.507,143.183 19.75,142.814 20.026,142.466 C20.278,142.154 20.596,141.836 20.98,141.512 C21.1,141.416 21.268,141.326 21.484,141.242 C21.556,141.218 21.61,141.206 21.646,141.206 C21.778,141.206 21.862,141.284 21.898,141.44 C21.934,141.584 21.952,141.8 21.952,142.088 C21.94,142.628 21.76,143.288 21.412,144.068 C21.352,144.224 21.25,144.326 21.106,144.374 C20.062,144.758 19.126,145.328 18.298,146.084 C18.286,146.096 18.268,146.105 18.244,146.111 C18.22,146.117 18.184,146.132 18.136,146.156 Z M17.524,149.054 C17.488,148.994 17.47,148.94 17.47,148.892 L17.47,148.892 L17.47,148.856 C17.506,148.328 17.602,147.824 17.758,147.344 C17.782,147.224 17.866,147.08 18.01,146.912 C18.754,146.096 19.66,145.436 20.728,144.932 C20.764,144.92 20.803,144.908 20.845,144.896 C20.887,144.884 20.938,144.866 20.998,144.842 C20.71,145.55 20.209,146.336 19.495,147.2 C18.781,148.064 18.124,148.682 17.524,149.054 Z M32.932,149.612 C33.268,149.612 33.604,149.546 33.94,149.414 C34.672,149.15 35.38,148.646 36.064,147.902 C36.064,147.902 36.37,147.56 36.982,146.876 L36.982,146.876 L37.9,145.85 C38.32,145.394 38.968,144.728 39.844,143.852 C39.856,143.84 39.859,143.825 39.853,143.807 C39.847,143.789 39.844,143.774 39.844,143.762 C39.82,143.714 39.796,143.69 39.772,143.69 L39.772,143.69 L39.628,143.69 C39.556,143.69 39.484,143.696 39.412,143.708 C39.34,143.72 39.274,143.756 39.214,143.816 C39.202,143.828 39.034,143.978 38.71,144.266 L38.71,144.266 L38.242,144.698 C37.414,145.526 36.604,146.372 35.812,147.236 C35.404,147.68 34.948,148.1 34.444,148.496 C34.012,148.832 33.538,149.054 33.022,149.162 C32.902,149.186 32.812,149.198 32.752,149.198 C32.392,149.198 32.104,149.006 31.888,148.622 C31.828,148.526 31.792,148.442 31.78,148.37 C31.696,147.986 31.654,147.674 31.654,147.434 C31.654,147.302 31.66,147.2 31.672,147.128 C31.792,146.396 32.02,145.664 32.356,144.932 C32.704,144.164 33.166,143.492 33.742,142.916 C33.898,142.76 34.156,142.562 34.516,142.322 C34.624,142.25 34.756,142.19 34.912,142.142 C35.104,142.082 35.248,142.136 35.344,142.304 C35.428,142.46 35.524,142.676 35.632,142.952 C35.656,143.036 35.677,143.12 35.695,143.204 C35.713,143.288 35.734,143.372 35.758,143.456 C35.854,143.396 35.902,143.366 35.902,143.366 L35.902,143.366 L35.92,142.844 C35.92,142.544 35.836,142.31 35.668,142.142 C35.416,141.866 35.122,141.728 34.786,141.728 C34.726,141.728 34.624,141.74 34.48,141.764 C34.012,141.86 33.58,142.088 33.184,142.448 C32.728,142.868 32.344,143.33 32.032,143.834 C31.588,144.554 31.264,145.268 31.06,145.976 C30.916,146.492 30.844,146.948 30.844,147.344 C30.844,148.376 31.24,149.066 32.032,149.414 C32.308,149.546 32.608,149.612 32.932,149.612 Z M51.904,153.896 C52.012,153.896 52.126,153.854 52.246,153.77 C52.21,153.746 52.168,153.719 52.12,153.689 C52.072,153.659 52.036,153.644 52.012,153.644 C51.772,153.644 51.628,153.476 51.58,153.14 L51.58,153.14 L51.508,152.654 C51.46,152.39 51.43,152.192 51.418,152.06 C51.406,151.88 51.4,151.604 51.4,151.232 C51.4,150.596 51.46,149.63 51.58,148.334 C51.688,147.038 51.904,145.568 52.228,143.924 C52.528,142.328 52.894,140.828 53.326,139.424 C53.482,138.884 53.662,138.359 53.866,137.849 C54.07,137.339 54.352,136.658 54.712,135.806 L54.712,135.806 L55.306,134.42 C56.002,132.764 56.518,131.516 56.854,130.676 L56.854,130.676 L57.214,129.758 L57.25,129.596 C57.25,129.488 57.19,129.398 57.07,129.326 C57.034,129.302 56.986,129.281 56.926,129.263 L56.87,129.246 C56.8353333,129.235333 56.806,129.226 56.782,129.218 C56.614,129.386 56.452,129.626 56.296,129.938 C56.236,130.046 56.086,130.358 55.846,130.874 C55.786,130.994 55.723,131.123 55.657,131.261 C55.591,131.399 55.516,131.552 55.432,131.72 C55.072,132.416 54.712,133.268 54.352,134.276 L54.352,134.276 L53.83,135.68 C53.722,135.992 53.548,136.46 53.308,137.084 C53.02,137.828 52.576,138.944 51.976,140.432 L51.976,140.432 L51.778,140.936 C51.55,141.536 51.382,141.932 51.274,142.124 C51.262,142.136 51.247,142.163 51.229,142.205 C51.211,142.247 51.172,142.268 51.112,142.268 L51.112,142.268 L51.058,142.268 C51.01,142.196 50.986,142.136 50.986,142.088 C50.902,141.74 50.71,141.464 50.41,141.26 C50.11,141.056 49.768,140.954 49.384,140.954 C49.072,140.954 48.772,141.026 48.484,141.17 C48.064,141.374 47.716,141.644 47.44,141.98 C46.864,142.628 46.444,143.342 46.18,144.122 C45.88,144.986 45.73,145.76 45.73,146.444 C45.73,146.768 45.754,147.056 45.802,147.308 C45.838,147.632 45.916,147.908 46.036,148.136 C46.168,148.424 46.342,148.643 46.558,148.793 C46.774,148.943 47.008,149.018 47.26,149.018 C47.62,149.018 47.968,148.886 48.304,148.622 C48.628,148.358 49,147.944 49.42,147.38 C49.648,147.068 49.879,146.705 50.113,146.291 C50.347,145.877 50.566,145.478 50.77,145.094 C50.83,144.962 50.932,144.764 51.076,144.5 C51.088,144.476 51.115,144.413 51.157,144.311 C51.199,144.209 51.28,144.134 51.4,144.086 L51.4,144.086 L51.328,144.662 C51.28,144.878 51.25,145.04 51.238,145.148 C51.046,146.408 50.89,147.83 50.77,149.414 C50.746,149.966 50.734,150.38 50.734,150.656 C50.734,151.136 50.752,151.616 50.788,152.096 C50.824,152.468 50.884,152.786 50.968,153.05 C51.052,153.374 51.25,153.62 51.562,153.788 C51.706,153.86 51.82,153.896 51.904,153.896 Z M47.062,148.586 C46.966,148.586 46.864,148.514 46.756,148.37 C46.6,148.154 46.492,147.836 46.432,147.416 C46.408,147.224 46.396,147.08 46.396,146.984 L46.396,146.984 L46.342,146.48 C46.426,145.544 46.615,144.704 46.909,143.96 C47.203,143.216 47.65,142.556 48.25,141.98 C48.442,141.788 48.682,141.614 48.97,141.458 C49.15,141.362 49.36,141.314 49.6,141.314 C49.876,141.314 50.104,141.41 50.284,141.602 C50.584,141.95 50.752,142.4 50.788,142.952 C50.788,143.132 50.752,143.294 50.68,143.438 L50.68,143.438 L50.086,144.59 C49.75,145.262 49.444,145.844 49.168,146.336 C48.892,146.828 48.586,147.29 48.25,147.722 C47.926,148.106 47.614,148.37 47.314,148.514 C47.218,148.562 47.134,148.586 47.062,148.586 Z M61.786,149 C62.134,149 62.494,148.886 62.866,148.658 C63.418,148.262 63.856,147.908 64.18,147.596 L64.18,147.596 L64.954,146.858 C65.806,146.03 66.322,145.538 66.502,145.382 C66.694,145.202 66.994,144.98 67.402,144.716 C67.846,144.428 68.182,144.17 68.41,143.942 C68.422,143.93 68.428,143.888 68.428,143.816 C68.344,143.72 68.242,143.672 68.122,143.672 C68.062,143.672 67.972,143.696 67.852,143.744 C67.528,143.9 67.276,144.044 67.096,144.176 C66.34,144.836 65.56,145.508 64.756,146.192 C64.456,146.444 64.156,146.708 63.856,146.984 C63.1,147.632 62.722,147.956 62.722,147.956 C62.542,148.112 62.26,148.286 61.876,148.478 C61.78,148.526 61.714,148.55 61.678,148.55 C61.546,148.55 61.432,148.442 61.336,148.226 C61.264,148.094 61.216,147.908 61.192,147.668 C61.18,147.536 61.174,147.332 61.174,147.056 C61.174,146.264 61.3,145.466 61.552,144.662 L61.552,144.662 L61.732,144.644 L61.786,144.644 C61.906,144.68 62.032,144.698 62.164,144.698 C62.536,144.698 62.962,144.524 63.442,144.176 C64.282,143.588 64.912,142.754 65.332,141.674 C65.404,141.518 65.44,141.326 65.44,141.098 C65.44,140.774 65.335,140.513 65.125,140.315 C64.915,140.117 64.66,140.018 64.36,140.018 C64.264,140.018 64.132,140.042 63.964,140.09 C63.796,140.162 63.67,140.228 63.586,140.288 C63.502,140.36 63.361,140.474 63.163,140.63 C62.965,140.786 62.794,140.936 62.65,141.08 C62.482,141.248 62.29,141.482 62.074,141.782 C61.858,142.118 61.708,142.37 61.624,142.538 L61.624,142.538 L61.408,142.952 L61.174,143.366 C61.078,143.414 61.015,143.477 60.985,143.555 C60.955,143.633 60.934,143.741 60.922,143.879 C60.91,144.017 60.892,144.116 60.868,144.176 L60.868,144.176 L60.778,144.446 C60.622,145.082 60.508,145.568 60.436,145.904 C60.364,146.24 60.328,146.6 60.328,146.984 C60.328,147.296 60.376,147.644 60.472,148.028 C60.532,148.316 60.691,148.55 60.949,148.73 C61.207,148.91 61.486,149 61.786,149 Z M61.822,144.266 C61.762,144.206 61.732,144.152 61.732,144.104 C61.732,144.068 61.744,144.026 61.768,143.978 C62.008,143.366 62.257,142.835 62.515,142.385 C62.773,141.935 63.094,141.548 63.478,141.224 C63.574,141.14 63.844,140.954 64.288,140.666 C64.384,140.594 64.498,140.558 64.63,140.558 C64.726,140.558 64.828,140.576 64.936,140.612 C64.936,140.672 64.939,140.735 64.945,140.801 C64.951,140.867 64.948,140.942 64.936,141.026 C64.9,141.218 64.828,141.404 64.72,141.584 C64.288,142.364 63.784,143.036 63.208,143.6 C62.8,144.008 62.338,144.23 61.822,144.266 Z M69.616,163.508 C69.748,163.508 69.862,163.472 69.958,163.4 C70.078,163.304 70.174,163.202 70.246,163.094 C70.366,162.902 70.462,162.758 70.534,162.662 C70.57,162.602 70.612,162.536 70.66,162.464 C70.708,162.392 70.762,162.308 70.822,162.212 C71.29,161.456 71.968,160.286 72.856,158.702 L72.856,158.702 L73.09,158.288 C73.642,157.328 74.119,156.446 74.521,155.642 C74.923,154.838 75.274,154.028 75.574,153.212 C75.814,152.6 76,152.024 76.132,151.484 C76.264,150.944 76.33,150.392 76.33,149.828 C76.33,148.484 75.796,147.518 74.728,146.93 C74.584,146.846 74.47,146.762 74.386,146.678 C74.398,146.57 74.428,146.495 74.476,146.453 C74.524,146.411 74.596,146.372 74.692,146.336 C75.244,146.144 75.598,146.024 75.754,145.976 C76.798,145.604 77.506,145.364 77.878,145.256 C79.198,144.836 79.858,144.536 79.858,144.356 C79.858,144.296 79.774,144.266 79.606,144.266 L79.606,144.266 L79.318,144.302 C78.862,144.374 78.415,144.47 77.977,144.59 C77.539,144.71 77.02,144.872 76.42,145.076 L76.42,145.076 L76.042,145.202 C75.682,145.298 75.37,145.406 75.106,145.526 C75.07,145.538 75.022,145.547 74.962,145.553 C74.902,145.559 74.848,145.562 74.8,145.562 C74.812,145.514 74.821,145.469 74.827,145.427 C74.833,145.385 74.842,145.346 74.854,145.31 C74.998,144.95 75.118,144.62 75.214,144.32 L75.214,144.32 L75.43,143.726 C76.114,141.83 76.594,140.528 76.87,139.82 C77.686,137.708 78.454,135.866 79.174,134.294 C79.318,133.934 79.408,133.664 79.444,133.484 C79.444,133.472 79.447,133.439 79.453,133.385 C79.459,133.331 79.432,133.292 79.372,133.268 C79.336,133.256 79.3,133.259 79.264,133.277 C79.228,133.295 79.204,133.316 79.192,133.34 C79.132,133.472 79.03,133.658 78.886,133.898 C78.13,135.122 77.38,136.64 76.636,138.452 C76.228,139.424 75.64,140.894 74.872,142.862 L74.872,142.862 L74.35,144.158 C73.786,145.898 73.246,147.416 72.73,148.712 L72.73,148.712 L72.496,149.342 C71.944,150.842 71.392,152.534 70.84,154.418 C70.204,156.626 69.694,158.72 69.31,160.7 C69.19,161.276 69.094,161.9 69.022,162.572 C69.01,162.632 69.004,162.722 69.004,162.842 C69.004,162.962 69.01,163.052 69.022,163.112 C69.022,163.208 69.064,163.286 69.148,163.346 C69.28,163.454 69.436,163.508 69.616,163.508 Z M69.976,162.176 C69.988,161.564 70.291,160.112 70.885,157.82 C71.479,155.528 72.121,153.275 72.811,151.061 C73.501,148.847 73.99,147.524 74.278,147.092 C74.494,147.188 74.71,147.362 74.926,147.614 C75.358,148.118 75.592,148.682 75.628,149.306 C75.64,149.426 75.646,149.6 75.646,149.828 C75.646,150.26 75.604,150.662 75.52,151.034 C75.208,152.306 74.728,153.656 74.08,155.084 C73.528,156.248 72.73,157.706 71.686,159.458 L71.686,159.458 L71.2,160.304 L70.246,161.888 C70.222,161.924 70.189,161.978 70.147,162.05 C70.105,162.122 70.048,162.164 69.976,162.176 Z M84.052,165.47 C84.148,165.47 84.235,165.437 84.313,165.371 C84.391,165.305 84.454,165.218 84.502,165.11 C84.562,164.954 84.61,164.816 84.646,164.696 C84.694,164.516 84.796,164.174 84.952,163.67 L84.952,163.67 L85.15,163.022 L85.636,161.312 C86.068,159.728 86.41,158.54 86.662,157.748 L86.662,157.748 L86.914,156.992 C86.998,156.74 87.13,156.326 87.31,155.75 C87.49,155.174 87.646,154.658 87.778,154.202 C87.79,154.178 87.844,154.064 87.94,153.86 L87.94,153.86 L88.282,153.806 C88.942,153.674 89.566,153.566 90.154,153.482 C91.198,153.302 91.942,153.164 92.386,153.068 C92.722,152.996 93.214,152.852 93.862,152.636 C94.042,152.576 94.204,152.492 94.348,152.384 C94.612,152.168 94.744,151.946 94.744,151.718 C94.744,151.574 94.666,151.478 94.51,151.43 L94.51,151.43 L94.276,151.394 C94.168,151.694 94.069,151.889 93.979,151.979 C93.889,152.069 93.706,152.168 93.43,152.276 C93.37,152.3 93.232,152.342 93.016,152.402 C92.368,152.582 91.744,152.726 91.144,152.834 L91.144,152.834 L90.316,152.978 C89.644,153.086 89.092,153.182 88.66,153.266 C88.54,153.29 88.45,153.302 88.39,153.302 C88.282,153.302 88.192,153.272 88.12,153.212 L88.12,153.212 L88.228,152.834 C88.384,152.318 88.684,151.49 89.128,150.35 L89.128,150.35 L89.416,149.594 C89.584,149.162 89.824,148.514 90.136,147.65 C90.676,146.186 91.024,145.262 91.18,144.878 C91.504,144.026 91.816,143.15 92.116,142.25 C92.164,142.082 92.206,141.932 92.242,141.8 C92.278,141.668 92.308,141.554 92.332,141.458 C92.344,141.422 92.35,141.374 92.35,141.314 C92.35,141.182 92.296,141.08 92.188,141.008 L92.188,141.008 L92.026,140.882 C91.942,140.81 91.864,140.774 91.792,140.774 C91.72,140.774 91.648,140.834 91.576,140.954 L91.576,140.954 L91.234,141.566 L91.036,141.458 C90.628,141.182 90.196,141.044 89.74,141.044 C89.428,141.044 89.098,141.116 88.75,141.26 C87.946,141.596 87.292,142.154 86.788,142.934 C86.236,143.786 85.858,144.752 85.654,145.832 C85.594,146.168 85.564,146.486 85.564,146.786 C85.564,147.074 85.588,147.338 85.636,147.578 C85.732,148.106 85.984,148.514 86.392,148.802 C86.608,148.946 86.83,149.018 87.058,149.018 C87.238,149.018 87.394,148.988 87.526,148.928 C87.85,148.796 88.102,148.622 88.282,148.406 L88.282,148.406 L88.786,147.776 C88.87,147.632 88.972,147.494 89.092,147.362 C89.104,147.35 89.125,147.317 89.155,147.263 C89.185,147.209 89.236,147.182 89.308,147.182 L89.308,147.182 L89.344,147.182 L89.128,147.776 C88.912,148.328 88.72,148.838 88.552,149.306 L88.552,149.306 L88.3,149.99 C88.12,150.53 87.952,150.986 87.796,151.358 C87.688,151.646 87.574,151.964 87.454,152.312 C87.274,152.864 87.136,153.242 87.04,153.446 C86.992,153.458 86.95,153.47 86.914,153.482 C86.878,153.494 86.848,153.5 86.824,153.5 C86.284,153.56 85.744,153.605 85.204,153.635 C84.664,153.665 84.13,153.686 83.602,153.698 C82.978,153.71 82.288,153.638 81.532,153.482 C81.34,153.446 81.181,153.389 81.055,153.311 C80.929,153.233 80.824,153.122 80.74,152.978 C80.68,152.87 80.593,152.756 80.479,152.636 C80.365,152.516 80.284,152.432 80.236,152.384 C80.008,152.12 79.726,151.988 79.39,151.988 C79.33,151.988 79.282,152.006 79.246,152.042 C79.21,152.078 79.192,152.12 79.192,152.168 C79.192,152.204 79.198,152.234 79.21,152.258 C79.234,152.294 79.273,152.366 79.327,152.474 C79.381,152.582 79.438,152.666 79.498,152.726 C79.762,152.99 80.014,153.194 80.254,153.338 C80.518,153.506 80.722,153.734 80.866,154.022 C81.322,154.946 81.754,156.032 82.162,157.28 C82.69,158.948 83.044,160.622 83.224,162.302 C83.236,162.494 83.266,162.74 83.314,163.04 L83.314,163.04 L83.44,164.372 C83.452,164.48 83.473,164.603 83.503,164.741 C83.533,164.879 83.554,164.99 83.566,165.074 C83.59,165.182 83.644,165.272 83.728,165.344 C83.824,165.428 83.932,165.47 84.052,165.47 Z M86.806,148.532 L86.77,148.532 C86.638,148.472 86.548,148.34 86.5,148.136 C86.38,147.632 86.32,147.236 86.32,146.948 C86.32,146.288 86.446,145.598 86.698,144.878 C87.07,143.834 87.526,143.03 88.066,142.466 C88.534,141.986 89.074,141.656 89.686,141.476 C89.83,141.428 89.992,141.404 90.172,141.404 C90.544,141.404 90.862,141.53 91.126,141.782 L91.126,141.782 L91.018,142.088 C90.754,142.736 90.376,143.498 89.884,144.374 L89.884,144.374 L89.542,145.022 C88.966,146.102 88.48,146.918 88.084,147.47 C87.844,147.806 87.568,148.094 87.256,148.334 C87.1,148.466 86.95,148.532 86.806,148.532 L86.806,148.532 Z M84.124,163.526 C84.04,163.43 83.992,163.328 83.98,163.22 C83.968,163.112 83.962,163.052 83.962,163.04 C83.926,162.716 83.887,162.431 83.845,162.185 C83.803,161.939 83.77,161.726 83.746,161.546 C83.698,161.342 83.668,161.174 83.656,161.042 C83.452,159.83 83.086,158.456 82.558,156.92 C82.498,156.764 82.42,156.53 82.324,156.218 C82.18,155.762 82.039,155.363 81.901,155.021 C81.763,154.679 81.598,154.364 81.406,154.076 C81.382,154.04 81.37,153.986 81.37,153.914 L81.37,153.914 L81.46,153.878 C82.204,154.094 83.002,154.202 83.854,154.202 C84.226,154.202 84.688,154.178 85.24,154.13 L85.24,154.13 L85.708,154.094 C85.888,154.07 86.224,154.046 86.716,154.022 C86.764,154.082 86.788,154.142 86.788,154.202 C86.788,154.25 86.782,154.292 86.77,154.328 C86.758,154.364 86.746,154.394 86.734,154.418 C86.674,154.742 86.536,155.216 86.32,155.84 C86.176,156.248 86.074,156.56 86.014,156.776 L86.014,156.776 L85.51,158.594 C85.258,159.41 85.006,160.316 84.754,161.312 L84.754,161.312 L84.538,162.104 C84.502,162.248 84.454,162.422 84.394,162.626 C84.334,162.83 84.274,163.064 84.214,163.328 C84.202,163.352 84.172,163.418 84.124,163.526 Z M98.488,151.106 C98.656,151.106 98.782,151.016 98.866,150.836 C98.89,150.788 98.905,150.746 98.911,150.71 C98.917,150.674 98.92,150.644 98.92,150.62 C99.124,149.78 99.415,148.958 99.793,148.154 C100.171,147.35 100.624,146.51 101.152,145.634 C101.512,145.034 102.004,144.308 102.628,143.456 L102.628,143.456 L102.898,143.06 C103.114,142.748 103.336,142.478 103.564,142.25 C103.588,142.226 103.618,142.214 103.654,142.214 C103.69,142.286 103.696,142.358 103.672,142.43 C103.648,142.502 103.63,142.55 103.618,142.574 C103.354,143.342 103.174,144.218 103.078,145.202 C103.03,145.73 103.006,146.132 103.006,146.408 C103.006,146.864 103.042,147.338 103.114,147.83 C103.162,148.202 103.294,148.574 103.51,148.946 C103.702,149.27 103.99,149.48 104.374,149.576 C104.47,149.6 104.548,149.612 104.608,149.612 C104.8,149.612 104.968,149.558 105.112,149.45 C105.256,149.366 105.361,149.288 105.427,149.216 C105.493,149.144 105.532,149.048 105.544,148.928 C105.472,148.82 105.352,148.766 105.184,148.766 L105.184,148.766 L105.058,148.766 C105.01,148.814 104.953,148.874 104.887,148.946 C104.821,149.018 104.752,149.078 104.68,149.126 C104.608,149.174 104.524,149.198 104.428,149.198 C104.284,149.126 104.176,148.988 104.104,148.784 C103.996,148.472 103.924,148.172 103.888,147.884 C103.852,147.524 103.834,147.158 103.834,146.786 C103.834,146.378 103.852,145.976 103.888,145.58 C103.96,144.752 104.152,143.804 104.464,142.736 C104.584,142.304 104.668,141.932 104.716,141.62 C104.74,141.452 104.716,141.311 104.644,141.197 C104.572,141.083 104.446,140.978 104.266,140.882 C104.146,140.822 104.056,140.792 103.996,140.792 C103.9,140.792 103.768,140.876 103.6,141.044 L103.6,141.044 L103.33,141.314 C103.042,141.602 102.775,141.908 102.529,142.232 C102.283,142.556 101.986,142.97 101.638,143.474 C101.554,143.594 101.437,143.765 101.287,143.987 C101.137,144.209 101.002,144.398 100.882,144.554 C100.738,144.746 100.636,144.89 100.576,144.986 C100.576,144.77 100.597,144.56 100.639,144.356 C100.681,144.152 100.744,143.9 100.828,143.6 L100.828,143.6 L100.936,143.168 C100.984,142.952 101.098,142.58 101.278,142.052 L101.278,142.052 L101.494,141.386 C101.662,140.846 101.812,140.39 101.944,140.018 C101.968,139.91 102.016,139.76 102.088,139.568 C102.304,138.92 102.508,138.332 102.7,137.804 L102.7,137.804 L103.348,136.058 L104.05,134.33 C104.146,134.09 104.236,133.88 104.32,133.7 C104.404,133.52 104.476,133.358 104.536,133.214 L104.536,133.214 L104.824,132.584 C104.884,132.428 104.986,132.206 105.13,131.918 L105.268375,131.642375 C105.401125,131.370125 105.517,131.108 105.616,130.856 C105.58,130.868 105.541,130.88 105.499,130.892 C105.457,130.904 105.43,130.916 105.418,130.928 C105.274,131.072 105.16,131.21 105.076,131.342 C104.752,131.858 104.398,132.5 104.014,133.268 C102.766,135.776 101.608,138.656 100.54,141.908 C99.904,143.852 99.106,146.51 98.146,149.882 L98.146,149.882 L97.984,150.458 C97.984,150.482 97.966,150.614 97.93,150.854 C97.978,150.878 98.059,150.926 98.173,150.998 C98.287,151.07 98.392,151.106 98.488,151.106 Z M114.886,141.314 C114.97,141.338 115.045,141.323 115.111,141.269 C115.177,141.215 115.21,141.14 115.21,141.044 C115.21,140.9 115.156,140.774 115.048,140.666 C114.904,140.522 114.754,140.438 114.598,140.414 C114.502,140.534 114.454,140.642 114.454,140.738 C114.454,140.798 114.472,140.864 114.508,140.936 C114.58,141.116 114.706,141.242 114.886,141.314 Z M112.996,149.054 C113.08,149.054 113.164,149.03 113.248,148.982 L113.248,148.982 L113.23,148.37 C113.23,148.238 113.236,148.142 113.248,148.082 C113.428,147.182 113.587,146.423 113.725,145.805 C113.863,145.187 114.022,144.578 114.202,143.978 C114.358,143.474 114.454,143.12 114.49,142.916 C114.514,142.82 114.511,142.751 114.481,142.709 C114.451,142.667 114.394,142.622 114.31,142.574 C114.262,142.55 114.223,142.538 114.193,142.538 C114.163,142.538 114.136,142.532 114.112,142.52 C114.004,142.58 113.929,142.661 113.887,142.763 C113.845,142.865 113.818,142.934 113.806,142.97 C113.278,144.146 112.876,145.622 112.6,147.398 C112.564,147.662 112.522,148.028 112.474,148.496 C112.462,148.652 112.546,148.802 112.726,148.946 C112.81,149.018 112.9,149.054 112.996,149.054 Z M125.236,140.144 C125.32,140.168 125.395,140.153 125.461,140.099 C125.527,140.045 125.56,139.97 125.56,139.874 C125.56,139.73 125.506,139.604 125.398,139.496 C125.254,139.352 125.104,139.268 124.948,139.244 C124.852,139.364 124.804,139.472 124.804,139.568 C124.804,139.628 124.822,139.694 124.858,139.766 C124.93,139.946 125.056,140.072 125.236,140.144 Z M111.466,172.202 C111.73,172.202 111.994,172.112 112.258,171.932 C112.282,171.92 112.456,171.782 112.78,171.518 C113.008,171.338 113.221,171.131 113.419,170.897 C113.617,170.663 113.848,170.366 114.112,170.006 C114.628,169.298 115.099,168.545 115.525,167.747 C115.951,166.949 116.422,165.992 116.938,164.876 C117.466,163.724 118.048,162.284 118.684,160.556 L118.684,160.556 L119.872,157.262 C119.908,157.154 120.07,156.692 120.358,155.876 C120.406,155.72 120.466,155.552 120.538,155.372 C120.61,155.192 120.682,154.994 120.754,154.778 C120.838,154.55 120.994,154.394 121.222,154.31 C121.774,154.094 122.47,153.926 123.31,153.806 C123.814,153.734 124.186,153.698 124.426,153.698 C124.654,153.698 124.918,153.728 125.218,153.788 C125.458,153.848 125.629,153.926 125.731,154.022 C125.833,154.118 125.884,154.28 125.884,154.508 L125.884,154.508 L125.884,154.724 C125.908,154.736 125.935,154.757 125.965,154.787 C125.995,154.817 126.028,154.838 126.064,154.85 C126.112,154.862 126.172,154.868 126.244,154.868 C126.376,154.868 126.442,154.766 126.442,154.562 C126.442,154.262 126.352,154.046 126.172,153.914 C125.992,153.77 125.788,153.65 125.56,153.554 C125.188,153.398 124.732,153.32 124.192,153.32 C123.412,153.32 122.482,153.458 121.402,153.734 C121.354,153.746 121.306,153.749 121.258,153.743 C121.21,153.737 121.168,153.734 121.132,153.734 C121.156,153.662 121.174,153.587 121.186,153.509 C121.198,153.431 121.222,153.356 121.258,153.284 C121.426,152.9 121.594,152.426 121.762,151.862 L121.762,151.862 L122.014,151.106 C122.422,149.906 122.878,148.478 123.382,146.822 L123.382,146.822 L123.922,145.04 C124.306,143.816 124.582,142.892 124.75,142.268 C124.762,142.208 124.789,142.118 124.831,141.998 C124.873,141.878 124.894,141.77 124.894,141.674 C124.894,141.65 124.876,141.605 124.84,141.539 C124.804,141.473 124.774,141.404 124.75,141.332 C124.654,141.44 124.567,141.554 124.489,141.674 C124.411,141.794 124.345,141.923 124.291,142.061 C124.237,142.199 124.204,142.286 124.192,142.322 C123.856,143.114 123.466,144.158 123.022,145.454 L123.022,145.454 L121.132,150.89 L120.106,153.842 C120.058,153.974 120.001,154.079 119.935,154.157 C119.869,154.235 119.776,154.298 119.656,154.346 C118.996,154.586 118.363,154.907 117.757,155.309 C117.151,155.711 116.512,156.206 115.84,156.794 C114.088,158.294 112.732,159.908 111.772,161.636 C111.076,162.896 110.554,164.12 110.206,165.308 C109.918,166.304 109.75,167.18 109.702,167.936 C109.678,168.368 109.666,168.68 109.666,168.872 C109.666,169.484 109.714,170.03 109.81,170.51 C109.894,170.918 110.05,171.266 110.278,171.554 C110.614,171.986 111.01,172.202 111.466,172.202 Z M111.196,171.68 C111.1,171.668 111.025,171.629 110.971,171.563 C110.917,171.497 110.866,171.41 110.818,171.302 C110.626,170.87 110.5,170.492 110.44,170.168 C110.356,169.736 110.314,169.262 110.314,168.746 C110.314,168.134 110.38,167.498 110.512,166.838 C110.8,165.41 111.28,164.018 111.952,162.662 C112.48,161.606 113.152,160.586 113.968,159.602 C114.712,158.726 115.522,157.916 116.398,157.172 C117.466,156.272 118.414,155.618 119.242,155.21 C119.266,155.198 119.299,155.18 119.341,155.156 C119.383,155.132 119.428,155.108 119.476,155.084 C119.488,155.072 119.554,155.06 119.674,155.048 C119.542,155.468 119.458,155.726 119.422,155.822 C119.026,156.842 118.666,157.82 118.342,158.756 C117.898,159.956 117.64,160.652 117.568,160.844 C116.992,162.392 116.392,163.826 115.768,165.146 C114.856,167.066 113.986,168.602 113.158,169.754 C112.81,170.234 112.39,170.72 111.898,171.212 C111.634,171.476 111.4,171.632 111.196,171.68 Z M132.328,151.808 C132.412,151.844 132.499,151.832 132.589,151.772 C132.679,151.712 132.736,151.628 132.76,151.52 C132.772,151.46 132.793,151.361 132.823,151.223 C132.853,151.085 132.862,150.968 132.85,150.872 C132.826,150.632 132.874,150.272 132.994,149.792 C133.186,148.868 133.384,148.088 133.588,147.452 L133.588,147.452 L133.66,147.182 C133.672,147.158 133.687,147.11 133.705,147.038 C133.723,146.966 133.774,146.918 133.858,146.894 C133.918,146.978 133.978,147.074 134.038,147.182 C134.338,147.746 134.752,148.298 135.28,148.838 C135.844,149.402 136.444,149.798 137.08,150.026 C137.344,150.122 137.602,150.17 137.854,150.17 C138.046,150.17 138.22,150.146 138.376,150.098 C138.88,149.942 139.246,149.708 139.474,149.396 C139.33,149.288 139.192,149.234 139.06,149.234 C138.916,149.234 138.784,149.288 138.664,149.396 C138.592,149.468 138.508,149.522 138.412,149.558 C138.376,149.57 138.277,149.603 138.115,149.657 C137.953,149.711 137.806,149.738 137.674,149.738 C137.53,149.738 137.404,149.714 137.296,149.666 C136.984,149.534 136.69,149.336 136.414,149.072 C135.514,148.268 134.806,147.17 134.29,145.778 C134.254,145.67 134.236,145.568 134.236,145.472 C134.236,145.34 134.266,145.196 134.326,145.04 C134.374,144.884 134.458,144.65 134.578,144.338 L134.578,144.338 L134.992,143.114 L135.532,142.844 C135.772,142.724 136.222,142.466 136.882,142.07 C137.806,141.506 138.976,140.642 140.392,139.478 C140.62,139.298 140.866,139.076 141.13,138.812 L141.13,138.812 L141.67,138.29 C141.694,138.266 141.706,138.239 141.706,138.209 C141.706,138.179 141.7,138.158 141.688,138.146 C141.664,138.086 141.622,138.068 141.562,138.092 C141.37,138.188 141.226,138.278 141.13,138.362 C140.59,138.77 140.05,139.166 139.51,139.55 C139.39,139.646 139.21,139.778 138.97,139.946 C137.866,140.75 136.798,141.446 135.766,142.034 L135.766,142.034 L135.406,142.196 C135.406,142.016 135.442,141.848 135.514,141.692 C135.586,141.536 135.628,141.44 135.64,141.404 L135.64,141.404 L135.946,140.63 C136.03,140.414 136.3,139.754 136.756,138.65 C137.212,137.546 137.668,136.508 138.124,135.536 L138.124,135.536 L138.538,134.654 C139.306,132.986 139.9,131.75 140.32,130.946 C140.368,130.85 140.431,130.736 140.509,130.604 C140.587,130.472 140.668,130.316 140.752,130.136 C140.8,130.04 140.824,129.968 140.824,129.92 L140.824,129.92 L140.788,129.83 C140.764,129.794 140.722,129.791 140.662,129.821 C140.602,129.851 140.542,129.908 140.482,129.992 C140.326,130.172 140.23,130.298 140.194,130.37 C140.062,130.634 139.876,130.952 139.636,131.324 C139.492,131.54 139.342,131.78 139.186,132.044 C138.742,132.836 138.346,133.58 137.998,134.276 L137.998,134.276 L137.476,135.356 C136.78,136.796 136.324,137.762 136.108,138.254 C135.64,139.31 135.07,140.714 134.398,142.466 C134.326,142.67 134.2,142.808 134.02,142.88 L134.02,142.88 L133.66,143.006 C133.492,143.078 133.288,143.156 133.048,143.24 C132.832,143.312 132.724,143.402 132.724,143.51 C132.724,143.57 132.748,143.642 132.796,143.726 C132.916,143.942 133.066,144.356 133.246,144.968 C133.282,145.088 133.3,145.214 133.3,145.346 C133.3,145.502 133.276,145.646 133.228,145.778 C133.048,146.378 132.904,146.93 132.796,147.434 L132.796,147.434 L132.544,148.424 C132.268,149.42 132.088,150.278 132.004,150.998 C131.98,151.286 131.968,151.502 131.968,151.646 L131.968,151.646 L132.184,151.754 L132.328,151.808 Z M133.768,144.086 C133.672,144.062 133.603,144.014 133.561,143.942 C133.519,143.87 133.492,143.822 133.48,143.798 C133.576,143.738 133.642,143.702 133.678,143.69 C133.714,143.678 133.792,143.672 133.912,143.672 C133.876,143.744 133.849,143.816 133.831,143.888 C133.813,143.96 133.792,144.026 133.768,144.086 Z M146.926,150.35 C147.178,150.398 147.382,150.302 147.538,150.062 C147.574,150.014 147.592,149.966 147.592,149.918 C147.592,149.834 147.526,149.762 147.394,149.702 C147.382,149.702 147.268,149.684 147.052,149.648 C147.052,149.564 147.049,149.465 147.043,149.351 C147.037,149.237 147.04,149.108 147.052,148.964 C147.1,148.328 147.214,147.644 147.394,146.912 C147.442,146.744 147.52,146.414 147.628,145.922 C148.084,144.122 148.336,143.138 148.384,142.97 C148.912,141.014 149.71,138.74 150.778,136.148 C151.522,134.348 152.11,133.01 152.542,132.134 C152.962,131.282 153.46,130.328 154.036,129.272 L154.036,129.272 L154.756,127.976 C154.792,127.904 154.81,127.85 154.81,127.814 C154.81,127.778 154.789,127.745 154.747,127.715 C154.705,127.685 154.648,127.658 154.576,127.634 L154.576,127.634 L154.45,127.724 C154.174,128 153.832,128.45 153.424,129.074 C152.956,129.794 152.518,130.556 152.11,131.36 C151.006,133.58 150.166,135.386 149.59,136.778 C148.942,138.35 148.288,140.21 147.628,142.358 C147.1,144.11 146.746,145.64 146.566,146.948 C146.542,147.164 146.518,147.314 146.494,147.398 C146.374,148.238 146.314,148.868 146.314,149.288 C146.314,149.42 146.338,149.618 146.386,149.882 C146.434,150.122 146.614,150.278 146.926,150.35 Z M166.114,150.836 C166.246,150.836 166.342,150.824 166.402,150.8 C166.522,150.764 166.618,150.719 166.69,150.665 C166.762,150.611 166.816,150.53 166.852,150.422 C166.828,150.41 166.792,150.389 166.744,150.359 C166.696,150.329 166.66,150.308 166.636,150.296 C166.528,150.26 166.426,150.26 166.33,150.296 C166.234,150.332 166.174,150.356 166.15,150.368 C166.066,150.404 165.994,150.422 165.934,150.422 C165.826,150.422 165.748,150.344 165.7,150.188 C165.58,149.876 165.514,149.588 165.502,149.324 C165.49,149.168 165.484,148.934 165.484,148.622 C165.484,147.686 165.61,146.822 165.862,146.03 C166.15,145.154 166.408,144.41 166.636,143.798 L166.636,143.798 L166.888,143.078 C166.96,142.898 167.026,142.652 167.086,142.34 C167.098,142.304 167.104,142.25 167.104,142.178 C167.104,141.95 167.002,141.764 166.798,141.62 C166.618,141.476 166.438,141.404 166.258,141.404 C166.174,141.404 166.06,141.428 165.916,141.476 C165.712,141.548 165.517,141.656 165.331,141.8 C165.145,141.944 165.034,142.028 164.998,142.052 C164.458,142.46 163.834,143.078 163.126,143.906 C162.694,144.386 162.37,144.734 162.154,144.95 L162.154,144.95 L162.064,145.076 L162.064,145.076 L162.019,145.121 C162.001,145.139 161.98,145.151 161.956,145.157 C161.932,145.163 161.902,145.148 161.866,145.112 C161.962,144.8 162.028,144.56 162.064,144.392 C162.088,144.272 162.136,144.092 162.208,143.852 C162.304,143.528 162.364,143.3 162.388,143.168 C162.424,142.988 162.442,142.802 162.442,142.61 C162.442,142.478 162.436,142.376 162.424,142.304 C162.388,142.064 162.286,141.869 162.118,141.719 C161.95,141.569 161.758,141.494 161.542,141.494 C161.362,141.494 161.206,141.536 161.074,141.62 C160.882,141.728 160.702,141.854 160.534,141.998 C159.61,142.814 158.878,143.63 158.338,144.446 C158.326,144.47 158.299,144.512 158.257,144.572 C158.215,144.632 158.167,144.692 158.113,144.752 C158.059,144.812 157.99,144.854 157.906,144.878 C157.918,144.842 157.924,144.797 157.924,144.743 C157.924,144.689 157.93,144.65 157.942,144.626 C158.158,144.194 158.404,143.588 158.68,142.808 C158.752,142.628 158.836,142.415 158.932,142.169 C159.028,141.923 159.142,141.644 159.274,141.332 C159.358,141.14 159.4,140.984 159.4,140.864 C159.4,140.84 159.394,140.816 159.382,140.792 C159.37,140.768 159.352,140.75 159.328,140.738 C159.256,140.714 159.208,140.708 159.184,140.72 C159.076,140.768 158.974,140.888 158.878,141.08 C158.374,142.064 158.008,142.802 157.78,143.294 C157.3,144.35 156.742,145.676 156.106,147.272 L156.106,147.272 L155.836,147.956 C155.776,148.088 155.722,148.232 155.674,148.388 C155.626,148.544 155.608,148.694 155.62,148.838 C155.74,148.922 155.806,148.97 155.818,148.982 C155.962,149.054 156.082,149.09 156.178,149.09 C156.334,149.09 156.484,148.976 156.628,148.748 C156.796,148.46 156.988,148.118 157.204,147.722 L157.204,147.722 L157.6,147.038 C158.488,145.514 159.388,144.272 160.3,143.312 C160.54,143.072 160.726,142.898 160.858,142.79 L160.858,142.79 L161.344,142.34 C161.452,142.232 161.542,142.178 161.614,142.178 C161.662,142.178 161.698,142.184 161.722,142.196 C161.734,142.244 161.74,142.31 161.74,142.394 C161.74,142.538 161.692,142.754 161.596,143.042 C161.392,143.642 161.146,144.428 160.858,145.4 C160.738,145.82 160.546,146.45 160.282,147.29 C160.234,147.434 160.21,147.554 160.21,147.65 C160.21,147.722 160.228,147.806 160.264,147.902 C160.408,148.022 160.516,148.1 160.588,148.136 C160.624,148.16 160.684,148.172 160.768,148.172 C160.912,148.172 161.014,148.124 161.074,148.028 L161.074,148.028 L161.236,147.74 C161.428,147.416 161.542,147.23 161.578,147.182 C161.842,146.714 162.106,146.276 162.37,145.868 C162.766,145.268 163.12,144.8 163.432,144.464 L163.432,144.464 L163.81,144.068 C164.266,143.54 164.662,143.132 164.998,142.844 C165.142,142.712 165.358,142.55 165.646,142.358 C165.718,142.31 165.796,142.256 165.88,142.196 C165.964,142.136 166.048,142.07 166.132,141.998 C166.204,141.95 166.264,141.926 166.312,141.926 C166.384,141.926 166.444,141.956 166.492,142.016 C166.48,142.136 166.45,142.262 166.402,142.394 C166.354,142.526 166.3,142.652 166.24,142.772 C165.784,143.744 165.412,144.698 165.124,145.634 C164.848,146.534 164.71,147.44 164.71,148.352 L164.71,148.352 L164.728,148.838 C164.74,149.102 164.806,149.474 164.926,149.954 C165.034,150.338 165.292,150.608 165.7,150.764 C165.832,150.812 165.97,150.836 166.114,150.836 Z M179.74,149.792 C179.992,149.828 180.184,149.75 180.316,149.558 C180.244,149.45 180.124,149.396 179.956,149.396 L179.956,149.396 L179.848,149.396 C179.728,149.408 179.626,149.384 179.542,149.324 C179.458,149.264 179.398,149.18 179.362,149.072 C179.29,148.904 179.236,148.718 179.2,148.514 C179.116,148.106 179.074,147.662 179.074,147.182 C179.074,146.87 179.092,146.564 179.128,146.264 C179.2,145.664 179.344,144.89 179.56,143.942 C179.608,143.702 179.656,143.354 179.704,142.898 C179.752,142.466 179.59,142.106 179.218,141.818 C179.014,141.674 178.816,141.602 178.624,141.602 C178.492,141.602 178.372,141.626 178.264,141.674 C178.012,141.806 177.808,141.932 177.652,142.052 C177.052,142.508 176.59,142.976 176.266,143.456 C176.242,143.504 176.197,143.561 176.131,143.627 C176.065,143.693 176.014,143.75 175.978,143.798 L175.978,143.798 L176.032,143.366 C176.104,143.162 176.2,142.856 176.32,142.448 C176.368,142.304 176.392,142.196 176.392,142.124 C176.392,142.088 176.38,142.034 176.356,141.962 C176.224,141.962 176.14,142.034 176.104,142.178 C176.032,142.442 175.912,142.736 175.744,143.06 C175.732,143.084 175.719333,143.109333 175.706,143.136 L175.618,143.312 C175.57,143.408 175.522,143.522 175.474,143.654 C175.234,144.266 174.934,145.094 174.574,146.138 L174.574,146.138 L174.322,146.876 C174.286,146.984 174.226,147.158 174.142,147.398 C174.058,147.638 173.992,147.848 173.944,148.028 C173.92,148.088 173.908,148.16 173.908,148.244 C173.908,148.352 173.992,148.448 174.16,148.532 C174.244,148.58 174.322,148.604 174.394,148.604 C174.538,148.604 174.634,148.508 174.682,148.316 C174.958,147.404 175.306,146.552 175.726,145.76 C176.218,144.848 176.794,144.008 177.454,143.24 C177.826,142.832 178.252,142.508 178.732,142.268 C178.78,142.256 178.864,142.25 178.984,142.25 C178.984,142.298 178.987,142.352 178.993,142.412 C178.999,142.472 178.996,142.544 178.984,142.628 C178.96,142.808 178.912,143.018 178.84,143.258 C178.624,144.194 178.474,144.896 178.39,145.364 C178.27,145.988 178.21,146.552 178.21,147.056 C178.21,147.344 178.24,147.68 178.3,148.064 C178.372,148.448 178.438,148.73 178.498,148.91 C178.666,149.39 179.08,149.684 179.74,149.792 Z M189.262,149.432 C189.514,149.432 189.784,149.366 190.072,149.234 C190.324,149.114 190.606,148.94 190.918,148.712 C191.434,148.328 191.914,147.734 192.358,146.93 C192.754,146.198 192.952,145.52 192.952,144.896 C192.952,144.488 192.874,144.086 192.718,143.69 C192.706,143.654 192.7,143.606 192.7,143.546 C192.7,143.486 192.694,143.438 192.682,143.402 C192.958,143.402 193.258,143.414 193.582,143.438 C193.906,143.462 194.128,143.48 194.248,143.492 C194.68,143.528 195.052,143.702 195.364,144.014 L195.364,144.014 L195.49,144.122 C195.514,144.146 195.544,144.158 195.58,144.158 C195.664,144.158 195.718,144.146 195.742,144.122 C195.754,144.11 195.763,144.089 195.769,144.059 C195.775,144.029 195.772,144.002 195.76,143.978 C195.496,143.474 195.022,143.12 194.338,142.916 C194.122,142.856 193.852,142.814 193.528,142.79 L192.142,142.664 C191.638,142.292 191.338,142.076 191.242,142.016 C191.194,141.98 191.107,141.929 190.981,141.863 C190.855,141.797 190.756,141.71 190.684,141.602 C190.636,141.518 190.57,141.476 190.486,141.476 C190.426,141.476 190.348,141.506 190.252,141.566 C190.048,141.686 189.814,141.89 189.55,142.178 C189.25,142.502 188.992,142.859 188.776,143.249 C188.56,143.639 188.326,144.134 188.074,144.734 C187.666,145.706 187.462,146.576 187.462,147.344 C187.462,147.584 187.474,147.758 187.498,147.866 C187.582,148.334 187.789,148.712 188.119,149 C188.449,149.288 188.83,149.432 189.262,149.432 Z M188.884,148.874 C188.62,148.874 188.428,148.688 188.308,148.316 C188.224,148.064 188.182,147.8 188.182,147.524 C188.182,147.392 188.194,147.206 188.218,146.966 C188.326,146.126 188.536,145.334 188.848,144.59 C189.064,144.062 189.316,143.558 189.604,143.078 C189.616,143.054 189.688,142.964 189.82,142.808 C190,143 190.201,143.132 190.423,143.204 C190.645,143.276 190.912,143.324 191.224,143.348 C191.38,143.36 191.614,143.366 191.926,143.366 C192.022,143.474 192.082,143.591 192.106,143.717 C192.13,143.843 192.142,143.918 192.142,143.942 C192.178,144.122 192.196,144.302 192.196,144.482 C192.196,145.022 192.052,145.568 191.764,146.12 C191.392,146.864 190.918,147.506 190.342,148.046 C190.222,148.154 190.075,148.268 189.901,148.388 C189.727,148.508 189.598,148.598 189.514,148.658 C189.466,148.694 189.382,148.736 189.262,148.784 C189.106,148.844 188.98,148.874 188.884,148.874 Z M196.804,162.95 C196.972,162.95 197.092,162.884 197.164,162.752 L197.164,162.752 L197.254,162.482 C197.35,162.242 197.44,161.969 197.524,161.663 C197.608,161.357 197.668,161.15 197.704,161.042 L197.704,161.042 L197.83,160.574 L198.856,156.848 C199.036,156.128 199.342,155.048 199.774,153.608 L199.774,153.608 L199.918,153.122 C200.062,152.606 200.188,152.177 200.296,151.835 C200.404,151.493 200.536,151.16 200.692,150.836 C200.968,150.212 201.226,149.666 201.466,149.198 C201.526,149.054 201.628,148.838 201.772,148.55 C201.892,148.31 202.084,147.95 202.348,147.47 L202.348,147.47 L202.672,146.912 L202.834,147.02 C203.17,147.344 203.5,147.581 203.824,147.731 C204.148,147.881 204.508,147.956 204.904,147.956 C205.552,147.956 206.206,147.71 206.866,147.218 C208.27,146.114 209.236,144.692 209.764,142.952 C209.812,142.772 209.86,142.49 209.908,142.106 C209.92,141.782 209.824,141.488 209.62,141.224 C209.176,140.684 208.678,140.414 208.126,140.414 C207.982,140.414 207.838,140.432 207.694,140.468 C207.262,140.588 206.842,140.792 206.434,141.08 C205.726,141.572 205.012,142.25 204.292,143.114 C203.536,143.99 202.876,144.932 202.312,145.94 C202.264,146.024 202.186,146.126 202.078,146.246 L202.078,146.246 L202.06,145.994 L202.06,145.958 C202.108,145.766 202.18,145.55 202.276,145.31 L202.276,145.31 L202.402,144.932 L202.726,144.014 C203.11,142.922 203.356,142.184 203.464,141.8 C203.524,141.62 203.554,141.5 203.554,141.44 C203.554,141.416 203.539,141.386 203.509,141.35 C203.479,141.314 203.446,141.29 203.41,141.278 C203.374,141.266 203.338,141.266 203.302,141.278 C203.266,141.29 203.242,141.308 203.23,141.332 C203.206,141.404 203.149,141.503 203.059,141.629 C202.969,141.755 202.912,141.854 202.888,141.926 L202.888,141.926 L202.348,143.24 C201.892,144.332 201.586,145.1 201.43,145.544 C201.166,146.288 200.794,147.416 200.314,148.928 L200.314,148.928 L199.936,150.116 C199.672,150.908 199.468,151.49 199.324,151.862 C198.568,153.674 197.92,155.456 197.38,157.208 C196.972,158.576 196.636,159.908 196.372,161.204 C196.324,161.396 196.285,161.609 196.255,161.843 C196.225,162.077 196.204,162.242 196.192,162.338 C196.156,162.518 196.216,162.662 196.372,162.77 C196.432,162.83 196.51,162.878 196.606,162.914 C196.654,162.938 196.72,162.95 196.804,162.95 Z M204.274,147.362 C204.106,147.362 203.98,147.356 203.896,147.344 C203.776,147.332 203.68,147.29 203.608,147.218 C203.536,147.146 203.5,147.056 203.5,146.948 C203.5,146.852 203.536,146.75 203.608,146.642 C203.644,146.582 203.74,146.474 203.896,146.318 C203.884,146.234 203.848,146.168 203.788,146.12 C203.728,146.072 203.656,146.03 203.572,145.994 C203.488,145.958 203.422,145.916 203.374,145.868 C203.47,145.652 203.632,145.394 203.86,145.094 C204.7,143.918 205.462,143.018 206.146,142.394 C206.806,141.77 207.412,141.362 207.964,141.17 C208.168,141.098 208.378,141.062 208.594,141.062 C208.738,141.062 208.843,141.086 208.909,141.134 C208.975,141.182 209.026,141.266 209.062,141.386 C209.074,141.446 209.08,141.53 209.08,141.638 C209.08,141.818 209.044,142.076 208.972,142.412 C208.852,142.748 208.756,143 208.684,143.168 C207.976,144.668 207.07,145.85 205.966,146.714 C205.762,146.87 205.534,147.014 205.282,147.146 C204.994,147.29 204.658,147.362 204.274,147.362 Z M215.506,165.884 C215.578,165.884 215.638,165.863 215.686,165.821 C215.734,165.779 215.8,165.71 215.884,165.614 L215.884,165.614 L216.046,165.38 C216.25,165.032 216.592,164.534 217.072,163.886 C217.168,163.754 217.315,163.544 217.513,163.256 C217.711,162.968 217.882,162.71 218.026,162.482 C218.986,160.886 219.826,159.008 220.546,156.848 C220.846,155.96 221.026,155.138 221.086,154.382 C221.098,154.274 221.11,154.139 221.122,153.977 C221.134,153.815 221.14,153.62 221.14,153.392 C221.14,152.48 220.954,151.73 220.582,151.142 C220.534,151.058 220.51,150.98 220.51,150.908 C220.51,150.872 220.522,150.806 220.546,150.71 C220.582,150.614 220.633,150.479 220.699,150.305 C220.765,150.131 220.816,149.972 220.852,149.828 C220.912,149.576 221.092,149.36 221.392,149.18 C221.836,148.916 222.292,148.634 222.76,148.334 L222.76,148.334 L223.534,147.83 L224.434,147.236 C224.506,147.188 224.773,147.011 225.235,146.705 C225.697,146.399 226.15,146.132 226.594,145.904 C226.606,145.892 226.618,145.88 226.63,145.868 L226.63,145.868 L226.666,145.832 C226.558,145.736 226.474,145.688 226.414,145.688 C226.378,145.688 226.354,145.694 226.342,145.706 C226.282,145.73 226.183,145.769 226.045,145.823 C225.907,145.877 225.79,145.934 225.694,145.994 L225.694,145.994 L224.056,147.02 L224.218,146.912 C224.014,147.032 223.663,147.245 223.165,147.551 C222.667,147.857 222.202,148.148 221.77,148.424 C221.722,148.46 221.653,148.493 221.563,148.523 L221.563,148.523 L221.32,148.604 L222.022,146.732 L223.57,142.574 C223.882,141.734 224.092,140.996 224.2,140.36 C224.212,140.252 224.206,140.162 224.182,140.09 C224.158,140.018 224.11,139.946 224.038,139.874 L224.038,139.874 L223.876,139.73 C223.78,139.682 223.72,139.658 223.696,139.658 C223.612,139.658 223.552,139.712 223.516,139.82 C223.48,139.928 223.456,139.994 223.444,140.018 C223.216,140.474 222.982,141.062 222.742,141.782 C222.526,142.358 222.358,142.79 222.238,143.078 C222.202,143.174 222.124,143.318 222.004,143.51 L222.004,143.51 L221.77,142.826 C221.638,142.418 221.35,142.076 220.906,141.8 C220.654,141.632 220.39,141.548 220.114,141.548 C219.778,141.548 219.472,141.668 219.196,141.908 C218.812,142.244 218.494,142.622 218.242,143.042 C217.618,144.122 217.258,145.298 217.162,146.57 C217.126,147.11 217.234,147.626 217.486,148.118 C217.606,148.358 217.771,148.541 217.981,148.667 C218.191,148.793 218.422,148.856 218.674,148.856 C218.878,148.856 219.094,148.808 219.322,148.712 C219.49,148.64 219.688,148.514 219.916,148.334 C220,148.262 220.093,148.169 220.195,148.055 C220.297,147.941 220.384,147.848 220.456,147.776 C220.468,147.764 220.486,147.743 220.51,147.713 C220.534,147.683 220.564,147.668 220.6,147.668 C220.636,147.668 220.666,147.674 220.69,147.686 C220.63,147.89 220.54,148.124 220.42,148.388 C220.276,148.688 220.174,148.964 220.114,149.216 C220.09,149.3 220.048,149.354 219.988,149.378 C219.916,149.39 219.841,149.417 219.763,149.459 C219.685,149.501 219.628,149.528 219.592,149.54 C219.376,149.672 219.178,149.738 218.998,149.738 C218.914,149.738 218.818,149.72 218.71,149.684 C218.65,149.66 218.56,149.648 218.44,149.648 L218.44,149.648 L217.666,149.648 C217.186,149.648 216.76,149.666 216.388,149.702 C216.016,149.738 215.65,149.816 215.29,149.936 C215.218,149.96 215.122,150.008 215.002,150.08 C214.906,150.152 214.858,150.23 214.858,150.314 C214.858,150.362 214.882,150.422 214.93,150.494 C215.086,150.698 215.308,150.818 215.596,150.854 C215.86,150.878 216.064,150.89 216.208,150.89 C216.532,150.89 216.892,150.86 217.288,150.8 C217.924,150.704 218.518,150.536 219.07,150.296 C219.142,150.26 219.208,150.242 219.268,150.242 C219.4,150.242 219.52,150.326 219.628,150.494 L219.628,150.494 L219.574,150.71 C219.442,151.238 219.271,151.787 219.061,152.357 C218.851,152.927 218.728,153.266 218.692,153.374 C218.584,153.638 218.434,154.046 218.242,154.598 C217.054,158.042 216.136,160.952 215.488,163.328 C215.404,163.628 215.254,164.228 215.038,165.128 C215.002,165.236 214.984,165.344 214.984,165.452 C214.984,165.584 215.014,165.686 215.074,165.758 C215.302,165.842 215.446,165.884 215.506,165.884 Z M218.512,148.478 C218.38,148.478 218.242,148.394 218.098,148.226 C218.014,148.118 217.951,148.004 217.909,147.884 C217.867,147.764 217.828,147.608 217.792,147.416 C217.78,147.38 217.762,147.14 217.738,146.696 C217.798,146.192 217.852,145.832 217.9,145.616 C218.164,144.464 218.602,143.468 219.214,142.628 C219.346,142.448 219.568,142.256 219.88,142.052 C220.06,141.944 220.234,141.89 220.402,141.89 C220.654,141.89 220.876,141.998 221.068,142.214 C221.5,142.694 221.716,143.354 221.716,144.194 C221.716,144.278 221.68,144.38 221.608,144.5 C221.524,144.632 221.362,144.944 221.122,145.436 C220.87,145.976 220.648,146.39 220.456,146.678 C220.168,147.11 219.898,147.476 219.646,147.776 C219.394,148.088 219.1,148.304 218.764,148.424 C218.68,148.46 218.596,148.478 218.512,148.478 Z M215.974,150.566 C215.854,150.566 215.674,150.554 215.434,150.53 C215.422,150.398 215.47,150.32 215.578,150.296 C215.962,150.188 216.352,150.098 216.748,150.026 C216.904,150.002 217.126,149.978 217.414,149.954 L217.414,149.954 L217.9,149.9 C217.948,149.888 218.008,149.891 218.08,149.909 C218.152,149.927 218.218,149.936 218.278,149.936 C218.302,149.936 218.326,149.948 218.35,149.972 C218.374,149.996 218.404,150.02 218.44,150.044 C217.504,150.392 216.682,150.566 215.974,150.566 Z M216.1,164.354 C216.112,164.282 216.121,164.21 216.127,164.138 C216.133,164.066 216.148,164 216.172,163.94 C216.34,163.412 216.46,163.01 216.532,162.734 C216.58,162.59 216.64,162.395 216.712,162.149 C216.784,161.903 216.85,161.696 216.91,161.528 C217.15,160.844 217.408,160.076 217.684,159.224 L217.684,159.224 L218.602,156.488 L219.196,154.67 C219.532,153.554 219.82,152.684 220.06,152.06 C220.084,152 220.117,151.928 220.159,151.844 C220.201,151.76 220.246,151.652 220.294,151.52 C220.402,151.7 220.474,151.865 220.51,152.015 C220.546,152.165 220.576,152.366 220.6,152.618 C220.636,152.942 220.654,153.266 220.654,153.59 C220.654,154.238 220.57,154.91 220.402,155.606 C219.886,157.586 219.106,159.53 218.062,161.438 C217.654,162.182 217.162,162.974 216.586,163.814 C216.562,163.838 216.511,163.91 216.433,164.03 C216.355,164.15 216.244,164.258 216.1,164.354 Z M232.264,148.37 C232.516,148.406 232.69,148.292 232.786,148.028 C232.858,147.836 232.912,147.662 232.948,147.506 C233.284,146.366 233.65,145.424 234.046,144.68 C234.442,143.888 234.928,143.27 235.504,142.826 C235.768,142.622 235.99,142.478 236.17,142.394 C236.338,142.298 236.47,142.25 236.566,142.25 C236.602,142.25 236.668,142.262 236.764,142.286 C236.812,142.346 236.86,142.457 236.908,142.619 C236.956,142.781 237.013,142.901 237.079,142.979 C237.145,143.057 237.262,143.096 237.43,143.096 C237.466,143.024 237.484,142.976 237.484,142.952 C237.484,142.64 237.349,142.346 237.079,142.07 C236.809,141.794 236.5,141.656 236.152,141.656 C236.008,141.656 235.882,141.68 235.774,141.728 C235.726,141.752 235.672,141.776 235.612,141.8 C235.552,141.824 235.498,141.848 235.45,141.872 C234.838,142.22 234.382,142.604 234.082,143.024 C233.938,143.192 233.836,143.318 233.776,143.402 C233.524,143.342 233.392,143.312 233.38,143.312 C233.116,143.756 232.816,144.554 232.48,145.706 C232.144,146.858 231.964,147.728 231.94,148.316 L231.94,148.316 L232.264,148.37 Z M242.722,153.41 C242.806,153.41 242.89,153.392 242.974,153.356 C243.334,153.212 243.598,153.092 243.766,152.996 C244.174,152.756 244.612,152.402 245.08,151.934 C246.088,150.926 247.036,149.702 247.924,148.262 C248.188,147.83 248.371,147.455 248.473,147.137 C248.575,146.819 248.668,146.462 248.752,146.066 C248.824,145.706 248.911,145.433 249.013,145.247 C249.115,145.061 249.334,144.887 249.67,144.725 C250.006,144.563 250.546,144.386 251.29,144.194 C251.41,144.158 251.536,144.14 251.668,144.14 C251.812,144.14 251.956,144.176 252.1,144.248 C252.112,144.26 252.172,144.254 252.28,144.23 C252.232,144.11 252.196,144.044 252.172,144.032 C252.004,143.924 251.857,143.846 251.731,143.798 C251.605,143.75 251.47,143.738 251.326,143.762 C250.918,143.834 250.612,143.906 250.408,143.978 C249.868,144.158 249.394,144.338 248.986,144.518 L248.986,144.518 L248.662,144.644 L248.536,144.554 C248.272,144.29 248.032,144.125 247.816,144.059 C247.6,143.993 247.252,143.936 246.772,143.888 C246.172,143.828 245.806,143.798 245.674,143.798 C245.554,143.798 245.482,143.762 245.458,143.69 C245.698,143.366 246.037,143.036 246.475,142.7 C246.913,142.364 247.624,141.89 248.608,141.278 C248.548,141.122 248.416,141.044 248.212,141.044 C248.044,141.044 247.882,141.086 247.726,141.17 C247.57,141.254 247.474,141.302 247.438,141.314 C246.766,141.65 246.022,142.142 245.206,142.79 C245.05,142.91 244.888,143.078 244.72,143.294 C244.636,143.39 244.594,143.486 244.594,143.582 C244.594,143.666 244.642,143.768 244.738,143.888 C244.966,144.14 245.26,144.278 245.62,144.302 L245.62,144.302 L246.484,144.338 C246.856,144.35 247.252,144.428 247.672,144.572 C247.9,144.644 248.032,144.806 248.068,145.058 C248.08,145.13 248.086,145.25 248.086,145.418 L248.086,145.418 L247.672,145.652 C246.112,146.54 244.858,147.5 243.91,148.532 C243.13,149.372 242.518,150.26 242.074,151.196 C241.846,151.688 241.732,152.15 241.732,152.582 C241.732,152.786 241.78,152.942 241.876,153.05 C241.972,153.158 242.14,153.254 242.38,153.338 C242.524,153.386 242.638,153.41 242.722,153.41 Z M242.578,152.996 C242.554,152.948 242.524,152.894 242.488,152.834 C242.452,152.774 242.434,152.726 242.434,152.69 L242.434,152.69 L242.434,152.438 C242.434,152.306 242.446,152.192 242.47,152.096 C242.686,151.4 242.932,150.836 243.208,150.404 C243.628,149.756 244.162,149.108 244.81,148.46 C245.146,148.124 245.662,147.698 246.358,147.182 C247.054,146.666 247.564,146.342 247.888,146.21 C247.852,146.414 247.798,146.594 247.726,146.75 C247.654,146.906 247.612,146.996 247.6,147.02 C247.336,147.596 247.021,148.154 246.655,148.694 C246.289,149.234 245.854,149.822 245.35,150.458 C244.75,151.214 244.234,151.778 243.802,152.15 C243.49,152.414 243.25,152.606 243.082,152.726 C243.022,152.762 242.941,152.804 242.839,152.852 C242.737,152.9 242.65,152.948 242.578,152.996 Z M257.266,151.664 C257.398,151.664 257.506,151.598 257.59,151.466 C257.506,151.358 257.464,151.208 257.464,151.016 C257.464,150.884 257.47,150.788 257.482,150.728 C257.506,150.512 257.53,150.35 257.554,150.242 C257.746,149.342 257.944,148.508 258.148,147.74 C258.376,146.852 258.742,145.532 259.246,143.78 C259.702,142.172 260.338,140.306 261.154,138.182 L261.154,138.182 L261.28,137.84 C261.856,136.328 262.3,135.2 262.612,134.456 C262.636,134.396 262.666,134.339 262.702,134.285 C262.738,134.231 262.768,134.174 262.792,134.114 L262.792,134.114 L263.476,134.096 C264.4,134.096 265.786,134.108 267.634,134.132 C268.786,134.144 269.986,134.276 271.234,134.528 C271.294,134.54 271.396,134.546 271.54,134.546 C271.492,134.33 271.438,134.186 271.378,134.114 C271.318,134.042 271.204,133.982 271.036,133.934 C270.436,133.766 269.902,133.652 269.434,133.592 C268.798,133.508 267.832,133.454 266.536,133.43 L266.536,133.43 L265.654,133.412 C265.342,133.4 265.069,133.397 264.835,133.403 C264.601,133.409 264.406,133.412 264.25,133.412 C264.034,133.424 263.716,133.43 263.296,133.43 C263.2,133.43 263.134,133.382 263.098,133.286 L263.098,133.286 L263.332,132.674 L263.764,131.702 L264.466,130.046 L264.556,129.794 C264.604,129.638 264.562,129.56 264.43,129.56 C264.358,129.56 264.304,129.578 264.268,129.614 C264.196,129.686 264.1,129.818 263.98,130.01 C263.368,130.994 262.882,131.93 262.522,132.818 C262.51,132.854 262.474,132.944 262.414,133.088 C262.354,133.232 262.27,133.346 262.162,133.43 L262.162,133.43 L259.372,133.538 C258.484,133.574 257.854,133.613 257.482,133.655 C257.11,133.697 256.816,133.76 256.6,133.844 C256.648,134.024 256.738,134.12 256.87,134.132 C257.038,134.156 257.164,134.168 257.248,134.168 C257.716,134.168 258.43,134.156 259.39,134.132 C260.326,134.108 261.028,134.096 261.496,134.096 C261.664,134.096 261.79,134.12 261.874,134.168 C261.814,134.372 261.772,134.504 261.748,134.564 C261.4,135.38 261.076,136.19 260.776,136.994 L260.776,136.994 L260.2,138.434 C259.516,140.114 258.856,142.052 258.22,144.248 C257.968,145.148 257.65,146.348 257.266,147.848 L257.266,147.848 L257.104,148.532 C257.032,148.82 256.948,149.222 256.852,149.738 C256.768,150.206 256.708,150.524 256.672,150.692 C256.648,150.812 256.636,150.908 256.636,150.98 L256.636,150.98 L256.654,151.178 C256.678,151.394 256.78,151.532 256.96,151.592 C257.104,151.64 257.206,151.664 257.266,151.664 Z M271.972,151.898 C272.044,151.874 272.104,151.838 272.152,151.79 C272.224,151.73 272.281,151.673 272.323,151.619 C272.365,151.565 272.386,151.508 272.386,151.448 C272.386,151.388 272.38,151.334 272.368,151.286 C272.332,151.07 272.314,150.956 272.314,150.944 C272.314,150.668 272.332,150.386 272.368,150.098 L272.368,150.098 L272.458,149.414 C272.602,148.19 272.74,147.284 272.872,146.696 C273.004,146.072 273.166,145.451 273.358,144.833 C273.55,144.215 273.802,143.444 274.114,142.52 L274.114,142.52 L274.258,142.088 C274.342,141.86 274.408,141.656 274.456,141.476 C274.48,141.38 274.492,141.314 274.492,141.278 C274.492,141.026 274.312,140.864 273.952,140.792 L273.952,140.792 L273.124,142.124 C271.984,143.9 270.976,145.352 270.1,146.48 C269.74,146.936 269.41,147.326 269.11,147.65 C268.954,147.806 268.738,147.968 268.462,148.136 C268.366,148.196 268.282,148.226 268.21,148.226 C268.078,148.226 267.982,148.16 267.922,148.028 C267.814,147.752 267.754,147.56 267.742,147.452 C267.73,147.044 267.766,146.642 267.85,146.246 C268.078,145.358 268.354,144.542 268.678,143.798 C268.822,143.438 268.924,143.138 268.984,142.898 L268.984,142.898 L269.02,142.682 C269.02,142.598 268.993,142.535 268.939,142.493 C268.885,142.451 268.768,142.388 268.588,142.304 C268.564,142.352 268.534,142.403 268.498,142.457 C268.462,142.511 268.432,142.562 268.408,142.61 C268.264,143.006 268.072,143.456 267.832,143.96 L267.832,143.96 L267.661,144.302 C267.595,144.434 267.526,144.59 267.454,144.77 C267.154,145.49 266.962,146.198 266.878,146.894 C266.854,147.11 266.842,147.266 266.842,147.362 C266.842,147.458 266.854,147.614 266.878,147.83 C266.998,148.382 267.346,148.658 267.922,148.658 C268.378,148.682 268.768,148.556 269.092,148.28 C269.584,147.872 269.902,147.602 270.046,147.47 C270.49,147.014 270.952,146.444 271.432,145.76 L271.432,145.76 L271.9,145.04 C272.116,144.68 272.308,144.392 272.476,144.176 L272.476,144.176 L272.746,143.888 L272.71,144.194 C272.602,144.926 272.434,145.796 272.206,146.804 C271.918,148.124 271.738,149.114 271.666,149.774 C271.642,150.158 271.63,150.44 271.63,150.62 C271.63,150.716 271.633,150.833 271.639,150.971 C271.645,151.109 271.642,151.268 271.63,151.448 C271.606,151.652 271.666,151.802 271.81,151.898 L271.81,151.898 L271.972,151.898 Z M283.276,149.036 C283.312,149.036 283.39,149.024 283.51,149 C283.834,148.916 284.068,148.76 284.212,148.532 C284.26,148.46 284.317,148.376 284.383,148.28 C284.449,148.184 284.5,148.1 284.536,148.028 C284.932,147.248 285.37,146.36 285.85,145.364 C286.174,144.692 286.471,144.11 286.741,143.618 C287.011,143.126 287.302,142.658 287.614,142.214 C287.662,142.142 287.734,142.031 287.83,141.881 C287.926,141.731 288.031,141.599 288.145,141.485 C288.259,141.371 288.394,141.314 288.55,141.314 C288.562,141.302 288.571,141.29 288.577,141.278 C288.583,141.266 288.592,141.254 288.604,141.242 C288.508,141.11 288.424,141.017 288.352,140.963 C288.28,140.909 288.202,140.882 288.118,140.882 L288.118,140.882 L287.902,140.918 C287.602,141.002 287.344,141.194 287.128,141.494 C286.612,142.214 286.144,142.952 285.724,143.708 L285.724,143.708 L285.346,144.392 C284.938,145.112 284.608,145.727 284.356,146.237 C284.104,146.747 283.912,147.278 283.78,147.83 C283.768,147.878 283.75,147.923 283.726,147.965 C283.702,148.007 283.678,148.046 283.654,148.082 C283.546,147.986 283.48,147.881 283.456,147.767 C283.432,147.653 283.42,147.584 283.42,147.56 C283.096,146.084 282.904,144.746 282.844,143.546 C282.82,143.066 282.796,142.7 282.772,142.448 C282.76,142.232 282.628,142.112 282.376,142.088 C282.304,142.172 282.262,142.265 282.25,142.367 C282.238,142.469 282.232,142.532 282.232,142.556 C282.184,142.988 282.16,143.48 282.16,144.032 C282.16,144.488 282.172,144.836 282.196,145.076 C282.304,146.324 282.448,147.32 282.628,148.064 C282.676,148.268 282.76,148.49 282.88,148.73 C282.988,148.934 283.12,149.036 283.276,149.036 Z M299.638,149.252 C299.686,149.252 299.77,149.24 299.89,149.216 C300.25,149.12 300.526,148.922 300.718,148.622 C301.066,148.106 301.36,147.482 301.6,146.75 L301.6,146.75 L301.942,145.688 C302.158,144.992 302.362,144.368 302.554,143.816 C302.65,143.54 302.896,142.88 303.292,141.836 L303.292,141.836 L303.616,141.026 C303.712,140.786 303.814,140.63 303.922,140.558 C303.97,140.522 304.006,140.462 304.03,140.378 C303.862,140.342 303.736,140.324 303.652,140.324 C303.544,140.324 303.457,140.351 303.391,140.405 C303.325,140.459 303.256,140.558 303.184,140.702 L303.184,140.702 L302.878,141.314 C302.578,141.986 302.188,143.006 301.708,144.374 L301.708,144.374 L301.366,145.31 L300.988,146.336 C300.7,147.152 300.472,147.758 300.304,148.154 C300.268,148.262 300.19,148.436 300.07,148.676 C299.95,148.568 299.866,148.463 299.818,148.361 C299.77,148.259 299.716,148.112 299.656,147.92 C299.416,147.008 299.296,146.024 299.296,144.968 C299.296,144.752 299.284,144.44 299.26,144.032 C299.236,143.744 299.224,143.534 299.224,143.402 C299.224,143.318 299.218,143.234 299.206,143.15 C299.194,143.066 299.158,143 299.098,142.952 C298.978,142.832 298.834,142.772 298.666,142.772 C298.606,142.772 298.558,142.778 298.522,142.79 C298.486,142.85 298.444,142.916 298.396,142.988 C298.348,143.06 298.294,143.144 298.234,143.24 C298.114,143.48 297.922,143.84 297.658,144.32 C296.938,145.664 296.386,146.75 296.002,147.578 C295.978,147.638 295.942,147.704 295.894,147.776 C295.846,147.848 295.804,147.932 295.768,148.028 C295.768,148.028 295.708,148.088 295.588,148.208 C295.576,148.148 295.564,148.091 295.552,148.037 C295.54,147.983 295.534,147.932 295.534,147.884 L295.534,147.884 L295.534,147.848 L295.588,147.11 C295.6,146.954 295.621,146.687 295.651,146.309 C295.681,145.931 295.72,145.586 295.768,145.274 C295.984,143.918 296.176,142.88 296.344,142.16 L296.344,142.16 L296.398,141.836 C296.398,141.812 296.38,141.785 296.344,141.755 C296.308,141.725 296.278,141.692 296.254,141.656 C296.17,141.884 296.116,142.028 296.092,142.088 C295.9,142.604 295.747,143.12 295.633,143.636 C295.519,144.152 295.372,144.878 295.192,145.814 C295.024,146.714 294.94,147.482 294.94,148.118 C294.94,148.25 294.964,148.424 295.012,148.64 C295.048,148.808 295.186,148.892 295.426,148.892 C295.69,148.892 295.906,148.772 296.074,148.532 C296.23,148.304 296.458,147.908 296.758,147.344 L296.758,147.344 L297.334,146.192 C297.67,145.448 297.964,144.872 298.216,144.464 C298.252,144.404 298.291,144.347 298.333,144.293 C298.375,144.239 298.408,144.194 298.432,144.158 C298.444,144.17 298.459,144.179 298.477,144.185 C298.495,144.191 298.504,144.2 298.504,144.212 C298.504,144.26 298.51,144.311 298.522,144.365 C298.534,144.419 298.54,144.47 298.54,144.518 C298.516,144.806 298.504,145.028 298.504,145.184 C298.504,145.64 298.54,146.126 298.612,146.642 C298.684,147.158 298.726,147.464 298.738,147.56 C298.822,148.076 298.96,148.532 299.152,148.928 C299.272,149.144 299.434,149.252 299.638,149.252 Z M309.574,150.44 C309.646,150.44 309.706,150.434 309.754,150.422 C309.766,150.338 309.787,150.206 309.817,150.026 C309.847,149.846 309.886,149.696 309.934,149.576 C310.078,149.24 310.249,148.895 310.447,148.541 C310.645,148.187 310.768,147.962 310.816,147.866 C311.104,147.362 311.314,146.978 311.446,146.714 C311.458,146.678 311.488,146.645 311.536,146.615 C311.584,146.585 311.62,146.558 311.644,146.534 L311.644,146.534 L311.914,147.164 C312.178,147.74 312.406,148.154 312.598,148.406 C312.934,148.85 313.366,149.072 313.894,149.072 C314.29,149.072 314.656,148.94 314.992,148.676 C315.4,148.364 315.748,147.908 316.036,147.308 C316.66,146.024 317.092,144.518 317.332,142.79 C317.344,142.742 317.35,142.664 317.35,142.556 C317.35,142.448 317.338,142.274 317.314,142.034 C317.278,141.638 317.068,141.314 316.684,141.062 C316.504,140.93 316.288,140.864 316.036,140.864 C315.844,140.864 315.658,140.906 315.478,140.99 C315.166,141.122 314.854,141.314 314.542,141.566 C313.93,142.046 313.33,142.706 312.742,143.546 L312.742,143.546 L312.148,144.392 L312.04,144.086 C312.004,143.966 311.944,143.672 311.86,143.204 L311.86,143.204 L311.806,142.844 L311.59,141.656 C311.566,141.5 311.509,141.392 311.419,141.332 C311.329,141.272 311.182,141.248 310.978,141.26 L310.978,141.26 L310.978,141.692 C310.978,142.16 311.05,142.862 311.194,143.798 C311.218,143.93 311.245,144.089 311.275,144.275 C311.305,144.461 311.332,144.668 311.356,144.896 C311.368,145.016 311.386,145.127 311.41,145.229 C311.434,145.331 311.446,145.424 311.446,145.508 C311.446,145.604 311.422,145.694 311.374,145.778 C311.326,145.862 311.242,145.964 311.122,146.084 L311.122,146.084 L311.068,146.174 C310.924,146.474 310.684,146.912 310.348,147.488 C310.264,147.656 310.159,147.851 310.033,148.073 C309.907,148.295 309.778,148.544 309.646,148.82 C309.514,149.084 309.412,149.36 309.34,149.648 C309.304,149.78 309.286,149.924 309.286,150.08 L309.286,150.08 L309.286,150.17 C309.31,150.266 309.343,150.335 309.385,150.377 C309.427,150.419 309.49,150.44 309.574,150.44 Z M314.254,148.586 C313.99,148.574 313.768,148.454 313.588,148.226 C313.336,147.926 313.144,147.662 313.012,147.434 C312.88,147.194 312.772,146.954 312.688,146.714 C312.604,146.474 312.496,146.132 312.364,145.688 C312.34,145.592 312.328,145.52 312.328,145.472 C312.328,145.376 312.364,145.274 312.436,145.166 C313.012,144.338 313.474,143.705 313.822,143.267 C314.17,142.829 314.584,142.418 315.064,142.034 C315.28,141.854 315.556,141.674 315.892,141.494 C316.036,141.41 316.18,141.368 316.324,141.368 C316.396,141.368 316.45,141.374 316.486,141.386 C316.558,141.47 316.603,141.551 316.621,141.629 C316.639,141.707 316.648,141.806 316.648,141.926 C316.648,142.586 316.612,143.078 316.54,143.402 C316.192,144.926 315.778,146.174 315.298,147.146 C315.202,147.326 314.998,147.668 314.686,148.172 C314.65,148.232 314.578,148.316 314.47,148.424 C314.47,148.424 314.398,148.478 314.254,148.586 Z M312.58,170.87 C313.444,170.87 314.356,170.624 315.316,170.132 C316.72,169.436 318.076,168.35 319.384,166.874 C320.956,165.074 322.366,163.058 323.614,160.826 C324.274,159.638 324.862,158.522 325.378,157.478 L325.378,157.478 L325.846,156.452 C326.026,156.044 326.215,155.63 326.413,155.21 C326.611,154.79 326.818,154.418 327.034,154.094 C327.046,154.07 327.064,154.049 327.088,154.031 C327.112,154.013 327.136,153.992 327.16,153.968 C327.532,154.196 327.868,154.562 328.168,155.066 C328.384,155.438 328.558,155.87 328.69,156.362 C328.978,157.61 329.194,159.134 329.338,160.934 C329.41,161.99 329.458,162.812 329.482,163.4 C329.506,163.652 329.542,163.904 329.59,164.156 C329.626,164.42 329.782,164.624 330.058,164.768 C330.166,164.828 330.268,164.792 330.364,164.66 C330.316,164.528 330.28,164.384 330.256,164.228 C330.232,164.072 330.217,163.898 330.211,163.706 C330.205,163.514 330.202,163.376 330.202,163.292 C330.19,163.136 330.184,162.908 330.184,162.608 C330.172,162.38 330.151,161.903 330.121,161.177 C330.091,160.451 330.046,159.788 329.986,159.188 C329.854,157.88 329.65,156.794 329.374,155.93 C329.098,155.114 328.618,154.442 327.934,153.914 L327.934,153.914 L327.322,153.518 L327.538,152.996 L328.294,151.196 C328.702,150.236 328.99,149.552 329.158,149.144 C329.65,147.872 330.094,146.696 330.49,145.616 C330.682,145.064 330.982,144.248 331.39,143.168 C331.798,142.064 332.116,141.236 332.344,140.684 L332.344,140.684 L332.56,140.108 C332.704,139.688 332.866,139.274 333.046,138.866 L333.046,138.866 L333.082,138.704 C333.082,138.608 333.028,138.518 332.92,138.434 L332.92,138.434 L332.632,138.272 C332.608,138.296 332.581,138.326 332.551,138.362 C332.521,138.398 332.5,138.428 332.488,138.452 C332.272,138.776 331.96,139.358 331.552,140.198 C331.432,140.45 331.24,140.828 330.976,141.332 C329.896,143.3 328.9,144.962 327.988,146.318 C327.544,146.966 327.118,147.482 326.71,147.866 C326.578,147.986 326.452,148.085 326.332,148.163 C326.212,148.241 326.086,148.286 325.954,148.298 C325.81,148.178 325.726,148.034 325.702,147.866 C325.678,147.602 325.666,147.416 325.666,147.308 C325.666,147.188 325.678,147.008 325.702,146.768 C325.846,145.52 326.152,144.332 326.62,143.204 C326.704,142.964 326.8,142.67 326.908,142.322 C326.92,142.274 326.917,142.223 326.899,142.169 C326.881,142.115 326.842,142.076 326.782,142.052 C326.722,142.028 326.665,142.019 326.611,142.025 C326.557,142.031 326.518,142.058 326.494,142.106 L326.494,142.106 L326.314,142.394 C325.942,143.066 325.618,143.906 325.342,144.914 C325.102,145.754 324.982,146.522 324.982,147.218 C324.982,147.482 325.024,147.722 325.108,147.938 C325.192,148.166 325.33,148.349 325.522,148.487 C325.714,148.625 325.924,148.694 326.152,148.694 C326.284,148.694 326.428,148.664 326.584,148.604 C326.704,148.556 326.872,148.448 327.088,148.28 C327.484,147.968 327.874,147.524 328.258,146.948 L328.258,146.948 L328.546,146.516 C329.098,145.7 329.5,145.076 329.752,144.644 C329.764,144.632 329.776,144.614 329.788,144.59 C329.8,144.566 329.818,144.542 329.842,144.518 C329.866,144.494 329.908,144.482 329.968,144.482 L329.968,144.482 L330.004,144.482 L329.464,145.904 C328.768,147.704 328.216,149.105 327.808,150.107 C327.4,151.109 326.938,152.126 326.422,153.158 L326.422,153.158 L326.134,153.104 C325.57,152.996 325.12,152.942 324.784,152.942 C323.956,152.942 323.08,153.08 322.156,153.356 C321.244,153.632 320.188,154.112 318.988,154.796 C317.26,155.792 315.616,157.082 314.056,158.666 C312.46,160.274 311.236,162.02 310.384,163.904 C309.94,164.84 309.664,165.716 309.556,166.532 C309.508,166.832 309.484,167.168 309.484,167.54 C309.484,168.056 309.55,168.518 309.682,168.926 C309.826,169.418 310.057,169.82 310.375,170.132 C310.693,170.444 311.092,170.654 311.572,170.762 C311.908,170.834 312.244,170.87 312.58,170.87 Z M312.544,170.51 C312.1,170.51 311.698,170.387 311.338,170.141 C310.978,169.895 310.696,169.556 310.492,169.124 C310.288,168.704 310.18,168.278 310.168,167.846 C310.156,167.762 310.15,167.63 310.15,167.45 C310.15,166.694 310.348,165.8 310.744,164.768 C311.332,163.244 312.286,161.726 313.606,160.214 C314.782,158.846 316.054,157.664 317.422,156.668 C319.198,155.36 320.872,154.454 322.444,153.95 C323.464,153.626 324.328,153.464 325.036,153.464 C325.168,153.464 325.378,153.476 325.666,153.5 L325.666,153.5 L326.206,153.59 L326.116,153.878 C326.02,154.07 325.78,154.598 325.396,155.462 C324.628,157.118 324.07,158.282 323.722,158.954 C322.582,161.078 321.49,162.878 320.446,164.354 C319.462,165.722 318.52,166.85 317.62,167.738 C316.468,168.854 315.364,169.628 314.308,170.06 C313.876,170.24 313.468,170.372 313.084,170.456 C312.904,170.492 312.724,170.51 312.544,170.51 Z M338.662,150.494 C338.842,150.494 339.04,150.464 339.256,150.404 L339.256,150.404 L340.354,150.08 C341.794,149.648 343.012,149.39 344.008,149.306 C344.44,149.258 344.764,149.234 344.98,149.234 C345.508,149.234 345.964,149.354 346.348,149.594 C346.372,149.606 346.414,149.609 346.474,149.603 C346.534,149.597 346.588,149.594 346.636,149.594 C346.6,149.546 346.552,149.489 346.492,149.423 C346.432,149.357 346.384,149.306 346.348,149.27 C346.096,149.066 345.808,148.931 345.484,148.865 C345.16,148.799 344.776,148.766 344.332,148.766 C343.624,148.766 342.85,148.844 342.01,149 C341.206,149.156 340.66,149.27 340.372,149.342 L340.372,149.342 L339.436,149.54 C339.364,149.564 339.31,149.576 339.274,149.576 C339.226,149.576 339.184,149.546 339.148,149.486 C339.283,149.297 339.367375,149.178875 339.401125,149.131625 L339.418,149.108 L340.12,148.244 C340.276,148.016 340.45,147.788 340.642,147.56 C341.806,146.12 342.904,144.92 343.936,143.96 C344.356,143.564 344.764,143.156 345.16,142.736 L345.16,142.736 L345.79,142.106 C345.91,141.986 346.036,141.839 346.168,141.665 C346.3,141.491 346.396,141.368 346.456,141.296 C346.54,141.188 346.582,141.086 346.582,140.99 L346.582,140.99 L346.564,140.882 C346.516,140.69 346.402,140.522 346.222,140.378 C346.042,140.234 345.85,140.15 345.646,140.126 C345.526,140.114 345.385,140.117 345.223,140.135 C345.061,140.153 344.95,140.162 344.89,140.162 C343.318,140.282 341.95,140.534 340.786,140.918 C340.75,140.93 340.696,140.96 340.624,141.008 C340.612,141.176 340.69,141.272 340.858,141.296 C340.906,141.308 340.984,141.314 341.092,141.314 L341.092,141.314 L341.182,141.314 C341.518,141.254 342.022,141.176 342.694,141.08 C342.91,141.056 343.066,141.032 343.162,141.008 C344.122,140.864 344.854,140.792 345.358,140.792 L345.358,140.792 L345.664,140.81 C345.676,140.918 345.649,141.002 345.583,141.062 C345.517,141.122 345.478,141.158 345.466,141.17 C344.914,141.722 344.35,142.268 343.774,142.808 C342.502,144.02 341.476,145.088 340.696,146.012 L340.696,146.012 L339.13,147.902 C338.65,148.49 338.29,148.958 338.05,149.306 C337.918,149.486 337.852,149.648 337.852,149.792 C337.852,149.888 337.885,149.978 337.951,150.062 C338.017,150.146 338.116,150.248 338.248,150.368 C338.344,150.452 338.482,150.494 338.662,150.494 Z" id="marinist_4"></path>
                </g>
            </g>
        </g>
    </g>
</svg>