<?xml version="1.0" encoding="UTF-8"?>
<svg width="424px" height="18px" viewBox="0 0 424 18" version="1.1" xmlns="http://www.w3.org/2000/svg" xmlns:xlink="http://www.w3.org/1999/xlink">
    <!-- Generator: Sketch 63.1 (92452) - https://sketch.com -->
    <title>marinist_font_1</title>
    <desc>Created with Sketch.</desc>
    <g id="Кейс" stroke="none" stroke-width="1" fill="none" fill-rule="evenodd" opacity="0.45186942">
        <g id="Marinist-XL" transform="translate(-830.000000, -2939.000000)" fill="#12171E" fill-rule="nonzero">
            <g id="Цвета-и-шрифты" transform="translate(165.000000, 2738.000000)">
                <g id="Group-11" transform="translate(664.000000, 112.000000)">
                    <path d="M3.04,104 L4.58,100.5 L12.02,100.5 L13.56,104 L15.66,104 L9.3,90 L7.32,90 L0.98,104 L3.04,104 Z M11.32,98.9 L5.28,98.9 L8.3,92.04 L11.32,98.9 Z M26.42,104 C28.1666667,104 29.4966667,103.673333 30.41,103.02 C31.3233333,102.366667 31.78,101.433333 31.78,100.22 C31.78,99.3133333 31.5466667,98.5633333 31.08,97.97 C30.6133333,97.3766667 29.9733333,96.9666667 29.16,96.74 C29.7333333,96.46 30.19,96.0533333 30.53,95.52 C30.87,94.9866667 31.04,94.3533333 31.04,93.62 C31.04,92.4866667 30.6033333,91.6 29.73,90.96 C28.8566667,90.32 27.62,90 26.02,90 L26.02,90 L19.74,90 L19.74,104 L26.42,104 Z M25.84,96.1 L21.74,96.1 L21.74,91.62 L25.84,91.62 C26.8666667,91.62 27.6566667,91.81 28.21,92.19 C28.7633333,92.57 29.04,93.1266667 29.04,93.86 C29.04,94.5933333 28.7633333,95.15 28.21,95.53 C27.6566667,95.91 26.8666667,96.1 25.84,96.1 L25.84,96.1 Z M26.34,102.38 L21.74,102.38 L21.74,97.72 L26.34,97.72 C28.62,97.72 29.76,98.5 29.76,100.06 C29.76,100.86 29.4733333,101.446667 28.9,101.82 C28.3266667,102.193333 27.4733333,102.38 26.34,102.38 L26.34,102.38 Z M43.14,104.16 C44.2333333,104.16 45.2366667,103.973333 46.15,103.6 C47.0633333,103.226667 47.84,102.68 48.48,101.96 L48.48,101.96 L47.18,100.7 C46.1133333,101.82 44.8,102.38 43.24,102.38 C42.2,102.38 41.26,102.146667 40.42,101.68 C39.58,101.213333 38.9233333,100.57 38.45,99.75 C37.9766667,98.93 37.74,98.0133333 37.74,97 C37.74,95.9866667 37.9766667,95.07 38.45,94.25 C38.9233333,93.43 39.58,92.7866667 40.42,92.32 C41.26,91.8533333 42.2,91.62 43.24,91.62 C44.8133333,91.62 46.1266667,92.1733333 47.18,93.28 L47.18,93.28 L48.48,92.02 C47.84,91.3 47.0666667,90.7566667 46.16,90.39 C45.2533333,90.0233333 44.2533333,89.84 43.16,89.84 C41.76,89.84 40.4933333,90.15 39.36,90.77 C38.2266667,91.39 37.34,92.2433333 36.7,93.33 C36.06,94.4166667 35.74,95.64 35.74,97 C35.74,98.36 36.06,99.5833333 36.7,100.67 C37.34,101.756667 38.2233333,102.61 39.35,103.23 C40.4766667,103.85 41.74,104.16 43.14,104.16 Z M59.24,104 C60.72,104 62.0333333,103.706667 63.18,103.12 C64.3266667,102.533333 65.2166667,101.71 65.85,100.65 C66.4833333,99.59 66.8,98.3733333 66.8,97 C66.8,95.6266667 66.4833333,94.41 65.85,93.35 C65.2166667,92.29 64.3266667,91.4666667 63.18,90.88 C62.0333333,90.2933333 60.72,90 59.24,90 L59.24,90 L53.34,90 L53.34,104 L59.24,104 Z M59.12,102.26 L55.34,102.26 L55.34,91.74 L59.12,91.74 C60.2533333,91.74 61.25,91.96 62.11,92.4 C62.97,92.84 63.6333333,93.4566667 64.1,94.25 C64.5666667,95.0433333 64.8,95.96 64.8,97 C64.8,98.04 64.5666667,98.9566667 64.1,99.75 C63.6333333,100.543333 62.97,101.16 62.11,101.6 C61.25,102.04 60.2533333,102.26 59.12,102.26 L59.12,102.26 Z M82.02,104 L82.02,102.26 L73.86,102.26 L73.86,97.74 L80.88,97.74 L80.88,96.04 L73.86,96.04 L73.86,91.74 L81.74,91.74 L81.74,90 L71.86,90 L71.86,104 L82.02,104 Z M89.26,104 L89.26,98.34 L96.28,98.34 L96.28,96.62 L89.26,96.62 L89.26,91.74 L97.14,91.74 L97.14,90 L87.26,90 L87.26,104 L89.26,104 Z M108.12,104.16 C109.12,104.16 110.08,104.006667 111,103.7 C111.92,103.393333 112.726667,102.953333 113.42,102.38 L113.42,102.38 L113.42,96.92 L111.5,96.92 L111.5,101.48 C110.566667,102.08 109.473333,102.38 108.22,102.38 C107.166667,102.38 106.216667,102.146667 105.37,101.68 C104.523333,101.213333 103.86,100.57 103.38,99.75 C102.9,98.93 102.66,98.0133333 102.66,97 C102.66,95.9733333 102.9,95.05 103.38,94.23 C103.86,93.41 104.523333,92.77 105.37,92.31 C106.216667,91.85 107.173333,91.62 108.24,91.62 C109.826667,91.62 111.18,92.16 112.3,93.24 L112.3,93.24 L113.54,92 C112.9,91.2933333 112.123333,90.7566667 111.21,90.39 C110.296667,90.0233333 109.28,89.84 108.16,89.84 C106.733333,89.84 105.45,90.1466667 104.31,90.76 C103.17,91.3733333 102.276667,92.2266667 101.63,93.32 C100.983333,94.4133333 100.66,95.64 100.66,97 C100.66,98.36 100.983333,99.5833333 101.63,100.67 C102.276667,101.756667 103.166667,102.61 104.3,103.23 C105.433333,103.85 106.706667,104.16 108.12,104.16 Z M121.24,104 L121.24,97.76 L129.28,97.76 L129.28,104 L131.28,104 L131.28,90 L129.28,90 L129.28,96.02 L121.24,96.02 L121.24,90 L119.24,90 L119.24,104 L121.24,104 Z M139.48,104 L139.48,90 L137.48,90 L137.48,104 L139.48,104 Z M147.48,104.16 C148.92,104.16 150.01,103.77 150.75,102.99 C151.49,102.21 151.86,101.046667 151.86,99.5 L151.86,99.5 L151.86,90 L144.82,90 L144.82,91.74 L149.88,91.74 L149.88,99.6 C149.88,100.533333 149.676667,101.24 149.27,101.72 C148.863333,102.2 148.266667,102.44 147.48,102.44 C146.306667,102.44 145.333333,101.886667 144.56,100.78 L144.56,100.78 L143.4,102.14 C143.84,102.78 144.42,103.276667 145.14,103.63 C145.86,103.983333 146.64,104.16 147.48,104.16 Z M159.94,104 L159.94,100.38 L162.5,97.78 L167.86,104 L170.2,104 L163.84,96.3 L169.82,90 L167.54,90 L159.94,97.82 L159.94,90 L157.94,90 L157.94,104 L159.94,104 Z M183.9,104 L183.9,102.26 L176.32,102.26 L176.32,90 L174.32,90 L174.32,104 L183.9,104 Z M190.12,104 L190.12,93.86 L195.18,102.3 L196.1,102.3 L201.16,93.8 L201.18,104 L203.1,104 L203.08,90 L201.44,90 L195.68,99.84 L189.84,90 L188.2,90 L188.2,104 L190.12,104 Z M211.3,104 L211.3,93.56 L219.7,104 L221.34,104 L221.34,90 L219.34,90 L219.34,100.44 L210.94,90 L209.3,90 L209.3,104 L211.3,104 Z M233.86,104.16 C235.26,104.16 236.526667,103.85 237.66,103.23 C238.793333,102.61 239.68,101.756667 240.32,100.67 C240.96,99.5833333 241.28,98.36 241.28,97 C241.28,95.64 240.96,94.4166667 240.32,93.33 C239.68,92.2433333 238.793333,91.39 237.66,90.77 C236.526667,90.15 235.26,89.84 233.86,89.84 C232.446667,89.84 231.173333,90.15 230.04,90.77 C228.906667,91.39 228.016667,92.2466667 227.37,93.34 C226.723333,94.4333333 226.4,95.6533333 226.4,97 C226.4,98.3466667 226.723333,99.5666667 227.37,100.66 C228.016667,101.753333 228.906667,102.61 230.04,103.23 C231.173333,103.85 232.446667,104.16 233.86,104.16 Z M233.86,102.38 C232.833333,102.38 231.903333,102.146667 231.07,101.68 C230.236667,101.213333 229.583333,100.57 229.11,99.75 C228.636667,98.93 228.4,98.0133333 228.4,97 C228.4,95.9866667 228.636667,95.07 229.11,94.25 C229.583333,93.43 230.236667,92.7866667 231.07,92.32 C231.903333,91.8533333 232.833333,91.62 233.86,91.62 C234.886667,91.62 235.81,91.8533333 236.63,92.32 C237.45,92.7866667 238.096667,93.43 238.57,94.25 C239.043333,95.07 239.28,95.9866667 239.28,97 C239.28,98.0133333 239.043333,98.93 238.57,99.75 C238.096667,100.57 237.45,101.213333 236.63,101.68 C235.81,102.146667 234.886667,102.38 233.86,102.38 Z M248.34,104 L248.34,99.76 L251.8,99.76 C253.613333,99.76 255.04,99.3266667 256.08,98.46 C257.12,97.5933333 257.64,96.4 257.64,94.88 C257.64,93.36 257.12,92.1666667 256.08,91.3 C255.04,90.4333333 253.613333,90 251.8,90 L251.8,90 L246.34,90 L246.34,104 L248.34,104 Z M251.74,98.02 L248.34,98.02 L248.34,91.74 L251.74,91.74 C253.006667,91.74 253.973333,92.01 254.64,92.55 C255.306667,93.09 255.64,93.8666667 255.64,94.88 C255.64,95.8933333 255.306667,96.67 254.64,97.21 C253.973333,97.75 253.006667,98.02 251.74,98.02 L251.74,98.02 Z M273.68,106.92 C274.373333,106.92 275.02,106.78 275.62,106.5 C276.22,106.22 276.746667,105.813333 277.2,105.28 L277.2,105.28 L276.26,104.14 C275.54,104.94 274.686667,105.34 273.7,105.34 C273.246667,105.34 272.803333,105.23 272.37,105.01 C271.936667,104.79 271.486667,104.433333 271.02,103.94 C272.1,103.686667 273.056667,103.233333 273.89,102.58 C274.723333,101.926667 275.37,101.12 275.83,100.16 C276.29,99.2 276.52,98.1466667 276.52,97 C276.52,95.64 276.2,94.4166667 275.56,93.33 C274.92,92.2433333 274.033333,91.39 272.9,90.77 C271.766667,90.15 270.5,89.84 269.1,89.84 C267.686667,89.84 266.413333,90.15 265.28,90.77 C264.146667,91.39 263.256667,92.2466667 262.61,93.34 C261.963333,94.4333333 261.64,95.6533333 261.64,97 C261.64,98.2933333 261.936667,99.47 262.53,100.53 C263.123333,101.59 263.95,102.44 265.01,103.08 C266.07,103.72 267.26,104.073333 268.58,104.14 C269.566667,105.153333 270.443333,105.87 271.21,106.29 C271.976667,106.71 272.8,106.92 273.68,106.92 Z M269.1,102.38 C268.073333,102.38 267.143333,102.146667 266.31,101.68 C265.476667,101.213333 264.823333,100.57 264.35,99.75 C263.876667,98.93 263.64,98.0133333 263.64,97 C263.64,95.9866667 263.876667,95.07 264.35,94.25 C264.823333,93.43 265.476667,92.7866667 266.31,92.32 C267.143333,91.8533333 268.073333,91.62 269.1,91.62 C270.113333,91.62 271.033333,91.8533333 271.86,92.32 C272.686667,92.7866667 273.336667,93.43 273.81,94.25 C274.283333,95.07 274.52,95.9866667 274.52,97 C274.52,98.0133333 274.283333,98.93 273.81,99.75 C273.336667,100.57 272.686667,101.213333 271.86,101.68 C271.033333,102.146667 270.113333,102.38 269.1,102.38 Z M283.58,104 L283.58,99.74 L287.04,99.74 C287.253333,99.74 287.546667,99.7266667 287.92,99.7 L287.92,99.7 L290.94,104 L293.12,104 L289.8,99.3 C290.786667,98.9533333 291.546667,98.4 292.08,97.64 C292.613333,96.88 292.88,95.96 292.88,94.88 C292.88,93.36 292.36,92.1666667 291.32,91.3 C290.28,90.4333333 288.853333,90 287.04,90 L287.04,90 L281.58,90 L281.58,104 L283.58,104 Z M286.98,98.04 L283.58,98.04 L283.58,91.74 L286.98,91.74 C288.246667,91.74 289.213333,92.01 289.88,92.55 C290.546667,93.09 290.88,93.8666667 290.88,94.88 C290.88,95.8933333 290.546667,96.6733333 289.88,97.22 C289.213333,97.7666667 288.246667,98.04 286.98,98.04 L286.98,98.04 Z M302.2,104.16 C303.386667,104.16 304.386667,103.983333 305.2,103.63 C306.013333,103.276667 306.62,102.796667 307.02,102.19 C307.42,101.583333 307.62,100.913333 307.62,100.18 C307.62,99.3 307.39,98.6 306.93,98.08 C306.47,97.56 305.92,97.1733333 305.28,96.92 C304.64,96.6666667 303.793333,96.4133333 302.74,96.16 C301.926667,95.9733333 301.283333,95.7966667 300.81,95.63 C300.336667,95.4633333 299.94,95.23 299.62,94.93 C299.3,94.63 299.14,94.24 299.14,93.76 C299.14,93.1066667 299.423333,92.5733333 299.99,92.16 C300.556667,91.7466667 301.406667,91.54 302.54,91.54 C303.18,91.54 303.833333,91.6366667 304.5,91.83 C305.166667,92.0233333 305.793333,92.3066667 306.38,92.68 L306.38,92.68 L307.04,91.08 C306.466667,90.68 305.78,90.3733333 304.98,90.16 C304.18,89.9466667 303.366667,89.84 302.54,89.84 C301.353333,89.84 300.36,90.02 299.56,90.38 C298.76,90.74 298.163333,91.22 297.77,91.82 C297.376667,92.42 297.18,93.0933333 297.18,93.84 C297.18,94.7333333 297.41,95.4433333 297.87,95.97 C298.33,96.4966667 298.883333,96.8866667 299.53,97.14 C300.176667,97.3933333 301.026667,97.6466667 302.08,97.9 C302.92,98.1 303.57,98.28 304.03,98.44 C304.49,98.6 304.876667,98.83 305.19,99.13 C305.503333,99.43 305.66,99.82 305.66,100.3 C305.66,100.953333 305.373333,101.476667 304.8,101.87 C304.226667,102.263333 303.36,102.46 302.2,102.46 C301.32,102.46 300.463333,102.31 299.63,102.01 C298.796667,101.71 298.113333,101.32 297.58,100.84 L297.58,100.84 L296.84,102.4 C297.4,102.92 298.17,103.343333 299.15,103.67 C300.13,103.996667 301.146667,104.16 302.2,104.16 Z M317.1,104 L317.1,91.74 L321.9,91.74 L321.9,90 L310.32,90 L310.32,91.74 L315.12,91.74 L315.12,104 L317.1,104 Z M331.62,104.16 C333.486667,104.16 334.94,103.63 335.98,102.57 C337.02,101.51 337.54,99.9733333 337.54,97.96 L337.54,97.96 L337.54,90 L335.6,90 L335.6,97.88 C335.6,99.4 335.26,100.53 334.58,101.27 C333.9,102.01 332.92,102.38 331.64,102.38 C329.013333,102.38 327.7,100.88 327.7,97.88 L327.7,97.88 L327.7,90 L325.7,90 L325.7,97.96 C325.7,99.96 326.22,101.493333 327.26,102.56 C328.3,103.626667 329.753333,104.16 331.62,104.16 Z M349.66,104 L355.8,90 L353.8,90 L348.72,101.5 L343.68,90 L341.52,90 L347.68,104 L349.66,104 Z M365.24,104 L369.06,92.82 L372.88,104 L374.98,104 L379.66,90 L377.76,90 L373.9,101.44 L370.04,90 L368.2,90 L364.26,101.38 L360.48,90 L358.42,90 L363.1,104 L365.24,104 Z M384.4,104 L388.54,98.22 L392.74,104 L395.04,104 L389.74,96.76 L394.68,90 L392.5,90 L388.62,95.38 L384.7,90 L382.42,90 L387.36,96.82 L382.1,104 L384.4,104 Z M404.16,104 L404.16,99.16 L409.72,90 L407.74,90 L403.24,97.38 L398.76,90 L396.62,90 L402.18,99.12 L402.18,104 L404.16,104 Z M424.2,104 L424.2,102.26 L415.18,102.26 L423.94,91.36 L423.94,90 L412.64,90 L412.64,91.74 L421.3,91.74 L412.5,102.64 L412.5,104 L424.2,104 Z" id="marinist_font_1"></path>
                </g>
            </g>
        </g>
    </g>
</svg>