<?xml version="1.0" encoding="UTF-8"?>
<svg width="350px" height="20px" viewBox="0 0 350 20" version="1.1" xmlns="http://www.w3.org/2000/svg" xmlns:xlink="http://www.w3.org/1999/xlink">
    <!-- Generator: Sketch 63.1 (92452) - https://sketch.com -->
    <title>marinist_font_2</title>
    <desc>Created with Sketch.</desc>
    <g id="Кейс" stroke="none" stroke-width="1" fill="none" fill-rule="evenodd" opacity="0.45186942">
        <g id="Marinist-XL" transform="translate(-831.000000, -2972.000000)" fill="#12171E" fill-rule="nonzero">
            <g id="Цвета-и-шрифты" transform="translate(165.000000, 2738.000000)">
                <g id="Group-11" transform="translate(664.000000, 112.000000)">
                    <path d="M5.92,138.12 C6.73333333,138.12 7.43666667,137.99 8.03,137.73 C8.62333333,137.47 9.08,137.093333 9.4,136.6 L9.4,136.6 L9.4,138 L11.22,138 L11.22,131.6 C11.22,130.173333 10.83,129.1 10.05,128.38 C9.27,127.66 8.14666667,127.3 6.68,127.3 C5.82666667,127.3 5.02,127.416667 4.26,127.65 C3.5,127.883333 2.84666667,128.22 2.3,128.66 L2.3,128.66 L3.1,130.1 C3.51333333,129.753333 4.02,129.476667 4.62,129.27 C5.22,129.063333 5.83333333,128.96 6.46,128.96 C7.39333333,128.96 8.1,129.18 8.58,129.62 C9.06,130.06 9.3,130.693333 9.3,131.52 L9.3,131.52 L9.3,131.9 L6.26,131.9 C4.78,131.9 3.7,132.183333 3.02,132.75 C2.34,133.316667 2,134.066667 2,135 C2,135.933333 2.35666667,136.686667 3.07,137.26 C3.78333333,137.833333 4.73333333,138.12 5.92,138.12 Z M6.24,136.64 C5.50666667,136.64 4.93333333,136.486667 4.52,136.18 C4.10666667,135.873333 3.9,135.453333 3.9,134.92 C3.9,133.826667 4.71333333,133.28 6.34,133.28 L6.34,133.28 L9.3,133.28 L9.3,134.76 C9.06,135.36 8.67333333,135.823333 8.14,136.15 C7.60666667,136.476667 6.97333333,136.64 6.24,136.64 Z M22.4,138.12 C23.4266667,138.12 24.3466667,137.893333 25.16,137.44 C25.9733333,136.986667 26.61,136.35 27.07,135.53 C27.53,134.71 27.76,133.766667 27.76,132.7 C27.76,131.633333 27.53,130.693333 27.07,129.88 C26.61,129.066667 25.9733333,128.433333 25.16,127.98 C24.3466667,127.526667 23.4266667,127.3 22.4,127.3 C21.64,127.3 20.94,127.443333 20.3,127.73 C19.66,128.016667 19.1266667,128.44 18.7,129 L18.7,129 L18.7,123.16 L16.78,123.16 L16.78,138 L18.62,138 L18.62,136.32 C19.0466667,136.906667 19.5866667,137.353333 20.24,137.66 C20.8933333,137.966667 21.6133333,138.12 22.4,138.12 Z M22.24,136.44 C21.5733333,136.44 20.9666667,136.283333 20.42,135.97 C19.8733333,135.656667 19.4466667,135.216667 19.14,134.65 C18.8333333,134.083333 18.68,133.433333 18.68,132.7 C18.68,131.966667 18.8333333,131.316667 19.14,130.75 C19.4466667,130.183333 19.8733333,129.746667 20.42,129.44 C20.9666667,129.133333 21.5733333,128.98 22.24,128.98 C22.92,128.98 23.53,129.133333 24.07,129.44 C24.61,129.746667 25.0366667,130.183333 25.35,130.75 C25.6633333,131.316667 25.82,131.966667 25.82,132.7 C25.82,133.433333 25.6633333,134.083333 25.35,134.65 C25.0366667,135.216667 24.61,135.656667 24.07,135.97 C23.53,136.283333 22.92,136.44 22.24,136.44 Z M37.04,138.12 C38,138.12 38.8566667,137.923333 39.61,137.53 C40.3633333,137.136667 40.9466667,136.573333 41.36,135.84 L41.36,135.84 L39.9,134.92 C39.5666667,135.426667 39.1533333,135.806667 38.66,136.06 C38.1666667,136.313333 37.62,136.44 37.02,136.44 C36.3266667,136.44 35.7033333,136.286667 35.15,135.98 C34.5966667,135.673333 34.1633333,135.236667 33.85,134.67 C33.5366667,134.103333 33.38,133.446667 33.38,132.7 C33.38,131.966667 33.5366667,131.316667 33.85,130.75 C34.1633333,130.183333 34.5966667,129.746667 35.15,129.44 C35.7033333,129.133333 36.3266667,128.98 37.02,128.98 C37.62,128.98 38.1666667,129.106667 38.66,129.36 C39.1533333,129.613333 39.5666667,129.993333 39.9,130.5 L39.9,130.5 L41.36,129.56 C40.9466667,128.826667 40.3633333,128.266667 39.61,127.88 C38.8566667,127.493333 38,127.3 37.04,127.3 C35.96,127.3 34.9966667,127.53 34.15,127.99 C33.3033333,128.45 32.64,129.09 32.16,129.91 C31.68,130.73 31.44,131.66 31.44,132.7 C31.44,133.74 31.68,134.67 32.16,135.49 C32.64,136.31 33.3033333,136.953333 34.15,137.42 C34.9966667,137.886667 35.96,138.12 37.04,138.12 Z M50.06,138.12 C50.8466667,138.12 51.5666667,137.966667 52.22,137.66 C52.8733333,137.353333 53.4133333,136.906667 53.84,136.32 L53.84,136.32 L53.84,138 L55.68,138 L55.68,123.16 L53.76,123.16 L53.76,129 C53.3333333,128.44 52.8,128.016667 52.16,127.73 C51.52,127.443333 50.82,127.3 50.06,127.3 C49.0333333,127.3 48.1133333,127.526667 47.3,127.98 C46.4866667,128.433333 45.85,129.066667 45.39,129.88 C44.93,130.693333 44.7,131.633333 44.7,132.7 C44.7,133.766667 44.93,134.71 45.39,135.53 C45.85,136.35 46.4866667,136.986667 47.3,137.44 C48.1133333,137.893333 49.0333333,138.12 50.06,138.12 Z M50.22,136.44 C49.54,136.44 48.93,136.283333 48.39,135.97 C47.85,135.656667 47.4233333,135.216667 47.11,134.65 C46.7966667,134.083333 46.64,133.433333 46.64,132.7 C46.64,131.966667 46.7966667,131.316667 47.11,130.75 C47.4233333,130.183333 47.85,129.746667 48.39,129.44 C48.93,129.133333 49.54,128.98 50.22,128.98 C50.8866667,128.98 51.4933333,129.133333 52.04,129.44 C52.5866667,129.746667 53.0133333,130.183333 53.32,130.75 C53.6266667,131.316667 53.78,131.966667 53.78,132.7 C53.78,133.433333 53.6266667,134.083333 53.32,134.65 C53.0133333,135.216667 52.5866667,135.656667 52.04,135.97 C51.4933333,136.283333 50.8866667,136.44 50.22,136.44 Z M66.04,138.12 C66.92,138.12 67.7166667,137.973333 68.43,137.68 C69.1433333,137.386667 69.74,136.96 70.22,136.4 L70.22,136.4 L69.16,135.16 C68.3866667,136.013333 67.3666667,136.44 66.1,136.44 C65.06,136.44 64.19,136.156667 63.49,135.59 C62.79,135.023333 62.38,134.273333 62.26,133.34 L62.26,133.34 L70.86,133.34 C70.8866667,133.1 70.9,132.906667 70.9,132.76 C70.9,131.693333 70.6766667,130.746667 70.23,129.92 C69.7833333,129.093333 69.1633333,128.45 68.37,127.99 C67.5766667,127.53 66.6733333,127.3 65.66,127.3 C64.6466667,127.3 63.7366667,127.53 62.93,127.99 C62.1233333,128.45 61.49,129.093333 61.03,129.92 C60.57,130.746667 60.34,131.673333 60.34,132.7 C60.34,133.74 60.5766667,134.673333 61.05,135.5 C61.5233333,136.326667 62.1933333,136.97 63.06,137.43 C63.9266667,137.89 64.92,138.12 66.04,138.12 Z M69.06,131.96 L62.26,131.96 C62.3666667,131.053333 62.73,130.32 63.35,129.76 C63.97,129.2 64.74,128.92 65.66,128.92 C66.58,128.92 67.35,129.203333 67.97,129.77 C68.59,130.336667 68.9533333,131.066667 69.06,131.96 L69.06,131.96 Z M77.76,138 L77.76,128.98 L80.8,128.98 L80.8,127.4 L77.72,127.4 L77.72,126.48 C77.72,125.24 78.2933333,124.62 79.44,124.62 C79.9866667,124.62 80.48,124.786667 80.92,125.12 L80.92,125.12 L81.5,123.66 C81.2333333,123.46 80.9133333,123.306667 80.54,123.2 C80.1666667,123.093333 79.7666667,123.04 79.34,123.04 C78.2333333,123.04 77.3733333,123.346667 76.76,123.96 C76.1466667,124.573333 75.84,125.406667 75.84,126.46 L75.84,126.46 L75.84,127.4 L74.04,127.4 L74.04,128.98 L75.84,128.98 L75.84,138 L77.76,138 Z M89.1,142 C90.9266667,142 92.3,141.556667 93.22,140.67 C94.14,139.783333 94.6,138.413333 94.6,136.56 L94.6,136.56 L94.6,127.4 L92.78,127.4 L92.78,129.04 C92.34,128.466667 91.7766667,128.033333 91.09,127.74 C90.4033333,127.446667 89.66,127.3 88.86,127.3 C87.8466667,127.3 86.93,127.513333 86.11,127.94 C85.29,128.366667 84.6466667,128.97 84.18,129.75 C83.7133333,130.53 83.48,131.42 83.48,132.42 C83.48,133.42 83.7133333,134.31 84.18,135.09 C84.6466667,135.87 85.29,136.476667 86.11,136.91 C86.93,137.343333 87.8466667,137.56 88.86,137.56 C89.6333333,137.56 90.35,137.423333 91.01,137.15 C91.67,136.876667 92.2266667,136.466667 92.68,135.92 L92.68,135.92 L92.68,136.76 C92.68,137.96 92.3833333,138.853333 91.79,139.44 C91.1966667,140.026667 90.28,140.32 89.04,140.32 C88.2666667,140.32 87.5166667,140.196667 86.79,139.95 C86.0633333,139.703333 85.4533333,139.366667 84.96,138.94 L84.96,138.94 L84.04,140.42 C84.6,140.926667 85.3333333,141.316667 86.24,141.59 C87.1466667,141.863333 88.1,142 89.1,142 Z M89.08,135.88 C88.3733333,135.88 87.7433333,135.733333 87.19,135.44 C86.6366667,135.146667 86.2033333,134.736667 85.89,134.21 C85.5766667,133.683333 85.42,133.086667 85.42,132.42 C85.42,131.393333 85.76,130.563333 86.44,129.93 C87.12,129.296667 88,128.98 89.08,128.98 C90.1466667,128.98 91.02,129.296667 91.7,129.93 C92.38,130.563333 92.72,131.393333 92.72,132.42 C92.72,133.086667 92.5633333,133.683333 92.25,134.21 C91.9366667,134.736667 91.5033333,135.146667 90.95,135.44 C90.3966667,135.733333 89.7733333,135.88 89.08,135.88 Z M102.18,138 L102.18,132.54 C102.18,131.406667 102.48,130.536667 103.08,129.93 C103.68,129.323333 104.5,129.02 105.54,129.02 C106.46,129.02 107.166667,129.28 107.66,129.8 C108.153333,130.32 108.4,131.093333 108.4,132.12 L108.4,132.12 L108.4,138 L110.32,138 L110.32,131.9 C110.32,130.393333 109.923333,129.25 109.13,128.47 C108.336667,127.69 107.266667,127.3 105.92,127.3 C105.12,127.3 104.396667,127.44 103.75,127.72 C103.103333,128 102.58,128.393333 102.18,128.9 L102.18,128.9 L102.18,123.16 L100.26,123.16 L100.26,138 L102.18,138 Z M116.84,125.36 C117.213333,125.36 117.523333,125.236667 117.77,124.99 C118.016667,124.743333 118.14,124.44 118.14,124.08 C118.14,123.733333 118.016667,123.443333 117.77,123.21 C117.523333,122.976667 117.213333,122.86 116.84,122.86 C116.466667,122.86 116.156667,122.983333 115.91,123.23 C115.663333,123.476667 115.54,123.773333 115.54,124.12 C115.54,124.466667 115.663333,124.76 115.91,125 C116.156667,125.24 116.466667,125.36 116.84,125.36 Z M117.8,138 L117.8,127.4 L115.88,127.4 L115.88,138 L117.8,138 Z M124.52,125.36 C124.893333,125.36 125.203333,125.236667 125.45,124.99 C125.696667,124.743333 125.82,124.44 125.82,124.08 C125.82,123.733333 125.696667,123.443333 125.45,123.21 C125.203333,122.976667 124.893333,122.86 124.52,122.86 C124.146667,122.86 123.836667,122.983333 123.59,123.23 C123.343333,123.476667 123.22,123.773333 123.22,124.12 C123.22,124.466667 123.343333,124.76 123.59,125 C123.836667,125.24 124.146667,125.36 124.52,125.36 Z M122.1,142 C123.18,142 124.013333,141.686667 124.6,141.06 C125.186667,140.433333 125.48,139.573333 125.48,138.48 L125.48,138.48 L125.48,127.4 L123.56,127.4 L123.56,138.52 C123.56,139.133333 123.423333,139.596667 123.15,139.91 C122.876667,140.223333 122.486667,140.38 121.98,140.38 C121.34,140.38 120.82,140.213333 120.42,139.88 L120.42,139.88 L119.8,141.36 C120.066667,141.573333 120.4,141.733333 120.8,141.84 C121.2,141.946667 121.633333,142 122.1,142 Z M133.06,138 L133.06,135.1 L135.26,133.06 L139.24,138 L141.6,138 L136.7,131.78 L141.16,127.4 L138.84,127.4 L133.06,132.68 L133.06,123.16 L131.14,123.16 L131.14,138 L133.06,138 Z M147.38,138 L147.38,123.16 L145.46,123.16 L145.46,138 L147.38,138 Z M154.96,138 L154.96,132.54 C154.96,131.406667 155.246667,130.536667 155.82,129.93 C156.393333,129.323333 157.166667,129.02 158.14,129.02 C159.02,129.02 159.696667,129.28 160.17,129.8 C160.643333,130.32 160.88,131.093333 160.88,132.12 L160.88,132.12 L160.88,138 L162.8,138 L162.8,132.54 C162.8,131.406667 163.086667,130.536667 163.66,129.93 C164.233333,129.323333 165.006667,129.02 165.98,129.02 C166.86,129.02 167.536667,129.28 168.01,129.8 C168.483333,130.32 168.72,131.093333 168.72,132.12 L168.72,132.12 L168.72,138 L170.64,138 L170.64,131.9 C170.64,130.38 170.25,129.233333 169.47,128.46 C168.69,127.686667 167.633333,127.3 166.3,127.3 C165.406667,127.3 164.603333,127.473333 163.89,127.82 C163.176667,128.166667 162.62,128.646667 162.22,129.26 C161.873333,128.62 161.38,128.133333 160.74,127.8 C160.1,127.466667 159.366667,127.3 158.54,127.3 C157.74,127.3 157.026667,127.443333 156.4,127.73 C155.773333,128.016667 155.266667,128.433333 154.88,128.98 L154.88,128.98 L154.88,127.4 L153.04,127.4 L153.04,138 L154.96,138 Z M178.1,138 L178.1,132.54 C178.1,131.406667 178.4,130.536667 179,129.93 C179.6,129.323333 180.42,129.02 181.46,129.02 C182.38,129.02 183.086667,129.28 183.58,129.8 C184.073333,130.32 184.32,131.093333 184.32,132.12 L184.32,132.12 L184.32,138 L186.24,138 L186.24,131.9 C186.24,130.393333 185.843333,129.25 185.05,128.47 C184.256667,127.69 183.186667,127.3 181.84,127.3 C181,127.3 180.25,127.446667 179.59,127.74 C178.93,128.033333 178.406667,128.453333 178.02,129 L178.02,129 L178.02,127.4 L176.18,127.4 L176.18,138 L178.1,138 Z M196.4,138.12 C197.453333,138.12 198.396667,137.886667 199.23,137.42 C200.063333,136.953333 200.716667,136.31 201.19,135.49 C201.663333,134.67 201.9,133.74 201.9,132.7 C201.9,131.66 201.663333,130.73 201.19,129.91 C200.716667,129.09 200.063333,128.45 199.23,127.99 C198.396667,127.53 197.453333,127.3 196.4,127.3 C195.346667,127.3 194.4,127.53 193.56,127.99 C192.72,128.45 192.063333,129.09 191.59,129.91 C191.116667,130.73 190.88,131.66 190.88,132.7 C190.88,133.74 191.116667,134.67 191.59,135.49 C192.063333,136.31 192.72,136.953333 193.56,137.42 C194.4,137.886667 195.346667,138.12 196.4,138.12 Z M196.4,136.44 C195.72,136.44 195.11,136.283333 194.57,135.97 C194.03,135.656667 193.603333,135.216667 193.29,134.65 C192.976667,134.083333 192.82,133.433333 192.82,132.7 C192.82,131.966667 192.976667,131.316667 193.29,130.75 C193.603333,130.183333 194.03,129.746667 194.57,129.44 C195.11,129.133333 195.72,128.98 196.4,128.98 C197.08,128.98 197.69,129.133333 198.23,129.44 C198.77,129.746667 199.193333,130.183333 199.5,130.75 C199.806667,131.316667 199.96,131.966667 199.96,132.7 C199.96,133.433333 199.806667,134.083333 199.5,134.65 C199.193333,135.216667 198.77,135.656667 198.23,135.97 C197.69,136.283333 197.08,136.44 196.4,136.44 Z M208.48,141.88 L208.48,136.4 C208.92,136.96 209.456667,137.386667 210.09,137.68 C210.723333,137.973333 211.42,138.12 212.18,138.12 C213.206667,138.12 214.126667,137.893333 214.94,137.44 C215.753333,136.986667 216.39,136.35 216.85,135.53 C217.31,134.71 217.54,133.766667 217.54,132.7 C217.54,131.633333 217.31,130.693333 216.85,129.88 C216.39,129.066667 215.753333,128.433333 214.94,127.98 C214.126667,127.526667 213.206667,127.3 212.18,127.3 C211.393333,127.3 210.673333,127.45 210.02,127.75 C209.366667,128.05 208.826667,128.493333 208.4,129.08 L208.4,129.08 L208.4,127.4 L206.56,127.4 L206.56,141.88 L208.48,141.88 Z M212.02,136.44 C211.353333,136.44 210.746667,136.283333 210.2,135.97 C209.653333,135.656667 209.226667,135.216667 208.92,134.65 C208.613333,134.083333 208.46,133.433333 208.46,132.7 C208.46,131.966667 208.616667,131.32 208.93,130.76 C209.243333,130.2 209.67,129.763333 210.21,129.45 C210.75,129.136667 211.353333,128.98 212.02,128.98 C212.7,128.98 213.31,129.133333 213.85,129.44 C214.39,129.746667 214.816667,130.183333 215.13,130.75 C215.443333,131.316667 215.6,131.966667 215.6,132.7 C215.6,133.433333 215.443333,134.083333 215.13,134.65 C214.816667,135.216667 214.39,135.656667 213.85,135.97 C213.31,136.283333 212.7,136.44 212.02,136.44 Z M232.2,141.88 L232.2,127.4 L230.36,127.4 L230.36,129.08 C229.933333,128.493333 229.393333,128.05 228.74,127.75 C228.086667,127.45 227.366667,127.3 226.58,127.3 C225.553333,127.3 224.633333,127.526667 223.82,127.98 C223.006667,128.433333 222.37,129.066667 221.91,129.88 C221.45,130.693333 221.22,131.633333 221.22,132.7 C221.22,133.766667 221.45,134.71 221.91,135.53 C222.37,136.35 223.006667,136.986667 223.82,137.44 C224.633333,137.893333 225.553333,138.12 226.58,138.12 C227.34,138.12 228.036667,137.973333 228.67,137.68 C229.303333,137.386667 229.84,136.96 230.28,136.4 L230.28,136.4 L230.28,141.88 L232.2,141.88 Z M226.74,136.44 C226.06,136.44 225.45,136.283333 224.91,135.97 C224.37,135.656667 223.943333,135.216667 223.63,134.65 C223.316667,134.083333 223.16,133.433333 223.16,132.7 C223.16,131.966667 223.316667,131.316667 223.63,130.75 C223.943333,130.183333 224.37,129.746667 224.91,129.44 C225.45,129.133333 226.06,128.98 226.74,128.98 C227.406667,128.98 228.01,129.136667 228.55,129.45 C229.09,129.763333 229.516667,130.2 229.83,130.76 C230.143333,131.32 230.3,131.966667 230.3,132.7 C230.3,133.433333 230.146667,134.083333 229.84,134.65 C229.533333,135.216667 229.106667,135.656667 228.56,135.97 C228.013333,136.283333 227.406667,136.44 226.74,136.44 Z M239.76,138 L239.76,132.72 C239.76,131.573333 240.056667,130.69 240.65,130.07 C241.243333,129.45 242.06,129.14 243.1,129.14 C243.286667,129.14 243.433333,129.146667 243.54,129.16 L243.54,129.16 L243.54,127.3 C242.606667,127.3 241.813333,127.46 241.16,127.78 C240.506667,128.1 240.013333,128.566667 239.68,129.18 L239.68,129.18 L239.68,127.4 L237.84,127.4 L237.84,138 L239.76,138 Z M251.02,138.12 C252.433333,138.12 253.55,137.836667 254.37,137.27 C255.19,136.703333 255.6,135.94 255.6,134.98 C255.6,134.26 255.413333,133.7 255.04,133.3 C254.666667,132.9 254.216667,132.616667 253.69,132.45 C253.163333,132.283333 252.473333,132.126667 251.62,131.98 C250.98,131.86 250.483333,131.753333 250.13,131.66 C249.776667,131.566667 249.48,131.42 249.24,131.22 C249,131.02 248.88,130.746667 248.88,130.4 C248.88,129.96 249.093333,129.606667 249.52,129.34 C249.946667,129.073333 250.566667,128.94 251.38,128.94 C252.553333,128.94 253.573333,129.22 254.44,129.78 L254.44,129.78 L255.26,128.26 C254.806667,127.966667 254.226667,127.733333 253.52,127.56 C252.813333,127.386667 252.106667,127.3 251.4,127.3 C250.053333,127.3 248.98,127.59 248.18,128.17 C247.38,128.75 246.98,129.52 246.98,130.48 C246.98,131.226667 247.173333,131.806667 247.56,132.22 C247.946667,132.633333 248.41,132.926667 248.95,133.1 C249.49,133.273333 250.186667,133.426667 251.04,133.56 C251.666667,133.666667 252.15,133.763333 252.49,133.85 C252.83,133.936667 253.113333,134.073333 253.34,134.26 C253.566667,134.446667 253.68,134.7 253.68,135.02 C253.68,135.98 252.84,136.46 251.16,136.46 C250.48,136.46 249.806667,136.36 249.14,136.16 C248.473333,135.96 247.906667,135.693333 247.44,135.36 L247.44,135.36 L246.64,136.88 C247.093333,137.24 247.72,137.536667 248.52,137.77 C249.32,138.003333 250.153333,138.12 251.02,138.12 Z M263.64,138.12 C264.08,138.12 264.506667,138.056667 264.92,137.93 C265.333333,137.803333 265.68,137.62 265.96,137.38 L265.96,137.38 L265.36,136 C264.946667,136.333333 264.446667,136.5 263.86,136.5 C263.326667,136.5 262.916667,136.346667 262.63,136.04 C262.343333,135.733333 262.2,135.293333 262.2,134.72 L262.2,134.72 L262.2,128.98 L265.24,128.98 L265.24,127.4 L262.2,127.4 L262.2,125.08 L260.28,125.08 L260.28,127.4 L258.48,127.4 L258.48,128.98 L260.28,128.98 L260.28,134.8 C260.28,135.866667 260.573333,136.686667 261.16,137.26 C261.746667,137.833333 262.573333,138.12 263.64,138.12 Z M274.74,138.12 C275.486667,138.12 276.176667,137.97 276.81,137.67 C277.443333,137.37 277.953333,136.946667 278.34,136.4 L278.34,136.4 L278.34,138 L280.16,138 L280.16,127.4 L278.24,127.4 L278.24,132.88 C278.24,134 277.946667,134.866667 277.36,135.48 C276.773333,136.093333 275.973333,136.4 274.96,136.4 C274.04,136.4 273.333333,136.136667 272.84,135.61 C272.346667,135.083333 272.1,134.306667 272.1,133.28 L272.1,133.28 L272.1,127.4 L270.18,127.4 L270.18,133.5 C270.18,135.02 270.586667,136.17 271.4,136.95 C272.213333,137.73 273.326667,138.12 274.74,138.12 Z M290.56,138 L295.2,127.4 L293.32,127.4 L289.6,135.9 L285.96,127.4 L283.96,127.4 L288.6,138 L290.56,138 Z M302.92,138 L306.02,129.96 L309.08,138 L310.92,138 L314.88,127.4 L313.16,127.4 L310,135.88 L306.86,127.4 L305.24,127.4 L302.04,135.84 L298.96,127.4 L297.14,127.4 L301.08,138 L302.92,138 Z M318.82,138 L321.92,133.94 L324.98,138 L327.16,138 L322.94,132.58 L326.94,127.4 L324.84,127.4 L321.94,131.22 L319.02,127.4 L316.88,127.4 L320.86,132.58 L316.68,138 L318.82,138 Z M331.12,142 C331.973333,142 332.703333,141.78 333.31,141.34 C333.916667,140.9 334.446667,140.14 334.9,139.06 L334.9,139.06 L340.04,127.4 L338.16,127.4 L334.5,135.88 L330.8,127.4 L328.8,127.4 L333.48,137.98 L333.14,138.72 C332.886667,139.32 332.603333,139.743333 332.29,139.99 C331.976667,140.236667 331.586667,140.36 331.12,140.36 C330.4,140.36 329.766667,140.1 329.22,139.58 L329.22,139.58 L328.4,141.02 C328.72,141.34 329.123333,141.583333 329.61,141.75 C330.096667,141.916667 330.6,142 331.12,142 Z M351.5,138 L351.5,136.42 L345.08,136.42 L351.34,128.66 L351.34,127.4 L342.74,127.4 L342.74,128.98 L348.88,128.98 L342.62,136.76 L342.62,138 L351.5,138 Z" id="marinist_font_2"></path>
                </g>
            </g>
        </g>
    </g>
</svg>