<?xml version="1.0" encoding="UTF-8"?>
<svg width="421px" height="29px" viewBox="0 0 421 29" version="1.1" xmlns="http://www.w3.org/2000/svg" xmlns:xlink="http://www.w3.org/1999/xlink">
    <!-- Generator: Sketch 63.1 (92452) - https://sketch.com -->
    <title>marinist_3</title>
    <desc>Created with Sketch.</desc>
    <g id="Кейс" stroke="none" stroke-width="1" fill="none" fill-rule="evenodd">
        <g id="Marinist-XL" transform="translate(-830.000000, -3120.000000)" fill="#12171E" fill-rule="nonzero">
            <g id="Цвета-и-шрифты" transform="translate(165.000000, 2738.000000)">
                <g id="Group-10" transform="translate(664.000000, 297.000000)">
                    <path d="M10.3,108.68 C10.38,108.68 10.444,108.636 10.492,108.548 C10.372,108.252 10.308,108.088 10.3,108.056 L10.228,107.78 C10.172,107.62 10.116,107.408 10.06,107.144 C9.772,105.696 9.608,104.412 9.568,103.292 C9.56,103.108 9.556,102.836 9.556,102.476 C9.556,101.452 9.616,100.424 9.736,99.392 C9.824,98.656 9.968,97.732 10.168,96.62 C10.24,96.172 10.384,95.456 10.6,94.472 L10.936,92.96 C11.016,92.624 11.128,92.12 11.272,91.448 L11.476,90.5 C11.58,90.028 11.728,89.32 11.92,88.376 C11.968,88.144 12.016,87.788 12.064,87.308 C12.072,87.18 12.06,86.98 12.028,86.708 C12.012,86.628 11.98,86.556 11.932,86.492 C11.86,86.404 11.764,86.334 11.644,86.282 C11.524,86.23 11.404,86.204 11.284,86.204 C11.148,86.204 11.028,86.232 10.924,86.288 C10.804,86.36 10.632,86.484 10.408,86.66 C10.2,86.828 10.002,87.01 9.814,87.206 C9.626,87.402 9.396,87.652 9.124,87.956 C8.58,88.572 8.088,89.2 7.648,89.84 C7.472,90.08 7.216,90.448 6.88,90.944 C6.44,91.584 6.012,92.284 5.596,93.044 C5.38,93.428 5.192,93.784 5.032,94.112 L4.696,94.748 C4.36,95.404 4.032,96.132 3.712,96.932 L3.424,97.7 C3.32,97.98 3.22,98.24 3.124,98.48 C2.884,99.096 2.564,100.044 2.164,101.324 C2.116,101.5 2.066,101.64 2.014,101.744 C1.962,101.848 1.884,101.936 1.78,102.008 L1.756,102.032 C1.684,102.112 1.648,102.18 1.648,102.236 C1.648,102.276 1.692,102.348 1.78,102.452 L1.816,102.524 L1.744,102.812 C1.536,103.564 1.352,104.352 1.192,105.176 C1.184,105.224 1.152,105.406 1.096,105.722 C1.04,106.038 1.008,106.344 1,106.64 C1,106.776 1.004,106.88 1.012,106.952 C1.02,106.984 1.042,107.012 1.078,107.036 C1.114,107.06 1.152,107.076 1.192,107.084 C1.272,107.084 1.324,107.052 1.348,106.988 C1.372,106.948 1.392,106.872 1.408,106.76 C1.544,105.848 1.7,105.064 1.876,104.408 L2.5,102.092 C2.532,101.956 2.624,101.852 2.776,101.78 C3.384,101.516 4.028,101.336 4.708,101.24 C5.02,101.192 5.328,101.168 5.632,101.168 C6.152,101.168 6.728,101.24 7.36,101.384 C7.552,101.432 7.84,101.528 8.224,101.672 C8.4,101.736 8.532,101.836 8.62,101.972 C8.652,102.02 8.694,102.088 8.746,102.176 C8.798,102.264 8.852,102.332 8.908,102.38 C8.94,102.404 8.956,102.444 8.956,102.5 C8.964,102.556 8.968,102.636 8.968,102.74 C8.968,103.5 9.024,104.284 9.136,105.092 C9.296,106.164 9.488,107.124 9.712,107.972 L9.832,108.356 C9.88,108.524 10.016,108.628 10.24,108.668 L10.3,108.68 Z M8.848,101.78 C8.64,101.62 8.412,101.49 8.164,101.39 C7.916,101.29 7.632,101.196 7.312,101.108 C6.728,100.948 6.108,100.868 5.452,100.868 C5.204,100.868 4.952,100.88 4.696,100.904 C4.152,100.96 3.588,101.096 3.004,101.312 L2.812,101.36 C2.804,101.368 2.798,101.37 2.794,101.366 C2.79,101.362 2.784,101.36 2.776,101.36 C2.76,101.328 2.752,101.304 2.752,101.288 C2.752,101.264 2.758,101.24 2.77,101.216 C2.782,101.192 2.788,101.176 2.788,101.168 L3.256,99.692 C3.632,98.628 4.012,97.652 4.396,96.764 C4.876,95.66 5.384,94.62 5.92,93.644 C6.504,92.612 7.108,91.64 7.732,90.728 C8.372,89.8 9.08,88.896 9.856,88.016 C10.296,87.52 10.712,87.112 11.104,86.792 C11.12,86.776 11.16,86.744 11.224,86.696 C11.288,86.648 11.364,86.62 11.452,86.612 C11.476,86.732 11.488,86.848 11.488,86.96 C11.488,87.104 11.476,87.244 11.452,87.38 C11.372,87.996 11.232,88.76 11.032,89.672 C10.808,90.688 10.66,91.356 10.588,91.676 L10.144,93.68 C9.912,94.768 9.696,95.828 9.496,96.86 C9.392,97.428 9.292,98.092 9.196,98.852 C9.148,99.212 9.092,99.752 9.028,100.472 L8.968,101.48 L8.956,101.78 C8.94,101.78 8.922,101.782 8.902,101.786 C8.882,101.79 8.864,101.788 8.848,101.78 Z M19.996,109.736 C20.684,109.736 21.424,109.548 22.216,109.172 C23.28,108.668 24.308,107.952 25.3,107.024 C26.116,106.248 26.804,105.444 27.364,104.612 C28.268,103.292 28.872,101.996 29.176,100.724 C29.272,100.316 29.32,99.908 29.32,99.5 C29.32,99.228 29.296,98.956 29.248,98.684 C29.088,97.82 28.616,97.22 27.832,96.884 C27.576,96.788 27.348,96.72 27.148,96.68 C26.916,96.616 26.648,96.584 26.344,96.584 L25.972,96.596 L25.864,96.608 C25.824,96.608 25.784,96.588 25.744,96.548 C25.776,96.516 25.816,96.468 25.864,96.404 L26.824,95.36 C27.696,94.384 28.396,93.392 28.924,92.384 C29.524,91.232 29.872,90.16 29.968,89.168 C29.984,88.976 29.992,88.832 29.992,88.736 C29.992,88.448 29.964,88.18 29.908,87.932 C29.772,87.364 29.424,87.02 28.864,86.9 C28.776,86.876 28.644,86.864 28.468,86.864 C28.132,86.872 27.752,87 27.328,87.248 C26.816,87.536 26.28,87.976 25.72,88.568 C25.16,89.144 24.584,89.896 23.992,90.824 C23.424,91.712 22.896,92.716 22.408,93.836 C21.984,94.772 21.592,95.8 21.232,96.92 C20.88,98.008 20.644,99.036 20.524,100.004 C20.468,100.412 20.44,100.756 20.44,101.036 C20.44,101.22 20.452,101.404 20.476,101.588 C20.484,101.66 20.496,101.722 20.512,101.774 C20.528,101.826 20.54,101.872 20.548,101.912 C20.572,101.992 20.636,102.012 20.74,101.972 L20.74,101.684 C20.74,101.532 20.744,101.42 20.752,101.348 C20.752,101.052 20.76,100.828 20.776,100.676 C20.872,99.756 21.088,98.736 21.424,97.616 C21.72,96.656 22.068,95.704 22.468,94.76 C23.044,93.44 23.62,92.308 24.196,91.364 C24.972,90.1 25.78,89.084 26.62,88.316 C27.036,87.924 27.46,87.612 27.892,87.38 C28.212,87.228 28.496,87.152 28.744,87.152 C28.88,87.152 28.986,87.178 29.062,87.23 C29.138,87.282 29.208,87.38 29.272,87.524 C29.4,87.78 29.464,88.112 29.464,88.52 C29.464,89.168 29.328,89.892 29.056,90.692 C28.68,91.716 28.116,92.748 27.364,93.788 C26.708,94.7 25.832,95.696 24.736,96.776 L24.616,96.932 C24.744,97.076 24.868,97.148 24.988,97.148 C25.06,97.148 25.128,97.132 25.192,97.1 L25.312,97.064 C25.688,96.936 26.08,96.872 26.488,96.872 C26.736,96.872 26.98,96.896 27.22,96.944 C27.812,97.056 28.24,97.384 28.504,97.928 C28.584,98.12 28.636,98.268 28.66,98.372 C28.74,98.62 28.78,98.932 28.78,99.308 C28.78,99.836 28.696,100.376 28.528,100.928 C28.208,102.04 27.672,103.152 26.92,104.264 C26.28,105.208 25.56,106.052 24.76,106.796 C23.816,107.676 22.832,108.364 21.808,108.86 C21.208,109.164 20.62,109.348 20.044,109.412 C19.98,109.42 19.884,109.424 19.756,109.424 C19.316,109.424 18.92,109.3 18.568,109.052 C18.304,108.868 18.08,108.652 17.896,108.404 C17.456,107.828 17.188,107.156 17.092,106.388 C17.044,106.052 17.02,105.724 17.02,105.404 C17.02,104.54 17.18,103.664 17.5,102.776 C17.54,102.672 17.596,102.564 17.668,102.452 C17.74,102.34 17.784,102.272 17.8,102.248 C17.808,102.224 17.832,102.2 17.872,102.176 C17.912,102.152 17.94,102.132 17.956,102.116 C18.06,102.244 18.12,102.316 18.136,102.332 L18.244,102.548 C18.388,102.844 18.48,103.036 18.52,103.124 C18.552,103.204 18.636,103.436 18.772,103.82 L19.024,104.516 C19.096,104.7 19.252,105.012 19.492,105.452 C19.516,105.492 19.596,105.568 19.732,105.68 C19.74,105.688 19.752,105.692 19.768,105.692 L19.864,105.68 C19.832,105.592 19.812,105.54 19.804,105.524 C19.66,105.292 19.538,105.048 19.438,104.792 C19.338,104.536 19.224,104.212 19.096,103.82 C18.984,103.468 18.832,103.068 18.64,102.62 C18.568,102.452 18.468,102.292 18.34,102.14 C18.196,101.956 18.028,101.864 17.836,101.864 C17.636,101.864 17.468,101.968 17.332,102.176 C17.212,102.352 17.116,102.544 17.044,102.752 C16.884,103.144 16.76,103.564 16.672,104.012 C16.576,104.572 16.528,105.068 16.528,105.5 C16.528,105.892 16.564,106.28 16.636,106.664 C16.812,107.552 17.204,108.284 17.812,108.86 C18.444,109.444 19.172,109.736 19.996,109.736 Z M36.952,109.76 C37.168,109.76 37.396,109.724 37.636,109.652 C37.868,109.58 38.128,109.468 38.416,109.316 C38.944,109.036 39.524,108.616 40.156,108.056 L42.712,105.704 C42.971,105.466 43.11975,105.329062 43.15825,105.293187 L43.168,105.284 C43.208,105.244 43.356,105.104 43.612,104.864 C43.868,104.624 44.128,104.404 44.392,104.204 C44.272,104.108 44.164,104.06 44.068,104.06 C43.996,104.06 43.916,104.092 43.828,104.156 L43.54,104.372 L40.84,106.784 L40.384,107.192 C39.712,107.8 39.196,108.244 38.836,108.524 C38.372,108.892 37.88,109.176 37.36,109.376 C37.224,109.432 37.084,109.46 36.94,109.46 C36.716,109.46 36.504,109.372 36.304,109.196 C36.2,109.092 36.148,109.04 36.148,109.04 C35.908,108.76 35.736,108.396 35.632,107.948 C35.544,107.564 35.5,107.132 35.5,106.652 C35.5,106.516 35.508,106.296 35.524,105.992 C35.62,105.016 35.836,103.908 36.172,102.668 C36.244,102.396 36.36,101.996 36.52,101.468 L36.772,100.64 C37.068,99.664 37.444,98.66 37.9,97.628 C38.38,96.58 38.832,95.676 39.256,94.916 C39.896,93.764 40.568,92.664 41.272,91.616 C41.776,90.856 42.28,90.204 42.784,89.66 C43.232,89.172 43.688,88.812 44.152,88.58 C44.4,88.452 44.648,88.388 44.896,88.388 C45.12,88.388 45.322,88.44 45.502,88.544 C45.682,88.648 45.832,88.8 45.952,89 C46.024,89.152 46.068,89.26 46.084,89.324 C46.14,89.5 46.18,89.712 46.204,89.96 C46.22,90.104 46.228,90.212 46.228,90.284 C46.228,90.46 46.204,90.724 46.156,91.076 C46.132,91.22 46.124,91.308 46.132,91.34 C46.132,91.356 46.144,91.376 46.168,91.4 C46.192,91.424 46.216,91.436 46.24,91.436 L46.252,91.436 C46.3,91.436 46.344,91.416 46.384,91.376 C46.416,91.336 46.44,91.284 46.456,91.22 C46.6,90.86 46.672,90.5 46.672,90.14 C46.672,89.948 46.656,89.776 46.624,89.624 C46.592,89.408 46.52,89.204 46.408,89.012 C46.288,88.82 46.138,88.658 45.958,88.526 C45.778,88.394 45.564,88.272 45.316,88.16 C45.108,88.072 44.884,88.028 44.644,88.028 C44.292,88.028 43.928,88.132 43.552,88.34 C43.104,88.604 42.64,88.996 42.16,89.516 C41.808,89.908 41.474,90.324 41.158,90.764 C40.842,91.204 40.504,91.708 40.144,92.276 C39.36,93.508 38.684,94.688 38.116,95.816 C37.748,96.552 37.424,97.256 37.144,97.928 C36.744,98.856 36.344,99.972 35.944,101.276 C35.704,102.028 35.468,102.916 35.236,103.94 C35.02,104.956 34.908,105.868 34.9,106.676 C34.9,107.284 34.968,107.804 35.104,108.236 C35.224,108.604 35.356,108.872 35.5,109.04 C35.908,109.52 36.392,109.76 36.952,109.76 Z M53.26,108.272 C53.476,108.272 53.696,108.26 53.92,108.236 C54.576,108.164 55.312,107.96 56.128,107.624 C57.384,107.088 58.652,106.324 59.932,105.332 C60.7,104.748 61.432,104.112 62.128,103.424 C62.912,102.64 63.48,102.036 63.832,101.612 C64.856,100.404 65.7,99.24 66.364,98.12 C67.156,96.776 67.724,95.512 68.068,94.328 C68.316,93.44 68.44,92.628 68.44,91.892 C68.44,91.62 68.432,91.416 68.416,91.28 C68.28,89.976 67.732,88.968 66.772,88.256 C65.652,87.424 64.264,87.008 62.608,87.008 C61.736,87.008 60.816,87.192 59.848,87.56 C58.32,88.16 57,89.036 55.888,90.188 C55.512,90.564 55.24,90.892 55.072,91.172 C55.048,91.22 55.02,91.292 54.988,91.388 L55.024,91.412 C55.112,91.292 55.2,91.18 55.288,91.076 C55.92,90.356 56.604,89.744 57.34,89.24 C57.916,88.824 58.544,88.456 59.224,88.136 C59.936,87.816 60.612,87.588 61.252,87.452 C61.74,87.348 62.236,87.296 62.74,87.296 C63.3,87.296 63.872,87.364 64.456,87.5 C65.272,87.692 65.976,87.996 66.568,88.412 C67.176,88.844 67.584,89.404 67.792,90.092 C67.936,90.532 68.008,91.032 68.008,91.592 C68.008,92.744 67.732,93.996 67.18,95.348 C66.844,96.148 66.448,96.928 65.992,97.688 C65.384,98.712 64.712,99.68 63.976,100.592 C63.32,101.408 62.716,102.084 62.164,102.62 C61.596,103.188 61.164,103.604 60.868,103.868 C60.02,104.636 59.12,105.332 58.168,105.956 C57.224,106.58 56.292,107.072 55.372,107.432 C54.716,107.688 54.092,107.844 53.5,107.9 C53.324,107.916 53.188,107.924 53.092,107.924 C52.812,107.924 52.56,107.896 52.336,107.84 C51.768,107.72 51.36,107.364 51.112,106.772 C50.952,106.42 50.872,106.036 50.872,105.62 C50.872,105.18 50.956,104.732 51.124,104.276 C51.124,104.268 51.132,104.242 51.148,104.198 C51.164,104.154 51.204,104.128 51.268,104.12 C51.276,104.136 51.284,104.152 51.292,104.168 C51.3,104.184 51.308,104.204 51.316,104.228 C51.372,104.436 51.416,104.612 51.448,104.756 C51.552,105.372 51.628,105.796 51.676,106.028 C51.716,106.284 51.8,106.484 51.928,106.628 C51.952,106.652 51.976,106.664 52,106.664 C52.024,106.664 52.056,106.652 52.096,106.628 L52.072,106.508 C52.056,106.444 52.034,106.354 52.006,106.238 C51.978,106.122 51.96,106.024 51.952,105.944 L51.88,105.44 C51.848,105.224 51.82,105.052 51.796,104.924 C51.764,104.748 51.708,104.484 51.628,104.132 C51.572,103.908 51.452,103.764 51.268,103.7 C51.212,103.676 51.16,103.664 51.112,103.664 C51,103.664 50.904,103.732 50.824,103.868 C50.776,103.94 50.708,104.088 50.62,104.312 C50.492,104.672 50.428,105.068 50.428,105.5 C50.428,106.764 50.968,107.62 52.048,108.068 C52.384,108.204 52.788,108.272 53.26,108.272 Z M53.596,104.816 L53.692,104.792 C53.772,104.76 53.82,104.712 53.836,104.648 C53.884,104.512 53.896,104.404 53.872,104.324 C53.848,104.252 53.836,104.176 53.836,104.096 C53.836,104.032 53.844,103.944 53.86,103.832 C54.044,102.384 54.316,100.992 54.676,99.656 C54.964,98.52 55.252,97.524 55.54,96.668 C55.796,95.876 56.064,95.112 56.344,94.376 C56.408,94.2 56.588,93.748 56.884,93.02 L57.256,92.108 C57.504,91.508 57.76,90.96 58.024,90.464 C58.072,90.384 58.11,90.314 58.138,90.254 C58.166,90.194 58.188,90.144 58.204,90.104 C58.212,90.088 58.216,90.068 58.216,90.044 C58.216,90.012 58.196,89.988 58.156,89.972 C58.084,89.948 58.032,89.952 58,89.984 C57.944,90.016 57.888,90.076 57.832,90.164 C57.592,90.532 57.416,90.808 57.304,90.992 C57.136,91.288 56.98,91.59 56.836,91.898 C56.692,92.206 56.52,92.592 56.32,93.056 C55.872,94.088 55.46,95.168 55.084,96.296 C54.716,97.416 54.428,98.376 54.22,99.176 C54.02,99.912 53.8,100.864 53.56,102.032 C53.464,102.68 53.4,103.12 53.368,103.352 C53.344,103.512 53.326,103.688 53.314,103.88 C53.302,104.072 53.292,104.208 53.284,104.288 L53.272,104.408 C53.272,104.448 53.28,104.508 53.296,104.588 C53.312,104.652 53.348,104.706 53.404,104.75 C53.46,104.794 53.524,104.816 53.596,104.816 Z M72.365,107.582667 L72.484,107.576 C72.748,107.544 72.936,107.516 73.048,107.492 C74.408,107.196 75.776,107.004 77.152,106.916 C77.976,106.86 78.68,106.832 79.264,106.832 C79.56,106.832 79.78,106.836 79.924,106.844 C80.044,106.844 80.132,106.84 80.188,106.832 C80.212,106.824 80.256,106.796 80.32,106.748 C80.296,106.668 80.258,106.614 80.206,106.586 C80.154,106.558 80.084,106.54 79.996,106.532 C79.692,106.508 79.388,106.496 79.084,106.496 C78.82,106.496 78.408,106.504 77.848,106.52 L77.848,106.52 L77.2,106.532 C76.336,106.556 75.564,106.628 74.884,106.748 C74.812,106.756 74.208,106.864 73.072,107.072 L73.072,107.072 L72.592,107.168 C72.568,107.176 72.53,107.184 72.478,107.192 C72.426,107.2 72.38,107.204 72.34,107.204 C72.3,107.204 72.268,107.2 72.244,107.192 C72.212,107.12 72.196,107.032 72.196,106.928 C72.196,106.856 72.2,106.794 72.208,106.742 C72.216,106.69 72.224,106.644 72.232,106.604 C72.272,106.292 72.336,105.974 72.424,105.65 C72.512,105.326 72.564,105.14 72.58,105.092 C72.604,105.004 72.688,104.708 72.832,104.204 L72.832,104.204 L72.94,103.82 L73.3,102.596 C73.34,102.484 73.408,102.416 73.504,102.392 L73.504,102.392 L73.636,102.356 L74.764,102.128 C75.012,102.072 75.384,101.996 75.88,101.9 C76.032,101.868 76.166,101.844 76.282,101.828 C76.398,101.812 76.492,101.8 76.564,101.792 C76.652,101.784 76.804,101.764 77.02,101.732 C77.148,101.716 77.24,101.74 77.296,101.804 L77.296,101.804 L77.38,101.864 C77.388,101.864 77.406,101.866 77.434,101.87 C77.462,101.874 77.484,101.868 77.5,101.852 C77.524,101.828 77.536,101.8 77.536,101.768 L77.536,101.768 L77.536,101.732 C77.496,101.58 77.426,101.466 77.326,101.39 C77.226,101.314 77.104,101.28 76.96,101.288 C76.664,101.296 76.372,101.332 76.084,101.396 C75.764,101.452 75.484,101.506 75.244,101.558 C75.004,101.61 74.804,101.652 74.644,101.684 L74.644,101.684 L73.768,101.864 C73.752,101.872 73.734,101.88 73.714,101.888 C73.694,101.896 73.668,101.9 73.636,101.9 C73.604,101.9 73.572,101.884 73.54,101.852 C73.564,101.716 73.58,101.632 73.588,101.6 L73.588,101.6 L73.804,100.784 L74.08,99.74 L74.812,96.908 C75.036,95.98 75.224,95.244 75.376,94.7 L75.376,94.7 L76.06,92.516 C76.204,92.052 76.424,91.548 76.72,91.004 C77.144,90.196 77.828,89.728 78.772,89.6 C79.052,89.56 79.316,89.54 79.564,89.54 C80.044,89.54 80.576,89.56 81.16,89.6 L81.16,89.6 L82.312,89.648 L82.852,89.66 L83.392,89.648 C83.752,89.632 84.072,89.588 84.352,89.516 C84.376,89.508 84.416,89.476 84.472,89.42 C84.456,89.412 84.434,89.398 84.406,89.378 C84.378,89.358 84.356,89.348 84.34,89.348 C84.212,89.332 84.112,89.324 84.04,89.324 C83.808,89.348 83.58,89.36 83.356,89.36 C83.1,89.36 82.844,89.348 82.588,89.324 L82.588,89.324 L79.756,89.144 C79.628,89.136 79.436,89.132 79.18,89.132 C78.82,89.132 78.52,89.156 78.28,89.204 C77.432,89.348 76.784,89.772 76.336,90.476 C76.136,90.788 75.96,91.14 75.808,91.532 C75.576,92.1 75.256,93.102 74.848,94.538 L74.7627143,94.8388878 C74.4024286,96.1131531 74.1628571,97.0028571 74.044,97.508 C73.652,99.084 73.304,100.388 73,101.42 C72.976,101.492 72.948,101.602 72.916,101.75 C72.884,101.898 72.836,102.02 72.772,102.116 C72.604,102.188 72.436,102.248 72.268,102.296 C72.116,102.344 71.966,102.4 71.818,102.464 C71.67,102.528 71.536,102.604 71.416,102.692 C71.448,102.78 71.476,102.84 71.5,102.872 C71.524,102.904 71.556,102.92 71.596,102.92 L71.596,102.92 L71.692,102.896 L72.436,102.668 C72.524,102.636 72.584,102.648 72.616,102.704 C72.616,102.76 72.612,102.8 72.604,102.824 C72.38,103.56 72.216,104.112 72.112,104.48 C71.984,104.928 71.882,105.302 71.806,105.602 C71.73,105.902 71.672,106.208 71.632,106.52 C71.624,106.568 71.62,106.64 71.62,106.736 L71.62,106.736 L71.62,106.952 C71.62,107.104 71.68,107.232 71.8,107.336 C72.016,107.528 72.244,107.608 72.484,107.576 L72.365,107.582667 Z M87.664,106.268 C87.76,106.268 87.83,106.218 87.874,106.118 C87.918,106.018 87.944,105.9 87.952,105.764 C87.96,105.628 87.968,105.544 87.976,105.512 C88.016,105.2 88.08,104.882 88.168,104.558 C88.256,104.234 88.308,104.048 88.324,104 C88.348,103.912 88.432,103.616 88.576,103.112 L88.576,103.112 L88.684,102.728 L89.044,101.504 C89.084,101.392 89.152,101.324 89.248,101.3 L89.248,101.3 L89.38,101.264 L90.508,101.036 C90.756,100.98 91.128,100.904 91.624,100.808 C91.776,100.776 91.91,100.752 92.026,100.736 C92.142,100.72 92.236,100.708 92.308,100.7 C92.396,100.692 92.548,100.672 92.764,100.64 C92.892,100.624 92.984,100.648 93.04,100.712 L93.04,100.712 L93.124,100.772 C93.132,100.772 93.15,100.774 93.178,100.778 C93.206,100.782 93.228,100.776 93.244,100.76 C93.268,100.736 93.28,100.708 93.28,100.676 L93.28,100.676 L93.28,100.64 C93.24,100.488 93.17,100.374 93.07,100.298 C92.97,100.222 92.848,100.188 92.704,100.196 C92.408,100.204 92.116,100.24 91.828,100.304 C91.508,100.36 91.228,100.414 90.988,100.466 C90.748,100.518 90.548,100.56 90.388,100.592 L90.388,100.592 L89.512,100.772 C89.496,100.78 89.478,100.788 89.458,100.796 C89.438,100.804 89.412,100.808 89.38,100.808 C89.348,100.808 89.316,100.792 89.284,100.76 C89.308,100.624 89.324,100.54 89.332,100.508 L89.332,100.508 L89.548,99.692 L89.824,98.648 L90.556,95.816 C90.78,94.888 90.968,94.152 91.12,93.608 L91.12,93.608 L91.804,91.424 C91.948,90.96 92.168,90.456 92.464,89.912 C92.888,89.104 93.572,88.636 94.516,88.508 C94.796,88.468 95.06,88.448 95.308,88.448 C95.788,88.448 96.32,88.468 96.904,88.508 L96.904,88.508 L98.056,88.556 L98.596,88.568 L99.136,88.556 C99.496,88.54 99.816,88.496 100.096,88.424 C100.12,88.416 100.16,88.384 100.216,88.328 C100.2,88.32 100.178,88.306 100.15,88.286 C100.122,88.266 100.1,88.256 100.084,88.256 C99.956,88.24 99.856,88.232 99.784,88.232 C99.552,88.256 99.324,88.268 99.1,88.268 C98.844,88.268 98.588,88.256 98.332,88.232 L98.332,88.232 L95.5,88.052 C95.372,88.044 95.18,88.04 94.924,88.04 C94.564,88.04 94.264,88.064 94.024,88.112 C93.176,88.256 92.528,88.68 92.08,89.384 C91.88,89.696 91.704,90.048 91.552,90.44 C91.32,91.008 91,92.01 90.592,93.446 L90.5067143,93.7468878 C90.1464286,95.0211531 89.9068571,95.9108571 89.788,96.416 C89.396,97.992 89.048,99.296 88.744,100.328 C88.72,100.4 88.692,100.51 88.66,100.658 C88.628,100.806 88.58,100.928 88.516,101.024 C88.348,101.096 88.18,101.156 88.012,101.204 C87.86,101.252 87.71,101.308 87.562,101.372 C87.414,101.436 87.28,101.512 87.16,101.6 C87.192,101.688 87.22,101.748 87.244,101.78 C87.268,101.812 87.3,101.828 87.34,101.828 L87.34,101.828 L87.436,101.804 L88.18,101.576 C88.268,101.544 88.328,101.556 88.36,101.612 C88.36,101.668 88.356,101.708 88.348,101.732 C88.124,102.468 87.96,103.02 87.856,103.388 C87.728,103.836 87.626,104.21 87.55,104.51 C87.474,104.81 87.416,105.116 87.376,105.428 C87.368,105.476 87.364,105.548 87.364,105.644 L87.364,105.644 L87.364,105.86 C87.364,106.012 87.424,106.14 87.544,106.244 C87.608,106.26 87.648,106.268 87.664,106.268 Z M102.928,107.816 C103.36,107.816 103.796,107.724 104.236,107.54 C104.884,107.276 105.528,106.88 106.168,106.352 C106.888,105.76 107.524,105.06 108.076,104.252 C108.5,103.652 108.772,103 108.892,102.296 C108.924,102.16 108.94,102.008 108.94,101.84 C108.94,101.24 108.676,100.752 108.148,100.376 C108.004,100.288 107.812,100.2 107.572,100.112 C107.164,99.968 106.636,99.852 105.988,99.764 C105.812,99.748 105.548,99.74 105.196,99.74 C105.076,99.74 104.924,99.76 104.74,99.8 C104.66,99.816 104.6,99.84 104.56,99.872 C104.536,99.88 104.516,99.9 104.5,99.932 C104.484,99.964 104.476,99.992 104.476,100.016 C104.476,100.04 104.48,100.056 104.488,100.064 C104.568,100.192 104.684,100.256 104.836,100.256 C104.876,100.256 104.912,100.248 104.944,100.232 C104.976,100.216 104.996,100.192 105.004,100.16 C105.028,100.072 105.104,100.02 105.232,100.004 L105.232,100.004 L105.424,99.992 C106.232,100.032 106.868,100.144 107.332,100.328 C108.02,100.576 108.364,101.088 108.364,101.864 C108.364,102.072 108.334,102.284 108.274,102.5 C108.214,102.716 108.128,102.96 108.016,103.232 C107.8,103.696 107.512,104.16 107.152,104.624 C106.56,105.408 105.86,106.08 105.052,106.64 C104.532,107.016 104.012,107.284 103.492,107.444 C103.3,107.508 103.092,107.54 102.868,107.54 C102.46,107.54 102.1,107.408 101.788,107.144 C101.188,106.656 100.804,105.936 100.636,104.984 C100.548,104.512 100.504,103.992 100.504,103.424 C100.504,103.024 100.532,102.536 100.588,101.96 C100.596,101.896 100.61,101.82 100.63,101.732 C100.65,101.644 100.66,101.572 100.66,101.516 C100.692,101.044 100.816,100.396 101.032,99.572 C101.248,98.748 101.452,98.064 101.644,97.52 C101.884,96.832 102.212,96.016 102.628,95.072 L102.628,95.072 L102.772,94.82 C102.836,94.708 102.88,94.624 102.904,94.568 C103.064,94.208 103.296,93.768 103.6,93.248 C104.048,92.488 104.5,91.824 104.956,91.256 C105.628,90.408 106.256,89.752 106.84,89.288 C107.088,89.096 107.352,88.928 107.632,88.784 C107.848,88.664 108.068,88.58 108.292,88.532 C108.412,88.508 108.524,88.496 108.628,88.496 C109.02,88.496 109.308,88.664 109.492,89 C109.604,89.216 109.672,89.392 109.696,89.528 C109.752,89.728 109.788,89.934 109.804,90.146 C109.82,90.358 109.828,90.628 109.828,90.956 C109.828,91.692 109.74,92.54 109.564,93.5 C109.396,94.34 109.228,95.016 109.06,95.528 L109.06,95.528 L108.772,96.512 L108.748,96.68 C108.748,96.744 108.764,96.772 108.796,96.764 C108.844,96.756 108.882,96.726 108.91,96.674 C108.938,96.622 108.96,96.588 108.976,96.572 L108.976,96.572 L109.024,96.476 C109.072,96.396 109.116,96.302 109.156,96.194 C109.196,96.086 109.228,96.008 109.252,95.96 C109.292,95.848 109.332,95.744 109.372,95.648 C109.556,95.216 109.728,94.672 109.888,94.016 C110.032,93.408 110.124,92.952 110.164,92.648 L110.164,92.648 L110.2,92.384 C110.28,91.76 110.324,91.288 110.332,90.968 C110.324,90.648 110.308,90.37 110.284,90.134 C110.26,89.898 110.212,89.672 110.14,89.456 C109.964,88.936 109.68,88.588 109.288,88.412 C108.984,88.26 108.68,88.184 108.376,88.184 C108.064,88.184 107.736,88.268 107.392,88.436 C107.28,88.484 107.196,88.524 107.14,88.556 C106.572,88.852 105.968,89.34 105.328,90.02 C104.784,90.588 104.28,91.216 103.816,91.904 C103.344,92.616 102.988,93.2 102.748,93.656 C102.54,94.048 102.3,94.52 102.028,95.072 L102.028,95.072 L101.932,95.3 C101.804,95.556 101.696,95.8 101.608,96.032 C101.336,96.752 101.14,97.292 101.02,97.652 C100.78,98.34 100.592,98.96 100.456,99.512 C100.296,100.192 100.16,100.904 100.048,101.648 C99.984,102.096 99.948,102.436 99.94,102.668 C99.924,103.004 99.916,103.26 99.916,103.436 C99.916,103.86 99.936,104.216 99.976,104.504 C100.064,105.384 100.312,106.112 100.72,106.688 C100.952,107.032 101.26,107.306 101.644,107.51 C102.028,107.714 102.456,107.816 102.928,107.816 Z M120.916,108.644 C121.052,108.628 121.128,108.552 121.144,108.416 C121.152,108.4 121.154,108.38 121.15,108.356 C121.146,108.332 121.148,108.308 121.156,108.284 L121.24,107.444 L121.408,105.92 C121.544,104.8 121.732,103.624 121.972,102.392 C122.052,101.992 122.116,101.692 122.164,101.492 C122.172,101.452 122.192,101.4 122.224,101.336 C122.296,101.352 122.348,101.378 122.38,101.414 C122.412,101.45 122.448,101.508 122.488,101.588 C122.552,101.7 122.62,101.764 122.692,101.78 C122.74,101.78 122.772,101.772 122.788,101.756 C122.812,101.74 122.824,101.712 122.824,101.672 C122.808,101.544 122.728,101.416 122.584,101.288 C122.568,101.272 122.468,101.196 122.284,101.06 C122.276,101.036 122.272,101.004 122.272,100.964 C122.272,100.924 122.278,100.876 122.29,100.82 C122.302,100.764 122.312,100.72 122.32,100.688 L122.932,98.156 L123.076,97.604 C123.108,97.484 123.164,97.262 123.244,96.938 C123.324,96.614 123.404,96.324 123.484,96.068 C123.884,94.7 124.292,93.332 124.708,91.964 L125.548,89.432 L126.112,87.74 C126.328,87.116 126.52,86.512 126.688,85.928 C126.712,85.856 126.728,85.774 126.736,85.682 C126.744,85.59 126.748,85.528 126.748,85.496 C126.748,85.416 126.708,85.388 126.628,85.412 C126.516,85.724 126.436,85.936 126.388,86.048 C126.068,86.808 125.656,87.876 125.152,89.252 C124.672,90.548 124.2,91.956 123.736,93.476 C123.16,95.332 122.676,97.032 122.284,98.576 L121.78,100.64 L121.696,100.856 L120.88,100.712 C120.528,100.664 120.264,100.632 120.088,100.616 C119.824,100.576 119.556,100.552 119.284,100.544 C119.092,100.528 118.812,100.512 118.444,100.496 L117.64,100.508 C117.584,100.5 117.52,100.502 117.448,100.514 C117.376,100.526 117.324,100.532 117.292,100.532 C117.18,100.556 117.068,100.568 116.956,100.568 L116.824,100.556 L116.92,100.184 C116.944,100.112 116.984,99.964 117.04,99.74 L117.496,97.832 L118.144,95.24 C118.28,94.64 118.404,94.128 118.516,93.704 L118.912,92.276 L119.008,91.952 C119.072,91.696 119.124,91.504 119.164,91.376 C119.236,91.088 119.328,90.748 119.44,90.356 C119.496,90.148 119.624,89.708 119.824,89.036 L120.016,88.376 C120.032,88.312 120.054,88.232 120.082,88.136 C120.11,88.04 120.136,87.928 120.16,87.8 C120.168,87.776 120.172,87.748 120.172,87.716 C120.172,87.66 120.152,87.616 120.112,87.584 C120.072,87.552 120,87.524 119.896,87.5 C119.816,87.676 119.76,87.812 119.728,87.908 L119.536,88.52 C119.152,89.704 118.876,90.596 118.708,91.196 C118.396,92.228 118.052,93.464 117.676,94.904 C117.484,95.624 117.316,96.292 117.172,96.908 L116.68,98.876 C116.456,99.756 116.324,100.264 116.284,100.4 C116.052,101.216 115.844,101.932 115.66,102.548 L114.82,105.284 C114.812,105.308 114.792,105.364 114.76,105.452 C114.728,105.54 114.716,105.632 114.724,105.728 C114.836,105.792 114.9,105.828 114.916,105.836 C114.964,105.852 115.004,105.86 115.036,105.86 C115.132,105.86 115.204,105.808 115.252,105.704 C115.332,105.52 115.392,105.356 115.432,105.212 L115.504,104.96 L115.648,104.516 C115.904,103.772 116.176,102.884 116.464,101.852 L116.728,100.928 C116.848,100.88 116.978,100.848 117.118,100.832 C117.258,100.816 117.392,100.808 117.52,100.808 C117.688,100.8 117.94,100.796 118.276,100.796 C118.612,100.796 118.864,100.8 119.032,100.808 C119.816,100.84 120.612,100.932 121.42,101.084 C121.444,101.084 121.52,101.104 121.648,101.144 C121.648,101.232 121.644,101.292 121.636,101.324 L121.48,102.14 C121.352,102.796 121.248,103.34 121.168,103.772 C121.088,104.236 121.016,104.72 120.952,105.224 L120.82,106.328 L120.748,107.048 C120.748,107.064 120.744,107.108 120.736,107.18 C120.728,107.252 120.708,107.316 120.676,107.372 C120.652,107.436 120.64,107.498 120.64,107.558 L120.64,108.368 C120.64,108.48 120.664,108.564 120.712,108.62 C120.744,108.62 120.776,108.624 120.808,108.632 C120.84,108.64 120.876,108.644 120.916,108.644 Z M127.816,106.172 C127.864,106.172 127.908,106.152 127.948,106.112 C128.028,106.032 128.124,105.972 128.236,105.932 C128.348,105.892 128.416,105.868 128.44,105.86 C128.904,105.684 129.396,105.584 129.916,105.56 C129.956,105.552 130.01,105.544 130.078,105.536 C130.146,105.528 130.228,105.524 130.324,105.524 C130.372,105.524 130.452,105.532 130.564,105.548 C130.556,105.636 130.552,105.76 130.552,105.92 L130.636,105.98 L130.756,106.028 C130.78,106.036 130.812,106.04 130.852,106.04 C130.964,106.04 131.044,105.984 131.092,105.872 L131.188,105.572 L131.368,105.572 C132.128,105.612 132.992,105.708 133.96,105.86 C134.416,105.924 134.736,105.968 134.92,105.992 L135.064,106.004 C135.184,106.004 135.272,105.98 135.328,105.932 L135.34,105.884 C135.34,105.844 135.312,105.816 135.256,105.8 C135.2,105.776 135.104,105.756 134.968,105.74 C134.928,105.74 134.878,105.738 134.818,105.734 C134.758,105.73 134.688,105.72 134.608,105.704 C133.512,105.512 132.496,105.376 131.56,105.296 L131.236,105.26 C131.252,105.116 131.268,105.004 131.284,104.924 C131.732,102.94 132.108,101.304 132.412,100.016 C132.628,99.024 132.908,97.936 133.252,96.752 C133.62,95.432 134.012,94.204 134.428,93.068 C135.004,91.54 135.632,90.172 136.312,88.964 L136.54,88.58 C136.604,88.452 136.696,88.388 136.816,88.388 L138.904,88.388 C138.992,88.388 139.068,88.392 139.132,88.4 C139.196,88.408 139.252,88.416 139.3,88.424 C139.484,88.456 139.608,88.52 139.672,88.616 C139.688,88.648 139.712,88.668 139.744,88.676 C139.784,88.7 139.812,88.704 139.828,88.688 C139.868,88.632 139.88,88.592 139.864,88.568 C139.736,88.328 139.548,88.18 139.3,88.124 C138.94,88.052 138.508,88.016 138.004,88.016 L137.56,88.016 C136.816,88.016 136.072,88.04 135.328,88.088 C134.536,88.128 133.624,88.244 132.592,88.436 C132.544,88.444 132.48,88.464 132.4,88.496 C132.4,88.632 132.46,88.7 132.58,88.7 L132.748,88.712 L132.916,88.7 L133.228,88.664 C133.724,88.608 134.024,88.576 134.128,88.568 C134.536,88.528 135.168,88.484 136.024,88.436 L136.084,88.424 C136.132,88.424 136.16,88.452 136.168,88.508 L135.976,88.82 C135.592,89.412 135.188,90.16 134.764,91.064 C134.268,92.104 133.768,93.396 133.264,94.94 C132.92,96.012 132.672,96.848 132.52,97.448 L132.436,97.76 C132.116,98.896 131.884,99.8 131.74,100.472 C131.668,100.8 131.576,101.2 131.464,101.672 L131.176,102.872 C131.12,103.112 131.02,103.572 130.876,104.252 L130.708,105.008 L130.636,105.212 L130.144,105.248 C129.976,105.256 129.724,105.276 129.388,105.308 C128.924,105.356 128.492,105.472 128.092,105.656 C127.948,105.712 127.808,105.792 127.672,105.896 C127.632,105.928 127.612,105.968 127.612,106.016 C127.612,106.072 127.64,106.112 127.696,106.136 C127.728,106.16 127.768,106.172 127.816,106.172 Z M144.46,106.868 C145.26,106.868 146.056,106.592 146.848,106.04 C147.544,105.552 148.136,104.864 148.624,103.976 C149.056,103.168 149.388,102.356 149.62,101.54 C149.796,100.972 149.936,100.464 150.04,100.016 C150.208,99.328 150.332,98.736 150.412,98.24 C150.556,97.416 150.756,96.172 151.012,94.508 C151.1,93.876 151.236,93.116 151.42,92.228 C151.66,91.156 151.86,90.356 152.02,89.828 C152.236,89.108 152.492,88.44 152.788,87.824 C152.852,87.672 152.956,87.452 153.1,87.164 C153.124,87.092 153.12,87.04 153.088,87.008 C153.064,86.984 153.032,86.972 152.992,86.972 C152.944,86.972 152.904,86.988 152.872,87.02 C152.792,87.1 152.74,87.16 152.716,87.2 C152.588,87.392 152.488,87.564 152.416,87.716 C152.048,88.396 151.724,89.2 151.444,90.128 C151.06,91.432 150.748,92.836 150.508,94.34 L150.292,95.684 C150.108,96.844 149.952,97.74 149.824,98.372 C149.592,99.516 149.352,100.508 149.104,101.348 C148.904,102.036 148.624,102.756 148.264,103.508 C148.048,103.956 147.78,104.392 147.46,104.816 C146.964,105.432 146.42,105.892 145.828,106.196 C145.34,106.452 144.868,106.58 144.412,106.58 C144.252,106.58 144.132,106.572 144.052,106.556 C143.636,106.492 143.232,106.328 142.84,106.064 C142.456,105.784 142.112,105.444 141.808,105.044 C141.352,104.436 140.976,103.756 140.68,103.004 C140.568,102.708 140.482,102.466 140.422,102.278 C140.362,102.09 140.32,101.892 140.296,101.684 C140.288,101.636 140.284,101.56 140.284,101.456 C140.284,101.32 140.288,101.216 140.296,101.144 C140.304,100.992 140.4,100.888 140.584,100.832 L140.788,100.796 L141.052,100.784 C141.292,100.768 141.472,100.76 141.592,100.76 C141.904,100.76 142.348,100.768 142.924,100.784 L143.584,100.796 L145.144,100.808 C145.976,100.808 146.672,100.784 147.232,100.736 C147.816,100.696 148.356,100.604 148.852,100.46 C148.876,100.452 148.924,100.44 148.996,100.424 C149.068,100.408 149.124,100.364 149.164,100.292 C149.148,100.284 149.126,100.272 149.098,100.256 C149.07,100.24 149.044,100.232 149.02,100.232 C148.948,100.24 148.84,100.26 148.696,100.292 C148.264,100.428 147.792,100.508 147.28,100.532 C146.456,100.572 145.72,100.592 145.072,100.592 L143.2,100.556 C142.368,100.54 141.744,100.532 141.328,100.532 L141.04,100.532 C140.912,100.532 140.816,100.536 140.752,100.544 C140.536,100.56 140.36,100.592 140.224,100.64 C139.936,100.72 139.768,100.908 139.72,101.204 C139.704,101.308 139.7,101.388 139.708,101.444 C139.716,101.508 139.726,101.596 139.738,101.708 C139.75,101.82 139.764,101.916 139.78,101.996 C139.852,102.356 140.008,102.824 140.248,103.4 C140.496,104 140.792,104.54 141.136,105.02 C141.608,105.668 142.124,106.132 142.684,106.412 C143.276,106.716 143.868,106.868 144.46,106.868 Z M164.92,110.192 C165.032,110.192 165.208,110.176 165.448,110.144 C165.536,110.136 165.668,110.1 165.844,110.036 C165.868,110.028 165.912,109.992 165.976,109.928 C165.888,109.864 165.788,109.832 165.676,109.832 C165.604,109.832 165.548,109.836 165.508,109.844 L165.244,109.88 C165.036,109.912 164.888,109.928 164.8,109.928 C164.408,109.928 164.056,109.796 163.744,109.532 C163.504,109.3 163.324,109.088 163.204,108.896 C162.94,108.472 162.712,107.98 162.52,107.42 C162.208,106.564 161.956,105.552 161.764,104.384 C161.708,103.944 161.656,103.588 161.608,103.316 C161.504,102.556 161.428,102.024 161.38,101.72 C161.284,101.088 161.136,100.552 160.936,100.112 C160.68,99.536 160.312,99.108 159.832,98.828 C159.808,98.812 159.782,98.794 159.754,98.774 C159.726,98.754 159.7,98.736 159.676,98.72 L160.168,98.408 C160.816,98 161.528,97.504 162.304,96.92 C163.216,96.2 163.984,95.544 164.608,94.952 C165.336,94.28 166.068,93.532 166.804,92.708 C167.876,91.492 168.772,90.292 169.492,89.108 C169.94,88.38 170.272,87.752 170.488,87.224 C170.52,87.144 170.56,87.016 170.608,86.84 L170.608,86.816 C170.608,86.744 170.564,86.704 170.476,86.696 C170.452,86.72 170.436,86.744 170.428,86.768 C170.204,87.12 170.004,87.452 169.828,87.764 C169.564,88.228 169.164,88.844 168.628,89.612 C168.052,90.428 167.436,91.212 166.78,91.964 C165.932,92.908 165.204,93.672 164.596,94.256 C163.764,95.04 162.944,95.744 162.136,96.368 C161.464,96.888 160.668,97.448 159.748,98.048 C159.628,98.128 159.44,98.24 159.184,98.384 L158.968,98.516 L158.524,98.72 C158.556,98.848 158.598,98.94 158.65,98.996 C158.702,99.052 158.772,99.08 158.86,99.08 C158.884,99.08 158.936,99.072 159.016,99.056 C159.128,99.032 159.228,99.02 159.316,99.02 C159.628,99.02 159.88,99.148 160.072,99.404 C160.152,99.5 160.248,99.66 160.36,99.884 C160.528,100.244 160.656,100.708 160.744,101.276 L161.164,104.204 C161.38,105.716 161.732,107.012 162.22,108.092 C162.484,108.66 162.78,109.108 163.108,109.436 C163.604,109.94 164.208,110.192 164.92,110.192 Z M156.136,106.016 C156.264,106.016 156.352,105.964 156.4,105.86 C156.416,105.836 156.432,105.784 156.448,105.704 C156.608,105.064 156.732,104.588 156.82,104.276 C157.196,102.876 157.504,101.772 157.744,100.964 C158.032,99.964 158.344,98.928 158.68,97.856 C158.856,97.296 158.992,96.88 159.088,96.608 L159.328,95.888 L159.424,95.588 C159.656,94.844 159.896,94.1 160.144,93.356 C160.312,92.876 160.482,92.35 160.654,91.778 C160.826,91.206 160.94,90.832 160.996,90.656 L161.14,90.176 C161.388,89.296 161.548,88.652 161.62,88.244 C161.628,88.196 161.64,88.154 161.656,88.118 C161.672,88.082 161.684,88.052 161.692,88.028 C161.596,87.98 161.532,87.956 161.5,87.956 C161.492,87.956 161.432,87.964 161.32,87.98 C161.304,88.02 161.288,88.062 161.272,88.106 C161.256,88.15 161.24,88.192 161.224,88.232 L160.828,89.516 L160.648,90.116 C160.6,90.268 160.542,90.458 160.474,90.686 C160.406,90.914 160.32,91.18 160.216,91.484 L159.64,93.188 C159.488,93.628 159.268,94.296 158.98,95.192 C158.612,96.296 158.34,97.124 158.164,97.676 C157.924,98.444 157.772,98.944 157.708,99.176 C157.66,99.312 157.596,99.516 157.516,99.788 L157.24,100.712 C157.128,101.072 156.968,101.612 156.76,102.332 C156.576,102.988 156.308,103.972 155.956,105.284 C155.94,105.332 155.914,105.424 155.878,105.56 C155.842,105.696 155.828,105.824 155.836,105.944 L156.088,106.016 L156.136,106.016 Z M170.38,107.276 C170.46,107.276 170.56,107.216 170.68,107.096 C170.792,106.976 170.928,106.868 171.088,106.772 C171.504,106.54 171.988,106.424 172.54,106.424 C172.876,106.424 173.244,106.464 173.644,106.544 C174.612,106.76 175.484,106.92 176.26,107.024 C176.796,107.096 177.236,107.132 177.58,107.132 C177.932,107.132 178.25,107.098 178.534,107.03 C178.818,106.962 179.08,106.84 179.32,106.664 C179.336,106.648 179.376,106.62 179.44,106.58 C179.504,106.54 179.544,106.48 179.56,106.4 C179.544,106.392 179.53,106.38 179.518,106.364 C179.506,106.348 179.488,106.336 179.464,106.328 C179.44,106.32 179.4,106.316 179.344,106.316 C179.24,106.316 179.14,106.352 179.044,106.424 C178.692,106.688 178.248,106.832 177.712,106.856 C177.488,106.856 177.32,106.852 177.208,106.844 C176.616,106.812 175.9,106.712 175.06,106.544 L174.328,106.4 C173.752,106.272 173.268,106.188 172.876,106.148 C172.652,106.132 172.484,106.124 172.372,106.124 C172.068,106.124 171.752,106.16 171.424,106.232 L171.196,106.256 C171.22,106.208 171.244,106.158 171.268,106.106 C171.292,106.054 171.316,106.004 171.34,105.956 L172.276,104.156 C172.708,103.292 173.228,102.092 173.836,100.556 C174.252,99.524 174.64,98.416 175,97.232 C175.24,96.448 175.44,95.74 175.6,95.108 C175.792,94.38 175.964,93.6 176.116,92.768 C176.204,92.272 176.332,91.464 176.5,90.344 C176.572,89.84 176.628,89.436 176.668,89.132 L176.752,88.496 C176.824,88.04 176.86,87.588 176.86,87.14 C176.86,86.996 176.848,86.842 176.824,86.678 C176.8,86.514 176.784,86.404 176.776,86.348 C176.768,86.308 176.75,86.282 176.722,86.27 C176.694,86.258 176.66,86.26 176.62,86.276 L176.608,86.312 C176.592,86.408 176.576,86.552 176.56,86.744 C176.528,87.16 176.474,87.592 176.398,88.04 C176.322,88.488 176.276,88.756 176.26,88.844 L176.116,89.708 C176.068,90.068 175.968,90.652 175.816,91.46 C175.768,91.764 175.664,92.324 175.504,93.14 C175.272,94.26 175.012,95.292 174.724,96.236 L174.58,96.692 C174.54,96.828 174.472,97.054 174.376,97.37 C174.28,97.686 174.188,97.964 174.1,98.204 C173.884,98.844 173.612,99.58 173.284,100.412 C172.852,101.484 172.516,102.284 172.276,102.812 C172.116,103.172 171.86,103.704 171.508,104.408 L171.208,105.008 C170.8,105.832 170.408,106.508 170.032,107.036 C170.024,107.044 170.02,107.072 170.02,107.12 C170.044,107.128 170.068,107.142 170.092,107.162 C170.116,107.182 170.144,107.2 170.176,107.216 C170.272,107.256 170.34,107.276 170.38,107.276 Z M198.604,108.068 C198.78,108.068 198.948,108.028 199.108,107.948 L199.192,107.876 C199.208,107.844 199.216,107.816 199.216,107.792 C199.216,107.776 199.210667,107.765333 199.2,107.76 L199.18,107.756 C199.156,107.748 199.116,107.744 199.06,107.744 C198.876,107.752 198.748,107.664 198.676,107.48 C198.612,107.256 198.58,107.08 198.58,106.952 C198.58,106.48 198.592,106.124 198.616,105.884 C198.704,105.124 198.796,104.48 198.892,103.952 C198.996,103.336 199.116,102.708 199.252,102.068 C199.324,101.708 199.436,101.232 199.588,100.64 L199.708,100.16 C199.884,99.392 200.108,98.608 200.38,97.808 C200.396,97.76 200.44,97.624 200.512,97.4 L200.68,96.86 C200.936,96.06 201.132,95.46 201.268,95.06 L201.604,94.064 C201.7,93.808 201.768,93.616 201.808,93.488 L202.42,91.688 L202.624,91.16 L203.02,89.888 C203.044,89.8 203.056,89.728 203.056,89.672 C203.056,89.592 203.03,89.53 202.978,89.486 C202.926,89.442 202.844,89.412 202.732,89.396 L202.696,89.396 C202.672,89.388 202.64,89.384 202.6,89.384 C202.488,89.384 202.384,89.444 202.288,89.564 C202.048,89.868 201.876,90.1 201.772,90.26 L200.584,92.024 L200.416,92.252 C199.96,92.916 199.676,93.34 199.564,93.524 C199.34,93.86 199.168,94.108 199.048,94.268 C198.792,94.644 198.4,95.208 197.872,95.96 L197.176,96.92 L196.768,97.496 L196.48,97.88 C196.136,98.344 195.828,98.744 195.556,99.08 C195.316,99.36 195.066,99.648 194.806,99.944 C194.611,100.166 194.421625,100.36775 194.237875,100.54925 L194.056,100.724 C194.072,100.708 193.92,100.836 193.6,101.108 C193.512,101.18 193.428,101.216 193.348,101.216 C193.276,101.216 193.196,101.18 193.108,101.108 C192.948,100.964 192.84,100.8 192.784,100.616 C192.704,100.368 192.648,100.156 192.616,99.98 C192.544,99.54 192.508,99.008 192.508,98.384 L192.496,97.556 L192.508,97.16 C192.508,96.984 192.516,96.72 192.532,96.368 C192.548,96.208 192.564,95.968 192.58,95.648 C192.612,95.168 192.64,94.808 192.664,94.568 C192.696,94.224 192.736,93.708 192.784,93.02 L192.844,92.216 L192.868,91.832 C192.916,91.256 192.932,90.828 192.916,90.548 C192.916,90.388 192.912,90.264 192.904,90.176 C192.88,89.968 192.768,89.84 192.568,89.792 L192.448,89.756 C192.424,89.748 192.388,89.744 192.34,89.744 C192.212,89.744 192.108,89.808 192.028,89.936 C191.892,90.12 191.788,90.288 191.716,90.44 L190.984,91.976 C190.952,92.048 190.922,92.112 190.894,92.168 C190.866,92.224 190.844,92.272 190.828,92.312 C190.732,92.528 190.644,92.728 190.564,92.912 C190.484,93.096 190.412,93.26 190.348,93.404 L190.156,93.86 L189.532,95.372 C189.308,95.948 189.108,96.48 188.932,96.968 C188.516,98.088 188.212,98.928 188.02,99.488 C187.908,99.784 187.814,100.044 187.738,100.268 C187.662,100.492 187.6,100.676 187.552,100.82 L187.372,101.348 L187.012,102.368 C186.876,102.752 186.68,103.328 186.424,104.096 C186.24,104.648 186.072,105.18 185.92,105.692 L185.632,106.592 L185.536,106.94 C185.52,107.044 185.488,107.16 185.44,107.288 L185.44,107.336 C185.44,107.392 185.464,107.428 185.512,107.444 C185.528,107.452 185.548,107.456 185.572,107.456 C185.62,107.456 185.668,107.432 185.716,107.384 C185.772,107.328 185.812,107.272 185.836,107.216 C185.916,107.056 185.968,106.932 185.992,106.844 C186.408,105.596 186.728,104.66 186.952,104.036 C187.232,103.26 187.536,102.4 187.864,101.456 L188.776,98.936 C189.096,98.04 189.34,97.368 189.508,96.92 L190.024,95.588 L190.18,95.204 L190.396,94.664 C190.444,94.552 190.518,94.374 190.618,94.13 C190.718,93.886 190.812,93.672 190.9,93.488 L191.632,91.88 L192.064,90.956 C192.096,90.884 192.14,90.816 192.196,90.752 C192.236,90.696 192.268,90.672 192.292,90.68 C192.3,90.688 192.316,90.712 192.34,90.752 C192.34,90.824 192.336,90.876 192.328,90.908 C192.296,91.388 192.24,92.164 192.16,93.236 L191.98,95.696 C191.948,96.032 191.932,96.284 191.932,96.452 L191.92,97.112 C191.896,97.592 191.888,98.028 191.896,98.42 C191.896,99.1 191.94,99.72 192.028,100.28 C192.076,100.592 192.172,100.88 192.316,101.144 C192.46,101.408 192.7,101.536 193.036,101.528 C193.364,101.528 193.692,101.424 194.02,101.216 C194.324,101.016 194.648,100.744 194.992,100.4 C195.504,99.88 196.068,99.22 196.684,98.42 C197.236,97.708 197.76,96.992 198.256,96.272 L199.876,93.92 C200.276,93.344 200.572,92.912 200.764,92.624 L201.652,91.328 L202.06,90.764 C202.068,90.756 202.078,90.75 202.09,90.746 L202.1065,90.7445 L202.1065,90.7445 L202.12,90.752 C202.128,90.752 202.134,90.758 202.138,90.77 C202.142,90.782 202.14,90.792 202.132,90.8 C202.02,91.168 201.932,91.44 201.868,91.616 L201.604,92.372 C201.508,92.612 201.428,92.832 201.364,93.032 L200.896,94.424 L200.14,96.728 C199.7,98.112 199.352,99.352 199.096,100.448 L198.976,100.928 L198.58,102.836 C198.356,103.948 198.196,104.964 198.1,105.884 C198.06,106.236 198.04,106.66 198.04,107.156 C198.04,107.324 198.068,107.504 198.124,107.696 C198.188,107.944 198.348,108.068 198.604,108.068 Z M213.34,106.568 C213.492,106.552 213.624,106.526 213.736,106.49 C213.848,106.454 213.952,106.388 214.048,106.292 C214.176,106.164 214.296,105.996 214.408,105.788 C214.568,105.5 214.756,105.08 214.972,104.528 C215.14,104.104 215.36,103.468 215.632,102.62 C215.776,102.188 215.888,101.864 215.968,101.648 C216.024,101.488 216.088,101.3 216.16,101.084 C216.232,100.868 216.312,100.628 216.4,100.364 L216.592,99.836 L216.736,99.452 C216.944,98.756 217.292,97.776 217.78,96.512 L218.02,95.9 C218.132,95.628 218.292,95.22 218.5,94.676 C218.66,94.284 218.848,93.832 219.064,93.32 L219.412,92.48 L219.808,91.592 C219.832,91.536 219.86,91.476 219.892,91.412 C219.924,91.348 219.96,91.272 220,91.184 C220.104,91 220.2,90.8 220.288,90.584 C220.352,90.464 220.404,90.372 220.444,90.308 C220.484,90.244 220.548,90.192 220.636,90.152 C220.692,90.12 220.72,90.076 220.72,90.02 C220.72,89.972 220.704,89.936 220.672,89.912 L220.576,89.84 C220.528,89.816 220.48,89.804 220.432,89.804 C220.344,89.804 220.26,89.856 220.18,89.96 C220.084,90.088 220.004,90.216 219.94,90.344 C219.668,90.848 219.376,91.444 219.064,92.132 C218.808,92.708 218.584,93.22 218.392,93.668 C217.896,94.836 217.532,95.712 217.3,96.296 C217.276,96.368 217.244,96.448 217.204,96.536 C217.14,96.664 217.096,96.78 217.072,96.884 L216.808,97.64 L216.628,98.108 C216.412,98.652 216.168,99.328 215.896,100.136 L215.608,100.952 C215.416,101.496 215.144,102.312 214.792,103.4 L214.192,105.2 C214.112,105.472 213.984,105.744 213.808,106.016 C213.768,106.08 213.732,106.112 213.7,106.112 C213.676,106.112 213.644,106.1 213.604,106.076 C213.532,106.004 213.484,105.94 213.46,105.884 C213.42,105.764 213.392,105.688 213.376,105.656 L213.292,105.416 C213.18,104.944 213.08,104.332 212.992,103.58 C212.92,102.668 212.88,101.884 212.872,101.228 L212.872,99.788 L212.884,99.008 C212.892,98.84 212.896,98.584 212.896,98.24 C212.896,97.944 212.9,97.688 212.908,97.472 C212.916,97.256 212.924,97.072 212.932,96.92 C212.956,96.472 212.968,96.032 212.968,95.6 C212.968,95.392 212.976,95.072 212.992,94.64 C213.016,94.216 213.028,93.792 213.028,93.368 C213.02,93.064 213.008,92.75 212.992,92.426 C212.976,92.102 212.948,91.808 212.908,91.544 C212.836,91.128 212.736,90.784 212.608,90.512 C212.48,90.216 212.26,90.008 211.948,89.888 C211.828,89.84 211.708,89.816 211.588,89.816 C211.348,89.816 211.112,89.924 210.88,90.14 C210.736,90.268 210.608,90.41 210.496,90.566 C210.384,90.722 210.264,90.908 210.136,91.124 C209.952,91.428 209.786,91.736 209.638,92.048 C209.49,92.36 209.316,92.752 209.116,93.224 C208.78,94.048 208.528,94.736 208.36,95.288 L208.06,96.212 C207.892,96.692 207.788,97 207.748,97.136 C207.38,98.336 207.076,99.444 206.836,100.46 C206.636,101.308 206.452,102.2 206.284,103.136 C206.212,103.52 206.146,103.94 206.086,104.396 C206.026,104.852 205.988,105.152 205.972,105.296 L205.924,105.68 L205.9,106.22 C205.9,106.236 205.904,106.258 205.912,106.286 C205.92,106.314 205.928,106.336 205.936,106.352 C205.992,106.392 206.044,106.4 206.092,106.376 C206.132,106.36 206.152,106.328 206.152,106.28 C206.176,106.144 206.188,106.068 206.188,106.052 C206.244,105.836 206.294,105.594 206.338,105.326 C206.382,105.058 206.412,104.876 206.428,104.78 L206.548,104.12 L206.716,103.28 C206.82,102.68 206.932,102.12 207.052,101.6 C207.124,101.264 207.208,100.928 207.304,100.592 C207.312,100.528 207.332,100.44 207.364,100.328 L207.724,98.972 C207.74,98.908 207.77,98.792 207.814,98.624 C207.858,98.456 207.904,98.308 207.952,98.18 L208.132,97.616 C208.468,96.528 208.732,95.72 208.924,95.192 C209.012,94.968 209.112,94.7 209.224,94.388 L209.512,93.596 C209.616,93.308 209.744,93.012 209.896,92.708 C210.048,92.38 210.256,91.976 210.52,91.496 C210.664,91.216 210.856,90.932 211.096,90.644 C211.24,90.476 211.392,90.34 211.552,90.236 C211.648,90.18 211.732,90.152 211.804,90.152 C211.924,90.152 212.012,90.212 212.068,90.332 C212.172,90.548 212.244,90.784 212.284,91.04 C212.292,91.08 212.328,91.324 212.392,91.772 C212.424,92.18 212.44,92.64 212.44,93.152 L212.428,94.364 C212.42,94.764 212.4,95.372 212.368,96.188 C212.336,97.068 212.316,97.728 212.308,98.168 C212.276,99.208 212.26,99.992 212.26,100.52 C212.26,101.504 212.284,102.324 212.332,102.98 C212.38,103.596 212.436,104.136 212.5,104.6 C212.564,105.064 212.668,105.508 212.812,105.932 C212.852,106.1 212.924,106.248 213.028,106.376 C213.084,106.44 213.134,106.49 213.178,106.526 C213.222,106.562 213.276,106.576 213.34,106.568 Z M227.596,107.996 C227.756,107.996 227.912,107.972 228.064,107.924 C228.432,107.812 228.72,107.684 228.928,107.54 C229.304,107.292 229.64,107.048 229.936,106.808 C230.856,106.032 231.76,104.988 232.648,103.676 C233.064,103.076 233.5,102.328 233.956,101.432 C234.588,100.192 235.108,98.9 235.516,97.556 C235.78,96.7 235.984,95.816 236.128,94.904 C236.24,94.16 236.296,93.44 236.296,92.744 C236.296,92.216 236.26,91.688 236.188,91.16 C236.068,90.288 235.864,89.532 235.576,88.892 C235.272,88.188 234.856,87.624 234.328,87.2 C233.688,86.688 232.996,86.432 232.252,86.432 C231.708,86.432 231.132,86.58 230.524,86.876 C229.708,87.292 228.936,87.916 228.208,88.748 C227.208,89.892 226.36,91.188 225.664,92.636 C225.096,93.828 224.696,94.984 224.464,96.104 C224.296,96.96 224.212,97.692 224.212,98.3 C224.212,98.828 224.264,99.336 224.368,99.824 C224.544,100.68 224.952,101.416 225.592,102.032 C225.712,102.152 225.824,102.248 225.928,102.32 C226.032,102.392 226.156,102.44 226.3,102.464 L226.228,102.728 L226.12,103.088 C226.08,103.208 226.028,103.388 225.964,103.628 C225.804,104.34 225.724,104.928 225.724,105.392 C225.724,106.024 225.832,106.572 226.048,107.036 C226.168,107.308 226.372,107.536 226.66,107.72 C226.948,107.904 227.26,107.996 227.596,107.996 Z M227.356,107.696 C227.228,107.696 227.114,107.662 227.014,107.594 C226.914,107.526 226.804,107.408 226.684,107.24 C226.524,107.024 226.408,106.736 226.336,106.376 C226.28,106.064 226.252,105.732 226.252,105.38 C226.252,105.036 226.284,104.672 226.348,104.288 C226.508,103.384 226.776,102.468 227.152,101.54 C227.208,101.396 227.278,101.234 227.362,101.054 C227.446,100.874 227.504,100.748 227.536,100.676 L227.692,100.292 C227.572,100.244 227.492,100.22 227.452,100.22 C227.412,100.22 227.38,100.232 227.356,100.256 C227.332,100.28 227.304,100.32 227.272,100.376 C226.88,101.088 226.604,101.668 226.444,102.116 L226.384,102.248 C226.28,102.192 226.22,102.16 226.204,102.152 C225.468,101.488 225.02,100.64 224.86,99.608 C224.796,99.248 224.764,98.84 224.764,98.384 C224.764,98.168 224.78,97.836 224.812,97.388 C224.916,96.348 225.22,95.2 225.724,93.944 C226.284,92.512 227.052,91.156 228.028,89.876 C228.62,89.108 229.204,88.488 229.78,88.016 C230.396,87.504 231.044,87.152 231.724,86.96 C231.988,86.888 232.26,86.852 232.54,86.852 C232.716,86.852 232.848,86.86 232.936,86.876 C233.512,86.948 233.992,87.208 234.376,87.656 C234.552,87.856 234.708,88.08 234.844,88.328 C235.14,88.848 235.368,89.48 235.528,90.224 C235.68,90.992 235.756,91.792 235.756,92.624 C235.756,93.344 235.688,94.088 235.552,94.856 C235.4,95.768 235.176,96.684 234.88,97.604 C234.352,99.228 233.688,100.76 232.888,102.2 C232.048,103.696 231.104,104.968 230.056,106.016 C229.56,106.52 229.056,106.932 228.544,107.252 C228.256,107.428 227.992,107.552 227.752,107.624 C227.544,107.672 227.412,107.696 227.356,107.696 Z M240.604,106.376 C240.652,106.36 240.696,106.328 240.736,106.28 C240.776,106.232 240.8,106.18 240.808,106.124 C240.816,106.068 240.818,106.01 240.814,105.95 C240.81,105.89 240.812,105.832 240.82,105.776 C240.924,105.112 240.992,104.624 241.024,104.312 L241.132,103.796 C241.164,103.62 241.192,103.484 241.216,103.388 C241.224,103.332 241.236,103.258 241.252,103.166 C241.268,103.074 241.292,102.968 241.324,102.848 C241.34,102.784 241.362,102.742 241.39,102.722 C241.418,102.702 241.468,102.692 241.54,102.692 C241.604,102.692 241.69,102.694 241.798,102.698 C241.906,102.702 242.032,102.7 242.176,102.692 C242.888,102.636 243.604,102.472 244.324,102.2 C245.428,101.784 246.432,101.2 247.336,100.448 C247.856,100.016 248.324,99.568 248.74,99.104 C249.3,98.488 249.832,97.808 250.336,97.064 C250.936,96.16 251.42,95.276 251.788,94.412 C251.924,94.108 252.048,93.78 252.16,93.428 C252.176,93.396 252.204,93.32 252.244,93.2 C252.516,92.36 252.652,91.548 252.652,90.764 C252.652,90.284 252.572,89.816 252.412,89.36 C252.196,88.784 251.844,88.344 251.356,88.04 C251.028,87.84 250.676,87.74 250.3,87.74 C250.204,87.74 250.132,87.744 250.084,87.752 C249.508,87.824 248.944,88.036 248.392,88.388 C247.728,88.828 247.2,89.272 246.808,89.72 L246.52,90.032 L246.34,90.236 C246.076,90.524 245.832,90.824 245.608,91.136 C245.384,91.448 245.128,91.836 244.84,92.3 C244.624,92.644 244.38,93.064 244.108,93.56 C243.74,94.248 243.356,95.072 242.956,96.032 C242.82,96.344 242.632,96.82 242.392,97.46 L242.224,97.892 C241.976,98.572 241.712,99.392 241.432,100.352 C241.336,100.688 241.256,100.98 241.192,101.228 L241.048,101.78 C241.024,101.876 240.998,101.96 240.97,102.032 C240.942,102.104 240.92,102.164 240.904,102.212 C240.88,102.276 240.84,102.304 240.784,102.296 L240.676,102.26 C240.172,102.052 239.788,101.728 239.524,101.288 C239.284,100.856 239.164,100.36 239.164,99.8 C239.164,99.664 239.168,99.56 239.176,99.488 L239.224,99.104 C239.224,99.08 239.226,99.054 239.23,99.026 C239.234,98.998 239.232,98.964 239.224,98.924 C239.216,98.868 239.19,98.828 239.146,98.804 C239.102,98.78 239.048,98.776 238.984,98.792 C238.928,98.808 238.892,98.86 238.876,98.948 C238.788,99.284 238.744,99.6 238.744,99.896 C238.768,100.696 239.008,101.336 239.464,101.816 C239.616,101.976 239.828,102.128 240.1,102.272 C240.284,102.368 240.488,102.456 240.712,102.536 C240.784,102.568 240.816,102.632 240.808,102.728 C240.792,102.776 240.784,102.82 240.784,102.86 C240.64,103.564 240.544,104.112 240.496,104.504 L240.436,104.948 C240.372,105.38 240.336,105.708 240.328,105.932 L240.316,106.064 L240.328,106.184 C240.336,106.256 240.366,106.31 240.418,106.346 C240.47,106.382 240.532,106.392 240.604,106.376 Z M241.708,102.44 L241.588,102.44 C241.5,102.424 241.46,102.376 241.468,102.296 C241.468,102.232 241.484,102.144 241.516,102.032 L241.66,101.528 C241.86,100.8 241.968,100.4 241.984,100.328 C242.024,100.192 242.156,99.764 242.38,99.044 C242.452,98.844 242.496,98.716 242.512,98.66 L243.04,97.184 C243.072,97.072 243.12,96.95 243.184,96.818 C243.248,96.686 243.292,96.592 243.316,96.536 C243.556,95.96 243.762,95.482 243.934,95.102 C244.106,94.722 244.292,94.344 244.492,93.968 C244.796,93.416 245.046,92.976 245.242,92.648 C245.438,92.32 245.656,91.996 245.896,91.676 L246.076,91.424 C246.116,91.368 246.162,91.306 246.214,91.238 C246.266,91.17 246.324,91.092 246.388,91.004 C246.796,90.476 247.296,89.948 247.888,89.42 C248.36,88.996 248.88,88.664 249.448,88.424 C249.856,88.256 250.204,88.172 250.492,88.172 C250.572,88.172 250.7,88.188 250.876,88.22 C251.316,88.316 251.648,88.556 251.872,88.94 C252.032,89.236 252.124,89.572 252.148,89.948 C252.164,90.172 252.172,90.344 252.172,90.464 C252.172,90.976 252.104,91.512 251.968,92.072 C251.84,92.624 251.664,93.2 251.44,93.8 C251.16,94.504 250.796,95.24 250.348,96.008 C249.788,96.976 249.08,97.948 248.224,98.924 C247.432,99.804 246.576,100.532 245.656,101.108 C244.696,101.716 243.704,102.124 242.68,102.332 C242.6,102.348 242.384,102.376 242.032,102.416 C241.96,102.416 241.852,102.424 241.708,102.44 Z M262.144,109.172 C262.312,109.172 262.488,109.148 262.672,109.1 C262.96,109.028 263.26,108.876 263.572,108.644 C263.9,108.388 264.1,108.06 264.172,107.66 C264.18,107.628 264.184,107.588 264.184,107.54 C264.184,107.492 264.17,107.454 264.142,107.426 C264.114,107.398 264.06,107.372 263.98,107.348 C263.932,107.348 263.896,107.344 263.872,107.336 C263.816,107.384 263.774,107.444 263.746,107.516 C263.718,107.588 263.696,107.656 263.68,107.72 C263.616,107.96 263.472,108.156 263.248,108.308 C263.016,108.5 262.772,108.632 262.516,108.704 C262.268,108.776 262.056,108.812 261.88,108.812 C261.672,108.812 261.488,108.766 261.328,108.674 C261.168,108.582 261.008,108.444 260.848,108.26 C260.696,108.076 260.56,107.892 260.44,107.708 C260.664,107.636 260.864,107.54 261.04,107.42 C261.536,107.06 261.868,106.812 262.036,106.676 C262.948,105.916 263.856,104.876 264.76,103.556 C265.224,102.86 265.656,102.112 266.056,101.312 C266.696,100.048 267.22,98.756 267.628,97.436 C267.9,96.532 268.1,95.644 268.228,94.772 C268.34,94.1 268.396,93.384 268.396,92.624 C268.396,92.04 268.364,91.512 268.3,91.04 C268.164,90.16 267.956,89.4 267.676,88.76 C267.364,88.048 266.948,87.484 266.428,87.068 C265.812,86.564 265.132,86.312 264.388,86.312 C263.788,86.312 263.204,86.46 262.636,86.756 C261.796,87.18 261.02,87.804 260.308,88.628 C259.308,89.764 258.464,91.06 257.776,92.516 C257.208,93.676 256.804,94.832 256.564,95.984 C256.404,96.816 256.324,97.52 256.324,98.096 C256.324,98.688 256.372,99.22 256.468,99.692 C256.644,100.532 257.052,101.272 257.692,101.912 C257.812,102.024 257.926,102.116 258.034,102.188 C258.142,102.26 258.268,102.308 258.412,102.332 L258.412,102.332 L258.328,102.596 C258.304,102.7 258.276,102.792 258.244,102.872 C258.172,103.12 258.116,103.332 258.076,103.508 C257.972,103.924 257.896,104.372 257.848,104.852 L257.848,104.852 L257.8,104.852 C257.384,104.892 257.008,105 256.672,105.176 C256.432,105.328 256.256,105.468 256.144,105.596 C256.064,105.684 256.008,105.776 255.976,105.872 C255.936,106 255.98,106.088 256.108,106.136 C256.412,105.688 256.892,105.396 257.548,105.26 C257.612,105.244 257.708,105.228 257.836,105.212 L257.836,105.212 L257.836,105.536 C257.86,106.064 257.964,106.524 258.148,106.916 C258.276,107.188 258.484,107.416 258.772,107.6 C259.06,107.784 259.372,107.876 259.708,107.876 C259.82,107.876 259.936,107.864 260.056,107.84 C260.296,108.224 260.584,108.532 260.92,108.764 C261.304,109.036 261.712,109.172 262.144,109.172 Z M260.236,107.348 L260.188,107.252 L259.624,106.028 C259.376,105.492 258.956,105.132 258.364,104.948 C258.372,104.716 258.404,104.452 258.46,104.156 C258.596,103.34 258.86,102.424 259.252,101.408 L259.252,101.408 L259.444,100.976 C259.492,100.888 259.556,100.748 259.636,100.556 C259.7,100.42 259.752,100.288 259.792,100.16 C259.672,100.112 259.592,100.088 259.552,100.088 C259.512,100.088 259.48,100.1 259.456,100.124 C259.432,100.148 259.404,100.188 259.372,100.244 C259.012,100.9 258.74,101.48 258.556,101.984 L258.556,101.984 L258.484,102.128 C258.452,102.104 258.422,102.084 258.394,102.068 C258.366,102.052 258.34,102.036 258.316,102.02 C257.572,101.356 257.12,100.512 256.96,99.488 C256.896,99.064 256.864,98.672 256.864,98.312 C256.864,98 256.884,97.652 256.924,97.268 C257.02,96.236 257.32,95.084 257.824,93.812 C258.392,92.372 259.164,91.02 260.14,89.756 C260.716,88.996 261.3,88.372 261.892,87.884 C262.516,87.364 263.164,87.016 263.836,86.84 C264.14,86.76 264.42,86.72 264.676,86.72 C265.412,86.72 266.016,86.992 266.488,87.536 C266.656,87.728 266.808,87.948 266.944,88.196 C267.232,88.708 267.46,89.34 267.628,90.092 C267.78,90.796 267.856,91.584 267.856,92.456 C267.856,93.16 267.792,93.916 267.664,94.724 C267.52,95.572 267.292,96.488 266.98,97.472 C266.484,99.048 265.82,100.584 264.988,102.08 C264.172,103.536 263.232,104.808 262.168,105.896 C261.608,106.44 261.1,106.848 260.644,107.12 C260.468,107.232 260.332,107.308 260.236,107.348 L260.236,107.348 Z M259.456,107.564 C259.328,107.564 259.214,107.53 259.114,107.462 C259.014,107.394 258.904,107.28 258.784,107.12 C258.624,106.896 258.508,106.604 258.436,106.244 C258.38,105.932 258.352,105.592 258.352,105.224 C258.664,105.296 258.896,105.492 259.048,105.812 L259.048,105.812 L259.216,106.172 C259.232,106.212 259.276,106.316 259.348,106.484 L259.348,106.484 L259.516,106.82 C259.66,107.124 259.772,107.348 259.852,107.492 C259.692,107.54 259.56,107.564 259.456,107.564 Z M281.176,108.596 C281.192,108.596 281.208,108.592 281.224,108.584 C281.24,108.576 281.252,108.564 281.26,108.548 C281.276,108.492 281.272,108.452 281.248,108.428 C281.208,108.38 281.16,108.344 281.104,108.32 C281.048,108.296 280.976,108.272 280.888,108.248 C280.456,108.128 280.092,107.896 279.796,107.552 C279.572,107.288 279.324,106.896 279.052,106.376 C278.796,105.888 278.444,105.128 277.996,104.096 L277.996,104.096 L277.78,103.604 C277.476,102.884 277.12,102.06 276.712,101.132 C276.432,100.5 276.112,99.98 275.752,99.572 C275.744,99.564 275.734,99.552 275.722,99.536 C275.71,99.52 275.704,99.504 275.704,99.488 C275.704,99.456 275.712,99.432 275.728,99.416 C275.848,99.384 275.952,99.364 276.04,99.356 C276.536,99.3 277.132,99.18 277.828,98.996 C278.54,98.82 279.396,98.548 280.396,98.18 C281.404,97.804 282.412,97.34 283.42,96.788 C284.54,96.164 285.544,95.492 286.432,94.772 C287.24,94.1 287.94,93.396 288.532,92.66 C288.98,92.1 289.304,91.528 289.504,90.944 C289.608,90.616 289.66,90.324 289.66,90.068 C289.66,89.78 289.6,89.512 289.48,89.264 C289.24,88.712 288.808,88.28 288.184,87.968 C287.512,87.632 286.656,87.464 285.616,87.464 C284.776,87.464 283.804,87.6 282.7,87.872 C281.052,88.296 279.388,88.988 277.708,89.948 C276.828,90.46 276.008,90.996 275.248,91.556 C274.136,92.372 273.212,93.192 272.476,94.016 C272.076,94.44 271.784,94.844 271.6,95.228 C271.568,95.284 271.524,95.392 271.468,95.552 C271.436,95.656 271.468,95.736 271.564,95.792 C271.556,95.64 271.624,95.46 271.768,95.252 L271.768,95.252 L271.912,95.036 C272.28,94.54 272.728,94.056 273.256,93.584 C274.128,92.776 275.104,92.016 276.184,91.304 C277.944,90.144 279.7,89.264 281.452,88.664 C283.06,88.128 284.5,87.86 285.772,87.86 C286.34,87.86 286.872,87.916 287.368,88.028 C287.8,88.148 288.168,88.304 288.472,88.496 C288.984,88.84 289.24,89.284 289.24,89.828 C289.24,90.012 289.208,90.224 289.144,90.464 C289.056,90.768 288.912,91.104 288.712,91.472 C288.376,92.04 287.944,92.596 287.416,93.14 C286.72,93.852 285.912,94.532 284.992,95.18 C283.592,96.18 282.06,97.008 280.396,97.664 C279.38,98.08 278.3,98.424 277.156,98.696 C276.428,98.864 275.812,98.968 275.308,99.008 L275.308,99.008 L275.254,99.008 C275.226,99.008 275.196,99.004 275.164,98.996 C275.132,98.988 275.108,98.964 275.092,98.924 C275.108,98.844 275.132,98.764 275.164,98.684 L275.164,98.684 L275.548,97.76 L276.028,96.608 L276.364,95.792 L277.396,93.368 C277.524,93.032 277.616,92.78 277.672,92.612 C277.688,92.564 277.696,92.528 277.696,92.504 C277.696,92.464 277.684,92.428 277.66,92.396 C277.612,92.332 277.552,92.3 277.48,92.3 C277.448,92.3 277.42,92.304 277.396,92.312 L277.396,92.312 L277.228,92.672 C277.1,92.928 276.964,93.232 276.82,93.584 L276.82,93.584 L276.172,95.024 C276.14,95.112 276.106,95.194 276.07,95.27 C276.034,95.346 276.004,95.412 275.98,95.468 L275.98,95.468 L274.768,98.312 C274.688,98.504 274.616,98.644 274.552,98.732 L274.552,98.732 L274.384,98.732 C274.336,98.732 274.286,98.736 274.234,98.744 C274.182,98.752 274.144,98.776 274.12,98.816 C274.096,98.848 274.086,98.88 274.09,98.912 C274.094,98.944 274.108,98.976 274.132,99.008 C274.156,99.04 274.172,99.064 274.18,99.08 C274.204,99.12 274.232,99.156 274.264,99.188 C274.296,99.22 274.328,99.256 274.36,99.296 C274.248,99.592 274.18,99.78 274.156,99.86 C274.124,99.948 274.088,100.046 274.048,100.154 C274.008,100.262 273.964,100.376 273.916,100.496 C273.86,100.648 273.652,101.208 273.292,102.176 C273.116,102.656 272.868,103.376 272.548,104.336 L272.548,104.336 L272.128,105.572 L271.732,106.736 C271.724,106.768 271.72,106.806 271.72,106.85 C271.72,106.894 271.716,106.932 271.708,106.964 C271.732,106.972 271.76,106.98 271.792,106.988 C271.824,106.996 271.856,107 271.888,107 C271.912,107.008 271.948,107.012 271.996,107.012 C272.068,107.012 272.124,106.992 272.164,106.952 C272.204,106.912 272.244,106.848 272.284,106.76 L272.284,106.76 L272.332,106.628 L272.764,105.356 C273.148,104.22 273.44,103.368 273.64,102.8 C273.776,102.408 273.988,101.82 274.276,101.036 L274.276,101.036 L274.684,99.92 C274.724,99.824 274.764,99.72 274.804,99.608 C274.82,99.576 274.856,99.52 274.912,99.44 C274.976,99.424 275.02,99.416 275.044,99.416 C275.132,99.416 275.208,99.456 275.272,99.536 C275.432,99.712 275.544,99.844 275.608,99.932 C275.776,100.164 275.922,100.406 276.046,100.658 C276.17,100.91 276.324,101.24 276.508,101.648 L276.508,101.648 L277.012,102.836 C277.492,103.98 277.932,104.976 278.332,105.824 C278.676,106.528 279.008,107.088 279.328,107.504 C279.744,108.04 280.24,108.384 280.816,108.536 C280.888,108.56 281.008,108.58 281.176,108.596 Z M294.496,108.02 C295.208,108.02 295.944,107.924 296.704,107.732 C298.776,107.228 300.728,106.272 302.56,104.864 C303.624,104.04 304.44,103.156 305.008,102.212 C305.536,101.356 305.8,100.496 305.8,99.632 C305.8,99.536 305.792,99.384 305.776,99.176 C305.712,98.544 305.464,97.94 305.032,97.364 C304.68,96.876 304.24,96.44 303.712,96.056 C302.776,95.36 301.592,94.792 300.16,94.352 C299.664,94.2 298.904,93.988 297.88,93.716 C297.736,93.684 297.52,93.628 297.232,93.548 C297.176,93.532 297.006,93.486 296.722,93.41 C296.438,93.334 296.172,93.24 295.924,93.128 C295.788,93.056 295.68,92.992 295.6,92.936 C295.488,92.84 295.432,92.716 295.432,92.564 C295.432,92.42 295.492,92.264 295.612,92.096 C295.732,91.912 295.908,91.724 296.14,91.532 C296.54,91.228 297.06,90.92 297.7,90.608 C298.38,90.28 299.168,89.988 300.064,89.732 C301.696,89.276 303.28,89.064 304.816,89.096 C305.48,89.144 305.996,89.22 306.364,89.324 C306.684,89.412 306.948,89.52 307.156,89.648 C307.364,89.776 307.508,89.964 307.588,90.212 C307.604,90.244 307.62,90.262 307.636,90.266 C307.652,90.27 307.68,90.252 307.72,90.212 C307.712,90.028 307.628,89.856 307.468,89.696 C307.22,89.448 306.936,89.272 306.616,89.168 C306.232,89.016 305.816,88.916 305.368,88.868 C304.952,88.812 304.5,88.784 304.012,88.784 C303.404,88.784 302.736,88.836 302.008,88.94 C300.4,89.156 298.88,89.584 297.448,90.224 C296.776,90.528 296.224,90.844 295.792,91.172 C295.544,91.356 295.316,91.588 295.108,91.868 C294.996,92.036 294.94,92.212 294.94,92.396 C294.94,92.436 294.948,92.504 294.964,92.6 C295.028,92.792 295.14,92.96 295.3,93.104 C295.516,93.312 295.772,93.464 296.068,93.56 C296.644,93.744 297.14,93.892 297.556,94.004 L298.384,94.22 C298.504,94.252 298.798,94.332 299.266,94.46 C299.734,94.588 300.168,94.724 300.568,94.868 C301.592,95.22 302.456,95.624 303.16,96.08 C303.864,96.536 304.4,97.056 304.768,97.64 C305.104,98.144 305.272,98.724 305.272,99.38 C305.272,99.636 305.252,99.864 305.212,100.064 C305.076,100.832 304.744,101.596 304.216,102.356 C303.632,103.212 302.8,104.044 301.72,104.852 C300.328,105.86 298.828,106.624 297.22,107.144 C296.188,107.48 295.212,107.648 294.292,107.648 C294.068,107.648 293.904,107.644 293.8,107.636 C292.552,107.54 291.6,107.08 290.944,106.256 C290.408,105.592 290.14,104.836 290.14,103.988 C290.14,103.38 290.28,102.724 290.56,102.02 C291.08,100.748 291.92,99.632 293.08,98.672 C293.408,98.408 293.736,98.196 294.064,98.036 C294.248,97.94 294.436,97.888 294.628,97.88 C294.78,97.88 294.868,97.944 294.892,98.072 C294.924,98.264 294.94,98.408 294.94,98.504 C294.932,98.728 294.896,98.96 294.832,99.2 C294.768,99.44 294.732,99.58 294.724,99.62 C294.564,100.188 294.356,100.828 294.1,101.54 C294.004,101.796 293.904,102.08 293.8,102.392 L293.584,103.076 C293.424,103.532 293.28,103.988 293.152,104.444 C293.064,104.708 293,105.008 292.96,105.344 C292.944,105.568 292.998,105.756 293.122,105.908 C293.246,106.06 293.412,106.148 293.62,106.172 L293.668,106.172 C293.7,106.172 293.788,106.164 293.932,106.148 C293.916,106.124 293.892,106.092 293.86,106.052 C293.828,106.012 293.798,105.986 293.77,105.974 C293.742,105.962 293.708,105.952 293.668,105.944 C293.508,105.912 293.42,105.804 293.404,105.62 L293.392,105.464 L293.404,105.308 L293.476,105.02 C293.492,104.956 293.51,104.876 293.53,104.78 C293.55,104.684 293.58,104.572 293.62,104.444 L294.088,103.088 L294.22,102.728 C294.276,102.568 294.328,102.432 294.376,102.32 L294.52,101.924 C294.6,101.724 294.688,101.48 294.784,101.192 L295,100.568 C295.08,100.36 295.188,100.008 295.324,99.512 L295.42,99.164 C295.444,99.076 295.462,98.972 295.474,98.852 C295.486,98.732 295.496,98.648 295.504,98.6 C295.536,98.256 295.44,97.984 295.216,97.784 C294.992,97.584 294.716,97.484 294.388,97.484 C294.212,97.484 294.052,97.512 293.908,97.568 C293.636,97.696 293.464,97.78 293.392,97.82 C292.984,98.044 292.612,98.312 292.276,98.624 C291.244,99.592 290.492,100.628 290.02,101.732 C289.7,102.508 289.54,103.22 289.54,103.868 C289.54,104.548 289.716,105.192 290.068,105.8 C290.628,106.784 291.52,107.448 292.744,107.792 C293.296,107.944 293.88,108.02 294.496,108.02 Z M311.932,106.664 C311.996,106.664 312.044,106.636 312.076,106.58 C312.092,106.564 312.1,106.542 312.1,106.514 C312.1,106.486 312.096,106.468 312.088,106.46 C312.04,106.396 312.016,106.304 312.016,106.184 C312.016,106.096 312.02,106.028 312.028,105.98 L312.1,105.524 C312.116,105.436 312.138,105.304 312.166,105.128 C312.194,104.952 312.22,104.8 312.244,104.672 C312.412,103.856 312.624,102.98 312.88,102.044 C313.248,100.668 313.744,99.264 314.368,97.832 C315.024,96.312 315.692,94.912 316.372,93.632 C316.684,93.048 317.072,92.408 317.536,91.712 C317.648,91.552 317.792,91.456 317.968,91.424 L319.576,91.124 C320.16,91.028 320.674,90.954 321.118,90.902 C321.562,90.85 321.996,90.82 322.42,90.812 C322.708,90.812 322.992,90.836 323.272,90.884 C323.544,90.924 323.784,91.064 323.992,91.304 C324.04,91.352 324.104,91.4 324.184,91.448 C324.208,91.464 324.24,91.452 324.28,91.412 C324.296,91.396 324.3,91.376 324.292,91.352 C324.276,91.288 324.26,91.252 324.244,91.244 C323.996,90.932 323.708,90.716 323.38,90.596 C323.1,90.492 322.788,90.44 322.444,90.44 C321.956,90.44 321.332,90.484 320.572,90.572 C319.516,90.692 318.16,90.936 316.504,91.304 C315.608,91.504 314.492,91.792 313.156,92.168 C312.532,92.328 312.064,92.44 311.752,92.504 C311.624,92.528 311.424,92.54 311.152,92.54 C310.944,92.532 310.82,92.42 310.78,92.204 C310.772,92.156 310.77,92.104 310.774,92.048 C310.778,91.992 310.776,91.936 310.768,91.88 L310.768,91.76 C310.768,91.712 310.764,91.676 310.756,91.652 C310.748,91.62 310.73,91.594 310.702,91.574 C310.674,91.554 310.644,91.548 310.612,91.556 C310.588,91.564 310.564,91.58 310.54,91.604 C310.516,91.628 310.5,91.652 310.492,91.676 C310.452,91.772 310.432,91.86 310.432,91.94 C310.432,92.38 310.64,92.676 311.056,92.828 C311.192,92.884 311.348,92.912 311.524,92.912 C311.652,92.912 311.784,92.9 311.92,92.876 C312.416,92.78 312.792,92.7 313.048,92.636 L316.18,91.832 C316.548,91.736 316.84,91.68 317.056,91.664 C316.92,91.856 316.856,91.948 316.864,91.94 C316.808,92.044 316.74,92.148 316.66,92.252 L316.444,92.576 C316.204,92.952 315.98,93.336 315.772,93.728 C315.564,94.12 315.312,94.612 315.016,95.204 C314.6,96.044 314.164,96.996 313.708,98.06 C313.308,99.004 313.012,99.776 312.82,100.376 C312.556,101.192 312.364,101.84 312.244,102.32 C311.932,103.536 311.712,104.58 311.584,105.452 L311.524,106.148 C311.524,106.244 311.532,106.312 311.548,106.352 C311.604,106.536 311.72,106.64 311.896,106.664 L311.932,106.664 Z M325.888,107.408 C326.28,107.408 326.684,107.28 327.1,107.024 C327.428,106.824 327.744,106.548 328.048,106.196 C328.36,105.86 328.712,105.392 329.104,104.792 C329.664,103.912 330.2,102.868 330.712,101.66 C331.008,100.956 331.344,100.06 331.72,98.972 C332,98.148 332.396,96.912 332.908,95.264 L332.992,95 L333.472,93.332 C333.616,92.796 333.716,92.444 333.772,92.276 C334.124,90.996 334.38,89.944 334.54,89.12 C334.604,88.8 334.636,88.504 334.636,88.232 C334.636,87.912 334.456,87.68 334.096,87.536 C334.112,87.632 334.12,87.68 334.12,87.68 C334.208,87.792 334.252,87.916 334.252,88.052 C334.252,88.14 334.24,88.228 334.216,88.316 L334.144,88.7 C334.128,88.796 334.106,88.916 334.078,89.06 C334.05,89.204 334.012,89.372 333.964,89.564 C333.772,90.3 333.624,90.852 333.52,91.22 C333.472,91.412 333.432,91.552 333.4,91.64 C333.248,92.256 333.088,92.824 332.92,93.344 C332.6,94.376 332.176,95.712 331.648,97.352 C331.16,98.856 330.62,100.328 330.028,101.768 C329.604,102.752 329.196,103.6 328.804,104.312 C328.436,104.992 328.032,105.58 327.592,106.076 C327.256,106.452 326.932,106.736 326.62,106.928 C326.42,107.04 326.228,107.096 326.044,107.096 C325.892,107.096 325.756,107.068 325.636,107.012 C325.156,106.796 324.82,106.46 324.628,106.004 C324.388,105.404 324.256,104.668 324.232,103.796 L324.232,103.436 C324.232,102.74 324.28,102.04 324.376,101.336 C324.472,100.528 324.664,99.456 324.952,98.12 C325.16,97.152 325.368,96.26 325.576,95.444 C325.72,94.868 325.888,94.236 326.08,93.548 C326.12,93.372 326.176,93.164 326.248,92.924 C326.304,92.724 326.372,92.492 326.452,92.228 C326.476,92.132 326.546,91.882 326.662,91.478 C326.778,91.074 326.868,90.692 326.932,90.332 C326.948,90.276 326.964,90.176 326.98,90.032 C326.98,89.944 326.948,89.876 326.884,89.828 C326.836,89.78 326.788,89.756 326.74,89.756 C326.708,89.756 326.668,89.768 326.62,89.792 L326.44,90.44 C326.056,91.704 325.772,92.652 325.588,93.284 C325.3,94.292 325.092,95.052 324.964,95.564 C324.684,96.644 324.428,97.768 324.196,98.936 C323.916,100.208 323.736,101.476 323.656,102.74 C323.64,103.028 323.632,103.248 323.632,103.4 C323.632,104 323.684,104.572 323.788,105.116 C323.892,105.676 324.112,106.204 324.448,106.7 C324.568,106.892 324.732,107.044 324.94,107.156 C325.252,107.324 325.568,107.408 325.888,107.408 Z M340.276,106.676 C340.388,106.676 340.494,106.656 340.594,106.616 C340.694,106.576 340.772,106.516 340.828,106.436 C340.956,106.292 341.064,106.156 341.152,106.028 C341.368,105.684 341.612,105.204 341.884,104.588 C341.908,104.548 341.96,104.436 342.04,104.252 C342.16,103.972 342.416,103.372 342.808,102.452 L343.192,101.552 C343.288,101.336 343.532,100.768 343.924,99.848 L344.536,98.432 L346.084,95 C346.564,93.936 347.008,92.984 347.416,92.144 C348.024,90.872 348.556,89.836 349.012,89.036 C349.164,88.772 349.296,88.556 349.408,88.388 C349.52,88.22 349.644,88.064 349.78,87.92 L349.96,87.704 L349.96,87.704 C349.936,87.648 349.906,87.61 349.87,87.59 C349.834,87.57 349.798,87.558 349.762,87.554 C349.726,87.55 349.7,87.544 349.684,87.536 L349.66,87.536 C349.612,87.536 349.57,87.55 349.534,87.578 C349.498,87.606 349.476,87.624 349.468,87.632 C349.324,87.76 349.22,87.864 349.156,87.944 C348.924,88.2 348.72,88.492 348.544,88.82 C348.304,89.244 348.088,89.644 347.896,90.02 L347.68,90.428 C347.36,91.044 347.172,91.412 347.116,91.532 C346.54,92.748 346.028,93.836 345.58,94.796 C345.068,95.884 344.572,96.984 344.092,98.096 C343.716,98.928 343.124,100.32 342.316,102.272 L341.8,103.508 C341.4,104.476 341.092,105.172 340.876,105.596 C340.716,105.9 340.58,106.116 340.468,106.244 C340.444,106.268 340.42,106.288 340.396,106.304 C340.372,106.32 340.348,106.34 340.324,106.364 C340.244,106.284 340.204,106.244 340.204,106.244 C340.068,106.044 339.956,105.824 339.868,105.584 C339.732,105.2 339.624,104.752 339.544,104.24 C339.432,103.576 339.36,102.744 339.328,101.744 L339.328,101.264 C339.328,100.352 339.384,99.412 339.496,98.444 C339.608,97.484 339.708,96.768 339.796,96.296 C339.852,96.024 339.916,95.68 339.988,95.264 L340.204,94.148 C340.38,93.276 340.572,92.524 340.78,91.892 L341.032,91.064 C341.072,90.944 341.108,90.832 341.14,90.728 C341.172,90.624 341.204,90.524 341.236,90.428 C341.268,90.292 341.288,90.2 341.296,90.152 L341.296,90.128 C341.296,90.016 341.228,89.948 341.092,89.924 L341.044,89.912 C340.9928,89.912 340.95184,89.94528 340.92112,90.01184 L340.756,90.452 C340.572,90.956 340.464,91.264 340.432,91.376 C340.168,92.16 339.896,93.208 339.616,94.52 C339.352,95.672 339.136,96.96 338.968,98.384 C338.848,99.48 338.788,100.468 338.788,101.348 C338.788,102.468 338.868,103.524 339.028,104.516 C339.108,104.94 339.224,105.38 339.376,105.836 C339.448,106.028 339.544,106.208 339.664,106.376 C339.736,106.472 339.826,106.546 339.934,106.598 C340.042,106.65 340.156,106.676 340.276,106.676 Z M353.368,106.58 C353.504,106.58 353.632,106.508 353.752,106.364 C353.904,106.172 354.012,106.004 354.076,105.86 C354.236,105.54 354.468,105.06 354.772,104.42 L355.12,103.7 C355.344,103.22 355.48,102.928 355.528,102.824 C355.84,102.128 356.164,101.432 356.5,100.736 C357.1,99.496 357.676,98.336 358.228,97.256 C358.628,96.488 358.932,95.912 359.14,95.528 L359.596,94.664 L359.752,94.448 C359.776,94.544 359.788,94.636 359.788,94.724 C359.788,94.924 359.78,95.224 359.764,95.624 C359.764,95.72 359.758,95.884 359.746,96.116 C359.734,96.348 359.732,96.556 359.74,96.74 C359.74,97.668 359.756,98.512 359.788,99.272 C359.828,100.144 359.88,100.94 359.944,101.66 C360,102.348 360.108,103.136 360.268,104.024 C360.396,104.688 360.54,105.22 360.7,105.62 C360.748,105.756 360.824,105.92 360.928,106.112 C361.032,106.28 361.224,106.408 361.504,106.496 C361.528,106.504 361.564,106.508 361.612,106.508 C361.708,106.508 361.792,106.484 361.864,106.436 C362.008,106.324 362.104,106.232 362.152,106.16 C362.264,105.992 362.36,105.812 362.44,105.62 C362.64,105.172 362.852,104.548 363.076,103.748 C363.092,103.708 363.12,103.62 363.16,103.484 L363.652,101.696 L364.348,99.368 L364.444,99.056 C364.556,98.68 364.696,98.228 364.864,97.7 C365.216,96.644 365.484,95.852 365.668,95.324 C365.924,94.564 366.164,93.888 366.388,93.296 L366.868,92.036 C367.236,91.036 367.608,90.144 367.984,89.36 C368.032,89.264 368.094,89.162 368.17,89.054 C368.246,88.946 368.3,88.868 368.332,88.82 L368.428,88.712 C368.388,88.632 368.332,88.582 368.26,88.562 C368.188,88.542 368.14,88.524 368.116,88.508 C367.972,88.588 367.886,88.64 367.858,88.664 C367.83,88.688 367.784,88.744 367.72,88.832 L367.528,89.144 C367.248,89.664 366.944,90.332 366.616,91.148 L366.424,91.604 C366.36,91.764 366.192,92.188 365.92,92.876 C365.832,93.116 365.78,93.256 365.764,93.296 L365.536,93.908 C365.328,94.452 365.176,94.86 365.08,95.132 L364.648,96.44 C364.392,97.224 364.248,97.664 364.216,97.76 C363.856,98.864 363.436,100.264 362.956,101.96 C362.66,102.976 362.392,103.872 362.152,104.648 C362.024,105.08 361.88,105.444 361.72,105.74 C361.656,105.884 361.584,105.98 361.504,106.028 C361.44,105.98 361.394,105.92 361.366,105.848 C361.338,105.776 361.32,105.732 361.312,105.716 C361.176,105.332 361.04,104.832 360.904,104.216 C360.808,103.728 360.716,103.124 360.628,102.404 C360.612,102.332 360.596,102.224 360.58,102.08 C360.468,101.088 360.388,99.732 360.34,98.012 C360.324,97.5 360.316,97.124 360.316,96.884 C360.316,96.324 360.336,95.696 360.376,95 C360.384,94.864 360.388,94.66 360.388,94.388 C360.388,94.14 360.38,93.97 360.364,93.878 C360.348,93.786 360.31,93.714 360.25,93.662 C360.19,93.61 360.076,93.556 359.908,93.5 C359.844,93.484 359.8,93.476 359.776,93.476 C359.68,93.476 359.596,93.524 359.524,93.62 L359.404,93.788 L359.26,94.04 C359.228,94.096 359.186,94.166 359.134,94.25 C359.082,94.334 359.028,94.432 358.972,94.544 L357.376,97.592 C356.8,98.728 356.372,99.584 356.092,100.16 C355.868,100.624 355.676,101.03 355.516,101.378 C355.356,101.726 355.224,102.016 355.12,102.248 L354.724,103.1 C354.468,103.676 354.272,104.104 354.136,104.384 C354.096,104.48 353.968,104.752 353.752,105.2 L353.56,105.608 C353.56,105.608 353.512,105.672 353.416,105.8 C353.4,105.72 353.392,105.608 353.392,105.464 C353.392,105.352 353.396,105.268 353.404,105.212 C353.452,104.636 353.512,104.044 353.584,103.436 C353.72,102.244 353.952,100.652 354.28,98.66 C354.4,97.916 354.5,97.308 354.58,96.836 L355.288,92.912 C355.32,92.736 355.388,92.404 355.492,91.916 C355.524,91.74 355.568,91.52 355.624,91.256 C355.8,90.456 355.928,89.852 356.008,89.444 C356.048,89.22 356.1,88.876 356.164,88.412 C356.172,88.388 356.176,88.352 356.176,88.304 C356.176,88.264 356.172,88.232 356.164,88.208 C356.156,88.136 356.134,88.084 356.098,88.052 C356.062,88.02 355.992,87.992 355.888,87.968 C355.88,87.984 355.87,88.004 355.858,88.028 C355.846,88.052 355.84,88.072 355.84,88.088 C355.808,88.352 355.728,88.74 355.6,89.252 L355.516,89.6 C355.348,90.312 355.208,90.916 355.096,91.412 C354.968,91.956 354.848,92.528 354.736,93.128 L354.004,96.944 C353.916,97.432 353.792,98.164 353.632,99.14 C353.528,99.756 353.448,100.256 353.392,100.64 C353.216,101.896 353.076,102.908 352.972,103.676 C352.868,104.396 352.812,105.08 352.804,105.728 C352.804,105.832 352.82,105.988 352.852,106.196 C352.868,106.284 352.904,106.352 352.96,106.4 C353.104,106.52 353.24,106.58 353.368,106.58 Z M380.764,108.032 C380.812,108.024 380.85,108.004 380.878,107.972 C380.906,107.94 380.92,107.904 380.92,107.864 C380.92,107.832 380.908,107.796 380.884,107.756 C380.756,107.548 380.664,107.392 380.608,107.288 C380.456,106.984 380.236,106.528 379.948,105.92 L379.684,105.356 C379.564,105.108 379.438,104.838 379.306,104.546 C379.174,104.254 379.024,103.94 378.856,103.604 L378.064,101.924 L377.128,100.016 L376.744,99.212 L376.936,98.984 C377.176,98.704 377.312,98.548 377.344,98.516 C378.232,97.54 379.14,96.56 380.068,95.576 C380.332,95.288 380.736,94.864 381.28,94.304 L381.676,93.884 L382.96,92.54 L383.836,91.616 C383.932,91.52 384.016,91.412 384.088,91.292 C384.12,91.252 384.136,91.212 384.136,91.172 C384.136,91.116 384.08,91.044 383.968,90.956 C383.888,91.004 383.828,91.048 383.788,91.088 C383.756,91.112 383.668,91.196 383.524,91.34 C383.012,91.796 382.276,92.52 381.316,93.512 L380.956,93.884 C380.548,94.308 379.952,94.932 379.168,95.756 C378.632,96.308 378.1,96.876 377.572,97.46 L376.648,98.48 C376.616,98.528 376.586,98.56 376.558,98.576 C376.53,98.592 376.492,98.596 376.444,98.588 C376.38,98.476 376.344,98.412 376.336,98.396 L374.332,94.304 L374.08,93.788 C373.8,93.212 373.632,92.868 373.576,92.756 C373.528,92.66 373.432,92.524 373.288,92.348 C373.216,92.252 373.128,92.204 373.024,92.204 C373.344,93.06 373.694,93.916 374.074,94.772 C374.454,95.628 374.916,96.632 375.46,97.784 L376.072,99.092 C376.04,99.132 376.01,99.174 375.982,99.218 C375.954,99.262 375.924,99.304 375.892,99.344 C375.676,99.584 375.564,99.708 375.556,99.716 C374.964,100.388 374.616,100.788 374.512,100.916 C373.944,101.604 373.332,102.368 372.676,103.208 C371.964,104.136 371.196,105.164 370.372,106.292 C370.164,106.564 370.028,106.78 369.964,106.94 C370.02,107.06 370.124,107.148 370.276,107.204 C370.292,107.212 370.316,107.216 370.348,107.216 C370.42,107.216 370.472,107.18 370.504,107.108 C370.52,107.068 370.546,107.014 370.582,106.946 C370.618,106.878 370.652,106.824 370.684,106.784 C371.116,106.168 371.464,105.688 371.728,105.344 C372.832,103.888 373.8,102.66 374.632,101.66 L375.136,101.072 C375.616,100.512 375.972,100.088 376.204,99.8 L376.36,99.692 L376.432,99.788 L377.368,101.768 L377.836,102.764 C378.364,103.884 378.676,104.548 378.772,104.756 C379.252,105.796 379.716,106.736 380.164,107.576 C380.22,107.672 380.272,107.758 380.32,107.834 C380.368,107.91 380.412,107.976 380.452,108.032 C380.492,108.032 380.538,108.034 380.59,108.038 C380.642,108.042 380.7,108.04 380.764,108.032 Z M391.204,113.492 C391.66,113.492 392.1,113.344 392.524,113.048 C392.932,112.776 393.34,112.36 393.748,111.8 C394.204,111.176 394.64,110.42 395.056,109.532 C395.472,108.644 395.828,107.78 396.124,106.94 L396.628,105.464 C396.652,105.392 396.674,105.324 396.694,105.26 C396.714,105.196 396.732,105.14 396.748,105.092 L396.832,104.912 L397.144,104.936 L398.14,105.116 C399.164,105.316 400.156,105.468 401.116,105.572 C401.26,105.588 401.424,105.6 401.608,105.608 C401.792,105.616 401.92,105.62 401.992,105.62 C402.04,105.62 402.08,105.614 402.112,105.602 C402.144,105.59 402.164,105.56 402.172,105.512 C402.124,105.464 402.1,105.44 402.1,105.44 C401.996,105.376 401.848,105.336 401.656,105.32 C401.12,105.272 400.592,105.208 400.072,105.128 C399.552,105.048 398.888,104.94 398.08,104.804 L397.144,104.636 C397.104,104.62 397.066,104.604 397.03,104.588 C396.994,104.572 396.96,104.556 396.928,104.54 L397.252,103.484 L397.432,102.872 L398.2,100.4 L399.1,97.496 L399.628,95.756 C399.764,95.34 399.886,94.994 399.994,94.718 C400.102,94.442 400.232,94.176 400.384,93.92 C400.504,93.704 400.66,93.364 400.852,92.9 C400.9,92.788 400.948,92.656 400.996,92.504 C401.044,92.352 401.08,92.24 401.104,92.168 C401.12,92.088 401.128,92.032 401.128,92 C401.128,91.944 401.12,91.904 401.104,91.88 C401.032,91.712 400.908,91.588 400.732,91.508 C400.716,91.5 400.692,91.496 400.66,91.496 C400.62,91.496 400.58,91.516 400.54,91.556 L400.42,91.76 C400.316,91.968 400.24,92.144 400.192,92.288 C400.024,92.736 399.856,93.212 399.688,93.716 C399.536,94.164 399.352,94.572 399.136,94.94 C398.632,95.78 398.16,96.52 397.72,97.16 C396.984,98.224 396.256,99.124 395.536,99.86 C394.904,100.524 394.272,101.028 393.64,101.372 C393.024,101.716 392.46,101.888 391.948,101.888 C391.484,101.888 391.136,101.704 390.904,101.336 C390.672,100.976 390.512,100.572 390.424,100.124 C390.336,99.684 390.292,99.204 390.292,98.684 C390.292,98.364 390.312,98.004 390.352,97.604 C390.504,96.348 390.84,95.02 391.36,93.62 C391.432,93.444 391.548,93.116 391.708,92.636 C391.716,92.62 391.718,92.602 391.714,92.582 C391.71,92.562 391.708,92.544 391.708,92.528 L391.48,92.432 C391.424,92.456 391.382,92.486 391.354,92.522 C391.326,92.558 391.304,92.598 391.288,92.642 C391.272,92.686 391.26,92.716 391.252,92.732 C390.86,93.644 390.588,94.356 390.436,94.868 C390.116,95.964 389.92,96.912 389.848,97.712 C389.816,98 389.8,98.328 389.8,98.696 C389.8,99.16 389.836,99.568 389.908,99.92 C390.036,100.512 390.228,100.98 390.484,101.324 C390.948,101.956 391.54,102.272 392.26,102.272 C392.54,102.272 392.812,102.234 393.076,102.158 C393.34,102.082 393.616,101.972 393.904,101.828 C394.592,101.484 395.3,100.94 396.028,100.196 C396.476,99.748 396.924,99.228 397.372,98.636 C397.916,97.932 398.308,97.392 398.548,97.016 C398.556,97.008 398.58,96.988 398.62,96.956 C398.628,97.06 398.612,97.166 398.572,97.274 C398.532,97.382 398.504,97.464 398.488,97.52 L397.612,100.388 C397.276,101.492 397.02,102.32 396.844,102.872 C396.716,103.288 396.564,103.76 396.388,104.288 C396.38,104.312 396.366,104.34 396.346,104.372 C396.326,104.404 396.312,104.432 396.304,104.456 L396.112,104.432 L394.36,104.108 L392.092,103.712 C391.1,103.536 390.332,103.42 389.788,103.364 C389.42,103.332 389.144,103.316 388.96,103.316 C388.616,103.316 388.3,103.344 388.012,103.4 C387.708,103.464 387.492,103.524 387.364,103.58 C386.828,103.796 386.516,104.192 386.428,104.768 C386.396,104.928 386.38,105.116 386.38,105.332 C386.38,106.012 386.484,106.78 386.692,107.636 C386.956,108.74 387.328,109.736 387.808,110.624 C388.216,111.368 388.624,111.96 389.032,112.4 C389.36,112.76 389.676,113.012 389.98,113.156 C390.404,113.38 390.812,113.492 391.204,113.492 Z M391.192,113.204 C391.04,113.204 390.896,113.176 390.76,113.12 C390.48,113 390.232,112.848 390.016,112.664 C389.712,112.408 389.436,112.112 389.188,111.776 C388.364,110.656 387.764,109.36 387.388,107.888 C387.188,107.12 387.064,106.468 387.016,105.932 C386.992,105.756 386.98,105.576 386.98,105.392 C386.98,105.2 387,104.976 387.04,104.72 C387.136,104.184 387.444,103.852 387.964,103.724 C388.26,103.644 388.584,103.612 388.936,103.628 C389.896,103.7 390.732,103.796 391.444,103.916 L392.848,104.156 L396.064,104.744 L396.196,104.792 C396.196,104.808 396.192,104.834 396.184,104.87 C396.176,104.906 396.168,104.936 396.16,104.96 L396.052,105.272 C395.652,106.448 395.368,107.256 395.2,107.696 C394.736,108.888 394.3,109.848 393.892,110.576 C393.444,111.376 393.004,112 392.572,112.448 C392.284,112.72 392.004,112.928 391.732,113.072 C391.54,113.16 391.36,113.204 391.192,113.204 Z M417.532,107.996 C417.572,107.996 417.604,107.992 417.628,107.984 C417.7,107.864 417.736,107.744 417.736,107.624 C417.736,107.464 417.684,107.3 417.58,107.132 C417.412,106.876 417.184,106.68 416.896,106.544 C416.544,106.376 416.084,106.272 415.516,106.232 C415.172,106.208 414.828,106.196 414.484,106.196 C413.932,106.196 413.244,106.232 412.42,106.304 C411.188,106.416 410.02,106.576 408.916,106.784 L408.136,106.94 C407.496,107.068 407.016,107.16 406.696,107.216 C406.144,107.32 405.692,107.368 405.34,107.36 C405.316,107.312 405.304,107.28 405.304,107.264 C405.32,107.168 405.336,107.104 405.352,107.072 C405.384,107.024 405.426,106.952 405.478,106.856 C405.53,106.76 405.584,106.68 405.64,106.616 C405.688,106.552 405.82,106.39 406.036,106.13 C406.252,105.87 406.464,105.632 406.672,105.416 C407.752,104.304 408.856,103.212 409.984,102.14 L412.24,100.016 L414.076,98.264 L416.08,96.404 C416.496,96.012 416.708,95.812 416.716,95.804 C417.468,95.1 418.212,94.38 418.948,93.644 L419.212,93.38 C419.524,93.068 419.838,92.742 420.154,92.402 C420.47,92.062 420.748,91.744 420.988,91.448 C421.396,90.968 421.68,90.536 421.84,90.152 C421.936,89.928 421.984,89.752 421.984,89.624 C421.984,89.184 421.8,88.836 421.432,88.58 C421.232,88.428 420.964,88.324 420.628,88.268 C420.196,88.188 419.68,88.148 419.08,88.148 C418.424,88.148 417.568,88.2 416.512,88.304 C415.856,88.368 415.202,88.448 414.55,88.544 C413.898,88.64 413.084,88.768 412.108,88.928 C411.596,89.008 411.212,89.064 410.956,89.096 L410.38,89.18 C410.316,89.188 410.236,89.208 410.14,89.24 C410.132,89.256 410.128,89.28 410.128,89.312 C410.128,89.36 410.16,89.392 410.224,89.408 C410.384,89.424 410.508,89.428 410.596,89.42 C411.164,89.372 411.724,89.312 412.276,89.24 L413.8,89.048 C414.136,89 414.64,88.936 415.312,88.856 C416.352,88.744 417.216,88.672 417.904,88.64 C418.336,88.616 418.768,88.604 419.2,88.604 L419.62,88.604 C419.82,88.604 420.112,88.628 420.496,88.676 C420.856,88.724 421.128,88.796 421.312,88.892 C421.424,88.948 421.504,89.004 421.552,89.06 C421.6,89.116 421.624,89.184 421.624,89.264 C421.624,89.344 421.608,89.428 421.576,89.516 C421.496,89.756 421.38,89.996 421.228,90.236 C420.988,90.596 420.696,90.968 420.352,91.352 C419.968,91.8 419.576,92.224 419.176,92.624 C418.776,93.024 418.232,93.556 417.544,94.22 L416.392,95.3 L415.792,95.864 L413.44,98.084 L412.48,98.984 C411.608,99.792 410.968,100.392 410.56,100.784 C410,101.312 409.584,101.712 409.312,101.984 L408.688,102.584 L406.732,104.492 C406.572,104.652 406.34,104.9 406.036,105.236 C405.724,105.572 405.444,105.892 405.196,106.196 C405.052,106.38 404.936,106.56 404.848,106.736 C404.792,106.848 404.764,106.964 404.764,107.084 C404.764,107.316 404.888,107.504 405.136,107.648 C405.232,107.702 405.32125,107.73575 405.40375,107.74925 L405.484,107.756 C405.58,107.764 405.724,107.768 405.916,107.768 C406.3,107.768 406.792,107.708 407.392,107.588 L408.112,107.456 C409.704,107.152 410.964,106.948 411.892,106.844 C413.1,106.7 414.208,106.628 415.216,106.628 C415.704,106.644 416.164,106.696 416.596,106.784 C416.7,106.808 416.856,106.868 417.064,106.964 C417.24,107.052 417.324,107.188 417.316,107.372 C417.316,107.508 417.312,107.608 417.304,107.672 C417.296,107.688 417.292,107.708 417.292,107.732 C417.292,107.78 417.308,107.824 417.34,107.864 C417.372,107.904 417.392,107.928 417.4,107.936 C417.432,107.976 417.476,107.996 417.532,107.996 Z" id="marinist_3"></path>
                </g>
            </g>
        </g>
    </g>
</svg>