<svg xmlns="http://www.w3.org/2000/svg" width="281" height="203" viewBox="0 0 281 203"><defs><clipPath id="2p23a"><path d="M.5 110.98h78.92V203H.5z"/></clipPath></defs><g><g><g><path fill="#0f0f0f" d="M69.5 1v14.124H47.705V89H32.81V15.124H11.5V1z"/></g><g><g><path fill="#0f0f0f" d="M188.427 1.56c-2.9 7.65-5.922 15.56-9.063 23.73-3.143 8.171-6.266 16.262-9.367 24.272a24570.19 24570.19 0 0 0-8.943 23.126c-2.861 7.409-5.42 14.17-7.675 20.288l-19.813-51.782s-19.284 50.422-19.82 51.82c0 0-35.346-91.429-35.346-91.454h15.856c0 .025 19.49 50.526 19.49 50.526l11.892-31.027S118.04 1.585 118.04 1.56h15.856l19.49 50.526 19.49-50.526z"/></g><g><path fill="#0f0f0f" d="M190.36 45.274c0-6.117 1.188-11.913 3.565-17.39 2.376-5.473 5.6-10.264 9.67-14.37 4.067-4.106 8.821-7.366 14.26-9.78 5.44-2.416 11.26-3.624 17.464-3.624 6.123 0 11.922 1.208 17.404 3.623 5.477 2.415 10.272 5.675 14.381 9.781 4.11 4.106 7.352 8.897 9.73 14.37 2.375 5.477 3.564 11.273 3.564 17.39 0 6.201-1.189 12.016-3.565 17.45-2.377 5.435-5.62 10.186-9.729 14.25-4.109 4.067-8.904 7.267-14.381 9.6-5.482 2.337-11.281 3.503-17.404 3.503-6.205 0-12.025-1.166-17.464-3.502-5.439-2.334-10.193-5.534-14.26-9.6-4.07-4.065-7.294-8.816-9.67-14.25-2.377-5.435-3.565-11.25-3.565-17.45m14.866 0c0 4.268.785 8.272 2.356 12.015 1.57 3.744 3.746 7.005 6.525 9.782 2.78 2.778 6 4.972 9.668 6.582 3.664 1.61 7.63 2.414 11.902 2.414 4.107 0 7.994-.803 11.66-2.414 3.665-1.61 6.846-3.804 9.546-6.582 2.698-2.777 4.834-6.038 6.404-9.782 1.572-3.743 2.356-7.747 2.356-12.016 0-4.266-.805-8.272-2.415-12.015-1.613-3.744-3.79-7.023-6.526-9.842-2.739-2.817-5.942-5.03-9.607-6.642-3.666-1.61-7.593-2.415-11.781-2.415-4.19 0-8.117.805-11.781 2.415-3.668 1.611-6.848 3.825-9.546 6.642-2.701 2.819-4.834 6.098-6.405 9.842-1.57 3.743-2.356 7.75-2.356 12.015"/></g><g><path fill="#0f0f0f" d="M205.29 203.005V114.97h58.495v13.404h-43.751v23.67h38.916v13.767h-38.916v23.427h45.443v13.767z"/></g><g><path fill="#0f0f0f" d="M154.708 168.702c1.771 2.82 21.699 34.296 21.699 34.296h-17.538s-16.77-25.8-19.751-30.31h-13.536v30.31h-14.745v-43.795h20.193l-28.91-44.363 33.613.124c4.834 0 9.247.645 13.234 1.932 3.989 1.289 7.373 3.14 10.151 5.554 2.782 2.416 4.936 5.395 6.467 8.937 1.53 3.544 2.296 7.528 2.296 11.955 0 2.416-.241 4.83-.724 7.246a31.052 31.052 0 0 1-2.297 7.004 25.252 25.252 0 0 1-4.109 6.22c-1.692 1.891-3.707 3.522-6.043 4.89m-2.294-20.1c.485-1.73.726-3.322.726-4.771 0-1.369-.223-2.918-.665-4.651-.444-1.731-1.251-3.362-2.417-4.893-1.17-1.529-2.762-2.817-4.776-3.865-2.016-1.046-4.594-1.57-7.737-1.57h-8.468l17.72 27.334c1.213-.814 2.248-1.727 3.08-2.751 1.208-1.49 2.054-3.1 2.537-4.833"/></g><g><g/><g clip-path="url(#2p23a)"><path fill="#0f0f0f" d="M39.9 110.98c.321.724 39.196 91.295 39.52 92.02H64.795c-.242-.563-8.542-20.448-9.67-23.187H24.915L15.124 203H.5c.322-.724 39.075-91.295 39.4-92.019zm-9.676 56.395h19.603l-9.84-22.856z"/></g></g></g></g></g></svg>