<svg xmlns="http://www.w3.org/2000/svg" width="793" height="239" viewBox="0 0 793 239"><g><g><g><path fill="#0f0f0f" d="M120 60.5v18.122H90.313V179.5H70.027V78.622H41V60.5z"/></g><g><g><path fill="#0f0f0f" d="M281.446 60.01a7217.18 7217.18 0 0 1-12.335 32.257 16507.229 16507.229 0 0 1-12.746 32.996c-4.222 10.891-8.28 21.37-12.172 31.437a1942.699 1942.699 0 0 0-10.443 27.58l-26.965-70.393s-26.243 68.544-26.973 70.445c0 0-48.102-124.288-48.102-124.322h21.579c0 .034 26.523 68.684 26.523 68.684l16.184-42.177s-10.34-26.473-10.34-26.507h21.578l26.524 68.684 26.523-68.684z"/></g><g><path fill="#0f0f0f" d="M284.08 120.095c0-8.315 1.617-16.195 4.852-23.638 3.233-7.442 7.62-13.954 13.159-19.535 5.536-5.582 12.006-10.015 19.407-13.297 7.402-3.284 15.322-4.925 23.767-4.925 8.332 0 16.226 1.641 23.685 4.925 7.453 3.282 13.98 7.715 19.572 13.297 5.59 5.581 10.004 12.093 13.24 19.535 3.233 7.443 4.851 15.323 4.851 23.638 0 8.43-1.618 16.335-4.85 23.721-3.237 7.388-7.65 13.846-13.241 19.372-5.593 5.527-12.119 9.878-19.572 13.05-7.46 3.175-15.353 4.76-23.685 4.76-8.445 0-16.365-1.585-23.767-4.76-7.401-3.172-13.871-7.523-19.407-13.05-5.538-5.526-9.926-11.984-13.159-19.372-3.235-7.386-4.852-15.291-4.852-23.72m20.232.004c0 5.803 1.07 11.247 3.208 16.337 2.137 5.09 5.098 9.523 8.88 13.3 3.784 3.775 8.167 6.758 13.159 8.947 4.987 2.191 10.385 3.283 16.2 3.283 5.59 0 10.88-1.092 15.87-3.283 4.988-2.189 9.317-5.172 12.992-8.948 3.673-3.776 6.58-8.21 8.718-13.299 2.139-5.09 3.207-10.534 3.207-16.337 0-5.8-1.097-11.246-3.289-16.336-2.195-5.09-5.157-9.548-8.882-13.38-3.728-3.831-8.088-6.84-13.075-9.032-4.99-2.188-10.335-3.282-16.035-3.282-5.703 0-11.047 1.094-16.036 3.282-4.991 2.192-9.32 5.2-12.992 9.032-3.677 3.832-6.58 8.29-8.717 13.38-2.138 5.09-3.208 10.536-3.208 16.336"/></g><g><path fill="#0f0f0f" d="M671.09 179.682V60.01h79.606v18.222h-59.541v32.175h52.962v18.715h-52.962v31.846h59.52v18.714z"/></g><g><path fill="#0f0f0f" d="M626.187 133.059c2.41 3.832 29.53 46.62 29.53 46.62H631.85s-22.823-35.073-26.879-41.203h-18.42v41.204h-20.067v-59.533h27.482L554.62 59.84l45.745.168c6.579 0 12.583.877 18.01 2.626 5.429 1.753 10.033 4.268 13.814 7.551 3.785 3.284 6.716 7.333 8.8 12.148 2.083 4.818 3.125 10.234 3.125 16.252 0 3.284-.328 6.566-.985 9.85a42.205 42.205 0 0 1-3.126 9.52 34.339 34.339 0 0 1-5.592 8.455c-2.302 2.573-5.045 4.789-8.224 6.649m-3.125-27.333c.658-2.352.988-4.514.988-6.485 0-1.859-.305-3.964-.906-6.32-.603-2.351-1.701-4.568-3.288-6.648-1.592-2.077-4.327-4.373-7.067-5.797-2.743-1.421-6.822-2.421-11.098-2.421l-10.797.242 24.526 37.734c1.649-1.107 3.058-2.346 4.19-3.738 1.643-2.024 2.794-4.212 3.452-6.567"/></g><g><path fill="#0f0f0f" d="M498.887 54.59c.439.984 53.343 124.105 53.783 125.09l-19.531-.066c-.33-.765-11.994-27.731-13.527-31.453h-41.118L465.17 179.68H445.27c.437-.985 53.178-124.106 53.617-125.09zm-13.166 76.662h26.663l-13.383-31.069z"/></g><g><path fill="none" stroke="#b3b3b3" stroke-miterlimit="50" stroke-width=".5" d="M0 60.095h1.98"/></g><g><path fill="none" stroke="#b3b3b3" stroke-dasharray="5 5" stroke-miterlimit="50" stroke-width=".5" d="M5.94 60.095h782.305"/></g><g><path fill="none" stroke="#b3b3b3" stroke-miterlimit="50" stroke-width=".5" d="M790.23 60.095h1.98"/></g><g><path fill="none" stroke="#b3b3b3" stroke-miterlimit="50" stroke-width=".5" d="M0 78.235h1.98"/></g><g><path fill="none" stroke="#b3b3b3" stroke-dasharray="5 5" stroke-miterlimit="50" stroke-width=".5" d="M5.94 78.235h782.305"/></g><g><path fill="none" stroke="#b3b3b3" stroke-miterlimit="50" stroke-width=".5" d="M790.23 78.235h1.98"/></g><g><path fill="none" stroke="#b3b3b3" stroke-miterlimit="50" stroke-width=".5" d="M0 120.005h1.98"/></g><g><path fill="none" stroke="#b3b3b3" stroke-dasharray="5 5" stroke-miterlimit="50" stroke-width=".5" d="M5.94 120.005h782.305"/></g><g><path fill="none" stroke="#b3b3b3" stroke-miterlimit="50" stroke-width=".5" d="M790.23 120.005h1.98"/></g><g><path fill="none" stroke="#b3b3b3" stroke-miterlimit="50" stroke-width=".5" d="M0 110.445h1.98"/></g><g><path fill="none" stroke="#b3b3b3" stroke-dasharray="5 5" stroke-miterlimit="50" stroke-width=".5" d="M5.94 110.445h782.305"/></g><g><path fill="none" stroke="#b3b3b3" stroke-miterlimit="50" stroke-width=".5" d="M790.23 110.445h1.98"/></g><g><path fill="none" stroke="#b3b3b3" stroke-miterlimit="50" stroke-width=".5" d="M0 129.115h1.98"/></g><g><path fill="none" stroke="#b3b3b3" stroke-dasharray="5 5" stroke-miterlimit="50" stroke-width=".5" d="M5.94 129.115h782.305"/></g><g><path fill="none" stroke="#b3b3b3" stroke-miterlimit="50" stroke-width=".5" d="M790.23 129.115h1.98"/></g><g><path fill="none" stroke="#b3b3b3" stroke-miterlimit="50" stroke-width=".5" d="M0 131.215h1.98"/></g><g><path fill="none" stroke="#b3b3b3" stroke-dasharray="5 5" stroke-miterlimit="50" stroke-width=".5" d="M5.94 131.215h782.305"/></g><g><path fill="none" stroke="#b3b3b3" stroke-miterlimit="50" stroke-width=".5" d="M790.23 131.215h1.98"/></g><g><path fill="none" stroke="#b3b3b3" stroke-miterlimit="50" stroke-width=".5" d="M0 148.135h1.98"/></g><g><path fill="none" stroke="#b3b3b3" stroke-dasharray="5 5" stroke-miterlimit="50" stroke-width=".5" d="M5.94 148.135h782.305"/></g><g><path fill="none" stroke="#b3b3b3" stroke-miterlimit="50" stroke-width=".5" d="M790.23 148.135h1.98"/></g><g><path fill="none" stroke="#b3b3b3" stroke-miterlimit="50" stroke-width=".5" d="M0 161.055h1.98"/></g><g><path fill="none" stroke="#b3b3b3" stroke-dasharray="5 5" stroke-miterlimit="50" stroke-width=".5" d="M5.94 161.055h782.305"/></g><g><path fill="none" stroke="#b3b3b3" stroke-miterlimit="50" stroke-width=".5" d="M790.23 161.055h1.98"/></g><g><path fill="none" stroke="#b3b3b3" stroke-miterlimit="50" stroke-width=".5" d="M.4 179.485h1.98"/></g><g><path fill="none" stroke="#b3b3b3" stroke-dasharray="5 5" stroke-miterlimit="50" stroke-width=".5" d="M6.34 179.485h782.305"/></g><g><path fill="none" stroke="#b3b3b3" stroke-miterlimit="50" stroke-width=".5" d="M790.62 179.485h1.98"/></g><g><path fill="none" stroke="#b3b3b3" stroke-miterlimit="50" stroke-width=".5" d="M68.956 238.397v-1.977"/></g><g><path fill="none" stroke="#b3b3b3" stroke-dasharray="5.008 5.008" stroke-miterlimit="50" stroke-width=".5" d="M68.956 232.46V4.75"/></g><g><path fill="none" stroke="#b3b3b3" stroke-miterlimit="50" stroke-width=".5" d="M68.956 2.767V.79"/></g><g><path fill="none" stroke="#b3b3b3" stroke-miterlimit="50" stroke-width=".5" d="M40.006 238.397v-1.977"/></g><g><path fill="none" stroke="#b3b3b3" stroke-dasharray="5.008 5.008" stroke-miterlimit="50" stroke-width=".5" d="M40.006 232.46V4.75"/></g><g><path fill="none" stroke="#b3b3b3" stroke-miterlimit="50" stroke-width=".5" d="M40.006 2.767V.79"/></g><g><path fill="none" stroke="#b3b3b3" stroke-miterlimit="50" stroke-width=".5" d="M118.786 238.397v-1.977"/></g><g><path fill="none" stroke="#b3b3b3" stroke-dasharray="5.008 5.008" stroke-miterlimit="50" stroke-width=".5" d="M118.786 232.46V4.75"/></g><g><path fill="none" stroke="#b3b3b3" stroke-miterlimit="50" stroke-width=".5" d="M118.786 2.767V.79"/></g><g><path fill="none" stroke="#b3b3b3" stroke-miterlimit="50" stroke-width=".5" d="M284.086 238.397v-1.977"/></g><g><path fill="none" stroke="#b3b3b3" stroke-dasharray="5.008 5.008" stroke-miterlimit="50" stroke-width=".5" d="M284.086 232.46V4.75"/></g><g><path fill="none" stroke="#b3b3b3" stroke-miterlimit="50" stroke-width=".5" d="M284.086 2.767V.79"/></g><g><path fill="none" stroke="#b3b3b3" stroke-miterlimit="50" stroke-width=".5" d="M406.616 238.397v-1.977"/></g><g><path fill="none" stroke="#b3b3b3" stroke-dasharray="5.008 5.008" stroke-miterlimit="50" stroke-width=".5" d="M406.616 232.46V4.75"/></g><g><path fill="none" stroke="#b3b3b3" stroke-miterlimit="50" stroke-width=".5" d="M406.616 2.767V.79"/></g><g><path fill="none" stroke="#b3b3b3" stroke-miterlimit="50" stroke-width=".5" d="M89.236 238.397v-1.977"/></g><g><path fill="none" stroke="#b3b3b3" stroke-dasharray="5.008 5.008" stroke-miterlimit="50" stroke-width=".5" d="M89.236 232.46V4.75"/></g><g><path fill="none" stroke="#b3b3b3" stroke-miterlimit="50" stroke-width=".5" d="M89.236 2.767V.79"/></g><g><path fill="none" stroke="#b3b3b3" stroke-miterlimit="50" stroke-width=".5" d="M566.456 238.397v-1.977"/></g><g><path fill="none" stroke="#b3b3b3" stroke-dasharray="5.008 5.008" stroke-miterlimit="50" stroke-width=".5" d="M566.456 232.46V4.75"/></g><g><path fill="none" stroke="#b3b3b3" stroke-miterlimit="50" stroke-width=".5" d="M566.456 2.767V.79"/></g><g><path fill="none" stroke="#b3b3b3" stroke-miterlimit="50" stroke-width=".5" d="M586.546 238.397v-1.977"/></g><g><path fill="none" stroke="#b3b3b3" stroke-dasharray="5.008 5.008" stroke-miterlimit="50" stroke-width=".5" d="M586.546 232.46V4.75"/></g><g><path fill="none" stroke="#b3b3b3" stroke-miterlimit="50" stroke-width=".5" d="M586.546 2.767V.79"/></g><g><path fill="none" stroke="#b3b3b3" stroke-miterlimit="50" stroke-width=".5" d="M693.758 238.394l-1.068-1.664"/></g><g><path fill="none" stroke="#b3b3b3" stroke-dasharray="4.946 4.946" stroke-miterlimit="50" stroke-width=".5" d="M690.581 233.439L543.76 4.5"/></g><g><path fill="none" stroke="#b3b3b3" stroke-miterlimit="50" stroke-width=".5" d="M542.708 2.844L541.64 1.18"/></g><g><path fill="none" stroke="#b3b3b3" stroke-miterlimit="50" stroke-width=".5" d="M669.418 238.394l-1.068-1.664"/></g><g><path fill="none" stroke="#b3b3b3" stroke-dasharray="4.946 4.946" stroke-miterlimit="50" stroke-width=".5" d="M666.241 233.439L519.42 4.5"/></g><g><path fill="none" stroke="#b3b3b3" stroke-miterlimit="50" stroke-width=".5" d="M518.368 2.844L517.3 1.18"/></g><g><path fill="none" stroke="#b3b3b3" stroke-miterlimit="50" stroke-width=".5" d="M671.086 238.397v-1.977"/></g><g><path fill="none" stroke="#b3b3b3" stroke-dasharray="5.008 5.008" stroke-miterlimit="50" stroke-width=".5" d="M671.086 232.46V4.75"/></g><g><path fill="none" stroke="#b3b3b3" stroke-miterlimit="50" stroke-width=".5" d="M671.086 2.767V.79"/></g><g><path fill="none" stroke="#b3b3b3" stroke-miterlimit="50" stroke-width=".5" d="M691.176 238.397v-1.977"/></g><g><path fill="none" stroke="#b3b3b3" stroke-dasharray="5.008 5.008" stroke-miterlimit="50" stroke-width=".5" d="M691.176 232.46V4.75"/></g><g><path fill="none" stroke="#b3b3b3" stroke-miterlimit="50" stroke-width=".5" d="M691.176 2.767V.79"/></g><g><path fill="none" stroke="#b3b3b3" stroke-miterlimit="50" stroke-width=".5" d="M743.996 238.397v-1.977"/></g><g><path fill="none" stroke="#b3b3b3" stroke-dasharray="5.008 5.008" stroke-miterlimit="50" stroke-width=".5" d="M743.996 232.46V4.75"/></g><g><path fill="none" stroke="#b3b3b3" stroke-miterlimit="50" stroke-width=".5" d="M743.996 2.767V.79"/></g><g><path fill="none" stroke="#b3b3b3" stroke-miterlimit="50" stroke-width=".5" d="M750.666 238.397v-1.977"/></g><g><path fill="none" stroke="#b3b3b3" stroke-dasharray="5.008 5.008" stroke-miterlimit="50" stroke-width=".5" d="M750.666 232.46V4.75"/></g><g><path fill="none" stroke="#b3b3b3" stroke-miterlimit="50" stroke-width=".5" d="M750.666 2.767V.79"/></g><g><path fill="none" stroke="#b3b3b3" stroke-miterlimit="50" stroke-width=".5" d="M578.026 238.393s-.27-.625-.78-1.813"/></g><g><path fill="none" stroke="#b3b3b3" stroke-dasharray="4.947 4.947" stroke-miterlimit="50" stroke-width=".5" d="M575.703 232.993C561.72 200.509 489.05 31.7 477.46 4.8"/></g><g><path fill="none" stroke="#b3b3b3" stroke-miterlimit="50" stroke-width=".5" d="M476.687 2.992a814.963 814.963 0 0 0-.782-1.812"/></g><g><path fill="none" stroke="#b3b3b3" stroke-miterlimit="50" stroke-width=".5" d="M558.436 238.393s-.27-.625-.78-1.813"/></g><g><path fill="none" stroke="#b3b3b3" stroke-dasharray="4.947 4.947" stroke-miterlimit="50" stroke-width=".5" d="M556.114 232.993C542.131 200.509 469.46 31.7 457.87 4.8"/></g><g><path fill="none" stroke="#b3b3b3" stroke-miterlimit="50" stroke-width=".5" d="M457.097 2.992c-.492-1.14-.76-1.764-.782-1.812"/></g><g><path fill="none" stroke="#b3b3b3" stroke-miterlimit="50" stroke-width=".5" d="M276.343 238.394l-.714-1.844"/></g><g><path fill="none" stroke="#b3b3b3" stroke-dasharray="5.026 5.026" stroke-miterlimit="50" stroke-width=".5" d="M274.189 232.842L185.94 4.88"/></g><g><path fill="none" stroke="#b3b3b3" stroke-miterlimit="50" stroke-width=".5" d="M185.223 3.024l-.713-1.844"/></g><g><path fill="none" stroke="#b3b3b3" stroke-miterlimit="50" stroke-width=".5" d="M254.743 238.394l-.714-1.844"/></g><g><path fill="none" stroke="#b3b3b3" stroke-dasharray="5.026 5.026" stroke-miterlimit="50" stroke-width=".5" d="M252.589 232.842L164.34 4.88"/></g><g><path fill="none" stroke="#b3b3b3" stroke-miterlimit="50" stroke-width=".5" d="M163.622 3.024l-.712-1.844"/></g><g><path fill="none" stroke="#b3b3b3" stroke-miterlimit="50" stroke-width=".5" d="M222.373 238.394l-.714-1.844"/></g><g><path fill="none" stroke="#b3b3b3" stroke-dasharray="5.026 5.026" stroke-miterlimit="50" stroke-width=".5" d="M220.219 232.842L131.97 4.88"/></g><g><path fill="none" stroke="#b3b3b3" stroke-miterlimit="50" stroke-width=".5" d="M131.253 3.024l-.714-1.844"/></g><g><path fill="none" stroke="#b3b3b3" stroke-miterlimit="50" stroke-width=".5" d="M200.773 238.394l-.714-1.844"/></g><g><path fill="none" stroke="#b3b3b3" stroke-dasharray="5.026 5.026" stroke-miterlimit="50" stroke-width=".5" d="M198.619 232.842L110.37 4.88"/></g><g><path fill="none" stroke="#b3b3b3" stroke-miterlimit="50" stroke-width=".5" d="M109.653 3.024l-.714-1.844"/></g><g><path fill="none" stroke="#b3b3b3" stroke-miterlimit="50" stroke-width=".5" d="M229.153 1.18l-.714 1.844"/></g><g><path fill="none" stroke="#b3b3b3" stroke-dasharray="5.026 5.026" stroke-miterlimit="50" stroke-width=".5" d="M226.999 6.73L138.75 234.691"/></g><g><path fill="none" stroke="#b3b3b3" stroke-miterlimit="50" stroke-width=".5" d="M138.033 236.55l-.714 1.844"/></g><g><path fill="none" stroke="#b3b3b3" stroke-miterlimit="50" stroke-width=".5" d="M250.473 1.18l-.713 1.844"/></g><g><path fill="none" stroke="#b3b3b3" stroke-dasharray="5.026 5.026" stroke-miterlimit="50" stroke-width=".5" d="M248.319 6.73L160.07 234.691"/></g><g><path fill="none" stroke="#b3b3b3" stroke-miterlimit="50" stroke-width=".5" d="M159.353 236.55l-.714 1.844"/></g><g><path fill="none" stroke="#b3b3b3" stroke-miterlimit="50" stroke-width=".5" d="M282.993 1.18l-.714 1.844"/></g><g><path fill="none" stroke="#b3b3b3" stroke-dasharray="5.026 5.026" stroke-miterlimit="50" stroke-width=".5" d="M280.849 6.73L192.6 234.691"/></g><g><path fill="none" stroke="#b3b3b3" stroke-miterlimit="50" stroke-width=".5" d="M191.883 236.55l-.714 1.844"/></g><g><path fill="none" stroke="#b3b3b3" stroke-miterlimit="50" stroke-width=".5" d="M304.313 1.18l-.713 1.844"/></g><g><path fill="none" stroke="#b3b3b3" stroke-dasharray="5.026 5.026" stroke-miterlimit="50" stroke-width=".5" d="M302.169 6.73L213.92 234.691"/></g><g><path fill="none" stroke="#b3b3b3" stroke-miterlimit="50" stroke-width=".5" d="M213.203 236.55l-.714 1.844"/></g><g><path fill="none" stroke="#b3b3b3" stroke-miterlimit="50" stroke-width=".5" d="M522.047 1.18l-.782 1.812"/></g><g><path fill="none" stroke="#b3b3b3" stroke-dasharray="4.947 4.947" stroke-miterlimit="50" stroke-width=".5" d="M519.713 6.59c-13.996 32.49-86.667 201.304-98.243 228.194"/></g><g><path fill="none" stroke="#b3b3b3" stroke-miterlimit="50" stroke-width=".5" d="M420.696 236.58l-.78 1.813"/></g><g><path fill="none" stroke="#b3b3b3" stroke-miterlimit="50" stroke-width=".5" d="M541.637 1.18l-.782 1.812"/></g><g><path fill="none" stroke="#b3b3b3" stroke-dasharray="4.947 4.947" stroke-miterlimit="50" stroke-width=".5" d="M539.303 6.59c-13.996 32.49-86.666 201.304-98.243 228.194"/></g><g><path fill="none" stroke="#b3b3b3" stroke-miterlimit="50" stroke-width=".5" d="M440.286 236.58l-.78 1.813"/></g><g><path fill="none" stroke="#b3b3b3" stroke-dasharray="4.999 4.999" stroke-miterlimit="50" stroke-width=".5" d="M386.55 120.013c0 23.163-18.445 41.941-41.2 41.941-22.753 0-41.2-18.778-41.2-41.941 0-23.165 18.447-41.943 41.2-41.943 22.755 0 41.2 18.778 41.2 41.943z"/></g><g><path fill="none" stroke="#b3b3b3" stroke-dasharray="5.135 5.135" stroke-miterlimit="50" stroke-width=".5" d="M624.047 99.118c0 11.536-9.187 20.888-20.518 20.888-11.333 0-20.519-9.352-20.519-20.888 0-11.536 9.186-20.888 20.519-20.888 11.33 0 20.518 9.352 20.518 20.888z"/></g><g><path fill="none" stroke="#b3b3b3" stroke-dasharray="4.962 4.962" stroke-miterlimit="50" stroke-width=".5" d="M406.613 120.012c0 33.818-27.43 61.233-61.266 61.233-33.837 0-61.267-27.415-61.267-61.233s27.43-61.232 61.267-61.232c33.836 0 61.266 27.414 61.266 61.232z"/></g></g></g></g></svg>