<svg xmlns="http://www.w3.org/2000/svg" viewBox="0 0 517.87 383.08">
<defs>
    <style>
      .cls-3 {
        fill: #ba2a5d;
      }
    </style>
  </defs>
  <title>Ресурс 3</title>
  <g class="cls-1">
      <path class="cls-3" d="M338.1,154.38c-5.05-.78-10.76.55-13.87,4.61-3.89,5-2.67,12.46-5.61,18.11a13.59,13.59,0,0,1-8,6.64c-2.19.66-5.2,1.54-5,3.82a3.77,3.77,0,0,0,1.53,2.39c5.52,4.8,14.07,4.94,20.64,1.71s11.37-9.25,14.79-15.72c1.13-2.15,2.19-4.42,4-6a37.52,37.52,0,0,1,4.84-2.93C361.91,160.45,342.83,155.12,338.1,154.38Z"/>
  </g>
</svg>
