<svg xmlns="http://www.w3.org/2000/svg" width="62" height="67" viewBox="0 0 62 67"><g><g><g><path fill="#fff" d="M34.543 42.35h-1.328c-.664 0-1.107.446-1.107 1.115v17.832c0 1.895-1.439 3.343-3.32 3.343-1.882 0-3.32-1.448-3.32-3.343h2.213c.664 0 1.107-.446 1.107-1.115 0-.668-.443-1.114-1.107-1.114h-2.214v-2.229h2.214c.664 0 1.107-.446 1.107-1.114 0-.67-.443-1.115-1.107-1.115h-2.214V43.465c0-.669-.443-1.114-1.107-1.114h-1.328l-.664-3.344h12.84zm18.585-26.747H5.544c-.664 0-1.107-.446-1.107-1.115v-1.114h11.066c.664 0 1.107-.446 1.107-1.115 0-.668-.443-1.114-1.107-1.114H4.437V6.687H26.57c.664 0 1.106-.446 1.106-1.115 0-.668-.442-1.114-1.106-1.114H4.437V3.343c0-.557.554-1.114 1.107-1.114h47.584c.664 0 1.107.446 1.107 1.114v1.115h-7.747c-.664 0-1.106.446-1.106 1.114 0 .669.442 1.115 1.106 1.115h7.747v4.458H35.422c-.664 0-1.106.445-1.106 1.114s.442 1.115 1.106 1.115h18.813v1.114c0 .669-.443 1.115-1.107 1.115zm3.33-7.706V3.343C56.459 1.45 55.02 0 53.139 0H5.544c-1.882 0-3.32 1.449-3.32 3.343v4.458H1.117C.453 7.801.01 8.247.01 8.916s.443 1.114 1.107 1.114h1.107v4.458c0 1.895 1.438 3.344 3.32 3.344h47.594c1.882 0 3.32-1.449 3.32-3.344v-4.315a4.47 4.47 0 0 1 3.32 4.315v4.458c0 2.118-1.549 4.013-3.541 4.458-.886.223-14.942 1.45-24.129 2.23-2.435 0-4.427 2.005-4.427 4.457v6.687H21.04c-.332 0-.664.223-.886.446-.221.223-.332.557-.221.892l1.107 5.572c.11.557.553.892 1.106.892h1.107v16.717c0 3.12 2.435 5.573 5.534 5.573 3.1 0 5.535-2.452 5.535-5.573V44.58h1.106c.554 0 .996-.335 1.107-.892l1.107-5.572a.871.871 0 0 0-.221-.892c-.222-.334-.554-.446-.886-.446h-6.641v-6.687c0-1.226.996-2.229 2.324-2.229 3.874-.334 23.465-2.006 24.461-2.229 3.1-.669 5.313-3.455 5.313-6.687v-4.458c0-3.298-2.403-6.056-5.533-6.591z"/></g></g></g></svg>