<svg xmlns="http://www.w3.org/2000/svg" width="54" height="54" viewBox="0 0 54 54"><g><g><g><path fill="#d9255e" d="M4.5 21.6a2.703 2.703 0 0 1 2.7-2.7h9.9v-1.8H7.2a4.505 4.505 0 0 0-4.5 4.5V27h1.8z"/></g><g><path fill="#d9255e" d="M24.3 11.25a1.35 1.35 0 1 1 2.7 0 1.35 1.35 0 0 1-2.7 0zm-1.8 0a3.15 3.15 0 1 0 6.3 0 3.15 3.15 0 0 0-6.3 0z"/></g><g><path fill="#d9255e" d="M52.2 6.824a7.887 7.887 0 0 1-9.814.851l-.487-.324a.9.9 0 0 0-1.135.113l-4.934 4.933a1.328 1.328 0 1 1-1.877-1.877l4.483-4.483 1.8-1.8-1.272-1.273L37.427 4.5H30.39l.57-.952A3.618 3.618 0 0 1 34.049 1.8H52.2zm-5.4 13.994l-4-2.667a.9.9 0 0 0-.903-.056l-4.932 2.466-7.666-5.11a.9.9 0 0 0-.962-.022L20.7 20.01V7.2c0-.497.403-.9.9-.9h14.027L32.68 9.247a3.127 3.127 0 0 0 4.422 4.423l4.414-4.413A9.655 9.655 0 0 0 46.76 10.8l.04-.001zm0 2.588c0 .497-.403.9-.9.9H33.3a.9.9 0 0 0-.576.21L28.8 27.787v-2.58a.9.9 0 0 0-.9-.901h-6.3a.901.901 0 0 1-.9-.901v-1.292l8.075-4.85 7.626 5.09a.9.9 0 0 0 .902.056l4.932-2.469 4.565 3.046zM34.048 0c-1.896.005-3.65 1-4.63 2.622L28.29 4.5H21.6a2.703 2.703 0 0 0-2.7 2.7v16.2a2.703 2.703 0 0 0 2.7 2.7H27v3.6a.9.9 0 0 0 1.476.691l5.15-4.291H45.9a2.703 2.703 0 0 0 2.7-2.7V10.625a9.617 9.617 0 0 0 5.01-2.662l.126-.127A.9.9 0 0 0 54 7.2V.9a.9.9 0 0 0-.9-.9z"/></g><g><path fill="#d9255e" d="M52.2 42.3c0 .497-.403.9-.9.9H35.1a.901.901 0 0 1-.9-.9v-1.8a.9.9 0 0 0-.9-.9h-1.427l2.063-2.064a.9.9 0 0 0 .264-.636v-5.4c0-.497.403-.9.9-.9h16.2c.497 0 .9.403.9.9zM35.1 28.8a2.703 2.703 0 0 0-2.7 2.7v5.027l-3.336 3.337A.9.9 0 0 0 29.7 41.4h2.7v.9a2.703 2.703 0 0 0 2.7 2.7h16.2a2.703 2.703 0 0 0 2.7-2.7V31.5a2.703 2.703 0 0 0-2.7-2.7z"/></g><g><path fill="#d9255e" d="M36 32.4h9v1.8h-9z"/></g><g><path fill="#d9255e" d="M46.8 32.4h3.6v1.8h-3.6z"/></g><g><path fill="#d9255e" d="M36 39.6h14.4v1.8H36z"/></g><g><path fill="#d9255e" d="M36 36h14.4v1.8H36z"/></g><g><path fill="#d9255e" d="M6.3 20.7h1.8v1.8H6.3z"/></g><g><path fill="#d9255e" d="M9.9 20.7h1.8v1.8H9.9z"/></g><g><path fill="#d9255e" d="M13.5 20.7h1.8v1.8h-1.8z"/></g><g><path fill="#d9255e" d="M6.3 24.3h10.8v1.8H6.3z"/></g><g><path fill="#d9255e" d="M1.8 31.5c0-.497.403-.9.9-.9h16.2c.497 0 .9.403.9.9v2.7a.9.9 0 0 0 .264.636l2.063 2.064H20.7a.9.9 0 0 0-.9.9v4.5c0 .497-.403.9-.9.9H2.7a.901.901 0 0 1-.9-.9zM18.9 45a2.703 2.703 0 0 0 2.7-2.7v-3.6h2.7a.9.9 0 0 0 .636-1.536L21.6 33.827V31.5a2.703 2.703 0 0 0-2.7-2.7H2.7A2.703 2.703 0 0 0 0 31.5v10.8A2.703 2.703 0 0 0 2.7 45z"/></g><g><path fill="#d9255e" d="M3.6 32.4h1.8v1.8H3.6z"/></g><g><path fill="#d9255e" d="M3.6 36h1.8v1.8H3.6z"/></g><g><path fill="#d9255e" d="M3.6 39.6h1.8v1.8H3.6z"/></g><g><path fill="#d9255e" d="M7.2 32.4H18v1.8H7.2z"/></g><g><path fill="#d9255e" d="M7.2 36H18v1.8H7.2z"/></g><g><path fill="#d9255e" d="M7.2 39.6H18v1.8H7.2z"/></g><g><path fill="#d9255e" d="M45 50.4a1.802 1.802 0 0 1-1.8 1.8H3.6a1.802 1.802 0 0 1-1.8-1.8v-1.8h14.927a2.158 2.158 0 0 1 1.537.636 3.946 3.946 0 0 0 2.809 1.164h4.654a3.946 3.946 0 0 0 2.81-1.164c.406-.408.96-.638 1.536-.636H45zm.9-3.6H30.073a3.947 3.947 0 0 0-2.81 1.164c-.406.408-.96.638-1.536.636h-4.654a2.158 2.158 0 0 1-1.537-.636 3.947 3.947 0 0 0-2.809-1.164H.9a.9.9 0 0 0-.9.9v2.7A3.604 3.604 0 0 0 3.6 54h39.6a3.604 3.604 0 0 0 3.6-3.6v-2.7a.9.9 0 0 0-.9-.9z"/></g></g></g></svg>