<svg xmlns="http://www.w3.org/2000/svg" width="54" height="54" viewBox="0 0 54 54"><g><g><g><path fill="#d9255e" d="M33.325 36.49a1.055 1.055 0 1 0 0 2.11 1.055 1.055 0 0 0 0-2.11z"/></g><g><path fill="#d9255e" d="M48.727 40.71H5.273a3.168 3.168 0 0 1-3.164-3.163v-3.164h49.782v3.164a3.168 3.168 0 0 1-3.164 3.164zm-18.573 6.962h-6.318V42.82h6.318zm6.157 4.219H17.687c.155-.44.408-.843.748-1.183a3.144 3.144 0 0 1 2.237-.927h12.656c1.375 0 2.548.882 2.983 2.11zM9.722 15.408l2.517-5.034 2.518 5.034zM9.07 32.263V17.508h2.11v14.755zm4.22 0V17.508h2.108v14.755zm11.654-2.099h4.105c.022.693.038 1.398.045 2.11h-4.198a93.75 93.75 0 0 1 .048-2.11zm2.226-10.62c-2.407 0-3.959-2.623-2.739-4.743l2.74-4.749 2.737 4.75c1.215 2.11-.316 4.742-2.738 4.742zm.005 2.11a5.28 5.28 0 0 0 1.138-.127c.196 1.255.483 3.474.653 6.528h-3.925c.178-3.051.48-5.306.687-6.603a5.28 5.28 0 0 0 1.447.202zm11.427 10.62V9.07h6.328v2.11h-1.055a1.055 1.055 0 1 0 0 2.11h1.055v3.163h-1.055a1.055 1.055 0 1 0 0 2.11h1.055v3.164h-1.055a1.055 1.055 0 1 0 0 2.109h1.055v4.219h-1.055a1.055 1.055 0 1 0 0 2.11h1.055v2.108zM5.273 2.108h43.454a3.168 3.168 0 0 1 3.164 3.164v27h-4.852V8.016c0-.583-.472-1.055-1.055-1.055h-8.437c-.583 0-1.055.472-1.055 1.055v24.257h-5.279a96.937 96.937 0 0 0-.085-3.209c-.184-4.295-.605-7.173-.824-8.438a5.274 5.274 0 0 0 1.44-6.88l-3.656-6.33a1.055 1.055 0 0 0-1.826 0l-3.657 6.331c-1.255 2.175-.81 4.993 1.16 6.656-.228 1.262-.689 4.242-.889 8.659a94.087 94.087 0 0 0-.089 3.211h-5.28v-15.82c0-.167-.039-.32-.103-.455l-.007-.017-4.22-8.437a1.055 1.055 0 0 0-1.886 0L7.072 15.98l-.006.017a1.048 1.048 0 0 0-.105.455v15.82H2.109v-27A3.168 3.168 0 0 1 5.273 2.11zM48.727 0H5.273A5.28 5.28 0 0 0 0 5.273v32.274a5.28 5.28 0 0 0 5.273 5.273h16.454v4.852h-1.055a5.24 5.24 0 0 0-3.729 1.545 5.24 5.24 0 0 0-1.545 3.728c0 .583.473 1.055 1.055 1.055h21.094c.582 0 1.055-.472 1.055-1.055a5.28 5.28 0 0 0-5.274-5.273h-1.055V42.82h16.454A5.28 5.28 0 0 0 54 37.547V5.273A5.28 5.28 0 0 0 48.727 0z"/></g><g><path fill="#d9255e" d="M29.113 36.49h-6.328a1.055 1.055 0 1 0 0 2.11h6.328a1.055 1.055 0 1 0 0-2.11z"/></g></g></g></svg>