<svg xmlns="http://www.w3.org/2000/svg" width="64" height="54" viewBox="0 0 64 54"><g><g><g><path fill="#d9255e" d="M19.936 25.954l-2.645 2.32v-4.642zm1.41-1.239l-2.518-2.196h5.036zm2.518 4.673h-5.036l2.518-2.206zm1.538-1.113l-2.645-2.322 2.645-2.32zm-9.037 2.962h9.963c.51 0 .925-.414.925-.925v-8.717a.925.925 0 0 0-.925-.925h-9.963a.925.925 0 0 0-.925.925v8.717c0 .511.414.925.925.925z"/></g><g><path fill="#d9255e" d="M23.836 40.35h-4.981a.925.925 0 1 0 0 1.85h4.981a.925.925 0 1 0 0-1.85z"/></g><g><path fill="#d9255e" d="M47.167 25.954l2.645-2.322v4.643zm-1.41 1.228l2.517 2.206h-5.036zm-2.519-4.663h5.036l-2.518 2.196zm-1.537 1.113l2.645 2.322-2.645 2.32zm9.037-2.962h-9.963a.925.925 0 0 0-.925.925v8.717c0 .511.414.925.925.925h9.963c.51 0 .925-.414.925-.925v-8.717a.925.925 0 0 0-.925-.925z"/></g><g><path fill="#d9255e" d="M50.738 33.13h-9.963a.925.925 0 1 0 0 1.85h9.963a.925.925 0 1 0 0-1.85z"/></g><g><path fill="#d9255e" d="M50.738 36.74h-9.963a.925.925 0 1 0 0 1.85h9.963a.925.925 0 1 0 0-1.85z"/></g><g><path fill="#d9255e" d="M45.756 40.35h-4.981a.925.925 0 1 0 0 1.85h4.981a.925.925 0 1 0 0-1.85z"/></g><g><path fill="#d9255e" d="M37.97 44.34V18.79h15.586v25.55zm15.586-30.53v3.132H37.969v-3.133zM25.409 36.867h-8.113v-1.887h8.113zm3.737 7.473H13.559V18.79h15.587v16.084h-1.887v-.819a.925.925 0 0 0-.925-.924h-9.963a.925.925 0 0 0-.925.924v3.737c0 .51.414.924.925.924h9.963c.51 0 .925-.414.925-.924v-1.068h1.887zm0-30.532v3.133H13.559v-3.133zm7.904-1.849a.925.925 0 0 0-.924.925v12.152h-1.318c-1.197 0-2.17.973-2.17 2.17v7.348c0 .177-.144.32-.321.32h-1.318v-21.99a.925.925 0 0 0-.925-.925h-17.44a.925.925 0 0 0-.924.925v32.38c0 .511.414.925.925.925h17.44c.51 0 .924-.414.924-.925v-8.54h1.318c1.197 0 2.17-.973 2.17-2.17v-7.348c0-.177.144-.32.321-.32h1.318v18.378c0 .511.414.925.925.925h17.44c.51 0 .924-.414.924-.925v-32.38a.925.925 0 0 0-.925-.925z"/></g><g><path fill="#d9255e" d="M1.85 7.152A5.311 5.311 0 0 1 6.226 1.93v37.733a7.144 7.144 0 0 0-4.378 2.298zm5.302 44.906a5.308 5.308 0 0 1-5.303-5.302 5.308 5.308 0 0 1 5.303-5.303c.51 0 .924-.414.924-.924V8.824h9.743a.925.925 0 1 0 0-1.85H8.076V.924A.925.925 0 0 0 7.152 0 7.16 7.16 0 0 0 0 7.152v39.603a7.16 7.16 0 0 0 7.152 7.152h45.184a.925.925 0 1 0 0-1.849z"/></g><g><path fill="#d9255e" d="M62.203 6.97H22.135a.925.925 0 1 0 0 1.85h39.143v43.234h-4.633a.925.925 0 1 0 0 1.849h5.558c.51 0 .925-.414.925-.925V7.895a.925.925 0 0 0-.925-.925z"/></g></g></g></svg>