<?xml version="1.0" encoding="UTF-8"?>
<svg width="350px" height="194px" viewBox="0 0 350 194" version="1.1" xmlns="http://www.w3.org/2000/svg" xmlns:xlink="http://www.w3.org/1999/xlink">
    <!-- Generator: Sketch 63.1 (92452) - https://sketch.com -->
    <title>Group</title>
    <desc>Created with Sketch.</desc>
    <defs>
        <rect id="path-1" x="0" y="0.663090619" width="350" height="193.175074"></rect>
        <polygon id="path-3" points="0.0409320998 0.338998022 207.424943 0.338998022 207.424943 45.6973294 0.0409320998 45.6973294"></polygon>
        <polygon id="path-5" points="0 0.562346303 55.0338073 0.562346303 55.0338073 108.011869 0 108.011869"></polygon>
    </defs>
    <g id="Кейс" stroke="none" stroke-width="1" fill="none" fill-rule="evenodd">
        <g id="Портфолио-Balkany-XL" transform="translate(-925.000000, -1681.000000)">
            <g id="Group-32" transform="translate(165.000000, 1653.000000)">
                <g id="Group" transform="translate(760.000000, 27.000000)">
                    <g id="Group-194" transform="translate(0.000000, 0.375485)">
                        <mask id="mask-2" fill="white">
                            <use xlink:href="#path-1"></use>
                        </mask>
                        <g id="Mask"></g>
                        <g mask="url(#mask-2)" stroke="#D4D4D4" stroke-width="0.519287834">
                            <g transform="translate(-92.433234, -201.483680)">
                                <line x1="535.905045" y1="201.627482" x2="2.07715134" y2="201.627482" id="Stroke-33"></line>
                                <line x1="535.905045" y1="214.09039" x2="2.07715134" y2="214.09039" id="Stroke-35"></line>
                                <line x1="535.905045" y1="227.591874" x2="2.07715134" y2="227.591874" id="Stroke-37"></line>
                                <line x1="535.905045" y1="240.054782" x2="2.07715134" y2="240.054782" id="Stroke-39"></line>
                                <line x1="535.905045" y1="253.556266" x2="2.07715134" y2="253.556266" id="Stroke-41"></line>
                                <line x1="535.905045" y1="266.019174" x2="2.07715134" y2="266.019174" id="Stroke-43"></line>
                                <line x1="535.905045" y1="279.520657" x2="2.07715134" y2="279.520657" id="Stroke-45"></line>
                                <line x1="535.905045" y1="291.983565" x2="2.07715134" y2="291.983565" id="Stroke-47"></line>
                                <line x1="535.905045" y1="305.485049" x2="2.07715134" y2="305.485049" id="Stroke-49"></line>
                                <line x1="535.905045" y1="317.947957" x2="2.07715134" y2="317.947957" id="Stroke-51"></line>
                                <line x1="535.905045" y1="317.947957" x2="2.07715134" y2="317.947957" id="Stroke-53"></line>
                                <line x1="535.905045" y1="331.449441" x2="2.07715134" y2="331.449441" id="Stroke-55"></line>
                                <line x1="535.905045" y1="343.912349" x2="2.07715134" y2="343.912349" id="Stroke-57"></line>
                                <line x1="535.905045" y1="357.413832" x2="2.07715134" y2="357.413832" id="Stroke-59"></line>
                                <line x1="535.905045" y1="369.87674" x2="2.07715134" y2="369.87674" id="Stroke-61"></line>
                                <line x1="535.905045" y1="383.378224" x2="2.07715134" y2="383.378224" id="Stroke-63"></line>
                                <line x1="535.905045" y1="395.841132" x2="2.07715134" y2="395.841132" id="Stroke-65"></line>
                                <line x1="429.451039" y1="632.117097" x2="429.451039" y2="0.663090619" id="Stroke-121"></line>
                                <line x1="416.988131" y1="632.117097" x2="416.988131" y2="0.663090619" id="Stroke-123"></line>
                                <line x1="403.486647" y1="632.117097" x2="403.486647" y2="0.663090619" id="Stroke-125"></line>
                                <line x1="391.023739" y1="632.117097" x2="391.023739" y2="0.663090619" id="Stroke-127"></line>
                                <line x1="377.522255" y1="632.117097" x2="377.522255" y2="0.663090619" id="Stroke-129"></line>
                                <line x1="365.059347" y1="632.117097" x2="365.059347" y2="0.663090619" id="Stroke-131"></line>
                                <line x1="365.059347" y1="632.117097" x2="365.059347" y2="0.663090619" id="Stroke-133"></line>
                                <line x1="351.557864" y1="632.117097" x2="351.557864" y2="0.663090619" id="Stroke-135"></line>
                                <line x1="339.094955" y1="632.117097" x2="339.094955" y2="0.663090619" id="Stroke-137"></line>
                                <line x1="325.593472" y1="632.117097" x2="325.593472" y2="0.663090619" id="Stroke-139"></line>
                                <line x1="313.130564" y1="632.117097" x2="313.130564" y2="0.663090619" id="Stroke-141"></line>
                                <line x1="299.62908" y1="632.117097" x2="299.62908" y2="0.663090619" id="Stroke-143"></line>
                                <line x1="287.166172" y1="632.117097" x2="287.166172" y2="0.663090619" id="Stroke-145"></line>
                                <line x1="273.664688" y1="632.117097" x2="273.664688" y2="0.663090619" id="Stroke-147"></line>
                                <line x1="261.20178" y1="632.117097" x2="261.20178" y2="0.663090619" id="Stroke-149"></line>
                                <line x1="247.700297" y1="632.117097" x2="247.700297" y2="0.663090619" id="Stroke-151"></line>
                                <line x1="235.237389" y1="632.117097" x2="235.237389" y2="0.663090619" id="Stroke-153"></line>
                                <line x1="221.735905" y1="632.117097" x2="221.735905" y2="0.663090619" id="Stroke-155"></line>
                                <line x1="209.272997" y1="632.117097" x2="209.272997" y2="0.663090619" id="Stroke-157"></line>
                                <line x1="195.771513" y1="632.117097" x2="195.771513" y2="0.663090619" id="Stroke-159"></line>
                                <line x1="183.308605" y1="632.117097" x2="183.308605" y2="0.663090619" id="Stroke-161"></line>
                                <line x1="169.807122" y1="632.117097" x2="169.807122" y2="0.663090619" id="Stroke-163"></line>
                                <line x1="157.344214" y1="632.117097" x2="157.344214" y2="0.663090619" id="Stroke-165"></line>
                                <line x1="157.344214" y1="632.117097" x2="157.344214" y2="0.663090619" id="Stroke-167"></line>
                                <line x1="143.84273" y1="632.117097" x2="143.84273" y2="0.663090619" id="Stroke-169"></line>
                                <line x1="131.379822" y1="632.117097" x2="131.379822" y2="0.663090619" id="Stroke-171"></line>
                                <line x1="117.878338" y1="632.117097" x2="117.878338" y2="0.663090619" id="Stroke-173"></line>
                                <line x1="105.41543" y1="632.117097" x2="105.41543" y2="0.663090619" id="Stroke-175"></line>
                            </g>
                        </g>
                    </g>
                    <g id="Group-23-Copy" transform="translate(25.964392, 25.964392)">
                        <path d="M127.002436,84.1246291 L128.52195,84.1246291 C128.749993,84.1246291 128.941581,84.0176301 129.000531,83.8567411 L132.030249,75.6592134 L138.487599,75.6592134 C138.715642,75.6592134 138.908005,75.5522144 138.96618,75.3921064 L139.321431,74.4314587 C139.381932,74.2705697 139.267911,74.1635707 139.039867,74.1635707 L132.582517,74.1635707 L134.111339,70.0241941 C134.762891,68.2614445 136.851737,66.9266908 139.170178,66.9266908 L142.474479,66.9266908 C142.703298,66.9266908 142.893334,66.8204728 142.951509,66.6595838 L143.307535,65.698155 C143.367261,65.537266 143.255566,65.4302671 143.026747,65.4302671 L139.72167,65.4302671 C136.075304,65.4302671 132.789618,67.4335691 131.833232,70.0241941 L126.722424,83.8567411 C126.661923,84.0176301 126.774393,84.1246291 127.002436,84.1246291" id="Fill-1" fill="#384478"></path>
                        <path d="M145.013094,84.1246291 C148.758689,84.1246291 152.074231,82.1503271 153.330047,79.1645749 C153.389364,79.0089088 153.267607,78.9306961 153.038142,78.9306961 L151.509152,78.9306961 C151.281248,78.9306961 151.097051,79.0089088 151.029148,79.1911521 C150.118311,81.3712371 148.092926,82.6697204 145.570367,82.6697204 C143.084491,82.6697204 142.060482,81.5534804 142.785561,79.6589098 L146.518668,69.8959863 C147.243748,68.0006564 149.122399,66.8836571 151.606714,66.8836571 C153.900589,66.8836571 154.972208,68.0788691 154.261177,70.2331364 C154.192494,70.4146203 154.315812,70.4920737 154.546058,70.4920737 L156.075047,70.4920737 C156.302952,70.4920737 156.495734,70.3888025 156.555052,70.2331364 C157.543939,67.3506554 155.755825,65.4302671 152.163988,65.4302671 C148.416832,65.4302671 145.246462,67.2215665 144.224013,69.8959863 L140.491687,79.6589098 C139.467678,82.3333297 141.267499,84.1246291 145.013094,84.1246291" id="Fill-3" fill="#384478"></path>
                        <path d="M125.880803,107.628976 C127.30354,103.742773 130.811906,101.452866 135.516784,101.452866 C140.221663,101.452866 142.0495,103.742773 140.626763,107.628976 L136.628368,118.535985 L121.88316,118.535985 L125.880803,107.628976 Z M112.71466,133.976261 L115.522555,133.976261 C115.944942,133.976261 116.298184,133.776343 116.407914,133.477991 L120.860262,121.324925 L135.605471,121.324925 L131.153123,133.477991 C131.044144,133.776343 131.252331,133.976261 131.672463,133.976261 L134.481862,133.976261 C134.901994,133.976261 135.258242,133.776343 135.36722,133.477991 L144.837855,107.628976 C146.810747,102.250251 143.490275,98.6646884 136.537427,98.6646884 C129.586834,98.6646884 123.639598,102.250251 121.66896,107.628976 L112.19532,133.477991 C112.085589,133.776343 112.291522,133.976261 112.71466,133.976261 L112.71466,133.976261 Z" id="Fill-5" fill="#384478"></path>
                        <path d="M160.756032,100.206493 C160.866651,99.9036309 160.65602,99.7032641 160.230969,99.7032641 L157.400329,99.7032641 C156.974521,99.7032641 156.620691,99.9036309 156.510071,100.206493 L146.922566,126.414476 C145.156446,131.242546 148.307579,135.014837 155.102328,135.014837 L161.470511,135.014837 C161.896319,135.014837 162.252422,134.813699 162.363041,134.511608 L163.027514,132.70137 C163.137376,132.398508 162.927503,132.198141 162.502452,132.198141 L156.131238,132.198141 C151.885278,132.198141 149.973687,129.682767 151.168526,126.414476 L160.756032,100.206493 Z" id="Fill-7" fill="#384478"></path>
                        <path d="M168.810952,135.014837 L171.690378,135.014837 C172.123525,135.014837 172.485765,134.811581 172.598291,134.510176 L178.529784,118.517916 L185.730659,118.517916 C190.196235,118.517916 192.21322,121.041992 190.846726,124.723775 L187.215845,134.510176 C187.103319,134.811581 187.315268,135.014837 187.747644,135.014837 L190.62707,135.014837 C191.060216,135.014837 191.422457,134.811581 191.534983,134.510176 L195.165864,124.723775 C196.718102,120.536559 195.162781,117.358664 190.768112,116.19864 L204.460026,100.258159 C204.737487,99.904201 204.594132,99.7032641 204.088537,99.7032641 L201.209112,99.7032641 C200.849184,99.7032641 200.432993,99.8547396 200.197151,100.107456 L186.92374,115.693979 L179.57951,115.693979 L185.326029,100.207925 C185.438555,99.904201 185.224293,99.7032641 184.791917,99.7032641 L181.912492,99.7032641 C181.479345,99.7032641 181.119417,99.904201 181.006891,100.207925 L168.279153,134.510176 C168.166627,134.811581 168.377805,135.014837 168.810952,135.014837" id="Fill-9" fill="#384478"></path>
                        <path d="M213.117975,107.628976 C214.542948,103.742773 218.05277,101.452866 222.755331,101.452866 C227.460147,101.452866 229.288712,103.742773 227.863739,107.628976 L223.867652,118.535985 L209.122639,118.535985 L213.117975,107.628976 Z M199.954262,133.976261 L202.76212,133.976261 C203.184501,133.976261 203.537738,133.776343 203.647467,133.477991 L208.099755,121.324925 L222.844768,121.324925 L218.392479,133.477991 C218.283502,133.776343 218.491686,133.976261 218.911061,133.976261 L221.721174,133.976261 C222.1413,133.976261 222.496792,133.776343 222.606521,133.477991 L232.079284,107.628976 C234.049895,102.250251 230.729468,98.6646884 223.776712,98.6646884 C216.826211,98.6646884 210.879054,102.250251 208.906188,107.628976 L199.43568,133.477991 C199.325951,133.776343 199.53188,133.976261 199.954262,133.976261 L199.954262,133.976261 Z" id="Fill-11" fill="#384478"></path>
                        <path d="M233.188632,133.976261 L235.99623,133.976261 C236.417821,133.976261 236.771776,133.775874 236.881495,133.478722 L246.369913,107.617347 C247.721107,103.936471 251.510913,101.451061 256.006377,101.451061 C260.498082,101.451061 262.465505,103.936471 261.114311,107.617347 L251.625141,133.478722 C251.515422,133.775874 251.724339,133.976261 252.143675,133.976261 L254.953527,133.976261 C255.373615,133.976261 255.729074,133.775874 255.838792,133.478722 L265.327211,107.617347 C267.245034,102.39509 264.048161,98.6646884 257.027663,98.6646884 C250.006414,98.6646884 244.07634,102.39509 242.158516,107.617347 L232.670098,133.478722 C232.560379,133.775874 232.76629,133.976261 233.188632,133.976261" id="Fill-13" fill="#384478"></path>
                        <g id="Group-17" transform="translate(91.394659, 97.626113)">
                            <mask id="mask-4" fill="white">
                                <use xlink:href="#path-3"></use>
                            </mask>
                            <g id="Clip-16"></g>
                            <path d="M206.866403,0.338998022 L204.013375,0.338998022 C203.584962,0.338998022 203.22757,0.537781405 203.116076,0.83633729 L196.935787,15.7344283 L196.471483,16.7100663 C194.894528,19.5029347 192.088083,21.169364 188.180442,21.169364 C183.829115,21.169364 181.776401,18.6339238 183.002073,15.3528556 L188.417939,0.83633729 C188.529434,0.537781405 188.317136,0.338998022 187.888724,0.338998022 L185.035696,0.338998022 C184.607283,0.338998022 184.249891,0.537781405 184.138397,0.83633729 L178.72253,15.3528556 C177.109683,19.6765846 179.609138,23.8700762 185.077697,24.517455 C185.077697,24.517455 187.936835,24.7269011 189.357239,24.517455 C191.103727,24.3270495 192.627989,23.5981771 194.29811,22.5067725 L190.480581,31.3393046 L190.479818,31.338543 C187.845195,37.6660999 181.289187,41.6958427 174.283383,41.6615697 C174.283383,41.6615697 6.76265491,41.6806103 5.61869436,41.6806103 C3.63623669,43.6113225 0.0409320998,45.6974055 0.0409320998,45.6974055 L177.057754,45.6974055 C183.335028,45.4704421 191.329006,39.939542 193.251898,35.3751405 L207.395619,0.83633729 C207.507113,0.537781405 207.29558,0.338998022 206.866403,0.338998022" id="Fill-15" fill="#384478" mask="url(#mask-4)"></path>
                        </g>
                        <path d="M102.615304,0 L12.4313962,0 L4.15430267,30.5 L82.0420357,30.5 C82.0420357,30.5 99.0130164,29.5126931 92.3313416,45.5867201 C92.3313416,45.5867201 88.5695121,57.8873548 77.6458555,59.6450233 L54.2557951,59.6450233 L45.9016024,89.1364021 L67.2466259,89.1364021 C67.2466259,89.1364021 72.6420421,89.1660898 75.5527271,91.5905914 C76.232116,92.1569428 79.8878387,94.2168177 77.0748635,105.344405 C77.0748635,105.344405 74.0473846,119.560281 57.8718232,119.825188 L56.774114,119.825188 L50.1764086,143.323442 L84.1366907,143.323442 C84.1366907,143.323442 108.964918,133.415338 115.755753,102.717417 C115.755753,102.717417 120.456513,82.5175507 105.964157,71.6510639 C105.964157,71.6510639 125.06338,63.1032684 127.560325,38.6108542 C127.600783,38.2081662 127.628264,37.8062394 127.671012,37.4050738 C128.080935,33.5410957 127.642768,0 102.615304,0" id="Fill-18" fill="#384478"></path>
                        <g id="Group-22" transform="translate(0.000000, 35.311573)">
                            <mask id="mask-6" fill="white">
                                <use xlink:href="#path-5"></use>
                            </mask>
                            <g id="Clip-21"></g>
                            <polygon id="Fill-20" fill="#384478" mask="url(#mask-6)" points="27.665218 10.5701785 0 108.012098 46.0416749 108.012098 52.4750021 84.5309257 31.7064025 84.5263619 55.0338073 0.562346303 2.72240974 0.562346303 0 10.5701785"></polygon>
                        </g>
                    </g>
                </g>
            </g>
        </g>
    </g>
</svg>