<svg xmlns="http://www.w3.org/2000/svg" width="456" height="407" viewBox="0 0 456 407"><defs><linearGradient id="w9bva" x1="-104.37" x2="424.28" y1="101.39" y2="367.84" gradientUnits="userSpaceOnUse"><stop offset=".01" stop-color="#e9b977"/><stop offset=".19" stop-color="#dbae75"/><stop offset=".6" stop-color="#b77e41"/><stop offset=".87" stop-color="#e8b67c"/><stop offset="1" stop-color="#ecd8be"/></linearGradient></defs><g><g opacity=".1"><path fill="url(#w9bva)" d="M84.613 54.937c-9.322-3.947-9.424-4.15-5.37-10.12m111.466 182.154c-1.418-7.59 4.054-12.65 7.296-18.418zm-1.418-10.838c-4.054-10.925 4.661-18.006 8.005-26.807a64.357 64.357 0 0 1-8.005 26.807zM169.429 38.644a40.52 40.52 0 0 0 20.267 16.799c1.621.607 3.952 1.922 3.243 3.845-.71 1.923-2.939 1.316-4.459 1.316a11.861 11.861 0 0 1-10.133-5.161 67.83 67.83 0 0 0-16.72-18.924c-3.04-2.125-2.534-4.554 1.216-11.638 2.128 4.757 3.85 9.412 6.586 13.763zm63.023 130.24a240.937 240.937 0 0 0-10.837-27.323c-1.52-2.631-2.836-5.667 0-7.893 2.836-2.227 5.469-.607 7.9 1.113a17.501 17.501 0 0 1 7.494 18.418 157.066 157.066 0 0 1-4.557 15.685zM189.29 8.994l-1.419 1.113c-.71 9.512-.71 9.714-10.843 7.69-2.837-.607-7.802.608-8.208-2.833-.405-3.44 4.155-4.857 6.992-6.477a24.044 24.044 0 0 1 21.022-2.522 24 24 0 0 1 14.85 15.07c-9.018-3.642-17.328-4.654-22.394-12.042zm86.741 123.864c-1.52-.506-3.445-1.923-4.56-.506-1.115 1.417.608 2.631 1.216 3.846a44.68 44.68 0 0 1 4.965 22.162A39.377 39.377 0 0 1 265.9 144.09a43.246 43.246 0 0 0-23.915-22.364c-5.37-2.328-10.336-3.947-15.504-6.173-7.746-2.172-12.514-9.931-10.944-17.811 3.585 8.643 12.635 13.705 21.888 12.245 5.83.052 11.65.457 17.43 1.214 12.707 1.953 22.81 11.678 25.231 24.287zm-29.597 39.568c-.81 1.518-1.925 2.834-2.735 4.25-2.027 3.745-3.546 3.137-4.965 0a19.408 19.408 0 0 1 0-14.876 49.645 49.645 0 0 0 4.053-12.852c.688-10.57-6.109-20.184-16.312-23.072a10.14 10.14 0 0 0-12.057 2.732 10.817 10.817 0 0 0 0 12.346l10.132 20.24a36.197 36.197 0 0 1 3.748 11.738c-3.546.607-4.762-4.959-7.7-2.732-2.938 2.226-2.026 6.274-1.317 9.512 1.824 8.298 3.85 16.495 5.674 24.793a17.489 17.489 0 0 1-2.026 13.56l-8.613-14.268c-.81-1.214-.506-2.935-3.04-2.833-2.532.1-2.532 2.327-2.532 3.845a42.78 42.78 0 0 1-7.498 17.406c.507-4.756 1.419-9.513 1.419-14.269a306.77 306.77 0 0 0-4.053-59.807 56.51 56.51 0 0 1 6.383-40.479 28.132 28.132 0 0 1 2.938-4.149 30.381 30.381 0 0 1 3.445-3.137c.81 12.953 9.423 17.608 19.555 20.948a70.959 70.959 0 0 1 20.871 10.12 33.176 33.176 0 0 1 12.766 27.727c.056.876.056 1.755 0 2.631-7.193 0-5.167 7.793-9.422 10.12-3.445-5.768-6.282-4.048-8.714.506zM189.19 75.48c2.432 6.982 7.803 9.816 11.147 14.673-11.35-3.643-17.835-13.459-26.65-20.24a121.468 121.468 0 0 0 17.125 21.05c-14.998-4.959-23.003-18.013-34.15-28.133 1.926 2.935 3.344 5.667 5.675 8.804 2.33 3.137 4.661 6.274 7.195 9.21a62.276 62.276 0 0 1 8.208 8.297 85.877 85.877 0 0 1-31.718-30.865 70.832 70.832 0 0 0 19.456 29.145 23.308 23.308 0 0 1-19.354-12.852 219.418 219.418 0 0 0-14.39-19.126 192.699 192.699 0 0 0 15.099 27.626c-13.579-6.476-18.443-19.126-28.576-26.716l11.147 15.079a445.838 445.838 0 0 0-40.534-29.65c10.235.91 21.28-2.43 29.488 6.78a2.84 2.84 0 0 0 2.534 0c1.114-.709.506-2.025 0-3.138-1.216-3.44-2.534-6.78-3.952-10.828a26.47 26.47 0 0 1 20.773 7.388c1.013 1.214 2.635 2.833 4.053 2.023 1.419-.81.71-2.732.71-4.047-1.216-7.084 2.128-6.983 7.296-4.959a35.859 35.859 0 0 1 20.266 17.203 33.412 33.412 0 0 0 11.248 12.245c5.473 3.723 12.904 2.523 16.923-2.732 2.837-4.756.405-10.626-6.688-13.864a37.884 37.884 0 0 1-21.99-18.924c-2.127-4.756-2.33-7.286 4.358-6.274 6.688 1.012 14.49-1.518 18.645 6.578a2.23 2.23 0 0 0 2.027 1.012c6.688 0 13.579 4.452 18.747 14.673a17.488 17.488 0 0 1 0 20.24 48.954 48.954 0 0 0-10.134 20.239c-5.674-1.923-8.714-6.68-13.984-9.917zm-32.832 34.002c-6.688 8.601-27.461 14.673-50.666 15.28a25.466 25.466 0 0 0 14.997 1.518c4.864-.506 9.728-1.315 15.605-2.125-13.578 16.192-31.312 18.114-49.45 18.114a72.752 72.752 0 0 0 28.069 0c-10.843 12.549-25.232 13.257-39.52 17.912a83.4 83.4 0 0 0 26.752-3.744c-23.205 21.656-39.52 47.056-61.915 67.296-.709-15.18 1.014-29.55 16.214-38.556a33.024 33.024 0 0 0 10.133-8.4c1.419-1.821 4.56-3.339 3.141-6.071-1.418-2.733-4.357-.709-6.688-.709-5.674.506-11.45 1.215-17.936 1.923a37.266 37.266 0 0 1 17.328-17.102c4.56-3.036 12.768-3.846 11.35-11.334-.912-5.262-8.107-1.012-11.755-3.846a21.603 21.603 0 0 0-6.79-2.327c-2.026-.607-4.863 2.125-5.877-.607-1.013-2.733 1.723-4.757 3.547-6.68a33.164 33.164 0 0 1 26.853-8.702c6.688.607 13.478.607 20.267.607a17.642 17.642 0 0 0 14.187-6.274 13.646 13.646 0 0 0 1.418-14.471 12.265 12.265 0 0 0-12.16-6.578 25.144 25.144 0 0 1-22.394-10.12c5.978.203 7.093-1.417 3.344-6.072a36.503 36.503 0 0 1-7.6-19.632 62.355 62.355 0 0 1 13.781 6.78c2.533 1.518 5.37 4.554 7.904 1.518 2.533-3.036-1.317-5.565-3.141-7.792a34.096 34.096 0 0 1-8.512-13.864 115.027 115.027 0 0 1 24.624 16.192 125.25 125.25 0 0 0 38.506 26.817 160.595 160.595 0 0 0 30.907 6.881 56.816 56.816 0 0 1-43.168-2.934c5.877 6.476 13.072 8.905 31.21 10.828a79.745 79.745 0 0 1-37.797 5.667 58.14 58.14 0 0 0 25.232.607zm-69.21 117.793c-1.52-12.043-2.838-12.549-13.883-9.21a180.687 180.687 0 0 1-27.056 5.769c18.139-16.293 30.4-37.746 49.147-53.634l-5.878 12.75c10.438-14.572 18.24-31.27 35.163-41.389a188.22 188.22 0 0 0-26.55 54.646c13.073-26.918 26.145-54.039 50.667-73.367a112.366 112.366 0 0 0-26.042 54.444c11.754-29.449 27.968-55.254 56.341-71.344-3.648 5.16-8.613 9.006-12.565 13.864a65.864 65.864 0 0 0-10.134 16.394 107.183 107.183 0 0 1 46.31-37.342c-11.248 9.917-24.523 18.215-30.4 33.395a133.591 133.591 0 0 1 26.042-23.882c-1.216 7.893-1.317 8.298-6.688 12.244a41.2 41.2 0 0 0-14.997 18.216 109.693 109.693 0 0 1 17.632-15.888c.608 6.375.608 6.274-3.85 10.12a33.588 33.588 0 0 0-12.87 21.96 38.878 38.878 0 0 1 16.213-18.014c-5.37 8.197-12.666 15.28-12.666 26.109a50.592 50.592 0 0 1 12.16-18.519c5.37 13.156-4.966 22.87-5.574 34.71l8.006-17.507c.405 10.525-5.776 19.228-6.688 29.347l5.37-10.12c-4.965 16.8-8.106 34.104-25.232 45.337a51.946 51.946 0 0 1 0-16.495c.507-3.44.71-5.768-3.749-3.44-1.419.606-2.939 2.428-4.459.606a5.458 5.458 0 0 1-.506-5.565 24.497 24.497 0 0 1 8.309-10.12c1.925-1.62 5.37-2.834.507-5.364-3.142-1.619-.102-3.744.608-5.464a24.258 24.258 0 0 0 0-22.365c-3.04-5.16-6.688-9.715-13.782-8.601a14.684 14.684 0 0 0-12.666 12.244 53.665 53.665 0 0 0 1.114 22.668 59.122 59.122 0 0 1 1.52 20.24H144.3c-2.331-1.518-4.256-5.566-6.79-4.453-2.533 1.113-1.925 5.06-2.533 7.894a49.149 49.149 0 0 1-9.221 21.048c-2.432 3.138-4.256 4.554-5.979-.81a199.242 199.242 0 0 1-5.168-20.238c-.507-2.227.101-5.668-2.837-5.87-2.939-.202-2.23 3.137-2.939 5.06a52.231 52.231 0 0 1-20.976 25.906c-.304-2.732-.507-4.149-.71-5.97zM213.712 37.227l.115-.01a114.855 114.855 0 0 1-18.355-16.788c15.422 3.7 19.562 7.697 18.483 16.777 6.343-.644 2.335-6.999 5.938-9.997a31.768 31.768 0 0 1 10.134 16.9c.304 1.619-1.419 3.744 1.013 4.554s3.243-1.62 4.56-2.935a57.7 57.7 0 0 0 3.75-4.453c4.73 9.163 2.408 20.38-5.574 26.919-7.093 7.387-17.53 8.905-25.941 15.483 8.613-14.674 18.645-29.246 6.282-46.247a115.28 115.28 0 0 1-.173-.127l-.03.228zm239.653 121.74l-4.864 1.518a158.685 158.685 0 0 1-73.061 8.602 371.475 371.475 0 0 1-84.715-23.276 9.01 9.01 0 0 1-6.89-8.5c-2.534-19.632-8.614-25.805-27.867-30.36-8.816-2.428-17.936-1.011-26.752-2.428-4.053-.607-8.41-1.012-8.107-6.578.304-5.565 5.371-3.845 8.614-3.845a105.115 105.115 0 0 1 32.122 3.845 15.912 15.912 0 0 0-8.512-5.262 77.92 77.92 0 0 0-32.325-4.857c-2.027.1-4.864.202-5.27-2.328-.405-2.53 2.331-2.631 3.851-3.643a83.22 83.22 0 0 0 15.606-9.209c10.493-9.48 13.428-24.756 7.194-37.443-.81-1.922.507-5.16-2.533-5.464-3.04-.304-1.925 2.833-3.04 4.857s-1.115 4.756-3.75 5.768a56.564 56.564 0 0 0-17.125-25.602A40.531 40.531 0 0 0 196.283.594c-18.405-3.414-36.25 8.214-40.534 26.412-1.216 4.25-2.736 4.858-6.789 4.25-4.053-.606-10.741-8.196-13.173 2.632-.304 1.113-3.04-.405-4.662-1.012a89.28 89.28 0 0 0-21.685-4.15c-1.216 3.138 2.128 5.263.608 8.704a21.907 21.907 0 0 0-20.267-6.072 15.524 15.524 0 0 1-11.146 0c-8.512 14.673-15.707 29.246-3.446 46.955-4.256-.81-6.08-1.417-8.005-1.417a34.592 34.592 0 0 0-27.664 5.769c-6.657 5.127-8.284 14.485-3.75 21.555a9.228 9.228 0 0 0 14.896 1.62 5.157 5.157 0 0 0-.911-7.692c-2.939-2.429-5.371-1.113-7.398 1.72-.709 1.012.203 3.34-1.824 3.34a10.821 10.821 0 0 1 0-15.99c11.04-8.846 26.846-8.504 37.494.81a40.539 40.539 0 0 0 18.037 11.638 66.837 66.837 0 0 1 8.917 3.238c4.966 2.631 4.966 5.768.507 9.209a20.287 20.287 0 0 1-15.504 4.149 50.118 50.118 0 0 0-33.947 5.06 22.363 22.363 0 0 0-12.464 18.924c0 1.517.203 4.857 1.824 3.643 8.208-5.465 13.579 1.72 20.267 2.53-1.723 2.732-4.459 2.53-6.688 3.339a31.074 31.074 0 0 0-19.456 25.198c-.101 4.048.507 5.566 4.864 4.048a16.84 16.84 0 0 1 9.525-1.923v1.822c-18.848 14.673-20.165 34.204-17.834 55.152.101 1.923-.203 4.25 2.128 5.06 2.33.81 3.141-1.822 4.357-3.036a29.71 29.71 0 0 1 16.416-7.388c4.357 0 10.539 6.275 9.12 10.12a172.739 172.739 0 0 0-9.019 47.057 29.744 29.744 0 0 1-13.274 23.174c-3.75 2.63-7.702 5.16-11.451 7.69-19.355 13.257-21.888 22.163-12.363 43.616 4.459 9.918 3.75 12.549-4.864 18.823A37.031 37.031 0 0 0 0 407a40.486 40.486 0 0 1 17.328-22.567c14.39-8.197 15.808-12.346 9.323-27.525a85.553 85.553 0 0 1-2.331-5.364 18.704 18.704 0 0 1 4.763-23.073 74.785 74.785 0 0 1 15.504-10.828 37.541 37.541 0 0 0 20.368-31.37 193.046 193.046 0 0 1 6.282-39.467c2.128-5.465 3.243-8.096 10.134-6.275 12.261 3.34 18.645-1.012 22.394-13.256a14.168 14.168 0 0 1 5.472-7.691 106.678 106.678 0 0 0 6.688 16.9c2.331 4.047 4.155 4.047 7.702 1.214a58.484 58.484 0 0 0 17.328-26.817c2.432 1.518 2.229 5.768 4.56 5.363 2.33-.405 3.141-3.542 4.154-5.768a49.22 49.22 0 0 0 .608-28.639 41.538 41.538 0 0 1-.608-22.263c1.318-3.845 3.648-6.982 8.411-6.476a7.797 7.797 0 0 1 7.397 7.69 26.89 26.89 0 0 1-4.458 22.264c-5.371 6.274-3.243 13.459-4.763 20.24a6.773 6.773 0 0 0 1.419 6.07c5.776 4.15 4.053 10.12 4.864 15.484a35.076 35.076 0 0 0 1.925 7.792c.81 1.822 2.33 2.935 3.952 0a31.411 31.411 0 0 1 13.984-10.12 73.716 73.716 0 0 0 5.877 14.472c4.662 7.488 6.182 7.59 12.059.91a75.652 75.652 0 0 0 13.173-27.222 30.348 30.348 0 0 1 5.776 10.12c.608 1.62.71 4.352 2.939 4.25 2.23-.1 2.939-2.327 3.85-3.946a35.073 35.073 0 0 0 2.737-28.133l-4.358-13.156c3.142.304 5.27 4.048 7.398 2.53 2.128-1.518.506-4.857 2.128-7.083.709 1.72.608 2.226 2.128 4.857 1.52 2.631 1.824 6.274 5.877 6.881 4.053.608 4.56-5.16 5.877-6.375 1.318-1.214 1.52-3.542 3.648-4.15 3.446 6.174 5.878 5.972 10.134-.809.912-1.315.405-5.565 3.445-3.542 4.357 3.138 4.357-.1 4.357-2.833v-8.804c4.155 1.923 6.182 5.87 7.195 6.881 1.013 1.012 1.723 2.53 3.547 2.024 1.824-.506 1.824-2.226 1.824-3.643v-15.18c13.072 4.554 25.333 9.007 37.797 12.954a208.094 208.094 0 0 0 93.024 12.143A81.738 81.738 0 0 0 456 158.967c-1.317-.202-2.635 0-2.635 0z"/></g></g></svg>