<svg xmlns="http://www.w3.org/2000/svg" width="218" height="215" viewBox="0 0 218 215"><defs><clipPath id="3hvka"><path d="M152.95 178.48h11.219v36.062H152.95z"/></clipPath><clipPath id="3hvkb"><path d="M186.95 178.48h11.111v36.062H186.95z"/></clipPath><clipPath id="3hvkc"><path d="M206.19 178.83h11.616v35.354H206.19z"/></clipPath><clipPath id="3hvkd"><path d="M0 0h102.79v171.116H0z"/></clipPath></defs><g><g><g><path fill="#fefefe" d="M11.871 214.184h-1.818c-1.819 0-2.121-2.172-2.172-2.475L2.83 178.83h2.778c.252 0 .859.202 1.061 1.363l3.384 22.173 3.586-23.536h3.636z"/></g><g><path fill="#fefefe" d="M36.478 210.599c-.404.909-1.011 2.323-1.162 2.626-.252.455-.808.96-1.97.96H24.66V178.83h2.525c.605.051 1.11.505 1.11 1.111v30.658z"/></g><g><path fill="#fefefe" d="M52.284 214.184h-3.989l-3.183-24.344-3.182 24.344h-3.99l5.354-35.354h1.969c1.516 0 1.769.959 1.92 1.918z"/></g><g><path fill="#fefefe" d="M64.861 178.83c2.474 0 4.444 1.97 4.495 4.445v26.466c-.051 2.474-2.021 4.444-4.495 4.444H57.84V178.83zm.909 5.455c0-1.313-.909-1.818-1.92-1.818h-2.374v28.132h2.374c1.011 0 1.92-.505 1.92-1.869z"/></g><g><path fill="#fefefe" d="M83.65 199.487v14.697h-2.576c-.556 0-1.011-.454-1.061-1.06v-13.637L75.67 178.83h2.676c.102 0 1.01.05 1.162 1.212l2.324 13.384 2.323-13.384c.151-1.162 1.06-1.212 1.161-1.212h2.677z"/></g><g><path fill="#fefefe" d="M120.831 178.83c2.474 0 4.444 1.97 4.495 4.445v26.466c-.051 2.474-2.021 4.444-4.495 4.444h-7.021V178.83zm.912 5.455c0-1.313-.91-1.818-1.923-1.818h-2.377v28.132h2.377c1.013 0 1.923-.505 1.923-1.869z"/></g><g><path fill="#fefefe" d="M146.183 210.599c-.404.909-1.01 2.323-1.162 2.626-.252.455-.808.96-1.97.96h-8.081V179.84a1.106 1.106 0 0 1 1.111-1.01h9.446l-1.213 2.626c-.201.455-.757 1.011-1.919 1.011h-2.93c-.505 0-.858.353-.858.859v10.505h5.455c-.404.909-1.011 2.373-1.162 2.677-.252.454-.758.959-1.919.959h-1.516a.885.885 0 0 0-.858.859v12.273z"/></g><g><g/><g clip-path="url(#3hvka)"><path fill="#fefefe" d="M160.478 187.723v-4.091c0-1.111-.858-1.97-1.919-1.97-1.06 0-1.92.859-1.92 1.97v3.384c0 2.071 1.567 4.748 1.567 4.748l4.342 8.182c1.77 3.232 1.617 5.606 1.617 5.606v4.495c0 2.475-2.02 4.495-4.545 4.495h-2.274a4.587 4.587 0 0 1-4.393-4.495v-3.637c0-1.161.555-1.717 1.01-1.969.303-.101 1.767-.758 2.676-1.162v6.162c0 1.06.86 1.919 1.92 1.919 1.061 0 1.92-.859 1.92-1.97v-4.041c0-2.07-1.566-4.797-1.566-4.797l-4.344-8.132c-1.768-3.233-1.616-5.606-1.616-5.606v-3.637c0-2.475 2.02-4.697 4.546-4.697h2.272c2.424.051 4.394 2.273 4.394 4.697v1.364c0 1.161-.556 1.717-1.01 1.97-.303.151-1.717.808-2.677 1.212"/></g></g><g><path fill="#fefefe" d="M175.882 178.83c1.061 0 1.465.808 1.465 1.414v33.94h-2.576c-.859 0-1.01-.504-1.061-.757V178.83z"/></g><g><g/><g clip-path="url(#3hvkb)"><path fill="#fefefe" d="M198.061 188.48c0 1.212-.505 1.717-1.011 1.97-.252.152-1.666.808-2.626 1.212v-8.081a1.92 1.92 0 0 0-3.839 0v25.859a1.92 1.92 0 1 0 3.839 0v-10.556h-.151c-.809 0-1.314-1.161-1.314-1.161l-1.211-2.525h4.545c1.111 0 1.768.606 1.768 1.97v12.878c0 2.425-1.97 4.394-4.395 4.496h-2.221a4.504 4.504 0 0 1-4.495-4.496v-27.071a4.504 4.504 0 0 1 4.495-4.495h2.221c2.425.101 4.395 2.071 4.395 4.495z"/></g></g><g><g/><g clip-path="url(#3hvkc)"><path fill="#fefefe" d="M217.806 214.184h-1.666c-1.97 0-2.273-1.566-2.425-2.273l-3.888-17.475v19.748h-3.637V178.83h1.667c2.019 0 2.373.959 2.575 1.969l3.738 18.385V178.83h3.636z"/></g></g><g><path fill="#e5e5e4" d="M40.484 7.61l94.702 34.468-29.217.105L38.3 22.219z"/></g><g><path fill="#fefefe" d="M135.184 42.081l-.213-7.602L40.27.01l.255 9.154z"/></g><g><g/><g clip-path="url(#3hvkd)"><path fill="#fefefe" d="M0 .518L39.658 0l63.132 106.805-1.104 64.311z"/></g></g><g><path fill="#e5e5e4" d="M100.5 102.94l1.185 68.177L179.111 32.87l-39.757.52z"/></g><g><path fill="#d3d3d3" d="M101.681 171.117l-.181-13.864 48.68-72.733z"/></g><g><path fill="#c1c1c2" d="M101.755 171.11l-.182-13.863L51.01 85.81z"/></g></g></g></svg>