<?xml version="1.0" encoding="UTF-8"?>
<svg width="428px" height="160px" viewBox="0 0 428 160" version="1.1" xmlns="http://www.w3.org/2000/svg" xmlns:xlink="http://www.w3.org/1999/xlink">
    <!-- Generator: Sketch 63.1 (92452) - https://sketch.com -->
    <title>AaBbCcDdEeFfGgHhIiJjKkLlMmNnOoPpQqRrSsTtUuVvWwXxYyZz1234567890</title>
    <desc>Created with Sketch.</desc>
    <g id="Кейс" stroke="none" stroke-width="1" fill="none" fill-rule="evenodd">
        <g id="ViP-yoga-XL" transform="translate(-830.000000, -4095.000000)" fill="#12171E" fill-rule="nonzero">
            <g id="Font" transform="translate(830.000000, 3941.000000)">
                <path d="M14.825,173 C14.975,173 15.1,172.958333 15.2,172.875 C15.3,172.791667 15.35,172.675 15.35,172.525 C15.35,172.441667 15.3416667,172.375 15.325,172.325 L15.325,172.325 L8.6,155.775 C8.51666667,155.558333 8.35,155.45 8.1,155.45 C7.98333333,155.45 7.8875,155.470833 7.8125,155.5125 C7.7375,155.554167 7.675,155.641667 7.625,155.775 L7.625,155.775 L0.9,172.325 C0.866666667,172.425 0.858333333,172.508333 0.875,172.575 C0.891666667,172.691667 0.945833333,172.791667 1.0375,172.875 C1.12916667,172.958333 1.25,173 1.4,173 C1.61666667,173 1.76666667,172.891667 1.85,172.675 L1.85,172.675 L3.875,167.575 L12.245,167.575 L14.325,172.675 C14.35,172.75 14.3914063,172.813281 14.4492188,172.864844 L14.5125,172.9125 C14.6041667,172.970833 14.7083333,173 14.825,173 Z M11.85,166.575 L4.275,166.575 L8.025,157.15 L11.85,166.575 Z M29.725,173.25 C30.775,173.25 31.7333333,172.9625 32.6,172.3875 C33.4666667,171.8125 34.1083333,171.1 34.525,170.25 L34.525,170.25 L34.525,172.5 C34.525,172.633333 34.5708333,172.75 34.6625,172.85 C34.7541667,172.95 34.875,173 35.025,173 C35.1583333,173 35.275,172.95 35.375,172.85 C35.475,172.75 35.525,172.633333 35.525,172.5 L35.525,172.5 L35.525,161.025 C35.525,160.891667 35.4791667,160.775 35.3875,160.675 C35.2958333,160.575 35.175,160.525 35.025,160.525 C34.875,160.525 34.7541667,160.575 34.6625,160.675 C34.5708333,160.775 34.525,160.891667 34.525,161.025 L34.525,161.025 L34.525,163.25 C34.1416667,162.3 33.5166667,161.541667 32.65,160.975 C31.7833333,160.408333 30.8083333,160.125 29.725,160.125 C28.6416667,160.125 27.6583333,160.404167 26.775,160.9625 C25.8916667,161.520833 25.1958333,162.295833 24.6875,163.2875 C24.1791667,164.279167 23.925,165.391667 23.925,166.625 C23.925,167.875 24.175,169.004167 24.675,170.0125 C25.175,171.020833 25.8666667,171.8125 26.75,172.3875 C27.6333333,172.9625 28.625,173.25 29.725,173.25 Z M29.775,172.3 C28.8416667,172.3 28.0083333,172.054167 27.275,171.5625 C26.5416667,171.070833 25.9666667,170.391667 25.55,169.525 C25.1333333,168.658333 24.925,167.691667 24.925,166.625 C24.925,165.558333 25.1333333,164.604167 25.55,163.7625 C25.9666667,162.920833 26.5458333,162.2625 27.2875,161.7875 C28.0291667,161.3125 28.8583333,161.075 29.775,161.075 C30.6916667,161.075 31.5208333,161.320833 32.2625,161.8125 C33.0041667,162.304167 33.5833333,162.975 34,163.825 C34.4166667,164.675 34.625,165.608333 34.625,166.625 C34.625,167.691667 34.4166667,168.658333 34,169.525 C33.5833333,170.391667 33.0041667,171.070833 32.2625,171.5625 C31.5208333,172.054167 30.6916667,172.3 29.775,172.3 Z M53.5,173 C54.9833333,173 56.2041667,172.591667 57.1625,171.775 C58.1208333,170.958333 58.6,169.791667 58.6,168.275 C58.6,167.058333 58.2791667,166.066667 57.6375,165.3 C56.9958333,164.533333 56.1416667,164.05 55.075,163.85 C55.9083333,163.566667 56.5583333,163.045833 57.025,162.2875 C57.4916667,161.529167 57.725,160.683333 57.725,159.75 C57.725,158.45 57.325,157.416667 56.525,156.65 C55.725,155.883333 54.6583333,155.5 53.325,155.5 L53.325,155.5 L46.6,155.5 C46.4666667,155.5 46.35,155.55 46.25,155.65 C46.15,155.75 46.1,155.866667 46.1,156 L46.1,156 L46.1,172.5 C46.1,172.633333 46.15,172.75 46.25,172.85 C46.35,172.95 46.4666667,173 46.6,173 L46.6,173 L53.5,173 Z M53.2,163.525 L47.15,163.525 L47.15,156.5 L53.2,156.5 C54.3,156.5 55.1541667,156.791667 55.7625,157.375 C56.3708333,157.958333 56.675,158.741667 56.675,159.725 C56.675,160.925 56.3541667,161.854167 55.7125,162.5125 C55.0708333,163.170833 54.2333333,163.508333 53.2,163.525 L53.2,163.525 Z M53.375,172 L47.15,172 L47.15,164.55 L53.375,164.55 C54.625,164.55 55.6333333,164.8625 56.4,165.4875 C57.1666667,166.1125 57.55,167.041667 57.55,168.275 C57.55,169.508333 57.1666667,170.4375 56.4,171.0625 C55.6333333,171.6875 54.625,172 53.375,172 L53.375,172 Z M73.65,173.25 C74.7333333,173.25 75.7166667,172.958333 76.6,172.375 C77.4833333,171.791667 78.1791667,170.995833 78.6875,169.9875 C79.1958333,168.979167 79.45,167.858333 79.45,166.625 C79.45,165.391667 79.2,164.279167 78.7,163.2875 C78.2,162.295833 77.5083333,161.520833 76.625,160.9625 C75.7416667,160.404167 74.75,160.125 73.65,160.125 C72.6333333,160.125 71.7041667,160.3875 70.8625,160.9125 C70.0208333,161.4375 69.35,162.191667 68.85,163.175 L68.85,163.175 L68.85,155.025 C68.85,154.891667 68.8041667,154.775 68.7125,154.675 C68.6208333,154.575 68.5,154.525 68.35,154.525 C68.2,154.525 68.0791667,154.575 67.9875,154.675 C67.8958333,154.775 67.85,154.891667 67.85,155.025 L67.85,155.025 L67.85,172.5 C67.85,172.633333 67.9,172.75 68,172.85 C68.1,172.95 68.2166667,173 68.35,173 C68.5,173 68.6208333,172.95 68.7125,172.85 C68.8041667,172.75 68.85,172.633333 68.85,172.5 L68.85,172.5 L68.85,170.275 C69.4,171.208333 70.0916667,171.9375 70.925,172.4625 C71.7583333,172.9875 72.6666667,173.25 73.65,173.25 Z M73.6,172.3 C72.6666667,172.3 71.8333333,172.054167 71.1,171.5625 C70.3666667,171.070833 69.7916667,170.391667 69.375,169.525 C68.9583333,168.658333 68.75,167.691667 68.75,166.625 C68.75,165.558333 68.9541667,164.604167 69.3625,163.7625 C69.7708333,162.920833 70.3458333,162.2625 71.0875,161.7875 C71.8291667,161.3125 72.6666667,161.075 73.6,161.075 C74.5166667,161.075 75.3416667,161.3125 76.075,161.7875 C76.8083333,162.2625 77.3875,162.920833 77.8125,163.7625 C78.2375,164.604167 78.45,165.558333 78.45,166.625 C78.45,167.691667 78.2375,168.654167 77.8125,169.5125 C77.3875,170.370833 76.8083333,171.05 76.075,171.55 C75.3416667,172.05 74.5166667,172.3 73.6,172.3 Z M96.625,173.25 C97.5916667,173.25 98.5875,173.083333 99.6125,172.75 C100.6375,172.416667 101.475,172.016667 102.125,171.55 C102.258333,171.45 102.325,171.316667 102.325,171.15 C102.325,171.033333 102.291667,170.933333 102.225,170.85 C102.125,170.716667 101.991667,170.65 101.825,170.65 C101.708333,170.65 101.608333,170.683333 101.525,170.75 C100.008333,171.783333 98.375,172.3 96.625,172.3 C95.225,172.3 93.9375,171.954167 92.7625,171.2625 C91.5875,170.570833 90.6583333,169.6125 89.975,168.3875 C89.2916667,167.1625 88.95,165.783333 88.95,164.25 C88.95,162.716667 89.2916667,161.3375 89.975,160.1125 C90.6583333,158.8875 91.5875,157.929167 92.7625,157.2375 C93.9375,156.545833 95.225,156.2 96.625,156.2 C98.3583333,156.2 100,156.725 101.55,157.775 C101.683333,157.841667 101.783333,157.875 101.85,157.875 C102,157.875 102.125,157.808333 102.225,157.675 C102.291667,157.591667 102.325,157.483333 102.325,157.35 C102.325,157.2 102.25,157.066667 102.1,156.95 C101.333333,156.416667 100.479167,156 99.5375,155.7 C98.5958333,155.4 97.625,155.25 96.625,155.25 C95.0416667,155.25 93.5833333,155.641667 92.25,156.425 C90.9166667,157.208333 89.8583333,158.2875 89.075,159.6625 C88.2916667,161.0375 87.9,162.566667 87.9,164.25 C87.9,165.933333 88.2916667,167.4625 89.075,168.8375 C89.8583333,170.2125 90.9166667,171.291667 92.25,172.075 C93.5833333,172.858333 95.0416667,173.25 96.625,173.25 Z M116.6,173.25 C117.433333,173.25 118.1875,173.133333 118.8625,172.9 C119.5375,172.666667 120.066667,172.3875 120.45,172.0625 C120.833333,171.7375 121.025,171.458333 121.025,171.225 C121.025,171.091667 120.9875,170.983333 120.9125,170.9 C120.8375,170.816667 120.733333,170.775 120.6,170.775 C120.516667,170.775 120.433333,170.804167 120.35,170.8625 C120.266667,170.920833 120.183333,170.991667 120.1,171.075 C119.9,171.275 119.666667,171.458333 119.4,171.625 C119.016667,171.841667 118.633333,172.008333 118.25,172.125 C117.866667,172.241667 117.341667,172.3 116.675,172.3 C115.658333,172.3 114.745833,172.058333 113.9375,171.575 C113.129167,171.091667 112.504167,170.420833 112.0625,169.5625 C111.620833,168.704167 111.4,167.741667 111.4,166.675 C111.4,165.658333 111.6375,164.720833 112.1125,163.8625 C112.5875,163.004167 113.229167,162.325 114.0375,161.825 C114.845833,161.325 115.725,161.075 116.675,161.075 C117.775,161.075 118.625,161.216667 119.225,161.5 C119.458333,161.616667 119.683333,161.8 119.9,162.05 C120.033333,162.183333 120.1375,162.275 120.2125,162.325 C120.2875,162.375 120.4,162.4 120.55,162.4 C120.683333,162.4 120.795833,162.35 120.8875,162.25 C120.979167,162.15 121.025,162.033333 121.025,161.9 C121.025,161.6 120.820833,161.3125 120.4125,161.0375 C120.004167,160.7625 119.4625,160.541667 118.7875,160.375 C118.1125,160.208333 117.416667,160.125 116.7,160.125 C115.466667,160.125 114.370833,160.425 113.4125,161.025 C112.454167,161.625 111.7125,162.425 111.1875,163.425 C110.6625,164.425 110.4,165.508333 110.4,166.675 C110.4,167.925 110.6625,169.05 111.1875,170.05 C111.7125,171.05 112.445833,171.833333 113.3875,172.4 C114.329167,172.966667 115.4,173.25 116.6,173.25 Z M137.525,173 C139.141667,173 140.491667,172.6125 141.575,171.8375 C142.658333,171.0625 143.4625,170.016667 143.9875,168.7 C144.5125,167.383333 144.775,165.9 144.775,164.25 C144.775,162.666667 144.5125,161.2125 143.9875,159.8875 C143.4625,158.5625 142.654167,157.5 141.5625,156.7 C140.470833,155.9 139.125,155.5 137.525,155.5 L137.525,155.5 L131.025,155.5 C130.891667,155.5 130.775,155.55 130.675,155.65 C130.575,155.75 130.525,155.866667 130.525,156 L130.525,156 L130.525,172.5 C130.525,172.633333 130.575,172.75 130.675,172.85 C130.775,172.95 130.891667,173 131.025,173 L131.025,173 L137.525,173 Z M137.275,172 L131.575,172 L131.575,156.5 L137.275,156.5 C138.741667,156.5 139.954167,156.85 140.9125,157.55 C141.870833,158.25 142.579167,159.1875 143.0375,160.3625 C143.495833,161.5375 143.725,162.833333 143.725,164.25 C143.725,166.566667 143.191667,168.4375 142.125,169.8625 C141.058333,171.2875 139.441667,172 137.275,172 L137.275,172 Z M159.225,173.25 C160.291667,173.25 161.258333,172.95 162.125,172.35 C162.991667,171.75 163.625,171.008333 164.025,170.125 L164.025,170.125 L164.025,172.5 C164.025,172.633333 164.070833,172.75 164.1625,172.85 C164.254167,172.95 164.375,173 164.525,173 C164.658333,173 164.775,172.95 164.875,172.85 C164.975,172.75 165.025,172.633333 165.025,172.5 L165.025,172.5 L165.025,155 C165.025,154.866667 164.979167,154.75 164.8875,154.65 C164.795833,154.55 164.675,154.5 164.525,154.5 C164.375,154.5 164.254167,154.55 164.1625,154.65 C164.070833,154.75 164.025,154.866667 164.025,155 L164.025,155 L164.025,163.275 C163.625,162.341667 162.983333,161.583333 162.1,161 C161.216667,160.416667 160.258333,160.125 159.225,160.125 C158.141667,160.125 157.158333,160.408333 156.275,160.975 C155.391667,161.541667 154.695833,162.325 154.1875,163.325 C153.679167,164.325 153.425,165.441667 153.425,166.675 C153.425,167.908333 153.679167,169.025 154.1875,170.025 C154.695833,171.025 155.391667,171.8125 156.275,172.3875 C157.158333,172.9625 158.141667,173.25 159.225,173.25 Z M159.275,172.3 C158.358333,172.3 157.533333,172.054167 156.8,171.5625 C156.066667,171.070833 155.4875,170.4 155.0625,169.55 C154.6375,168.7 154.425,167.741667 154.425,166.675 C154.425,165.625 154.6375,164.670833 155.0625,163.8125 C155.4875,162.954167 156.070833,162.283333 156.8125,161.8 C157.554167,161.316667 158.375,161.075 159.275,161.075 C160.191667,161.075 161.020833,161.316667 161.7625,161.8 C162.504167,162.283333 163.083333,162.95 163.5,163.8 C163.916667,164.65 164.125,165.608333 164.125,166.675 C164.125,167.741667 163.916667,168.704167 163.5,169.5625 C163.083333,170.420833 162.508333,171.091667 161.775,171.575 C161.041667,172.058333 160.208333,172.3 159.275,172.3 Z M185.525,173 C185.658333,173 185.775,172.954167 185.875,172.8625 C185.975,172.770833 186.025,172.65 186.025,172.5 C186.025,172.366667 185.975,172.25 185.875,172.15 C185.775,172.05 185.658333,172 185.525,172 L185.525,172 L176.65,172 L176.65,164.475 L184.4,164.475 C184.533333,164.475 184.65,164.429167 184.75,164.3375 C184.85,164.245833 184.9,164.125 184.9,163.975 C184.9,163.841667 184.85,163.725 184.75,163.625 C184.65,163.525 184.533333,163.475 184.4,163.475 L184.4,163.475 L176.65,163.475 L176.65,156.5 L185.525,156.5 C185.658333,156.5 185.775,156.454167 185.875,156.3625 C185.975,156.270833 186.025,156.15 186.025,156 C186.025,155.866667 185.975,155.75 185.875,155.65 C185.775,155.55 185.658333,155.5 185.525,155.5 L185.525,155.5 L176.1,155.5 C175.966667,155.5 175.85,155.55 175.75,155.65 C175.65,155.75 175.6,155.866667 175.6,156 L175.6,156 L175.6,172.5 C175.6,172.633333 175.65,172.75 175.75,172.85 C175.85,172.95 175.966667,173 176.1,173 L176.1,173 L185.525,173 Z M200.75,173.25 C201.683333,173.25 202.558333,173.016667 203.375,172.55 C204.191667,172.083333 204.875,171.483333 205.425,170.75 C205.491667,170.666667 205.525,170.566667 205.525,170.45 C205.525,170.333333 205.483333,170.229167 205.4,170.1375 C205.316667,170.045833 205.216667,170 205.1,170 C204.933333,170 204.791667,170.075 204.675,170.225 C204.275,170.825 203.720833,171.320833 203.0125,171.7125 C202.304167,172.104167 201.55,172.3 200.75,172.3 C199.6,172.3 198.616667,172.05 197.8,171.55 C196.983333,171.05 196.366667,170.370833 195.95,169.5125 C195.533333,168.654167 195.325,167.708333 195.325,166.675 L195.325,166.675 L195.325,166.35 L205.15,166.35 C205.283333,166.35 205.4,166.295833 205.5,166.1875 C205.6,166.079167 205.65,165.958333 205.65,165.825 C205.616667,164.575 205.333333,163.525 204.8,162.675 C204.266667,161.825 203.579167,161.1875 202.7375,160.7625 C201.895833,160.3375 200.983333,160.125 200,160.125 C199.016667,160.125 198.091667,160.391667 197.225,160.925 C196.358333,161.458333 195.6625,162.229167 195.1375,163.2375 C194.6125,164.245833 194.35,165.416667 194.35,166.75 C194.35,168.05 194.620833,169.191667 195.1625,170.175 C195.704167,171.158333 196.458333,171.916667 197.425,172.45 C198.391667,172.983333 199.5,173.25 200.75,173.25 Z M204.625,165.4 L195.425,165.4 C195.591667,164.483333 195.920833,163.704167 196.4125,163.0625 C196.904167,162.420833 197.470833,161.9375 198.1125,161.6125 C198.754167,161.2875 199.383333,161.125 200,161.125 C200.733333,161.125 201.4375,161.283333 202.1125,161.6 C202.7875,161.916667 203.354167,162.379167 203.8125,162.9875 C204.270833,163.595833 204.541667,164.325 204.625,165.175 L204.625,165.175 L204.625,165.4 Z M215.85,173 C216,173 216.120833,172.95 216.2125,172.85 C216.304167,172.75 216.35,172.633333 216.35,172.5 L216.35,172.5 L216.35,164.4 L224.15,164.4 C224.283333,164.4 224.4,164.354167 224.5,164.2625 C224.6,164.170833 224.65,164.05 224.65,163.9 C224.65,163.766667 224.6,163.65 224.5,163.55 C224.4,163.45 224.283333,163.4 224.15,163.4 L224.15,163.4 L216.35,163.4 L216.35,156.5 L225.275,156.5 C225.408333,156.5 225.525,156.454167 225.625,156.3625 C225.725,156.270833 225.775,156.15 225.775,156 C225.775,155.866667 225.725,155.75 225.625,155.65 C225.525,155.55 225.408333,155.5 225.275,155.5 L225.275,155.5 L215.85,155.5 C215.716667,155.5 215.6,155.55 215.5,155.65 C215.4,155.75 215.35,155.866667 215.35,156 L215.35,156 L215.35,172.5 C215.35,172.633333 215.395833,172.75 215.4875,172.85 C215.579167,172.95 215.7,173 215.85,173 Z M236.7,173 C236.833333,173 236.95,172.95 237.05,172.85 C237.15,172.75 237.2,172.633333 237.2,172.5 L237.2,172.5 L237.2,161.625 L240.15,161.625 C240.283333,161.625 240.395833,161.579167 240.4875,161.4875 C240.579167,161.395833 240.625,161.283333 240.625,161.15 C240.625,161.016667 240.579167,160.904167 240.4875,160.8125 C240.395833,160.720833 240.283333,160.675 240.15,160.675 L240.15,160.675 L237.2,160.675 L237.2,157.625 C237.2,156.925 237.354167,156.4 237.6625,156.05 C237.970833,155.7 238.383333,155.525 238.9,155.525 C239.083333,155.525 239.366667,155.583333 239.75,155.7 C239.966667,155.783333 240.141667,155.825 240.275,155.825 C240.391667,155.825 240.5,155.775 240.6,155.675 C240.7,155.575 240.75,155.458333 240.75,155.325 C240.75,155.075 240.5625,154.895833 240.1875,154.7875 C239.8125,154.679167 239.416667,154.625 239,154.625 C238.183333,154.625 237.5125,154.879167 236.9875,155.3875 C236.4625,155.895833 236.2,156.641667 236.2,157.625 L236.2,157.625 L236.2,160.675 L234.2,160.675 C234.066667,160.675 233.954167,160.716667 233.8625,160.8 C233.770833,160.883333 233.725,161 233.725,161.15 C233.725,161.266667 233.775,161.375 233.875,161.475 C233.975,161.575 234.083333,161.625 234.2,161.625 L234.2,161.625 L236.2,161.625 L236.2,172.5 C236.2,172.633333 236.245833,172.75 236.3375,172.85 C236.429167,172.95 236.55,173 236.7,173 Z M257.55,173.25 C258.483333,173.25 259.404167,173.104167 260.3125,172.8125 C261.220833,172.520833 262.058333,172.116667 262.825,171.6 C262.975,171.5 263.05,171.35 263.05,171.15 L263.05,171.15 L263.05,164.875 C263.05,164.741667 263.004167,164.625 262.9125,164.525 C262.820833,164.425 262.7,164.375 262.55,164.375 L262.55,164.375 L257.55,164.375 C257.416667,164.375 257.3,164.420833 257.2,164.5125 C257.1,164.604167 257.05,164.725 257.05,164.875 C257.05,165.008333 257.1,165.125 257.2,165.225 C257.3,165.325 257.416667,165.375 257.55,165.375 L257.55,165.375 L262.05,165.375 L262.05,170.925 C261.4,171.325 260.679167,171.645833 259.8875,171.8875 C259.095833,172.129167 258.316667,172.25 257.55,172.25 C256.016667,172.25 254.65,171.908333 253.45,171.225 C252.25,170.541667 251.3125,169.591667 250.6375,168.375 C249.9625,167.158333 249.625,165.783333 249.625,164.25 C249.625,162.716667 249.9625,161.341667 250.6375,160.125 C251.3125,158.908333 252.25,157.958333 253.45,157.275 C254.65,156.591667 256.016667,156.25 257.55,156.25 C259.05,156.25 260.5,156.641667 261.9,157.425 C262.033333,157.491667 262.141667,157.525 262.225,157.525 C262.325,157.525 262.429167,157.479167 262.5375,157.3875 C262.645833,157.295833 262.7,157.175 262.7,157.025 C262.7,156.841667 262.625,156.7 262.475,156.6 C261.808333,156.15 261.054167,155.8125 260.2125,155.5875 C259.370833,155.3625 258.483333,155.25 257.55,155.25 C255.833333,155.25 254.295833,155.6375 252.9375,156.4125 C251.579167,157.1875 250.5125,158.258333 249.7375,159.625 C248.9625,160.991667 248.575,162.533333 248.575,164.25 C248.575,165.966667 248.9625,167.508333 249.7375,168.875 C250.5125,170.241667 251.579167,171.3125 252.9375,172.0875 C254.295833,172.8625 255.833333,173.25 257.55,173.25 Z M277.825,178 C279.025,178 280.091667,177.745833 281.025,177.2375 C281.958333,176.729167 282.683333,176.008333 283.2,175.075 C283.716667,174.141667 283.975,173.041667 283.975,171.775 L283.975,171.775 L283.975,161.025 C283.975,160.891667 283.929167,160.775 283.8375,160.675 C283.745833,160.575 283.625,160.525 283.475,160.525 C283.325,160.525 283.204167,160.575 283.1125,160.675 C283.020833,160.775 282.975,160.891667 282.975,161.025 L282.975,161.025 L282.975,163.15 C282.575,162.316667 281.9125,161.604167 280.9875,161.0125 C280.0625,160.420833 279.041667,160.125 277.925,160.125 C276.791667,160.125 275.7625,160.408333 274.8375,160.975 C273.9125,161.541667 273.1875,162.325 272.6625,163.325 C272.1375,164.325 271.875,165.441667 271.875,166.675 C271.875,167.908333 272.1375,169.025 272.6625,170.025 C273.1875,171.025 273.9125,171.8125 274.8375,172.3875 C275.7625,172.9625 276.791667,173.25 277.925,173.25 C278.958333,173.25 279.945833,172.983333 280.8875,172.45 C281.829167,171.916667 282.525,171.116667 282.975,170.05 L282.975,170.05 L282.975,171.775 C282.975,173.358333 282.516667,174.633333 281.6,175.6 C280.683333,176.566667 279.441667,177.05 277.875,177.05 C276.841667,177.05 275.916667,176.883333 275.1,176.55 C274.816667,176.433333 274.558333,176.258333 274.325,176.025 C274.125,175.858333 273.975,175.775 273.875,175.775 C273.741667,175.775 273.6375,175.816667 273.5625,175.9 C273.4875,175.983333 273.45,176.091667 273.45,176.225 C273.45,176.508333 273.670833,176.7875 274.1125,177.0625 C274.554167,177.3375 275.116667,177.5625 275.8,177.7375 C276.483333,177.9125 277.158333,178 277.825,178 Z M277.975,172.3 C277.008333,172.3 276.1375,172.054167 275.3625,171.5625 C274.5875,171.070833 273.979167,170.4 273.5375,169.55 C273.095833,168.7 272.875,167.741667 272.875,166.675 C272.875,165.608333 273.095833,164.65 273.5375,163.8 C273.979167,162.95 274.5875,162.283333 275.3625,161.8 C276.1375,161.316667 277.008333,161.075 277.975,161.075 C278.941667,161.075 279.8125,161.308333 280.5875,161.775 C281.3625,162.241667 281.970833,162.9 282.4125,163.75 C282.854167,164.6 283.075,165.575 283.075,166.675 C283.075,167.775 282.854167,168.75 282.4125,169.6 C281.970833,170.45 281.3625,171.1125 280.5875,171.5875 C279.8125,172.0625 278.941667,172.3 277.975,172.3 Z M307.025,173 C307.158333,173 307.275,172.95 307.375,172.85 C307.475,172.75 307.533333,172.625 307.55,172.475 L307.55,172.475 L307.55,156.025 C307.55,155.875 307.5,155.75 307.4,155.65 C307.3,155.55 307.175,155.5 307.025,155.5 C306.875,155.5 306.75,155.55 306.65,155.65 C306.55,155.75 306.5,155.875 306.5,156.025 L306.5,156.025 L306.5,163.5 L295.6,163.5 L295.6,156.025 C295.6,155.875 295.55,155.75 295.45,155.65 C295.35,155.55 295.225,155.5 295.075,155.5 C294.925,155.5 294.8,155.55 294.7,155.65 C294.6,155.75 294.55,155.875 294.55,156.025 L294.55,156.025 L294.55,172.475 C294.55,172.625 294.595833,172.75 294.6875,172.85 C294.779167,172.95 294.908333,173 295.075,173 C295.208333,173 295.325,172.95 295.425,172.85 C295.525,172.75 295.583333,172.625 295.6,172.475 L295.6,172.475 L295.6,164.5 L306.5,164.5 L306.5,172.475 C306.5,172.625 306.545833,172.75 306.6375,172.85 C306.729167,172.95 306.858333,173 307.025,173 Z M327.525,173 C327.658333,173 327.775,172.95 327.875,172.85 C327.975,172.75 328.025,172.633333 328.025,172.5 L328.025,172.5 L328.025,165.2 C328.025,163.8 327.641667,162.645833 326.875,161.7375 C326.108333,160.829167 325.008333,160.375 323.575,160.375 C322.725,160.375 321.8875,160.6125 321.0625,161.0875 C320.2375,161.5625 319.591667,162.166667 319.125,162.9 L319.125,162.9 L319.125,155 C319.125,154.866667 319.079167,154.75 318.9875,154.65 C318.895833,154.55 318.775,154.5 318.625,154.5 C318.491667,154.5 318.375,154.55 318.275,154.65 C318.175,154.75 318.125,154.866667 318.125,155 L318.125,155 L318.125,172.5 C318.125,172.633333 318.170833,172.75 318.2625,172.85 C318.354167,172.95 318.475,173 318.625,173 C318.758333,173 318.875,172.95 318.975,172.85 C319.075,172.75 319.125,172.633333 319.125,172.5 L319.125,172.5 L319.125,165.2 C319.125,164.516667 319.341667,163.875 319.775,163.275 C320.208333,162.675 320.770833,162.2 321.4625,161.85 C322.154167,161.5 322.858333,161.325 323.575,161.325 C324.741667,161.325 325.608333,161.683333 326.175,162.4 C326.741667,163.116667 327.025,164.05 327.025,165.2 L327.025,165.2 L327.025,172.5 C327.025,172.633333 327.070833,172.75 327.1625,172.85 C327.254167,172.95 327.375,173 327.525,173 Z M339.125,173 C339.258333,173 339.375,172.95 339.475,172.85 C339.575,172.75 339.633333,172.625 339.65,172.475 L339.65,172.475 L339.65,156.025 C339.65,155.875 339.6,155.75 339.5,155.65 C339.4,155.55 339.275,155.5 339.125,155.5 C338.975,155.5 338.85,155.55 338.75,155.65 C338.65,155.75 338.6,155.875 338.6,156.025 L338.6,156.025 L338.6,172.475 C338.6,172.625 338.645833,172.75 338.7375,172.85 C338.829167,172.95 338.958333,173 339.125,173 Z M350.725,158.425 C350.975,158.425 351.179167,158.35 351.3375,158.2 C351.495833,158.05 351.575,157.858333 351.575,157.625 L351.575,157.625 L351.575,157.425 C351.575,157.191667 351.495833,157 351.3375,156.85 C351.179167,156.7 350.983333,156.625 350.75,156.625 C350.483333,156.625 350.266667,156.7 350.1,156.85 C349.933333,157 349.85,157.191667 349.85,157.425 L349.85,157.425 L349.85,157.625 C349.85,157.858333 349.929167,158.05 350.0875,158.2 C350.245833,158.35 350.458333,158.425 350.725,158.425 Z M350.725,173 C350.858333,173 350.975,172.95 351.075,172.85 C351.175,172.75 351.225,172.633333 351.225,172.5 L351.225,172.5 L351.225,160.625 C351.225,160.491667 351.179167,160.375 351.0875,160.275 C350.995833,160.175 350.875,160.125 350.725,160.125 C350.591667,160.125 350.475,160.175 350.375,160.275 C350.275,160.375 350.225,160.491667 350.225,160.625 L350.225,160.625 L350.225,172.5 C350.225,172.633333 350.270833,172.75 350.3625,172.85 C350.454167,172.95 350.575,173 350.725,173 Z M365.975,173.25 C367.008333,173.25 367.925,173.033333 368.725,172.6 C369.525,172.166667 370.145833,171.554167 370.5875,170.7625 C371.029167,169.970833 371.25,169.058333 371.25,168.025 L371.25,168.025 L371.25,156 C371.25,155.866667 371.204167,155.75 371.1125,155.65 C371.020833,155.55 370.9,155.5 370.75,155.5 C370.583333,155.5 370.45,155.55 370.35,155.65 C370.25,155.75 370.2,155.866667 370.2,156 L370.2,156 L370.2,168.025 C370.2,169.308333 369.816667,170.333333 369.05,171.1 C368.283333,171.866667 367.258333,172.25 365.975,172.25 C365.108333,172.25 364.333333,171.9875 363.65,171.4625 C362.966667,170.9375 362.466667,170.25 362.15,169.4 C362.05,169.183333 361.891667,169.075 361.675,169.075 C361.541667,169.075 361.425,169.116667 361.325,169.2 C361.225,169.283333 361.175,169.391667 361.175,169.525 C361.175,169.591667 361.191667,169.675 361.225,169.775 C361.641667,170.825 362.270833,171.666667 363.1125,172.3 C363.954167,172.933333 364.908333,173.25 365.975,173.25 Z M382.65,158.4 C382.9,158.4 383.104167,158.325 383.2625,158.175 C383.420833,158.025 383.5,157.833333 383.5,157.6 L383.5,157.6 L383.5,157.4 C383.5,157.166667 383.420833,156.975 383.2625,156.825 C383.104167,156.675 382.908333,156.6 382.675,156.6 C382.408333,156.6 382.191667,156.675 382.025,156.825 C381.858333,156.975 381.775,157.166667 381.775,157.4 L381.775,157.4 L381.775,157.6 C381.775,157.833333 381.854167,158.025 382.0125,158.175 C382.170833,158.325 382.383333,158.4 382.65,158.4 Z M379.725,177.95 C380.208333,177.95 380.716667,177.808333 381.25,177.525 C381.783333,177.241667 382.233333,176.833333 382.6,176.3 C382.966667,175.766667 383.15,175.15 383.15,174.45 L383.15,174.45 L383.15,161 C383.15,160.866667 383.104167,160.75 383.0125,160.65 C382.920833,160.55 382.8,160.5 382.65,160.5 C382.5,160.5 382.379167,160.55 382.2875,160.65 C382.195833,160.75 382.15,160.866667 382.15,161 L382.15,161 L382.15,174.45 C382.15,175.2 381.904167,175.783333 381.4125,176.2 C380.920833,176.616667 380.35,176.875 379.7,176.975 C379.566667,176.991667 379.458333,177.045833 379.375,177.1375 C379.291667,177.229167 379.25,177.333333 379.25,177.45 L379.25,177.45 L379.25,177.5 C379.25,177.633333 379.291667,177.741667 379.375,177.825 C379.458333,177.908333 379.575,177.95 379.725,177.95 Z M407.6,173.125 C407.733333,173.125 407.8625,173.083333 407.9875,173 C408.1125,172.916667 408.175,172.783333 408.175,172.6 C408.175,172.483333 408.133333,172.366667 408.05,172.25 L408.05,172.25 L400.575,162.9 L407.5,156.45 C407.6,156.35 407.65,156.233333 407.65,156.1 C407.65,155.966667 407.6,155.85 407.5,155.75 C407.4,155.65 407.283333,155.6 407.15,155.6 C407.016667,155.6 406.9,155.65 406.8,155.75 L406.8,155.75 L396,165.875 L396,156.025 C396,155.875 395.95,155.75 395.85,155.65 C395.75,155.55 395.625,155.5 395.475,155.5 C395.325,155.5 395.2,155.55 395.1,155.65 C395,155.75 394.95,155.875 394.95,156.025 L394.95,156.025 L394.95,172.475 C394.95,172.625 394.995833,172.75 395.0875,172.85 C395.179167,172.95 395.308333,173 395.475,173 C395.608333,173 395.725,172.95 395.825,172.85 C395.925,172.75 395.983333,172.625 396,172.475 L396,172.475 L396,167.15 L399.75,163.675 L407.25,172.95 C407.35,173.066667 407.466667,173.125 407.6,173.125 Z M427.025,173 C427.108333,173 427.2125,172.954167 427.3375,172.8625 C427.4625,172.770833 427.525,172.65 427.525,172.5 C427.525,172.35 427.475,172.225 427.375,172.125 L427.375,172.125 L421.575,165.95 L427.2,161.275 C427.316667,161.175 427.375,161.05 427.375,160.9 C427.375,160.75 427.325,160.625 427.225,160.525 C427.125,160.425 427.008333,160.375 426.875,160.375 C426.758333,160.375 426.65,160.425 426.55,160.525 L426.55,160.525 L418.7,167.1 L418.7,155 C418.7,154.866667 418.654167,154.75 418.5625,154.65 C418.470833,154.55 418.35,154.5 418.2,154.5 C418.05,154.5 417.929167,154.55 417.8375,154.65 C417.745833,154.75 417.7,154.866667 417.7,155 L417.7,155 L417.7,172.5 C417.7,172.633333 417.745833,172.75 417.8375,172.85 C417.929167,172.95 418.05,173 418.2,173 C418.35,173 418.470833,172.95 418.5625,172.85 C418.654167,172.75 418.7,172.633333 418.7,172.5 L418.7,172.5 L418.7,168.35 L420.8,166.6 L426.65,172.825 C426.766667,172.941667 426.891667,173 427.025,173 Z M12.175,208 C12.3083333,208 12.425,207.954167 12.525,207.8625 C12.625,207.770833 12.675,207.65 12.675,207.5 C12.675,207.366667 12.625,207.25 12.525,207.15 C12.425,207.05 12.3083333,207 12.175,207 L12.175,207 L3.55,207 L3.55,191 C3.55,190.866667 3.5,190.75 3.4,190.65 C3.3,190.55 3.175,190.5 3.025,190.5 C2.875,190.5 2.75,190.55 2.65,190.65 C2.55,190.75 2.5,190.866667 2.5,191 L2.5,191 L2.5,207.5 C2.5,207.633333 2.54583333,207.75 2.6375,207.85 C2.72916667,207.95 2.85,208 3,208 L3,208 L12.175,208 Z M21.75,208 C21.8833333,208 22,207.95 22.1,207.85 C22.2,207.75 22.25,207.633333 22.25,207.5 L22.25,207.5 L22.25,190 C22.25,189.866667 22.2041667,189.75 22.1125,189.65 C22.0208333,189.55 21.9,189.5 21.75,189.5 C21.6166667,189.5 21.5,189.55 21.4,189.65 C21.3,189.75 21.25,189.866667 21.25,190 L21.25,190 L21.25,207.5 C21.25,207.633333 21.2958333,207.75 21.3875,207.85 C21.4791667,207.95 21.6,208 21.75,208 Z M48.15,208 C48.2833333,208 48.4041667,207.95 48.5125,207.85 C48.6208333,207.75 48.675,207.633333 48.675,207.5 L48.675,207.5 L48.675,191 C48.675,190.866667 48.6333333,190.754167 48.55,190.6625 C48.4666667,190.570833 48.3583333,190.516667 48.225,190.5 C48.0416667,190.466667 47.8833333,190.541667 47.75,190.725 L47.75,190.725 L40.825,201.025 L33.9,190.725 C33.8,190.575 33.6416667,190.5 33.425,190.5 C33.2916667,190.5 33.1791667,190.554167 33.0875,190.6625 C32.9958333,190.770833 32.95,190.883333 32.95,191 L32.95,191 L32.95,207.5 C32.95,207.633333 32.9958333,207.75 33.0875,207.85 C33.1791667,207.95 33.3,208 33.45,208 C33.5833333,208 33.7,207.95 33.8,207.85 C33.9,207.75 33.95,207.633333 33.95,207.5 L33.95,207.5 L33.95,192.525 L40.425,202.3 C40.5083333,202.433333 40.6416667,202.5 40.825,202.5 C40.975,202.5 41.0916667,202.433333 41.175,202.3 L41.175,202.3 L47.625,192.55 L47.625,207.5 C47.625,207.633333 47.675,207.75 47.775,207.85 C47.875,207.95 48,208 48.15,208 Z M77.325,208 C77.475,208 77.5958333,207.95 77.6875,207.85 C77.7791667,207.75 77.825,207.633333 77.825,207.5 L77.825,207.5 L77.825,200.225 C77.825,198.791667 77.4541667,197.625 76.7125,196.725 C75.9708333,195.825 74.8833333,195.375 73.45,195.375 C72.5166667,195.375 71.5625,195.641667 70.5875,196.175 C69.6125,196.708333 68.95,197.358333 68.6,198.125 C68.2666667,197.225 67.7416667,196.541667 67.025,196.075 C66.3083333,195.608333 65.4916667,195.375 64.575,195.375 C63.725,195.375 62.9125,195.6 62.1375,196.05 C61.3625,196.5 60.7333333,197.075 60.25,197.775 L60.25,197.775 L60.25,196.025 C60.25,195.891667 60.2041667,195.775 60.1125,195.675 C60.0208333,195.575 59.9,195.525 59.75,195.525 C59.6166667,195.525 59.5,195.575 59.4,195.675 C59.3,195.775 59.25,195.891667 59.25,196.025 L59.25,196.025 L59.25,207.5 C59.25,207.633333 59.2958333,207.75 59.3875,207.85 C59.4791667,207.95 59.6,208 59.75,208 C59.8833333,208 60,207.95 60.1,207.85 C60.2,207.75 60.25,207.633333 60.25,207.5 L60.25,207.5 L60.25,200.2 C60.25,199.516667 60.4625,198.875 60.8875,198.275 C61.3125,197.675 61.8583333,197.2 62.525,196.85 C63.1916667,196.5 63.875,196.325 64.575,196.325 C65.6916667,196.325 66.525,196.683333 67.075,197.4 C67.625,198.116667 67.9,199.05 67.9,200.2 L67.9,200.2 L67.9,207.5 C67.9,207.633333 67.9458333,207.75 68.0375,207.85 C68.1291667,207.95 68.25,208 68.4,208 C68.55,208 68.6708333,207.95 68.7625,207.85 C68.8541667,207.75 68.9,207.633333 68.9,207.5 L68.9,207.5 L68.9,200.325 C68.9,199.608333 69.1166667,198.945833 69.55,198.3375 C69.9833333,197.729167 70.5458333,197.241667 71.2375,196.875 C71.9291667,196.508333 72.6333333,196.325 73.35,196.325 C74.5166667,196.325 75.3875,196.695833 75.9625,197.4375 C76.5375,198.179167 76.825,199.141667 76.825,200.325 L76.825,200.325 L76.825,207.5 C76.825,207.633333 76.8708333,207.75 76.9625,207.85 C77.0541667,207.95 77.175,208 77.325,208 Z M101,208 C101.15,208 101.275,207.954167 101.375,207.8625 C101.475,207.770833 101.525,207.633333 101.525,207.45 L101.525,207.45 L101.525,190.975 C101.525,190.841667 101.483333,190.729167 101.4,190.6375 C101.316667,190.545833 101.2,190.5 101.05,190.5 C100.916667,190.5 100.804167,190.545833 100.7125,190.6375 C100.620833,190.729167 100.575,190.841667 100.575,190.975 L100.575,190.975 L100.575,206.15 L89.225,190.675 C89.125,190.558333 89,190.5 88.85,190.5 C88.7333333,190.5 88.6291667,190.541667 88.5375,190.625 C88.4458333,190.708333 88.4,190.833333 88.4,191 L88.4,191 L88.4,207.575 C88.4,207.691667 88.4416667,207.791667 88.525,207.875 C88.6083333,207.958333 88.725,208 88.875,208 C89.0083333,208 89.1208333,207.958333 89.2125,207.875 C89.3041667,207.791667 89.35,207.691667 89.35,207.575 L89.35,207.575 L89.35,192.425 L100.6,207.8 C100.7,207.933333 100.833333,208 101,208 Z M121.75,208 C121.883333,208 122,207.95 122.1,207.85 C122.2,207.75 122.25,207.633333 122.25,207.5 L122.25,207.5 L122.25,199.85 C122.25,198.45 121.875,197.3125 121.125,196.4375 C120.375,195.5625 119.258333,195.125 117.775,195.125 C116.891667,195.125 116.0125,195.366667 115.1375,195.85 C114.2625,196.333333 113.583333,196.95 113.1,197.7 L113.1,197.7 L113.1,196.025 C113.1,195.891667 113.054167,195.775 112.9625,195.675 C112.870833,195.575 112.75,195.525 112.6,195.525 C112.466667,195.525 112.35,195.575 112.25,195.675 C112.15,195.775 112.1,195.891667 112.1,196.025 L112.1,196.025 L112.1,207.5 C112.1,207.633333 112.145833,207.75 112.2375,207.85 C112.329167,207.95 112.45,208 112.6,208 C112.733333,208 112.85,207.95 112.95,207.85 C113.05,207.75 113.1,207.633333 113.1,207.5 L113.1,207.5 L113.1,199.95 C113.1,199.266667 113.325,198.625 113.775,198.025 C114.225,197.425 114.804167,196.95 115.5125,196.6 C116.220833,196.25 116.941667,196.075 117.675,196.075 C118.875,196.075 119.770833,196.4375 120.3625,197.1625 C120.954167,197.8875 121.25,198.816667 121.25,199.95 L121.25,199.95 L121.25,207.5 C121.25,207.633333 121.295833,207.75 121.3875,207.85 C121.479167,207.95 121.6,208 121.75,208 Z M139.925,208.25 C141.541667,208.25 142.983333,207.870833 144.25,207.1125 C145.516667,206.354167 146.504167,205.291667 147.2125,203.925 C147.920833,202.558333 148.275,201 148.275,199.25 C148.275,197.5 147.920833,195.941667 147.2125,194.575 C146.504167,193.208333 145.516667,192.145833 144.25,191.3875 C142.983333,190.629167 141.541667,190.25 139.925,190.25 C138.308333,190.25 136.866667,190.629167 135.6,191.3875 C134.333333,192.145833 133.345833,193.208333 132.6375,194.575 C131.929167,195.941667 131.575,197.5 131.575,199.25 C131.575,201 131.929167,202.558333 132.6375,203.925 C133.345833,205.291667 134.333333,206.354167 135.6,207.1125 C136.866667,207.870833 138.308333,208.25 139.925,208.25 Z M139.925,207.25 C138.508333,207.25 137.245833,206.916667 136.1375,206.25 C135.029167,205.583333 134.166667,204.641667 133.55,203.425 C132.933333,202.208333 132.625,200.816667 132.625,199.25 C132.625,197.683333 132.933333,196.291667 133.55,195.075 C134.166667,193.858333 135.029167,192.916667 136.1375,192.25 C137.245833,191.583333 138.508333,191.25 139.925,191.25 C141.341667,191.25 142.604167,191.583333 143.7125,192.25 C144.820833,192.916667 145.683333,193.858333 146.3,195.075 C146.916667,196.291667 147.225,197.683333 147.225,199.25 C147.225,200.816667 146.916667,202.208333 146.3,203.425 C145.683333,204.641667 144.820833,205.583333 143.7125,206.25 C142.604167,206.916667 141.341667,207.25 139.925,207.25 Z M163.1,208.25 C164.25,208.25 165.295833,207.9625 166.2375,207.3875 C167.179167,206.8125 167.916667,206.029167 168.45,205.0375 C168.983333,204.045833 169.25,202.933333 169.25,201.7 C169.25,200.466667 168.983333,199.35 168.45,198.35 C167.916667,197.35 167.179167,196.5625 166.2375,195.9875 C165.295833,195.4125 164.25,195.125 163.1,195.125 C161.933333,195.125 160.883333,195.4125 159.95,195.9875 C159.016667,196.5625 158.279167,197.35 157.7375,198.35 C157.195833,199.35 156.925,200.466667 156.925,201.7 C156.925,202.916667 157.195833,204.025 157.7375,205.025 C158.279167,206.025 159.020833,206.8125 159.9625,207.3875 C160.904167,207.9625 161.95,208.25 163.1,208.25 Z M163.1,207.3 C162.133333,207.3 161.254167,207.054167 160.4625,206.5625 C159.670833,206.070833 159.05,205.4 158.6,204.55 C158.15,203.7 157.925,202.75 157.925,201.7 C157.925,200.633333 158.15,199.675 158.6,198.825 C159.05,197.975 159.670833,197.304167 160.4625,196.8125 C161.254167,196.320833 162.133333,196.075 163.1,196.075 C164.083333,196.075 164.966667,196.320833 165.75,196.8125 C166.533333,197.304167 167.145833,197.975 167.5875,198.825 C168.029167,199.675 168.25,200.633333 168.25,201.7 C168.25,202.75 168.029167,203.704167 167.5875,204.5625 C167.145833,205.420833 166.533333,206.091667 165.75,206.575 C164.966667,207.058333 164.083333,207.3 163.1,207.3 Z M179.475,208 C179.608333,208 179.729167,207.95 179.8375,207.85 C179.945833,207.75 180,207.633333 180,207.5 L180,207.5 L180,200.225 L185.45,200.225 C186.383333,200.225 187.208333,200.0125 187.925,199.5875 C188.641667,199.1625 189.195833,198.570833 189.5875,197.8125 C189.979167,197.054167 190.175,196.208333 190.175,195.275 C190.175,193.858333 189.741667,192.708333 188.875,191.825 C188.008333,190.941667 186.866667,190.5 185.45,190.5 L185.45,190.5 L179.45,190.5 C179.316667,190.5 179.2,190.55 179.1,190.65 C179,190.75 178.95,190.866667 178.95,191 L178.95,191 L178.95,207.5 C178.95,207.633333 179,207.75 179.1,207.85 C179.2,207.95 179.325,208 179.475,208 Z M185.45,199.225 L180,199.225 L180,191.5 L185.45,191.5 C186.583333,191.5 187.479167,191.841667 188.1375,192.525 C188.795833,193.208333 189.125,194.125 189.125,195.275 C189.125,196.425 188.791667,197.370833 188.125,198.1125 C187.458333,198.854167 186.566667,199.225 185.45,199.225 L185.45,199.225 Z M199.875,213 C200.025,213 200.145833,212.95 200.2375,212.85 C200.329167,212.75 200.375,212.633333 200.375,212.5 L200.375,212.5 L200.375,205.275 C200.908333,206.191667 201.591667,206.9 202.425,207.4 C203.258333,207.9 204.175,208.15 205.175,208.15 C206.258333,208.15 207.241667,207.870833 208.125,207.3125 C209.008333,206.754167 209.704167,205.9875 210.2125,205.0125 C210.720833,204.0375 210.975,202.95 210.975,201.75 C210.975,200.533333 210.725,199.441667 210.225,198.475 C209.725,197.508333 209.033333,196.75 208.15,196.2 C207.266667,195.65 206.275,195.375 205.175,195.375 C204.141667,195.375 203.208333,195.604167 202.375,196.0625 C201.541667,196.520833 200.875,197.225 200.375,198.175 L200.375,198.175 L200.375,195.875 C200.375,195.741667 200.329167,195.625 200.2375,195.525 C200.145833,195.425 200.025,195.375 199.875,195.375 C199.725,195.375 199.604167,195.425 199.5125,195.525 C199.420833,195.625 199.375,195.741667 199.375,195.875 L199.375,195.875 L199.375,212.5 C199.375,212.633333 199.425,212.75 199.525,212.85 C199.625,212.95 199.741667,213 199.875,213 Z M205.125,207.2 C204.191667,207.2 203.354167,206.966667 202.6125,206.5 C201.870833,206.033333 201.295833,205.3875 200.8875,204.5625 C200.479167,203.7375 200.275,202.8 200.275,201.75 C200.275,200.7 200.479167,199.7625 200.8875,198.9375 C201.295833,198.1125 201.870833,197.470833 202.6125,197.0125 C203.354167,196.554167 204.191667,196.325 205.125,196.325 C206.041667,196.325 206.866667,196.558333 207.6,197.025 C208.333333,197.491667 208.9125,198.1375 209.3375,198.9625 C209.7625,199.7875 209.975,200.716667 209.975,201.75 C209.975,202.783333 209.7625,203.716667 209.3375,204.55 C208.9125,205.383333 208.333333,206.033333 207.6,206.5 C206.866667,206.966667 206.041667,207.2 205.125,207.2 Z M233.7,212.125 C234.316667,212.125 234.970833,212.020833 235.6625,211.8125 C236.354167,211.604167 236.933333,211.3375 237.4,211.0125 C237.866667,210.6875 238.1,210.366667 238.1,210.05 C238.1,209.916667 238.0625,209.8125 237.9875,209.7375 C237.9125,209.6625 237.808333,209.625 237.675,209.625 C237.575,209.625 237.470833,209.658333 237.3625,209.725 C237.254167,209.791667 237.15,209.875 237.05,209.975 C236.866667,210.158333 236.708333,210.283333 236.575,210.35 C236.158333,210.583333 235.729167,210.779167 235.2875,210.9375 C234.845833,211.095833 234.316667,211.175 233.7,211.175 C232.966667,211.175 232.325,211.083333 231.775,210.9 C231.225,210.716667 230.55,210.433333 229.75,210.05 C229.133333,209.75 228.604167,209.516667 228.1625,209.35 C227.720833,209.183333 227.241667,209.075 226.725,209.025 L226.725,209.025 L229.8,208.025 C231.05,207.741667 232.154167,207.191667 233.1125,206.375 C234.070833,205.558333 234.8125,204.541667 235.3375,203.325 C235.8625,202.108333 236.125,200.75 236.125,199.25 C236.125,197.5 235.770833,195.941667 235.0625,194.575 C234.354167,193.208333 233.366667,192.145833 232.1,191.3875 C230.833333,190.629167 229.391667,190.25 227.775,190.25 C226.158333,190.25 224.716667,190.629167 223.45,191.3875 C222.183333,192.145833 221.195833,193.208333 220.4875,194.575 C219.779167,195.941667 219.425,197.5 219.425,199.25 C219.425,200.933333 219.754167,202.4375 220.4125,203.7625 C221.070833,205.0875 221.9875,206.141667 223.1625,206.925 C224.3375,207.708333 225.683333,208.141667 227.2,208.225 L227.2,208.225 L223.55,209.5 C223.366667,209.583333 223.275,209.725 223.275,209.925 C223.275,210.075 223.325,210.2 223.425,210.3 C223.525,210.4 223.641667,210.45 223.775,210.45 C223.875,210.45 224.075,210.383333 224.375,210.25 C224.641667,210.133333 224.870833,210.045833 225.0625,209.9875 C225.254167,209.929167 225.466667,209.9 225.7,209.9 C226.35,209.9 226.925,209.983333 227.425,210.15 C227.925,210.316667 228.516667,210.575 229.2,210.925 C230.016667,211.325 230.741667,211.625 231.375,211.825 C232.008333,212.025 232.783333,212.125 233.7,212.125 Z M227.775,207.25 C226.358333,207.25 225.095833,206.916667 223.9875,206.25 C222.879167,205.583333 222.016667,204.641667 221.4,203.425 C220.783333,202.208333 220.475,200.816667 220.475,199.25 C220.475,197.683333 220.783333,196.291667 221.4,195.075 C222.016667,193.858333 222.879167,192.916667 223.9875,192.25 C225.095833,191.583333 226.358333,191.25 227.775,191.25 C229.191667,191.25 230.454167,191.583333 231.5625,192.25 C232.670833,192.916667 233.533333,193.858333 234.15,195.075 C234.766667,196.291667 235.075,197.683333 235.075,199.25 C235.075,200.816667 234.766667,202.208333 234.15,203.425 C233.533333,204.641667 232.670833,205.583333 231.5625,206.25 C230.454167,206.916667 229.191667,207.25 227.775,207.25 Z M256.225,213 C256.358333,213 256.475,212.95 256.575,212.85 C256.675,212.75 256.725,212.633333 256.725,212.5 L256.725,212.5 L256.725,195.875 C256.725,195.741667 256.679167,195.625 256.5875,195.525 C256.495833,195.425 256.375,195.375 256.225,195.375 C256.075,195.375 255.954167,195.425 255.8625,195.525 C255.770833,195.625 255.725,195.741667 255.725,195.875 L255.725,195.875 L255.725,198.275 C255.325,197.341667 254.683333,196.583333 253.8,196 C252.916667,195.416667 251.958333,195.125 250.925,195.125 C249.841667,195.125 248.858333,195.408333 247.975,195.975 C247.091667,196.541667 246.395833,197.325 245.8875,198.325 C245.379167,199.325 245.125,200.441667 245.125,201.675 C245.125,202.908333 245.379167,204.025 245.8875,205.025 C246.395833,206.025 247.091667,206.8125 247.975,207.3875 C248.858333,207.9625 249.841667,208.25 250.925,208.25 C251.991667,208.25 252.958333,207.95 253.825,207.35 C254.691667,206.75 255.325,206.008333 255.725,205.125 L255.725,205.125 L255.725,212.5 C255.725,212.633333 255.770833,212.75 255.8625,212.85 C255.954167,212.95 256.075,213 256.225,213 Z M250.975,207.3 C250.058333,207.3 249.233333,207.054167 248.5,206.5625 C247.766667,206.070833 247.1875,205.4 246.7625,204.55 C246.3375,203.7 246.125,202.741667 246.125,201.675 C246.125,200.625 246.3375,199.670833 246.7625,198.8125 C247.1875,197.954167 247.770833,197.283333 248.5125,196.8 C249.254167,196.316667 250.075,196.075 250.975,196.075 C251.891667,196.075 252.720833,196.316667 253.4625,196.8 C254.204167,197.283333 254.783333,197.95 255.2,198.8 C255.616667,199.65 255.825,200.608333 255.825,201.675 C255.825,202.741667 255.616667,203.704167 255.2,204.5625 C254.783333,205.420833 254.208333,206.091667 253.475,206.575 C252.741667,207.058333 251.908333,207.3 250.975,207.3 Z M267.825,208 C267.975,208 268.1,207.95 268.2,207.85 C268.3,207.75 268.35,207.633333 268.35,207.5 L268.35,207.5 L268.35,200.175 L274.2,200.175 C275.166667,200.175 276.016667,200.429167 276.75,200.9375 C277.483333,201.445833 277.85,202.383333 277.85,203.75 C277.85,205.1 277.983333,206.070833 278.25,206.6625 C278.516667,207.254167 278.875,207.675 279.325,207.925 C279.375,207.958333 279.45,207.975 279.55,207.975 C279.683333,207.975 279.795833,207.929167 279.8875,207.8375 C279.979167,207.745833 280.025,207.625 280.025,207.475 C280.025,207.291667 279.933333,207.141667 279.75,207.025 C279.466667,206.841667 279.254167,206.529167 279.1125,206.0875 C278.970833,205.645833 278.9,204.866667 278.9,203.75 C278.9,202.666667 278.641667,201.754167 278.125,201.0125 C277.608333,200.270833 276.95,199.775 276.15,199.525 C277.1,199.241667 277.870833,198.7 278.4625,197.9 C279.054167,197.1 279.35,196.141667 279.35,195.025 C279.35,194.158333 279.141667,193.383333 278.725,192.7 C278.308333,192.016667 277.725,191.479167 276.975,191.0875 C276.225,190.695833 275.366667,190.5 274.4,190.5 L274.4,190.5 L267.8,190.5 C267.666667,190.5 267.55,190.55 267.45,190.65 C267.35,190.75 267.3,190.866667 267.3,191 L267.3,191 L267.3,207.5 C267.3,207.633333 267.35,207.75 267.45,207.85 C267.55,207.95 267.675,208 267.825,208 Z M274.525,199.175 L268.35,199.175 L268.35,191.5 L274.275,191.5 C275.491667,191.5 276.466667,191.833333 277.2,192.5 C277.933333,193.166667 278.3,194.016667 278.3,195.05 C278.3,196.233333 277.933333,197.191667 277.2,197.925 C276.466667,198.658333 275.575,199.075 274.525,199.175 L274.525,199.175 Z M289.975,208 C290.108333,208 290.225,207.95 290.325,207.85 C290.425,207.75 290.475,207.633333 290.475,207.5 L290.475,207.5 L290.475,201.25 C290.475,200.483333 290.691667,199.6875 291.125,198.8625 C291.558333,198.0375 292.116667,197.354167 292.8,196.8125 C293.483333,196.270833 294.166667,196 294.85,196 C295.066667,196 295.270833,196.0375 295.4625,196.1125 C295.654167,196.1875 295.775,196.225 295.825,196.225 C295.958333,196.225 296.066667,196.175 296.15,196.075 C296.233333,195.975 296.275,195.85 296.275,195.7 C296.275,195.316667 295.891667,195.125 295.125,195.125 C294.025,195.141667 293.070833,195.483333 292.2625,196.15 C291.454167,196.816667 290.858333,197.658333 290.475,198.675 L290.475,198.675 L290.475,196.025 C290.475,195.891667 290.429167,195.775 290.3375,195.675 C290.245833,195.575 290.125,195.525 289.975,195.525 C289.841667,195.525 289.725,195.575 289.625,195.675 C289.525,195.775 289.475,195.891667 289.475,196.025 L289.475,196.025 L289.475,207.5 C289.475,207.633333 289.520833,207.75 289.6125,207.85 C289.704167,207.95 289.825,208 289.975,208 Z M309.575,208.25 C310.658333,208.25 311.620833,208.054167 312.4625,207.6625 C313.304167,207.270833 313.95,206.741667 314.4,206.075 C314.85,205.408333 315.075,204.691667 315.075,203.925 C315.075,202.825 314.833333,201.941667 314.35,201.275 C313.866667,200.608333 313.283333,200.1 312.6,199.75 C311.916667,199.4 310.991667,199.016667 309.825,198.6 C308.908333,198.266667 308.141667,197.945833 307.525,197.6375 C306.908333,197.329167 306.395833,196.925 305.9875,196.425 C305.579167,195.925 305.375,195.316667 305.375,194.6 C305.375,193.566667 305.795833,192.75 306.6375,192.15 C307.479167,191.55 308.533333,191.25 309.8,191.25 C310.683333,191.25 311.491667,191.425 312.225,191.775 C312.958333,192.125 313.558333,192.6 314.025,193.2 C314.108333,193.3 314.216667,193.35 314.35,193.35 C314.5,193.35 314.6375,193.295833 314.7625,193.1875 C314.8875,193.079167 314.95,192.958333 314.95,192.825 C314.95,192.708333 314.866667,192.533333 314.7,192.3 C314.183333,191.65 313.483333,191.145833 312.6,190.7875 C311.716667,190.429167 310.783333,190.25 309.8,190.25 C308.7,190.25 307.733333,190.441667 306.9,190.825 C306.066667,191.208333 305.425,191.733333 304.975,192.4 C304.525,193.066667 304.3,193.808333 304.3,194.625 C304.3,195.625 304.529167,196.433333 304.9875,197.05 C305.445833,197.666667 305.995833,198.141667 306.6375,198.475 C307.279167,198.808333 308.175,199.191667 309.325,199.625 C310.375,200.008333 311.204167,200.354167 311.8125,200.6625 C312.420833,200.970833 312.933333,201.383333 313.35,201.9 C313.766667,202.416667 313.983333,203.075 314,203.875 C314,204.891667 313.583333,205.708333 312.75,206.325 C311.916667,206.941667 310.858333,207.25 309.575,207.25 C308.591667,207.25 307.654167,207.05 306.7625,206.65 C305.870833,206.25 305.1,205.666667 304.45,204.9 C304.316667,204.75 304.175,204.675 304.025,204.675 C303.891667,204.675 303.766667,204.7375 303.65,204.8625 C303.533333,204.9875 303.475,205.116667 303.475,205.25 C303.475,205.4 303.525,205.525 303.625,205.625 C304.525,206.525 305.433333,207.1875 306.35,207.6125 C307.266667,208.0375 308.341667,208.25 309.575,208.25 Z M328.4,208.25 C329.7,208.25 330.754167,207.945833 331.5625,207.3375 C332.370833,206.729167 332.775,205.9 332.775,204.85 C332.775,204.1 332.608333,203.491667 332.275,203.025 C331.941667,202.558333 331.495833,202.195833 330.9375,201.9375 C330.379167,201.679167 329.675,201.441667 328.825,201.225 C327.641667,200.925 326.745833,200.579167 326.1375,200.1875 C325.529167,199.795833 325.2,199.241667 325.15,198.525 C325.15,197.758333 325.454167,197.158333 326.0625,196.725 C326.670833,196.291667 327.416667,196.075 328.3,196.075 C329.666667,196.075 330.783333,196.55 331.65,197.5 C331.733333,197.6 331.833333,197.65 331.95,197.65 C332.033333,197.65 332.141667,197.616667 332.275,197.55 C332.391667,197.433333 332.45,197.3 332.45,197.15 C332.45,197.016667 332.391667,196.9 332.275,196.8 C331.725,196.216667 331.1125,195.791667 330.4375,195.525 C329.7625,195.258333 329.083333,195.125 328.4,195.125 C327.166667,195.125 326.158333,195.445833 325.375,196.0875 C324.591667,196.729167 324.2,197.541667 324.2,198.525 C324.2,199.541667 324.5875,200.329167 325.3625,200.8875 C326.1375,201.445833 327.2,201.891667 328.55,202.225 C329.566667,202.475 330.366667,202.791667 330.95,203.175 C331.533333,203.558333 331.825,204.133333 331.825,204.9 C331.825,205.65 331.491667,206.245833 330.825,206.6875 C330.158333,207.129167 329.383333,207.35 328.5,207.35 C326.766667,207.35 325.416667,206.658333 324.45,205.275 C324.35,205.141667 324.216667,205.075 324.05,205.075 C323.933333,205.075 323.833333,205.116667 323.75,205.2 C323.616667,205.3 323.55,205.408333 323.55,205.525 C323.55,205.658333 323.608333,205.816667 323.725,206 C324.941667,207.5 326.5,208.25 328.4,208.25 Z M346.3,208 C346.433333,208 346.55,207.95 346.65,207.85 C346.75,207.75 346.8,207.633333 346.8,207.5 L346.8,207.5 L346.8,191.45 L352.375,191.45 C352.525,191.45 352.645833,191.408333 352.7375,191.325 C352.829167,191.241667 352.875,191.125 352.875,190.975 C352.875,190.841667 352.825,190.729167 352.725,190.6375 C352.625,190.545833 352.508333,190.5 352.375,190.5 L352.375,190.5 L340.225,190.5 C340.091667,190.5 339.975,190.545833 339.875,190.6375 C339.775,190.729167 339.725,190.841667 339.725,190.975 C339.725,191.108333 339.775,191.220833 339.875,191.3125 C339.975,191.404167 340.091667,191.45 340.225,191.45 L340.225,191.45 L345.8,191.45 L345.8,207.5 C345.8,207.633333 345.845833,207.75 345.9375,207.85 C346.029167,207.95 346.15,208 346.3,208 Z M365.125,208 C365.391667,208 365.625,207.945833 365.825,207.8375 C366.025,207.729167 366.125,207.6 366.125,207.45 C366.125,207.333333 366.083333,207.229167 366,207.1375 C365.916667,207.045833 365.816667,207 365.7,207 C365.616667,207 365.5125,207.016667 365.3875,207.05 C365.2625,207.083333 365.166667,207.1 365.1,207.1 C364.7,207.1 364.370833,206.979167 364.1125,206.7375 C363.854167,206.495833 363.725,206.008333 363.725,205.275 L363.725,205.275 L363.725,196.375 L366.475,196.375 C366.608333,196.375 366.720833,196.329167 366.8125,196.2375 C366.904167,196.145833 366.95,196.033333 366.95,195.9 C366.95,195.783333 366.9,195.675 366.8,195.575 C366.7,195.475 366.591667,195.425 366.475,195.425 L366.475,195.425 L363.725,195.425 L363.725,192.25 C363.725,192.116667 363.679167,192 363.5875,191.9 C363.495833,191.8 363.375,191.75 363.225,191.75 C363.091667,191.75 362.975,191.8 362.875,191.9 C362.775,192 362.725,192.116667 362.725,192.25 L362.725,192.25 L362.725,195.425 L360.675,195.425 C360.541667,195.425 360.429167,195.470833 360.3375,195.5625 C360.245833,195.654167 360.2,195.766667 360.2,195.9 C360.2,196.016667 360.25,196.125 360.35,196.225 C360.45,196.325 360.558333,196.375 360.675,196.375 L360.675,196.375 L362.725,196.375 L362.725,205.325 C362.725,206.208333 362.879167,206.845833 363.1875,207.2375 C363.495833,207.629167 363.791667,207.854167 364.075,207.9125 C364.358333,207.970833 364.708333,208 365.125,208 Z M395.35,208.25 C396.5,208.25 397.566667,207.958333 398.55,207.375 C399.533333,206.791667 400.316667,206.008333 400.9,205.025 C401.483333,204.041667 401.775,202.966667 401.775,201.8 L401.775,201.8 L401.775,191 C401.775,190.866667 401.729167,190.75 401.6375,190.65 C401.545833,190.55 401.425,190.5 401.275,190.5 C401.125,190.5 401.004167,190.55 400.9125,190.65 C400.820833,190.75 400.775,190.866667 400.775,191 L400.775,191 L400.775,201.8 C400.775,202.783333 400.529167,203.691667 400.0375,204.525 C399.545833,205.358333 398.8875,206.020833 398.0625,206.5125 C397.2375,207.004167 396.333333,207.25 395.35,207.25 C394.366667,207.25 393.4625,207.004167 392.6375,206.5125 C391.8125,206.020833 391.158333,205.358333 390.675,204.525 C390.191667,203.691667 389.95,202.783333 389.95,201.8 L389.95,201.8 L389.95,191 C389.95,190.866667 389.9,190.75 389.8,190.65 C389.7,190.55 389.575,190.5 389.425,190.5 C389.275,190.5 389.15,190.545833 389.05,190.6375 C388.95,190.729167 388.9,190.85 388.9,191 L388.9,191 L388.9,201.8 C388.9,202.966667 389.191667,204.041667 389.775,205.025 C390.358333,206.008333 391.141667,206.791667 392.125,207.375 C393.108333,207.958333 394.183333,208.25 395.35,208.25 Z M417.3,208.15 C418.833333,208.15 420.045833,207.7375 420.9375,206.9125 C421.829167,206.0875 422.275,204.883333 422.275,203.3 L422.275,203.3 L422.275,196.025 C422.275,195.891667 422.229167,195.775 422.1375,195.675 C422.045833,195.575 421.925,195.525 421.775,195.525 C421.625,195.525 421.504167,195.575 421.4125,195.675 C421.320833,195.775 421.275,195.891667 421.275,196.025 L421.275,196.025 L421.275,203.3 C421.275,204.55 420.925,205.5125 420.225,206.1875 C419.525,206.8625 418.55,207.2 417.3,207.2 C416.066667,207.2 415.1,206.8625 414.4,206.1875 C413.7,205.5125 413.35,204.55 413.35,203.3 L413.35,203.3 L413.35,196.025 C413.35,195.891667 413.304167,195.775 413.2125,195.675 C413.120833,195.575 413,195.525 412.85,195.525 C412.716667,195.525 412.6,195.575 412.5,195.675 C412.4,195.775 412.35,195.891667 412.35,196.025 L412.35,196.025 L412.35,203.3 C412.35,204.883333 412.791667,206.0875 413.675,206.9125 C414.558333,207.7375 415.766667,208.15 417.3,208.15 Z M8.25,243 C8.46666667,243 8.625,242.891667 8.725,242.675 L8.725,242.675 L15.575,226.2 C15.6083333,226.1 15.625,226.016667 15.625,225.95 C15.625,225.816667 15.5791667,225.708333 15.4875,225.625 C15.3958333,225.541667 15.275,225.5 15.125,225.5 C14.925,225.5 14.7666667,225.608333 14.65,225.825 L14.65,225.825 L8.275,241.175 L1.925,225.9 C1.80833333,225.633333 1.625,225.5 1.375,225.5 C1.24166667,225.5 1.12916667,225.545833 1.0375,225.6375 C0.945833333,225.729167 0.9,225.841667 0.9,225.975 C0.9,226.075 0.925,226.175 0.975,226.275 L0.975,226.275 L7.775,242.675 C7.80833333,242.775 7.87083333,242.854167 7.9625,242.9125 C8.05416667,242.970833 8.15,243 8.25,243 Z M28.975,243 C29.075,243 29.1708333,242.970833 29.2625,242.9125 C29.3541667,242.854167 29.4166667,242.775 29.45,242.675 L29.45,242.675 L34.425,230.775 C34.475,230.675 34.5,230.575 34.5,230.475 C34.5,230.358333 34.4458333,230.2625 34.3375,230.1875 C34.2291667,230.1125 34.125,230.075 34.025,230.075 C33.7583333,230.075 33.5833333,230.183333 33.5,230.4 L33.5,230.4 L28.95,241.275 L24.425,230.4 C24.3916667,230.3 24.3291667,230.220833 24.2375,230.1625 C24.1458333,230.104167 24.0583333,230.075 23.975,230.075 C23.8083333,230.075 23.6791667,230.125 23.5875,230.225 C23.4958333,230.325 23.45,230.441667 23.45,230.575 C23.45,230.625 23.4666667,230.7 23.5,230.8 L23.5,230.8 L28.5,242.675 C28.5333333,242.775 28.5958333,242.854167 28.6875,242.9125 C28.7791667,242.970833 28.875,243 28.975,243 Z M58.7,243 C58.7833333,243 58.8708333,242.970833 58.9625,242.9125 C59.0541667,242.854167 59.1166667,242.775 59.15,242.675 L59.15,242.675 L64.875,226.175 L64.925,225.925 C64.925,225.775 64.875,225.658333 64.775,225.575 C64.675,225.491667 64.55,225.45 64.4,225.45 C64.15,225.45 63.9833333,225.558333 63.9,225.775 L63.9,225.775 L58.625,241.1 L54.1,229.7 C54.0666667,229.6 54.0041667,229.520833 53.9125,229.4625 C53.8208333,229.404167 53.725,229.375 53.625,229.375 C53.3916667,229.375 53.2333333,229.483333 53.15,229.7 L53.15,229.7 L48.65,241.075 L43.35,225.775 C43.3166667,225.675 43.2541667,225.595833 43.1625,225.5375 C43.0708333,225.479167 42.975,225.45 42.875,225.45 C42.7416667,225.45 42.6166667,225.495833 42.5,225.5875 C42.3833333,225.679167 42.325,225.8 42.325,225.95 L42.325,225.95 L42.375,226.175 L48.1,242.675 C48.1166667,242.775 48.1666667,242.854167 48.25,242.9125 C48.3333333,242.970833 48.425,243 48.525,243 C48.7916667,243 48.9666667,242.9 49.05,242.7 L49.05,242.7 L53.625,231.15 L58.2,242.7 C58.2666667,242.9 58.4333333,243 58.7,243 Z M85.1,243 C85.3166667,243 85.475,242.891667 85.575,242.675 L85.575,242.675 L89.45,230.8 L89.5,230.55 C89.5,230.4 89.45,230.283333 89.35,230.2 C89.25,230.116667 89.125,230.075 88.975,230.075 C88.7583333,230.075 88.6083333,230.183333 88.525,230.4 L88.525,230.4 L85.05,241.225 L81.525,233.075 C81.4916667,232.975 81.4291667,232.895833 81.3375,232.8375 C81.2458333,232.779167 81.15,232.75 81.05,232.75 C80.95,232.75 80.8541667,232.779167 80.7625,232.8375 C80.6708333,232.895833 80.6083333,232.975 80.575,233.075 L80.575,233.075 L77.25,241.3 L73.725,230.4 C73.6416667,230.183333 73.4916667,230.075 73.275,230.075 C73.125,230.075 73,230.116667 72.9,230.2 C72.8,230.283333 72.75,230.4 72.75,230.55 L72.75,230.55 L72.8,230.8 L76.8,242.675 C76.8333333,242.775 76.8958333,242.854167 76.9875,242.9125 C77.0791667,242.970833 77.175,243 77.275,243 C77.375,243 77.4708333,242.970833 77.5625,242.9125 C77.6541667,242.854167 77.7166667,242.775 77.75,242.675 L77.75,242.675 L81,234.5 L84.625,242.675 C84.7416667,242.891667 84.9,243 85.1,243 Z M109.475,243.075 C109.625,243.075 109.75,243.029167 109.85,242.9375 C109.95,242.845833 110,242.725 110,242.575 C110,242.491667 109.958333,242.391667 109.875,242.275 L109.875,242.275 L104,234.25 L109.875,226.15 C109.958333,226.033333 110,225.916667 110,225.8 C110,225.683333 109.954167,225.5875 109.8625,225.5125 C109.770833,225.4375 109.65,225.4 109.5,225.4 C109.35,225.4 109.225,225.466667 109.125,225.6 L109.125,225.6 L103.425,233.45 L97.7,225.625 C97.6166667,225.491667 97.475,225.425 97.275,225.425 C97.1416667,225.425 97.025,225.470833 96.925,225.5625 C96.825,225.654167 96.775,225.775 96.775,225.925 C96.775,226.041667 96.8083333,226.141667 96.875,226.225 L96.875,226.225 L102.8,234.3 L96.925,242.325 C96.8416667,242.458333 96.8,242.566667 96.8,242.65 C96.8,242.75 96.8416667,242.845833 96.925,242.9375 C97.0083333,243.029167 97.125,243.075 97.275,243.075 C97.4416667,243.075 97.5666667,243.008333 97.65,242.875 L97.65,242.875 L103.35,235.075 L109.075,242.875 C109.158333,243.008333 109.291667,243.075 109.475,243.075 Z M127.325,243.1 C127.458333,243.1 127.570833,243.05 127.6625,242.95 C127.754167,242.85 127.8,242.733333 127.8,242.6 C127.8,242.483333 127.766667,242.383333 127.7,242.3 L127.7,242.3 L123.425,236.7 L127.675,231 C127.758333,230.883333 127.8,230.775 127.8,230.675 C127.8,230.558333 127.758333,230.458333 127.675,230.375 C127.591667,230.291667 127.475,230.25 127.325,230.25 C127.175,230.25 127.033333,230.325 126.9,230.475 L126.9,230.475 L122.825,235.9 L118.675,230.475 C118.575,230.325 118.441667,230.25 118.275,230.25 C118.141667,230.25 118.020833,230.3 117.9125,230.4 C117.804167,230.5 117.75,230.625 117.75,230.775 C117.75,230.891667 117.783333,230.991667 117.85,231.075 L117.85,231.075 L122.2,236.75 L117.9,242.325 C117.833333,242.408333 117.8,242.508333 117.8,242.625 C117.8,242.775 117.845833,242.891667 117.9375,242.975 C118.029167,243.058333 118.141667,243.1 118.275,243.1 C118.441667,243.1 118.575,243.033333 118.675,242.9 L118.675,242.9 L122.8,237.525 L126.9,242.875 C127.033333,243.025 127.175,243.1 127.325,243.1 Z M141.175,243 C141.325,243 141.45,242.95 141.55,242.85 C141.65,242.75 141.7,242.633333 141.7,242.5 L141.7,242.5 L141.7,233.95 L147.4,226.2 C147.466667,226.066667 147.5,225.958333 147.5,225.875 C147.5,225.775 147.454167,225.670833 147.3625,225.5625 C147.270833,225.454167 147.15,225.4 147,225.4 C146.816667,225.4 146.675,225.475 146.575,225.625 L146.575,225.625 L141.175,233 L135.775,225.625 C135.675,225.475 135.533333,225.4 135.35,225.4 C135.216667,225.4 135.095833,225.45 134.9875,225.55 C134.879167,225.65 134.825,225.758333 134.825,225.875 C134.825,226.008333 134.858333,226.116667 134.925,226.2 L134.925,226.2 L140.65,234.05 L140.65,242.5 C140.65,242.633333 140.7,242.75 140.8,242.85 C140.9,242.95 141.025,243 141.175,243 Z M159.825,248 C160.958333,248 161.970833,247.745833 162.8625,247.2375 C163.754167,246.729167 164.454167,246.004167 164.9625,245.0625 C165.470833,244.120833 165.725,243.025 165.725,241.775 L165.725,241.775 L165.725,230.625 C165.725,230.491667 165.679167,230.375 165.5875,230.275 C165.495833,230.175 165.375,230.125 165.225,230.125 C165.075,230.125 164.954167,230.175 164.8625,230.275 C164.770833,230.375 164.725,230.491667 164.725,230.625 L164.725,230.625 L164.725,238.425 C164.725,239.058333 164.508333,239.675 164.075,240.275 C163.641667,240.875 163.079167,241.3625 162.3875,241.7375 C161.695833,242.1125 160.991667,242.3 160.275,242.3 C157.975,242.3 156.825,241.008333 156.825,238.425 L156.825,238.425 L156.825,230.625 C156.825,230.491667 156.779167,230.375 156.6875,230.275 C156.595833,230.175 156.475,230.125 156.325,230.125 C156.175,230.125 156.054167,230.175 155.9625,230.275 C155.870833,230.375 155.825,230.491667 155.825,230.625 L155.825,230.625 L155.825,238.425 C155.825,239.925 156.191667,241.104167 156.925,241.9625 C157.658333,242.820833 158.775,243.25 160.275,243.25 C161.175,243.25 162.045833,243.004167 162.8875,242.5125 C163.729167,242.020833 164.341667,241.4 164.725,240.65 L164.725,240.65 L164.725,241.775 C164.725,242.808333 164.520833,243.729167 164.1125,244.5375 C163.704167,245.345833 163.133333,245.975 162.4,246.425 C161.666667,246.875 160.825,247.1 159.875,247.1 C159.241667,247.1 158.645833,247.004167 158.0875,246.8125 C157.529167,246.620833 157.05,246.4 156.65,246.15 C156.583333,246.1 156.508333,246.075 156.425,246.075 C156.258333,246.075 156.116667,246.175 156,246.375 C155.883333,246.625 155.975,246.85 156.275,247.05 C156.691667,247.333333 157.204167,247.5625 157.8125,247.7375 C158.420833,247.9125 159.091667,248 159.825,248 Z M187.85,243 C187.983333,243 188.1,242.954167 188.2,242.8625 C188.3,242.770833 188.35,242.658333 188.35,242.525 C188.35,242.408333 188.3,242.3 188.2,242.2 C188.1,242.1 187.983333,242.05 187.85,242.05 L187.85,242.05 L176.5,242.05 L188.275,226.3 C188.341667,226.216667 188.375,226.116667 188.375,226 C188.375,225.866667 188.329167,225.75 188.2375,225.65 C188.145833,225.55 188,225.5 187.8,225.5 L187.8,225.5 L176.05,225.5 C175.916667,225.5 175.8,225.545833 175.7,225.6375 C175.6,225.729167 175.55,225.841667 175.55,225.975 C175.55,226.108333 175.6,226.220833 175.7,226.3125 C175.8,226.404167 175.916667,226.45 176.05,226.45 L176.05,226.45 L186.95,226.45 L175.15,242.175 C175.083333,242.258333 175.05,242.358333 175.05,242.475 C175.05,242.608333 175.095833,242.729167 175.1875,242.8375 C175.279167,242.945833 175.4,243 175.55,243 L175.55,243 L187.85,243 Z M205.55,243 C205.683333,243 205.8,242.954167 205.9,242.8625 C206,242.770833 206.05,242.658333 206.05,242.525 C206.05,242.408333 206,242.3 205.9,242.2 C205.8,242.1 205.683333,242.05 205.55,242.05 L205.55,242.05 L198.275,242.05 L206.175,230.975 C206.258333,230.858333 206.3,230.741667 206.3,230.625 C206.283333,230.491667 206.229167,230.375 206.1375,230.275 C206.045833,230.175 205.933333,230.125 205.8,230.125 L205.8,230.125 L198.15,230.125 C198.016667,230.125 197.9,230.170833 197.8,230.2625 C197.7,230.354167 197.65,230.466667 197.65,230.6 C197.65,230.733333 197.7,230.845833 197.8,230.9375 C197.9,231.029167 198.016667,231.075 198.15,231.075 L198.15,231.075 L204.9,231.075 L197,242.175 C196.916667,242.291667 196.875,242.4 196.875,242.5 C196.875,242.6 196.925,242.708333 197.025,242.825 C197.125,242.941667 197.25,243 197.4,243 L197.4,243 L205.55,243 Z M5.05,313 C5.2,313 5.325,312.95 5.425,312.85 C5.525,312.75 5.575,312.633333 5.575,312.5 L5.575,312.5 L5.575,296 C5.575,295.85 5.52916667,295.725 5.4375,295.625 C5.34583333,295.525 5.225,295.475 5.075,295.475 C4.95833333,295.475 4.85833333,295.508333 4.775,295.575 L4.775,295.575 L0.4,298.2 C0.216666667,298.333333 0.125,298.475 0.125,298.625 C0.125,298.741667 0.179166667,298.8625 0.2875,298.9875 C0.395833333,299.1125 0.525,299.175 0.675,299.175 C0.758333333,299.175 0.825,299.158333 0.875,299.125 L0.875,299.125 L4.525,296.95 L4.525,312.5 C4.525,312.633333 4.575,312.75 4.675,312.85 C4.775,312.95 4.9,313 5.05,313 Z M26.75,313 C26.8833333,313 27,312.954167 27.1,312.8625 C27.2,312.770833 27.25,312.65 27.25,312.5 C27.25,312.366667 27.2,312.25 27.1,312.15 C27,312.05 26.8833333,312 26.75,312 L26.75,312 L18.2,312 L23.3,306.2 C24.5333333,304.866667 25.3916667,303.733333 25.875,302.8 C26.3583333,301.866667 26.6,300.958333 26.6,300.075 C26.6,298.625 26.1333333,297.458333 25.2,296.575 C24.2666667,295.691667 22.9583333,295.25 21.275,295.25 C20.1583333,295.25 19.1625,295.516667 18.2875,296.05 C17.4125,296.583333 16.7833333,297.35 16.4,298.35 C16.3166667,298.566667 16.275,298.716667 16.275,298.8 C16.275,298.9 16.3375,298.991667 16.4625,299.075 C16.5875,299.158333 16.7083333,299.2 16.825,299.2 C16.9583333,299.2 17.0625,299.158333 17.1375,299.075 C17.2125,298.991667 17.2666667,298.9 17.3,298.8 C17.6,297.916667 18.0958333,297.270833 18.7875,296.8625 C19.4791667,296.454167 20.2833333,296.25 21.2,296.25 C22.5833333,296.25 23.6458333,296.591667 24.3875,297.275 C25.1291667,297.958333 25.5,298.925 25.5,300.175 C25.5,300.991667 25.2583333,301.820833 24.775,302.6625 C24.2916667,303.504167 23.525,304.483333 22.475,305.6 L22.475,305.6 L16.6,312.15 C16.5166667,312.266667 16.475,312.375 16.475,312.475 C16.475,312.658333 16.5375,312.791667 16.6625,312.875 C16.7875,312.958333 16.9333333,313 17.1,313 L17.1,313 L26.75,313 Z M40.05,313.25 C41.1166667,313.25 42.1083333,313.004167 43.025,312.5125 C43.9416667,312.020833 44.6708333,311.3375 45.2125,310.4625 C45.7541667,309.5875 46.025,308.591667 46.025,307.475 C46.025,306.291667 45.7625,305.283333 45.2375,304.45 C44.7125,303.616667 44.0333333,302.991667 43.2,302.575 C42.3666667,302.158333 41.4833333,301.95 40.55,301.95 C40.45,301.95 40.3666667,301.958333 40.3,301.975 L40.3,301.975 L45.275,296.375 C45.375,296.275 45.425,296.158333 45.425,296.025 C45.425,295.925 45.3833333,295.8125 45.3,295.6875 C45.2166667,295.5625 45.0833333,295.5 44.9,295.5 L44.9,295.5 L36.25,295.5 C36.1166667,295.5 36,295.545833 35.9,295.6375 C35.8,295.729167 35.75,295.85 35.75,296 C35.75,296.133333 35.8,296.25 35.9,296.35 C36,296.45 36.1166667,296.5 36.25,296.5 L36.25,296.5 L43.825,296.5 L38.775,302.15 C38.6916667,302.233333 38.65,302.35 38.65,302.5 C38.65,302.666667 38.6958333,302.8 38.7875,302.9 C38.8791667,303 39,303.05 39.15,303.05 C39.1833333,303.05 39.3208333,303.0375 39.5625,303.0125 C39.8041667,302.9875 40.0083333,302.975 40.175,302.975 C40.9916667,302.975 41.7666667,303.133333 42.5,303.45 C43.2333333,303.766667 43.8291667,304.2625 44.2875,304.9375 C44.7458333,305.6125 44.975,306.458333 44.975,307.475 C44.975,308.375 44.7583333,309.1875 44.325,309.9125 C43.8916667,310.6375 43.3,311.2 42.55,311.6 C41.8,312 40.9666667,312.2 40.05,312.2 C38.7333333,312.2 37.7083333,311.8 36.975,311 C36.825,310.833333 36.675,310.75 36.525,310.75 C36.375,310.75 36.25,310.808333 36.15,310.925 C36.05,311.041667 36,311.166667 36,311.3 C36,311.433333 36.05,311.55 36.15,311.65 C36.65,312.183333 37.2375,312.583333 37.9125,312.85 C38.5875,313.116667 39.3,313.25 40.05,313.25 Z M62.475,313 C62.6083333,313 62.725,312.95 62.825,312.85 C62.925,312.75 62.975,312.633333 62.975,312.5 L62.975,312.5 L62.975,307.375 L64.875,307.375 C65.0083333,307.375 65.125,307.329167 65.225,307.2375 C65.325,307.145833 65.375,307.033333 65.375,306.9 C65.375,306.766667 65.325,306.654167 65.225,306.5625 C65.125,306.470833 65.0083333,306.425 64.875,306.425 L64.875,306.425 L62.975,306.425 L62.975,296 C62.975,295.866667 62.9291667,295.75 62.8375,295.65 C62.7458333,295.55 62.625,295.5 62.475,295.5 C62.2916667,295.5 62.15,295.566667 62.05,295.7 L62.05,295.7 L53.975,306.525 C53.8916667,306.608333 53.85,306.716667 53.85,306.85 C53.85,306.983333 53.8958333,307.104167 53.9875,307.2125 C54.0791667,307.320833 54.2,307.375 54.35,307.375 L54.35,307.375 L61.975,307.375 L61.975,312.5 C61.975,312.633333 62.0208333,312.75 62.1125,312.85 C62.2041667,312.95 62.325,313 62.475,313 Z M61.975,306.425 L55.3,306.425 L61.975,297.45 L61.975,306.425 Z M77.625,312.975 C78.875,312.975 79.9666667,312.725 80.9,312.225 C81.8333333,311.725 82.5541667,311.020833 83.0625,310.1125 C83.5708333,309.204167 83.825,308.15 83.825,306.95 C83.825,305.883333 83.5833333,304.929167 83.1,304.0875 C82.6166667,303.245833 81.95,302.591667 81.1,302.125 C80.25,301.658333 79.3,301.425 78.25,301.425 C76.95,301.425 75.7333333,301.7 74.6,302.25 L74.6,302.25 L75.625,296.55 L82.875,296.55 C83.0083333,296.55 83.125,296.5 83.225,296.4 C83.325,296.3 83.375,296.175 83.375,296.025 C83.375,295.875 83.325,295.75 83.225,295.65 C83.125,295.55 83.0083333,295.5 82.875,295.5 L82.875,295.5 L75.25,295.5 C75.1,295.5 74.975,295.545833 74.875,295.6375 C74.775,295.729167 74.7166667,295.825 74.7,295.925 L74.7,295.925 L73.525,302.95 C73.475,303.116667 73.5125,303.258333 73.6375,303.375 C73.7625,303.491667 73.9,303.55 74.05,303.55 C74.0833333,303.55 74.2666667,303.475 74.6,303.325 C75.15,303.058333 75.6833333,302.8375 76.2,302.6625 C76.7166667,302.4875 77.275,302.4 77.875,302.4 C79.4083333,302.4 80.6166667,302.825 81.5,303.675 C82.3833333,304.525 82.825,305.641667 82.825,307.025 C82.825,308.508333 82.35,309.704167 81.4,310.6125 C80.45,311.520833 79.1916667,311.975 77.625,311.975 C76.3916667,311.975 75.2833333,311.575 74.3,310.775 C74.2,310.675 74.0833333,310.625 73.95,310.625 C73.8166667,310.625 73.7,310.691667 73.6,310.825 C73.5,310.958333 73.45,311.083333 73.45,311.2 C73.45,311.35 73.5166667,311.475 73.65,311.575 C74.2,312.041667 74.8166667,312.391667 75.5,312.625 C76.1833333,312.858333 76.8916667,312.975 77.625,312.975 Z M98.775,313.25 C99.7916667,313.25 100.708333,312.991667 101.525,312.475 C102.341667,311.958333 102.983333,311.279167 103.45,310.4375 C103.916667,309.595833 104.15,308.691667 104.15,307.725 C104.15,306.758333 103.941667,305.8375 103.525,304.9625 C103.108333,304.0875 102.5125,303.379167 101.7375,302.8375 C100.9625,302.295833 100.066667,302.025 99.05,302.025 C98.1666667,302.025 97.3333333,302.216667 96.55,302.6 C95.7666667,302.983333 95.1,303.516667 94.55,304.2 C94.8333333,303.066667 95.3125,301.9375 95.9875,300.8125 C96.6625,299.6875 97.4541667,298.683333 98.3625,297.8 C99.2708333,296.916667 100.2,296.266667 101.15,295.85 C101.383333,295.75 101.5,295.6 101.5,295.4 C101.5,295.216667 101.45,295.075 101.35,294.975 C101.25,294.875 101.116667,294.825 100.95,294.825 C100.9,294.825 100.825,294.841667 100.725,294.875 C99.2583333,295.491667 97.9416667,296.491667 96.775,297.875 C95.6083333,299.258333 94.7,300.7875 94.05,302.4625 C93.4,304.1375 93.075,305.716667 93.075,307.2 C93.075,308.266667 93.2791667,309.258333 93.6875,310.175 C94.0958333,311.091667 94.725,311.833333 95.575,312.4 C96.425,312.966667 97.4916667,313.25 98.775,313.25 Z M98.725,312.25 C97.775,312.25 96.95,312.045833 96.25,311.6375 C95.55,311.229167 95.0166667,310.6875 94.65,310.0125 C94.2833333,309.3375 94.1,308.608333 94.1,307.825 C94.1,306.958333 94.2875,306.1625 94.6625,305.4375 C95.0375,304.7125 95.5875,304.133333 96.3125,303.7 C97.0375,303.266667 97.8916667,303.05 98.875,303.05 C99.775,303.05 100.541667,303.266667 101.175,303.7 C101.808333,304.133333 102.2875,304.708333 102.6125,305.425 C102.9375,306.141667 103.1,306.908333 103.1,307.725 C103.1,308.608333 102.9125,309.391667 102.5375,310.075 C102.1625,310.758333 101.645833,311.291667 100.9875,311.675 C100.329167,312.058333 99.575,312.25 98.725,312.25 Z M115.15,313.05 C115.266667,313.05 115.370833,313.020833 115.4625,312.9625 C115.554167,312.904167 115.616667,312.825 115.65,312.725 L115.65,312.725 L122.625,296.2 C122.658333,296.133333 122.675,296.05 122.675,295.95 C122.675,295.65 122.533333,295.5 122.25,295.5 L122.25,295.5 L112.9,295.5 C112.766667,295.5 112.65,295.545833 112.55,295.6375 C112.45,295.729167 112.4,295.85 112.4,296 C112.4,296.15 112.45,296.270833 112.55,296.3625 C112.65,296.454167 112.766667,296.5 112.9,296.5 L112.9,296.5 L121.375,296.5 L114.675,312.35 C114.641667,312.45 114.625,312.533333 114.625,312.6 C114.625,312.733333 114.683333,312.841667 114.8,312.925 C114.916667,313.008333 115.033333,313.05 115.15,313.05 Z M136.375,313.25 C137.341667,313.25 138.225,313.0375 139.025,312.6125 C139.825,312.1875 140.454167,311.616667 140.9125,310.9 C141.370833,310.183333 141.6,309.391667 141.6,308.525 C141.6,307.525 141.320833,306.641667 140.7625,305.875 C140.204167,305.108333 139.5,304.541667 138.65,304.175 C139.35,303.825 139.941667,303.291667 140.425,302.575 C140.908333,301.858333 141.15,301.05 141.15,300.15 C141.15,299.283333 140.9375,298.495833 140.5125,297.7875 C140.0875,297.079167 139.508333,296.520833 138.775,296.1125 C138.041667,295.704167 137.241667,295.5 136.375,295.5 C135.491667,295.5 134.683333,295.704167 133.95,296.1125 C133.216667,296.520833 132.6375,297.079167 132.2125,297.7875 C131.7875,298.495833 131.575,299.283333 131.575,300.15 C131.575,301.033333 131.820833,301.841667 132.3125,302.575 C132.804167,303.308333 133.4,303.85 134.1,304.2 C133.25,304.583333 132.55,305.15 132,305.9 C131.45,306.65 131.175,307.525 131.175,308.525 C131.175,309.391667 131.404167,310.1875 131.8625,310.9125 C132.320833,311.6375 132.945833,312.208333 133.7375,312.625 C134.529167,313.041667 135.408333,313.25 136.375,313.25 Z M136.375,303.825 C135.725,303.825 135.1125,303.670833 134.5375,303.3625 C133.9625,303.054167 133.5,302.620833 133.15,302.0625 C132.8,301.504167 132.625,300.866667 132.625,300.15 C132.625,299.066667 132.970833,298.1875 133.6625,297.5125 C134.354167,296.8375 135.258333,296.5 136.375,296.5 C137.475,296.5 138.370833,296.8375 139.0625,297.5125 C139.754167,298.1875 140.1,299.066667 140.1,300.15 C140.1,300.866667 139.925,301.504167 139.575,302.0625 C139.225,302.620833 138.766667,303.054167 138.2,303.3625 C137.633333,303.670833 137.025,303.825 136.375,303.825 Z M136.375,312.25 C135.141667,312.25 134.141667,311.904167 133.375,311.2125 C132.608333,310.520833 132.225,309.625 132.225,308.525 C132.225,307.808333 132.4125,307.1625 132.7875,306.5875 C133.1625,306.0125 133.670833,305.558333 134.3125,305.225 C134.954167,304.891667 135.641667,304.725 136.375,304.725 C137.108333,304.725 137.795833,304.891667 138.4375,305.225 C139.079167,305.558333 139.591667,306.0125 139.975,306.5875 C140.358333,307.1625 140.55,307.808333 140.55,308.525 C140.55,309.625 140.166667,310.520833 139.4,311.2125 C138.633333,311.904167 137.625,312.25 136.375,312.25 Z M154.05,313.3 C154.1,313.3 154.175,313.283333 154.275,313.25 C155.758333,312.616667 157.083333,311.641667 158.25,310.325 C159.416667,309.008333 160.320833,307.545833 160.9625,305.9375 C161.604167,304.329167 161.925,302.783333 161.925,301.3 C161.925,300.233333 161.720833,299.241667 161.3125,298.325 C160.904167,297.408333 160.275,296.666667 159.425,296.1 C158.575,295.533333 157.508333,295.25 156.225,295.25 C155.208333,295.25 154.291667,295.508333 153.475,296.025 C152.658333,296.541667 152.016667,297.220833 151.55,298.0625 C151.083333,298.904167 150.85,299.808333 150.85,300.775 C150.85,301.741667 151.058333,302.658333 151.475,303.525 C151.891667,304.391667 152.4875,305.091667 153.2625,305.625 C154.0375,306.158333 154.933333,306.425 155.95,306.425 C156.833333,306.425 157.670833,306.2375 158.4625,305.8625 C159.254167,305.4875 159.916667,304.966667 160.45,304.3 C160.166667,305.4 159.6875,306.483333 159.0125,307.55 C158.3375,308.616667 157.545833,309.566667 156.6375,310.4 C155.729167,311.233333 154.8,311.858333 153.85,312.275 C153.616667,312.375 153.5,312.525 153.5,312.725 C153.5,312.875 153.554167,313.008333 153.6625,313.125 C153.770833,313.241667 153.9,313.3 154.05,313.3 Z M156.125,305.4 C155.225,305.4 154.454167,305.1875 153.8125,304.7625 C153.170833,304.3375 152.691667,303.770833 152.375,303.0625 C152.058333,302.354167 151.9,301.591667 151.9,300.775 C151.9,299.891667 152.0875,299.108333 152.4625,298.425 C152.8375,297.741667 153.354167,297.208333 154.0125,296.825 C154.670833,296.441667 155.425,296.25 156.275,296.25 C157.225,296.25 158.05,296.454167 158.75,296.8625 C159.45,297.270833 159.983333,297.8125 160.35,298.4875 C160.716667,299.1625 160.9,299.891667 160.9,300.675 C160.9,301.541667 160.7125,302.333333 160.3375,303.05 C159.9625,303.766667 159.4125,304.3375 158.6875,304.7625 C157.9625,305.1875 157.108333,305.4 156.125,305.4 Z M176.575,313.25 C177.858333,313.25 178.9375,312.854167 179.8125,312.0625 C180.6875,311.270833 181.341667,310.195833 181.775,308.8375 C182.208333,307.479167 182.425,305.95 182.425,304.25 C182.425,302.55 182.208333,301.020833 181.775,299.6625 C181.341667,298.304167 180.6875,297.229167 179.8125,296.4375 C178.9375,295.645833 177.858333,295.25 176.575,295.25 C175.291667,295.25 174.2125,295.645833 173.3375,296.4375 C172.4625,297.229167 171.808333,298.304167 171.375,299.6625 C170.941667,301.020833 170.725,302.55 170.725,304.25 C170.725,305.95 170.941667,307.479167 171.375,308.8375 C171.808333,310.195833 172.4625,311.270833 173.3375,312.0625 C174.2125,312.854167 175.291667,313.25 176.575,313.25 Z M176.575,312.2 C175.025,312.2 173.8375,311.475 173.0125,310.025 C172.1875,308.575 171.775,306.65 171.775,304.25 C171.775,301.85 172.1875,299.925 173.0125,298.475 C173.8375,297.025 175.025,296.3 176.575,296.3 C178.125,296.3 179.3125,297.025 180.1375,298.475 C180.9625,299.925 181.375,301.85 181.375,304.25 C181.375,306.65 180.9625,308.575 180.1375,310.025 C179.3125,311.475 178.125,312.2 176.575,312.2 Z" id="AaBbCcDdEeFfGgHhIiJjKkLlMmNnOoPpQqRrSsTtUuVvWwXxYyZz1234567890"></path>
            </g>
        </g>
    </g>
</svg>