<?xml version="1.0" encoding="UTF-8"?>
<svg width="28px" height="28px" viewBox="0 0 28 28" version="1.1" xmlns="http://www.w3.org/2000/svg"
>
    <!-- Generator: Sketch 60.1 (88133) - https://sketch.com -->
    <title>sad</title>
    <desc>Created with Sketch.</desc>
    <g id="Сайт" stroke="none" stroke-width="1" fill="none" fill-rule="evenodd">
        <g id="Главная-1-XL" transform="translate(-49.000000, -954.000000)" fill="#FFFFFF">
            <g id="Group-2" transform="translate(49.000000, 954.000000)">
                <path d="M22.75,0 C25.6484375,0 28,2.3515625 28,5.25 L28,22.75 C28,25.6484375 25.6484375,28 22.75,28 L19.3229167,28 L19.3229167,17.1536458 L22.9505208,17.1536458 L23.4973958,12.9244792 L19.3229167,12.9244792 L19.3229167,10.2265625 C19.3229167,9.00520833 19.6510417,8.18489583 21.4192708,8.18489583 L23.6432292,8.16666667 L23.6432292,4.39322917 C23.2604167,4.33854167 21.9296875,4.22916667 20.3984375,4.22916667 C17.171875,4.22916667 14.9479167,6.19791667 14.9479167,9.80729167 L14.9479167,12.9244792 L11.3020833,12.9244792 L11.3020833,17.1536458 L14.9479167,17.1536458 L14.9479167,28 L5.25,28 C2.3515625,28 0,25.6484375 0,22.75 L0,5.25 C0,2.3515625 2.3515625,0 5.25,0 L22.75,0 Z"
                      id="sad"></path>
            </g>
        </g>
    </g>
</svg>