<svg xmlns="http://www.w3.org/2000/svg" width="13" height="9" viewBox="0 0 13 9">
    <g>
        <g opacity=".5">
            <path fill="#fff"
                  d="M9.328 8.17c-.156-.155-.156-.312 0-.468l2.617-2.89H.812C.605 4.812.5 4.707.5 4.499c0-.208.104-.312.313-.312h11.132L9.328 1.296c-.156-.156-.156-.313 0-.469.156-.156.313-.156.469 0 2.057 2.266 3.099 3.412 3.125 3.438.052.052.078.13.078.234 0 .104-.026.182-.078.234L9.797 8.171c-.052.052-.13.078-.235.078-.104 0-.182-.026-.234-.078z"/>
        </g>
    </g>
</svg>