<svg xmlns="http://www.w3.org/2000/svg" width="52" height="52" viewBox="0 0 52 52"><g><g><g><path fill="#b49060" d="M34.503 5.28a.51.51 0 0 0-.2 0 .93.93 0 0 0-.65.41 10.52 10.52 0 0 0-2.07 3.67c-2.16 6.17-2.34 12.64-2.46 19.11a.41.41 0 0 0 .34.45c1.8.58 2.38 2.25 2 4.06a10.21 10.21 0 0 0-.46 2.02c0 3.57.06 7.14.08 10.7-.001.334.019.668.06 1 .11.745.68 1.339 1.42 1.48.126.015.253.015.38 0a1.84 1.84 0 0 0 1.75-2V26.13 6c0-.23.18-.59-.19-.72z"/></g><g><path fill="#b49060" d="M23.754 5.94c-.05-.47-.19-.71-.66-.71h-.09c-.62 0-.42.46-.41.77.08 3.35.17 6.71.28 10.06 0 .43 0 .69-.54.69-.55 0-.76-.14-.73-.71.05-.85 0-1.7 0-2.55V5.9c0-.42-.07-.67-.49-.67h-.11c-.5 0-.36.41-.36.69v10.21c0 .4 0 .71-.56.71-.59 0-.5-.34-.5-.68V6c0-.39.07-.73-.53-.73-.59 0-.55.33-.55.73v10.21c0 .61-.23.66-.74.68h-.05c-.56 0-.48-.33-.47-.71.12-3.43.23-6.85.34-10.28 0-.3.09-.62-.42-.62-.42 0-.6.13-.65.57-.18 1.67-.36 3.34-.6 5-.18 1.26-.6 4.9-.55 5.47.18 1.9.94 2.15 1.79 3.06a7.11 7.11 0 0 1 1.81 6.36 20.86 20.86 0 0 0-.68 3.88c.06 5.39 0 10.78 0 16.17a8.001 8.001 0 0 0 0 .85 1.87 1.87 0 0 0 1.86 1.66 1.9 1.9 0 0 0 1.83-2V29.43a9.26 9.26 0 0 0-.23-2.1c-.74-3.22-.49-6.18 2-8.66a3.93 3.93 0 0 0 1.06-3.34c-.353-3.167-.703-6.297-1.05-9.39z"/></g><g><path fill="#b49060" d="M29.424 34.84a5.21 5.21 0 0 1 .35-1.79 3.64 3.64 0 0 0 .16-.57c.22-1.22-.113-1.97-1-2.25a2 2 0 0 1-1.45-2c.1-5.67.24-12 2.12-18.26a16.18 16.18 0 0 0-3.6-.43h-.21c.14 1.25.27 2.5.41 3.74l.18 1.54a5.55 5.55 0 0 1-1.52 4.66c-1.83 1.8-2.32 4-1.59 7.16.182.81.273 1.64.27 2.47v13.14a16.8 16.8 0 0 0 2.47.2 15.93 15.93 0 0 0 3.48-.38c-.02-2.4-.03-4.81-.07-7.23z"/></g><g><path fill="#b49060" d="M16.59 29.38a11 11 0 0 1 .44-3c.1-.42.2-.82.26-1.21a5.51 5.51 0 0 0-1.4-5c-.15-.16-.29-.29-.43-.42a4.83 4.83 0 0 1-1.78-3.59 7.7 7.7 0 0 1 0-1.12 16.41 16.41 0 0 0 2.91 24.43c.03-3.31.03-6.72 0-10.09z"/></g><g><path fill="#b49060" d="M36.3 13.18V38.81a16.42 16.42 0 0 0 0-25.63z"/></g><g><path fill="#b49060" d="M36.318 46a3.43 3.43 0 0 1-3.311 3.63 4.003 4.003 0 0 1-.69-.07 3.37 3.37 0 0 1-2.691-2.83 8.927 8.927 0 0 1-.08-1.2v-1.81a17.24 17.24 0 0 1-6.002.15V46a3.5 3.5 0 0 1-3.43 3.64c-.29 0-.58-.033-.86-.1a3.5 3.5 0 0 1-2.602-3v-1-4.18a18 18 0 0 1-2.65-28.79c.13-1.09.25-2 .28-2.21.23-1.56.39-3.09.59-4.93a2.12 2.12 0 0 1 2.24-2h.06c.31.002.616.067.9.19a2.601 2.601 0 0 1 1.001-.19c.323.005.64.08.93.22a2.29 2.29 0 0 1 .76-.22h.28c.345-.012.688.056 1 .2.258-.111.532-.179.811-.2h.24a2.19 2.19 0 0 1 2.25 2.14l.27 2.43h.391a18.17 18.17 0 0 1 4.131.49 11.88 11.88 0 0 1 2.33-4.07 2.46 2.46 0 0 1 1.841-.93 2.1 2.1 0 0 1 .74.13 2 2 0 0 1 1.25 2.31v5.31a17.999 17.999 0 0 1 .02 29.616zM26 .1C11.696.1.1 11.696.1 26 .1 40.304 11.696 51.9 26 51.9c14.304 0 25.9-11.596 25.9-25.9C51.894 11.698 40.302.106 26 .1z"/></g></g></g></svg>