<svg xmlns="http://www.w3.org/2000/svg" width="55" height="53" viewBox="0 0 55 53"><g><g><g><path fill="#b49060" d="M39.333 13.51c-1.36-4.16-4.4-7.93-.75-12.28"/></g><g><path fill="#b49060" d="M27.763 12.05c-3.31-7.66-3.4-9.44-.7-11.93"/></g><g><path fill="#b49060" d="M16.345 13.47c-2.95-5.42-4.23-10.31-.7-12.2"/></g><g><path fill="#b49060" d="M50.756 24.65a1.42 1.42 0 0 1 .89 1.57c-.06.9-.7 1.26-1.49 1.6l.6-3.13zm-45.93 3.14l-.008-.042.008.002zm-.008-.042c-1.254-.431-1.741-1.29-1.362-2.328a1.55 1.55 0 0 1 .21-.38c.13-.18.32-.4.5-.35.18.05.18.33.18.51a577 577 0 0 1 .472 2.548zm49.518-1.958a2.92 2.92 0 0 0-1.54-2.7 6.089 6.089 0 0 0-1.08-.47c-.93-.35-.93-.34-1.59.42l-.21.21a13.71 13.71 0 0 1-5 2.81 40.85 40.85 0 0 1-7.42 1.75 69.321 69.321 0 0 1-8.83.75c-3.4.069-6.799-.119-10.17-.56a38 38 0 0 1-9.56-2.45 12 12 0 0 1-4-2.54c-.69-.76-.69-.78-1.69-.39l-.51.19a3 3 0 0 0-1 5.19 10.82 10.82 0 0 0 3.42 1.84 1 1 0 0 1 .63.61 20.16 20.16 0 0 0 8.41 9.41c.36.21.51.39.3.84-.51 1.11-2.58 6.14-4 9.48a1.62 1.62 0 0 0 .92 2.31 1.66 1.66 0 0 0 2.1-1c1.14-2.58 3.21-7.57 4-9.44.15-.35.31-.43.67-.29.593.239 1.201.44 1.82.6a30.52 30.52 0 0 0 8.78.93 26.6 26.6 0 0 0 8-1.51c.45-.17.6-.01.76.36 1.09 2.53 3.14 7.69 3.93 9.53a1.67 1.67 0 0 0 2.11 1 1.63 1.63 0 0 0 .91-2.27c-.68-1.6-2.82-6.9-4.07-9.79a.44.44 0 0 1 .21-.67 18.47 18.47 0 0 0 1.77-1.15 19.9 19.9 0 0 0 6.81-8.43.74.74 0 0 1 .5-.47 10.88 10.88 0 0 0 3.05-1.47 3 3 0 0 0 1.57-2.63z"/></g><g><path fill="#b49060" d="M26.833 25.003a65.533 65.533 0 0 1-12.656-1.27 15.832 15.832 0 0 1-4.28-1.42 4.799 4.799 0 0 1-1.239-.88 1.8 1.8 0 0 1 .13-2.87 8.207 8.207 0 0 1 3.18-1.62 43.974 43.974 0 0 1 9.936-1.62 83.24 83.24 0 0 1 10.237-.07 50.22 50.22 0 0 1 9.837 1.36c1.266.287 2.48.765 3.6 1.42.335.208.641.46.909.75a1.83 1.83 0 0 1-.37 2.84 10.735 10.735 0 0 1-3.999 1.82 50.971 50.971 0 0 1-8.507 1.3c-2.03.19-4.069.26-6.778.26zm9.185 1.89a37.71 37.71 0 0 0 9.77-2.37 11 11 0 0 0 3.56-2.24 2.49 2.49 0 0 0 .15-3.76 7.7 7.7 0 0 0-2.14-1.65 26.36 26.36 0 0 0-7.27-2.52 57.891 57.891 0 0 0-10.9-1.17 70.431 70.431 0 0 0-10.37.5 39.401 39.401 0 0 0-7.12 1.51 15.64 15.64 0 0 0-5.69 2.81c-1.51 1.33-1.84 2.79-.25 4.36a9.5 9.5 0 0 0 2.47 1.69 29 29 0 0 0 7.72 2.41 61.42 61.42 0 0 0 12.35.93 71.996 71.996 0 0 0 7.72-.5z"/></g><g><path fill="#b49060" d="M26.61 23.37c0 .35-.07.51-.46.49-1.16-.07-2.32-.11-3.49-.14-.33 0-.41-.14-.41-.45.06-2.18 0-4.36.1-6.54 0-.27.09-.38.37-.39 1.2 0 2.39-.06 3.59-.11.31 0 .39.1.39.4-.01 1.15-.1 5.64-.09 6.74z"/></g><g><path fill="#b49060" d="M28.3 16.712c0-.34.06-.5.45-.48 1.17.06 2.33.09 3.5.11.28 0 .4.09.4.4 0 2.18.06 4.36.1 6.54 0 .32-.1.43-.42.44-1.16 0-2.33.07-3.49.13-.35 0-.45-.1-.45-.44.02-1.13-.07-5.6-.09-6.7z"/></g><g><path fill="#b49060" d="M39.33 22.548c0 .26 0 .37-.33.41-1.23.19-2.46.41-3.7.52-.24 0-.33 0-.33-.26 0-2.14-.027-4.273-.08-6.4 0-.2.07-.25.27-.22 1.25.13 2.5.28 3.75.5.28 0 .33.19.33.43-.01.84.08 4.19.09 5.02z"/></g><g><path fill="#b49060" d="M20.04 23.12c0 .28 0 .39-.38.36-1.21-.12-2.41-.33-3.6-.52-.28 0-.4-.11-.39-.41.04-1.687.07-3.377.09-5.07 0-.2.06-.33.29-.37 1.26-.24 2.53-.37 3.8-.52.3 0 .26.16.26.33 0 1.08-.08 5.17-.07 6.2z"/></g><g><path fill="#b49060" d="M41.5 17.998c0-.26.07-.35.34-.27a13 13 0 0 1 3.31 1.31c.141.085.275.182.4.29a.8.8 0 0 1 0 1.4 8.6 8.6 0 0 1-3 1.37c-1 .32-1 .31-1-.76-.05-.42-.05-2.65-.05-3.34z"/></g><g><path fill="#b49060" d="M13.5 21.995c0 .29-.1.4-.37.31a14.48 14.48 0 0 1-3.23-1.31h-.08c-1-.66-1-1.29 0-1.9a13.18 13.18 0 0 1 3.36-1.34c.3-.09.33.07.33.3-.01.64-.01 3.29-.01 3.94z"/></g></g></g></svg>