<svg xmlns="http://www.w3.org/2000/svg" width="23" height="43" viewBox="0 0 23 43"><g><g><g><path fill="#b49060" d="M19.38 13.97c.7-.01.8.15.7.83-.69 5-1.559 10-1.998 15-.1 1.505-.12 3.013-.06 4.52a.88.88 0 0 1-.76 1 17.897 17.897 0 0 1-9.604 0 .84.84 0 0 1-.74-1C7.129 29 5.89 23.84 5.3 18.6a102.797 102.797 0 0 0-.54-4c-.1-.64.13-.78.73-.78h7.095c2.259 0 4.527.02 6.796.15zM3.76 11.45c-1.34 0-1.66.34-1.52 1.65.12 1.067.26 2.137.42 3.21.5 3.28.82 6.57 1.16 9.87.17 1.59.56 3.18.56 4.77.07 3.41 0 6.83 0 10.25 0 1.44.36 1.8 1.8 1.8h11.63c2.48 0 2.58-.1 2.58-2.6.08-3.74-.33-7.49.21-11.21.77-5.29 1.24-10.62 2-15.91.2-1.37-.15-1.83-1.52-1.83z"/></g><g><path fill="#b49060" d="M12.415 18.482h7.27c1.07 0 1.29.21 1.14.82-.78 3.34-1.56 6.67-2.25 10a14.62 14.62 0 0 0-.14 3.1c0 .58-.32.78-1.3.86a57.74 57.74 0 0 1-9.84 0c-.68-.06-1.1-.13-1.08-.64.15-4.46-1.58-8.8-2.35-13.2-.13-.74.06-.95 1.25-.93 2.43.01 4.86-.02 7.3-.01z"/></g><g><path fill="#b49060" d="M11.5 12.39C5.262 12.395.132 7.473-.12 1.24l2.5-.11a9.13 9.13 0 0 0 18.24-.7l2.5-.09c.214 6.404-4.797 11.772-11.2 12z"/></g><g><path fill="#b49060" d="M7.063 6.616a7.24 7.24 0 0 0 3.69 1.45.3.3 0 0 0 .33-.3v-4.93a.3.3 0 0 0-.51-.21l-3.54 3.53a.32.32 0 0 0 .03.46z"/></g><g><path fill="#b49060" d="M13.827 1.7l3.26 3.3a.31.31 0 0 0 .47 0 7.29 7.29 0 0 0 1.25-3.41.3.3 0 0 0-.3-.33h-4.47a.3.3 0 0 0-.21.44z"/></g><g><path fill="#b49060" d="M12.39 2.836v4.87a.31.31 0 0 0 .35.3 7.31 7.31 0 0 0 3.47-1.6.31.31 0 0 0 0-.45l-3.31-3.33a.3.3 0 0 0-.51.21z"/></g><g><path fill="#b49060" d="M6.11 5.24L9.64 1.7a.3.3 0 0 0-.21-.51H4.5a.31.31 0 0 0-.3.33 7.24 7.24 0 0 0 1.45 3.69.31.31 0 0 0 .46.03z"/></g></g></g></svg>