<svg xmlns="http://www.w3.org/2000/svg" width="42" height="53" viewBox="0 0 42 53"><g><g><g><path fill="#b49060" d="M.18 17.86v.007l-.03-.007zm0 .007l41.19 9.523-.47 25.34L.18 42.26zm2.97 3.773l.03.007v-.007zm.03.007V39.88l34.82 9 .33-19.12z"/></g><g transform="rotate(-76.57 21 33.5)"><path fill="#b49060" d="M19.3 13.27h3v39.42h-3z"/></g><g transform="rotate(-76.57 21 37.5)"><path fill="#b49060" d="M19.29 17.52h3v39.42h-3z"/></g><g><path fill="#b49060" d="M29.86 8.26c-3.13.22-5.94.54-8.47.94a5.16 5.16 0 1 1-3.67.66c-13.9 2.88-17.57 8-17.57 8l41.22 9.53z"/></g><g><path fill="#b49060" d="M20.38 18.36a4.13 4.13 0 1 0 0-8.26 4.13 4.13 0 0 0 0 8.26z"/></g><g><path fill="#b49060" d="M19.606 11.691h-.05a.75.75 0 0 1-.7-.8c0-.28.39-6.87-5.51-9.19a.74.74 0 0 1-.42-1 .75.75 0 0 1 1-.43c6.9 2.73 6.43 10.64 6.42 10.73a.74.74 0 0 1-.74.69z"/></g><g><path fill="#b49060" d="M15.742 5.57a5.79 5.79 0 0 1-2.39 3.48 5.73 5.73 0 0 1-1.5-4 5.78 5.78 0 0 1 2.38-3.49 5.81 5.81 0 0 1 1.51 4.01z"/></g></g></g></svg>