<svg xmlns="http://www.w3.org/2000/svg" width="29" height="44" viewBox="0 0 29 44"><g><g><g><path fill="#b49060" d="M8.852 25.298a15.67 15.67 0 0 1-4.351-7.06 26.842 26.842 0 0 1-.72-2.84h3.27a15.518 15.518 0 0 0 3.001 6.91 9.262 9.262 0 0 0 4.511 3.25 7.223 7.223 0 0 0 5.152-.43l.65-.28h.1a8.173 8.173 0 0 1-11.613.45zM4.41 3.403a.75.75 0 0 1 .591-.145h19.002a.69.69 0 0 1 .81.61c.575 2.288.854 4.641.83 7 0 .49-.16.64-.65.64H3.32a26.318 26.318 0 0 1 .8-7.57.75.75 0 0 1 .29-.535zm20.152 38.335a4.7 4.7 0 0 0-1.89-.82c-1.88-.42-3.8-.54-5.7-.82-.33-.05-.49-.12-.49-.49v-9c0-.31.09-.45.41-.52a9.73 9.73 0 0 0 2.24-.77 13.6 13.6 0 0 0 6.05-5.88c3.79-6.9 4.15-14.13 1.94-21.58-.33-1.09-.71-1.34-1.87-1.34H3.602a1.51 1.51 0 0 0-1.72 1.23 26.66 26.66 0 0 0-1.38 7.41 25.89 25.89 0 0 0 3.09 14c1.93 3.43 4.58 6 8.56 6.94.28.06.3.24.3.48v9c0 .34-.13.45-.44.49-1.26.15-2.52.32-3.77.49a9.37 9.37 0 0 0-3.21.81 3 3 0 0 0-1.53 1.83c-.2.7-.12.79.59.79h21c.51 0 .61-.17.52-.62a2.56 2.56 0 0 0-1.05-1.63z"/></g></g></g></svg>