<svg xmlns="http://www.w3.org/2000/svg" width="67" height="67" viewBox="0 0 67 67"><g><g><g><path fill="#fff" d="M33.527 59.62c-14.399 0-26.114-11.714-26.114-26.114a26.107 26.107 0 0 1 5.693-16.277l1.096 1.096a2.55 2.55 0 0 0-1.23 2.178v13.098a2.555 2.555 0 0 0 2.552 2.552h1.047c1.254 0 2.297-.91 2.51-2.102 1.566-1.417 4.194-2.515 7.65-3.196l3.058 3.057h-.81a6.198 6.198 0 0 0-6.192 6.192v3.55a6.199 6.199 0 0 0 6.192 6.192h3.881a.981.981 0 0 0 0-1.963H28.98a4.234 4.234 0 0 1-4.23-4.229v-3.55a4.233 4.233 0 0 1 4.23-4.229h2.773l2.144 2.145H28.98c-1.15 0-2.085.935-2.085 2.084v3.55c0 1.15.935 2.085 2.085 2.085h12.636l1.841 1.841c-.98.39-1.25.303-6.016.303a.981.981 0 0 0 0 1.963c4.745 0 5.737.182 7.485-.796l4.88 4.879a26.108 26.108 0 0 1-16.278 5.692zm-18.59-39.117c0-.325.263-.589.587-.589h.265l1.363 1.37v12.305a.588.588 0 0 1-.586.601h-1.042a.588.588 0 0 1-.587-.588zm4.188 2.743l5.95 5.958c-2.425.578-4.415 1.366-5.95 2.356zM35.86 39.983l3.791 3.793c-11.305 0-10.788.054-10.788-.122 0-3.781-.046-3.671.121-3.671zM51.953 53.3l-9.247-9.248L27.752 29.1C12.625 13.973 13.625 14.77 13.004 14.793a.982.982 0 0 0-.707.339A28.067 28.067 0 0 0 5.45 33.506c0 15.519 12.558 28.078 28.077 28.078a28.067 28.067 0 0 0 18.375-6.847.982.982 0 0 0 .051-1.436z"/></g><g><path fill="#fff" d="M53.558 35.044a.588.588 0 0 1 .578-.483h1.046a.59.59 0 0 1 .59.59v3.497a.59.59 0 0 1-.59.59h-1.046a.588.588 0 0 1-.58-.494c-.015-.094-.015-3.608.002-3.7zm1.31 13.526l-6.685-6.685V39.98h3.781a2.55 2.55 0 0 0 2.172 1.218h1.047a2.555 2.555 0 0 0 2.551-2.551v-3.49a2.555 2.555 0 0 0-2.551-2.552h-1.047c-.954 0-1.787.527-2.224 1.305h-3.73v-.515c0-5.155-4.193-9.348-9.347-9.348-6.205 0-6.583.043-8.657-.167L18.47 12.172c17.173-12.176 41.18.158 41.18 21.332 0 5.462-1.65 10.647-4.782 15.066zM42.17 35.866h9.413v2.164h-7.269l-2.144-2.164zm-1.963-1.952l-3.794-3.803h2.42a3.286 3.286 0 0 1 3.279 3.286v.517zm-5.756-5.76l-2.16-2.164c.53.02.01.015 6.543.015 4.072 0 7.385 3.32 7.385 7.402v.517h-2.144v-.517c0-2.897-2.351-5.253-5.241-5.253h-4.383zM53.389 13.65C43.248 3.508 27.386 2.763 16.371 11.285a.982.982 0 0 0-.094 1.47l26.938 26.937c12.054 12.055 11.198 11.396 11.826 11.356a.982.982 0 0 0 .714-.38c8.523-11.016 7.775-26.878-2.366-37.018z"/></g><g><path fill="#fff" d="M66.051 34.42a.982.982 0 0 0-1.036.924c-.958 16.65-14.786 29.693-31.48 29.693-17.388 0-31.534-14.146-31.534-31.535C2 16.114 16.147 1.968 33.535 1.968c16.298 0 30.102 12.708 31.427 28.932a.981.981 0 1 0 1.957-.16c-.683-8.354-4.458-16.104-10.63-21.82-13.064-12.1-33.568-11.975-46.44.896-13.091 13.092-13.093 34.28 0 47.373 6.327 6.326 14.739 9.81 23.686 9.81 17.733 0 32.421-13.855 33.44-31.542a.981.981 0 0 0-.924-1.037z"/></g></g></g></svg>