<svg xmlns="http://www.w3.org/2000/svg" width="62" height="67" viewBox="0 0 62 67"><g><g><g><path fill="#fff" d="M49.818 5.584c0-.67-.443-1.117-1.107-1.117H13.292c-.664 0-1.107.447-1.107 1.117v59.193H9.972V2.233h42.06v62.544h-2.214zm-35.42 59.183V6.7h33.196v58.067zm46.488 0h-6.641V1.117c0-.67-.443-1.117-1.107-1.117H8.865C8.2 0 7.758.447 7.758 1.117v63.65H1.117c-.664 0-1.107.446-1.107 1.116C.01 66.553.453 67 1.117 67h59.769c.664 0 1.107-.447 1.107-1.117 0-.67-.443-1.116-1.107-1.116z"/></g><g><path fill="#fff" d="M43.188 36.857h-2.224v-2.244h2.224zm1.097-4.477h-4.428c-.664 0-1.107.447-1.107 1.117v1.116h-2.213c-.664 0-1.107.447-1.107 1.117 0 .67.443 1.116 1.107 1.116h2.214v1.117c0 .67.442 1.117 1.106 1.117h4.428c.664 0 1.106-.447 1.106-1.117v-4.466c0-.67-.442-1.117-1.106-1.117z"/></g></g></g></svg>