<svg xmlns="http://www.w3.org/2000/svg" width="67" height="67" viewBox="0 0 67 67"><g><g><g><path fill="#fff" d="M57.08 56.95c-.893.891-2.233.891-3.127 0-.893-.892-.893-2.23 0-3.12a2.207 2.207 0 0 1 1.564-.67c.558 0 1.116.223 1.563.67.893.89.893 2.228 0 3.12zm-4.69-4.793c-1.787 1.672-1.787 4.458 0 6.242.893.891 2.01 1.337 3.127 1.337 1.116 0 2.233-.446 3.126-1.337 1.787-1.672 1.787-4.458 0-6.242-1.675-1.783-4.466-1.783-6.253 0z"/></g><g><path fill="#fff" d="M64.665 55.606l-8.932 8.913c-.112.111-.447.111-.558 0L43.619 52.988l3.964-3.955a1.076 1.076 0 0 0 0-1.56 1.08 1.08 0 0 0-1.563 0l-3.964 3.955-1.619-1.615 2.345-2.34a1.076 1.076 0 0 0 0-1.56 1.08 1.08 0 0 0-1.563 0l-2.345 2.34-1.563-1.56 3.908-3.9a1.076 1.076 0 0 0 0-1.56 1.08 1.08 0 0 0-1.563 0l-3.908 3.9-.67-.668 9.49-9.47 20.097 20.054c.111.111.111.446 0 .557zM4.252 54.61l3.66 3.656c.056.128.137.249.245.356l4.033 4.029-9.611 1.655zm37.965-39.23l3.907 3.9L9.001 56.227l-3.854-3.846zM21.51 30.917l2.401-2.395a1.075 1.075 0 0 0 0-1.56 1.081 1.081 0 0 0-1.563 0l-2.402 2.396-1.619-1.616 3.909-3.9a1.075 1.075 0 0 0 0-1.559 1.081 1.081 0 0 0-1.564 0l-3.909 3.9-1.563-1.56 2.345-2.34a1.075 1.075 0 0 0 0-1.56 1.081 1.081 0 0 0-1.563 0l-2.346 2.34-1.563-1.56 3.909-3.9a1.075 1.075 0 0 0 0-1.56 1.081 1.081 0 0 0-1.564 0l-3.909 3.9-1.675-1.67 2.345-2.34a1.075 1.075 0 0 0 0-1.56 1.081 1.081 0 0 0-1.563 0l-2.346 2.34-1.563-1.56 3.909-3.9a1.075 1.075 0 0 0 0-1.56 1.081 1.081 0 0 0-1.564 0l-3.909 3.9-1.563-1.56a1.075 1.075 0 0 1 0-1.56l7.93-7.91c.223-.223.446-.334.781-.334.223 0 .558.111.782.334l19.88 19.831-9.494 9.47zm25.406-20.33l4.742 4.737 4.743 4.737-3.125 3.12-9.485-9.473zm7.593-7.578c1.004-1.003 2.79-1.003 3.795 0l5.692 5.684c1.004 1.003 1.004 2.786 0 3.79L57.968 18.5 48.48 9.027zm-39.98 58.724l-3.907-3.899 37.123-36.939 3.854 3.846zm51.7-8.237l-20.1-20.061 7.929-7.913 4.69-4.681 6.811-6.798c1.899-1.895 1.899-5.016 0-6.91l-5.695-5.684A4.904 4.904 0 0 0 56.402 0c-1.34 0-2.569.557-3.462 1.449l-6.812 6.798-4.69 4.681-7.928 7.913L13.633 1.003c-1.228-1.226-3.461-1.226-4.69 0L1.015 8.916c-1.34 1.226-1.34 3.343 0 4.68l2.345 2.341 6.365 6.353 6.253 6.24v.001l4.914 4.904-17.926 17.89c-.334.148-.515.449-.611.833L.01 65.532c0 .446.112.78.335 1.003.223.223.447.334.782.334h.223l12.882-2.377c.09.024.186.037.295.037.335 0 .67-.111.781-.334L33.51 46.028l1.451 1.45 3.127 3.12L53.61 66.09c.558.558 1.228.78 1.898.78.67 0 1.34-.222 1.787-.78l8.933-8.916a2.62 2.62 0 0 0 0-3.677z"/></g></g></g></svg>