<svg xmlns="http://www.w3.org/2000/svg" width="70" height="50" viewBox="0 0 70 50"><g><g><g><path fill="#fff" d="M34.83 2.735l6.593 4.747-6.592 4.746-6.593-4.746zm-.746 11.99c.25.126.498.25.747.25s.497-.124.746-.25l8.707-6.244c.249-.25.498-.625.498-1 0-.374-.125-.749-.498-.999L35.577.237c-.497-.25-1.12-.25-1.493 0l-8.706 6.245c-.25.25-.498.625-.498 1 0 .374.249.75.498.999z"/></g><g><path fill="#fff" d="M47.27 11.475l6.593 4.747-6.592 4.746-6.593-4.746zm-9.95 4.747c0 .374.249.75.498.999l8.706 6.245c.25.125.498.25.747.25s.497-.125.746-.25l8.707-6.245c.249-.25.498-.625.498-1 0-.374-.125-.749-.498-.999l-8.707-6.245c-.497-.25-1.12-.25-1.492 0l-8.707 6.245c-.25.25-.498.625-.498 1z"/></g><g><path fill="#fff" d="M22.39 11.475l6.593 4.747-6.592 4.746-6.593-4.746zm-.746 11.99c.25.126.498.25.747.25s.497-.124.746-.25l8.707-6.244c.249-.25.498-.625.498-1 0-.374-.125-.749-.498-.999l-8.707-6.245c-.497-.25-1.12-.25-1.493 0l-8.706 6.245c-.25.25-.498.625-.498 1 0 .374.249.75.498.999z"/></g><g><path fill="#fff" d="M34.83 29.72l-6.592-4.748 6.593-4.748 6.592 4.748zm.747-11.993c-.497-.25-1.12-.25-1.493 0l-8.706 6.245c-.25.25-.498.625-.498 1 0 .374.249.75.498.999l8.706 6.245c.25.125.498.25.747.25s.497-.125.746-.25l8.707-6.245c.249-.25.498-.625.498-1 0-.374-.125-.749-.498-.999z"/></g><g><path fill="#fff" d="M34.83 47.198l-6.592-4.746 6.593-4.747 6.592 4.747zm9.454-5.746l-8.707-6.245c-.497-.25-1.12-.25-1.493 0l-8.706 6.245c-.25.25-.498.625-.498 1 0 .374.249.75.498.999l8.706 6.245c.25.125.498.25.747.25s.497-.125.746-.25l8.707-6.245c.249-.25.498-.625.498-1 0-.374-.125-.749-.498-.999z"/></g><g><path fill="#fff" d="M59.7 29.72l-6.59-4.748 6.59-4.748 6.591 4.748zm9.454-5.748l-8.707-6.245c-.497-.25-1.12-.25-1.493 0l-8.706 6.245c-.25.25-.498.625-.498 1 0 .374.249.75.498.999l8.706 6.245c.25.125.498.25.747.25s.497-.125.746-.25l8.707-6.245c.249-.25.498-.625.498-1 0-.374-.125-.749-.498-.999z"/></g><g><path fill="#fff" d="M47.27 38.458l-6.592-4.746 6.593-4.747 6.592 4.747zm9.454-5.746l-8.707-6.245c-.497-.25-1.12-.25-1.493 0l-8.706 6.245c-.25.25-.498.625-.498 1 0 .374.249.75.498.999l8.706 6.245c.25.125.498.25.747.25s.497-.125.746-.25l8.707-6.245c.249-.25.498-.625.498-1 0-.374-.125-.749-.498-.999z"/></g><g><path fill="#fff" d="M9.95 29.72l-6.592-4.748 6.593-4.748 6.592 4.748zm9.952-4.748c0-.375-.125-.75-.498-1l-8.707-6.245c-.497-.25-1.12-.25-1.492 0L.498 23.972c-.25.25-.498.625-.498 1 0 .374.249.75.498.999l8.706 6.245c.25.125.498.25.747.25s.497-.125.746-.25l8.707-6.245c.249-.25.498-.625.498-1z"/></g><g><path fill="#fff" d="M22.39 38.458l-6.592-4.746 6.593-4.747 6.592 4.747zm9.952-4.746c0-.375-.125-.75-.498-1l-8.707-6.245c-.497-.25-1.12-.25-1.493 0l-8.706 6.245c-.25.25-.498.625-.498 1 0 .374.249.75.498.999l8.706 6.245c.25.125.498.25.747.25s.497-.125.746-.25l8.707-6.245c.249-.25.498-.625.498-1z"/></g></g></g></svg>