<svg xmlns="http://www.w3.org/2000/svg" width="50" height="67" viewBox="0 0 50 67"><g><g><g><path fill="#fff" d="M37.002 8.183c0 .752-.214 1.06-.568 1.571a6.38 6.38 0 0 0-.589.978 1.191 1.191 0 0 0 .563 1.577c.16.077.33.113.497.113.44 0 .862-.252 1.062-.682.096-.207.23-.4.385-.624.42-.605.994-1.433.994-2.933 0-1.5-.574-2.328-.994-2.932-.354-.511-.568-.82-.568-1.571s.214-1.06.568-1.57l.18-.262c.36-.543.219-1.28-.318-1.646a1.164 1.164 0 0 0-1.626.321l-.154.225c-.42.604-.994 1.432-.994 2.932s.575 2.328.994 2.932c.354.511.568.82.568 1.571z"/></g><g><path fill="#fff" d="M22.603 8.183c0 .752-.214 1.06-.569 1.571-.19.274-.406.585-.589.978a1.191 1.191 0 0 0 .563 1.577c.161.076.33.113.497.113.44 0 .862-.252 1.062-.682.096-.207.23-.4.385-.624.42-.605.994-1.433.994-2.933 0-1.5-.574-2.328-.994-2.932-.354-.511-.568-.82-.568-1.571s.214-1.06.568-1.57l.18-.262c.361-.543.22-1.28-.318-1.646a1.164 1.164 0 0 0-1.626.321c-.05.076-.103.15-.154.224-.42.605-.994 1.433-.994 2.933 0 1.5.574 2.328.994 2.932.355.511.569.82.569 1.571z"/></g><g><path fill="#fff" d="M8.202 8.183c0 .751-.214 1.06-.568 1.571-.19.274-.406.585-.589.978a1.191 1.191 0 0 0 .563 1.577 1.17 1.17 0 0 0 1.559-.569c.096-.207.23-.4.385-.624.42-.605.994-1.433.994-2.933 0-1.5-.574-2.328-.994-2.932-.354-.511-.568-.82-.568-1.571 0-.752.214-1.06.568-1.571l.18-.262c.36-.542.22-1.279-.318-1.645a1.164 1.164 0 0 0-1.626.321c-.05.076-.102.15-.154.224-.42.605-.994 1.432-.994 2.933 0 1.5.574 2.328.994 2.932.355.511.568.82.568 1.57z"/></g><g><path fill="#fff" d="M46.737 21.77a.787.787 0 0 1-.78-.79c0-.435.35-.79.78-.79.431 0 .782.355.782.79 0 .436-.35.79-.782.79zm-2.895-1.975h-1.87c-.647 0-1.172.53-1.172 1.185s.525 1.186 1.172 1.186h1.87a3.129 3.129 0 0 0 2.896 1.975c1.723 0 3.125-1.418 3.125-3.16 0-1.743-1.402-3.161-3.125-3.161a3.13 3.13 0 0 0-2.895 1.975z"/></g><g><path fill="#fff" d="M44.79 64.517a.791.791 0 0 1-.786-.794c0-.438.352-.794.786-.794.434 0 .786.356.786.794a.791.791 0 0 1-.786.794zm1.167-3.72v-1.892c0-.654-.525-1.185-1.172-1.185-.647 0-1.172.53-1.172 1.185v1.892a3.164 3.164 0 0 0-1.953 2.928c0 1.742 1.402 3.16 3.125 3.16s3.125-1.418 3.125-3.16c0-1.324-.81-2.458-1.953-2.928z"/></g><g><path fill="#fff" d="M31.442 22.17h5.643c.647 0 1.172-.53 1.172-1.185 0-.654-.525-1.185-1.172-1.185h-5.643c-.647 0-1.172.53-1.172 1.185s.525 1.185 1.172 1.185z"/></g><g><path fill="#fff" d="M20.255 40.18h-5.643c-.647 0-1.172.53-1.172 1.185s.525 1.185 1.172 1.185h5.643c.647 0 1.172-.53 1.172-1.185 0-.654-.525-1.185-1.172-1.185z"/></g><g><path fill="#fff" d="M21.39 31.175c0 .655.525 1.185 1.172 1.185h5.643c.647 0 1.172-.53 1.172-1.185 0-.654-.525-1.185-1.172-1.185h-5.643c-.647 0-1.172.53-1.172 1.185z"/></g><g><path fill="#fff" d="M30.755 40.18h-5.643c-.647 0-1.172.53-1.172 1.185s.525 1.185 1.172 1.185h5.643c.647 0 1.172-.53 1.172-1.185 0-.654-.525-1.185-1.172-1.185z"/></g><g><path fill="#fff" d="M44.2 38.934c.118.038.237.056.354.056.498 0 .96-.323 1.117-.829a6.344 6.344 0 0 0-1.653-6.456 1.163 1.163 0 0 0-1.657.045 1.195 1.195 0 0 0 .045 1.676 3.896 3.896 0 0 1 1.21 2.84c0 .404-.061.8-.18 1.181-.195.624.148 1.29.765 1.487z"/></g><g><path fill="#fff" d="M33.062 29.99c-.647 0-1.172.53-1.172 1.185s.525 1.185 1.172 1.185h5.643c.647 0 1.172-.53 1.172-1.185 0-.654-.525-1.185-1.172-1.185z"/></g><g><path fill="#fff" d="M40.896 40.003a3.83 3.83 0 0 1-1.145.174h-4.13c-.646 0-1.171.53-1.171 1.185s.525 1.185 1.172 1.185h4.129a6.15 6.15 0 0 0 1.837-.28c.618-.193.965-.856.773-1.482a1.17 1.17 0 0 0-1.465-.782z"/></g><g><path fill="#fff" d="M43.094 54.7a1.17 1.17 0 0 0 1.601.433c.56-.327.753-1.052.43-1.619a6.22 6.22 0 0 0-5.383-3.144h-.36c-.647 0-1.172.53-1.172 1.185s.525 1.185 1.172 1.185h.36c1.378 0 2.662.751 3.352 1.96z"/></g><g><path fill="#fff" d="M9.26 20.985c0 .655.525 1.185 1.172 1.185h5.643c.647 0 1.172-.53 1.172-1.185 0-.654-.525-1.185-1.172-1.185h-5.643c-.647 0-1.172.53-1.172 1.185z"/></g><g><path fill="#fff" d="M10.924 41.365c0-.654-.524-1.185-1.172-1.185H6.231c-.884 0-1.737.184-2.538.547a1.19 1.19 0 0 0-.59 1.567c.195.44.622.7 1.07.7.16 0 .323-.033.478-.104a3.802 3.802 0 0 1 1.58-.34h3.521c.648 0 1.172-.53 1.172-1.185z"/></g><g><path fill="#fff" d="M3.93 49.602a3.894 3.894 0 0 1-1.566-3.144 4 4 0 0 1 .066-.725 1.184 1.184 0 0 0-.937-1.382 1.172 1.172 0 0 0-1.367.947 6.335 6.335 0 0 0 2.408 6.208 1.166 1.166 0 0 0 1.64-.246 1.194 1.194 0 0 0-.244-1.658z"/></g><g><path fill="#fff" d="M1.083 25.597a1.173 1.173 0 0 0 1.481-.752A3.895 3.895 0 0 1 5.73 22.2a1.183 1.183 0 0 0 1.01-1.328 1.174 1.174 0 0 0-1.313-1.022C3.082 20.16 1.085 21.827.34 24.1a1.188 1.188 0 0 0 .743 1.498z"/></g><g><path fill="#fff" d="M13.525 50.37H7.882c-.647 0-1.172.53-1.172 1.185s.525 1.185 1.172 1.185h5.643c.647 0 1.172-.53 1.172-1.185 0-.654-.525-1.185-1.172-1.185z"/></g><g><path fill="#fff" d="M24.025 50.37h-5.643c-.647 0-1.172.53-1.172 1.185s.525 1.185 1.172 1.185h5.643c.647 0 1.172-.53 1.172-1.185 0-.654-.525-1.185-1.172-1.185z"/></g><g><path fill="#fff" d="M20.932 22.17h5.643c.647 0 1.172-.53 1.172-1.185 0-.654-.525-1.185-1.172-1.185h-5.643c-.647 0-1.172.53-1.172 1.185s.525 1.185 1.172 1.185z"/></g><g><path fill="#fff" d="M10.89 31.175c0 .655.525 1.185 1.172 1.185h5.643c.647 0 1.172-.53 1.172-1.185 0-.654-.525-1.185-1.172-1.185h-5.643c-.647 0-1.172.53-1.172 1.185z"/></g><g><path fill="#fff" d="M7.202 29.988h-.969a3.824 3.824 0 0 1-3.094-1.565 1.163 1.163 0 0 0-1.64-.235 1.194 1.194 0 0 0-.234 1.659 6.14 6.14 0 0 0 4.968 2.512h.969c.647 0 1.171-.53 1.171-1.185s-.524-1.186-1.171-1.186z"/></g><g><path fill="#fff" d="M34.525 50.37h-5.643c-.647 0-1.172.53-1.172 1.185s.525 1.185 1.172 1.185h5.643c.647 0 1.172-.53 1.172-1.185 0-.654-.525-1.185-1.172-1.185z"/></g></g></g></svg>