<svg xmlns="http://www.w3.org/2000/svg" width="62" height="67" viewBox="0 0 62 67"><g><g><g><path fill="#fff" d="M57.565 63.655c0 .673-.442 1.122-1.106 1.122H5.544c-.664 0-1.107-.449-1.107-1.122v-1.122h53.128v1.122zM6.651 6.7h48.7v53.6h-48.7zM5.544 2.233h50.914c.664 0 1.107.449 1.107 1.122s-.443 1.122-1.107 1.122H5.544c-.664 0-1.107-.561-1.107-1.122 0-.56.554-1.122 1.107-1.122zM60.886 60.3h-3.32V6.52c1.31-.444 2.213-1.666 2.213-3.17 0-1.898-1.439-3.35-3.32-3.35H5.544c-1.882 0-3.32 1.452-3.32 3.35 0 1.487.95 2.7 2.213 3.155V60.3h-3.32c-.664 0-1.107.447-1.107 1.117 0 .67.443 1.116 1.107 1.116h1.107v1.117c0 1.898 1.438 3.35 3.32 3.35h50.914c1.882 0 3.32-1.452 3.32-3.35v-1.117h1.108c.664 0 1.106-.446 1.106-1.116 0-.67-.442-1.117-1.106-1.117z"/></g><g><path fill="#fff" d="M27.676 30.157h-10.3c2.884-4.556 4.444-14.839 4.72-18.994h5.58zm-16.602 0V11.163h8.864c-.332 7.71-3.767 18.994-5.54 18.994zM28.783 8.93H9.967c-.664 0-1.107.447-1.107 1.117v21.216c0 .67.443 1.117 1.107 1.117h18.816c.664 0 1.107-.447 1.107-1.117V10.047c0-.67-.443-1.117-1.107-1.117z"/></g><g><path fill="#fff" d="M50.936 30.157h-3.324c-1.773 0-5.208-11.285-5.54-18.994h8.864zM34.324 11.163h5.579c.276 4.155 1.837 14.438 4.72 18.994h-10.3zM52.033 8.93H33.217c-.664 0-1.107.447-1.107 1.117v21.216c0 .67.443 1.117 1.107 1.117h18.816c.664 0 1.107-.447 1.107-1.117V10.047c0-.67-.443-1.117-1.107-1.117z"/></g><g><path fill="#fff" d="M27.676 55.847h-8.862c-.087-6.94-.987-14.995-3.159-18.994h12.021zM11.074 36.853h1.885c1.774 1.565 3.548 8.827 3.659 18.994h-5.544zm17.709-2.233H9.967c-.664 0-1.107.447-1.107 1.117v21.216c0 .67.443 1.117 1.107 1.117h18.816c.664 0 1.107-.447 1.107-1.117V35.737c0-.67-.443-1.117-1.107-1.117z"/></g><g><path fill="#fff" d="M50.936 55.847h-5.544c.11-10.167 1.885-17.43 3.659-18.994h1.885zM34.324 36.853h12.053c-2.19 4.016-3.097 12.036-3.184 18.994h-8.87zm17.709-2.233H33.217c-.664 0-1.107.447-1.107 1.117v21.216c0 .67.443 1.117 1.107 1.117h18.816c.664 0 1.107-.447 1.107-1.117V35.737c0-.67-.443-1.117-1.107-1.117z"/></g></g></g></svg>