<svg xmlns="http://www.w3.org/2000/svg" width="49" height="67" viewBox="0 0 49 67"><g><g><g><path fill="#fff" d="M46.773 64.777H3.802l15.59-15.644h27.38zM2.227 55.842h3.341c.615 0 1.114-.5 1.114-1.117s-.499-1.117-1.114-1.117h-3.34v-2.233h5.567c.615 0 1.114-.5 1.114-1.117S8.41 49.14 7.795 49.14H2.227v-2.234h3.341c.615 0 1.114-.5 1.114-1.117 0-.616-.499-1.116-1.114-1.116h-3.34V42.44h5.567c.615 0 1.114-.5 1.114-1.117s-.499-1.117-1.114-1.117H2.227v-2.233h3.341c.615 0 1.114-.5 1.114-1.117s-.499-1.117-1.114-1.117h-3.34v-2.234h5.567c.615 0 1.114-.5 1.114-1.117 0-.616-.499-1.117-1.114-1.117H2.227v-2.233h3.341c.615 0 1.114-.5 1.114-1.117s-.499-1.117-1.114-1.117h-3.34V24.57h5.567c.615 0 1.114-.5 1.114-1.117 0-.616-.499-1.116-1.114-1.116H2.227v-2.234h3.341c.615 0 1.114-.5 1.114-1.117s-.499-1.117-1.114-1.117h-3.34v-2.233h5.567c.615 0 1.114-.5 1.114-1.117s-.499-1.117-1.114-1.117H2.227v-2.234h3.341c.615 0 1.114-.5 1.114-1.117 0-.616-.499-1.117-1.114-1.117h-3.34V6.701h5.567c.615 0 1.114-.5 1.114-1.117S8.41 4.467 7.795 4.467H2.227V2.233h15.591v45.329L2.228 63.198zm45.66-8.942H20.044V1.117C20.045.5 19.547 0 18.932 0H1.114C.499 0 0 .5 0 1.117v64.766C0 66.5.499 67 1.114 67h46.772c.615 0 1.114-.5 1.114-1.117V48.017c0-.617-.499-1.117-1.114-1.117z"/></g></g></g></svg>