<svg xmlns="http://www.w3.org/2000/svg" width="67" height="67" viewBox="0 0 67 67"><g><g><g><path fill="#fff" d="M10.811 38.27l17.924 17.924H10.81zm-1.08 20.085h21.613a1.08 1.08 0 0 0 .764-1.845L10.495 34.897a1.08 1.08 0 1 0-1.845.764v21.613c0 .598.483 1.08 1.08 1.08z"/></g><g><path fill="#fff" d="M64.839 58.355H46.915l-4.322-4.323h1.713v-2.161h-3.875l-4.322-4.323h25.488a1.08 1.08 0 0 0 1.08-1.08v-32.42a1.08 1.08 0 0 0-1.08-1.08H50.79c-.287 0-.562.113-.764.316L46.02 17.29H21.613a1.08 1.08 0 0 0-1.08 1.081v13.6L8.644 20.086V2.16H64.84zM22.694 32.419h8.645v5.404c0 .597.483 1.08 1.08 1.08h7.565v6.484h-6.037L22.694 34.133zM33.5 30.26H22.694V19.451H33.5zm27.016-2.162H47.548v-6.484h-2.16v7.564c0 .598.482 1.081 1.08 1.081h1.08v1.08c0 2.61 1.86 4.793 4.323 5.295v8.754h-9.726v-7.564a1.08 1.08 0 0 0-1.08-1.081H33.5v-4.323h1.08a1.08 1.08 0 0 0 1.081-1.08V19.452h10.807c.287 0 .562-.114.764-.317l4.006-4.006h9.278zm-7.564 6.484a3.246 3.246 0 0 1-3.242-3.242v-1.08h10.806v15.128h-6.484v-9.726a1.08 1.08 0 0 0-1.08-1.08zm-7.565 30.258v-2.162h-2.161v2.162h-2.161v-4.323h-2.162v4.323h-2.161v-2.162H34.58v2.162h-2.162v-4.323h-2.16v4.323h-2.162v-2.162h-2.162v2.162h-2.16v-4.323h-2.162v4.323h-2.161v-2.162H17.29v2.162H15.13v-4.323h-2.161v4.323h-2.162v-2.162h-2.16v2.162H2.16v-2.162h2.162v-2.16H2.16v-2.162h4.323v-2.161H2.16v-2.162h2.162v-2.161H2.16V49.71h4.323v-2.162H2.16v-2.16h2.162v-2.162H2.16v-2.161h4.323v-2.162H2.16v-2.161h2.162V34.58H2.16v-2.162h4.323v-2.16H2.16v-2.162h2.162v-2.162H2.16v-9.278L50.343 64.84zM65.92 0H7.565a1.08 1.08 0 0 0-1.081 1.08v16.844l-4.64-4.64A1.08 1.08 0 0 0 0 14.048V65.92C0 66.517.483 67 1.08 67h51.872a1.08 1.08 0 0 0 .764-1.845l-4.64-4.639H65.92A1.08 1.08 0 0 0 67 59.436V1.08A1.08 1.08 0 0 0 65.92 0z"/></g><g><path fill="#fff" d="M11.89 6.48h6.484v2.161H11.89z"/></g><g><path fill="#fff" d="M20.53 6.48h6.484v2.161H20.53z"/></g><g><path fill="#fff" d="M29.18 6.48h6.484v2.161H29.18z"/></g><g><path fill="#fff" d="M37.82 6.48h6.484v2.161H37.82z"/></g><g><path fill="#fff" d="M46.47 6.48h6.484v2.161H46.47z"/></g><g><path fill="#fff" d="M55.11 6.48h6.484v2.161H55.11z"/></g><g><path fill="#fff" d="M46.47 51.87h6.484v2.161H46.47z"/></g><g><path fill="#fff" d="M55.11 51.87h6.484v2.161H55.11z"/></g></g></g></svg>