<svg xmlns="http://www.w3.org/2000/svg" width="67" height="67" viewBox="0 0 67 67"><g><g><g><path fill="#fff" d="M60.148 64.716l-5.024-5.02a1.16 1.16 0 0 0-.356-.245l-5.227-5.223 4.746-4.742 10.44 10.432v4.798zm-8.487.01l2.627-2.632 2.628 2.632zM47.98 55.79l4.742 4.742-4.184 4.184h-9.484zM19.08 64.716L8.622 54.147l4.672-4.629L26.667 62.82l1.897 1.897zm-8.368 0l2.566-2.566 2.566 2.566zm-8.48-4.232l4.71-4.671 4.718 4.724-4.184 4.19H2.232zm0-58.252h4.584l-.67.67-3.914 3.914zm32.915 0l-7.754 7.764-7.755-7.764zm-1.45 14.059l-4.686-4.687 9.372-9.372h9.485zm31.02-14.06v4.017l-4.018-4.016zm-9.432 19.845a1.19 1.19 0 0 0-.165-.206l-5.523-5.524 4.686-4.686 10.433 10.433v9.484zM2.232 47.868l4.686-4.575 4.686 4.686-9.373 9.373v-9.484zm0-25.33l4.709-4.662 4.663 4.771-9.373 9.367v-9.475zm0-12.607l4.686-4.687 4.742 4.742-5.523 5.524-3.906 3.905V9.931zM8.48 41.62l4.686-4.688 18.913 18.92-4.63 4.633-13.39-13.395a1.16 1.16 0 0 0-.356-.245zM2.232 35.26l4.686-4.686 4.686 4.686-9.373 9.373v-9.373zm31.467-6.362l-4.673-4.7L47.923 5.3l4.687 4.686zm-.002 12.62l-4.63-4.632 5.523-5.526 13.39-13.395 4.63 4.633zm-4.68 7.928l5.573-5.477 13.39-13.395 4.63 4.632-18.913 18.921zm-15.799-25.18l18.917 18.924-4.686 4.689-13.39-13.396-5.549-5.55zM8.51 16.32l4.708-4.665 18.917 18.917-4.686 4.686-13.39-13.39zm56.206 27.864l-9.431-9.5a1.19 1.19 0 0 0-.165-.207l-5.523-5.523 4.687-4.687 10.432 10.433v9.484zM57.58 2.232l7.146 7.252v9.373L49.541 3.682l1.452-1.45zm-47.65.111h6.584l15.62 15.621-4.666 4.667L14.059 9.15a1.16 1.16 0 0 0-.356-.244L8.48 3.682zm21.757 62.383l-2.62-2.623L47.97 43.18l4.691 4.696-5.235 5.333a1.16 1.16 0 0 0-.348.241L35.814 64.726zM57.13 49.2l-1.764-1.763a1.157 1.157 0 0 0-.245-.355l-5.523-5.521 4.686-4.684 10.433 10.428v9.48zM65.832 0H1.116C.446 0 0 .446 0 1.116v64.716c0 .67.446 1.116 1.116 1.116h64.716c.67 0 1.115-.447 1.115-1.116V21.646l-.002-.046a1.33 1.33 0 0 0 .002-.065V1.115C66.947.447 66.501 0 65.832 0z"/></g></g></g></svg>