<svg xmlns="http://www.w3.org/2000/svg" width="67" height="67" viewBox="0 0 67 67"><g><g><g><path fill="#fff" d="M16.59 51.975l25.294-25.342 21.638 37.505zm-1.616-32.313L3.228 7.9a3.332 3.332 0 0 1 0-4.706 3.318 3.318 0 0 1 4.7 0l11.745 11.763zM66.76 65.31L43.08 24.273a1.109 1.109 0 0 0-.815-.546 1.121 1.121 0 0 0-.927.316L28.382 37.02l-5.087-5.006V22.61c0-.294-.116-.576-.324-.784l-3.513-3.518 2.563-2.566a1.11 1.11 0 0 0 0-1.568L9.493 1.625a5.531 5.531 0 0 0-7.83-.001 5.552 5.552 0 0 0-.002 7.843l12.53 12.548a1.105 1.105 0 0 0 1.566 0l2.135-2.14 3.189 3.193v9.412c0 .295.12.578.332.784l5.405 5.315-13.165 13.192a1.11 1.11 0 0 0 .507 1.858l51.365 13.31a1.109 1.109 0 0 0 1.235-1.628z"/></g><g><path fill="#fff" d="M21.976 49.922a1.11 1.11 0 0 0 .794 1.352L56.4 59.987a1.108 1.108 0 0 0 .555-2.149l-33.63-8.713a1.108 1.108 0 0 0-1.348.797z"/></g></g></g></svg>