<svg xmlns="http://www.w3.org/2000/svg" width="68" height="56" viewBox="0 0 68 56"><g><g><g><path fill="#fff" d="M58.48 37.068a9.513 9.513 0 0 0-7.513 3.672V9.466c0-4.125 3.37-7.48 7.513-7.48s7.514 3.355 7.514 7.48V40.74a9.512 9.512 0 0 0-7.514-3.672zM54.293 47.66H42.45v-1.285c2.423-.465 4.258-2.591 4.258-5.135a.996.996 0 0 0-.998-.993h-3.26V29.523h6.52v17.011c0 .549.448.993.999.993a.995.995 0 0 0 .998-.993 7.468 7.468 0 0 1 3.326-6.206zM9.448 36.936h15.037v3.406c-2.422.465-4.258 2.59-4.258 5.133 0 .549.447.993.998.993h3.26v1.191H9.448zM24.485 21.05v5.523c-2.422.465-4.258 2.59-4.258 5.134 0 .548.447.993.998.993h3.26v2.25H9.448v-13.9zm15.969 24.425v2.184H26.482v-2.184a.996.996 0 0 0-.999-.993H22.38a3.264 3.264 0 0 1 3.104-2.25.996.996 0 0 0 .999-.993v-9.532a.996.996 0 0 0-.999-.993H22.38a3.264 3.264 0 0 1 3.104-2.25.996.996 0 0 0 .999-.994v-6.42h13.972v20.189c0 .548.447.993.998.993h3.104a3.264 3.264 0 0 1-3.104 2.25.996.996 0 0 0-.998.993zm8.516-17.938h-6.52V21.05h6.52zM58.485 0C53.24 0 48.97 4.246 48.97 9.466v2.184H13.374a.995.995 0 0 0-.998.993c0 .548.447.993.998.993H48.97v5.428H8.45a.995.995 0 0 0-.998.993v28.595c0 .549.447.993.998.993h46.841a.995.995 0 0 0 .999-.993v-9.271a7.523 7.523 0 0 1 2.195-.327c4.146 0 7.519 3.356 7.519 7.48 0 4.125-3.373 7.48-7.519 7.48H1.996V13.636H8.45a.996.996 0 0 0 .998-.993.996.996 0 0 0-.998-.993H.998a.995.995 0 0 0-.998.993v42.364c0 .549.447.993.998.993h57.487C63.732 56 68 51.754 68 46.534V9.466C68 4.246 63.732 0 58.485 0z"/></g></g></g></svg>