<?xml version="1.0" encoding="UTF-8"?>
<svg width="188px" height="191px" viewBox="0 0 188 191" version="1.1" xmlns="http://www.w3.org/2000/svg" xmlns:xlink="http://www.w3.org/1999/xlink">
    <!-- Generator: Sketch 63.1 (92452) - https://sketch.com -->
    <title>attic_font_1</title>
    <desc>Created with Sketch.</desc>
    <g id="Кейс" stroke="none" stroke-width="1" fill="none" fill-rule="evenodd">
        <g id="Портфолио-Attic-XL" transform="translate(-735.000000, -3313.000000)" fill="#12171E" fill-rule="nonzero">
            <g id="Colors-Fonts" transform="translate(165.000000, 3098.000000)">
                <path d="M571.85,230 L573.7,225.2 L579.55,225.2 L581.375,230 L582.575,230 L577.125,215.8 L576.125,215.8 L570.675,230 L571.85,230 Z M579.15,224.15 L574.1,224.15 L576.625,217.575 L579.15,224.15 Z M593.125,230.125 C594.375,230.125 595.7,229.575 596.35,228.575 L596.4,229 L596.7,230.05 L597.65,229.95 L597.425,228.825 L597.425,222.65 C597.425,220.85 596.3,219.875 594.4,219.825 C592.5,219.8 591.35,220.75 590.975,221.175 L591.55,221.775 C592.4,221.025 593.3,220.775 594.175,220.775 C595.5,220.775 596.3,221.325 596.3,222.675 L596.3,224.425 C594.925,224.55 593.275,224.725 592.025,224.9 C590.85,225.05 590.2,226.2 590.2,227.375 C590.2,228.95 591.375,230.125 593.125,230.125 Z M593.35,229.225 C591.7,229.225 591.225,228.025 591.225,227.3 C591.225,226.625 591.7,225.875 592.125,225.775 C593.425,225.525 594.975,225.375 596.3,225.175 L596.3,227.475 C595.925,228.45 594.65,229.225 593.35,229.225 Z M613.2,230.025 C615.5,230.025 617.2,228.325 617.2,226.1 C617.2,224.275 615.95,223.05 614.525,222.575 C614.8,222.425 615.075,222.25 615.325,221.975 C616.1,221.2 616.35,220.125 616.35,219.5 C616.35,217.375 614.675,215.8 612.725,215.8 L607.925,215.8 L607.925,230 L613.2,230.025 Z M612.575,222.15 L609.075,222.15 L609.075,216.85 L612.725,216.85 C614.175,216.85 615.25,218.175 615.25,219.575 C615.25,220.975 614.25,222.15 612.575,222.15 Z M613.175,228.95 L609.075,228.95 L609.075,223.15 L613.175,223.15 C614.675,223.15 616.125,224.35 616.125,225.95 C616.125,227.5 614.95,228.95 613.175,228.95 Z M630.4,230.125 C633,230.125 635.15,228.125 635.2,225 C635.25,221.7 633.15,219.875 631,219.875 C629.75,219.875 628.475,220.55 627.85,221.6 L627.85,215.8 L626.725,215.8 L626.725,228.975 C627.55,229.725 629.2,230.125 630.4,230.125 Z M627.85,228.6 L627.85,222.825 C628.125,222.175 628.95,220.75 630.825,220.775 C633.15,220.775 634.075,223.15 634.075,224.9 C634.075,226.825 633.05,229.075 630.425,229.2 C629.35,229.25 628.375,228.925 627.85,228.6 Z M651.05,230.125 C652.775,230.125 654.275,229.5 655.425,228.35 L654.825,227.65 C653.825,228.525 652.475,229.025 651.025,229.025 C647.7,229.025 645,226.3 645,222.925 C645,219.575 647.675,216.825 651.05,216.825 C652.475,216.825 653.8,217.325 654.825,218.2 L655.425,217.525 C654.35,216.425 652.8,215.725 651.025,215.725 C647.1,215.725 643.85,218.95 643.85,222.925 C643.85,226.9 647.075,230.125 651.05,230.125 Z M668.6,230.125 C669.95,230.125 671.025,229.65 671.9,228.75 L671.45,228.125 C670.675,228.825 669.7,229.175 668.7,229.175 C666.4,229.175 664.55,227.275 664.55,225 C664.55,222.7 666.4,220.825 668.725,220.825 C669.675,220.825 670.6,221.1 671.4,221.8 L671.875,221.225 C671,220.325 669.875,219.825 668.575,219.825 C665.75,219.825 663.475,222.125 663.475,225 C663.475,227.825 665.75,230.125 668.6,230.125 Z M685.05,230 C688.875,230 691.925,226.9 691.925,222.85 C691.925,218.825 689.05,215.8 684.975,215.8 L681.175,215.8 L681.175,230 L685.05,230 Z M684.775,228.85 L682.325,228.85 L682.325,216.95 L684.65,216.95 C688.375,216.95 690.75,219.275 690.75,222.8 C690.75,226.35 688.175,228.85 684.775,228.85 Z M704.85,230.125 C706.175,230.125 707.3,229.425 708,228.375 L708.075,228.85 L708.375,230.075 L709.3,229.925 L709.125,228.825 L709.125,215.8 L708,215.8 L708,220.625 C707.375,220.25 706.425,219.825 705.275,219.825 C702.6,219.825 700.625,221.925 700.575,225 C700.525,228.175 702.55,230.125 704.85,230.125 Z M705.025,229.15 C702.7,229.125 701.7,226.825 701.7,225.075 C701.7,223.475 702.525,220.95 705.325,220.775 C706.525,220.7 707.45,221.075 708,221.4 L708,227.1 C707.7,227.75 706.875,229.175 705.025,229.15 Z M728,230 L728,228.9 L720.725,228.9 L720.725,223.225 L726.675,223.225 L726.675,222.175 L720.725,222.175 L720.725,216.925 L727.925,216.925 L727.925,215.8 L719.575,215.8 L719.575,230 L728,230 Z M740.775,230.125 C742.225,230.125 743.625,229.55 744.575,228.275 L744.025,227.725 C743.325,228.6 742.05,229.25 740.65,229.175 C738.325,229.075 737.225,227.175 737.225,225.05 L737.225,224.8 L744.65,224.8 C744.85,222 743.325,219.825 740.525,219.825 C737.95,219.825 736.175,222.25 736.175,225.05 C736.175,228.225 738.125,230.125 740.775,230.125 Z M743.625,223.975 L737.325,223.975 C737.6,222.375 738.575,220.875 740.6,220.85 C742.775,220.825 743.6,222.625 743.625,223.975 Z M573.725,265 L573.725,258.225 L579.675,258.225 L579.675,257.175 L573.725,257.175 L573.725,251.925 L580.925,251.925 L580.925,250.8 L572.575,250.8 L572.575,265 L573.725,265 Z M591.475,265 L591.475,255.975 L594.35,255.975 L594.35,255 L591.475,255 L591.475,253.35 C591.475,252.175 592.275,251.05 593.675,251.05 C594.1,251.05 594.5,251.15 595,251.5 L595.425,250.825 C595.225,250.725 594.5,250.15 593.425,250.15 C591.675,250.15 590.35,251.45 590.35,253.375 L590.35,255 L588.6,255 L588.6,255.975 L590.35,255.975 L590.35,265 L591.475,265 Z M609.375,265.125 C610.975,265.125 612.7,264.6 613.925,263.775 L613.925,257.625 L609.55,257.625 L609.55,258.625 L612.9,258.625 L612.9,263.225 C611.675,263.9 610.325,264.025 609.5,264.025 C605.225,264.025 603.075,260.925 603.075,257.925 C603.075,254.575 605.8,251.825 609.125,251.825 C610.55,251.825 611.875,252.325 612.925,253.2 L613.55,252.45 C612.425,251.375 610.9,250.725 609.125,250.725 C605.175,250.725 601.95,253.925 601.95,257.95 C601.95,261.9 605.05,265.125 609.375,265.125 Z M627.075,272.2 C629.25,272.2 631.15,270.75 631.125,268.575 C631.125,267.325 630.275,265.875 629.3,265.55 C628.725,265.35 624.725,264.95 623.725,264.725 C623.225,264.6 622.925,264.35 622.925,263.925 C622.925,263.425 623.2,263.125 623.75,262.925 L625.15,262.575 C625.45,262.675 625.8,262.725 626.15,262.725 C628.45,262.725 629.85,260.675 629.85,258.8 C629.85,257.825 629.475,256.825 628.8,256.075 L630.65,256.15 L630.65,255.15 L627.775,255.25 C627.3,255.025 626.75,254.875 626.15,254.875 C623.85,254.875 622.45,256.925 622.45,258.8 C622.45,259.975 623,261.225 624,262 C623.825,262.025 623.625,262.075 623.425,262.15 C622.525,262.475 622.025,262.975 622.025,263.85 C622.025,264.65 622.45,265.225 623.325,265.475 C622.575,266.05 622.025,266.95 622,267.975 C621.95,270.45 624.325,272.2 627.075,272.2 Z M626.15,261.675 C624.45,261.675 623.475,260.125 623.475,258.775 C623.475,257.45 624.475,255.875 626.15,255.875 C627.825,255.875 628.825,257.425 628.825,258.775 C628.825,260.1 627.85,261.675 626.15,261.675 Z M626.85,271.225 C624.775,271.15 622.95,269.75 622.95,268.025 C622.95,266.475 624.075,265.65 624.375,265.7 C625.65,265.875 628.125,266.2 628.675,266.325 C629.7,266.6 630.15,267.8 630.125,268.575 C630.075,270.2 628.825,271.3 626.85,271.225 Z M641.05,265 L641.05,258.1 L649.025,258.1 L649.025,265 L650.15,265 L650.15,250.8 L649.025,250.8 L649.025,257.05 L641.05,257.05 L641.05,250.8 L639.925,250.8 L639.925,265 L641.05,265 Z M661.925,265 L661.925,258.25 C662.075,257.975 662.425,257.5 662.925,257.05 C663.55,256.45 664.4,255.925 665.375,255.925 C667.0625,255.925 667.192506,257.714955 667.19964,258.313544 L667.2,265 L668.35,265 L668.35,258.3 C668.35,255.825 667.225,255.125 666.475,255 C665.025,254.6 663.65,255.3 662.525,256.475 C662.325,256.725 662.1,256.975 661.925,257.25 L661.925,250.8 L660.8,250.8 L660.8,265 L661.925,265 Z M679.95,265 L679.95,250.8 L678.825,250.8 L678.825,265 L679.95,265 Z M691.75,252.175 L691.75,250.575 L690.5,250.575 L690.5,252.175 L691.75,252.175 Z M691.7,265 L691.7,255 L690.575,255 L690.575,265 L691.7,265 Z M703.1,264.5 C703.875,263.975 704.4,263.075 704.4,262.025 L704.4,250.8 L703.275,250.8 L703.275,261.775 C703.275,262.45 703.025,263.175 702.375,263.625 C702.05,263.875 701.575,264.05 700.95,264.1 L700.975,265.1 C701.825,265.125 702.55,264.925 703.1,264.5 Z M716.275,252.175 L716.275,250.6 L715,250.6 L715,252.175 L716.275,252.175 Z M714.225,270.25 C715.975,269.6 716.2,268.15 716.2,266.125 L716.2,255 L715.05,255 L715.05,266.3 C715.05,267.5 715.025,269.05 713.9,269.55 L714.225,270.25 Z M727.975,265 L727.975,258.925 L729,257.925 L734.925,265 L736.35,265 L729.825,257.1 L736.1,250.975 L734.55,250.975 L727.975,257.35 L727.975,250.8 L726.85,250.8 L726.85,265 L727.975,265 Z M746.125,265 L746.125,260.5 L747.275,259.5 L751.825,265 L753.175,265 L748.025,258.825 L752.35,255 L750.875,255 L746.125,259.2 L746.125,250.8 L745,250.8 L745,265 L746.125,265 Z M581,300 L581,298.9 L573.725,298.9 L573.725,285.8 L572.575,285.8 L572.575,300 L581,300 Z M591.225,300 L591.225,285.8 L590.125,285.8 L590.125,300 L591.225,300 Z M603.025,300 L603,287.9 L608.35,295.4 L609.15,295.4 L614.475,287.95 L614.5,300 L615.625,300 L615.625,285.8 L614.7,285.8 L608.75,294.1 L602.8,285.8 L601.875,285.8 L601.875,300 L603.025,300 Z M627.4,300 L627.4,293.275 C628.1,292.125 629.4,290.925 630.775,290.925 C632.625,290.925 632.65,292.85 632.65,293.375 L632.65,300 L633.775,300 L633.775,293.2 C634.475,292.075 635.65,290.925 636.975,290.925 C638.725,290.925 638.975,292.85 638.975,293.375 L638.975,300 L640.05,300 L640.05,293.3 C640.05,290.825 638.8,290.125 638.075,290 C636.4,289.5 634.8,290.575 633.65,292.15 C633.35,290.575 632.475,290.1 631.925,290 C630.55,289.625 629.275,290.225 628.125,291.275 C627.9,291.5 627.625,291.8 627.4,292.125 L627.4,290 L626.275,290.15 L626.275,300 L627.4,300 Z M661.325,300.025 L661.325,285.8 L660.175,285.8 L660.175,297.95 L651.475,285.8 L650.525,285.8 L650.525,300 L651.675,300 L651.675,287.925 L660.325,300.025 L661.325,300.025 Z M673.1,300 L673.1,293.25 C673.275,292.95 673.625,292.45 674.15,291.975 C674.775,291.4 675.6,290.925 676.55,290.925 C678.3,290.925 678.375,292.85 678.375,293.375 L678.375,300 L679.525,300 L679.525,293.3 C679.525,290.825 678.4,290.125 677.65,290 C676.25,289.6 674.875,290.3 673.775,291.375 C673.525,291.65 673.3,291.95 673.1,292.25 L673.1,290 L671.975,290.15 L671.975,300 L673.1,300 Z M695.55,300.125 C699.275,300.125 702.3,296.9 702.3,292.925 C702.3,288.95 699.275,285.725 695.55,285.725 C691.825,285.725 688.825,288.95 688.825,292.925 C688.825,296.9 691.85,300.125 695.55,300.125 Z M695.55,299 C692.475,299 690,296.275 690,292.925 C690,289.575 692.475,286.875 695.55,286.875 C698.625,286.875 701.1,289.575 701.1,292.925 C701.1,296.275 698.625,299 695.55,299 Z M715.675,300.125 C718.35,300.125 720.525,297.825 720.525,294.975 C720.525,292.15 718.35,289.85 715.675,289.85 C713.025,289.85 710.875,292.15 710.875,294.975 C710.875,297.825 713.025,300.125 715.675,300.125 Z M715.7,299.075 C713.625,299.075 711.95,297.225 711.95,294.975 C711.95,292.725 713.625,290.9 715.7,290.9 C717.775,290.9 719.425,292.725 719.425,294.975 C719.425,297.225 717.775,299.075 715.7,299.075 Z M731.4,300 L731.4,293.625 L735.3,293.625 C737.75,293.625 739.35,292 739.35,289.825 C739.35,287.675 737.775,285.8 735.425,285.8 L730.25,285.8 L730.25,300 L731.4,300 Z M735.4,292.6 L731.4,292.6 L731.4,286.825 L735.225,286.825 C737.05,286.825 738.25,288.175 738.25,289.8 C738.25,291.45 737.075,292.6 735.4,292.6 Z M750.075,305.075 L750.075,299.5 C750.625,299.75 751.575,300.125 752.65,300.125 C755.375,300.125 757.35,298.075 757.4,294.975 C757.45,291.8 755.425,289.875 753.15,289.875 C751.825,289.875 750.7,290.6 750.075,291.55 L750.075,289.95 L748.95,290.125 L748.95,305.075 L750.075,305.075 Z M750.075,298.65 L750.075,292.75 C750.375,292.075 751.225,290.775 753,290.775 C755.375,290.775 756.3,293.175 756.3,294.825 C756.3,296.7 755.425,299.05 752.625,299.2 C751.575,299.25 750.625,298.95 750.075,298.65 Z M585.6,337.1 L585.325,336.35 C583.2,337.025 579.975,337.125 578.675,335.125 C582.15,334.825 584.875,331.725 584.875,327.95 C584.875,323.975 581.85,320.775 578.125,320.775 C574.4,320.775 571.4,323.975 571.4,327.95 C571.4,331.675 574.05,334.75 577.45,335.125 C578.7,337.8 582.775,338.3 585.6,337.1 Z M578.125,334 C575.05,334 572.575,331.3 572.575,327.95 C572.575,324.6 575.05,321.9 578.125,321.9 C581.2,321.9 583.7,324.6 583.7,327.95 C583.7,331.3 581.2,334 578.125,334 Z M602,340.025 L602,325 L600.875,325.125 L600.875,325.675 C600.25,325.275 599.275,324.825 598.15,324.825 C595.55,324.825 593.5,326.85 593.45,330.025 C593.4,333.175 595.425,335.125 597.75,335.125 C599.075,335.125 600.175,334.425 600.875,333.375 L600.875,340.025 L602,340.025 Z M597.925,334.15 C595.55,334.15 594.575,331.775 594.575,330.075 C594.575,328.275 595.6,325.875 598.2,325.75 C599.4,325.7 600.325,326.075 600.875,326.4 L600.875,332.1 C600.6,332.75 599.75,334.15 597.925,334.15 Z M613.65,335 L613.65,328.625 L617.15,328.625 L621.05,335 L622.275,335 L618.35,328.575 C620.35,328.25 621.6,326.75 621.6,324.825 C621.6,322.675 620.025,320.8 617.675,320.8 L612.5,320.8 L612.5,335 L613.65,335 Z M617.65,327.6 L613.65,327.6 L613.65,321.825 L617.475,321.825 C619.3,321.825 620.5,323.175 620.5,324.8 C620.5,326.45 619.325,327.6 617.65,327.6 Z M632.05,335 L632.05,327.9 C632.275,327.4 632.475,327.05 632.95,326.675 C633.675,326.05 634.375,325.95 634.95,325.95 C635.575,325.95 635.875,326.075 635.95,326.125 L636.475,325.1 C636.35,325.025 635.775,324.875 635.275,324.875 C634.625,324.875 633.525,325.225 632.9,325.85 C632.6,326.075 632.275,326.375 632.05,326.75 L632.05,325 L630.925,325.15 L630.925,335 L632.05,335 Z M648.35,335.125 C650.875,335.125 652.7,333.575 652.7,331.325 C652.7,329.125 650.775,328.1 648.375,327.1 C646.65,326.425 645.05,325.85 645.125,324.125 C645.2,322.6 646.45,321.7 648.35,321.7 C650.15,321.725 651.225,322.4 651.575,322.55 L652.075,321.8 C650.9,321.125 649.7,320.675 648.3,320.65 C645.825,320.625 643.975,322.025 643.95,324.15 C643.9,326.375 645.4,327.075 647.85,328.125 C649.6,328.8 651.5,329.7 651.5,331.35 C651.5,332.95 650.175,334.075 648.25,334.075 C646.975,334.075 645.15,333.5 644.45,332.85 L643.9,333.575 C644.2,333.925 646.025,335.125 648.35,335.125 Z M665.025,335.175 C667.05,335.175 668.55,334.05 668.55,332.425 C668.55,330.725 666.925,330.025 664.85,329.275 C663.6,328.825 662.45,328.425 662.45,327.35 C662.45,326.275 663.625,325.725 664.975,325.725 C666.35,325.75 667.35,326.275 667.5,326.35 L668,325.7 C667.375,325.35 666.225,324.825 664.825,324.825 C662.825,324.825 661.35,325.85 661.325,327.325 C661.3,328.95 662.9,329.65 664.25,330.15 C666.175,330.85 667.45,331.4 667.45,332.45 C667.45,333.5 666.45,334.225 664.875,334.225 C663.3,334.225 662,333.5 661.875,333.375 L661.3,334 C661.8,334.4 663.35,335.175 665.025,335.175 Z M682.625,335 L682.625,321.95 L687.875,321.95 L687.875,320.8 L676.225,320.8 L676.225,321.95 L681.475,321.95 L681.475,335 L682.625,335 Z M699,335.125 C700.025,335.125 701.025,334.5 701.525,333.75 L701,333.2 C700.6,333.625 699.9,334.075 699.175,334.075 C698.125,334.075 697.75,333.15 697.75,331.925 L697.75,325.975 L700.6,325.975 L700.6,325 L697.75,325 L697.75,322.85 L696.6,322.975 L696.6,325 L694.95,325 L694.95,325.975 L696.6,325.975 L696.6,331.375 C696.6,333.675 697.15,335.125 699,335.125 Z M729,335.075 C731.325,335.075 734.35,333.325 734.35,330.075 L734.35,320.8 L733.2,320.8 L733.2,330.15 C733.2,332.125 731.375,333.9 729.025,333.9 C726.675,333.9 724.8,332.15 724.8,330.15 L724.8,320.8 L723.65,320.8 L723.65,330.075 C723.65,333.325 726.6,335.075 729,335.075 Z M748.425,335.125 C750,335.125 751.025,334.45 751.6,333.775 L751.6,333.8 L751.925,335.05 L752.85,334.9 L752.65,333.775 L752.65,325 L751.525,325 L751.525,332.8 C751.1,333.475 750.35,334.1 748.75,334.1 C746.8,334.1 746.125,333.1 746.125,330.975 L746.125,325 L745,325 L745,331.075 C745.025,333.1 745.525,335.125 748.425,335.125 Z M577.825,370 L583.95,355.8 L582.675,355.8 L577.325,368.375 L571.95,355.8 L570.675,355.8 L576.825,370 L577.825,370 Z M596.15,370.025 L600.475,360 L599.3,360 L595.7,368.525 L592.1,360 L590.9,360 L595.25,370.025 L596.15,370.025 Z M613.925,370 L616.825,362.275 L619.725,370 L620.7,370 L626.2,355.8 L624.975,355.8 L620.2,368.225 L617.425,360.675 L619.25,355.8 L618.075,355.8 L616.825,359.2 L615.575,355.8 L614.375,355.8 L616.2,360.675 L613.45,368.225 L608.65,355.8 L607.45,355.8 L612.95,370 L613.925,370 Z M638.425,370.025 L641.325,363.325 L644.2,370.025 L645.075,370.025 L649.4,360 L648.275,360 L644.6,368.5 L641.025,360 L639.9,360 L640.825,362.125 L638,368.525 L634.325,360 L633.175,360 L637.525,370.025 L638.425,370.025 Z M657.85,370 L662.75,363.775 L667.625,370 L669.1,370 L663.475,362.85 L669.025,355.8 L667.55,355.8 L662.75,361.925 L657.925,355.8 L656.475,355.8 L662,362.85 L656.375,370 L657.85,370 Z M677.425,370 L680.875,365.65 L684.325,370 L685.675,370 L681.55,364.875 L685.35,360 L683.975,360 L680.875,364.15 L677.725,360 L676.4,360 L680.175,364.9 L676.075,370 L677.425,370 Z M699.05,370 L699.05,364.225 L704.375,355.8 L703,355.8 L698.5,363.075 L693.975,355.8 L692.65,355.8 L697.9,364.2 L697.9,370 L699.05,370 Z M712.4,375.275 C713.975,375.275 714.675,374.625 715.475,372.875 L721.1,360 L719.95,360 L716.225,368.575 L712.475,360 L711.325,360 L715.65,369.9 L714.2,373.125 C713.875,373.85 713.325,374.5 712.4,374.5 L712.4,375.275 Z M738.95,370 L738.95,368.85 L729.35,368.85 L739.3,357.025 L739.3,355.8 L728.15,355.8 L728.15,356.95 L737.9,356.95 L727.925,368.775 L727.925,370 L738.95,370 Z M754.775,370 L754.775,369.025 L747.85,369.025 L754.875,360.975 L754.875,360 L746.625,360 L746.625,360.975 L753.525,360.975 L746.475,369.025 L746.475,370 L754.775,370 Z M574.475,405 L574.475,390.95 L573.8,390.8 L570.525,392.75 L571.025,393.625 L573.325,392.25 L573.325,405 L574.475,405 Z M593.3,405 L593.3,403.975 L585.275,403.975 L590.125,399.225 C591.675,397.675 592.925,396.475 592.925,394.45 C592.9,391.875 590.725,390.75 588.375,390.75 C587.225,390.75 585.875,391.1 584.2,391.975 L584.675,392.775 C586.15,392.075 587.3,391.8 588.3,391.8 C590.325,391.8 591.775,392.725 591.8,394.525 C591.825,396.1 590.725,397.15 589.425,398.475 L583.75,404.05 L583.75,405 L593.3,405 Z M605.8,405.125 C608.5,405.125 610.3,403.425 610.3,401.2 C610.3,399.375 608.925,398.275 607.175,397.45 C608.625,396.775 609.675,395.875 609.675,394.25 C609.675,391.675 607.35,390.375 604.35,390.9 C602.9,391.125 602.025,391.65 601.7,391.925 L602.175,392.725 C602.375,392.55 603.75,391.775 605.425,391.775 C607.275,391.775 608.525,392.775 608.525,394.3 C608.525,395.75 607.4,396.5 604.8,397.525 L605.1,398.25 L606.1,397.875 C607.725,398.65 609.15,399.475 609.15,401.2 C609.15,402.85 607.8,404.025 605.7,404.025 C604.15,404.025 602.7,403.45 601.675,402.725 L601.175,403.475 C601.525,403.8 603.475,405.125 605.8,405.125 Z M626.375,405 L626.375,400.45 L628.65,400.45 L628.65,399.475 L626.375,399.475 L626.375,391.175 L625.625,390.975 L618.475,399.525 L618.475,400.45 L625.325,400.45 L625.325,405 L626.375,405 Z M625.325,399.475 L619.7,399.475 L625.325,392.75 L625.325,399.475 Z M640.65,405.125 C642.975,405.125 645.25,403.25 645.275,400.4 C645.3,397.55 643.125,395.675 640.75,395.625 C639.65,395.6 638.7,396.075 638.05,396.7 L638.875,391.825 L644.925,391.775 L644.925,390.8 L638.1,390.8 L637.025,397.375 L637.9,397.9 C638.375,397.325 639.275,396.55 640.6,396.55 C642.625,396.55 644.225,398.225 644.225,400.375 C644.225,402.4 642.7,404.15 640.625,404.15 C638.7,404.15 637.675,402.7 637.55,402.45 L636.875,402.925 C637.075,403.325 638.4,405.125 640.65,405.125 Z M659.25,405.125 C661.6,404.95 663.275,402.85 663.1,400.45 C662.925,398.075 661.05,396.3 658.625,396.475 C657.375,396.575 656.225,397.325 655.575,398.375 C655.325,395.55 656.5,391.825 659.425,391.75 C660.325,391.725 661.35,392 661.975,392.45 L662.525,391.775 C661.45,390.95 660.1,390.7 659.25,390.7 C655.675,390.7 653.8,395.55 654.65,400.55 C654.925,402.7 656.475,405.325 659.25,405.125 Z M655.825,400.95 C655.575,399 657,397.55 658.6,397.4 C660.35,397.25 661.875,398.675 662.025,400.475 C662.2,402.325 660.925,404 659.225,404.125 C657.425,404.275 656.025,402.675 655.825,400.95 Z M673.475,405 L679.225,391.825 L679.225,390.8 L671.05,390.8 L671.05,391.85 L678.075,391.85 L672.275,405 L673.475,405 Z M692.1,405.125 C695.325,405.125 696.75,403.15 696.75,401.3 C696.75,399.45 695.95,398.7 693.375,397.475 C695.425,396.425 696.3,395.95 696.3,394.125 C696.3,392.425 694.975,390.7 692.1,390.7 C688.925,390.7 688,392.8 688,394.2 C688,395.9 688.95,396.6 690.875,397.45 C688.85,398.4 687.525,399.275 687.525,401.225 C687.525,402.675 688.5,405.125 692.1,405.125 Z M692.125,396.975 C690.3,396.2 689.1,395.9 689.1,394.25 C689.1,393.3 689.725,391.725 692.125,391.725 C694.25,391.725 695.175,392.95 695.175,394.2 C695.175,395.775 694.325,396.1 692.125,396.975 Z M692.1,404.05 C689.4,404.05 688.675,402.175 688.675,401.125 C688.675,399.425 689.95,398.975 692.125,397.825 C694.475,399.05 695.625,399.45 695.625,401.2 C695.625,402.575 694.525,404.05 692.1,404.05 Z M714.325,395.55 C714.175,393.375 712.85,390.725 710.1,390.725 C707.8,390.725 705.925,392.625 705.9,395.05 C705.9,397.5 707.7,399.35 710,399.4 C711.3,399.425 712.5,398.75 713.225,397.775 C713.2,400.6 711.675,404.2 708.75,404.025 C707.725,403.95 706.75,403.5 706.225,403.075 L705.625,403.675 C706.55,404.525 707.875,405 708.875,405.05 C712.425,405.225 714.825,400.675 714.325,395.55 Z M710.125,398.45 C708.35,398.4 706.95,396.925 706.975,395.1 C707,393.25 708.4,391.675 710.1,391.7 C711.925,391.75 713.175,393.45 713.2,395.175 C713.25,397.15 711.725,398.5 710.125,398.45 Z M729.05,405.15 C732.5,405.15 734.425,402 734.425,397.975 C734.425,393.95 732.5,390.825 729.05,390.825 C725.6,390.825 723.65,393.95 723.65,397.975 C723.65,402 725.6,405.15 729.05,405.15 Z M729.05,404.025 C726.275,404.025 724.8,401.375 724.8,397.975 C724.8,394.575 726.25,391.95 729.05,391.95 C731.825,391.95 733.275,394.575 733.275,397.975 C733.275,401.375 731.825,404.025 729.05,404.025 Z" id="attic_font_1"></path>
            </g>
        </g>
    </g>
</svg>