<svg xmlns="http://www.w3.org/2000/svg" width="747" height="679" viewBox="0 0 747 679"><defs><clipPath id="b94la"><path d="M0 678.002h746.917V.44H0z"/></clipPath></defs><g><g opacity=".05"><g opacity=".05"><path fill="#fff" d="M45.083 94.047L0 288.757l31.363 308.36L58.451 670h31.562l-13.507-58.72-2.429-167.811 34.403-143.963 70.223-37.106-5.363-10.148-74.817 39.526-35.773 149.72-.158.703 2.453 169.852L75.59 658.52h-9.18l-23.71-63.3-31.081-305.732 43.63-188.468 108.378-73.434 25.529 15.084L195 32.787 163.211 14z"/></g><g opacity=".05"><path fill="#fff" d="M304.152 0L191.129 31.72l3.105 11.063 110.145-30.909 51.5 12.282 92.047 103.118-22.285 63.533-115.98 86.68-93.235 37.865-25.153-13.154-9.017-46.101L171 258.303l10.076 51.529L215.82 328l98.838-40.137 120.656-89.937L461 124.67 362.042 13.812z"/></g><g opacity=".05"><path fill="#fff" d="M392 64.197l236.113 53.599 77.759 135.387-57.692 276.983 46.999 108.65-3.981 28.695h-64.001l-68.431-145.312-10.392 4.888L619.906 679h81.295l5.791-41.795-46.836-108.262L718 251.248l-82.425-143.534L394.541 53z"/></g><g opacity=".05"><g opacity=".05"><path fill="#fff" d="M741.175 396.525a5.744 5.744 0 0 1-5.13-3.15l-41.305-81.8 10.264-5.171 21.51 42.609-20.283-96.334 11.236-2.359 29.324 139.284a5.731 5.731 0 0 1-3.718 6.597c-.63.222-1.259.324-1.898.324"/></g><g opacity=".05"><path fill="#fff" d="M181.037 260.098l-9.847-5.893L267.25 93.96l-78.227-51.55 6.315-9.581 87.408 57.601z"/></g><g opacity=".05"><path fill="#fff" d="M450.095 427.608L308.03 286.492l8.097-8.132 142.06 141.116z"/></g><g opacity=".05"><path fill="#fff" d="M623.444 677.996h-75.722V526.111l-93.602-94.437-94.597 94.456-.504 151.866H263.5v-21.44l24.102-29.865-23.551-147.708 11.343-1.804 24.356 152.74-24.778 30.693v5.908h72.607l.472-145.16 106.106-105.95L559.2 521.384V666.52h64.245z"/></g><g opacity=".05"><path fill="#fff" d="M211.195 661.515l-52.241-54.756-21.514-78.848 64.079-115.79 8.398-91.161 11.435 1.055-8.616 93.553-62.995 113.819 19.528 71.553 46.597 48.844 33.074-1.693 22.398-25.405-55.606-55.663 48.926-91.643 10.13 5.398-44.922 84.154 57.213 57.268-32.722 37.104z"/></g><g opacity=".05"><path fill="#fff" d="M264.303 479.952l-54.093-156.59 10.861-3.742L275.4 477.176z"/></g><g opacity=".05"><path fill="#fff" d="M685.702 351.76L427.23 199.37l5.829-9.88 258.477 152.39z"/></g><g opacity=".05"/><g clip-path="url(#b94la)" opacity=".05"><path fill="#fff" d="M523.916 537.667v139.826H380.18V537.667l74.134-74.027zm-92.568 91.335h45.59v-65.5h-45.59z"/></g></g></g></g></svg>