<svg xmlns="http://www.w3.org/2000/svg" width="676" height="450" viewBox="0 0 676 450"><defs><clipPath id="jlnma"><path d="M0 450h675.113V.7H0z"/></clipPath></defs><g><g><g><path fill="#cdcdcd" d="M35.966 293.806l15.265 39.71H20.703zm-3.023-10.716L0 368.848h7.101l11.187-28.99H53.65l11.03 28.99h7.255L38.99 283.09z"/></g><g><path fill="#cdcdcd" d="M136.49 290.033h-31.585v78.815h-6.92v-78.815H66.4v-6.943h70.09z"/></g><g><path fill="#cdcdcd" d="M201.05 290.033h-31.584v78.815h-6.92v-78.815H130.96v-6.943h70.09z"/></g><g><path fill="#cdcdcd" d="M208.43 368.848h6.456V283.09h-6.456z"/></g><g><g><path fill="#cdcdcd" d="M227.79 326.234c0-23.891 19.524-43.274 43.097-43.274 10.664 0 19.975 4.206 26.432 10.82l-3.607 4.055c-6.157-5.258-14.115-8.264-22.672-8.264-20.275 0-36.341 16.528-36.341 36.663 0 20.283 16.215 36.66 36.188 36.66 8.71 0 16.822-3.006 22.825-8.264l3.607 4.21c-6.91 6.909-15.92 10.665-26.28 10.665-23.877 0-43.249-19.382-43.249-43.27"/></g><g><path fill="#cdcdcd" d="M332 360.183l3.305-4.357c4.204 3.906 15.165 7.36 22.825 7.36 11.561 0 19.522-6.758 19.522-16.374 0-9.919-11.412-15.326-21.926-19.381-14.716-6.313-23.726-10.52-23.424-23.894.149-12.771 11.261-21.184 26.128-21.035 8.41.15 15.617 2.856 22.675 6.913l-3.006 4.507c-2.1-.9-8.557-4.96-19.37-5.109-11.412 0-18.919 5.411-19.371 14.575-.449 10.368 9.162 13.824 19.52 17.88 14.418 6.008 25.981 12.17 25.981 25.394 0 13.521-10.961 22.836-26.13 22.836-13.965 0-24.926-7.211-26.729-9.315"/></g><g><path fill="#cdcdcd" d="M455.284 290.32h-31.532v78.433h-6.91V290.32H385.31v-6.909h69.974z"/></g><g><path fill="#cdcdcd" d="M490.422 330.44H469.4v38.313h-6.909V283.41h31.087c14.115 0 23.573 11.268 23.573 24.192 0 11.57-7.505 20.584-19.52 22.537l23.576 38.614h-7.36zm-21.023-6.161h24.026c10.061 0 17.118-6.913 17.118-16.83 0-9.764-7.207-17.88-18.169-17.88H469.4z"/></g><g><path fill="#cdcdcd" d="M521.8 326.234c0-23.891 18.02-43.274 40.395-43.274 22.374 0 40.542 19.383 40.542 43.274 0 23.889-18.168 43.271-40.542 43.271-22.225 0-40.395-19.382-40.395-43.27m73.73 0c0-20.136-14.865-36.363-33.335-36.363s-33.337 16.227-33.337 36.362c0 20.132 14.867 36.512 33.337 36.512 18.47 0 33.335-16.38 33.335-36.512"/></g><g><path fill="#cdcdcd" d="M642.682 334.043v34.708h-6.906v-34.857L604.24 283.41h7.96l27.18 43.72 27.027-43.72h8.26z"/></g><g><path fill="#cdcdcd" d="M160.524 440.39a15.1 15.1 0 0 1-1.349.629c-.467.192-.96.355-1.481.492-.522.133-1.081.241-1.679.318a15.25 15.25 0 0 1-1.927.113c-1.112 0-2.12-.133-3.027-.394a9.3 9.3 0 0 1-2.422-1.069 8.562 8.562 0 0 1-1.843-1.564 9.405 9.405 0 0 1-1.292-1.878 9.049 9.049 0 0 1-.756-2.004 8.252 8.252 0 0 1-.248-1.946c0-.9.108-1.757.33-2.576a9.02 9.02 0 0 1 .942-2.265c.406-.693.9-1.317 1.482-1.877a8.932 8.932 0 0 1 1.951-1.43 9.656 9.656 0 0 1 2.353-.911 10.965 10.965 0 0 1 2.683-.318 11.42 11.42 0 0 1 2.83.35c.495.12 1.011.273 1.552.458.536.18 1.106.401 1.71.655v2.736a17.173 17.173 0 0 0-1.596-.833 12.34 12.34 0 0 0-1.514-.579 9.589 9.589 0 0 0-1.487-.339 10.518 10.518 0 0 0-1.52-.106c-1.018 0-1.959.172-2.823.514a6.823 6.823 0 0 0-2.244 1.419 6.363 6.363 0 0 0-1.482 2.152c-.357.827-.534 1.734-.534 2.721 0 .992.172 1.901.522 2.729a6.15 6.15 0 0 0 1.467 2.132 6.712 6.712 0 0 0 2.271 1.386c.882.332 1.856.497 2.924.497 1.017 0 2.051-.172 3.103-.51 1.05-.34 2.087-.839 3.104-1.501z"/></g><g><path fill="#cdcdcd" d="M178.27 423.94v2.29h-6.142v15.486h-2.555V426.23h-6.143v-2.29z"/></g><g><path fill="#cdcdcd" d="M181.84 423.94h5.555c.967 0 1.806.133 2.518.403.713.266 1.299.628 1.764 1.094.46.461.803 1.004 1.029 1.627a5.84 5.84 0 0 1 .337 1.992c0 .693-.12 1.346-.357 1.951a4.163 4.163 0 0 1-1.093 1.579c-.493.445-1.112.795-1.863 1.058-.75.255-1.645.387-2.677.387h-2.658v7.685h-2.555zm2.557 2.29v5.51h2.89c.474 0 .903-.063 1.29-.184.386-.124.715-.305.988-.549.272-.24.481-.536.63-.884a3.05 3.05 0 0 0 .222-1.182c0-.323-.051-.646-.145-.968a2.306 2.306 0 0 0-.497-.871 2.537 2.537 0 0 0-.93-.629c-.388-.163-.868-.243-1.445-.243z"/></g><g><path fill="#cdcdcd" d="M195.77 432.833c0-1.23.225-2.398.68-3.499a8.788 8.788 0 0 1 1.925-2.906c.83-.836 1.832-1.498 3.009-1.987 1.173-.488 2.478-.731 3.923-.731 1.465 0 2.787.243 3.967.731 1.176.489 2.18 1.147 3.007 1.982a8.612 8.612 0 0 1 1.908 2.899 9.283 9.283 0 0 1 .667 3.511c0 1.197-.22 2.342-.655 3.442a8.748 8.748 0 0 1-1.888 2.908c-.823.84-1.83 1.508-3.02 2.01-1.192.499-2.537.75-4.038.75-.967 0-1.875-.114-2.721-.336a9.35 9.35 0 0 1-2.321-.948 8.787 8.787 0 0 1-1.876-1.456 8.936 8.936 0 0 1-2.269-4.016 9.226 9.226 0 0 1-.298-2.354m2.631 0c0 .968.172 1.866.522 2.693a6.529 6.529 0 0 0 1.442 2.15 6.564 6.564 0 0 0 2.188 1.417c.843.339 1.762.51 2.754.51s1.91-.171 2.759-.51a6.631 6.631 0 0 0 2.195-1.417 6.64 6.64 0 0 0 1.442-2.15 6.913 6.913 0 0 0 .522-2.693c0-.985-.176-1.887-.522-2.714a6.542 6.542 0 0 0-1.442-2.145 6.567 6.567 0 0 0-2.195-1.413c-.848-.34-1.767-.508-2.76-.508-.991 0-1.91.167-2.753.508a6.434 6.434 0 0 0-3.63 3.558c-.35.827-.522 1.729-.522 2.714"/></g><g><path fill="#cdcdcd" d="M231.802 428.66l-11.28 13.283H219.3V423.94h2.544v13.526l11.253-13.526h1.247v17.776h-2.542z"/></g><g><path fill="#cdcdcd" d="M252.918 423.94v2.29h-6.14v15.486h-2.557V426.23h-6.141v-2.29z"/></g><g><path fill="#cdcdcd" d="M266.693 423.94v2.29h-7.529v5.37h7.273v2.303h-7.273v5.523h7.77v2.29H256.62V423.94z"/></g><g><path fill="#cdcdcd" d="M278.415 423.84l7.947 17.875h-2.606l-6.269-14.415-5.889 14.415h-2.608l7.631-17.875z"/></g><g><path fill="#cdcdcd" d="M295.039 431.423c1.022 0 1.92.14 2.682.419.763.28 1.397.655 1.9 1.127a4.55 4.55 0 0 1 1.134 1.648c.247.624.375 1.29.375 1.997 0 .703-.133 1.363-.394 1.985a4.673 4.673 0 0 1-1.157 1.622c-.51.462-1.14.827-1.89 1.094-.75.268-1.609.4-2.574.4h-5.495V423.94h2.544v7.483zm-2.875 2.29v5.723h3.286c.587 0 1.073-.084 1.464-.242.39-.164.7-.373.937-.631.233-.262.402-.552.503-.874.101-.323.153-.647.153-.969 0-.443-.071-.846-.21-1.216a2.645 2.645 0 0 0-1.567-1.569 3.462 3.462 0 0 0-1.28-.222z"/></g><g><path fill="#cdcdcd" d="M320.134 423.94v17.776h-2.544v-7.737h-9.957v7.737h-2.543V423.94h2.543v7.75h9.957v-7.75z"/></g><g><path fill="#cdcdcd" d="M332.841 423.84l7.95 17.875h-2.607l-2.367-5.24h-7.553l-2.238 5.24h-2.606l7.63-17.875zm-.928 3.906l-2.657 6.427h5.52z"/></g><g><path fill="#cdcdcd" d="M344.62 437.759a26.096 26.096 0 0 1 1.608-2.228c.54-.66 1.089-1.193 1.648-1.601a14.38 14.38 0 0 1-1.329-.695 5.17 5.17 0 0 1-1.17-.955 4.484 4.484 0 0 1-.833-1.352c-.21-.53-.318-1.16-.318-1.898 0-.858.158-1.603.47-2.239a4.48 4.48 0 0 1 1.303-1.59c.557-.427 1.215-.743 1.98-.949a9.386 9.386 0 0 1 2.49-.312h5.343v17.776h-2.544v-7.291h-.712c-.525 0-1.013.058-1.458.18-.445.116-.87.32-1.283.61-.411.286-.82.678-1.235 1.17-.408.49-.844 1.113-1.302 1.87l-2.136 3.46h-3.052zm8.648-5.521v-6.107h-2.658c-1.245 0-2.182.262-2.81.793-.628.53-.94 1.248-.94 2.157 0 .364.076.735.221 1.115.15.375.382.714.692 1.017.316.299.717.545 1.203.737.488.192 1.075.288 1.76.288z"/></g><g><path fill="#cdcdcd" d="M378.16 423.94h2.544v7.227c.483 0 .916-.04 1.29-.12a2.624 2.624 0 0 0 1.031-.466c.31-.229.596-.548.859-.96.262-.412.527-.946.788-1.609.315-.788.638-1.445.972-1.965.337-.522.706-.942 1.107-1.255a3.694 3.694 0 0 1 1.341-.662 6.791 6.791 0 0 1 1.679-.19h.396v2.29c-.579 0-1.047.052-1.413.16a2.2 2.2 0 0 0-.917.51 2.98 2.98 0 0 0-.628.903c-.172.37-.355.811-.541 1.33a6.485 6.485 0 0 1-.431.953c-.18.323-.377.623-.593.904-.215.28-.444.529-.687.75a2.84 2.84 0 0 1-.73.498c.441.202.819.408 1.138.621.316.211.616.469.89.77.276.3.553.663.826 1.089.277.424.59.946.948 1.578l3.128 5.42h-2.9l-2.759-4.797c-.433-.756-.82-1.37-1.169-1.846-.348-.476-.697-.849-1.05-1.119a3.04 3.04 0 0 0-1.14-.56 6.06 6.06 0 0 0-1.435-.153v8.475h-2.544z"/></g><g><path fill="#cdcdcd" d="M394.15 432.833c0-1.23.227-2.398.68-3.499a8.792 8.792 0 0 1 1.926-2.906c.83-.836 1.833-1.498 3.01-1.987 1.172-.488 2.478-.731 3.923-.731 1.465 0 2.787.243 3.967.731 1.174.489 2.179 1.147 3.005 1.982a8.612 8.612 0 0 1 1.908 2.899 9.283 9.283 0 0 1 .667 3.511 9.246 9.246 0 0 1-.655 3.442 8.771 8.771 0 0 1-1.886 2.908c-.825.84-1.83 1.508-3.02 2.01-1.192.499-2.539.75-4.04.75a10.7 10.7 0 0 1-2.72-.336 9.323 9.323 0 0 1-2.32-.948 8.743 8.743 0 0 1-1.876-1.456 8.936 8.936 0 0 1-2.27-4.016 9.15 9.15 0 0 1-.299-2.354m2.632 0c0 .968.172 1.866.52 2.693a6.556 6.556 0 0 0 1.442 2.15 6.59 6.59 0 0 0 2.19 1.417c.841.339 1.76.51 2.755.51.99 0 1.909-.171 2.757-.51a6.632 6.632 0 0 0 2.196-1.417 6.612 6.612 0 0 0 1.442-2.15 6.912 6.912 0 0 0 .522-2.693c0-.985-.176-1.887-.522-2.714a6.514 6.514 0 0 0-1.442-2.145 6.568 6.568 0 0 0-2.196-1.413c-.848-.34-1.767-.508-2.757-.508-.994 0-1.914.167-2.755.508a6.528 6.528 0 0 0-2.19 1.413 6.46 6.46 0 0 0-1.442 2.145c-.348.827-.52 1.729-.52 2.714"/></g><g><path fill="#cdcdcd" d="M434.188 423.94v17.776h-2.555v-13.83h-.054l-5.466 6.87h-.42l-5.467-6.87h-.052v13.83h-2.544V423.94h2.392l5.887 7.304 5.913-7.304z"/></g><g><path fill="#cdcdcd" d="M454.354 423.94v17.776h-2.544V426.23h-9.957v15.486h-2.543V423.94z"/></g><g><path fill="#cdcdcd" d="M467.071 423.84l7.95 17.875h-2.607l-2.367-5.24h-7.553l-2.238 5.24h-2.606l7.63-17.875zm-.928 3.906l-2.657 6.427h5.52z"/></g><g><path fill="#cdcdcd" d="M493.314 423.94v17.776h-2.544v-7.737h-9.956v7.737h-2.544V423.94h2.544v7.75h9.956v-7.75z"/></g><g><path fill="#cdcdcd" d="M511.062 428.66l-11.28 13.283h-1.222V423.94h2.544v13.526l11.253-13.526h1.249v17.776h-2.544z"/></g><g><path fill="#cdcdcd" d="M519.42 437.759a26.491 26.491 0 0 1 1.61-2.228c.537-.66 1.087-1.193 1.646-1.601a14.158 14.158 0 0 1-1.329-.695 5.17 5.17 0 0 1-1.17-.955 4.484 4.484 0 0 1-.833-1.352c-.213-.53-.318-1.16-.318-1.898 0-.858.156-1.603.47-2.239a4.448 4.448 0 0 1 1.305-1.59c.557-.427 1.215-.743 1.978-.949a9.367 9.367 0 0 1 2.49-.312h5.343v17.776h-2.544v-7.291h-.712a5.56 5.56 0 0 0-1.456.18 3.98 3.98 0 0 0-1.285.61c-.41.286-.823.678-1.235 1.17-.408.49-.844 1.113-1.302 1.87l-2.136 3.46h-3.052zm8.646-5.521v-6.107h-2.656c-1.244 0-2.182.262-2.808.793-.625.53-.94 1.248-.94 2.157 0 .364.073.735.222 1.115.151.375.38.714.692 1.017.315.299.716.545 1.202.737.485.192 1.074.288 1.758.288z"/></g><g><path fill="#cdcdcd" d="M142.49 398.598h390.13"/></g><g><path fill="#cdcdcd" d="M432.673 100.02l7.661 36.33-10.784-21.364z"/></g><g/><g clip-path="url(#jlnma)"><path fill="#cdcdcd" d="M360.642 200.774v52.632H303.84v-52.632l28.316-28.314zm-37.406 36.145h18.01v-25.926h-18.01z"/></g><g clip-path="url(#jlnma)"><path fill="#cdcdcd" d="M240.617 215.418l21.435 21.486-8.631 9.82-12.766.663-17.967-18.864-7.528-27.648 24.313-43.931 2.363-25.804 17.191 49.763z"/></g><g clip-path="url(#jlnma)"><path fill="#cdcdcd" d="M399.555 41.732l29.994 52.234v.037l-7.008 33.594-96.59-56.998 9.075-25.878L315.25 22.61z"/></g><g clip-path="url(#jlnma)"><path fill="#cdcdcd" d="M407.307 200.839l18.115 41.935-1.55 10.633h-24.647l-26.194-55.151-91.941-92.51 42.318-31.526 98.176 57.993z"/></g><g clip-path="url(#jlnma)"><path fill="#cdcdcd" d="M373.03 208.52l21.288 44.89H373.03z"/></g><g clip-path="url(#jlnma)"><path fill="#cdcdcd" d="M308.212 21.324l21.804 24.4-8.597 24.475-44.752 33.41-35.972 14.58-9.702-5.056-3.323-16.945 39.36-65.725-31.179-18.355L274.637 1.24l19.85 4.763z"/></g><g clip-path="url(#jlnma)"><path fill="#cdcdcd" d="M329.387 160.007l-37.743 37.8-.184 55.596h-28.004v-1.847l9.556-11.848-9.407-58.993-20.255-58.841 33.87-13.734z"/></g><g clip-path="url(#jlnma)"><path fill="#cdcdcd" d="M260.804 32.159l-37.086 61.959-28.262 14.95-13.797 57.81-.075.26.96 65.56 4.058 17.941h-3.541l-9.152-24.436L161.92 108.22l16.822-72.762L219.524 7.8z"/></g><g clip-path="url(#jlnma)"><path fill="none" stroke="#8f8f8f" stroke-dasharray="3 2" stroke-miterlimit="50" stroke-width=".5" d="M.44 368.751v0h674.226v0-85.341 0H.44v0z"/></g><g clip-path="url(#jlnma)"><path fill="none" stroke="#8f8f8f" stroke-dasharray="3 2" stroke-miterlimit="50" stroke-width=".5" d="M.44 441.944v0h674.226v0-18.234 0H.44v0z"/></g><g clip-path="url(#jlnma)"><path fill="none" stroke="#8f8f8f" stroke-miterlimit="50" stroke-width=".5" d="M186.657 1.24l-.6 2.594"/></g><g clip-path="url(#jlnma)"><path fill="none" stroke="#8f8f8f" stroke-dasharray="3.098 2.065" stroke-miterlimit="50" stroke-width=".5" d="M185.227 7.4l-22.297 96.433"/></g><g clip-path="url(#jlnma)"><path fill="none" stroke="#8f8f8f" stroke-miterlimit="50" stroke-width=".5" d="M162.517 105.62l-.6 2.595"/></g><g clip-path="url(#jlnma)"><path fill="none" stroke="#8f8f8f" stroke-miterlimit="50" stroke-width=".5" d="M277.22 108.14l1.89 1.875"/></g><g clip-path="url(#jlnma)"><path fill="none" stroke="#8f8f8f" stroke-dasharray="3.035 2.023" stroke-miterlimit="50" stroke-width=".5" d="M281.66 112.54l139.045 137.725"/></g><g clip-path="url(#jlnma)"><path fill="none" stroke="#8f8f8f" stroke-miterlimit="50" stroke-width=".5" d="M421.98 251.53l1.89 1.875"/></g><g clip-path="url(#jlnma)"><path fill="none" stroke="#8f8f8f" stroke-miterlimit="50" stroke-width=".5" d="M199.92 1.271l2.292 1.353"/></g><g clip-path="url(#jlnma)"><path fill="none" stroke="#8f8f8f" stroke-dasharray="3.046 2.031" stroke-miterlimit="50" stroke-width=".5" d="M205.32 4.46l231.176 136.56"/></g><g clip-path="url(#jlnma)"><path fill="none" stroke="#8f8f8f" stroke-miterlimit="50" stroke-width=".5" d="M438.05 141.94l2.29 1.355"/></g><g clip-path="url(#jlnma)"><path fill="none" stroke="#8f8f8f" stroke-miterlimit="50" stroke-width=".5" d="M208.47 1.271l2.292 1.353"/></g><g clip-path="url(#jlnma)"><path fill="none" stroke="#8f8f8f" stroke-dasharray="3.035 2.023" stroke-miterlimit="50" stroke-width=".5" d="M213.86 4.45l222.644 131.383"/></g><g clip-path="url(#jlnma)"><path fill="none" stroke="#8f8f8f" stroke-miterlimit="50" stroke-width=".5" d="M438.05 136.741l2.292 1.353"/></g><g clip-path="url(#jlnma)"><path fill="none" stroke="#8f8f8f" stroke-miterlimit="50" stroke-width=".5" d="M281.09 105.74l1.877 1.887"/></g><g clip-path="url(#jlnma)"><path fill="none" stroke="#8f8f8f" stroke-dasharray="3.062 2.041" stroke-miterlimit="50" stroke-width=".5" d="M285.52 110.2l139.17 140.033"/></g><g clip-path="url(#jlnma)"><path fill="none" stroke="#8f8f8f" stroke-miterlimit="50" stroke-width=".5" d="M425.97 251.52l1.879 1.887"/></g><g clip-path="url(#jlnma)"><path fill="none" stroke="#8f8f8f" stroke-miterlimit="50" stroke-width=".5" d="M243.344 121.88l.866 2.517"/></g><g clip-path="url(#jlnma)"><path fill="none" stroke="#8f8f8f" stroke-dasharray="2.936 1.957" stroke-miterlimit="50" stroke-width=".5" d="M245.35 127.68l41.845 121.566"/></g><g clip-path="url(#jlnma)"><path fill="none" stroke="#8f8f8f" stroke-miterlimit="50" stroke-width=".5" d="M287.754 250.89l.866 2.52"/></g><g clip-path="url(#jlnma)"><path fill="none" stroke="#8f8f8f" stroke-miterlimit="50" stroke-width=".5" d="M239.032 123.03l.87 2.517"/></g><g clip-path="url(#jlnma)"><path fill="none" stroke="#8f8f8f" stroke-dasharray="2.911 1.94" stroke-miterlimit="50" stroke-width=".5" d="M241.03 128.8l41.62 120.458"/></g><g clip-path="url(#jlnma)"><path fill="none" stroke="#8f8f8f" stroke-miterlimit="50" stroke-width=".5" d="M283.202 250.89l.87 2.517"/></g><g clip-path="url(#jlnma)"><path fill="none" stroke="#8f8f8f" stroke-miterlimit="50" stroke-width=".5" d="M161.923 108.22l.268 2.649"/></g><g clip-path="url(#jlnma)"><path fill="none" stroke="#8f8f8f" stroke-dasharray="3.086 2.057" stroke-miterlimit="50" stroke-width=".5" d="M162.56 114.5l13.664 134.44"/></g><g clip-path="url(#jlnma)"><path fill="none" stroke="#8f8f8f" stroke-miterlimit="50" stroke-width=".5" d="M176.402 250.76l.27 2.649"/></g><g clip-path="url(#jlnma)"><path fill="none" stroke="#8f8f8f" stroke-miterlimit="50" stroke-width=".5" d="M221.186 1.28l-.618 2.59"/></g><g clip-path="url(#jlnma)"><path fill="none" stroke="#8f8f8f" stroke-dasharray="2.975 1.983" stroke-miterlimit="50" stroke-width=".5" d="M219.755 7.29L162.95 245.27"/></g><g clip-path="url(#jlnma)"><path fill="none" stroke="#8f8f8f" stroke-miterlimit="50" stroke-width=".5" d="M162.536 246.98l-.618 2.59"/></g><g clip-path="url(#jlnma)"><path fill="none" stroke="#8f8f8f" stroke-miterlimit="50" stroke-width=".5" d="M161.92 46.886l2.2-1.497"/></g><g clip-path="url(#jlnma)"><path fill="none" stroke="#8f8f8f" stroke-dasharray="3.056 2.037" stroke-miterlimit="50" stroke-width=".5" d="M167.11 43.36l58.31-39.61"/></g><g clip-path="url(#jlnma)"><path fill="none" stroke="#8f8f8f" stroke-miterlimit="50" stroke-width=".5" d="M226.92 2.736l2.2-1.497"/></g><g clip-path="url(#jlnma)"><path fill="none" stroke="#8f8f8f" stroke-miterlimit="50" stroke-width=".5" d="M161.92 32.816l2.562-.717"/></g><g clip-path="url(#jlnma)"><path fill="none" stroke="#8f8f8f" stroke-dasharray="3.047 2.031" stroke-miterlimit="50" stroke-width=".5" d="M167.95 31.121L270.331 2.44"/></g><g clip-path="url(#jlnma)"><path fill="none" stroke="#8f8f8f" stroke-miterlimit="50" stroke-width=".5" d="M272.07 1.956l2.562-.717"/></g><g clip-path="url(#jlnma)"><path fill="none" stroke="#8f8f8f" stroke-miterlimit="50" stroke-width=".5" d="M221.19 1.274l2.596.587"/></g><g clip-path="url(#jlnma)"><path fill="none" stroke="#8f8f8f" stroke-dasharray="3.041 2.027" stroke-miterlimit="50" stroke-width=".5" d="M227.29 2.66l208.698 47.338"/></g><g clip-path="url(#jlnma)"><path fill="none" stroke="#8f8f8f" stroke-miterlimit="50" stroke-width=".5" d="M437.74 50.393l2.596.59"/></g><g clip-path="url(#jlnma)"><path fill="none" stroke="#8f8f8f" stroke-miterlimit="50" stroke-width=".5" d="M373.027 1.28v2.663"/></g><g clip-path="url(#jlnma)"><path fill="none" stroke="#8f8f8f" stroke-dasharray="3.044 2.03" stroke-miterlimit="50" stroke-width=".5" d="M373.027 7.54v241.401"/></g><g clip-path="url(#jlnma)"><path fill="none" stroke="#8f8f8f" stroke-miterlimit="50" stroke-width=".5" d="M373.027 250.74v2.663"/></g><g clip-path="url(#jlnma)"><path fill="none" stroke="#8f8f8f" stroke-miterlimit="50" stroke-width=".5" d="M360.647 1.77v2.663"/></g><g clip-path="url(#jlnma)"><path fill="none" stroke="#8f8f8f" stroke-dasharray="3.038 2.025" stroke-miterlimit="50" stroke-width=".5" d="M360.647 8.03v240.915"/></g><g clip-path="url(#jlnma)"><path fill="none" stroke="#8f8f8f" stroke-miterlimit="50" stroke-width=".5" d="M360.647 250.74v2.663"/></g><g clip-path="url(#jlnma)"><path fill="none" stroke="#8f8f8f" stroke-miterlimit="50" stroke-width=".5" d="M303.837 1.24v2.663"/></g><g clip-path="url(#jlnma)"><path fill="none" stroke="#8f8f8f" stroke-dasharray="3.045 2.03" stroke-miterlimit="50" stroke-width=".5" d="M303.837 7.5v241.437"/></g><g clip-path="url(#jlnma)"><path fill="none" stroke="#8f8f8f" stroke-miterlimit="50" stroke-width=".5" d="M303.837 250.74v2.663"/></g><g clip-path="url(#jlnma)"><path fill="none" stroke="#8f8f8f" stroke-miterlimit="50" stroke-width=".5" d="M291.618 1.28l-.002 2.663"/></g><g clip-path="url(#jlnma)"><path fill="none" stroke="#8f8f8f" stroke-dasharray="3.044 2.03" stroke-miterlimit="50" stroke-width=".5" d="M291.613 7.54l-.152 241.401"/></g><g clip-path="url(#jlnma)"><path fill="none" stroke="#8f8f8f" stroke-miterlimit="50" stroke-width=".5" d="M291.458 250.74l-.002 2.663"/></g><g clip-path="url(#jlnma)"><path fill="none" stroke="#8f8f8f" stroke-miterlimit="50" stroke-width=".5" d="M329.383 160.01l-1.883 1.884"/></g><g clip-path="url(#jlnma)"><path fill="none" stroke="#8f8f8f" stroke-dasharray="2.975 1.983" stroke-miterlimit="50" stroke-width=".5" d="M325.012 164.38l-85.822 85.895"/></g><g clip-path="url(#jlnma)"><path fill="none" stroke="#8f8f8f" stroke-miterlimit="50" stroke-width=".5" d="M237.953 251.52l-1.883 1.885"/></g><g clip-path="url(#jlnma)"><path fill="none" stroke="#8f8f8f" stroke-miterlimit="50" stroke-width=".5" d="M162.08 189.144l2.133-1.593"/></g><g clip-path="url(#jlnma)"><path fill="none" stroke="#8f8f8f" stroke-dasharray="3.034 2.023" stroke-miterlimit="50" stroke-width=".5" d="M167.09 185.399L410.168 3.94"/></g><g clip-path="url(#jlnma)"><path fill="none" stroke="#8f8f8f" stroke-miterlimit="50" stroke-width=".5" d="M411.61 2.863l2.133-1.59"/></g><g clip-path="url(#jlnma)"><path fill="none" stroke="#8f8f8f" stroke-miterlimit="50" stroke-width=".5" d="M440.339 42.16l-.543 2.608"/></g><g clip-path="url(#jlnma)"><path fill="none" stroke="#8f8f8f" stroke-dasharray="3.04 2.026" stroke-miterlimit="50" stroke-width=".5" d="M439.06 48.29l-41.79 200.746"/></g><g clip-path="url(#jlnma)"><path fill="none" stroke="#8f8f8f" stroke-miterlimit="50" stroke-width=".5" d="M396.909 250.8l-.543 2.608"/></g><g clip-path="url(#jlnma)"><path fill="none" stroke="#8f8f8f" stroke-miterlimit="50" stroke-width=".5" d="M440.68 61.47l-.545 2.608"/></g><g clip-path="url(#jlnma)"><path fill="none" stroke="#8f8f8f" stroke-dasharray="3.012 2.008" stroke-miterlimit="50" stroke-width=".5" d="M439.411 67.57L401.63 249.056"/></g><g clip-path="url(#jlnma)"><path fill="none" stroke="#8f8f8f" stroke-miterlimit="50" stroke-width=".5" d="M401.269 250.8l-.543 2.608"/></g><g clip-path="url(#jlnma)"><path fill="none" stroke="#8f8f8f" stroke-miterlimit="50" stroke-width=".5" d="M289.67 1.09l1.781 1.98"/></g><g clip-path="url(#jlnma)"><path fill="none" stroke="#8f8f8f" stroke-dasharray="3.048 2.032" stroke-miterlimit="50" stroke-width=".5" d="M293.86 5.75l143.493 159.563"/></g><g clip-path="url(#jlnma)"><path fill="none" stroke="#8f8f8f" stroke-miterlimit="50" stroke-width=".5" d="M438.56 166.66l1.78 1.98"/></g><g clip-path="url(#jlnma)"><path fill="none" stroke="#8f8f8f" stroke-miterlimit="50" stroke-width=".5" d="M325.632 1.28l-1.29 2.33"/></g><g clip-path="url(#jlnma)"><path fill="none" stroke="#8f8f8f" stroke-dasharray="3.045 2.03" stroke-miterlimit="50" stroke-width=".5" d="M322.602 6.76L188.25 249.503"/></g><g clip-path="url(#jlnma)"><path fill="none" stroke="#8f8f8f" stroke-miterlimit="50" stroke-width=".5" d="M187.372 251.08l-1.29 2.33"/></g><g clip-path="url(#jlnma)"><path fill="none" stroke="#8f8f8f" stroke-miterlimit="50" stroke-width=".5" d="M259.023 180.9l-1.252 2.349"/></g><g clip-path="url(#jlnma)"><path fill="none" stroke="#8f8f8f" stroke-dasharray="3.092 2.062" stroke-miterlimit="50" stroke-width=".5" d="M256.052 186.48l-33.582 62.96"/></g><g clip-path="url(#jlnma)"><path fill="none" stroke="#8f8f8f" stroke-miterlimit="50" stroke-width=".5" d="M221.614 251.06l-1.254 2.349"/></g><g clip-path="url(#jlnma)"><path fill="none" stroke="#8f8f8f" stroke-miterlimit="50" stroke-width=".5" d="M161.92 126.81l2.353-1.245"/></g><g clip-path="url(#jlnma)"><path fill="none" stroke="#8f8f8f" stroke-dasharray="3.031 2.02" stroke-miterlimit="50" stroke-width=".5" d="M167.44 123.89L395.62 3.18"/></g><g clip-path="url(#jlnma)"><path fill="none" stroke="#8f8f8f" stroke-miterlimit="50" stroke-width=".5" d="M397.21 2.34l2.353-1.245"/></g><g clip-path="url(#jlnma)"><path fill="none" stroke="#8f8f8f" stroke-miterlimit="50" stroke-width=".5" d="M376.224 1.09l1.326 2.31"/></g><g clip-path="url(#jlnma)"><path fill="none" stroke="#8f8f8f" stroke-dasharray="2.913 1.942" stroke-miterlimit="50" stroke-width=".5" d="M379.27 6.39l59.227 103.142"/></g><g clip-path="url(#jlnma)"><path fill="none" stroke="#8f8f8f" stroke-miterlimit="50" stroke-width=".5" d="M439.354 111.03l1.327 2.31"/></g><g clip-path="url(#jlnma)"><path fill="none" stroke="#8f8f8f" stroke-miterlimit="50" stroke-width=".5" d="M440.341 3.903v0V1.24v0h-2.661v0"/></g><g clip-path="url(#jlnma)"><path fill="none" stroke="#8f8f8f" stroke-dasharray="3.038 2.025" stroke-miterlimit="50" stroke-width=".5" d="M434.083 1.238H166.38"/></g><g clip-path="url(#jlnma)"><path fill="none" stroke="#8f8f8f" stroke-miterlimit="50" stroke-width=".5" d="M164.581 1.24v0h-2.661v2.663"/></g><g clip-path="url(#jlnma)"><path fill="none" stroke="#8f8f8f" stroke-dasharray="3.045 2.03" stroke-miterlimit="50" stroke-width=".5" d="M161.917 7.5v241.437"/></g><g clip-path="url(#jlnma)"><path fill="none" stroke="#8f8f8f" stroke-miterlimit="50" stroke-width=".5" d="M161.92 250.74v2.663h2.661v0"/></g><g clip-path="url(#jlnma)"><path fill="none" stroke="#8f8f8f" stroke-dasharray="3.038 2.025" stroke-miterlimit="50" stroke-width=".5" d="M168.18 253.408h267.703"/></g><g clip-path="url(#jlnma)"><path fill="none" stroke="#8f8f8f" stroke-miterlimit="50" stroke-width=".5" d="M437.68 253.403v0h2.661v0-2.663 0"/></g><g clip-path="url(#jlnma)"><path fill="none" stroke="#8f8f8f" stroke-dasharray="3.045 2.03" stroke-miterlimit="50" stroke-width=".5" d="M440.337 247.139V5.7"/></g><g clip-path="url(#jlnma)"><path fill="none" stroke="#8f8f8f" stroke-miterlimit="50" stroke-width=".5" d="M262.053 236.91l-1.833 1.93"/></g><g clip-path="url(#jlnma)"><path fill="none" stroke="#8f8f8f" stroke-dasharray="2.455 1.637" stroke-miterlimit="50" stroke-width=".5" d="M258.22 240.94l-9 9.48"/></g><g clip-path="url(#jlnma)"><path fill="none" stroke="#8f8f8f" stroke-miterlimit="50" stroke-width=".5" d="M248.223 251.48l-1.833 1.932"/></g><g clip-path="url(#jlnma)"><path fill="none" stroke="#8f8f8f" stroke-miterlimit="50" stroke-width=".5" d="M161.918 5.3l.699 2.569"/></g><g clip-path="url(#jlnma)"><path fill="none" stroke="#8f8f8f" stroke-dasharray="2.997 1.998" stroke-miterlimit="50" stroke-width=".5" d="M163.55 11.29l64.742 237.84"/></g><g clip-path="url(#jlnma)"><path fill="none" stroke="#8f8f8f" stroke-miterlimit="50" stroke-width=".5" d="M228.758 250.84l.699 2.569"/></g><g clip-path="url(#jlnma)"><path fill="none" stroke="#8f8f8f" stroke-miterlimit="50" stroke-width=".5" d="M439.852 32.81l-1.67 2.073"/></g><g clip-path="url(#jlnma)"><path fill="none" stroke="#8f8f8f" stroke-dasharray="2.992 1.995" stroke-miterlimit="50" stroke-width=".5" d="M435.962 37.64L264.84 249.847"/></g><g clip-path="url(#jlnma)"><path fill="none" stroke="#8f8f8f" stroke-miterlimit="50" stroke-width=".5" d="M263.723 251.23l-1.672 2.074"/></g><g clip-path="url(#jlnma)"><path fill="none" stroke="#8f8f8f" stroke-miterlimit="50" stroke-width=".5" d="M263.608 180.72l.419 2.63"/></g><g clip-path="url(#jlnma)"><path fill="none" stroke="#8f8f8f" stroke-dasharray="2.954 1.969" stroke-miterlimit="50" stroke-width=".5" d="M264.57 186.8l6.607 41.426"/></g><g clip-path="url(#jlnma)"><path fill="none" stroke="#8f8f8f" stroke-miterlimit="50" stroke-width=".5" d="M271.458 229.96l.418 2.63"/></g><g clip-path="url(#jlnma)"><path fill="none" stroke="#8f8f8f" stroke-miterlimit="50" stroke-width=".5" d="M440.674 63.95l-1.884 1.884"/></g><g clip-path="url(#jlnma)"><path fill="none" stroke="#8f8f8f" stroke-dasharray="3.02 2.013" stroke-miterlimit="50" stroke-width=".5" d="M436.267 68.36L254.35 250.26"/></g><g clip-path="url(#jlnma)"><path fill="none" stroke="#8f8f8f" stroke-miterlimit="50" stroke-width=".5" d="M253.084 251.52l-1.884 1.884"/></g><g clip-path="url(#jlnma)"><path fill="none" stroke="#8f8f8f" stroke-miterlimit="50" stroke-width=".5" d="M360.639 200.775l-1.879-1.885"/></g><g clip-path="url(#jlnma)"><path fill="none" stroke="#8f8f8f" stroke-dasharray="2.975 1.983" stroke-miterlimit="50" stroke-width=".5" d="M356.277 196.394L165.04 4.37"/></g><g clip-path="url(#jlnma)"><path fill="none" stroke="#8f8f8f" stroke-miterlimit="50" stroke-width=".5" d="M163.799 3.125L161.92 1.24"/></g><g clip-path="url(#jlnma)"><path fill="none" stroke="#8f8f8f" stroke-miterlimit="50" stroke-width=".5" d="M274.636 1.24l1.142 2.405"/></g><g clip-path="url(#jlnma)"><path fill="none" stroke="#8f8f8f" stroke-dasharray="3.044 2.03" stroke-miterlimit="50" stroke-width=".5" d="M277.32 6.9l115.085 242.477"/></g><g clip-path="url(#jlnma)"><path fill="none" stroke="#8f8f8f" stroke-miterlimit="50" stroke-width=".5" d="M393.176 251l1.142 2.406"/></g><g clip-path="url(#jlnma)"><path fill="none" stroke="#8f8f8f" stroke-miterlimit="50" stroke-width=".5" d="M279.436 1.09l1.142 2.406"/></g><g clip-path="url(#jlnma)"><path fill="none" stroke="#8f8f8f" stroke-dasharray="3.046 2.031" stroke-miterlimit="50" stroke-width=".5" d="M282.12 6.76l115.19 242.617"/></g><g clip-path="url(#jlnma)"><path fill="none" stroke="#8f8f8f" stroke-miterlimit="50" stroke-width=".5" d="M398.086 251l1.142 2.406"/></g><g clip-path="url(#jlnma)"><path fill="none" stroke="#8f8f8f" stroke-miterlimit="50" stroke-width=".5" d="M321.02 1.09l1.055 2.445"/></g><g clip-path="url(#jlnma)"><path fill="none" stroke="#8f8f8f" stroke-dasharray="2.997 1.998" stroke-miterlimit="50" stroke-width=".5" d="M323.48 6.79l104.771 242.541"/></g><g clip-path="url(#jlnma)"><path fill="none" stroke="#8f8f8f" stroke-miterlimit="50" stroke-width=".5" d="M428.96 250.96l1.055 2.445"/></g><g clip-path="url(#jlnma)"><path fill="none" stroke="#8f8f8f" stroke-miterlimit="50" stroke-width=".5" d="M315.05 236.918h2.661"/></g><g clip-path="url(#jlnma)"><path fill="none" stroke="#8f8f8f" stroke-dasharray="2.853 1.902" stroke-miterlimit="50" stroke-width=".5" d="M321.09 236.918h23.625"/></g><g clip-path="url(#jlnma)"><path fill="none" stroke="#8f8f8f" stroke-miterlimit="50" stroke-width=".5" d="M346.4 236.918h2.661"/></g><g clip-path="url(#jlnma)"><path fill="none" stroke="#8f8f8f" stroke-miterlimit="50" stroke-width=".5" d="M315.05 210.988h2.661"/></g><g clip-path="url(#jlnma)"><path fill="none" stroke="#8f8f8f" stroke-dasharray="2.853 1.902" stroke-miterlimit="50" stroke-width=".5" d="M321.09 210.988h23.625"/></g><g clip-path="url(#jlnma)"><path fill="none" stroke="#8f8f8f" stroke-miterlimit="50" stroke-width=".5" d="M346.4 210.988h2.661"/></g><g clip-path="url(#jlnma)"><path fill="none" stroke="#8f8f8f" stroke-miterlimit="50" stroke-width=".5" d="M161.92 136.54l1.88 1.885"/></g><g clip-path="url(#jlnma)"><path fill="none" stroke="#8f8f8f" stroke-dasharray="2.932 1.955" stroke-miterlimit="50" stroke-width=".5" d="M166.25 140.88l109.052 109.3"/></g><g clip-path="url(#jlnma)"><path fill="none" stroke="#8f8f8f" stroke-miterlimit="50" stroke-width=".5" d="M276.53 251.41l1.88 1.885"/></g><g clip-path="url(#jlnma)"><path fill="none" stroke="#8f8f8f" stroke-miterlimit="50" stroke-width=".5" d="M161.05 163.81l1.835 1.928"/></g><g clip-path="url(#jlnma)"><path fill="none" stroke="#8f8f8f" stroke-dasharray="2.987 1.992" stroke-miterlimit="50" stroke-width=".5" d="M165.32 168.3l78.01 81.9"/></g><g clip-path="url(#jlnma)"><path fill="none" stroke="#8f8f8f" stroke-miterlimit="50" stroke-width=".5" d="M244.55 251.48l1.836 1.928"/></g><g clip-path="url(#jlnma)"><path fill="none" stroke="#8f8f8f" stroke-miterlimit="50" stroke-width=".5" d="M179.158 1.24l.039 2.663"/></g><g clip-path="url(#jlnma)"><path fill="none" stroke="#8f8f8f" stroke-dasharray="3.045 2.03" stroke-miterlimit="50" stroke-width=".5" d="M179.25 7.5l3.533 241.44"/></g><g clip-path="url(#jlnma)"><path fill="none" stroke="#8f8f8f" stroke-miterlimit="50" stroke-width=".5" d="M182.808 250.74l.038 2.663"/></g><g clip-path="url(#jlnma)"><path fill="none" stroke="#8f8f8f" stroke-miterlimit="50" stroke-width=".5" d="M187.2 253.297l-.587-2.597"/></g><g clip-path="url(#jlnma)"><path fill="none" stroke="#8f8f8f" stroke-dasharray="3.271 2.181" stroke-miterlimit="50" stroke-width=".5" d="M185.761 246.922l-1.708-7.552"/></g><g clip-path="url(#jlnma)"><path fill="none" stroke="#8f8f8f" stroke-miterlimit="50" stroke-width=".5" d="M183.63 237.487l-.587-2.597"/></g><g clip-path="url(#jlnma)"><path fill="none" stroke="#8f8f8f" stroke-miterlimit="50" stroke-width=".5" d="M184.296 253.408l-.978-2.478"/></g><g clip-path="url(#jlnma)"><path fill="none" stroke="#8f8f8f" stroke-dasharray="2.919 1.946" stroke-miterlimit="50" stroke-width=".5" d="M182.054 247.715L163.69 201.11"/></g><g clip-path="url(#jlnma)"><path fill="none" stroke="#8f8f8f" stroke-miterlimit="50" stroke-width=".5" d="M163.055 199.506l-.976-2.476"/></g><g clip-path="url(#jlnma)"><path fill="none" stroke="#8f8f8f" stroke-miterlimit="50" stroke-width=".5" d="M279.432 1.09l-1.37 2.283"/></g><g clip-path="url(#jlnma)"><path fill="none" stroke="#8f8f8f" stroke-dasharray="3.014 2.01" stroke-miterlimit="50" stroke-width=".5" d="M276.234 6.44l-58.704 97.896"/></g><g clip-path="url(#jlnma)"><path fill="none" stroke="#8f8f8f" stroke-miterlimit="50" stroke-width=".5" d="M216.611 105.86l-1.368 2.283"/></g><g clip-path="url(#jlnma)"><path fill="none" stroke="#8f8f8f" stroke-miterlimit="50" stroke-width=".5" d="M217.39 1.232l2.294 1.351"/></g><g clip-path="url(#jlnma)"><path fill="none" stroke="#8f8f8f" stroke-dasharray="2.762 1.841" stroke-miterlimit="50" stroke-width=".5" d="M222.5 4.24l40.826 24.036"/></g><g clip-path="url(#jlnma)"><path fill="none" stroke="#8f8f8f" stroke-miterlimit="50" stroke-width=".5" d="M264.73 29.113l2.294 1.35"/></g><g clip-path="url(#jlnma)"><path fill="none" stroke="#8f8f8f" stroke-miterlimit="50" stroke-width=".5" d="M284.531 1.24l-1.368 2.283"/></g><g clip-path="url(#jlnma)"><path fill="none" stroke="#8f8f8f" stroke-dasharray="3.071 2.047" stroke-miterlimit="50" stroke-width=".5" d="M281.291 6.64L226.17 98.59"/></g><g clip-path="url(#jlnma)"><path fill="none" stroke="#8f8f8f" stroke-miterlimit="50" stroke-width=".5" d="M225.231 100.15l-1.368 2.283"/></g><g clip-path="url(#jlnma)"><path fill="none" stroke="#8f8f8f" stroke-miterlimit="50" stroke-width=".5" d="M323.237 203.53v2.663"/></g><g clip-path="url(#jlnma)"><path fill="none" stroke="#8f8f8f" stroke-dasharray="2.707 1.805" stroke-miterlimit="50" stroke-width=".5" d="M323.237 209.39v30.435"/></g><g clip-path="url(#jlnma)"><path fill="none" stroke="#8f8f8f" stroke-miterlimit="50" stroke-width=".5" d="M323.237 241.43v2.663"/></g><g clip-path="url(#jlnma)"><path fill="none" stroke="#8f8f8f" stroke-miterlimit="50" stroke-width=".5" d="M341.247 203.53v2.663"/></g><g clip-path="url(#jlnma)"><path fill="none" stroke="#8f8f8f" stroke-dasharray="2.707 1.805" stroke-miterlimit="50" stroke-width=".5" d="M341.247 209.39v30.435"/></g><g clip-path="url(#jlnma)"><path fill="none" stroke="#8f8f8f" stroke-miterlimit="50" stroke-width=".5" d="M341.247 241.43v2.663"/></g><g clip-path="url(#jlnma)"><path fill="none" stroke="#8f8f8f" stroke-miterlimit="50" stroke-width=".5" d="M345.689 1.09l-.884 2.512"/></g><g clip-path="url(#jlnma)"><path fill="none" stroke="#8f8f8f" stroke-dasharray="3.102 2.068" stroke-miterlimit="50" stroke-width=".5" d="M343.591 7.07L322.91 65.953"/></g><g clip-path="url(#jlnma)"><path fill="none" stroke="#8f8f8f" stroke-miterlimit="50" stroke-width=".5" d="M322.298 67.68l-.882 2.512"/></g><g clip-path="url(#jlnma)"><path fill="none" stroke="#8f8f8f" stroke-dasharray="3 2" stroke-miterlimit="50" stroke-width=".5" d="M213.84 104.19l46.626 24.3"/></g><g clip-path="url(#jlnma)"><path fill="none" stroke="#8f8f8f" stroke-dasharray="3 2" stroke-miterlimit="50" stroke-width=".5" d="M224.95 81.95l7.29 38.137"/></g><g clip-path="url(#jlnma)"><path fill="none" stroke="#8f8f8f" stroke-dasharray="3 2" stroke-miterlimit="50" stroke-width=".5" d="M229.46 122.735l58.452-23.695"/></g><g clip-path="url(#jlnma)"><path fill="none" stroke="#8f8f8f" stroke-dasharray="3 2" stroke-miterlimit="50" stroke-width=".5" d="M229.46 127.885l58.452-23.695"/></g><g clip-path="url(#jlnma)"><path fill="none" stroke="#8f8f8f" stroke-dasharray="3 2" stroke-miterlimit="50" stroke-width=".5" d="M429.003 82.62v0l11.334 53.729v0l-16.467-32.62v0"/></g><g clip-path="url(#jlnma)"><path fill="none" stroke="#8f8f8f" stroke-dasharray="3 2" stroke-miterlimit="50" stroke-width=".5" d="M179.16 250.638h11.78"/></g><g clip-path="url(#jlnma)"><path fill="none" stroke="#8f8f8f" stroke-dasharray="3 2" stroke-miterlimit="50" stroke-width=".5" d="M234.75 247.391l25.722-.767"/></g><g clip-path="url(#jlnma)"><path fill="none" stroke="#8f8f8f" stroke-dasharray="3 2" stroke-miterlimit="50" stroke-width=".5" d="M242.275 125.42l-3.245 39.73"/></g><g clip-path="url(#jlnma)"><path fill="none" stroke="#8f8f8f" stroke-dasharray="3 2" stroke-miterlimit="50" stroke-width=".5" d="M306.81 8.96l-32.18-7.72"/></g><g clip-path="url(#jlnma)"><path fill="none" stroke="#8f8f8f" stroke-dasharray="3 2" stroke-miterlimit="50" stroke-width=".5" d="M336.722 39.91L324.9 73.616"/></g><g clip-path="url(#jlnma)"><path fill="none" stroke="#8f8f8f" stroke-dasharray="3 2" stroke-miterlimit="50" stroke-width=".5" d="M423.87 253.408L440.335 138.1"/></g><g clip-path="url(#jlnma)"><path fill="none" stroke="#8f8f8f" stroke-dasharray="3 2" stroke-miterlimit="50" stroke-width=".5" d="M295.37 1.24l144.967 159.59"/></g><g clip-path="url(#jlnma)"><path fill="none" stroke="#8f8f8f" stroke-dasharray="3 2" stroke-miterlimit="50" stroke-width=".5" d="M327.242 71.36l-48.402 36.06"/></g><g clip-path="url(#jlnma)"><path fill="none" stroke="#8f8f8f" stroke-dasharray="3 2" stroke-miterlimit="50" stroke-width=".5" d="M144.497 416.06v33.945"/></g><g clip-path="url(#jlnma)"><path fill="none" stroke="#8f8f8f" stroke-dasharray="3 2" stroke-miterlimit="50" stroke-width=".5" d="M355.807 416.06v33.945"/></g><g clip-path="url(#jlnma)"><path fill="none" stroke="#8f8f8f" stroke-dasharray="3 2" stroke-miterlimit="50" stroke-width=".5" d="M378.157 416.06v33.945"/></g><g clip-path="url(#jlnma)"><path fill="none" stroke="#8f8f8f" stroke-dasharray="3 2" stroke-miterlimit="50" stroke-width=".5" d="M530.617 416.06v33.945"/></g><g clip-path="url(#jlnma)"><path fill="#cdcdcd" d="M142.49 398.805h390.13v-1.775H142.49z"/></g></g></g></g></svg>