<svg xmlns="http://www.w3.org/2000/svg" width="190" height="120" viewBox="0 0 190 120"><g><g><g><path fill="#1c1c1c" d="M57.896 75.47v-9.551h6.123a4.98 4.98 0 0 1 3.613 1.48 4.772 4.772 0 0 1 1.393 3.406 4.541 4.541 0 0 1-1.393 3.361 4.963 4.963 0 0 1-3.613 1.303zm-.814 16.965c.597 0 .888-.296.888-.888V80.924h7.26c2.821.002 5.518-1.129 7.443-3.122 1.893-1.896 2.957-4.424 2.971-7.058.003-2.65-1.031-5.202-2.895-7.146-1.902-2.01-4.593-3.155-7.412-3.152H52.349a.798.798 0 0 0-.65.215.74.74 0 0 0-.223.628v30.258c0 .592.291.888.873.888z"/></g><g><path fill="#1c1c1c" d="M87.923 75.652v-9.648h7.03a5.925 5.925 0 0 1 3.893 1.378 4.667 4.667 0 0 1 1.548 3.453c0 1.306-.56 2.555-1.548 3.453a5.831 5.831 0 0 1-3.894 1.364zm-.88 16.747c.244.03.49-.051.662-.22a.735.735 0 0 0 .218-.638V81.318h6.844l5.361 10.356c.294.592.54.754 1.05.754h5.779a.634.634 0 0 0 .479-.166.579.579 0 0 0 .185-.455.695.695 0 0 0 0-.296l-6.18-11.643a11.91 11.91 0 0 0 4.125-3.817 9.333 9.333 0 0 0 1.545-5.12c-.017-2.693-1.074-5.285-2.966-7.278-1.96-2.049-4.73-3.214-7.632-3.21H82.206a.824.824 0 0 0-.639.227.75.75 0 0 0-.226.616V91.57a.72.72 0 0 0 .206.64c.17.169.416.25.66.218z"/></g><g><path fill="#1c1c1c" d="M114.099 92.435c-.53 0-.769-.296-.769-.888v-30.22c0-.591.239-.887.769-.887h4.177c.49 0 .742.296.742.888v30.22c0 .591-.252.887-.742.887z"/></g><g><path fill="#1c1c1c" d="M135.594 86.606V66.274h4.416c2.869-.027 5.633 1.036 7.692 2.957 4.12 3.99 4.12 10.427 0 14.417-2.062 1.916-4.824 2.978-7.692 2.958zm5.17 5.82c4.446-.13 8.675-1.88 11.83-4.895 3.082-2.931 4.816-6.926 4.816-11.094a14.909 14.909 0 0 0-2.477-8.164 17.754 17.754 0 0 0-6.154-5.695 17.192 17.192 0 0 0-8.139-2.13h-10.769a.805.805 0 0 0-.664.208.737.737 0 0 0-.228.635V91.57a.737.737 0 0 0 .22.645c.177.17.426.248.672.213z"/></g><g><path fill="#1c1c1c" d="M164.697 92.429a.805.805 0 0 1-.661-.22.736.736 0 0 1-.217-.638V61.29a.722.722 0 0 1 .217-.634.79.79 0 0 1 .66-.208h21.917c.616 0 .924.28.924.843v4.171a.75.75 0 0 1-.23.663.822.822 0 0 1-.694.21h-16.248v6.523h12.32c.663 0 1.002.281 1.002.858v4.097c0 .562-.339.843-1.001.843h-12.321v7.914h16.68c.631 0 .939.281.939.858v4.142c0 .577-.308.858-.94.858z"/></g><g><path fill="#ebaa43" d="M52.252 119.42a.701.701 0 0 1-.577-.179.635.635 0 0 1-.2-.548V104.57a.695.695 0 0 1 .222-.556.765.765 0 0 1 .587-.201h2.932c.21-.01.414.068.56.213a.679.679 0 0 1 .2.544v10.607h7.513a.778.778 0 0 1 .572.229c.148.15.222.353.204.56v2.757c.01.198-.07.391-.218.53a.749.749 0 0 1-.558.197z"/></g><g><path fill="#ebaa43" d="M78.14 114.288a3.89 3.89 0 0 1-2.831 1.226 3.89 3.89 0 0 1-2.831-1.226 4.279 4.279 0 0 1-1.142-2.924 4.4 4.4 0 0 1 1.142-2.925 3.86 3.86 0 0 1 2.831-1.24 3.86 3.86 0 0 1 2.831 1.24 4.4 4.4 0 0 1 1.157 2.925 4.294 4.294 0 0 1-1.157 2.924zm-8.64 2.815a8.3 8.3 0 0 0 11.573 0 7.972 7.972 0 0 0 2.39-5.75c0-4.558-3.66-8.253-8.177-8.253-4.515 0-8.176 3.695-8.176 8.253 0 2.163.86 4.235 2.39 5.75z"/></g><g><path fill="#ebaa43" d="M93.458 119.162h-.302c-1.546-.51-2.901-1.528-3.872-2.906a8.3 8.3 0 0 1-1.554-4.895c.008-4.547 3.465-8.236 7.743-8.261 1.611.027 3.178.56 4.505 1.53.374.26.533.474.533.81a.72.72 0 0 1-.101.368l-1.18 2.065a.504.504 0 0 1-.46.321.847.847 0 0 1-.505-.199 4.74 4.74 0 0 0-2.763-.948c-1.029-.003-2.01.466-2.691 1.285a4.767 4.767 0 0 0-1.037 3.06 4.4 4.4 0 0 0 .994 2.906c.665.8 1.629 1.248 2.633 1.223a5.173 5.173 0 0 0 1.843-.382v-2.478a.728.728 0 0 1 .193-.529.641.641 0 0 1 .497-.205h2.548c.395-.01.725.315.748.734v3.794c.042.376-.068.754-.302 1.04a4.498 4.498 0 0 1-1.756 1.147 9.77 9.77 0 0 1-2.475.704c-.404.073-.814.11-1.224.107a7.505 7.505 0 0 1-2.015-.29z"/></g><g><path fill="#ebaa43" d="M108.395 119.445a.656.656 0 0 1-.557-.184.67.67 0 0 1-.193-.558v-14.12a.731.731 0 0 1 .205-.555.716.716 0 0 1 .545-.217h2.716c.428 0 .779.34.795.772v14.12c0 .485-.27.742-.795.742z"/></g><g><path fill="#ebaa43" d="M117.407 117.122a2.569 2.569 0 0 1-.506-.745.618.618 0 0 1 0-.319.56.56 0 0 1 .23-.471l1.963-1.52a.616.616 0 0 1 .353-.153c.439.184.839.447 1.181.775.447.419.967.754 1.534.989.297.12.615.182.935.182a2.067 2.067 0 0 0 1.534-.471c.276-.285.42-.67.399-1.064 0-.396-.322-.76-.951-1.11a7.709 7.709 0 0 0-1.457-.563 9.96 9.96 0 0 1-4.065-1.916 3.846 3.846 0 0 1-1.273-3.04 4.11 4.11 0 0 1 1.657-3.224 7.036 7.036 0 0 1 4.386-1.369 7.6 7.6 0 0 1 5.154 1.931c.307.23.515.567.583.943a.44.44 0 0 1-.169.289c-.287.334-.61.635-.966.897-.337.29-.696.555-1.074.79a1.079 1.079 0 0 1-.307.122.877.877 0 0 1-.552-.289 5.167 5.167 0 0 0-1.058-.76c-.475-.241-1-.371-1.534-.38a2.611 2.611 0 0 0-1.12.228.897.897 0 0 0-.536.836c.037.4.289.75.66.913.58.288 1.185.523 1.809.7a11.759 11.759 0 0 1 3.926 1.93 4 4 0 0 1 1.534 3.224 4.339 4.339 0 0 1-1.978 3.694 7.857 7.857 0 0 1-4.51 1.278 7.703 7.703 0 0 1-5.782-2.327z"/></g><g><path fill="#ebaa43" d="M136.582 119.452c-.514 0-.763-.228-.763-.729v-10.916h-3.395c-.405 0-.608-.228-.608-.653v-2.732a.523.523 0 0 1 .149-.452c.12-.119.289-.177.459-.156h11.57c.17-.02.34.037.46.156.119.12.174.287.148.452v2.732a.644.644 0 0 1-.608.653h-3.441v10.916c0 .501-.265.729-.81.729z"/></g><g><path fill="#ebaa43" d="M149.623 119.447a.66.66 0 0 1-.549-.19.67.67 0 0 1-.19-.552v-14.122a.715.715 0 0 1 .196-.554.705.705 0 0 1 .543-.218h2.74a.8.8 0 0 1 .783.772v14.122c0 .485-.271.742-.783.742z"/></g><g><path fill="#ebaa43" d="M161.218 117.015a8.033 8.033 0 0 1-2.388-5.738c-.008-4.502 3.622-8.16 8.114-8.177a8.57 8.57 0 0 1 4.73 1.514c.393.258.574.47.574.803a.576.576 0 0 1-.12.363l-1.225 2.15a.604.604 0 0 1-.513.318 1.041 1.041 0 0 1-.514-.197 5.01 5.01 0 0 0-2.901-.999 3.699 3.699 0 0 0-2.826 1.272 4.457 4.457 0 0 0-1.118 3.028 4.123 4.123 0 0 0 1.118 2.953 3.729 3.729 0 0 0 2.675 1.196 4.993 4.993 0 0 0 1.51-.242c.547-.19 1.082-.413 1.602-.666a.89.89 0 0 1 .439-.152c.136 0 .302.121.468.364l1.375 1.968a.894.894 0 0 1 .121.333.863.863 0 0 1-.529.727 8.662 8.662 0 0 1-4.896 1.62 8.061 8.061 0 0 1-5.696-2.438z"/></g><g><path fill="#ebaa43" d="M177.128 117.118a2.512 2.512 0 0 1-.492-.746.499.499 0 0 1 0-.32.608.608 0 0 1 .23-.473l1.965-1.523a.616.616 0 0 1 .353-.152c.44.184.84.448 1.182.777.446.42.966.757 1.535.99.298.12.616.182.937.183.555.059 1.11-.112 1.535-.473.28-.283.431-.669.414-1.066 0-.396-.322-.762-.952-1.112a8.053 8.053 0 0 0-1.535-.564 9.794 9.794 0 0 1-4.052-1.92 3.855 3.855 0 0 1-1.274-3.046 4.118 4.118 0 0 1 1.642-3.199 6.99 6.99 0 0 1 4.375-1.37 7.586 7.586 0 0 1 5.204 1.903c.307.231.515.569.583.945a.395.395 0 0 1-.169.29 6.196 6.196 0 0 1-.952.898c-.345.288-.709.552-1.09.792a.925.925 0 0 1-.306.122.861.861 0 0 1-.538-.29 5.449 5.449 0 0 0-1.074-.761 3.46 3.46 0 0 0-1.535-.38c-.391-.01-.78.068-1.136.228a.898.898 0 0 0-.537.837c.037.401.29.75.66.914.581.287 1.188.522 1.811.701a11.764 11.764 0 0 1 3.96 1.935 4.025 4.025 0 0 1 1.535 3.23 4.378 4.378 0 0 1-1.98 3.701 7.934 7.934 0 0 1-4.513 1.28 7.705 7.705 0 0 1-5.786-2.331z"/></g><g><path fill="#1c1c1c" d="M33.657 79.252H14.591V41.24L.295 49.462V90.29a1.897 1.897 0 0 0 .545 1.585 1.917 1.917 0 0 0 1.592.542h31.226c1.399-.06 2.166-.779 2.166-2.127v-8.806a2.076 2.076 0 0 0-.582-1.599 2.097 2.097 0 0 0-1.584-.633z"/></g><g><path fill="#ebaa43" d="M53.434 43.215a10.035 10.035 0 0 0-4.846-3.402 75.925 75.925 0 0 1-8.688-4.125c-3.53-2.092-5.025-4.666-7.209-8.174l-.658-1.204c.195 1.282.572 2.53 1.122 3.703L21.61 36.381v33.417c0 1.31.628 2.002 1.884 2.002h10.26a1.728 1.728 0 0 0 1.46-.516c.379-.394.552-.944.468-1.486v-24.01h15.643c1.001-.004 2-.08 2.991-.225a7.058 7.058 0 0 0-.882-2.348z"/></g><g><path fill="#ebaa43" d="M49.867 17.412a6.222 6.222 0 0 1 2.86-1.716.377.377 0 0 1 .48.164c.26.385.44.816.526 1.269a.598.598 0 0 0 .31.432l1.066.791c-.494-.09-.912-.298-1.376-.417a1.967 1.967 0 0 0-1.206 0 2.237 2.237 0 0 1-1.701 0 1.844 1.844 0 0 0-.85-.224s-.186 0-.217-.09.062-.179.108-.239zm-13.252-5.986a3.181 3.181 0 0 1 2.706-.195c.124 0 .263.135.356 0 .092-.134-.093-.194-.17-.27a3.738 3.738 0 0 0-4.145-.658 2.793 2.793 0 0 0-1.546 2.082c-.35 1.238.108 2.559 1.16 3.34a5.307 5.307 0 0 0 1.886.84c.278 0 .31.194.248.42-.194.946-.287 1.91-.279 2.876a7.857 7.857 0 0 0 .619 2.996 9.94 9.94 0 0 0 3.247 4.03c2.397 1.842 4.84 3.61 7.314 5.363 1.067.749 2.32 1.498 3.449 2.292 1.028.724 2 1.52 2.907 2.382a8.745 8.745 0 0 1 2.335 3.775c.233.725.373 1.475.418 2.232.023.38.023.76 0 1.139 0 .24-.093.719-.093.719.11-.12.208-.251.294-.39a8.834 8.834 0 0 0 .618-5.902c-.867-3.149-2.78-5.934-5.443-7.925a69.471 69.471 0 0 0-6.897-4.734 7.908 7.908 0 0 1-3.526-3.685 4.812 4.812 0 0 1 .109-2.997c.495-1.762 2.041-3.058 3.912-3.28a4.64 4.64 0 0 0-1.546 3.355 4.527 4.527 0 0 0 2.35 2.802c1.474.958 3.026 1.8 4.64 2.517.285.14.593.232.912.27.881 0 1.716-.735 2.551-.48a4.213 4.213 0 0 0-1.871 2.022c-.322 1.416.358 2.868 1.67 3.566a8.288 8.288 0 0 0 3.093.959 3.01 3.01 0 0 0 2.799-.555c.139-.15.232 0 .232.12v.375c0 .12 0 .21.108.224.108.015.155-.09.186-.18.192-.479.307-.984.34-1.498a7.694 7.694 0 0 0-.356-2.651c-.124-.42-.356-.51-.742-.255a17.065 17.065 0 0 1-3.325 1.648 5.84 5.84 0 0 1-1.886.57 1.04 1.04 0 0 1-.813-.281.972.972 0 0 1-.3-.783c0-.78.386-1.244 1.097-1.244h3.201a2.98 2.98 0 0 0 2.675-1.363 4.377 4.377 0 0 0 .449-1.977.76.76 0 0 0-.132-.608.809.809 0 0 0-.549-.321l-.99-.285c-.355-.12-.463-.3-.34-.57a2.084 2.084 0 0 1 1.114-1.108 4.414 4.414 0 0 1 1.716-.18c.155 0 .402.12.464 0s-.185-.254-.309-.36a36.624 36.624 0 0 0-6.634-4.134l-2.18-1.213c.232-.15.448-.12.618-.195a.415.415 0 0 0 .32-.25.394.394 0 0 0-.057-.394 1.754 1.754 0 0 0-.541-.615 8.4 8.4 0 0 0-5.15-1.498h-.17c.01.056.043.105.093.135.38.33.686.733.897 1.184 0 0 .155.164 0 .24-.155.074-.155 0-.232 0a10.422 10.422 0 0 0-5.814-1.11c-.418 0-.835.136-1.253.196.42.119.85.204 1.284.254a3.91 3.91 0 0 1 2.396 1.184c0 .075.186.135.14.254-.047.12-.124.09-.263.09a6.088 6.088 0 0 0-1.732.195c-2.52.616-4.374 2.693-4.64 5.198a7.838 7.838 0 0 0 .403 3.955s.077.15 0 .21a3.155 3.155 0 0 1-.217-.254 5.49 5.49 0 0 1-.99-2.772 7.567 7.567 0 0 1 1.176-4.914c0-.09.185-.18.093-.3-.093-.12-.201 0-.294 0a5.305 5.305 0 0 1-2.938-.254 1.918 1.918 0 0 1-1.222-1.768c-.02-.675.366-1.3.99-1.603z"/></g><g><path fill="#ebaa43" d="M68.62 7.146A21.82 21.82 0 0 0 52.49.013H24.226a1.693 1.693 0 0 0-1.41.487c-.37.372-.548.895-.484 1.417v10.187c.33.136.782.453 1.022.544.24.09.737.272 1.128.393a5.37 5.37 0 0 0 2.074.241 5.623 5.623 0 0 0 2.631-1.178c1.684-1.21 3.112-2.72 4.72-4.005a13.257 13.257 0 0 1 6.946-3.19c2.4-.129 4.807.1 7.14.68a12.893 12.893 0 0 1 6.48 4.248c.728.814 1.373 1.7 1.924 2.644a1.908 1.908 0 0 1 .902 2.01.53.53 0 0 0 .346.62 33.533 33.533 0 0 1 6.329 4.655c.36.325.425.869.15 1.27a8.99 8.99 0 0 0-.556 3.506 13.336 13.336 0 0 1-.256 2.04 1.425 1.425 0 0 1-.24.605c-.202.28-.307.62-.3.967-.021.86-.132 1.717-.332 2.554a4.685 4.685 0 0 1-1.789 2.554 2.69 2.69 0 0 1-.736.469c0-.363.225-.635.255-.952.03-.318 0-.333-.285-.257a4.143 4.143 0 0 1-2.06.166h-.24c-.045 0 0 .166.075.242 1 1.47 1.7 3.123 2.06 4.866a14.38 14.38 0 0 1-1.173 7.708 22.142 22.142 0 0 0 9.937-6.196 23.37 23.37 0 0 0 6.449-15.975A24.01 24.01 0 0 0 68.62 7.146z"/></g><g><path fill="#ebaa43" d="M.28 5.69v34.839l29.862-17.427L.28 5.69z"/></g></g></g></svg>