<svg xmlns="http://www.w3.org/2000/svg" width="54" height="52" viewBox="0 0 54 52"><g><g><g><path fill="#b49060" d="M23.38 41.56c-.93-5-1.88-10-2.79-15-.73-4-.72-4 3-5.35.5-.18 1-.31 1.85-.56C26 25.81 26.48 30.89 27 36c.08.8.09 1.62.19 2.42.62 4.77-1.21 6.15-5.76 4.2a28.46 28.46 0 0 1-7.67-5c-1.07-.95-1.65-1-2.38.39-1.66 3.1-4.72 3.93-7.88 4.52-1.32.25-1.74-.25-1.62-1.6.4-4.21 1.76-6 7.62-8.93-5.5-.28-6.83-3.82-7.59-7.92-.26-1.41.08-2 1.61-1.85 2.94.39 5.84 1.14 7.39 3.83 1.25 2.2 2.28 1.7 3.55.36 1.75-1.87 2.54-1.31 3.26.91 1.56 4.85 5.43 14.3 5.66 14.23z"/></g><g><path fill="#b49060" d="M29.341 21.505c.11-2.84 2.53-2.29 4.06-2.24 1.82 0 1.78 1.21 1.64 2.5-.72 6.52-1.49 13-2.11 19.57-.21 2.16-1.63 1.67-2.93 1.76-1.46.11-2-.54-1.77-1.92.07-.44.86-13.56 1.11-19.67z"/></g><g><path fill="#b49060" d="M45.421 27.826a1.89 1.89 0 1 1-3.78 0 1.89 1.89 0 0 1 3.78 0zm5.31 5.32a10.83 10.83 0 0 1-5 2.81 19.21 19.21 0 0 0 3.69-3.48 2.29 2.29 0 0 0 .33-3 21 21 0 0 0-9-8.29c-.91-.42-1.58-.66-1.94.74-1.67 6.51-3.45 13-5.17 19.51-.22.83-.31 1.84.95 1.7 8.28-1 12.07-3.06 14.84-6 .51-.48 2.07-2.93 1.3-3.99z"/></g><g><path fill="#b49060" d="M36.84 18.07c-1.66-5.1-5.39-9.71-.92-15"/></g><g><path fill="#b49060" d="M26.31 14.83c-4-9.39-4.16-11.56-.86-14.6"/></g><g><path fill="#b49060" d="M17.122 20.35c-3.61-6.63-5.18-12.62-.86-14.93"/></g><g><path fill="#b49060" d="M12.073 49.19c-.96.031-1.923.008-2.88-.07a12.26 12.26 0 0 1-2.93-.54 5.78 5.78 0 0 1-1.49-.71 3.51 3.51 0 0 1-.7-.65 2.3 2.3 0 0 1-.3-.48 1.43 1.43 0 0 1-.12-.31 1.72 1.72 0 0 1 0-.18 1.28 1.28 0 0 1 0-.28l2 .12a.11.11 0 0 1 0-.05v.08a.47.47 0 0 0 0 .09c.065.137.157.259.27.36a4 4 0 0 0 1 .69c.799.41 1.645.723 2.52.93a24.62 24.62 0 0 0 2.74.56c.93.15 1.87.24 2.82.34-1-.03-2 .06-2.93.07zm-11.3-5a.48.48 0 0 0-.48.53 10.54 10.54 0 0 0 .71 3.17 7.5 7.5 0 0 0 5.8 2.75h-.15V52h40.7v-1.35a9.52 9.52 0 0 0 5.56-2.15c.6-.52.65-2.71.8-3.76a.48.48 0 0 0-.48-.55z"/></g></g></g></svg>