<svg xmlns="http://www.w3.org/2000/svg" width="54" height="51" viewBox="0 0 54 51"><g><g><g><path fill="#b49060" d="M12.073 48.19c-.96.031-1.923.008-2.88-.07a12.26 12.26 0 0 1-2.93-.54 5.78 5.78 0 0 1-1.49-.71 3.51 3.51 0 0 1-.7-.65 2.3 2.3 0 0 1-.3-.48 1.43 1.43 0 0 1-.12-.31 1.72 1.72 0 0 1 0-.18 1.28 1.28 0 0 1 0-.28l2 .12a.11.11 0 0 1 0-.05v.08a.47.47 0 0 0 0 .09c.065.137.157.259.27.36a4 4 0 0 0 1 .69c.799.41 1.645.723 2.52.93a24.62 24.62 0 0 0 2.74.56c.93.15 1.87.24 2.82.34-1-.03-2 .06-2.93.07zm-11.3-5a.48.48 0 0 0-.48.53 10.54 10.54 0 0 0 .71 3.17 7.5 7.5 0 0 0 5.8 2.75h-.15V51h40.7v-1.35a9.52 9.52 0 0 0 5.56-2.15c.6-.52.65-2.71.8-3.76a.48.48 0 0 0-.48-.55z"/></g><g><path fill="#b49060" d="M10.925 36.141h-2.33V4.671a3.65 3.65 0 1 1 7.29 0v27.12h-2.33V4.671a1.39 1.39 0 0 0-.38-1.07 1.3 1.3 0 0 0-.88-.32 1.32 1.32 0 0 0-1.37 1.39z"/></g><g><path fill="#b49060" d="M18.562 4.632v10.25c0 .74-.599 1.34-1.337 1.34s-1.337-.6-1.337-1.34V4.632c0-.742.597-1.345 1.337-1.35.74.005 1.337.608 1.337 1.35zm-1.337 13.92a3.67 3.67 0 0 0 3.66-3.67V4.632a3.67 3.67 0 1 0-7.33 0v10.25a3.68 3.68 0 0 0 3.67 3.67z"/></g><g><path fill="#b49060" d="M23.572 4.633V14.89a1.348 1.348 0 0 1-1.342 1.234 1.348 1.348 0 0 1-1.342-1.234V4.633a1.359 1.359 0 0 1 1.347-1.351c.74.005 1.337.608 1.337 1.35zm2.323 10.249V4.632a3.67 3.67 0 1 0-7.33 0v10.25a3.68 3.68 0 0 0 3.67 3.67 3.67 3.67 0 0 0 3.66-3.67z"/></g><g><path fill="#b49060" d="M24.745 10.915a1.14 1.14 0 0 1-.82-.34 1.16 1.16 0 0 1 0-1.65l5-5h20.62a1.17 1.17 0 1 1 0 2.33h-19.66l-4.32 4.34a1.14 1.14 0 0 1-.82.32z"/></g><g><path fill="#b49060" d="M6.06 41.834h2.37c1.29-5.83 6.63-10.61 13.63-12.19.309.308.59.643.84 1a15.83 15.83 0 0 0-11.69 11.19h2.4a13.55 13.55 0 0 1 10.3-9c.07.28.14.56.19.86.05.3.12.83.16 1.24a11.31 11.31 0 0 0-7.33 6.91h2.53a8.85 8.85 0 0 1 4.92-4.5 29.58 29.58 0 0 1-.33 4.5h2.35a29.18 29.18 0 0 0 0-8.53 9.3 9.3 0 0 0-3.9-6.31 2.59 2.59 0 0 1 2.14-.81c2 .22 4.63 3.36 5.17 7.24a35.46 35.46 0 0 1-.23 8.39h2.35a37.1 37.1 0 0 0 .18-8.7 13.17 13.17 0 0 0-3-6.71 2.29 2.29 0 0 1 1.63-.27c1.26.31 3.6 4.63 3.88 8.68.21 3.09.17 5.84.14 7h4.28l.29-.06a6.81 6.81 0 0 0-2.24-3.47c0-1-.06-2.14-.14-3.33a13.31 13.31 0 0 1 5.27 6.86h2.41a15.52 15.52 0 0 0-8.09-9.82 18.72 18.72 0 0 0-.54-1.79 16.5 16.5 0 0 1 10.9 11.62h2.37c-1.27-6.18-6.77-12.91-14.37-14.27-1-1.89-2.25-3.34-3.58-3.67a4.89 4.89 0 0 0-4 .92 5.4 5.4 0 0 0-2.42-.92c-3.49-.39-5.07 2.84-5.14 3l-.54 1.11h.05c-6.93 2.3-12.04 7.58-13.21 13.83z"/></g></g></g></svg>