<svg xmlns="http://www.w3.org/2000/svg" width="54" height="53" viewBox="0 0 54 53"><g><g><g><path fill="#b49060" d="M7.679 28.65c-.02-1.23.22-1.76 1.62-1.85 4.2-.28 4.15-.35 4.59 3.79.64 6.15 3.32 13.54 8.74 16.88-7.37-.82-14.8-11.59-14.95-18.82zm-4.4-4.38c-1.12 0-2.62-.36-3.12 1.07a3 3 0 0 0 2.15 3.85c1.74.47 3.43 5.29 3.86 6.67a20.68 20.68 0 0 0 8.36 11.09c1.5 1.02 2.8 2 3.19 3.84.22 1.12 1 1.37 2 1.37h14.53c.87 0 1.79.05 2-1 .48-2.41 2.36-3.52 4.16-4.77a23.94 23.94 0 0 0 7.13-9c1.33-2.91 1.09-6.77 4.64-8.15a3.22 3.22 0 0 0 1.64-4c-.54-1.5-2.2-1-3.39-1h-23.3c-7.95.01-15.9-.01-23.85.03z"/></g><g><path fill="#b49060" d="M36.84 20.26c-1.66-5.09-5.39-9.71-.92-15"/></g><g><path fill="#b49060" d="M26.31 14.83c-4-9.39-4.16-11.56-.86-14.6"/></g><g><path fill="#b49060" d="M17.122 20.35c-3.61-6.63-5.18-12.62-.86-14.93"/></g><g><path fill="#b49060" d="M40.31 23.62c3-3 6.22-6.16 9.26-9.12a1.34 1.34 0 0 1 2.15 0c.66.75.14 1.37-.38 1.89-2.31 2.32-5 4.94-7.28 7.26z"/></g></g></g></svg>