<svg xmlns="http://www.w3.org/2000/svg" width="43" height="51" viewBox="0 0 43 51"><g><g><g><path fill="#b49060" d="M28.67 16.19c-1.4-4.3-4.54-8.19-.77-12.68"/></g><g><path fill="#b49060" d="M19.781 12.69c-3.41-7.92-3.5-9.75-.72-12.32"/></g><g><path fill="#b49060" d="M11.997 16.19c-3-5.59-4.34-10.64-.7-12.6"/></g><g><path fill="#b49060" d="M34.198 35.086c.433-1.151.79-2.33 1.07-3.528.219-.942.372-1.897.46-2.86a.7.7 0 0 1 .69-.74c.43-.074.87-.074 1.3 0a2.06 2.06 0 0 1 1.39 2.8 5.938 5.938 0 0 1-2.61 3.239 9.481 9.481 0 0 1-2.25 1.09zm-23.4 1.167a18.943 18.943 0 0 1-2.43-7.493c-.04-.36-.08-.78-.11-1-.03-.22.01-.33.25-.22 1.126.481 2.309.817 3.52 1 .38.07.33.35.33.59.055 1.516.215 3.027.48 4.521a20.013 20.013 0 0 0 2.27 6.543c.055.1.101.203.14.31a13.102 13.102 0 0 1-4.45-4.251zm9.77-14.852a40.114 40.114 0 0 1 8.93.942c.697.144 1.37.387 2 .721.31.18.66.34.66.772 0 .43-.37.62-.7.791a9.867 9.867 0 0 1-2.91.872c-3.848.611-7.754.78-11.64.5a29.322 29.322 0 0 1-5.75-.791 8.36 8.36 0 0 1-1.28-.43c-.44-.191-1-.411-1-.942 0-.531.53-.732.95-.922.916-.404 1.88-.687 2.87-.841 2.599-.451 5.232-.676 7.87-.672zm-10.16-1.818a11.09 11.09 0 0 0-4.15 1.81 2.81 2.81 0 0 0-1.26 2.19 34 34 0 0 0 .66 7.85c.92 4.14 2.67 7.81 6.15 10.45a.43.43 0 0 1 .19.37 1.66 1.66 0 0 0 1 1.47 6 6 0 0 0 2.22.74c3.358.52 6.773.55 10.14.09a7.34 7.34 0 0 0 2.46-.72 1.76 1.76 0 0 0 1.14-1.6.48.48 0 0 1 .25-.39 14.24 14.24 0 0 0 2.86-2.94.8.8 0 0 1 .61-.34 10 10 0 0 0 3.23-.8c3.41-1.51 5.69-3.96 6.27-7.76a4.39 4.39 0 0 0-2.4-4.81 5.56 5.56 0 0 0-3.22-.39c-.42.07-.62 0-.56-.49a3.27 3.27 0 0 0-1.84-3.31 12.92 12.92 0 0 0-3.55-1.42 43.74 43.74 0 0 0-10.14-1.08 43.44 43.44 0 0 0-10.06 1.08z"/></g><g><path fill="#b49060" d="M20.247 51.073a60.89 60.89 0 0 1-12.59-1.26 22.41 22.41 0 0 1-4.78-1.54 6.49 6.49 0 0 1-1.81-1.2 1.77 1.77 0 0 1 0-2.86 6.78 6.78 0 0 1 1.93-1.21 24.22 24.22 0 0 1 5-1.57.42.42 0 0 1 .43.14 12.93 12.93 0 0 0 1.66 1.43c.121.08.21.201.25.34a4 4 0 0 0 2.21 2.26 13.31 13.31 0 0 0 4.61 1c2.24.17 4.49.17 6.73 0a14.12 14.12 0 0 0 4.16-.84 4.12 4.12 0 0 0 2.65-2.5.7.7 0 0 1 .3-.26 12 12 0 0 0 1.57-1.36.48.48 0 0 1 .5-.2 23.3 23.3 0 0 1 5.28 1.72 6 6 0 0 1 1.6 1.08 1.77 1.77 0 0 1 0 2.89 8.39 8.39 0 0 1-2.95 1.62 33.63 33.63 0 0 1-7.34 1.72c-3.12.412-6.263.613-9.41.6z"/></g></g></g></svg>