<?xml version="1.0" encoding="UTF-8"?>
<svg width="349px" height="239px" viewBox="0 0 349 239" version="1.1" xmlns="http://www.w3.org/2000/svg" xmlns:xlink="http://www.w3.org/1999/xlink">
    <!-- Generator: Sketch 63.1 (92452) - https://sketch.com -->
    <title>Group 33</title>
    <desc>Created with Sketch.</desc>
    <defs>
        <polygon id="path-1" points="0.703543388 0.678115836 50.2958678 0.678115836 50.2958678 72.1947947 0.703543388 72.1947947"></polygon>
        <polygon id="path-3" points="0.531465909 0.0673939394 21.8106705 0.0673939394 21.8106705 34.0909091 0.531465909 34.0909091"></polygon>
        <polygon id="path-5" points="0.0340909091 237.5 347.761364 237.5 347.761364 0 0.0340909091 0"></polygon>
    </defs>
    <g id="Кейс" stroke="none" stroke-width="1" fill="none" fill-rule="evenodd">
        <g id="Pride-XL" transform="translate(-926.000000, -1686.000000)">
            <g id="Group-6" transform="translate(0.000000, 1546.000000)">
                <g id="Group-33" transform="translate(926.000000, 140.000000)">
                    <path d="M247.351923,26.8864145 C247.481643,26.8813795 247.719056,26.8461346 247.88549,26.8134072 C248.252622,26.7403999 248.61486,26.6900501 248.967308,26.6673926 C249.31486,26.6245953 249.65507,26.6245953 249.956119,26.6397002 C250.002622,26.6371827 250.056469,26.6472527 250.110315,26.6548052 C250.142133,27.1608211 250.281643,27.6315922 250.460315,28.0369084 C250.48479,28.0897758 250.516608,28.1350906 250.543531,28.187958 C250.036888,27.9034813 249.513112,27.6517321 248.977098,27.4301928 C248.291783,27.185996 247.486538,26.868792 246.791434,26.9191419 C247.033741,26.8511696 247.229545,26.8864145 247.351923,26.8864145 M248.387238,28.5504769 C248.996678,28.9885205 249.608566,29.4190117 250.259615,29.7714606 C250.913112,30.1239095 251.652273,30.3227914 252.34493,30.617338 C252.521154,30.6878278 252.680245,30.7885275 252.846678,30.8741222 C253.292133,31.2064312 253.757168,31.5060128 254.207517,31.8156643 C254.207517,31.8156643 254.209965,31.8156643 254.212413,31.8181818 L254.579545,31.3323058 C253.83549,30.5342608 253.282343,29.5297813 252.724301,28.668799 C252.166259,27.7952292 251.852972,26.8234772 251.86521,26.1789991 L251.877448,25.5219337 L251.54458,25.3306042 C250.717308,24.8573157 250.359965,25.0234702 249.865559,25.0486451 C249.41521,25.1090649 249.013811,25.2676669 248.631993,25.4287864 C248.262413,25.6175984 247.912413,25.8265502 247.581993,26.050607 C247.405769,26.1739642 247.290734,26.2822163 247.082692,26.4433358 C246.862413,26.6145253 246.720455,26.8159247 246.625,26.9191419 C247.254021,27.6668371 247.760664,28.0671183 248.387238,28.5504769" id="Fill-1" fill="#E6923A"></path>
                    <path d="M231.551912,18.9569799 C233.282806,18.4761199 234.906104,17.668962 236.41245,16.6925218 C237.923473,15.6964547 239.30351,14.5850793 240.60402,13.2185536 L240.943182,12.8628154 L240.788805,12.3500616 C240.232112,10.5223029 239.474261,8.73625145 237.680212,7.46540715 C236.770324,6.87414561 235.525951,6.66560939 234.510805,6.93302643 C233.570508,7.15628286 232.630212,7.58316878 231.853649,8.2357645 C230.291166,9.57284972 229.535654,11.5134633 229.269003,13.3240484 C229.025742,15.0266854 229.10293,16.6998819 229.39765,18.316651 C228.401217,18.4785733 227.383732,18.5153738 226.373264,18.3681717 C224.698507,18.1792625 223.192161,17.2960502 221.758326,16.3490504 L221.625,16.5256928 C222.993342,17.6076279 224.487992,18.6723893 226.249294,19.0354877 C227.977849,19.4476534 229.811661,19.398586 231.551912,18.9569799" id="Fill-3" fill="#E6923A"></path>
                    <path d="M278.769642,88.9433003 C278.551448,89.4648767 278.230151,89.9673128 277.872887,90.4266829 C277.72183,90.6180871 277.515624,90.8405944 277.304623,90.981755 C276.645244,90.1635021 275.92832,89.3907076 275.113088,88.7351482 C274.674302,88.383443 274.206742,88.0604484 273.708012,87.7972677 C273.214078,87.5484422 272.669791,87.3163646 272.111117,87.3378976 C272.6602,87.4072816 273.132555,87.7135283 273.56175,88.0293452 C273.990946,88.3571249 274.37938,88.7327557 274.736643,89.132312 C275.446374,89.9290319 276.029025,90.8238466 276.539744,91.7497644 C276.520562,92.3526876 276.410266,92.9221151 276.117741,93.3958405 C275.698137,94.0585776 275.122679,94.6327902 274.45371,95.1065156 C273.787138,95.5850261 273.039043,95.9582643 272.271766,96.2453706 C271.806604,96.3889237 271.259919,96.5324769 270.804349,96.4224194 C270.44229,95.3050974 269.924378,94.2810849 269.298568,93.3336342 C268.641587,92.393361 267.886299,91.3813113 266.773747,90.9961104 C267.792787,91.5440049 268.339472,92.6110833 268.821417,93.6016 C269.279386,94.6184349 269.622263,95.6950835 269.775718,96.7597693 C268.795042,97.7311457 267.430728,98.3197136 266.217471,98.0254296 C264.831577,97.7096127 263.750197,96.5133364 262.898999,95.2117879 C261.148648,92.5608397 260.014517,89.5199055 258.192234,86.5435701 C257.92129,86.1751171 257.6983,85.806664 257.34823,85.4453885 C257.144422,85.2539843 257.110854,85.1104312 256.767977,84.8831387 C256.619317,84.7802589 256.465861,84.6821643 256.307611,84.5936398 L255.933563,84.4476941 C254.943296,84.0959889 254.106485,84.0002868 253.243298,83.8902294 C251.533709,83.7179656 249.864882,83.7012178 248.198453,83.6916475 C244.870389,83.7275358 241.566303,83.8830517 238.26941,84.0720634 L218.526416,85.3185833 L213.603855,85.5889417 C212.783828,85.6128672 211.9638,85.6415778 211.155762,85.62483 C210.314155,85.6415778 209.637992,85.5291279 208.839545,85.2013482 L203.972132,83.5217763 C201.209935,82.2585086 198.658739,80.9856707 198.394988,80.8612579 C198.524466,81.0526621 199.29414,82.2680788 199.708949,83.8663039 C199.7617,84.7324079 199.672983,85.5961193 199.4428,86.4024095 C199.090332,87.8475113 198.267907,88.8236727 197.136174,89.6060373 C194.84873,91.1420561 191.853952,91.6827729 188.979061,92.1804238 C183.130973,93.1302672 177.076678,93.3097086 171.027179,93.6470585 C167.996436,93.783434 164.960896,93.8145372 161.930152,93.6183479 C158.901806,93.4484767 155.890244,92.9245077 152.744409,93.0226023 C149.632142,93.1565853 146.543853,93.8671734 143.664166,95.0179911 C141.43187,95.8984504 139.297881,97.0277352 137.377291,98.4465189 C138.278842,96.4200269 139.18279,94.3959275 140.122704,92.3957536 C141.276017,89.9505649 142.527637,87.560405 143.92552,85.2635545 C145.330596,82.9954148 146.977844,80.7727335 149.320436,79.428119 L149.226924,79.2319297 C146.711694,80.4305985 144.836661,82.6054287 143.237369,84.8041845 C141.611701,87.0220806 140.268966,89.4122406 138.964595,91.8071857 C136.353456,96.6018609 134.06841,101.537697 131.699442,106.413719 C131.104802,107.62435 130.522152,108.868478 129.898739,110.038436 C129.217781,111.12944 128.649516,112.28265 127.762352,113.237278 C126.227799,115.311621 124.151355,116.957698 122.02456,118.476968 C117.631899,121.388705 112.625418,123.381701 107.515833,124.977534 C102.382271,126.575759 97.1024465,127.647622 91.75069,128.67642 C91.1056978,128.769729 90.3719893,129.018555 89.6430762,129.298483 C88.8734016,129.516206 88.3363077,129.970791 87.6937133,130.317711 C87.0511189,130.667023 86.5188206,131.116823 85.960147,131.542698 C85.4014735,131.96618 84.8428,132.389661 84.34407,132.865779 C82.2268653,134.664979 80.3997872,136.708219 78.5463339,138.71557 C74.8873821,142.773339 71.554523,147.075149 68.1209588,151.286041 C66.4065745,153.391487 64.7497359,155.54957 62.975408,157.590417 C62.0474825,158.578541 61.2514327,159.6839 60.0885286,160.215047 C59.5058777,160.547612 58.8584878,160.621781 58.2830301,160.485405 L59.7360608,156.35586 L56.7868402,159.21496 L56.7820447,159.20539 L56.3312695,159.540347 C55.6694932,160.033213 54.3075766,160.186336 53.214207,160.195907 C52.0824736,160.171981 50.7781028,160.169588 49.9340982,159.781995 C49.0517298,159.392009 48.7136484,158.406277 48.7280348,157.334414 C48.7232393,156.49702 48.9318428,155.614168 49.1931965,154.776775 C49.6583581,154.573408 50.0252124,154.358078 50.4088508,154.123608 C50.8572283,153.834109 51.2792306,153.523078 51.6844487,153.200083 C52.4948849,152.554094 53.2381844,151.857861 53.9359269,151.132918 C53.0247855,151.563577 52.09686,151.939208 51.164139,152.238277 C50.6965797,152.386615 50.2290203,152.515813 49.7662564,152.613908 C49.3274699,152.702432 48.7879783,152.793349 48.4834653,152.769424 L48.4906585,152.814882 C48.4355105,152.70961 48.3827602,152.58759 48.365976,152.422503 C48.2796574,151.972704 48.2772596,151.434379 48.3252144,150.896055 C48.4283173,149.838547 48.6752845,148.61356 48.994184,147.642184 C49.5912214,145.677898 51.4494701,144.321321 53.4515833,143.297308 C57.5109577,141.203825 62.2800633,140.000371 66.33704,136.985755 C68.3487441,135.308575 69.6675013,133.229447 70.8519851,131.126394 C72.0076959,129.006592 72.9787808,126.817407 73.8995131,124.616258 C75.7625573,120.252242 77.0693258,115.57241 78.6518344,111.249067 C81.4691794,111.206001 84.8428,110.347075 87.1302443,108.021514 C88.2715687,106.885052 89.1395508,105.511726 89.7413836,104.059447 C90.3096481,102.540176 90.6477294,101.224272 91.1560504,99.8437695 C92.1439194,97.1186522 93.3212099,94.4437785 94.5536485,91.7952229 C95.7693028,89.1347045 97.0568894,86.4981116 98.4379879,83.9093698 L98.3420782,83.8519486 L98.3372828,83.7442837 C94.6207852,83.5409167 90.9162764,83.186819 87.3076771,82.4953713 C83.7326463,81.7919609 80.1072628,80.8469026 77.2395654,78.9113276 C74.407834,77.0259963 72.5903468,73.8630418 71.5856936,70.4895428 C70.6050178,67.082548 70.3220845,63.4219427 70.67695,59.811581 C71.4370337,52.6004277 73.9546611,45.4036298 78.7765169,39.8433377 C83.49527,34.2016989 89.5327802,29.6391013 96.0306565,26.0789831 C96.045043,26.1076938 96.0594294,26.1076938 96.0690204,26.1555448 C96.0690204,26.1770778 96.0906,26.1986108 96.0906,26.2416767 C96.3207831,27.1340988 96.3807266,29.9644884 95.6542113,31.266037 C90.0411011,33.6849076 84.6821514,37.2091374 80.9057104,42.3004892 C76.9949959,47.4803653 75.1631222,54.1220911 75.3381573,60.5628425 C75.4076917,62.1467122 75.4724307,63.8358543 75.9327969,65.4819304 C76.3691856,67.1208289 77.1172806,68.7118763 78.1794796,70.0732387 C80.3062753,72.8557772 83.5264406,74.4085438 86.6650827,75.2196191 C93.0718449,76.7771708 99.5433462,76.0426572 105.719925,74.621481 L105.921335,74.5736299 L106.04362,74.3989736 C107.630924,72.1451891 110.539383,70.8867065 113.246432,69.8746568 C116.01822,68.8434667 118.91469,68.1568041 121.82315,67.5754139 C127.647261,66.376745 133.574475,65.8719165 139.487303,64.8550816 C142.616354,64.1923446 145.376153,62.8333748 147.963315,61.2734305 C150.55767,59.7182714 153.017752,57.9932411 155.41789,56.2012192 C159.901664,52.7511585 164.15046,49.0331319 168.116323,45.0256065 C170.785008,45.6548478 174.141844,45.9969828 177.637749,45.140449 C183.512213,43.6977398 174.722097,45.8414669 176.913632,54.9403441 C176.913632,54.9403441 179.718988,51.3539078 183.994159,51.8563439 C188.904731,52.4257714 194.515444,53.957005 199.493153,50.3035773 C199.843223,50.0403965 200.193293,49.7580753 200.543363,49.4518286 C201.399356,48.6646788 196.22743,62.3333313 175.685989,59.5125119 C175.685989,59.5125119 182.394866,72.3078827 199.339697,74.8894469 C206.472975,75.9852359 215.440524,75.2435446 226.467732,70.9584831 C228.59213,70.9202023 230.711732,70.611563 232.778584,70.0923791 C242.098601,71.4393862 251.351481,72.9730123 260.359792,75.2339744 C262.630452,75.8345051 264.937078,76.4757092 266.958373,77.4207674 C268.958089,78.3658257 270.857099,79.9042369 272.722541,81.3589089 C274.528039,82.8829648 276.587698,84.2969633 278.155821,85.9430395 C278.942279,86.7684701 279.24919,87.8786144 278.769642,88.9433003 M217.19567,69.5827654 C217.507376,69.6736824 217.823878,69.7550292 218.137982,69.8411611 C217.819082,69.7669919 217.490592,69.6688973 217.169295,69.5875505 C217.178886,69.585158 217.186079,69.5827654 217.19567,69.5827654 M176.431686,24.6530219 C179.623079,21.4757121 182.661016,18.1811673 186.250433,15.6426691 C189.763122,13.0539273 194.028703,11.7356309 198.37101,11.355215 C202.701329,10.9987247 207.19949,11.3887107 211.352377,12.4821072 L217.027828,13.9774526 L212.26112,10.6278791 C210.96634,9.7187091 209.681152,8.97462527 208.316837,8.27839249 C207.638277,7.93386493 206.947728,7.61087034 206.24519,7.31419383 C209.055341,5.72314641 212.333052,4.58907652 215.548422,3.74689804 C219.545455,2.78748448 223.650387,2.07211128 227.676193,2.28744101 C231.709192,2.48602286 235.718214,3.5219981 239.204529,5.50781668 C240.935697,6.49354832 242.604524,7.66589905 243.748247,9.17081457 C245.00706,10.7379365 245.568131,12.3624796 245.510586,14.4176822 L245.500995,14.8148459 L245.80311,15.0971671 C248.315942,17.4227282 250.807194,19.7913552 253.236105,22.198263 C254.449362,23.3969318 255.672209,24.6099559 256.770374,25.8684385 C257.038921,26.1794704 257.307468,26.50725 257.49689,26.7967489 C257.552038,26.8733106 257.559231,26.9091989 257.588004,26.9498723 L257.588004,27.0360042 L257.592799,27.6963486 C257.614379,28.5863782 257.700698,29.5218662 258.021995,30.4310362 C258.290542,31.3545614 259.062614,32.1895623 259.690822,32.7159238 L261.623401,34.4385616 C262.898999,35.5845943 264.186585,36.7114865 265.383058,37.9197255 C266.538769,39.1303571 267.816764,40.3960174 268.339472,41.9105031 C268.363449,41.9894573 268.353858,42.0779818 268.365847,42.1617211 C267.701673,41.290832 266.881645,40.5252152 265.867401,39.9653579 C265.279955,39.6591112 264.632565,39.4413889 263.954004,39.3193687 C263.253864,39.2188815 262.608872,39.1494975 261.772061,39.3959304 L260.34061,39.8146271 L261.573048,40.8625651 C263.138773,42.1928243 265.016203,43.5757196 265.869799,45.2026553 C266.047232,45.6261371 266.099982,45.8606073 265.95372,46.2553785 C265.771492,46.7099634 265.502945,47.1693335 265.186443,47.5976004 C264.572622,48.4732746 263.790958,49.2580318 262.930169,49.925554 C261.258944,51.3969738 258.966705,51.5261716 257.031728,51.5285642 C255.015228,51.4902833 253.118616,50.6241793 251.250776,49.3896222 L251.133287,49.5020722 C252.322566,51.4089366 254.526089,52.8564308 256.962194,52.9951989 C258.782079,53.1148265 260.460497,52.4018458 261.86797,51.4232919 C261.808027,51.9257279 261.88955,52.4664448 262.189268,52.9736659 C262.196461,52.9856287 262.20845,52.9928063 262.213245,53.0023765 C261.894346,53.3564743 261.556264,53.7799561 261.376434,54.2058304 C261.052739,54.8613898 260.841738,55.4643131 260.61635,56.0768065 L259.980949,57.897539 C259.801118,58.4669665 259.573333,58.7803908 259.199285,59.0052908 C258.436804,59.4503055 257.127638,59.2254056 255.97912,58.8904482 C254.797034,58.5411356 253.622141,58.0626251 252.452044,57.5697593 C250.111849,56.5792425 247.77645,55.4834535 245.301982,54.7393696 C244.064748,54.3780942 242.784355,54.0909879 241.482382,54.1077358 C240.192398,54.1029507 238.864049,54.5216474 237.936124,55.4140695 C238.921595,54.5814612 240.230761,54.2656442 241.479984,54.346991 C242.738798,54.4068048 243.964043,54.7609026 245.150925,55.1891695 C245.963759,55.4906311 246.759808,55.8399438 247.548665,56.2036118 C246.930048,57.7180975 246.467284,59.0244312 245.697609,60.2829138 C244.87998,61.6466687 243.851349,62.8860109 242.638093,63.9506968 C240.209182,66.0872462 237.135279,67.5012447 234.00383,68.6472774 C230.872381,69.8004877 227.549113,70.4225513 224.194674,70.3675226 C221.95998,70.3435971 219.737275,69.9918919 217.543342,69.4894559 C218.845315,69.1138251 220.120913,68.6377072 221.353352,68.039569 C223.863786,66.8289375 226.127253,65.1326177 228.023865,63.1228736 C228.925416,62.1012537 229.88691,61.0581008 230.553481,59.8020108 C231.248826,58.5842015 231.742761,57.2922232 232.174354,55.9954597 C233.032745,53.4043253 233.48352,50.743807 234.219626,48.1909534 C234.596072,46.9252932 235.020472,45.6572403 235.727805,44.5662364 C236.406366,43.4656622 237.485349,42.5995582 238.806504,42.408154 L238.780129,42.1904317 C237.389439,42.2885264 236.106648,43.1474527 235.317791,44.2839152 C234.500162,45.4132 233.994239,46.7003932 233.541066,47.9756237 C232.663493,50.5428325 232.018501,53.1531073 231.121746,55.6341843 C230.234582,58.1535421 228.970973,60.3475127 227.026405,62.1562824 C225.17535,63.9961553 223.000599,65.4723602 220.648416,66.5490088 C215.934458,68.7549422 210.527554,69.1425357 205.336446,68.5085093 C201.010922,67.9558297 196.711774,66.7882641 192.654797,65.1661135 C194.421932,64.527302 196.033213,63.6133469 197.495835,62.4601366 C199.64421,60.6968254 201.368186,58.4765367 202.603022,56.0480959 C203.240821,54.8470345 203.682005,53.5095977 204.247872,52.4449118 C204.840114,51.3180196 205.545049,50.2150529 206.271565,49.1312266 C207.734186,46.963574 209.309502,44.846165 210.930374,42.7861773 L213.989891,38.8934944 L210.134325,41.9870648 C207.117967,44.4083279 203.530948,46.1979572 199.694563,46.7721698 C196.066782,47.3176718 192.316716,47.2435026 188.648173,46.8606942 C189.367495,45.7290169 190.060442,44.573414 190.662275,43.3603899 C191.324051,41.9224659 192.043374,40.4223354 191.93068,38.6614168 C191.88752,37.7809575 191.247324,36.8646099 190.403319,36.5559706 C189.595281,36.2018728 188.710514,36.2162281 187.957624,36.1827324 C186.396695,36.142059 184.838164,36.0008984 183.286826,35.7975314 C177.577806,35.0271295 171.931127,33.6561969 166.526621,31.6727709 C170.478097,30.3688298 173.60475,27.4331679 176.431686,24.6530219 M267.905481,44.2575971 C267.74723,44.6356204 267.553013,45.0088586 267.32283,45.3557787 C267.306046,45.118916 267.270079,44.8916235 267.200545,44.7002193 C266.744974,43.4513069 265.958515,42.5588848 265.181648,41.7119212 C264.879532,41.3937118 264.558235,41.1066055 264.23454,40.8218917 C264.625372,40.8697428 265.016203,40.9463044 265.409433,41.0587544 C265.956118,41.2070927 266.486018,41.4415628 267.008726,41.7167063 C267.481081,41.9487839 267.924663,42.2454604 268.382631,42.5373519 C268.334676,43.0972091 268.094902,43.7144877 267.905481,44.2575971 M266.054425,49.8370296 C265.610843,51.0979047 264.999419,52.203264 264.042721,52.6099979 C263.632707,52.636316 263.263455,52.6076054 262.913385,52.3563873 C262.584895,52.1290949 262.321143,51.7175758 262.102949,51.2510281 C262.508167,50.9567441 262.891806,50.6433198 263.244273,50.3203252 C264.100267,49.6097371 264.980237,48.9278596 265.817049,48.1478875 C266.205483,47.7722567 266.584326,47.3727005 266.920009,46.9013676 C266.641871,47.920595 266.370927,48.9135043 266.054425,49.8370296 M278.743267,85.4764917 C277.97599,84.4668346 277.057656,83.6701146 276.196867,82.844684 L273.595318,80.3540368 C271.818593,78.7103532 270.082629,77.0618845 267.879105,75.6789892 C265.608445,74.4803204 263.285035,73.7577695 260.940045,73.0854623 C256.25486,71.7623807 251.46897,71.0182969 246.678285,70.4704024 C242.417501,69.975144 238.130341,69.7861324 233.847977,69.8124504 C234.011023,69.7645994 234.178865,69.7334962 234.341911,69.6832526 C237.602838,68.6807731 240.882947,67.4103277 243.688303,65.2091794 C245.08139,64.1157829 246.316226,62.7903088 247.316084,61.3045337 C248.229623,59.9910224 248.8914,58.4358633 249.498028,57.1438849 C250.349226,57.5697593 251.198026,58.0028113 252.054019,58.4310782 C253.202537,59.0005057 254.365441,59.5651481 255.609868,60.019733 C256.839909,60.404934 258.240189,60.950436 259.853868,60.2733436 C260.63793,59.9216384 261.182217,59.1033854 261.421991,58.4789292 L262.242018,56.7634691 C262.520156,56.2083969 262.805487,55.6317917 263.102807,55.1724216 C263.390536,54.7034814 263.656685,54.5336101 264.227347,54.0550996 L264.248927,54.0550996 L264.387996,54.0287816 C265.315921,53.844555 266.092789,53.1961733 266.57953,52.4927628 C267.04709,51.7678194 267.349205,51.0045952 267.493069,50.2294082 C267.790389,48.7723437 267.706468,47.3128867 267.306046,45.9275988 C267.313239,45.8677849 267.330023,45.8127562 267.332421,45.755335 C267.684888,45.3390308 267.994197,44.8916235 268.236369,44.4059354 C268.548075,43.5876824 269.010839,42.8124954 268.826213,41.793268 C268.303506,39.9988536 267.066271,38.7068753 265.956118,37.3861863 C264.795611,36.0942079 263.579957,34.8620434 262.330734,33.6753374 L260.479679,31.8928857 C259.829891,31.2803923 259.410287,30.7947041 259.19449,30.036265 C258.969102,29.3137141 258.916352,28.512209 258.928341,27.689171 L258.945125,27.0623222 L258.952318,26.9020212 C258.94992,26.8039266 258.923545,26.6268777 258.885181,26.4976798 C258.82284,26.3517341 258.74851,26.1890406 258.686169,26.0909459 C258.422418,25.6507162 258.151473,25.3061887 257.873335,24.956876 C256.760783,23.5835509 255.583493,22.3274608 254.399009,21.0641931 C252.101974,18.6620704 249.747393,16.3341168 247.368834,14.0205185 C247.366437,13.0563198 247.306493,12.0227372 246.980401,11.01308 C246.625535,9.86704735 246.016509,8.8621753 245.359528,7.96257556 C243.985623,6.08920694 242.156147,4.76612541 240.285909,3.63684062 C236.490286,1.39980403 232.133592,0.292052215 227.79608,0.048011859 C223.410613,-0.198421049 219.140237,0.536092571 214.984953,1.51225399 C210.803294,2.58172497 206.772693,4.01247137 203.044206,6.69691528 L201.337015,7.92668727 L203.406265,8.59660197 C204.161553,8.84303488 204.909648,9.13014118 205.648152,9.43878045 C203.168889,9.21866562 200.680034,9.21627307 198.181589,9.48423895 C193.613893,9.98906753 188.993448,11.5083384 185.334496,14.3889716 C181.63718,17.1427995 178.637607,20.5737198 175.556511,23.7940955 C172.485005,26.9594425 169.152146,30.1654628 164.87218,31.1607647 L163.287273,31.5292178 L164.802645,32.062757 C167.334659,32.950394 169.905037,33.7160108 172.496994,34.3931031 C168.262585,38.6159583 169.768366,40.0251717 162.424087,42.8890571 C162.424087,42.8890571 164.519712,44.092511 167.69432,44.9251193 C163.337626,48.3440768 158.959352,51.7199684 154.434816,54.8542122 C152.020292,56.5601021 149.555414,58.1918229 147.001821,59.629747 C144.44583,61.0150349 141.849077,62.4649217 139.132437,63.0582747 C133.341894,64.2665137 127.46743,65.4532198 121.65291,66.8002268 C118.746849,67.4940671 115.852776,68.242936 112.999465,69.178424 C111.577605,69.6593271 110.179722,70.2287546 108.827397,70.9273799 C107.551799,71.5781542 106.302576,72.3868369 105.3219,73.5711504 C102.341509,74.1142599 99.2652083,74.34873 96.2392599,74.3583002 C93.1629591,74.3798332 90.0842605,74.0735865 87.1997788,73.2625112 C84.3392746,72.4490433 81.6346234,71.0111193 79.9777849,68.7070912 C79.1433712,67.5730213 78.5703113,66.2666876 78.1914683,64.8909699 C77.8054321,63.5104671 77.7502841,62.0414399 77.6855451,60.5078137 C77.4769417,54.4642261 78.886813,48.3368991 82.3203772,43.295791 C85.6148724,38.3384222 90.4870808,34.5055531 95.7908825,31.4981146 C95.8532237,31.4670114 95.9179627,31.4335157 95.9827017,31.404805 C104.861534,27.052752 111.392979,14.9344736 102.866614,5.35230077 C102.866614,5.35230077 103.413299,11.1494555 99.4234591,13.86261 C95.4432101,16.5685869 94.9109118,22.3274608 95.9779062,25.9593555 L95.9395424,25.8804013 C89.2642333,29.2060493 83.0157219,33.5365693 77.9468988,39.1303571 C72.801348,44.7313225 69.9336505,52.1362725 68.9337928,59.6249619 C68.4254718,63.3956246 68.5573476,67.2907001 69.494864,71.0709331 C70.0391511,72.9395166 70.7129161,74.8081001 71.8110812,76.4852794 C72.911644,78.1457108 74.3359018,79.6458413 76.0454907,80.7464154 C79.5246119,82.7776925 83.3346214,83.5815901 87.0846873,84.0026794 C90.7748097,84.3878803 94.4721253,84.3807027 98.1310771,83.9811464 C94.9109118,88.8188876 91.9544979,93.8384627 89.5327802,99.183425 C88.897379,100.506507 88.343501,101.989889 87.7608501,103.17181 C87.1254489,104.375264 86.4229109,105.518904 85.5405425,106.514206 C84.6845492,107.538218 83.6271457,108.382789 82.4474574,109.11491 C81.2629737,109.890098 79.9322278,110.275298 78.5199587,111.074411 C77.3019066,113.256419 76.6041642,115.457567 75.6306816,117.639575 C74.6955629,119.814405 73.7676373,121.989236 72.7749728,124.125785 C71.7655242,126.252764 70.7105184,128.355818 69.4996595,130.348814 C68.2648232,132.296352 66.965248,134.286955 65.2724433,135.602859 C61.6350712,138.27534 56.8875453,139.304138 52.5476352,141.589026 C51.4542656,142.158453 50.3800779,142.852293 49.4233795,143.744716 C48.4522947,144.608427 47.6466539,145.778385 47.25822,147.075149 C46.8577974,148.357557 46.704342,149.494019 46.6324098,150.795568 C46.6108301,151.434379 46.6276143,152.094724 46.8026493,152.800527 C46.8865702,153.149839 47.0400256,153.530255 47.3085725,153.891531 C47.4404483,154.049439 47.5963014,154.20017 47.7833251,154.326975 C47.5195737,155.317492 47.3349477,156.308009 47.3805047,157.372695 C47.3853002,158.626392 48.0111105,160.298786 49.4425615,160.837111 C50.8332509,161.339547 52.0105414,161.186423 53.2477754,161.174461 C53.8663924,161.133787 54.4850094,161.066796 55.1036264,160.925635 C55.6167429,160.779689 56.0938932,160.691165 56.6118051,160.353815 C57.0481939,160.837111 57.5756967,161.207956 58.2230866,161.320406 C59.0191364,161.466352 59.7912088,161.222312 60.4314055,160.894532 C61.7693446,160.23658 62.5989628,159.023556 63.4933199,158.035432 L65.958197,155.073452 C66.5096773,155.757722 68.2528345,157.233927 72.4177095,155.645272 C77.6783519,153.654668 88.463388,133.13853 92.9999127,132.241323 C95.3688802,131.76042 102.295952,130.05453 109.179865,128.106992 C115.425978,126.336503 121.628933,124.367433 124.261651,122.924724 C132.502685,118.395622 137.501974,103.566581 143.836804,100.67877 C150.171634,97.7694265 174.283311,98.7982241 177.923081,97.7478935 C177.923081,97.7478935 174.832393,101.028083 171.566671,101.575978 C168.298551,102.12148 182.63464,101.750634 188.247751,98.6881667 C188.247751,98.6881667 187.698668,100.307925 186.427866,101.401321 C186.427866,101.401321 202.408805,100.764902 201.466493,91.8191484 C201.466493,91.8191484 206.003018,97.243065 209.443775,95.7788228 C212.884533,94.3337211 223.56167,93.2642501 230.620618,92.3885759 C237.940919,91.4698358 244.803252,91.1420561 244.803252,91.1420561 C244.803252,91.1420561 250.56742,89.6969543 252.408885,99.8485546 C252.651056,101.095074 254.667556,101.7937 255.763323,101.968356 C259.271218,102.516251 259.796323,100.504114 259.796323,100.504114 C259.796323,100.504114 262.318746,100.788828 263.479252,99.8485546 C263.819731,99.5638409 264.112255,98.9034964 264.148221,98.3125359 C264.735668,98.6546709 265.363876,98.932207 266.087993,99.0135538 C267.905481,99.1212187 269.440034,98.04457 270.248073,96.6592821 L270.403926,96.6233939 C270.564575,96.7956576 270.775576,96.9368182 271.000963,97.0109874 C271.487705,97.1282224 271.99123,97.1354001 272.463585,97.0660161 C273.420283,96.9368182 274.300254,96.5300843 275.089111,95.9965451 C275.849194,95.4271176 276.551732,94.6878189 276.880223,93.7427606 C277.153565,93.0321725 277.136781,92.23306 276.865836,91.5679304 L277.2231,91.3334603 C277.290236,91.3143198 277.354975,91.2951794 277.407726,91.2568986 C277.697852,91.0965976 277.925638,90.8764827 278.134241,90.6515828 C278.544255,90.1922127 278.918302,89.704132 279.206031,89.1418822 C279.484169,88.5772398 279.652011,87.9073251 279.548908,87.2421955 C279.4506,86.5722808 279.119712,85.9789277 278.743267,85.4764917" id="Fill-5" fill="#E6923A"></path>
                    <path d="M12.18097,145.800736 C13.5645784,146.191904 15.0444379,146.55922 16.6253609,146.9003 C18.206284,147.243764 19.787207,147.415497 21.3657238,147.415497 C23.9837516,147.415497 26.2673071,147.024329 28.2187966,146.241993 C30.1702861,145.457271 31.7993347,144.393485 33.1083486,143.045863 C34.4173625,141.700627 35.3919041,140.121644 36.0343797,138.311299 C36.6768552,136.500954 36.9968899,134.56658 36.9968899,132.510563 C36.9968899,130.111081 36.5781979,127.93342 35.7384078,125.975194 C34.8986176,124.016969 33.7508241,122.352119 32.2926212,120.983031 C30.8368244,119.611558 29.12115,118.547772 27.1455977,117.786902 C25.1700455,117.028418 23.0453042,116.649175 20.77378,116.649175 L12.18097,116.649175 L12.18097,145.800736 Z M0.0340909091,111.363636 L22.9225841,111.363636 C26.676374,111.363636 30.2063802,111.814434 33.5150091,112.720799 C36.823638,113.627164 39.7015436,114.948548 42.1463196,116.684953 C44.5886893,118.423743 46.516116,120.565626 47.9237872,123.110604 C49.3290522,125.657966 50.0340909,128.57026 50.0340909,131.849871 C50.0340909,135.079392 49.3555212,137.90582 47.9983818,140.331539 C46.6388361,142.752487 44.8485671,144.748876 42.6275747,146.313548 C40.4041761,147.880605 37.8727742,149.056494 35.033369,149.838831 C32.1939639,150.621167 29.2919955,151.01472 26.3298703,151.01472 C25.0473254,151.01472 23.7238739,150.976557 22.3667344,150.902617 C21.0071887,150.828677 19.6885497,150.745196 18.4035986,150.647404 C17.1210537,150.549612 15.9347599,150.425583 14.8471233,150.277702 C13.761893,150.132207 12.8739773,149.984326 12.18097,149.838831 L12.18097,182.954545 L0.0340909091,182.954545 L0.0340909091,111.363636 Z" id="Fill-7" fill="#FEFEFE"></path>
                    <path d="M88.1649066,145.727941 L95.1111886,145.727941 C97.7932516,145.727941 100.280515,145.372538 102.570602,144.661734 C104.863065,143.953314 106.837197,142.937197 108.495372,141.615769 C110.153548,140.29434 111.445879,138.691452 112.369991,136.804718 C113.298854,134.92037 113.759723,132.804653 113.759723,130.455182 C113.759723,128.298915 113.396254,126.331083 112.664567,124.544531 C111.932879,122.755593 110.897113,121.214721 109.554894,119.917145 C108.21505,118.619568 106.618641,117.615378 104.765665,116.906959 C102.91269,116.196154 100.888671,115.840752 98.6959832,115.840752 L88.1649066,115.840752 L88.1649066,145.727941 Z M76.1704545,111.363636 L100.888671,111.363636 C105.181397,111.363636 108.93486,111.82876 112.151435,112.756623 C115.370386,113.68687 118.052449,114.97252 120.195249,116.611188 C122.3428,118.25224 123.962965,120.222457 125.060497,122.524224 C126.158028,124.823605 126.704418,127.320962 126.704418,130.01391 C126.704418,132.265587 126.291062,134.357451 125.461975,136.29189 C124.632887,138.223942 123.452209,139.974716 121.91519,141.541826 C120.380546,143.108936 118.539449,144.454217 116.394274,145.580055 C114.249098,146.705893 111.882991,147.588436 109.298328,148.222913 L135.261364,182.954545 L121.366424,182.954545 L96.574564,149.324898 L88.1649066,149.324898 L88.1649066,182.954545 L76.1704545,182.954545 L76.1704545,111.363636 Z" id="Fill-9" fill="#FEFEFE"></path>
                    <path d="M221.162134,177.740562 L233.931176,177.740562 C237.993619,177.740562 241.798584,177.067943 245.346069,175.720322 C248.891171,174.375085 251.988069,172.393008 254.629611,169.77409 C257.271153,167.155172 259.361976,163.925651 260.904465,160.080755 C262.444569,156.238245 263.217006,151.797056 263.217006,146.754804 C263.217006,142.349393 262.494635,138.296988 261.049892,134.602358 C259.607534,130.907728 257.588233,127.737836 254.996756,125.092681 C252.402896,122.449911 249.320302,120.381968 245.748976,118.888851 C242.175266,117.395734 238.263018,116.649175 234.005082,116.649175 L221.162134,116.649175 L221.162134,177.740562 Z M209.125,111.363636 L232.97755,111.363636 C240.31808,111.363636 246.628695,112.04818 251.914163,113.419654 C257.197247,114.788742 261.600611,116.99264 265.124256,120.026578 C269.1867,123.454068 272.231148,127.394371 274.259986,131.849871 C276.293591,136.302985 277.306818,141.199741 277.306818,146.535369 C277.306818,151.575235 276.400874,156.300259 274.59137,160.70567 C272.781867,165.111081 270.1141,168.965517 266.592839,172.271364 C263.069194,175.574826 258.725431,178.181818 253.563935,180.089955 C248.402438,182.000477 242.49473,182.954545 235.84081,182.954545 L209.125,182.954545 L209.125,111.363636 Z" id="Fill-11" fill="#FEFEFE"></path>
                    <g id="Group-15" transform="translate(297.761364, 111.363636)">
                        <mask id="mask-2" fill="white">
                            <use xlink:href="#path-1"></use>
                        </mask>
                        <g id="Clip-14"></g>
                        <polygon id="Fill-13" fill="#FEFEFE" mask="url(#mask-2)" points="50.2961054 0.678115836 50.2961054 5.29816716 12.7001343 5.29816716 12.7001343 30.8978739 37.8623244 30.8978739 37.8623244 35.5203079 12.7001343 35.5203079 12.7001343 67.5723607 50.2961054 67.5723607 50.2961054 72.1947947 0.703543388 72.1947947 0.703543388 0.678115836"></polygon>
                    </g>
                    <polygon id="Fill-16" fill="#FEFEFE" points="179.579545 115.988637 179.579545 111.363636 175.634824 111.363636 163.870562 111.363636 160.261364 111.363636 160.261364 115.988637 163.870562 115.988637 163.870562 178.329545 160.261364 178.329545 160.261364 182.954545 163.870562 182.954545 175.634824 182.954545 179.579545 182.954545 179.579545 178.329545 175.634824 178.329545 175.634824 115.988637"></polygon>
                    <path d="M90.9564388,207.87193 C88.8714785,207.87193 87.0902233,208.587692 85.6223149,210.019216 C84.1471753,211.450741 83.4144262,213.416054 83.4144262,215.922436 C83.4144262,217.616002 83.7783904,219.081495 84.5135498,220.32862 C85.2414782,221.570892 86.1718767,222.483186 87.2975142,223.07278 C88.4255621,223.652668 89.6452036,223.946252 90.9564388,223.946252 C93.0245266,223.946252 94.7985507,223.235343 96.2785109,221.813523 C97.7584712,220.391704 98.4984513,218.428817 98.4984513,215.922436 C98.4984513,213.39907 97.7681126,211.426478 96.3050249,210.004659 C94.8419371,208.582839 93.0582716,207.87193 90.9564388,207.87193 M99.0793478,224.048157 C96.9268974,226.197871 94.2200645,227.272727 90.9564388,227.272727 C87.692813,227.272727 84.9811594,226.197871 82.8190676,224.048157 C80.6593862,221.898444 79.5795455,219.190679 79.5795455,215.922436 C79.5795455,212.637208 80.6569758,209.919738 82.8094262,207.770024 C84.9618766,205.620311 87.6783509,204.545455 90.9564388,204.545455 C94.2345267,204.545455 96.9461803,205.620311 99.09381,207.770024 C101.234209,209.919738 102.306818,212.637208 102.306818,215.922436 C102.306818,219.190679 101.231798,221.898444 99.0793478,224.048157" id="Fill-18" fill="#E6923A"></path>
                    <g id="Group-22" transform="translate(113.670455, 204.545455)">
                        <mask id="mask-4" fill="white">
                            <use xlink:href="#path-3"></use>
                        </mask>
                        <g id="Clip-21"></g>
                        <path d="M11.2701023,3.3910303 C9.40396591,3.3910303 7.80510227,4.06739394 6.47351136,5.42012121 C5.04169318,6.90860606 4.32578409,8.87951515 4.32578409,11.3328485 C4.32578409,14.0552727 5.12521591,16.1692121 6.72407955,17.6770909 C8.00555682,18.8601212 9.52089773,19.4516364 11.2701023,19.4516364 C13.1672614,19.4516364 14.7160114,18.8431515 15.9139659,17.6261818 C16.6465795,16.9158788 17.233625,16.0067879 17.6751023,14.8964848 C18.1165795,13.7910303 18.336125,12.617697 18.336125,11.3837576 C18.336125,10.1498182 18.1308977,8.9910303 17.7252159,7.90739394 C17.3171477,6.82618182 16.7730568,5.95345455 16.0905568,5.29406061 C14.8424886,4.02618182 13.2340795,3.3910303 11.2701023,3.3910303 M18.1380568,3.64557576 L18.1380568,0.574060606 L21.8106705,0.574060606 L21.8106705,21.6334545 C21.8106705,22.7486061 21.7868068,23.6504242 21.748625,24.3340606 C21.7032841,25.0225455 21.5195341,25.9340606 21.1997614,27.0758788 C20.8704432,28.217697 20.3931705,29.2189091 19.7607841,30.0819394 C18.9112386,31.2673939 17.7538523,32.2298182 16.2910114,32.9740606 C14.8233977,33.718303 13.1505568,34.0916364 11.2701023,34.0916364 C8.13919318,34.0916364 5.61680682,33.1195152 3.70294318,31.1728485 C1.85351136,29.2964848 0.929988636,26.9789091 0.929988636,24.2201212 L4.57635227,24.2201212 C4.57635227,25.9801212 5.11805682,27.4686061 6.19907955,28.688 C7.43282955,30.0722424 9.13907955,30.7655758 11.3202159,30.7655758 C13.8831705,30.7655758 15.7564659,29.7595152 16.9377159,27.7473939 C17.7371477,26.4286061 18.1380568,24.5934545 18.1380568,22.2419394 L18.1380568,19.1219394 C16.2719205,21.558303 13.8497614,22.7752727 10.8715795,22.7752727 C7.93873864,22.7752727 5.51657955,21.8031515 3.60271591,19.8564848 C1.55521591,17.7764848 0.531465909,14.9352727 0.531465909,11.3328485 C0.531465909,7.83224242 1.55521591,5.04193939 3.60271591,2.95951515 C4.51669318,2.04557576 5.60248864,1.33527273 6.86248864,0.828606061 C8.11771591,0.321939394 9.45407955,0.0673939394 10.8715795,0.0673939394 C13.899875,0.0673939394 16.3220341,1.26012121 18.1380568,3.64557576" id="Fill-20" fill="#E6923A" mask="url(#mask-4)"></path>
                    </g>
                    <mask id="mask-6" fill="white">
                        <use xlink:href="#path-5"></use>
                    </mask>
                    <g id="Clip-24"></g>
                    <polygon id="Fill-23" fill="#E6923A" mask="url(#mask-6)" points="153.443182 226.136364 156.852273 226.136364 156.852273 204.545455 153.443182 204.545455"></polygon>
                    <polygon id="Fill-25" fill="#E6923A" mask="url(#mask-6)" points="153.443182 202.272727 156.852273 202.272727 156.852273 198.863636 153.443182 198.863636"></polygon>
                    <polygon id="Fill-26" fill="#E6923A" mask="url(#mask-6)" points="225.034091 226.136364 228.443182 226.136364 228.443182 204.545455 225.034091 204.545455"></polygon>
                    <polygon id="Fill-27" fill="#E6923A" mask="url(#mask-6)" points="225.034091 202.272727 228.443182 202.272727 228.443182 198.863636 225.034091 198.863636"></polygon>
                    <path d="M186.182416,208.429981 L183.151316,210.055611 C182.885766,209.412638 182.493421,208.886128 181.976675,208.480934 C181.457536,208.07574 180.866627,207.87193 180.199163,207.87193 C179.481459,207.87193 178.871411,208.080592 178.369019,208.495492 C177.869019,208.910391 177.617823,209.512117 177.617823,210.307948 C177.617823,211.018857 177.854665,211.562351 178.321172,211.933577 C178.787679,212.307229 179.70634,212.787639 181.074761,213.382086 C183.744617,214.49819 185.514952,215.607015 186.380981,216.708561 C187.151316,217.654823 187.534091,218.814601 187.534091,220.187894 C187.534091,222.386133 186.840311,224.120947 185.455144,225.377777 C184.069976,226.63946 182.31878,227.272727 180.199163,227.272727 C179.897727,227.272727 179.579545,227.253317 179.24701,227.221775 C178.912081,227.18538 178.409689,227.068917 177.730263,226.865107 C177.058014,226.661296 176.436005,226.38227 175.878589,226.025602 C175.31878,225.671361 174.742225,225.120588 174.153708,224.37571 C173.558014,223.633258 173.096292,222.752506 172.761364,221.735881 L175.940789,220.389278 C176.058014,220.745946 176.215909,221.097761 176.416866,221.444724 C176.617823,221.791686 176.888158,222.167765 177.230263,222.572959 C177.572368,222.98058 178.007775,223.310558 178.531699,223.562895 C179.060407,223.817658 179.629785,223.946252 180.249402,223.946252 C181.366627,223.946252 182.225478,223.594437 182.828349,222.88838 C183.428828,222.189602 183.727871,221.388919 183.727871,220.491183 C183.727871,220.001068 183.653708,219.576463 183.50299,219.222221 C183.352273,218.865553 183.0939,218.54528 182.727871,218.256549 C182.35945,217.970244 182.019737,217.747023 181.713517,217.58446 C181.402512,217.424323 180.933612,217.198676 180.299641,216.912371 C178.861842,216.266972 177.754187,215.716199 176.967105,215.260052 C176.184809,214.803905 175.567584,214.29438 175.115431,213.738754 C174.464713,212.925939 174.139354,211.868067 174.139354,210.56271 C174.139354,208.701729 174.715909,207.233809 175.866627,206.158953 C177.017344,205.084096 178.51256,204.545455 180.34988,204.545455 C183.036483,204.545455 184.981459,205.841106 186.182416,208.429981" id="Fill-28" fill="#E6923A" mask="url(#mask-6)"></path>
                    <polygon id="Fill-29" fill="#E6923A" mask="url(#mask-6)" points="209.125 207.896136 205.919865 207.896136 205.919865 226.136364 202.217587 226.136364 202.217587 207.896136 198.897727 207.896136 198.897727 204.545455 209.125 204.545455"></polygon>
                    <polygon id="Fill-30" fill="#E6923A" mask="url(#mask-6)" points="61.7787289 222.463182 61.7787289 204.545455 57.9886364 204.545455 57.9886364 226.136364 57.9886364 226.136364 65.9431818 226.136364 65.9431818 222.463182"></polygon>
                    <path d="M261.246771,206.627231 L261.246771,211.096499 C260.360204,209.963411 259.308304,209.140891 258.088675,208.633792 C256.866649,208.126692 255.697339,207.87193 254.575951,207.87193 C252.469755,207.87193 250.68464,208.587692 249.223002,210.019216 C247.758968,211.448315 247.028149,213.416054 247.028149,215.922436 C247.028149,218.409406 247.768552,220.369867 249.246963,221.801392 C250.72777,223.23049 252.486528,223.946252 254.525633,223.946252 C255.711716,223.946252 256.924157,223.662374 258.162955,223.094616 C259.399357,222.529286 260.477614,221.67765 261.397727,220.542135 L261.397727,225.038093 C259.406545,226.527849 257.151789,227.272727 254.62627,227.272727 C251.314821,227.272727 248.585632,226.202723 246.436305,224.057863 C244.289374,221.920281 243.215909,219.222221 243.215909,215.973388 C243.215909,212.671176 244.294167,209.939148 246.450682,207.784582 C248.609593,205.622737 251.33399,204.545455 254.62627,204.545455 C257.10147,204.545455 259.308304,205.23938 261.246771,206.627231" id="Fill-31" fill="#E6923A" mask="url(#mask-6)"></path>
                    <path d="M289.591507,208.429981 L286.560407,210.055611 C286.294856,209.412638 285.902512,208.886128 285.385766,208.480934 C284.866627,208.07574 284.275718,207.87193 283.608254,207.87193 C282.89055,207.87193 282.280502,208.080592 281.780502,208.495492 C281.27811,208.910391 281.029306,209.512117 281.029306,210.307948 C281.029306,211.018857 281.263756,211.562351 281.730263,211.933577 C282.19677,212.307229 283.115431,212.787639 284.483852,213.382086 C287.153708,214.49819 288.924043,215.607015 289.790072,216.708561 C290.560407,217.654823 290.943182,218.814601 290.943182,220.187894 C290.943182,222.386133 290.249402,224.120947 288.864234,225.377777 C287.479067,226.63946 285.727871,227.272727 283.608254,227.272727 C283.306818,227.272727 282.991029,227.253317 282.6561,227.221775 C282.321172,227.18538 281.81878,227.068917 281.139354,226.865107 C280.467105,226.661296 279.845096,226.38227 279.287679,226.025602 C278.727871,225.671361 278.151316,225.120588 277.562799,224.37571 C276.967105,223.633258 276.505383,222.752506 276.170455,221.735881 L279.352273,220.389278 C279.469498,220.745946 279.625,221.097761 279.825957,221.444724 C280.026914,221.791686 280.297249,222.167765 280.639354,222.572959 C280.981459,222.98058 281.416866,223.310558 281.940789,223.562895 C282.469498,223.817658 283.038876,223.946252 283.658493,223.946252 C284.775718,223.946252 285.634569,223.594437 286.23744,222.88838 C286.837919,222.189602 287.136962,221.388919 287.136962,220.491183 C287.136962,220.001068 287.062799,219.576463 286.912081,219.222221 C286.761364,218.865553 286.50299,218.54528 286.136962,218.256549 C285.768541,217.970244 285.428828,217.747023 285.122608,217.58446 C284.811603,217.424323 284.342703,217.198676 283.708732,216.912371 C282.270933,216.266972 281.163278,215.716199 280.376196,215.260052 C279.5939,214.803905 278.976675,214.29438 278.524522,213.738754 C277.873804,212.925939 277.548445,211.868067 277.548445,210.56271 C277.548445,208.701729 278.125,207.233809 279.275718,206.158953 C280.426435,205.084096 281.921651,204.545455 283.758971,204.545455 C286.445574,204.545455 288.39055,205.841106 289.591507,208.429981" id="Fill-32" fill="#E6923A" mask="url(#mask-6)"></path>
                </g>
            </g>
        </g>
    </g>
</svg>