<?xml version="1.0" encoding="UTF-8"?>
<svg width="122px" height="55px" viewBox="0 0 122 55" version="1.1" xmlns="http://www.w3.org/2000/svg" xmlns:xlink="http://www.w3.org/1999/xlink">
    <title>ABCDEFGHIJKLMNOPQRSTUVWXYZ</title>
    <g id="Кейс" stroke="none" stroke-width="1" fill="none" fill-rule="evenodd">
        <g id="Pride-XL" transform="translate(-225.000000, -3719.000000)" fill="#000000" fill-rule="nonzero">
            <g id="Group-13" transform="translate(165.000000, 3457.000000)">
                <g id="Group-42" transform="translate(0.000000, 176.000000)">
                    <g id="Group-11-Copy" transform="translate(60.000000, 40.000000)">
                        <path d="M0.830078125,56 L2.33398438,52.8261719 L6.41601563,52.8261719 L7.87109375,56 L9.50195312,56 L5.01953125,46.2636719 L4.61914062,46.2636719 L0.029296875,56 L0.830078125,56 Z M6.12304688,52.2109375 L2.6171875,52.2109375 L4.39453125,48.4414062 L6.12304688,52.2109375 Z M19.2675781,56 C19.7753906,56 20.234375,55.9332682 20.6445312,55.7998047 C21.0546875,55.6663411 21.4046224,55.4840495 21.6943359,55.2529297 C21.9840495,55.0218099 22.2070312,54.75 22.3632812,54.4375 C22.5195312,54.125 22.5976562,53.7864583 22.5976562,53.421875 C22.5976562,53.1028646 22.5455729,52.8115234 22.4414062,52.5478516 C22.3372396,52.2841797 22.1875,52.0530599 21.9921875,51.8544922 C21.796875,51.6559245 21.5625,51.4915365 21.2890625,51.3613281 C21.015625,51.2311198 20.7096354,51.139974 20.3710938,51.0878906 L20.3710938,51.0878906 L20.3710938,51.0585938 C20.7096354,50.8958333 20.9912109,50.7363281 21.2158203,50.5800781 C21.4404297,50.4238281 21.6178385,50.2578125 21.7480469,50.0820312 C21.8782552,49.90625 21.9710286,49.7158203 22.0263672,49.5107422 C22.0817057,49.3056641 22.109375,49.0729167 22.109375,48.8125 C22.109375,48.4674479 22.0247396,48.1516927 21.8554688,47.8652344 C21.6861979,47.578776 21.4501953,47.3330078 21.1474609,47.1279297 C20.8447266,46.9228516 20.4817708,46.7633464 20.0585938,46.6494141 C19.6354167,46.5354818 19.1699219,46.4785156 18.6621094,46.4785156 L18.6621094,46.4785156 L14.8242188,46.4785156 L14.8242188,56 L19.2675781,56 Z M18.4667969,50.765625 L16.4257812,50.765625 L16.4257812,47.1132812 L17.7441406,47.1132812 C18.219401,47.1132812 18.6295573,47.1572266 18.9746094,47.2451172 C19.3196615,47.3330078 19.6044922,47.4567057 19.8291016,47.6162109 C20.0537109,47.7757161 20.218099,47.969401 20.3222656,48.1972656 C20.4264323,48.4251302 20.4785156,48.6790365 20.4785156,48.9589844 C20.4785156,49.219401 20.4329427,49.4602865 20.3417969,49.6816406 C20.250651,49.9029948 20.1204427,50.0934245 19.9511719,50.2529297 C19.781901,50.4124349 19.5719401,50.5377604 19.3212891,50.6289062 C19.070638,50.7200521 18.7858073,50.765625 18.4667969,50.765625 L18.4667969,50.765625 Z M18.1542969,55.3066406 L16.4257812,55.3066406 L16.4257812,51.3515625 L18.1054688,51.3515625 C18.6197917,51.3515625 19.0527344,51.406901 19.4042969,51.5175781 C19.7558594,51.6282552 20.0406901,51.7779948 20.2587891,51.9667969 C20.476888,52.155599 20.633138,52.3802083 20.7275391,52.640625 C20.8219401,52.9010417 20.8691406,53.1809896 20.8691406,53.4804688 C20.8691406,53.7473958 20.8154297,53.9931641 20.7080078,54.2177734 C20.6005859,54.4423828 20.4345703,54.6360677 20.2099609,54.7988281 C19.9853516,54.9615885 19.703776,55.0869141 19.3652344,55.1748047 C19.0266927,55.2626953 18.6230469,55.3066406 18.1542969,55.3066406 L18.1542969,55.3066406 Z M33.0761719,56.2246094 C33.6230469,56.2246094 34.1178385,56.15625 34.5605469,56.0195312 C35.0032552,55.8828125 35.4003906,55.7021484 35.7519531,55.4775391 C36.1035156,55.2529297 36.4127604,54.992513 36.6796875,54.6962891 C36.9466146,54.4000651 37.1777344,54.0924479 37.3730469,53.7734375 L37.3730469,53.7734375 L36.6992188,53.34375 C36.5625,53.6106771 36.389974,53.874349 36.1816406,54.1347656 C35.9733073,54.3951823 35.7356771,54.6295573 35.46875,54.8378906 C35.2018229,55.046224 34.9121094,55.2154948 34.5996094,55.3457031 C34.2871094,55.4759115 33.9648438,55.5410156 33.6328125,55.5410156 C33.0729167,55.5410156 32.5537109,55.4433594 32.0751953,55.2480469 C31.5966797,55.0527344 31.1816406,54.7727865 30.8300781,54.4082031 C30.4785156,54.0436198 30.2018229,53.5960286 30,53.0654297 C29.7981771,52.5348307 29.6972656,51.9375 29.6972656,51.2734375 C29.6972656,50.6028646 29.7998047,50.000651 30.0048828,49.4667969 C30.2099609,48.9329427 30.4899089,48.4788411 30.8447266,48.1044922 C31.1995443,47.7301432 31.6178385,47.4436849 32.0996094,47.2451172 C32.5813802,47.0465495 33.0957031,46.9472656 33.6425781,46.9472656 C34.2871094,46.9472656 34.8535156,47.1246745 35.3417969,47.4794922 C35.8300781,47.8343099 36.2760417,48.3990885 36.6796875,49.1738281 L36.6796875,49.1738281 L37.3730469,48.7148438 C37.1777344,48.3958333 36.9417318,48.0882161 36.6650391,47.7919922 C36.3883464,47.4957682 36.0742188,47.2353516 35.7226562,47.0107422 C35.3710938,46.7861328 34.9820964,46.6054688 34.5556641,46.46875 C34.1292318,46.3320312 33.6621094,46.2636719 33.1542969,46.2636719 C32.360026,46.2636719 31.6357422,46.398763 30.9814453,46.6689453 C30.3271484,46.9391276 29.765625,47.3037109 29.296875,47.7626953 C28.828125,48.2216797 28.4651693,48.7539062 28.2080078,49.359375 C27.9508464,49.9648438 27.8222656,50.6028646 27.8222656,51.2734375 C27.8222656,51.9440104 27.9475911,52.578776 28.1982422,53.1777344 C28.4488932,53.7766927 28.8037109,54.3024089 29.2626953,54.7548828 C29.7216797,55.2073568 30.2750651,55.5654297 30.9228516,55.8291016 C31.570638,56.0927734 32.2884115,56.2246094 33.0761719,56.2246094 Z M47.0019531,56 C47.8873698,56 48.6735026,55.8730469 49.3603516,55.6191406 C50.0472005,55.3652344 50.625,55.0185547 51.09375,54.5791016 C51.5625,54.1396484 51.9173177,53.6269531 52.1582031,53.0410156 C52.3990885,52.4550781 52.5195312,51.8268229 52.5195312,51.15625 C52.5195312,50.4466146 52.3844401,49.7955729 52.1142578,49.203125 C51.8440755,48.6106771 51.4388021,48.0865885 50.8984375,47.6308594 C50.4296875,47.2272135 49.84375,46.9342448 49.140625,46.7519531 C48.4375,46.5696615 47.5976562,46.4785156 46.6210938,46.4785156 L46.6210938,46.4785156 L43.4472656,46.4785156 L43.4472656,56 L47.0019531,56 Z M46.7480469,55.3066406 L45.0488281,55.3066406 L45.0488281,47.1816406 L46.7578125,47.1816406 C47.3242188,47.1816406 47.8450521,47.2809245 48.3203125,47.4794922 C48.7955729,47.6780599 49.2057292,47.953125 49.5507812,48.3046875 C49.8958333,48.65625 50.164388,49.0777995 50.3564453,49.5693359 C50.5485026,50.0608724 50.6445312,50.5996094 50.6445312,51.1855469 C50.6445312,51.8561198 50.5419922,52.4469401 50.3369141,52.9580078 C50.1318359,53.4690755 49.8535156,53.898763 49.5019531,54.2470703 C49.1503906,54.5953776 48.7386068,54.8590495 48.2666016,55.0380859 C47.7945964,55.2171224 47.2884115,55.3066406 46.7480469,55.3066406 L46.7480469,55.3066406 Z M65.2246094,56 L65.2246094,55.3847656 L60.2050781,55.3847656 L60.2050781,51.1171875 L63.5644531,51.1171875 L63.5644531,50.5019531 L60.2050781,50.5019531 L60.2050781,47.09375 L65.2246094,47.09375 L65.2246094,46.4785156 L58.6035156,46.4785156 L58.6035156,56 L65.2246094,56 Z M72.7050781,56 L72.7050781,51.1171875 L76.0644531,51.1171875 L76.0644531,50.5019531 L72.7050781,50.5019531 L72.7050781,47.09375 L77.3535156,47.09375 L77.3535156,46.4785156 L71.1035156,46.4785156 L71.1035156,56 L72.7050781,56 Z M87.7636719,56.2246094 C88.2584635,56.2246094 88.7027995,56.2050781 89.0966797,56.1660156 C89.4905599,56.1269531 89.8502604,56.0683594 90.1757812,55.9902344 C90.5013021,55.9121094 90.8056641,55.8160807 91.0888672,55.7021484 C91.3720703,55.5882161 91.6536458,55.4563802 91.9335938,55.3066406 L91.9335938,55.3066406 L91.9335938,51.1171875 L88.5351562,51.1171875 L88.5351562,51.6835938 L90.3320312,51.6835938 L90.3320312,55.0234375 C90.0651042,55.2317708 89.7639974,55.3929036 89.4287109,55.5068359 C89.0934245,55.6207682 88.7174479,55.6777344 88.3007812,55.6777344 C87.7213542,55.6777344 87.1809896,55.5751953 86.6796875,55.3701172 C86.1783854,55.1650391 85.7421875,54.8736979 85.3710938,54.4960938 C85,54.1184896 84.7086589,53.6611328 84.4970703,53.1240234 C84.2854818,52.5869141 84.1796875,51.9830729 84.1796875,51.3125 C84.1796875,50.6419271 84.2773438,50.0380859 84.4726562,49.5009766 C84.6679688,48.9638672 84.9414062,48.5065104 85.2929688,48.1289062 C85.6445312,47.7513021 86.0628255,47.4599609 86.5478516,47.2548828 C87.0328776,47.0498047 87.5651042,46.9472656 88.1445312,46.9472656 C88.7825521,46.9472656 89.3457031,47.1246745 89.8339844,47.4794922 C90.3222656,47.8343099 90.7682292,48.3990885 91.171875,49.1738281 L91.171875,49.1738281 L91.8652344,48.7148438 C91.6699219,48.3958333 91.4355469,48.0882161 91.1621094,47.7919922 C90.8886719,47.4957682 90.5761719,47.2353516 90.2246094,47.0107422 C89.8730469,46.7861328 89.4824219,46.6054688 89.0527344,46.46875 C88.6230469,46.3320312 88.1575521,46.2636719 87.65625,46.2636719 C86.8619792,46.2636719 86.1376953,46.4003906 85.4833984,46.6738281 C84.8291016,46.9472656 84.2659505,47.3167318 83.7939453,47.7822266 C83.3219401,48.2477214 82.9557292,48.7848307 82.6953125,49.3935547 C82.4348958,50.0022786 82.3046875,50.6419271 82.3046875,51.3125 C82.3046875,51.9830729 82.4414062,52.6162109 82.7148438,53.2119141 C82.9882812,53.8076172 83.367513,54.3284505 83.8525391,54.7744141 C84.3375651,55.2203776 84.913737,55.5735677 85.5810547,55.8339844 C86.2483724,56.094401 86.9759115,56.2246094 87.7636719,56.2246094 Z M99.8535156,56 L99.8535156,51.4296875 L104.638672,51.4296875 L104.638672,56 L106.240234,56 L106.240234,46.4785156 L104.638672,46.4785156 L104.638672,50.8144531 L99.8535156,50.8144531 L99.8535156,46.4785156 L98.2519531,46.4785156 L98.2519531,56 L99.8535156,56 Z M114.335938,56 L114.335938,46.4785156 L112.734375,46.4785156 L112.734375,56 L114.335938,56 Z M2.78320312,78.0976562 C3.36914062,78.0976562 3.83951823,78.0146484 4.19433594,77.8486328 C4.54915365,77.6826172 4.82259115,77.4661458 5.01464844,77.1992188 C5.20670573,76.9322917 5.33365885,76.6311849 5.39550781,76.2958984 C5.45735677,75.960612 5.48828125,75.6204427 5.48828125,75.2753906 L5.48828125,75.2753906 L5.48828125,68.4785156 L3.88671875,68.4785156 L3.88671875,76.28125 C3.88671875,76.6523438 3.77441406,76.9485677 3.54980469,77.1699219 C3.32519531,77.391276 3.00455729,77.5019531 2.58789062,77.5019531 C2.39908854,77.5019531 2.20865885,77.4596354 2.01660156,77.375 C1.82454427,77.2903646 1.6422526,77.1878255 1.46972656,77.0673828 C1.29720052,76.9469401 1.13606771,76.8232422 0.986328125,76.6962891 C0.836588542,76.5693359 0.709635417,76.4635417 0.60546875,76.3789062 L0.60546875,76.3789062 L0.09765625,77.0527344 C0.247395833,77.1829427 0.41015625,77.3098958 0.5859375,77.4335938 C0.76171875,77.5572917 0.95703125,77.6679688 1.171875,77.765625 C1.38671875,77.8632812 1.62597656,77.9430339 1.88964844,78.0048828 C2.15332031,78.0667318 2.45117188,78.0976562 2.78320312,78.0976562 Z M13.5839844,78 L13.5839844,73.1660156 L18.8769531,78 L20.9179688,78 L14.8828125,72.4824219 L19.6386719,68.4785156 L18.59375,68.4785156 L13.5839844,72.6972656 L13.5839844,68.4785156 L11.9824219,68.4785156 L11.9824219,78 L13.5839844,78 Z M32.6367188,78 L32.6367188,77.3847656 L27.8417969,77.3847656 L27.8417969,68.4785156 L26.2402344,68.4785156 L26.2402344,78 L32.6367188,78 Z M38.7792969,78 L38.7792969,70.2558594 L38.8867188,70.2558594 L42.8320312,78 L43.1640625,78 L47.0703125,70.1972656 L47.1191406,70.1972656 L47.1191406,78 L48.7304688,78 L48.7304688,68.4785156 L47.1191406,68.4785156 L43.4863281,75.7832031 L43.4082031,75.7832031 L39.7070312,68.4785156 L38.0664062,68.4785156 L38.0664062,78 L38.7792969,78 Z M63.125,78.2246094 L63.125,68.4785156 L62.421875,68.4785156 L62.421875,75.4414062 L62.3535156,75.4414062 L56.1132812,68.4785156 L55.2148438,68.4785156 L55.2148438,78 L55.9375,78 L55.9375,70.4804688 L55.9960938,70.4804688 L62.7539062,78.2246094 L63.125,78.2246094 Z M74.453125,78.2246094 C75.1888021,78.2246094 75.8772786,78.0927734 76.5185547,77.8291016 C77.1598307,77.5654297 77.7164714,77.2041016 78.1884766,76.7451172 C78.6604818,76.2861328 79.0315755,75.7522786 79.3017578,75.1435547 C79.5719401,74.5348307 79.7070312,73.8821615 79.7070312,73.1855469 C79.7070312,72.5019531 79.5719401,71.8606771 79.3017578,71.2617188 C79.0315755,70.6627604 78.6604818,70.1419271 78.1884766,69.6992188 C77.7164714,69.2565104 77.1598307,68.9065755 76.5185547,68.6494141 C75.8772786,68.3922526 75.1888021,68.2636719 74.453125,68.2636719 C73.7174479,68.2636719 73.0289714,68.3922526 72.3876953,68.6494141 C71.7464193,68.9065755 71.1897786,69.2565104 70.7177734,69.6992188 C70.2457682,70.1419271 69.8746745,70.6627604 69.6044922,71.2617188 C69.3343099,71.8606771 69.1992188,72.5019531 69.1992188,73.1855469 C69.1992188,73.8821615 69.3343099,74.5348307 69.6044922,75.1435547 C69.8746745,75.7522786 70.2457682,76.2861328 70.7177734,76.7451172 C71.1897786,77.2041016 71.7464193,77.5654297 72.3876953,77.8291016 C73.0289714,78.0927734 73.7174479,78.2246094 74.453125,78.2246094 Z M74.453125,77.7460938 C73.8997396,77.7460938 73.4114583,77.6321615 72.9882812,77.4042969 C72.5651042,77.1764323 72.2119141,76.8606771 71.9287109,76.4570312 C71.6455078,76.0533854 71.4322917,75.5716146 71.2890625,75.0117188 C71.1458333,74.4518229 71.0742188,73.843099 71.0742188,73.1855469 C71.0742188,72.5345052 71.1458333,71.9355469 71.2890625,71.3886719 C71.4322917,70.8417969 71.6455078,70.3714193 71.9287109,69.9775391 C72.2119141,69.5836589 72.5651042,69.2776693 72.9882812,69.0595703 C73.4114583,68.8414714 73.8997396,68.7324219 74.453125,68.7324219 C75,68.7324219 75.4817708,68.8414714 75.8984375,69.0595703 C76.3151042,69.2776693 76.6666667,69.5836589 76.953125,69.9775391 C77.2395833,70.3714193 77.4560547,70.8417969 77.6025391,71.3886719 C77.7490234,71.9355469 77.8222656,72.5345052 77.8222656,73.1855469 C77.8222656,73.843099 77.7490234,74.4518229 77.6025391,75.0117188 C77.4560547,75.5716146 77.2395833,76.0533854 76.953125,76.4570312 C76.6666667,76.8606771 76.3151042,77.1764323 75.8984375,77.4042969 C75.4817708,77.6321615 75,77.7460938 74.453125,77.7460938 Z M87.3828125,78 L87.3828125,73.5957031 C87.4739583,73.6152344 87.5911458,73.6347656 87.734375,73.6542969 C87.8776042,73.6738281 88.0338542,73.6901042 88.203125,73.703125 C88.3723958,73.7161458 88.5465495,73.7275391 88.7255859,73.7373047 C88.9046224,73.7470703 89.078776,73.7519531 89.2480469,73.7519531 C89.6386719,73.7519531 90.0211589,73.6998698 90.3955078,73.5957031 C90.7698568,73.4915365 91.1035156,73.3352865 91.3964844,73.1269531 C91.6894531,72.9186198 91.9254557,72.6533203 92.1044922,72.3310547 C92.2835286,72.0087891 92.3730469,71.6328125 92.3730469,71.203125 C92.3730469,70.7669271 92.2802734,70.3795573 92.0947266,70.0410156 C91.9091797,69.702474 91.6552734,69.4176432 91.3330078,69.1865234 C91.0107422,68.9554036 90.6315104,68.7796224 90.1953125,68.6591797 C89.7591146,68.538737 89.2936198,68.4785156 88.7988281,68.4785156 L88.7988281,68.4785156 L85.78125,68.4785156 L85.78125,78 L87.3828125,78 Z M88.59375,73.2734375 C88.3854167,73.2734375 88.1770833,73.250651 87.96875,73.2050781 C87.7604167,73.1595052 87.5651042,73.1106771 87.3828125,73.0585938 L87.3828125,73.0585938 L87.3828125,69.1816406 L88.515625,69.1816406 C88.8151042,69.1816406 89.0950521,69.2320964 89.3554688,69.3330078 C89.6158854,69.4339193 89.8421224,69.5755208 90.0341797,69.7578125 C90.226237,69.9401042 90.3776042,70.1614583 90.4882812,70.421875 C90.5989583,70.6822917 90.6542969,70.9720052 90.6542969,71.2910156 C90.6542969,71.5644531 90.6119792,71.8216146 90.5273438,72.0625 C90.4427083,72.3033854 90.3141276,72.5133464 90.1416016,72.6923828 C89.9690755,72.8714193 89.7542318,73.0130208 89.4970703,73.1171875 C89.2399089,73.2213542 88.9388021,73.2734375 88.59375,73.2734375 Z M107.783203,80.9785156 L107.783203,80.7246094 C107.320964,80.7246094 106.879883,80.6464844 106.459961,80.4902344 C106.040039,80.3339844 105.657552,80.1305339 105.3125,79.8798828 C104.967448,79.6292318 104.672852,79.3460286 104.428711,79.0302734 C104.18457,78.7145182 104.010417,78.3971354 103.90625,78.078125 C104.479167,77.9609375 105.00651,77.7428385 105.488281,77.4238281 C105.970052,77.1048177 106.385091,76.7239583 106.733398,76.28125 C107.081706,75.8385417 107.353516,75.3486328 107.548828,74.8115234 C107.744141,74.2744141 107.841797,73.7324219 107.841797,73.1855469 C107.841797,72.5084635 107.709961,71.8704427 107.446289,71.2714844 C107.182617,70.672526 106.818034,70.1500651 106.352539,69.7041016 C105.887044,69.258138 105.338542,68.9065755 104.707031,68.6494141 C104.075521,68.3922526 103.391927,68.2636719 102.65625,68.2636719 C101.914062,68.2636719 101.227214,68.3922526 100.595703,68.6494141 C99.9641927,68.9065755 99.4156901,69.258138 98.9501953,69.7041016 C98.4847005,70.1500651 98.1201172,70.672526 97.8564453,71.2714844 C97.5927734,71.8704427 97.4609375,72.5084635 97.4609375,73.1855469 C97.4609375,73.7063802 97.5520833,74.2272135 97.734375,74.7480469 C97.9166667,75.2688802 98.1705729,75.7490234 98.4960938,76.1884766 C98.8216146,76.6279297 99.210612,77.0104167 99.6630859,77.3359375 C100.11556,77.6614583 100.611979,77.8925781 101.152344,78.0292969 C101.328125,78.2376302 101.549479,78.4557292 101.816406,78.6835938 C102.083333,78.9114583 102.38444,79.1344401 102.719727,79.3525391 C103.055013,79.570638 103.419596,79.7789714 103.813477,79.9775391 C104.207357,80.1761068 104.620768,80.3486328 105.053711,80.4951172 C105.486654,80.6416016 105.932617,80.7587891 106.391602,80.8466797 C106.850586,80.9345703 107.314453,80.9785156 107.783203,80.9785156 L107.783203,80.9785156 Z M102.65625,77.7460938 C102.096354,77.7460938 101.606445,77.6321615 101.186523,77.4042969 C100.766602,77.1764323 100.415039,76.8606771 100.131836,76.4570312 C99.8486328,76.0533854 99.6354167,75.5716146 99.4921875,75.0117188 C99.3489583,74.4518229 99.2773438,73.843099 99.2773438,73.1855469 C99.2773438,72.5345052 99.3489583,71.9355469 99.4921875,71.3886719 C99.6354167,70.8417969 99.8486328,70.3714193 100.131836,69.9775391 C100.415039,69.5836589 100.766602,69.2776693 101.186523,69.0595703 C101.606445,68.8414714 102.096354,68.7324219 102.65625,68.7324219 C103.196615,68.7324219 103.676758,68.8414714 104.09668,69.0595703 C104.516602,69.2776693 104.869792,69.5836589 105.15625,69.9775391 C105.442708,70.3714193 105.65918,70.8417969 105.805664,71.3886719 C105.952148,71.9355469 106.025391,72.5345052 106.025391,73.1855469 C106.025391,73.843099 105.950521,74.4404297 105.800781,74.9775391 C105.651042,75.5146484 105.432943,75.9785156 105.146484,76.3691406 C104.860026,76.7597656 104.506836,77.0722656 104.086914,77.3066406 C103.666992,77.5410156 103.190104,77.6875 102.65625,77.7460938 Z M115.527344,78 L115.527344,73.5273438 L116.650391,73.5273438 L119.960938,78 L121.816406,78 L118.349609,73.3808594 C118.694661,73.296224 119.010417,73.1790365 119.296875,73.0292969 C119.583333,72.8795573 119.829102,72.7005208 120.03418,72.4921875 C120.239258,72.2838542 120.397135,72.0511068 120.507812,71.7939453 C120.61849,71.5367839 120.673828,71.2584635 120.673828,70.9589844 C120.673828,70.6009115 120.600586,70.2688802 120.454102,69.9628906 C120.307617,69.656901 120.091146,69.3948568 119.804688,69.1767578 C119.518229,68.9586589 119.160156,68.7877604 118.730469,68.6640625 C118.300781,68.5403646 117.799479,68.4785156 117.226562,68.4785156 L117.226562,68.4785156 L113.925781,68.4785156 L113.925781,78 L115.527344,78 Z M116.455078,73.0488281 L115.527344,73.0488281 L115.527344,69.0742188 L116.933594,69.0742188 C117.226562,69.0742188 117.496745,69.1214193 117.744141,69.2158203 C117.991536,69.3102214 118.204753,69.4436849 118.383789,69.6162109 C118.562826,69.788737 118.701172,69.9938151 118.798828,70.2314453 C118.896484,70.4690755 118.945312,70.7311198 118.945312,71.0175781 C118.945312,71.3300781 118.883464,71.6116536 118.759766,71.8623047 C118.636068,72.1129557 118.463542,72.3261719 118.242188,72.5019531 C118.020833,72.6777344 117.757161,72.8128255 117.451172,72.9072266 C117.145182,73.0016276 116.813151,73.0488281 116.455078,73.0488281 L116.455078,73.0488281 Z M3.68164062,100.224609 C4.24804688,100.224609 4.74446615,100.152995 5.17089844,100.009766 C5.59733073,99.8665365 5.95377604,99.671224 6.24023438,99.4238281 C6.52669271,99.1764323 6.74153646,98.8867188 6.88476562,98.5546875 C7.02799479,98.2226562 7.09960938,97.8678385 7.09960938,97.4902344 C7.09960938,97.1582031 7.02311198,96.8554688 6.87011719,96.5820312 C6.7171224,96.3085938 6.51367188,96.0595703 6.25976562,95.8349609 C6.00585938,95.6103516 5.71777344,95.4003906 5.39550781,95.2050781 C5.07324219,95.0097656 4.74446615,94.8242188 4.40917969,94.6484375 C4.07389323,94.4726562 3.74511719,94.2985026 3.42285156,94.1259766 C3.10058594,93.9534505 2.8125,93.7744141 2.55859375,93.5888672 C2.3046875,93.4033203 2.10123698,93.2063802 1.94824219,92.9980469 C1.7952474,92.7897135 1.71875,92.561849 1.71875,92.3144531 C1.71875,92.1386719 1.7561849,91.9645182 1.83105469,91.7919922 C1.90592448,91.6194661 2.01822917,91.4664714 2.16796875,91.3330078 C2.31770833,91.1995443 2.50488281,91.0904948 2.72949219,91.0058594 C2.95410156,90.921224 3.21614583,90.8789062 3.515625,90.8789062 C4.19270833,90.8789062 4.73632812,91.0595703 5.14648438,91.4208984 C5.55664062,91.7822266 5.85611979,92.2558594 6.04492188,92.8417969 L6.04492188,92.8417969 L6.86523438,92.4707031 C6.63085938,91.7545573 6.25325521,91.2076823 5.73242188,90.8300781 C5.21158854,90.452474 4.49869792,90.2636719 3.59375,90.2636719 C3.09244792,90.2636719 2.64973958,90.328776 2.265625,90.4589844 C1.88151042,90.5891927 1.55761719,90.7682292 1.29394531,90.9960938 C1.03027344,91.2239583 0.830078125,91.492513 0.693359375,91.8017578 C0.556640625,92.1110026 0.48828125,92.4479167 0.48828125,92.8125 C0.48828125,93.1770833 0.563151042,93.499349 0.712890625,93.7792969 C0.862630208,94.0592448 1.05957031,94.313151 1.30371094,94.5410156 C1.54785156,94.7688802 1.82617188,94.9739583 2.13867188,95.15625 C2.45117188,95.3385417 2.7718099,95.5143229 3.10058594,95.6835938 C3.42936198,95.8528646 3.75,96.0205078 4.0625,96.1865234 C4.375,96.3525391 4.65332031,96.5315755 4.89746094,96.7236328 C5.14160156,96.9156901 5.33854167,97.1240234 5.48828125,97.3486328 C5.63802083,97.5732422 5.71289062,97.8320312 5.71289062,98.125 C5.71289062,98.3658854 5.65755208,98.5791016 5.546875,98.7646484 C5.43619792,98.9501953 5.29134115,99.1064453 5.11230469,99.2333984 C4.93326823,99.3603516 4.7281901,99.4563802 4.49707031,99.5214844 C4.26595052,99.5865885 4.03320312,99.6191406 3.79882812,99.6191406 C3.17382812,99.6191406 2.63020833,99.444987 2.16796875,99.0966797 C1.70572917,98.7483724 1.37369792,98.2617188 1.171875,97.6367188 L1.171875,97.6367188 L0.3125,97.9882812 C0.56640625,98.6914062 0.963541667,99.2399089 1.50390625,99.6337891 C2.04427083,100.027669 2.77018229,100.224609 3.68164062,100.224609 Z M17.1386719,100 L17.1386719,91.09375 L20.5859375,91.09375 L20.5859375,90.4785156 L12.0898438,90.4785156 L12.0898438,91.09375 L15.5371094,91.09375 L15.5371094,100 L17.1386719,100 Z M30.0390625,100.224609 C30.7747396,100.224609 31.40625,100.130208 31.9335938,99.9414062 C32.4609375,99.7526042 32.8922526,99.4954427 33.2275391,99.1699219 C33.5628255,98.844401 33.8102214,98.4667969 33.9697266,98.0371094 C34.1292318,97.6074219 34.2089844,97.1484375 34.2089844,96.6601562 L34.2089844,96.6601562 L34.2089844,90.4785156 L33.5058594,90.4785156 L33.5058594,96.6601562 C33.5058594,97.0638021 33.4375,97.4446615 33.3007812,97.8027344 C33.1640625,98.1608073 32.96875,98.4733073 32.7148438,98.7402344 C32.4609375,99.0071615 32.1516927,99.21875 31.7871094,99.375 C31.422526,99.53125 31.0123698,99.609375 30.5566406,99.609375 C30.1074219,99.609375 29.6988932,99.53125 29.3310547,99.375 C28.9632161,99.21875 28.6507161,99.0071615 28.3935547,98.7402344 C28.1363932,98.4733073 27.9378255,98.1608073 27.7978516,97.8027344 C27.6578776,97.4446615 27.5878906,97.0638021 27.5878906,96.6601562 L27.5878906,96.6601562 L27.5878906,90.4785156 L25.9863281,90.4785156 L25.9863281,96.6210938 C25.9863281,97.1158854 26.0742188,97.5813802 26.25,98.0175781 C26.4257812,98.453776 26.6845703,98.836263 27.0263672,99.1650391 C27.3681641,99.4938151 27.7913411,99.7526042 28.2958984,99.9414062 C28.8004557,100.130208 29.3815104,100.224609 30.0390625,100.224609 Z M44.4238281,100.224609 L48.75,90.4785156 L47.9882812,90.4785156 L44.6484375,98.0566406 L41.0546875,90.4785156 L39.3652344,90.4785156 L44.0136719,100.224609 L44.4238281,100.224609 Z M57.2070312,100.078125 L59.4628906,94.140625 L61.8164062,100.078125 L62.2949219,100.078125 L65.9570312,90.4785156 L65.1757812,90.4785156 L62.4023438,97.7441406 L59.8242188,91.1816406 L57.3242188,97.7148438 L54.4824219,90.4785156 L52.8808594,90.4785156 L56.6601562,100.078125 L57.2070312,100.078125 Z M70.9082031,100 L74.4726562,95.8300781 L77.6171875,100 L79.53125,100 L75.4785156,94.6582031 L79.0527344,90.4785156 L78.203125,90.4785156 L75.0878906,94.1308594 L72.3242188,90.4785156 L70.4199219,90.4785156 L74.0820312,95.3027344 L70.0683594,100 L70.9082031,100 Z M89.0820312,100 L89.0820312,95.8886719 L92.7734375,90.4785156 L91.9042969,90.4785156 L88.6132812,95.3027344 L85.3125,90.4785156 L83.671875,90.4785156 L87.4804688,96.0351562 L87.4804688,100 L89.0820312,100 Z M106.074219,100 L106.074219,99.3847656 L99.1894531,99.3847656 L106.074219,90.4785156 L97.03125,90.4785156 L97.03125,91.09375 L103.720703,91.09375 L97.03125,99.765625 L97.03125,100 L106.074219,100 Z" id="ABCDEFGHIJKLMNOPQRSTUVWXYZ"></path>
                    </g>
                </g>
            </g>
        </g>
    </g>
</svg>