<?xml version="1.0" encoding="UTF-8"?>
<svg width="330px" height="200px" viewBox="0 0 330 200" version="1.1" xmlns="http://www.w3.org/2000/svg" xmlns:xlink="http://www.w3.org/1999/xlink">
    <!-- Generator: Sketch 63.1 (92452) - https://sketch.com -->
    <title>Group 4</title>
    <desc>Created with Sketch.</desc>
    <g id="Кейс" stroke="none" stroke-width="1" fill="none" fill-rule="evenodd">
        <g id="Pride-XL" transform="translate(-220.000000, -2619.000000)" fill-rule="nonzero">
            <g id="Group-21" transform="translate(168.000000, 2619.000000)">
                <g id="Group-4" transform="translate(52.000000, 0.000000)">
                    <path d="M4.54747351e-13,199.18 L4.54747351e-13,179.904 L36.814,149.726 C44.0820363,143.72197 49.0853196,138.903018 51.824,135.269 C54.5626804,131.634982 55.932,127.606022 55.932,123.182 C55.932,118.652644 54.5626804,115.124013 51.824,112.596 C49.0853196,110.067987 45.5040221,108.804 41.08,108.804 C36.9719795,108.804 33.2590166,109.936322 29.941,112.201 C26.6229834,114.465678 22.8046883,118.283973 18.486,123.656 L1.422,109.91 C7.2153623,102.009961 13.1929692,96.2166851 19.355,92.53 C25.5170308,88.8433149 33.2852865,87 42.66,87 C54.1413907,87 63.3579652,90.1336353 70.31,96.401 C77.2620348,102.668365 80.738,111.015948 80.738,121.444 C80.738,127.44803 79.5793449,132.846309 77.262,137.639 C74.9446551,142.431691 71.9426851,146.644982 68.256,150.279 C64.5693149,153.913018 59.0393702,158.573972 51.666,164.262 L33.654,178.166 L81.844,178.166 L81.844,199.18 L4.54747351e-13,199.18 Z" id="2-copy" fill="#FBEED9"></path>
                    <g id="Ресурс-1-Copy" transform="translate(63.000000, 0.000000)">
                        <path d="M73.9214566,130 C73.1029088,130 72.6936348,129.583797 72.6936348,128.75139 L72.6936348,86.1945879 C72.6509937,85.8690982 72.7665701,85.5428538 73.0067064,85.3108618 C73.2468428,85.0788698 73.5845402,84.9672132 73.9214566,85.0084081 L92.1879986,85.0084081 C96.1535992,85.0048122 99.9376905,86.6136455 102.613714,89.4409748 C105.234272,92.1755272 106.688456,95.7657379 106.684919,99.4922878 C106.665581,103.197249 105.168883,106.752466 102.50601,109.41874 C99.7981936,112.222264 96.0062869,113.812711 92.0372135,113.809686 L81.8269058,113.809686 L81.8269058,128.75139 C81.8269058,129.583797 81.4176319,130 80.5775433,130 L73.9214566,130 Z M90.3354955,106.130733 C92.2187068,106.222275 94.0576968,105.559806 95.4191086,104.299438 C96.7107062,103.048121 97.4185605,101.342261 97.3793153,99.5755285 C97.3975007,97.7940843 96.6940234,96.076367 95.4191086,94.789189 C94.0987028,93.4415527 92.2561411,92.6872855 90.3354955,92.7081718 L81.7192021,92.7081718 L81.7192021,106.130733 L90.3354955,106.130733 Z" id="Shape" fill="#1C1C1C"></path>
                        <path d="M115.91744,129.990551 C115.574604,130.035076 115.23012,129.920584 114.989808,129.682245 C114.749496,129.443907 114.642091,129.110218 114.700586,128.783686 L114.700586,86.1896947 C114.667208,85.8701047 114.783827,85.5528327 115.018888,85.3237202 C115.25395,85.0946078 115.583157,84.9773375 115.91744,85.0036383 L136.038988,85.0036383 C140.120399,84.9990309 144.015833,86.6376152 146.773378,89.5189759 C149.43524,92.3218315 150.921157,95.9680154 150.945448,99.7565156 C150.94259,102.304301 150.189446,104.799666 148.772495,106.956086 C147.314681,109.164085 145.325107,111.005064 142.970709,112.324552 L151.662523,128.700454 C151.692401,128.837699 151.692401,128.97937 151.662523,129.116614 C151.675757,129.35575 151.58079,129.588757 151.401891,129.756085 C151.222992,129.923413 150.977498,130.008847 150.728153,129.990551 L142.601307,129.990551 C141.884232,129.990551 141.53656,129.761663 141.123699,128.929342 L133.583551,114.363737 L123.957367,114.363737 L123.957367,128.74207 C124.007868,129.070855 123.894613,129.403308 123.651361,129.64033 C123.40811,129.877352 123.062956,129.991569 122.718784,129.948935 L115.91744,129.990551 Z M133.844305,106.373462 C135.856106,106.417867 137.81143,105.734293 139.320147,104.459125 C140.710158,103.197767 141.497478,101.44464 141.497478,99.6108596 C141.497478,97.777079 140.710158,96.0239523 139.320147,94.7625938 C137.808091,93.4904692 135.856856,92.800909 133.844305,92.8274491 L123.957367,92.8274491 L123.957367,106.373462 L133.844305,106.373462 Z" id="Shape" fill="#1C1C1C"></path>
                        <path d="M160.766517,130 C160.020596,130 159.684932,129.583719 159.684932,128.751156 L159.684932,86.2488437 C159.684932,85.4162812 160.020596,85 160.766517,85 L166.640642,85 C167.330619,85 167.684932,85.4162812 167.684932,86.2488437 L167.684932,128.751156 C167.684932,129.583719 167.330619,130 166.640642,130 L160.766517,130 Z" id="Path" fill="#1C1C1C"></path>
                        <path d="M182.952176,129.988254 C182.605988,130.03817 182.255698,129.927214 182.008168,129.689237 C181.760639,129.451259 181.645229,129.114486 181.697148,128.781657 L181.697148,86.1970978 C181.652813,85.8675947 181.771588,85.537151 182.018069,85.3042674 C182.26455,85.0713838 182.61027,84.9629557 182.952176,85.011304 L198.099064,85.011304 C202.118598,85.0503893 206.060237,86.081945 209.545783,88.0069936 C213.055966,89.9724268 216.024219,92.7191237 218.201147,96.0163025 C220.465091,99.4518884 221.672784,103.432764 221.684932,107.499779 C221.684932,113.361487 219.246309,118.979688 214.912109,123.102329 C210.474602,127.343554 204.52646,129.80501 198.272171,129.988254 L182.952176,129.988254 Z M197.211889,121.812518 C201.245786,121.840885 205.130344,120.347022 208.031094,117.651838 C213.826465,112.03863 213.826465,102.981732 208.031094,97.3685235 C205.135509,94.665678 201.247543,93.1705052 197.211889,93.2078436 L191.001665,93.2078436 L191.001665,121.812518 L197.211889,121.812518 Z" id="Shape" fill="#1C1C1C"></path>
                        <path d="M231.932181,129.991223 C231.58908,130.03385 231.245,129.919652 231.002507,129.682671 C230.760013,129.44569 230.64711,129.113294 230.697454,128.784565 L230.697454,86.1978796 C230.645197,85.8705367 230.758352,85.5388567 231.002174,85.3046855 C231.245997,85.0705143 231.591346,84.9618379 231.932181,85.0120266 L262.757025,85.0120266 C263.6235,85.0120266 264.056737,85.407311 264.056737,86.1978796 L264.056737,92.0647313 C264.110223,92.4072685 263.989699,92.753692 263.732553,92.9965441 C263.475406,93.2393962 263.11273,93.3493108 262.757025,93.2921932 L239.90375,93.2921932 L239.90375,102.466951 L257.233247,102.466951 C258.164708,102.466951 258.641269,102.862235 258.641269,103.673608 L258.641269,109.436437 C258.641269,110.227006 258.164708,110.62229 257.233247,110.62229 L239.90375,110.62229 L239.90375,121.752665 L263.363557,121.752665 C264.251694,121.752665 264.684932,122.147949 264.684932,122.959322 L264.684932,128.784565 C264.684932,129.595938 264.251694,129.991223 263.363557,129.991223 L231.932181,129.991223 Z" id="Path" fill="#1C1C1C"></path>
                        <path d="M73.7849663,167.955219 C73.4879155,167.997622 73.1872515,167.904446 72.9726988,167.703498 C72.758146,167.50255 72.6545148,167.217067 72.6927309,166.932242 L72.6927309,147.069438 C72.6720184,146.777405 72.7859437,146.491321 73.0045519,146.286407 C73.22316,146.081494 73.5245762,145.978255 73.8295473,146.003837 L77.9532933,146.003837 C78.249074,145.990427 78.5364763,146.099929 78.741544,146.304164 C78.9466116,146.508399 79.0493195,146.787424 79.0232383,147.069438 L79.0232383,161.987853 L89.5889442,161.987853 C89.8927098,161.980783 90.1852925,162.097533 90.393677,162.308968 C90.6020614,162.520403 90.706591,162.806579 90.6811797,163.096078 L90.6811797,166.974866 C90.6945124,167.253659 90.5829347,167.52467 90.3744149,167.719968 C90.1658951,167.915266 89.8802007,168.016335 89.5889442,167.997843 L73.7849663,167.955219 Z" id="Path" fill="#EBAA43"></path>
                        <path d="M98.0461099,164.695455 C95.8956892,162.564404 94.6844526,159.650059 94.6849316,156.608156 C94.6849316,150.197148 99.8336033,145 106.184812,145 C112.53602,145 117.684691,150.197148 117.684691,156.608156 C117.70457,159.653966 116.490288,162.575638 114.323513,164.695455 C109.775596,169.101515 102.594027,169.101515 98.0461099,164.695455 L98.0461099,164.695455 Z M110.201314,160.747829 C111.243432,159.634233 111.82557,158.161369 111.829054,156.629494 C111.811063,155.100487 111.230953,153.632756 110.201314,152.51116 C109.169944,151.397141 107.727057,150.764779 106.216521,150.764779 C104.705985,150.764779 103.263098,151.397141 102.231728,152.51116 C101.209782,153.635963 100.637347,155.103334 100.625102,156.629494 C100.620752,158.158856 101.19548,159.632104 102.231728,160.747829 C103.26939,161.850391 104.709931,162.474655 106.216521,162.474655 C107.72311,162.474655 109.163652,161.850391 110.201314,160.747829 L110.201314,160.747829 Z" id="Shape" fill="#EBAA43"></path>
                        <path d="M131.741679,167.59106 L131.31658,167.59106 C129.141595,166.872213 127.235828,165.441516 125.871266,163.503154 C124.443474,161.529866 123.674301,159.107572 123.684932,156.61826 C123.696072,150.223306 128.559021,145.035451 134.575672,145 C136.840982,145.038039 139.045233,145.786541 140.911671,147.15153 L140.911671,147.15153 C141.437984,147.51729 141.660655,147.818504 141.660655,148.29184 C141.660256,148.474733 141.611127,148.653765 141.518955,148.808207 L139.859045,151.712772 C139.746589,151.986641 139.492416,152.163927 139.211275,152.164593 C138.953409,152.152359 138.705633,152.054543 138.502777,151.884895 C137.362361,151.036153 136.008225,150.571392 134.616158,150.550946 C133.168741,150.547756 131.789884,151.206071 130.830753,152.358231 C129.867083,153.555442 129.348689,155.085944 129.373271,156.66129 C129.337745,158.162282 129.836575,159.622216 130.770025,160.749196 C131.70599,161.874925 133.061381,162.504692 134.474458,162.47042 C135.360905,162.451604 136.237575,162.269616 137.065538,161.932538 L137.065538,158.44706 C137.053916,158.169559 137.152549,157.899641 137.33735,157.703224 C137.52215,157.506807 137.776104,157.401974 138.037192,157.414326 L141.620169,157.414326 C142.17523,157.401741 142.640263,157.857986 142.672795,158.44706 L142.672795,163.782853 C142.731231,164.312397 142.57689,164.843584 142.247696,165.245893 C141.551971,165.978172 140.706927,166.530322 139.778074,166.85954 C138.661019,167.342981 137.491288,167.675482 136.296311,167.849244 C135.727999,167.952722 135.152255,168.003117 134.575672,168 C133.618433,167.993172 132.665969,167.855784 131.741679,167.59106 L131.741679,167.59106 Z" id="Path" fill="#EBAA43"></path>
                        <path d="M152.747187,167.990207 C152.460389,168.032376 152.17054,167.936893 151.963545,167.732058 C151.75655,167.527223 151.656155,167.236535 151.692113,166.946145 L151.692113,147.087655 C151.673871,146.797941 151.778414,146.514049 151.979679,146.306755 C152.180945,146.099461 152.459969,145.988297 152.747187,146.000978 L156.566553,146.000978 C157.168104,146.000545 157.662232,146.480667 157.684932,147.087655 L157.684932,166.946145 C157.684932,167.627982 157.305105,167.990207 156.566553,167.990207 L152.747187,167.990207 Z" id="Path" fill="#EBAA43"></path>
                        <path d="M165.426302,164.721991 C165.12879,164.416836 164.887818,164.062119 164.714427,163.674094 C164.6751,163.526933 164.6751,163.372157 164.714427,163.224995 C164.705652,162.964683 164.826659,162.716762 165.038007,162.56204 L167.799218,160.423476 C167.937201,160.301304 168.111139,160.226332 168.295373,160.209619 C168.912102,160.468626 169.475238,160.838391 169.956415,161.300287 C170.584943,161.888938 171.315799,162.359891 172.113611,162.690354 C172.531416,162.859315 172.978273,162.946462 173.429501,162.946982 C174.209499,163.025141 174.988067,162.785869 175.586698,162.284027 C175.974138,161.883209 176.177135,161.341399 176.147569,160.787032 C176.147569,160.231005 175.694558,159.717749 174.810107,159.225879 C174.155975,158.893589 173.469294,158.628455 172.76077,158.43461 C170.672231,157.982287 168.716414,157.060384 167.044199,155.740019 C165.83355,154.650556 165.176938,153.082024 165.253726,151.462889 C165.283839,149.676406 166.143469,148.003559 167.583499,146.929132 C169.362395,145.616484 171.536504,144.938233 173.753081,145.004424 C176.427695,144.973918 179.015691,145.94367 181.001261,147.720401 C181.432665,148.044729 181.725274,148.51802 181.820996,149.046311 C181.798669,149.207348 181.713459,149.353258 181.583704,149.452638 C181.180638,149.923156 180.724671,150.346485 180.224671,150.714392 C179.750601,151.122628 179.245789,151.494392 178.714633,151.826445 C178.580585,151.9052 178.435049,151.962911 178.283194,151.99753 C177.982707,151.961463 177.706196,151.816787 177.506603,151.591203 C177.058084,151.173776 176.557931,150.814477 176.018137,150.521921 C175.349668,150.182792 174.611747,149.999905 173.860941,149.98728 C173.318484,149.976707 172.780487,150.0863 172.286187,150.308064 C171.81903,150.514181 171.521657,150.977445 171.531168,151.484275 C171.583383,152.046875 171.938138,152.537608 172.458763,152.767414 C173.274337,153.173575 174.126574,153.502933 175.004255,153.751154 C177.00099,154.304084 178.874567,155.225526 180.526678,156.467131 C181.920178,157.561719 182.718083,159.238669 182.683875,161.000888 C182.712829,163.090698 181.663383,165.050486 179.901091,166.1976 C178.022707,167.426613 175.808734,168.053713 173.558933,167.993995 C170.502761,168.095503 167.54676,166.906215 165.426302,164.721991 Z" id="Path" fill="#EBAA43"></path>
                        <path d="M192.396057,168 C191.673254,168 191.322804,167.679698 191.322804,166.975034 L191.322804,151.621896 L186.547926,151.621896 C185.978446,151.621896 185.693705,151.301594 185.693705,150.703698 L185.693705,146.860075 C185.657449,146.628352 185.734807,146.39347 185.902656,146.225638 C186.070505,146.057805 186.309398,145.976467 186.547926,146.005936 L202.821937,146.005936 C203.060465,145.976467 203.299358,146.057805 203.467207,146.225638 C203.635056,146.39347 203.712414,146.628352 203.676158,146.860075 L203.676158,150.703698 C203.689118,151.183226 203.312735,151.587799 202.821937,151.621896 L197.981349,151.621896 L197.981349,166.975034 C197.981349,167.679698 197.608997,168 196.842388,168 L192.396057,168 Z" id="Path" fill="#EBAA43"></path>
                        <path d="M210.729466,167.993106 C210.445034,168.027989 210.160468,167.929247 209.957856,167.725363 C209.755243,167.521479 209.657117,167.235128 209.691783,166.94891 L209.691783,147.08789 C209.667057,146.800245 209.766888,146.515856 209.965673,146.307659 C210.164457,146.099463 210.442855,145.987714 210.729466,146.001074 L214.583717,146.001074 C215.179204,146.011959 215.662555,146.48899 215.684932,147.08789 L215.684932,166.94891 C215.684932,167.630834 215.303742,167.993106 214.583717,167.993106 L210.729466,167.993106 Z" id="Path" fill="#EBAA43"></path>
                        <path d="M227.04291,164.571296 C224.886748,162.442291 223.676494,159.533265 223.684932,156.5 C223.67321,150.168775 228.779455,145.023482 235.097701,145 C237.47603,145.037652 239.790254,145.778535 241.749811,147.12963 L241.749811,147.12963 C242.302382,147.491667 242.557415,147.789815 242.557415,148.258333 C242.560661,148.443162 242.50066,148.623533 242.387393,148.769444 L240.665921,151.793519 C240.521951,152.061116 240.246575,152.23155 239.943327,152.240741 C239.682075,152.214932 239.432526,152.11932 239.220734,151.963889 C238.040399,151.079896 236.613482,150.588388 235.140206,150.558333 C233.618199,150.543905 232.166095,151.197523 231.165943,152.347222 C230.128223,153.519713 229.567039,155.039534 229.593239,156.606481 C229.545969,158.145153 230.111856,159.639395 231.165943,160.759259 C232.138715,161.810233 233.49738,162.417886 234.927679,162.441667 C235.649352,162.437998 236.366165,162.323073 237.052954,162.100926 C237.821455,161.832811 238.573667,161.519932 239.305745,161.163889 C239.488856,161.03969 239.701486,160.966219 239.922074,160.950926 C240.113349,160.950926 240.347129,161.121296 240.58091,161.462037 L242.51491,164.230556 C242.602244,164.373781 242.660056,164.533089 242.684932,164.699074 C242.647784,165.152586 242.360639,165.547193 241.941085,165.721296 C239.929359,167.162719 237.527936,167.957407 235.055195,168 C232.03557,167.970765 229.152081,166.736832 227.04291,164.571296 Z" id="Path" fill="#EBAA43"></path>
                        <path d="M249.412808,164.715887 C249.121329,164.409587 248.887366,164.054047 248.721957,163.666039 C248.67259,163.520062 248.67259,163.362082 248.721957,163.216105 C248.723426,162.957565 248.842423,162.713501 249.045793,162.551915 L251.809195,160.409368 C251.947287,160.286969 252.121363,160.211858 252.305743,160.195114 C252.922961,160.454603 253.486544,160.825056 253.968102,161.287813 C254.595011,161.880224 255.32697,162.352391 256.127009,162.680468 C256.545145,162.849743 256.992356,162.937052 257.443943,162.937573 C258.225066,163.020974 259.006231,162.780648 259.60285,162.273384 C259.998477,161.875414 260.209622,161.33215 260.185755,160.773601 C260.185755,160.216539 259.732384,159.702328 258.847232,159.209542 C258.156749,158.872856 257.43334,158.607223 256.688325,158.4168 C254.602934,157.968646 252.651482,157.044329 250.98881,155.717191 C249.777201,154.6257 249.120068,153.054247 249.196917,151.432098 C249.235051,149.661135 250.085686,148.004316 251.506948,146.93275 C253.279045,145.617712 255.448121,144.937931 257.659833,145.004458 C260.353364,144.943717 262.969507,145.901061 264.978529,147.682641 C265.410275,148.007572 265.703116,148.481745 265.798914,149.01102 C265.784195,149.174855 265.697271,149.323859 265.561434,149.418104 C265.161501,149.885206 264.712822,150.308939 264.222912,150.682206 C263.737319,151.086763 263.225257,151.458953 262.690088,151.796331 C262.557758,151.878847 262.411474,151.936917 262.258306,151.967734 C261.964681,151.928507 261.695792,151.783645 261.502688,151.56065 C261.044562,151.144085 260.537093,150.784353 259.991453,150.489377 C259.32356,150.146703 258.584354,149.963302 257.832546,149.95374 C257.282473,149.940665 256.736478,150.050501 256.234955,150.275122 C255.767427,150.481622 255.469819,150.945749 255.479337,151.453523 C255.531593,152.017171 255.88663,152.508817 256.407667,152.739051 C257.225558,153.142232 258.07812,153.472068 258.955178,153.724623 C260.968651,154.273563 262.858786,155.196927 264.525159,156.445657 C265.917088,157.544388 266.714964,159.223066 266.684066,160.987856 C266.704994,163.079618 265.656637,165.039464 263.899076,166.194244 C262.016294,167.419253 259.802593,168.046946 257.551888,167.993984 C254.493293,168.095681 251.534948,166.904178 249.412808,164.715887 L249.412808,164.715887 Z" id="Path" fill="#EBAA43"></path>
                        <path d="M47.6293704,111.462614 L20.8132252,111.462614 L20.8132252,58 L0.706407499,69.564608 L0.706407499,126.987416 C0.601570212,127.808312 0.884325287,128.631288 1.47224022,129.216419 C2.06015515,129.80155 2.88704638,130.082967 3.71184761,129.978626 L47.6293704,129.978626 C49.597722,129.894366 50.6771406,128.883253 50.6771406,126.987416 L50.6771406,114.601278 C50.7379943,113.77026 50.4402319,112.952798 49.8584387,112.353654 C49.2766455,111.754509 48.465932,111.430438 47.6293704,111.462614 L47.6293704,111.462614 Z" id="Path" fill="#1C1C1C"></path>
                        <path d="M75.4439621,60.775869 C73.7008083,58.5287421 71.3262773,56.8615376 68.6291473,55.9910547 C64.4384494,54.3181827 60.3568655,52.3806423 56.4087541,50.1899968 C51.4448766,47.2471243 49.3415387,43.626756 46.2706654,38.6937396 L45.3451967,37 C45.6183295,38.8036712 46.1496853,40.5579835 46.9227001,42.2082491 L30.6849315,51.163897 L30.6849315,98.1651696 C30.6849315,100.007111 31.5683334,100.981012 33.3351373,100.981012 L47.7640353,100.981012 C48.5241383,101.076654 49.2847395,100.807423 49.818065,100.253943 C50.3513904,99.7004634 50.5955185,98.9269966 50.4773412,98.1651696 L50.4773412,64.3962373 L72.4782557,64.3962373 C73.8861122,64.388988 75.2917506,64.2828716 76.6849315,64.0786611 C76.4715169,62.9116947 76.0511579,61.7929256 75.4439621,60.775869 Z" id="Path" fill="#EBAA43"></path>
                        <path d="M51.7843433,16.0762329 C52.9417624,15.421798 54.3459475,15.3207433 55.5904751,15.8023178 C55.7644697,15.8023178 55.9602136,15.9919513 56.0907096,15.8023178 C56.2212055,15.6126843 55.9602136,15.5284027 55.851467,15.4230507 C54.305119,13.9534052 51.9728663,13.582451 50.0226479,14.4959534 C48.8493369,15.0716538 48.0381502,16.1640055 47.8477155,17.4247381 C47.3560004,19.1665589 48.0006497,21.0234823 49.4789148,22.1234359 C50.2730608,22.6846594 51.1753246,23.085885 52.1323325,23.303378 C52.5238203,23.303378 52.567319,23.5772931 52.4803217,23.893349 C52.2080712,25.2254356 52.0768953,26.5809671 52.0888338,27.9388646 C52.0993462,29.384395 52.3946227,30.8146907 52.9588068,32.1529434 C53.9420246,34.3974957 55.5171322,36.3521506 57.526165,37.8208794 C60.8973104,40.4125378 64.3337037,42.8988443 67.8135957,45.3640804 C69.3142991,46.4176 71.0759944,47.4711197 72.6636951,48.5878506 C74.1093547,49.6062476 75.4759774,50.7259814 76.7525682,51.9380432 C78.2941455,53.4096702 79.4242531,55.2368035 80.0367163,57.2477825 C80.3637103,58.2672038 80.5609153,59.321511 80.623948,60.3872712 C80.6565385,60.9205876 80.6565385,61.4553047 80.623948,61.9886211 C80.623948,62.3257474 80.4934521,63 80.4934521,63 C80.6483816,62.8301576 80.7867197,62.6467623 80.9066893,62.4521698 C82.1465338,59.8569672 82.4528347,56.9340845 81.7766623,54.1504346 C80.5567465,49.7216674 77.8664794,45.8048322 74.1208999,43.0041962 C71.0300759,40.5959951 67.7906753,38.3724612 64.420701,36.3459518 C62.2231734,35.1949673 60.4798444,33.3727234 59.4618549,31.1626349 C59.0625671,29.7763715 59.1157468,28.3043828 59.6141002,26.9485561 C60.3102602,24.4702356 62.485137,22.6464024 65.1166794,22.3341399 C63.7611075,23.5566175 62.9761501,25.2600346 62.9417469,27.0539081 C63.4268429,28.7571925 64.6256745,30.1860308 66.2476443,30.9940718 C68.3210026,32.3417262 70.5029828,33.5254918 72.7724418,34.5338979 C73.1737967,34.7325177 73.608204,34.8609116 74.0556519,34.913165 C75.2953634,34.913165 76.469827,33.8807157 77.6442905,34.2389124 C76.4636245,34.8755591 75.5371136,35.8770011 75.0126222,37.0834156 C74.5598337,39.0748026 75.516402,41.1169921 77.3615493,42.0981693 C78.7027286,42.8274116 80.1823902,43.2861227 81.7114143,43.4466745 C83.0744844,43.8639369 84.5633482,43.5690842 85.6480421,42.6670699 C85.843786,42.456366 85.974282,42.6670699 85.974282,42.8356331 C85.974282,43.0041962 85.974282,43.1938298 85.974282,43.3623929 C85.974282,43.5309561 85.974282,43.6573785 86.1265272,43.6784488 C86.2787725,43.6995192 86.3440205,43.5520265 86.3875191,43.4256041 C86.6585216,42.7514537 86.8199358,42.0406559 86.8660043,41.3185647 C86.9185075,40.0569359 86.7493554,38.7958358 86.3657698,37.589105 C86.1917752,36.999134 85.8655353,36.8727116 85.3218022,37.2309083 C83.8565315,38.1689072 82.288206,38.9462585 80.6456974,39.5486517 C79.816018,39.9630029 78.918085,40.2339563 77.9922797,40.3493266 C77.5698481,40.3880207 77.1513898,40.2436734 76.8492626,39.9550427 C76.5471354,39.666412 76.3922992,39.2630747 76.4263283,38.8533287 C76.4263283,37.7576682 76.9700615,37.104486 77.9705304,37.104486 C79.4712338,37.104486 80.9719372,37.104486 82.4726407,37.104486 C83.9950033,37.1826311 85.4392428,36.4466589 86.2352739,35.1870801 C86.6611409,34.3185258 86.8768576,33.3672936 86.8660043,32.4057881 C86.9290869,32.1083226 86.8619036,31.7988351 86.6804875,31.5511831 C86.4990714,31.3035312 86.2196965,31.1399306 85.909034,31.0994237 L84.5170772,30.6990862 C84.0168427,30.5305231 83.8645974,30.2776784 84.038592,29.8984113 C84.330711,29.2007202 84.8926433,28.6412073 85.6045434,28.3392021 C86.3832133,28.0970532 87.2046203,28.0110244 88.0187185,28.0863574 C88.2362117,28.0863574 88.5842009,28.2549206 88.6711982,28.0863574 C88.7581955,27.9177943 88.4102063,27.7281607 88.2362117,27.580668 C85.352281,25.3210225 82.2238259,23.3711393 78.9057514,21.7652393 L75.8390966,20.0585374 C76.1653364,19.8478334 76.469827,19.8899742 76.7090696,19.7846222 C76.9120062,19.7516218 77.0823074,19.6181216 77.1579627,19.4327319 C77.2336179,19.2473422 77.2035883,19.0371137 77.0788081,18.8785953 C76.8986115,18.5367173 76.6378281,18.2407644 76.3175817,18.0147091 C74.2158943,16.5448568 71.6649,15.8027061 69.0750565,15.9076698 C69.0750565,15.9076698 68.8575633,15.9076698 68.835814,15.9076698 C68.848814,15.9862439 68.8964429,16.055457 68.9663099,16.0973033 C69.501442,16.5613676 69.9310357,17.1282381 70.2277708,17.7618644 C70.2277708,17.7618644 70.445264,17.9936388 70.2277708,18.0989907 C70.0102775,18.2043427 70.0102775,18.0989907 69.9015309,18.0989907 C67.396565,16.8023072 64.5491312,16.2594015 61.7237847,16.5397816 C61.136553,16.5397816 60.5493212,16.7294151 59.9620894,16.8136967 C60.5525245,16.9813934 61.1563388,17.1012057 61.7672834,17.1718934 C63.0604636,17.3178546 64.2566575,17.9084959 65.1384287,18.8364545 C65.1384287,18.9418065 65.3994206,19.0260881 65.3341727,19.1946512 C65.2689247,19.3632144 65.1601781,19.3210736 64.9644341,19.3210736 C64.1429437,19.2951454 63.3220288,19.3874558 62.5285097,19.5949887 C58.9839015,20.4619124 56.3768969,23.3832174 56.0037123,26.9064154 C55.7109204,28.7772944 55.9053015,30.6893981 56.5691947,32.4689993 C56.5691947,32.4689993 56.6779414,32.6797033 56.5691947,32.7639848 C56.4612706,32.649853 56.3596327,32.5302882 56.2647042,32.4057881 C55.4517175,31.2492162 54.9712739,29.9037863 54.8727474,28.5077653 C54.6139961,26.0900246 55.1957222,23.6577889 56.5256961,21.5966761 C56.5256961,21.4702537 56.786688,21.3438314 56.656192,21.1752682 C56.5256961,21.0067051 56.3734508,21.1752682 56.2429549,21.1752682 C54.8589148,21.4488246 53.422511,21.3243162 52.1105831,20.8170715 C51.0723211,20.400272 50.3945801,19.4195509 50.3923865,18.3307651 C50.3646146,17.3810313 50.9074768,16.5017654 51.7843433,16.0762329 Z M70.4235147,24.5043905 C71.5075127,23.3516377 72.9003733,22.5128334 74.4471398,22.0812952 C74.6997899,21.9737419 74.9952031,22.0752937 75.1213688,22.3130695 C75.4871767,22.857073 75.7384775,23.4657134 75.8608459,24.104053 C75.9004708,24.3619534 76.0610785,24.5875648 76.2958324,24.7150944 L77.7965358,25.8318253 C77.1005574,25.7054029 76.5133256,25.4104174 75.8608459,25.2418542 C75.310339,25.0635519 74.7149055,25.0635519 74.1643986,25.2418542 C73.4003248,25.5580806 72.5360466,25.5580806 71.7719728,25.2418542 C71.4065813,25.0417425 70.9954276,24.93311 70.57576,24.9257983 C70.57576,24.9257983 70.3147681,24.9257983 70.2712694,24.799376 C70.2277708,24.6729536 70.3582667,24.5465312 70.4235147,24.4622497 L70.4235147,24.5043905 Z" id="Shape" fill="#EBAA43"></path>
                        <path d="M96.8045589,10.0511717 C90.9760033,3.65671279 82.7445325,0.016487834 74.1173214,0.0181350823 L34.3670822,0.0181350823 C33.6365607,-0.0725783767 32.9052258,0.180285517 32.3847435,0.703541771 C31.8642613,1.22679803 31.6127379,1.96203078 31.7029704,2.69644571 L31.7029704,17.0232819 C32.1681328,17.2145898 32.8024451,17.6609749 33.1407451,17.7885135 C33.479045,17.9160521 34.1767885,18.1711293 34.7265259,18.3411808 C35.6678334,18.6444636 36.6590008,18.759994 37.6443626,18.6812837 C38.9997459,18.4600453 40.274746,17.8887308 41.3445178,17.0232819 C43.7126172,15.3227672 45.7212729,13.1971239 47.9836535,11.390327 C50.7332789,8.9668398 54.1296229,7.40742858 57.7520633,6.90521955 C61.1284472,6.72335158 64.5129971,7.04570206 67.7953418,7.86175905 C71.3692574,8.86870059 74.5499554,10.9534794 76.9082956,13.8348169 C77.9329337,14.9798214 78.839686,16.2261291 79.6146949,17.5546927 C80.5925001,18.1300063 81.101412,19.2641067 80.8833195,20.3817984 C80.7983576,20.7548042 81.0087046,21.1317689 81.3696256,21.2533122 C84.5813442,23.0780364 87.5689509,25.275393 90.271142,27.8002937 C90.7786044,28.2571364 90.8691755,29.0219886 90.4825794,29.5858341 C89.8967238,31.1606172 89.6307139,32.8374611 89.7002609,34.5173267 C89.6544636,35.4817736 89.5342883,36.4411934 89.3408172,37.3869452 C89.2950452,37.6928717 89.1792373,37.9839344 89.0025173,38.2372026 C88.7188489,38.6327257 88.5704638,39.1100887 88.5796424,39.5976143 C88.5511462,40.8082094 88.3952228,42.0123683 88.1144801,43.1899516 C87.7092493,44.6415082 86.8211559,45.9094721 85.5983745,46.7822888 C85.2909434,47.0570843 84.9410056,47.2796535 84.562331,47.4412383 C84.562331,46.9310839 84.8794872,46.5484681 84.9217747,46.102083 C84.9640622,45.6556979 84.9217747,45.6344414 84.5200435,45.7407236 C83.5893509,46.0620722 82.5931212,46.1424878 81.6233506,45.9745444 C81.5176319,45.9745444 81.3484819,45.9745444 81.2850507,45.9745444 C81.2216194,45.9745444 81.2850507,46.2083651 81.3907694,46.3146473 C82.7963793,48.38152 83.7808849,50.7078 84.2874623,53.1592189 C84.7463238,56.8566182 84.1753966,60.6094994 82.6382503,64 C87.9890764,62.4053883 92.8158123,59.3955412 96.6142652,55.2848623 C102.383517,49.2365474 105.629401,41.1964898 105.684932,32.816812 C105.667326,24.3775881 102.497993,16.2527177 96.8045589,10.0511717 Z" id="Path" fill="#EBAA43"></path>
                        <polygon id="Path" fill="#EBAA43" points="0.684931507 8 0.684931507 57 42.6849315 32.4894805"></polygon>
                    </g>
                </g>
            </g>
        </g>
    </g>
</svg>