<?xml version="1.0" encoding="UTF-8"?>
<svg width="470px" height="370px" viewBox="0 0 470 370" version="1.1" xmlns="http://www.w3.org/2000/svg" xmlns:xlink="http://www.w3.org/1999/xlink">
    <!-- Generator: Sketch 63.1 (92452) - https://sketch.com -->
    <title>Group 69</title>
    <desc>Created with Sketch.</desc>
    <defs>
        <polygon id="path-1" points="0 374.056196 470.031349 374.056196 470.031349 0.941860062 0 0.941860062"></polygon>
        <polygon id="path-3" points="0.945859059 0.67045745 9.57671359 0.67045745 9.57671359 10.9854399 0.945859059 10.9854399"></polygon>
        <polygon id="path-5" points="0 0.942331691 449.972305 0.942331691 449.972305 365.422784 0 365.422784"></polygon>
    </defs>
    <g id="Кейс" stroke="none" stroke-width="1" fill="none" fill-rule="evenodd">
        <g id="Pride-XL" transform="translate(-804.000000, -3579.000000)">
            <g id="Group-13" transform="translate(165.000000, 3457.000000)">
                <g id="Group-69" transform="translate(639.000000, 122.000000)">
                    <g id="Group-47" transform="translate(0.016324, 0.000000)">
                        <path d="M271.490818,100.311232 C271.590477,100.306753 271.770761,100.282114 271.898415,100.256356 C272.176118,100.202599 272.452702,100.166762 272.722568,100.147723 C272.986834,100.117485 273.245502,100.118605 273.475055,100.127564 C273.510888,100.126444 273.552319,100.133164 273.593751,100.139883 C273.616146,100.513939 273.721405,100.862237 273.856897,101.162378 C273.877053,101.201576 273.902808,101.235174 273.922964,101.273251 C273.536642,101.063824 273.138003,100.877916 272.728166,100.713287 C272.208592,100.531858 271.593837,100.297793 271.064184,100.334751 C271.248947,100.285474 271.398996,100.310112 271.490818,100.311232 M272.279138,101.543154 C272.743843,101.869053 273.209669,102.185993 273.706848,102.448056 C274.204027,102.709 274.767273,102.85683 275.293566,103.074097 C275.429058,103.125613 275.548874,103.201768 275.676528,103.265604 C276.016939,103.510869 276.369668,103.733735 276.713438,103.96108 C276.714558,103.9622 276.715677,103.9622 276.716797,103.96332 L276.99674,103.603823 C276.430135,103.01362 276.009101,102.268868 275.582467,101.632748 C275.158073,100.985429 274.920682,100.264195 274.92964,99.7871057 L274.938598,99.3010566 L274.685529,99.1599456 C274.053977,98.808288 273.782992,98.9314802 273.406749,98.9482791 C273.061859,98.9953161 272.757281,99.1117887 272.467259,99.2316211 C272.183957,99.3716122 271.919691,99.5261623 271.666622,99.6930317 C271.532249,99.782626 271.443787,99.8643808 271.284779,99.9830932 C271.119053,100.108525 271.009315,100.259716 270.93653,100.334751 C271.416913,100.887996 271.803234,101.184777 272.279138,101.543154" id="Fill-1" fill="#E6923A"></path>
                        <path d="M259.328517,93.6162984 C260.706958,93.2512016 262.001415,92.6374807 263.201811,91.8960879 C264.405567,91.1390161 265.508543,90.2945898 266.543213,89.2552959 L266.815318,88.9842732 L266.689904,88.594538 C266.246474,87.2069463 265.644036,85.8495927 264.211846,84.8819743 C263.488473,84.4328828 262.496355,84.273853 261.685639,84.47768 C260.937631,84.6490291 260.189623,84.9726885 259.570388,85.467697 C258.324081,86.4834723 257.720524,87.9595384 257.510006,89.3359308 C257.315166,90.6294485 257.376753,91.9005676 257.611906,93.1302493 C256.816867,93.2523216 256.006151,93.2803198 255.201035,93.1683269 C253.866266,93.024976 252.665869,92.3541387 251.521461,91.6340246 L251.417323,91.768416 C252.506861,92.5915636 253.6983,93.4012721 255.103615,93.6767746 C256.479815,93.9892347 257.942239,93.952277 259.328517,93.6162984" id="Fill-3" fill="#E6923A"></path>
                        <path d="M296.452793,148.456184 C296.283707,148.861599 296.033998,149.253574 295.756294,149.610831 C295.637598,149.760901 295.477471,149.93449 295.312864,150.043124 C294.800008,149.407004 294.244601,148.804482 293.610809,148.292675 C293.267039,148.018292 292.905352,147.767428 292.516791,147.563601 C292.132709,147.367614 291.710555,147.187305 291.276083,147.204104 C291.703836,147.260101 292.070002,147.497526 292.404814,147.74391 C292.738506,147.998134 293.038605,148.291555 293.317429,148.602895 C293.869477,149.223336 294.324105,149.921051 294.719384,150.643405 C294.703708,151.113775 294.617485,151.556147 294.390171,151.925724 C294.064317,152.443131 293.617528,152.889982 293.097953,153.259559 C292.579499,153.631375 291.997217,153.923677 291.400378,154.147662 C291.038691,154.258535 290.614297,154.370528 290.260449,154.284294 C289.978266,153.414109 289.575148,152.61672 289.090287,151.877567 C288.57967,151.145133 287.99067,150.355584 287.125085,150.055443 C287.917884,150.483255 288.343398,151.314243 288.718522,152.085874 C289.075729,152.877663 289.339996,153.71761 289.460931,154.547477 C288.698366,155.303429 287.635702,155.763719 286.692853,155.533014 C285.614512,155.28775 284.774682,154.355969 284.112896,153.340194 C282.752373,151.275045 281.871111,148.904156 280.454599,146.584784 C280.242962,146.299202 280.069397,146.01026 279.797292,145.730278 C279.639404,145.581327 279.61253,145.468215 279.346024,145.291266 C279.230687,145.211751 279.110871,145.135596 278.988816,145.06616 L278.697675,144.951927 C277.927272,144.677545 277.276684,144.60363 276.60482,144.518515 C275.276769,144.384124 273.978953,144.370684 272.682256,144.362845 C270.095581,144.391963 267.526822,144.511796 264.962542,144.659626 L249.612697,145.631724 L245.784194,145.841151 C245.148163,145.86131 244.508772,145.882588 243.88058,145.870269 C243.227752,145.882588 242.700339,145.794114 242.079985,145.53877 L238.295153,144.230693 C236.148549,143.246276 234.164311,142.254019 233.959393,142.156585 C234.059053,142.305536 234.657011,143.254116 234.980626,144.500596 C235.023177,145.172553 234.951511,145.84787 234.772348,146.47615 C234.498004,147.602799 233.859733,148.36211 232.978472,148.972472 C231.202512,150.168556 228.873385,150.590769 226.637199,150.977144 C222.089801,151.719657 217.383396,151.859648 212.679231,152.121711 C210.322109,152.228104 207.961628,152.251623 205.605626,152.099313 C203.250744,151.967161 200.910419,151.558387 198.463715,151.634542 C196.042766,151.739816 193.643093,152.29306 191.403548,153.190123 C189.6679,153.87552 188.007277,154.756904 186.51462,155.861153 C187.216717,154.283174 187.917695,152.705194 188.650026,151.145133 C189.545844,149.241255 190.520047,147.378813 191.605107,145.588047 C192.699125,143.81968 193.980145,142.08827 195.800895,141.041136 L195.72923,140.887706 C193.774107,141.821727 192.315043,143.516179 191.070975,145.22967 C189.807871,146.95884 188.763123,148.822401 187.748609,150.688202 C185.718461,154.425405 183.941382,158.27124 182.100475,162.070038 C181.636889,163.014138 181.184501,163.983996 180.699639,164.896738 C180.169987,165.745644 179.728796,166.644947 179.040136,167.3897 C177.845339,169.005757 176.231746,170.289195 174.577842,171.47184 C171.162535,173.741935 167.271324,175.294157 163.295011,176.537277 C159.304141,177.783758 155.199054,178.620345 151.039098,179.422214 C150.53632,179.493889 149.967475,179.687637 149.39863,179.906023 C148.801792,180.076252 148.382997,180.43015 147.883578,180.701172 C147.383039,180.972195 146.970963,181.323853 146.535371,181.655352 C146.102019,181.985731 145.666428,182.31499 145.277867,182.685686 C143.631801,184.087837 142.211929,185.680376 140.770781,187.244916 C137.926558,190.407595 135.334284,193.760661 132.664746,197.042053 C131.331096,198.682748 130.044478,200.363761 128.664917,201.9563 C127.943784,202.725691 127.324549,203.586916 126.418653,203.99905 C125.967385,204.259993 125.464607,204.31823 125.016698,204.211836 L126.145429,200.994281 L123.852134,203.220699 L123.847655,203.21286 L123.499406,203.473803 C122.98431,203.860179 121.925005,203.978891 121.073978,203.985611 C120.193836,203.965452 119.179322,203.964332 118.523135,203.661951 C117.837834,203.358451 117.574688,202.58906 117.585885,201.755833 C117.583646,201.102914 117.743773,200.414158 117.948692,199.762359 C118.310378,199.60333 118.593681,199.43646 118.89378,199.252792 C119.242029,199.027686 119.570123,198.784662 119.884779,198.533798 C120.515211,198.02983 121.093014,197.487784 121.636104,196.9211 C120.927287,197.258199 120.206154,197.55162 119.479421,197.783445 C119.117735,197.898798 118.753808,198.000712 118.392122,198.076867 C118.051711,198.146302 117.632916,198.217978 117.396644,198.197819 L117.403362,198.232537 C117.359691,198.151902 117.31602,198.055588 117.305942,197.926796 C117.237636,197.576259 117.235397,197.157405 117.272349,196.736312 C117.352973,195.913164 117.546693,194.958985 117.793043,194.201913 C118.256629,192.672091 119.702256,191.613758 121.25874,190.815249 C124.41538,189.184633 128.124067,188.246132 131.277347,185.896522 C132.84279,184.590685 133.869621,182.969028 134.788955,181.330572 C135.688132,179.677558 136.441739,177.971906 137.158394,176.257295 C138.60626,172.856072 139.621894,169.208464 140.853644,165.839718 C143.0428,165.80612 145.667548,165.136403 147.445747,163.324358 C148.333727,162.438495 149.00671,161.367843 149.474775,160.235595 C149.918205,159.05183 150.181352,158.027095 150.576631,156.950844 C151.343676,154.827459 152.25853,152.742152 153.218175,150.678123 C154.162144,148.604015 155.164341,146.548946 156.235963,144.531954 L156.164298,144.488277 L156.159819,144.403162 C153.269685,144.245252 150.389629,143.97087 147.584599,143.429944 C144.804203,142.881179 141.985735,142.145386 139.755147,140.637962 C137.553674,139.167496 136.14164,136.703652 135.358919,134.07406 C134.596354,131.419829 134.377998,128.56625 134.653462,125.752989 C135.243583,120.130947 137.199826,114.524584 140.951065,110.19046 C144.61944,105.793619 149.313528,102.236726 154.365943,99.4615424 C154.37826,99.4850609 154.389458,99.4850609 154.397296,99.5231385 C154.397296,99.5399374 154.412973,99.5567364 154.412973,99.5914542 C154.591017,100.28469 154.638047,102.49207 154.073682,103.505605 C149.708808,105.391565 145.542133,108.13875 142.606089,112.105538 C139.564786,116.141761 138.141555,121.318072 138.275927,126.337592 C138.330796,127.572873 138.381186,128.88879 138.739513,130.171108 C139.078804,131.450067 139.661086,132.688708 140.486359,133.7504 C142.138024,135.918582 144.645195,137.128105 147.08406,137.759745 C152.065929,138.973748 157.098188,138.401464 161.898654,137.293855 L162.057662,137.256897 L162.151723,137.121386 C163.385712,135.365338 165.647653,134.38316 167.751707,133.59361 C169.906149,132.791741 172.159132,132.257535 174.421073,131.802844 C178.949435,130.868824 183.558419,130.476849 188.153967,129.682819 C190.588353,129.167652 192.733838,128.108199 194.74495,126.890837 C196.76278,125.680194 198.676472,124.336279 200.543133,122.939728 C204.028986,120.24966 207.332316,117.352404 210.41617,114.228923 C212.491109,114.719451 215.102419,114.985994 217.817868,114.319637 C222.386541,113.194109 215.551448,114.865042 217.255742,121.956431 C217.255742,121.956431 219.438179,119.161089 222.761665,119.553064 C226.58009,119.995436 230.942725,121.18928 234.81154,118.342421 C235.084764,118.137474 235.356869,117.915728 235.631214,117.678303 C236.294119,117.064582 232.273015,127.718464 216.301696,125.518924 C216.301696,125.518924 221.517597,135.49189 234.692844,137.503282 C240.239079,138.357787 247.210784,137.779904 255.787124,134.440276 C257.437669,134.410038 259.085975,134.168134 260.692848,133.764959 C267.940018,134.813213 275.135678,136.009297 282.138737,137.772064 C283.904619,138.239075 285.698495,138.738563 287.270656,139.475476 C288.8249,140.212389 290.300761,141.409593 291.750867,142.545201 C293.156182,143.732325 294.756337,144.835455 295.975769,146.116653 C296.586046,146.761732 296.825677,147.626317 296.452793,148.456184 M248.575787,133.366265 C248.819898,133.43794 249.065128,133.502896 249.310358,133.568972 C249.061768,133.510736 248.80646,133.43458 248.556751,133.370745 C248.56235,133.369625 248.569068,133.368505 248.575787,133.366265 M216.881738,98.352813 C219.362035,95.8755306 221.725875,93.3075341 224.515229,91.3308599 C227.247475,89.3127483 230.564242,88.2846537 233.940357,87.9889925 C237.306394,87.7101303 240.805684,88.0147509 244.033989,88.8670166 L248.447013,90.0328625 L244.739445,87.4223086 C243.73389,86.7133937 242.733932,86.1321507 241.672388,85.5901052 C241.146095,85.3213223 240.609723,85.0704583 240.063274,84.8397529 C242.249071,83.5988719 244.796554,82.7152481 247.297007,82.0589699 C250.403256,81.3119774 253.596848,80.7542529 256.726613,80.9222422 C259.861977,81.0767924 262.979425,81.884261 265.689275,83.4308826 C267.036361,84.1991537 268.331938,85.1141355 269.222158,86.2867009 C270.203079,87.5085431 270.637551,88.7729426 270.59276,90.3755606 L270.583802,90.6857809 L270.820074,90.904167 C272.774077,92.7184516 274.711284,94.5629742 276.600341,96.4388548 C277.543189,97.3739953 278.493877,98.3180952 279.347143,99.2980328 C279.557661,99.5410574 279.767058,99.7975211 279.913748,100.023747 C279.9563,100.083103 279.960779,100.109981 279.983174,100.142459 L279.983174,100.208535 L279.987654,100.723702 C280.00445,101.418058 280.070517,102.144892 280.321346,102.854926 C280.529624,103.575041 281.128702,104.225719 281.619162,104.636733 L283.120778,105.978408 C284.112896,106.870991 285.113973,107.749015 286.045624,108.691995 C286.943682,109.634975 287.93804,110.622752 288.343398,111.800917 C288.361314,111.862513 288.355716,111.931949 288.362434,111.995785 C287.846219,111.318228 287.209068,110.721306 286.421868,110.284534 C285.963881,110.047109 285.462223,109.87688 284.93369,109.782806 C284.38948,109.704411 283.886702,109.648414 283.236114,109.841042 L282.12306,110.168061 L283.082706,110.984489 C284.299899,112.021543 285.758962,113.098915 286.422988,114.366674 C286.56184,114.695933 286.602151,114.879601 286.490174,115.187582 C286.345723,115.541479 286.137446,115.899856 285.892215,116.234715 C285.414072,116.916752 284.807156,117.528233 284.137531,118.04788 C282.838595,119.193567 281.054797,119.29548 279.550942,119.29772 C277.98326,119.268602 276.508519,118.592165 275.057294,117.629026 L274.965473,117.718621 C275.890405,119.202526 277.602537,120.331414 279.497193,120.440047 C280.911466,120.534121 282.217121,119.977517 283.311139,119.215965 C283.265228,119.6057 283.327936,120.029034 283.561968,120.423248 C283.566447,120.432208 283.575406,120.436688 283.581004,120.445647 C283.331295,120.72115 283.069268,121.052648 282.929297,121.384147 C282.677348,121.893715 282.514981,122.364085 282.338057,122.841175 L281.843117,124.261244 C281.704265,124.704736 281.527341,124.94888 281.23732,125.124709 C280.642721,125.470767 279.624847,125.294938 278.732388,125.033995 C277.814175,124.762972 276.90044,124.390036 275.991184,124.004781 C274.170434,123.23315 272.355282,122.378644 270.430393,121.798521 C269.468508,121.517419 268.47415,121.293433 267.460755,121.307992 C266.457439,121.304632 265.425008,121.628292 264.702755,122.324887 C265.469799,121.675329 266.486553,121.431184 267.458516,121.49278 C268.437197,121.539817 269.391244,121.81644 270.312817,122.149059 C270.946608,122.384244 271.563603,122.656386 272.176118,122.939728 C271.696856,124.121253 271.336289,125.138148 270.73721,126.120326 C270.103419,127.183138 269.302782,128.148517 268.358813,128.977264 C266.471996,130.643718 264.080161,131.744608 261.644655,132.638311 C259.211389,133.537614 256.628073,134.021423 254.019003,133.978866 C252.281115,133.959827 250.554426,133.685444 248.847892,133.293469 C249.860166,133.001168 250.851165,132.630472 251.809691,132.164581 C253.761455,131.221601 255.521738,129.900085 256.996478,128.333305 C257.698576,127.535916 258.446584,126.723967 258.963919,125.74403 C259.50365,124.79545 259.888852,123.787514 260.223664,122.778459 C260.891048,120.758107 261.241537,118.685119 261.813741,116.697246 C262.104882,115.708349 262.437455,114.721691 262.986143,113.870545 C263.513556,113.0138 264.352266,112.339603 265.380217,112.189532 L265.358942,112.020423 C264.279481,112.095458 263.280643,112.765176 262.667008,113.651039 C262.032097,114.531303 261.636817,115.53476 261.285208,116.528136 C260.604386,118.529449 260.102728,120.56212 259.40623,122.497356 C258.71533,124.460592 257.733289,126.170723 256.221596,127.579593 C254.782688,129.014222 253.089591,130.164389 251.261002,131.003215 C247.595986,132.723426 243.391239,133.023567 239.355578,132.530798 C235.99402,132.099625 232.649259,131.189123 229.495978,129.925844 C230.86994,129.428595 232.121846,128.714081 233.259535,127.815898 C234.929116,126.442865 236.269484,124.712575 237.231369,122.819896 C237.727428,121.883636 238.068959,120.840982 238.50903,120.011115 C238.969256,119.133091 239.519065,118.274105 240.08343,117.427439 C241.22,115.738587 242.446151,114.088932 243.705895,112.482954 L246.085412,109.449067 L243.086661,111.860273 C240.741857,113.747353 237.951383,115.141665 234.970548,115.589636 C232.14872,116.015209 229.231712,115.958093 226.379651,115.659072 C226.939537,114.776568 227.478148,113.877265 227.945093,112.930925 C228.460189,111.810997 229.020075,110.640671 228.932733,109.269878 C228.89914,108.583362 228.40196,107.869967 227.745774,107.629183 C227.116461,107.35144 226.428921,107.36376 225.84328,107.338001 C224.629446,107.305523 223.416732,107.19577 222.210737,107.03674 C217.773077,106.436459 213.382448,105.368047 209.18106,103.822545 C212.253717,102.80565 214.683624,100.518755 216.881738,98.352813 M288.006346,113.630881 C287.883171,113.925422 287.732002,114.216603 287.553958,114.485386 C287.539401,114.301718 287.511407,114.123649 287.457658,113.975819 C287.10381,113.003721 286.492414,112.308245 285.887736,111.645247 C285.652584,111.397743 285.402875,111.175997 285.152046,110.953131 C285.456624,110.988969 285.760082,111.049445 286.06578,111.137919 C286.490174,111.253272 286.90337,111.43694 287.307608,111.650847 C287.674894,111.831155 288.020904,112.061861 288.376991,112.289206 C288.340039,112.727098 288.153037,113.207548 288.006346,113.630881 M286.566319,117.978444 C286.221429,118.960622 285.746645,119.821847 285.003116,120.141026 C284.683981,120.161185 284.396199,120.138787 284.124094,119.943919 C283.869906,119.76585 283.662748,119.444431 283.494782,119.081574 C283.809438,118.849749 284.108417,118.606724 284.382762,118.35586 C285.047907,117.800375 285.730968,117.270649 286.381556,116.661408 C286.683895,116.371346 286.979515,116.060006 287.238182,115.69155 C287.024306,116.485579 286.813788,117.25945 286.566319,117.978444 M296.432637,145.753796 C295.836918,144.966487 295.122503,144.346046 294.452878,143.702087 L292.430569,141.761251 C291.048769,140.481172 289.700563,139.196614 287.986191,138.119242 C286.219189,137.184102 284.412996,136.621898 282.590005,136.096651 C278.946265,135.066317 275.22638,134.486194 271.499776,134.059501 C268.187488,133.674245 264.853924,133.525295 261.52484,133.546573 C261.651374,133.509616 261.782387,133.484977 261.908922,133.44578 C264.442968,132.664069 266.99493,131.674052 269.176247,129.958322 C270.257948,129.107176 271.219833,128.074602 271.996955,126.915475 C272.706891,125.89298 273.221986,124.680098 273.693411,123.673282 C274.355196,124.004781 275.014743,124.344119 275.681007,124.676738 C276.574586,125.121349 277.478243,125.560362 278.445726,125.914259 C279.402012,126.21552 280.490431,126.639973 281.745697,126.111366 C282.354853,125.838104 282.777008,125.200864 282.965129,124.713695 L283.60228,123.37762 C283.819516,122.944208 284.040111,122.495117 284.270784,122.136739 C284.494739,121.772763 284.701897,121.638371 285.145327,121.266555 L285.162124,121.267675 L285.271861,121.246396 C285.991875,121.101925 286.596553,120.595717 286.975036,120.048072 C287.337842,119.484748 287.572994,118.887826 287.684972,118.285305 C287.916765,117.149697 287.850698,116.011849 287.539401,114.931118 C287.545,114.885201 287.558437,114.842644 287.561797,114.797846 C287.836141,114.474187 288.075772,114.123649 288.262774,113.745113 C288.504645,113.108994 288.866332,112.504232 288.721881,111.710203 C288.314284,110.311412 287.353519,109.305716 286.491294,108.275382 C285.588757,107.268566 284.641429,106.308787 283.670586,105.383726 L282.231678,103.995014 C281.72778,103.516804 281.400807,103.138268 281.232841,102.546946 C281.057037,101.983622 281.015605,101.358702 281.025683,100.719222 L281.03912,100.229814 L281.043599,100.105501 C281.043599,100.029346 281.022324,99.8893552 280.99097,99.7908015 C280.94282,99.6765687 280.886831,99.5477769 280.837561,99.4738616 C280.631523,99.1300435 280.422125,98.8612606 280.204889,98.589118 C279.340425,97.5173462 278.424451,96.5396484 277.503997,95.555231 C275.71684,93.6838301 273.888251,91.8695456 272.037267,90.0653404 C272.036147,89.3149881 271.987997,88.5075195 271.737168,87.7224495 C271.460584,86.8298663 270.98692,86.0459162 270.476303,85.3448408 C269.40692,83.8833338 267.984809,82.8541193 266.529104,81.9738553 C263.579623,80.2301263 260.19119,79.3677812 256.818435,79.1762734 C253.410966,78.9847655 250.08972,79.5570491 246.858056,80.3163608 C243.607355,81.1518276 240.473111,82.2661567 237.575139,84.3570637 L236.244849,85.3168426 L237.855082,85.8398493 C238.442963,86.0313571 239.024125,86.253103 239.599688,86.4938877 C237.67032,86.3236585 235.734233,86.3225386 233.792547,86.5308453 C230.240627,86.9228204 226.647276,88.107705 223.801934,90.3531621 C220.929717,92.4989455 218.59723,95.1733353 216.199796,97.6830956 C213.81356,100.150299 211.221286,102.64774 207.893322,103.42385 L206.661572,103.711672 L207.839573,104.126046 C209.808133,104.819281 211.806928,105.416203 213.822519,105.94257 C210.529267,109.234041 211.700549,110.332691 205.989708,112.563589 C205.989708,112.563589 207.618977,113.503209 210.088076,114.150528 C206.700764,116.815958 203.295535,119.446671 199.777208,121.889235 C197.900469,123.218591 195.982298,124.48971 193.999181,125.610758 C192.010464,126.69037 189.991514,127.820378 187.879623,128.282908 C183.378136,129.224768 178.809463,130.14871 174.28894,131.198083 C172.030358,131.739008 169.778495,132.322491 167.561345,133.052685 C166.45389,133.427861 165.36771,133.871353 164.315124,134.414518 C163.324125,134.922966 162.353282,135.553486 161.590717,136.475187 C159.272787,136.89964 156.880952,137.083308 154.52831,137.090028 C152.135355,137.105707 149.741281,136.867162 147.500616,136.235522 C145.275627,135.601643 143.172694,134.480594 141.883835,132.686468 C141.234367,131.801724 140.789817,130.783709 140.496437,129.710817 C140.194098,128.635686 140.151547,127.489999 140.102277,126.295035 C139.941029,121.584615 141.036167,116.810358 143.706825,112.880528 C146.267746,109.017894 150.057057,106.029924 154.178941,103.685914 C154.22933,103.662395 154.2786,103.636637 154.32787,103.614238 C161.23127,100.221974 166.310559,90.778735 159.680384,83.3121702 C159.680384,83.3121702 160.105898,87.8288427 157.004127,89.9421482 C153.907956,92.052094 153.495879,96.5396484 154.324511,99.3697083 L154.294277,99.3069923 C149.10525,101.900747 144.246556,105.275092 140.304956,109.634975 C136.304007,113.999337 134.07454,119.77033 133.297417,125.606279 C132.902138,128.544972 133.004037,131.581098 133.734129,134.527631 C134.156283,135.982418 134.679217,137.439446 135.533604,138.747522 C136.39023,140.04104 137.497685,141.210246 138.825736,142.066991 C141.531107,143.65057 144.494026,144.27773 147.408794,144.60587 C150.279892,144.90489 153.154348,144.899291 155.997452,144.587951 C153.495879,148.359871 151.195866,152.270662 149.313528,156.436797 C148.820828,157.468251 148.387476,158.624017 147.936207,159.544599 C147.442387,160.481979 146.895938,161.373442 146.209518,162.149553 C145.544373,162.946942 144.72134,163.60434 143.805365,164.175504 C142.882673,164.781386 141.849122,165.079287 140.750625,165.703087 C139.803297,167.403139 139.261327,169.11887 138.503241,170.818921 C137.776509,172.514493 137.056495,174.208946 136.284971,175.87428 C135.498891,177.531774 134.676978,179.17247 133.736368,180.723571 C132.776723,182.241074 131.765568,183.793296 130.450955,184.82027 C127.623529,186.902218 123.931638,187.702967 120.555523,189.483654 C119.706735,189.927145 118.870265,190.469191 118.126736,191.163547 C117.372009,191.837744 116.746056,192.750486 116.443717,193.760661 C116.131301,194.759638 116.012605,195.644382 115.956616,196.659037 C115.939819,197.157405 115.953257,197.671453 116.089869,198.223577 C116.154816,198.49572 116.274631,198.791381 116.481789,199.073603 C116.585928,199.195676 116.706864,199.313268 116.850195,199.410702 C116.646396,200.183453 116.503065,200.955084 116.538898,201.784951 C116.541137,202.762649 117.029358,204.065126 118.142412,204.485099 C119.222993,204.877074 120.138967,204.757242 121.100852,204.749402 C121.581235,204.715804 122.062737,204.663168 122.54312,204.553415 C122.941759,204.441422 123.314643,204.371986 123.716641,204.108803 C124.054813,204.485099 124.465769,204.772921 124.967428,204.862515 C125.586662,204.976748 126.18798,204.78524 126.687399,204.529896 C127.726548,204.016969 128.370417,203.071749 129.068036,202.301238 L130.983967,199.994185 C131.41172,200.527271 132.766645,201.677438 136.006148,200.439916 C140.096678,198.888815 148.481537,182.898473 152.01106,182.199637 C153.850847,181.824461 159.236954,180.495106 164.589468,178.977602 C169.447043,177.59673 174.271024,176.062428 176.315729,174.938019 C182.725308,171.409124 186.61092,159.851459 191.5368,157.601522 C196.462681,155.333667 215.211037,156.135536 218.040703,155.316868 C218.040703,155.316868 215.63767,157.873665 213.098026,158.300358 C210.558381,158.725931 221.704599,158.436989 226.068354,156.050421 C226.068354,156.050421 225.64284,157.311461 224.654081,158.163727 C224.654081,158.163727 237.07908,157.669838 236.345629,150.697162 C236.345629,150.697162 239.875152,154.924893 242.55029,153.782566 C245.226547,152.657037 253.526303,151.82269 259.014309,151.140654 C264.707234,150.423899 270.042951,150.168556 270.042951,150.168556 C270.042951,150.168556 274.525402,149.043027 275.956471,156.953084 C276.144593,157.925182 277.713395,158.470587 278.564422,158.607218 C281.292189,159.032791 281.700906,157.464891 281.700906,157.464891 C281.700906,157.464891 283.660508,157.686637 284.565285,156.953084 C284.829551,156.732458 285.055745,156.217291 285.084859,155.75812 C285.540607,156.023543 286.028828,156.240809 286.592073,156.304645 C288.006346,156.38864 289.198905,155.548693 289.827097,154.467962 L289.948033,154.441084 C290.073447,154.575475 290.238054,154.685228 290.412738,154.742344 C290.792341,154.835299 291.182022,154.840898 291.549308,154.786022 C292.293957,154.685228 292.978138,154.369408 293.591773,153.952795 C294.183013,153.509303 294.728343,152.93366 294.983651,152.196746 C295.196408,151.642382 295.18297,151.018581 294.972453,150.501174 L295.252396,150.317506 C295.302786,150.302947 295.354296,150.288388 295.394607,150.25815 C295.620801,150.133838 295.796606,149.962489 295.961212,149.78666 C296.279228,149.429403 296.568129,149.048627 296.793204,148.609615 C297.00932,148.171723 297.139213,147.649836 297.05859,147.129069 C296.983565,146.608302 296.724897,146.145772 296.432637,145.753796" id="Fill-5" fill="#E6923A"></path>
                        <path d="M88.9557586,192.758997 C90.0273811,193.064738 91.1751482,193.351439 92.3990599,193.620222 C93.6240913,193.887885 94.8491228,194.021157 96.0719147,194.021157 C98.100943,194.021157 99.870184,193.715416 101.381877,193.102815 C102.892451,192.491334 104.155554,191.659227 105.168949,190.606494 C106.183463,189.553761 106.940429,188.3196 107.436489,186.90401 C107.933668,185.48842 108.183377,183.976516 108.183377,182.369418 C108.183377,180.493538 107.857523,178.791246 107.206935,177.260303 C106.557467,175.729361 105.667248,174.429124 104.538517,173.357352 C103.409786,172.28558 102.080615,171.453473 100.549886,170.859911 C99.0191567,170.267468 97.3742104,169.970687 95.6139276,169.970687 L88.9557586,169.970687 L88.9557586,192.758997 Z M79.5440682,165.83703 L97.2790297,165.83703 C100.18596,165.83703 102.922685,166.192048 105.485845,166.899843 C108.049004,167.607638 110.277352,168.640212 112.170888,169.999805 C114.065544,171.358279 115.558201,173.031453 116.64774,175.021566 C117.738398,177.011679 118.283728,179.288494 118.283728,181.853131 C118.283728,184.37857 117.758554,186.58819 116.705968,188.481989 C115.653382,190.376909 114.267103,191.93585 112.543772,193.159932 C110.822682,194.385134 108.86196,195.303475 106.662726,195.916076 C104.462372,196.528677 102.213868,196.834418 99.9183342,196.834418 C98.9228562,196.834418 97.8993839,196.8053 96.8479172,196.748183 C95.7953308,196.691067 94.7718585,196.623871 93.7775002,196.547716 C92.7820222,196.470441 91.8649283,196.375247 91.0228591,196.259894 C90.18079,196.145662 89.4921297,196.030309 88.9557586,195.916076 L88.9557586,221.804349 L79.5440682,221.804349 L79.5440682,165.83703 Z" id="Fill-7" fill="#161616"></path>
                        <path d="M147.98335,192.701545 L153.435523,192.701545 C155.539576,192.701545 157.490221,192.423802 159.289696,191.869438 C161.086931,191.313953 162.637816,190.519924 163.937872,189.486229 C165.239048,188.453655 166.252443,187.200455 166.980295,185.726629 C167.707028,184.253922 168.069834,182.598668 168.069834,180.761985 C168.069834,179.077612 167.784292,177.53771 167.209849,176.141159 C166.635405,174.744608 165.82245,173.539564 164.769864,172.524909 C163.718397,171.511373 162.465371,170.726303 161.011906,170.170819 C159.557321,169.616454 157.969483,169.338712 156.247273,169.338712 L147.98335,169.338712 L147.98335,192.701545 Z M138.57054,165.837814 L157.969483,165.837814 C161.33664,165.837814 164.282762,166.200671 166.80785,166.928625 C169.332938,167.655459 171.436991,168.660035 173.121129,169.942353 C174.804148,171.223552 176.077329,172.764574 176.937315,174.563179 C177.79842,176.361785 178.229533,178.3127 178.229533,180.417047 C178.229533,182.177575 177.903679,183.81379 177.25421,185.325694 C176.603622,186.836478 175.674211,188.205031 174.469336,189.429113 C173.26446,190.654315 171.819953,191.705928 170.136935,192.586192 C168.452796,193.466456 166.597333,194.155212 164.57054,194.653581 L184.94369,221.804013 L174.039343,221.804013 L154.58329,195.513686 L147.98335,195.513686 L147.98335,221.804013 L138.57054,221.804013 L138.57054,165.837814 Z" id="Fill-9" fill="#161616"></path>
                        <path d="M251.43983,217.728256 L261.425964,217.728256 C264.601639,217.728256 267.575756,217.20189 270.350553,216.149157 C273.12423,215.097544 275.544059,213.547562 277.61004,211.500332 C279.677141,209.453103 281.313129,206.926544 282.518004,203.922895 C283.72288,200.919246 284.325317,197.446347 284.325317,193.505318 C284.325317,190.060417 283.760952,186.894378 282.632221,184.004962 C281.50461,181.115546 279.92461,178.638264 277.897822,176.570875 C275.868793,174.505727 273.459042,172.88855 270.666329,171.721584 C267.873615,170.553498 264.811037,169.970015 261.483072,169.970015 L251.43983,169.970015 L251.43983,217.728256 Z M242.02702,165.837478 L260.680195,165.837478 C266.419031,165.837478 271.354989,166.373924 275.48807,167.444576 C279.618912,168.516348 283.062214,170.238798 285.817975,172.610807 C288.99365,175.289677 291.375407,178.369481 292.963245,181.852459 C294.551083,185.335438 295.345001,189.162234 295.345001,193.332849 C295.345001,197.273878 294.637305,200.967403 293.220792,204.411184 C291.806519,207.854964 289.721502,210.868693 286.965742,213.452368 C284.211101,216.034924 280.81483,218.073194 276.778049,219.564939 C272.741268,221.057804 268.121085,221.803677 262.918621,221.803677 L242.02702,221.803677 L242.02702,165.837478 Z" id="Fill-11" fill="#161616"></path>
                        <polygon id="Fill-13" fill="#161616" points="350.186546 165.837478 350.186546 169.453728 320.686132 169.453728 320.686132 189.487013 340.429966 189.487013 340.429966 193.103263 320.686132 193.103263 320.686132 218.187427 350.186546 218.187427 350.186546 221.803677 311.274441 221.803677 311.274441 165.837478"></polygon>
                        <polygon id="Fill-15" fill="#161616" points="219.172009 169.453728 219.172009 165.837478 216.016489 165.837478 206.60256 165.837478 203.715785 165.837478 203.715785 169.453728 206.60256 169.453728 206.60256 218.187427 203.715785 218.187427 203.715785 221.803677 206.60256 221.803677 216.016489 221.803677 219.172009 221.803677 219.172009 218.187427 216.016489 218.187427 216.016489 169.453728"></polygon>
                        <path d="M150.208674,240.518918 C148.596201,240.518918 147.218881,241.069923 146.082311,242.168573 C144.943502,243.268343 144.374658,244.779127 144.374658,246.704284 C144.374658,248.005641 144.656841,249.13341 145.224565,250.092069 C145.788931,251.045128 146.507825,251.748443 147.380128,252.199774 C148.251311,252.646626 149.19416,252.871732 150.208674,252.871732 C151.808829,252.871732 153.180551,252.325206 154.326079,251.232156 C155.470486,250.139106 156.04269,248.630562 156.04269,246.704284 C156.04269,244.766807 155.477205,243.250424 154.345115,242.158493 C153.214144,241.065443 151.834584,240.518918 150.208674,240.518918 M156.490599,252.950127 C154.826617,254.602022 152.732642,255.428529 150.208674,255.428529 C147.684706,255.428529 145.586252,254.602022 143.915551,252.950127 C142.24373,251.297112 141.4095,249.216284 141.4095,246.704284 C141.4095,244.181085 142.241491,242.093538 143.906593,240.440523 C145.570575,238.788628 147.672389,237.96212 150.208674,237.96212 C152.746079,237.96212 154.842294,238.788628 156.501797,240.440523 C158.159061,242.093538 158.988813,244.181085 158.988813,246.704284 C158.988813,249.216284 158.156821,251.297112 156.490599,252.950127" id="Fill-17" fill="#E6923A"></path>
                        <path d="M176.860162,240.518918 C175.403338,240.518918 174.154791,241.039685 173.113403,242.080098 C171.99475,243.224666 171.435983,244.741049 171.435983,246.627009 C171.435983,248.721276 172.060816,250.347412 173.308243,251.505419 C174.31044,252.415921 175.49404,252.871732 176.860162,252.871732 C178.342742,252.871732 179.552096,252.403601 180.489346,251.466221 C181.06155,250.920816 181.518417,250.22198 181.864427,249.367475 C182.208197,248.517449 182.381762,247.615906 182.381762,246.666207 C182.381762,245.716507 182.221635,244.825044 181.902499,243.992937 C181.584484,243.15971 181.15897,242.489992 180.625958,241.982665 C179.649516,241.007207 178.395371,240.518918 176.860162,240.518918 M182.226114,240.713785 L182.226114,238.352976 L185.094972,238.352976 L185.094972,254.549385 C185.094972,255.40837 185.077055,256.102726 185.046821,256.626853 C185.010989,257.155459 184.867658,257.858774 184.616829,258.734559 C184.360401,259.614823 183.987516,260.384214 183.493696,261.048331 C182.830791,261.958833 181.926015,262.700226 180.781607,263.27251 C179.637199,263.844793 178.329304,264.131495 176.860162,264.131495 C174.414579,264.131495 172.443779,263.383383 170.948882,261.887158 C169.504375,260.44357 168.782122,258.660643 168.782122,256.540618 L171.630823,256.540618 C171.630823,257.893492 172.054098,259.038059 172.899526,259.97544 C173.861411,261.041612 175.19506,261.574698 176.899354,261.574698 C178.901508,261.574698 180.366171,260.800827 181.288864,259.253086 C181.913697,258.23843 182.226114,256.8262 182.226114,255.017515 L182.226114,252.617508 C180.768169,254.491149 178.876873,255.428529 176.547746,255.428529 C174.25893,255.428529 172.365394,254.680417 170.869378,253.184192 C169.270342,251.583814 168.469705,249.397713 168.469705,246.627009 C168.469705,243.93358 169.270342,241.787797 170.869378,240.187419 C171.584913,239.485224 172.433701,238.938698 173.417981,238.547843 C174.397782,238.158108 175.44141,237.96212 176.547746,237.96212 C178.914946,237.96212 180.807362,238.879342 182.226114,240.713785" id="Fill-19" fill="#E6923A"></path>
                        <mask id="mask-2" fill="white">
                            <use xlink:href="#path-1"></use>
                        </mask>
                        <g id="Clip-22"></g>
                        <polygon id="Fill-21" fill="#E6923A" mask="url(#mask-2)" points="198.508842 254.940576 201.396736 254.940576 201.396736 238.353312 198.508842 238.353312"></polygon>
                        <polygon id="Fill-23" fill="#E6923A" mask="url(#mask-2)" points="198.508842 236.531188 201.396736 236.531188 201.396736 233.754884 198.508842 233.754884"></polygon>
                        <polygon id="Fill-24" fill="#E6923A" mask="url(#mask-2)" points="254.815497 254.940576 257.703391 254.940576 257.703391 238.353312 254.815497 238.353312"></polygon>
                        <polygon id="Fill-25" fill="#E6923A" mask="url(#mask-2)" points="254.815497 236.531188 257.703391 236.531188 257.703391 233.754884 254.815497 233.754884"></polygon>
                        <path d="M223.984681,240.948186 L221.6242,242.196907 C221.415922,241.703018 221.110224,241.299844 220.707106,240.987384 C220.303988,240.674924 219.842641,240.519254 219.321947,240.519254 C218.76206,240.519254 218.287277,240.679404 217.896476,240.997463 C217.506795,241.316643 217.311955,241.781413 217.311955,242.392895 C217.311955,242.9383 217.494478,243.354913 217.858404,243.641615 C218.22233,243.927197 218.937865,244.297893 220.003888,244.753704 C222.086666,245.61269 223.463986,246.463835 224.141449,247.310502 C224.739408,248.038455 225.038387,248.929919 225.038387,249.983771 C225.038387,251.674864 224.498656,253.006459 223.419195,253.972958 C222.338615,254.942816 220.973612,255.427745 219.321947,255.427745 C219.087914,255.427745 218.840444,255.414306 218.580657,255.389667 C218.31975,255.362789 217.92783,255.272075 217.398177,255.115285 C216.874123,254.959615 216.390382,254.744588 215.95479,254.471326 C215.518079,254.199183 215.070169,253.77585 214.611063,253.203567 C214.146357,252.631283 213.78691,251.954846 213.526003,251.173136 L216.00518,250.139442 C216.095881,250.412704 216.219056,250.683727 216.375825,250.95027 C216.531473,251.216813 216.74199,251.505755 217.008496,251.818215 C217.275002,252.129555 217.616533,252.383779 218.02301,252.578646 C218.435087,252.774634 218.878517,252.870948 219.360019,252.870948 C220.231202,252.870948 220.901946,252.602165 221.370011,252.060119 C221.839196,251.522554 222.073229,250.907713 222.073229,250.217837 C222.073229,249.840421 222.013881,249.514521 221.897424,249.242379 C221.779848,248.969116 221.579409,248.721612 221.292747,248.499866 C221.006085,248.27924 220.741819,248.107891 220.503307,247.984699 C220.260316,247.860387 219.894151,247.687918 219.399211,247.466172 C218.280558,246.971163 217.416093,246.54895 216.804698,246.197292 C216.193302,245.846755 215.711799,245.4559 215.36131,245.026967 C214.854053,244.402047 214.599865,243.588978 214.599865,242.587762 C214.599865,241.156493 215.048894,240.028725 215.945832,239.202218 C216.84389,238.37683 218.007334,237.962456 219.438403,237.962456 C221.533498,237.962456 223.048551,238.958073 223.984681,240.948186" id="Fill-26" fill="#E6923A" mask="url(#mask-2)"></path>
                        <polygon id="Fill-27" fill="#E6923A" mask="url(#mask-2)" points="242.300132 240.597089 239.8008 240.597089 239.8008 254.940016 236.911786 254.940016 236.911786 240.597089 234.321751 240.597089 234.321751 237.961896 242.300132 237.961896"></polygon>
                        <polygon id="Fill-28" fill="#E6923A" mask="url(#mask-2)" points="127.22489 252.05228 127.22489 237.962456 124.336996 237.962456 124.336996 254.940576 130.398326 254.940576 130.398326 252.05228"></polygon>
                        <path d="M282.652377,239.562499 L282.652377,242.99732 C281.962597,242.126016 281.142923,241.494376 280.193356,241.10464 C279.243788,240.713785 278.333413,240.518918 277.46111,240.518918 C275.822883,240.518918 274.433245,241.069923 273.297795,242.168573 C272.156746,243.268343 271.589022,244.779127 271.589022,246.704284 C271.589022,248.617122 272.165705,250.124546 273.314591,251.224316 C274.467957,252.322967 275.8352,252.871732 277.423038,252.871732 C278.345731,252.871732 279.289699,252.654465 280.251584,252.216573 C281.214589,251.783161 282.053298,251.128003 282.768833,250.256698 L282.768833,253.710558 C281.221307,254.855125 279.464384,255.428529 277.500302,255.428529 C274.925945,255.428529 272.800616,254.606501 271.128795,252.957966 C269.458094,251.315031 268.623863,249.242043 268.623863,246.744602 C268.623863,244.206843 269.462573,242.108097 271.139993,240.451722 C272.818532,238.790868 274.938262,237.96212 277.500302,237.96212 C279.426311,237.96212 281.142923,238.496326 282.652377,239.562499" id="Fill-29" fill="#E6923A" mask="url(#mask-2)"></path>
                        <path d="M304.34036,240.948186 L301.979879,242.196907 C301.771601,241.703018 301.465903,241.299844 301.061666,240.987384 C300.658547,240.674924 300.197201,240.519254 299.676507,240.519254 C299.11774,240.519254 298.642956,240.679404 298.252156,240.997463 C297.862475,241.316643 297.667634,241.781413 297.667634,242.392895 C297.667634,242.9383 297.849037,243.354913 298.212964,243.641615 C298.578009,243.927197 299.293544,244.297893 300.359568,244.753704 C302.441226,245.61269 303.819666,246.463835 304.497128,247.310502 C305.095087,248.038455 305.392947,248.929919 305.392947,249.983771 C305.392947,251.674864 304.854336,253.006459 303.773755,253.972958 C302.694294,254.942816 301.329291,255.427745 299.676507,255.427745 C299.442474,255.427745 299.195004,255.414306 298.935217,255.389667 C298.67431,255.362789 298.283509,255.272075 297.753857,255.115285 C297.228683,254.959615 296.746061,254.744588 296.31047,254.471326 C295.873758,254.199183 295.425849,253.77585 294.965622,253.203567 C294.502036,252.631283 294.142589,251.954846 293.881682,251.173136 L296.35974,250.139442 C296.450441,250.412704 296.573616,250.683727 296.730384,250.95027 C296.887153,251.216813 297.09655,251.505755 297.364176,251.818215 C297.630682,252.129555 297.971093,252.383779 298.37869,252.578646 C298.790766,252.774634 299.234196,252.870948 299.715699,252.870948 C300.586882,252.870948 301.257626,252.602165 301.725691,252.060119 C302.193756,251.522554 302.427788,250.907713 302.427788,250.217837 C302.427788,249.840421 302.36956,249.514521 302.253104,249.242379 C302.135528,248.969116 301.933969,248.721612 301.648426,248.499866 C301.361765,248.27924 301.097498,248.107891 300.858987,247.984699 C300.615996,247.860387 300.24983,247.687918 299.754891,247.466172 C298.636238,246.971163 297.771773,246.54895 297.160377,246.197292 C296.548981,245.846755 296.066359,245.4559 295.71587,245.026967 C295.208613,244.402047 294.954425,243.588978 294.954425,242.587762 C294.954425,241.156493 295.404573,240.028725 296.301511,239.202218 C297.198449,238.37683 298.363013,237.962456 299.792963,237.962456 C301.889178,237.962456 303.40311,238.958073 304.34036,240.948186" id="Fill-30" fill="#E6923A" mask="url(#mask-2)"></path>
                        <polygon id="Fill-31" fill="#E8E8E8" mask="url(#mask-2)" points="17.7181649 326.474904 79.5441802 326.474904 79.5441802 17.8158262 17.7181649 17.8158262"></polygon>
                        <polygon id="Fill-32" fill="#E8E8E8" mask="url(#mask-2)" points="350.186546 326.474904 412.012561 326.474904 412.012561 17.8158262 350.186546 17.8158262"></polygon>
                        <polygon id="Fill-33" fill="#E8E8E8" mask="url(#mask-2)" points="17.7181649 326.474904 412.012561 326.474904 412.012561 264.131831 17.7181649 264.131831"></polygon>
                        <polygon id="Fill-34" fill="#E8E8E8" mask="url(#mask-2)" points="17.7181649 79.1397637 412.012561 79.1397637 412.012561 17.8158262 17.7181649 17.8158262"></polygon>
                        <line x1="436.094059" y1="0.941636076" x2="436.094059" y2="342.191759" id="Stroke-35" stroke="#9F9E9E" stroke-width="1.09373157" mask="url(#mask-2)"></line>
                        <line x1="422.99686" y1="347.290571" x2="0.834678641" y2="347.290571" id="Stroke-36" stroke="#9F9E9E" stroke-width="1.09373157" mask="url(#mask-2)"></line>
                        <line x1="442.409242" y1="11.5001002" x2="429.780444" y2="24.1306564" id="Stroke-37" stroke="#9F9E9E" stroke-width="1.09373157" mask="url(#mask-2)"></line>
                        <line x1="442.409242" y1="72.8238136" x2="429.780444" y2="85.4543698" id="Stroke-38" stroke="#9F9E9E" stroke-width="1.09373157" mask="url(#mask-2)"></line>
                        <line x1="442.409242" y1="257.815993" x2="429.780444" y2="270.446549" id="Stroke-39" stroke="#9F9E9E" stroke-width="1.09373157" mask="url(#mask-2)"></line>
                        <line x1="442.409242" y1="319.139818" x2="429.780444" y2="331.770375" id="Stroke-40" stroke="#9F9E9E" stroke-width="1.09373157" mask="url(#mask-2)"></line>
                        <line x1="418.3264" y1="340.975069" x2="405.697603" y2="353.605625" id="Stroke-41" stroke="#9F9E9E" stroke-width="1.09373157" mask="url(#mask-2)"></line>
                        <line x1="356.501617" y1="340.975069" x2="343.872819" y2="353.605625" id="Stroke-42" stroke="#9F9E9E" stroke-width="1.09373157" mask="url(#mask-2)"></line>
                        <line x1="85.8577951" y1="340.975069" x2="73.2289976" y2="353.605625" id="Stroke-43" stroke="#9F9E9E" stroke-width="1.09373157" mask="url(#mask-2)"></line>
                        <line x1="24.0330116" y1="340.975069" x2="11.404214" y2="353.605625" id="Stroke-44" stroke="#9F9E9E" stroke-width="1.09373157" mask="url(#mask-2)"></line>
                        <path d="M455.866223,177.608265 L454.832673,174.567659 C454.597521,173.878903 454.440752,173.251743 454.283984,172.640261 L454.252631,172.640261 C454.095862,173.267422 453.924537,173.910261 453.719619,174.55198 L452.686068,177.608265 L455.866223,177.608265 Z M452.403886,178.673318 L451.307628,181.996146 L449.896714,181.996146 L453.484466,171.434098 L455.130532,171.434098 L458.733961,181.996146 L457.277137,181.996146 L456.148406,178.673318 L452.403886,178.673318 Z" id="Fill-45" fill="#020303" mask="url(#mask-2)"></path>
                        <path d="M467.164507,44.0873384 L466.130956,41.0467319 C465.895804,40.3579757 465.739036,39.7308156 465.582268,39.1193345 L465.550914,39.1193345 C465.394146,39.7464946 465.222821,40.3893337 465.017902,41.0310529 L463.984352,44.0873384 L467.164507,44.0873384 Z M463.702169,45.1523906 L462.605912,48.4752191 L461.194998,48.4752191 L464.78275,37.9131713 L466.428816,37.9131713 L470.032245,48.4752191 L468.57542,48.4752191 L467.446689,45.1523906 L463.702169,45.1523906 Z" id="Fill-46" fill="#020303" mask="url(#mask-2)"></path>
                    </g>
                    <text id="1" font-family="LucidaGrande, Lucida Grande" font-size="8.92244337" font-weight="normal" fill="#020303">
                        <tspan x="442.977609" y="41.811947">1</tspan>
                    </text>
                    <text id="/" font-family="LucidaGrande, Lucida Grande" font-size="15.3043671" font-weight="normal" fill="#020303">
                        <tspan x="446.258803" y="45.6244839">/</tspan>
                    </text>
                    <text id="3" font-family="LucidaGrande, Lucida Grande" font-size="8.92244337" font-weight="normal" fill="#020303">
                        <tspan x="450.63373" y="52.7492627">3</tspan>
                    </text>
                    <path d="M389.82583,360.762562 L388.80263,357.613923 C388.568724,356.900695 388.415743,356.251252 388.259436,355.618046 L388.229505,355.618046 C388.073199,356.267488 387.902481,356.933168 387.700723,357.597687 L386.676415,360.762562 L389.82583,360.762562 Z M386.397058,361.865455 L385.312888,365.306343 L383.916104,365.306343 L387.469034,354.369027 L389.097507,354.369027 L392.665957,365.306343 L391.222613,365.306343 L390.105186,361.865455 L386.397058,361.865455 Z" id="Fill-48" fill="#020303"></path>
                    <text id="1" font-family="LucidaGrande, Lucida Grande" font-size="8.92244337" font-weight="normal" fill="#020303">
                        <tspan x="364.228936" y="357.90037">1</tspan>
                    </text>
                    <text id="/" font-family="LucidaGrande, Lucida Grande" font-size="15.3043671" font-weight="normal" fill="#020303">
                        <tspan x="368.603862" y="361.712907">/</tspan>
                    </text>
                    <text id="3" font-family="LucidaGrande, Lucida Grande" font-size="8.92244337" font-weight="normal" fill="#020303">
                        <tspan x="371.885057" y="368.837685">3</tspan>
                    </text>
                    <path d="M58.4262737,359.66883 L57.4019656,356.520191 C57.1691683,355.806964 57.0150786,355.157521 56.8587719,354.524314 L56.8288408,354.524314 C56.672534,355.173757 56.5029246,355.839436 56.3011669,356.503955 L55.2768589,359.66883 L58.4262737,359.66883 Z M54.9975021,360.771723 L53.9122233,364.212612 L52.5154395,364.212612 L56.0683696,353.275296 L57.6968421,353.275296 L61.2652921,364.212612 L59.8219489,364.212612 L58.7056304,360.771723 L54.9975021,360.771723 Z" id="Fill-50" fill="#020303"></path>
                    <text id="1" font-family="LucidaGrande, Lucida Grande" font-size="8.92244337" font-weight="normal" fill="#020303">
                        <tspan x="33.9220029" y="356.806638">1</tspan>
                    </text>
                    <text id="/" font-family="LucidaGrande, Lucida Grande" font-size="15.3043671" font-weight="normal" fill="#020303">
                        <tspan x="37.2031976" y="360.619175">/</tspan>
                    </text>
                    <text id="3" font-family="LucidaGrande, Lucida Grande" font-size="8.92244337" font-weight="normal" fill="#020303">
                        <tspan x="41.5781239" y="367.743954">3</tspan>
                    </text>
                    <g id="Group-54" transform="translate(460.477314, 286.557670)">
                        <mask id="mask-4" fill="white">
                            <use xlink:href="#path-3"></use>
                        </mask>
                        <g id="Clip-53"></g>
                        <path d="M6.77654204,6.70019958 L5.7670278,3.73071837 C5.53734417,3.05807346 5.38422175,2.44558378 5.23109934,1.84840635 L5.20047485,1.84840635 C5.04735243,2.46089602 4.8800115,3.08869794 4.67985863,3.71540613 L3.67034439,6.70019958 L6.77654204,6.70019958 Z M3.39472404,7.74033829 L2.32396083,10.9854399 L0.945859059,10.9854399 L4.450175,0.67045745 L6.0579604,0.67045745 L9.57758858,10.9854399 L8.15464381,10.9854399 L7.05216239,7.74033829 L3.39472404,7.74033829 Z" id="Fill-52" fill="#020303" mask="url(#mask-4)"></path>
                    </g>
                    <text id="1" font-family="LucidaGrande, Lucida Grande" font-size="8.92244337" font-weight="normal" fill="#020303">
                        <tspan x="442.977609" y="291.182744">1</tspan>
                    </text>
                    <text id="/" font-family="LucidaGrande, Lucida Grande" font-size="15.3043671" font-weight="normal" fill="#020303">
                        <tspan x="446.258803" y="294.995281">/</tspan>
                    </text>
                    <text id="3" font-family="LucidaGrande, Lucida Grande" font-size="8.92244337" font-weight="normal" fill="#020303">
                        <tspan x="450.63373" y="302.12006">3</tspan>
                    </text>
                    <g id="Group-68" transform="translate(0.016324, 0.000000)">
                        <mask id="mask-6" fill="white">
                            <use xlink:href="#path-5"></use>
                        </mask>
                        <g id="Clip-56"></g>
                        <polygon id="Fill-55" fill="#DDDDDD" mask="url(#mask-6)" points="17.7377359 79.1793923 79.62701 79.1793923 79.62701 18.3468955 17.7377359 18.3468955"></polygon>
                        <polygon id="Fill-57" fill="#DDDDDD" mask="url(#mask-6)" points="350.551197 79.1793923 412.441592 79.1793923 412.441592 18.3468955 350.551197 18.3468955"></polygon>
                        <polygon id="Fill-58" fill="#DDDDDD" mask="url(#mask-6)" points="350.551197 325.867487 412.441592 325.867487 412.441592 265.03499 350.551197 265.03499"></polygon>
                        <polygon id="Fill-59" fill="#DDDDDD" mask="url(#mask-6)" points="17.7377359 325.867487 79.62701 325.867487 79.62701 265.03499 17.7377359 265.03499"></polygon>
                        <line x1="-0.00056046941" y1="17.8244112" x2="449.972305" y2="17.8244112" id="Stroke-60" stroke="#9F9E9E" stroke-width="1.09373157" mask="url(#mask-6)"></line>
                        <line x1="412.44148" y1="0.942107593" x2="412.44148" y2="365.422784" id="Stroke-61" stroke="#9F9E9E" stroke-width="1.09373157" mask="url(#mask-6)"></line>
                        <line x1="350.552318" y1="0.942107593" x2="350.552318" y2="365.422784" id="Stroke-62" stroke="#9F9E9E" stroke-width="1.09373157" mask="url(#mask-6)"></line>
                        <line x1="-0.00056046941" y1="325.618178" x2="449.972305" y2="325.618178" id="Stroke-63" stroke="#9F9E9E" stroke-width="1.09373157" mask="url(#mask-6)"></line>
                        <line x1="-0.00056046941" y1="264.263757" x2="449.972305" y2="264.263757" id="Stroke-64" stroke="#9F9E9E" stroke-width="1.09373157" mask="url(#mask-6)"></line>
                        <line x1="79.6266737" y1="0.942107593" x2="79.6266737" y2="365.422784" id="Stroke-65" stroke="#9F9E9E" stroke-width="1.09373157" mask="url(#mask-6)"></line>
                        <line x1="17.7363907" y1="0.942107593" x2="17.7363907" y2="365.422784" id="Stroke-66" stroke="#9F9E9E" stroke-width="1.09373157" mask="url(#mask-6)"></line>
                        <line x1="449.972081" y1="79.1789441" x2="-0.000784657173" y2="79.1789441" id="Stroke-67" stroke="#9F9E9E" stroke-width="1.09373157" mask="url(#mask-6)"></line>
                    </g>
                </g>
            </g>
        </g>
    </g>
</svg>