<?xml version="1.0" encoding="UTF-8"?>
<svg width="202px" height="182px" viewBox="0 0 202 182" version="1.1" xmlns="http://www.w3.org/2000/svg" xmlns:xlink="http://www.w3.org/1999/xlink">
    <!-- Generator: Sketch 63.1 (92452) - https://sketch.com -->
    <title>Group 5</title>
    <desc>Created with Sketch.</desc>
    <g id="Кейс" stroke="none" stroke-width="1" fill="none" fill-rule="evenodd">
        <g id="Bee-games-XL" transform="translate(-410.000000, -2617.000000)" fill="#D6D6D6" fill-rule="nonzero">
            <g id="Group-5" transform="translate(410.000000, 2617.000000)">
                <path d="M171.823242,181.706055 C183.35319,181.706055 191.139648,179.740723 195.182617,175.810059 C199.225586,171.879395 201.24707,164.486003 201.24707,153.629883 L201.24707,153.629883 L201.24707,112.750977 L129.259766,112.750977 L129.259766,132.96582 L174.40625,132.96582 L174.40625,159.357422 L88.15625,159.357422 L88.15625,84.2255859 L174.40625,84.2255859 L174.40625,97.4775391 L201.24707,92.6484375 L201.24707,89.953125 C201.24707,79.7708333 199.188151,72.7330729 195.070312,68.8398438 C190.952474,64.9466146 183.203451,63 171.823242,63 L171.823242,63 L89.953125,63 C78.4231771,63 70.6367188,64.9840495 66.59375,68.9521484 C62.5507812,72.9202474 60.5292969,80.2949219 60.5292969,91.0761719 L60.5292969,91.0761719 L60.5292969,153.629883 C60.5292969,164.486003 62.5507812,171.879395 66.59375,175.810059 C70.6367188,179.740723 78.4231771,181.706055 89.953125,181.706055 L89.953125,181.706055 L171.823242,181.706055 Z" id="G"></path>
                <path d="M94.3359375,118.706055 C106.090495,118.706055 114.85026,116.796875 120.615234,112.978516 C126.380208,109.160156 129.262695,103.320312 129.262695,95.4589844 L129.262695,95.4589844 L129.262695,80.2978516 C129.262695,73.9339193 127.409668,68.7679036 123.703613,64.7998047 C119.997559,60.8317057 114.737956,58.3984375 107.924805,57.5 C114.513346,56.6764323 119.567057,54.5613607 123.085938,51.1547852 C126.604818,47.7482096 128.364258,43.1998698 128.364258,37.5097656 L128.364258,37.5097656 L128.364258,23.0224609 C128.364258,15.0113932 126.267904,9.17154948 122.075195,5.50292969 C117.882487,1.8343099 111.106771,0 101.748047,0 L101.748047,0 L0,0 L0,118.706055 L94.3359375,118.706055 Z M90.1806641,47.6171875 L27.1777344,47.6171875 L27.1777344,19.3164062 L90.1806641,19.3164062 C94.9723307,19.3164062 98.285319,19.9715169 100.119629,21.2817383 C101.953939,22.5919596 102.871094,24.781901 102.871094,27.8515625 L102.871094,27.8515625 L102.871094,39.0820312 C102.871094,42.2265625 101.953939,44.4352214 100.119629,45.7080078 C98.285319,46.9807943 94.9723307,47.6171875 90.1806641,47.6171875 L90.1806641,47.6171875 Z M90.1806641,97.3681641 L27.1777344,97.3681641 L27.1777344,67.1582031 L90.1806641,67.1582031 C95.4215495,67.1582031 98.9591471,67.9256185 100.793457,69.4604492 C102.627767,70.9952799 103.544922,73.7467448 103.544922,77.7148438 L103.544922,77.7148438 L103.544922,86.6992188 C103.544922,90.6673177 102.627767,93.4375 100.793457,95.0097656 C98.9591471,96.5820312 95.4215495,97.3681641 90.1806641,97.3681641 L90.1806641,97.3681641 Z" id="B"></path>
            </g>
        </g>
    </g>
</svg>