<?xml version="1.0" encoding="UTF-8"?>
<svg width="561px" height="302px" viewBox="0 0 561 302" version="1.1" xmlns="http://www.w3.org/2000/svg" xmlns:xlink="http://www.w3.org/1999/xlink">
    <!-- Generator: Sketch 63.1 (92452) - https://sketch.com -->
    <title>Group 13</title>
    <desc>Created with Sketch.</desc>
    <g id="Кейс" stroke="none" stroke-width="1" fill="none" fill-rule="evenodd" opacity="0.800000012" stroke-opacity="0.1">
        <g id="Bee-games-XL" transform="translate(-879.000000, -4507.000000)" stroke="#C3C3C3" stroke-width="10">
            <g id="Group-13" transform="translate(885.000000, 4512.000000)">
                <polygon id="Path" points="323 175.5 356.249796 234 422.750204 234 456 175.5 422.750204 117 356.249796 117"></polygon>
                <polygon id="Path-Copy-6" points="110 197.5 143.249796 256 209.750204 256 243 197.5 209.750204 139 143.249796 139"></polygon>
                <polygon id="Path-Copy-7" points="0 116.5 33.2497956 175 99.7502044 175 133 116.5 99.7502044 58 33.2497956 58"></polygon>
                <polygon id="Path-Copy-5" points="126 58.5 159.249796 117 225.750204 117 259 58.5 225.750204 0 159.249796 0"></polygon>
                <polygon id="Path-Copy-2" points="422 233.5 454.999797 292 521.000203 292 554 233.5 521.000203 175 454.999797 175"></polygon>
                <polygon id="Path-Copy-4" points="422 116.5 455.249796 175 521.750204 175 555 116.5 521.750204 58 455.249796 58"></polygon>
                <polygon id="Path-Copy-3" points="223 119.5 256.249796 178 322.750204 178 356 119.5 322.750204 61 256.249796 61"></polygon>
            </g>
        </g>
    </g>
</svg>