<?xml version="1.0" encoding="UTF-8"?>
<svg width="1440px" height="1024px" viewBox="0 0 1440 1024" version="1.1" xmlns="http://www.w3.org/2000/svg" xmlns:xlink="http://www.w3.org/1999/xlink">
    <!-- Generator: Sketch 63.1 (92452) - https://sketch.com -->
    <title>Zlata-trade main + Rectangle Mask + honeycomb-34984 Mask</title>
    <desc>Created with Sketch.</desc>
    <defs>
        <rect id="path-1" x="0" y="0" width="1440" height="1024"></rect>
    </defs>
    <g id="Кейс" stroke="none" stroke-width="1" fill="none" fill-rule="evenodd">
        <g id="Bee-games-XL">
            <g id="Group-4">
                <g id="Zlata-trade-main-+-Rectangle-Mask-+-honeycomb-34984-Mask">
                    <mask id="mask-2" fill="white">
                        <use xlink:href="#path-1"></use>
                    </mask>
                    <use id="Mask" fill="#1E1E1E" xlink:href="#path-1"></use>
                    <g id="honeycomb-34984" opacity="0.300000012" mask="url(#mask-2)" stroke-opacity="0.1">
                        <g transform="translate(-2691.000000, -3015.000000)" id="Group">
                            <g transform="translate(2492.052104, 2895.360016)">
                                <polygon id="Path" stroke="#000000" stroke-width="5.92820132" points="0 104.012692 59.1314945 208.025384 177.395937 208.025384 236.527432 104.012692 177.395937 0 59.1314945 0"></polygon>
                            </g>
                            <g transform="translate(2669.532105, 2999.760016)">
                                <polygon id="Path" stroke="#FFFFFF" stroke-width="5.92820132" points="0 104.012692 59.1314945 208.025384 177.395937 208.025384 236.527432 104.012692 177.395937 0 59.1314945 0"></polygon>
                            </g>
                            <g transform="translate(2847.012106, 2895.360016)">
                                <polygon id="Path" stroke="#FFFFFF" stroke-width="5.92820132" points="0 104.012692 59.1314945 208.025384 177.395937 208.025384 236.527432 104.012692 177.395937 0 59.1314945 0"></polygon>
                            </g>
                            <g transform="translate(3026.232107, 2999.760016)">
                                <polygon id="Path" stroke="#FFFFFF" stroke-width="5.92820132" points="0 104.012692 59.1314945 208.025384 177.395937 208.025384 236.527432 104.012692 177.395937 0 59.1314945 0"></polygon>
                            </g>
                            <g transform="translate(3203.712108, 2895.360016)">
                                <polygon id="Path" stroke="#E7E7E7" stroke-width="5.92820132" points="0 104.012692 59.1314945 208.025384 177.395937 208.025384 236.527432 104.012692 177.395937 0 59.1314945 0"></polygon>
                            </g>
                            <g transform="translate(3381.192109, 2999.760016)">
                                <polygon id="Path" stroke="#000000" stroke-width="5.92820132" points="0 104.012692 59.1314945 208.025384 177.395937 208.025384 236.527432 104.012692 177.395937 0 59.1314945 0"></polygon>
                            </g>
                            <g transform="translate(3558.672110, 2895.360016)">
                                <polygon id="Path" stroke="#000000" stroke-width="5.92820132" points="0 104.012692 59.1314945 208.025384 177.395937 208.025384 236.527432 104.012692 177.395937 0 59.1314945 0"></polygon>
                            </g>
                            <g transform="translate(3737.892111, 2999.760016)">
                                <polygon id="Path" stroke="#000000" stroke-width="5.92820132" points="0 104.012692 59.1314945 208.025384 177.395937 208.025384 236.527432 104.012692 177.395937 0 59.1314945 0"></polygon>
                            </g>
                            <g transform="translate(3915.372112, 2895.360016)">
                                <polygon id="Path" stroke="#000000" stroke-width="5.92820132" points="0 104.012692 59.1314945 208.025384 177.395937 208.025384 236.527432 104.012692 177.395937 0 59.1314945 0"></polygon>
                            </g>
                            <g transform="translate(4092.852113, 2999.760016)">
                                <polygon id="Path" stroke="#000000" stroke-width="5.92820132" points="0 104.012692 59.1314945 208.025384 177.395937 208.025384 236.527432 104.012692 177.395937 0 59.1314945 0"></polygon>
                            </g>
                            <g transform="translate(2492.052104, 3104.160017)">
                                <polygon id="Path" stroke="#000000" stroke-width="5.92820132" points="0 104.012692 59.1314945 208.025384 177.395937 208.025384 236.527432 104.012692 177.395937 0 59.1314945 0"></polygon>
                            </g>
                            <g transform="translate(2669.532105, 3208.560018)">
                                <polygon id="Path" stroke="#FFFFFF" stroke-width="5.92820132" points="0 104.012692 59.1314945 208.025384 177.395937 208.025384 236.527432 104.012692 177.395937 0 59.1314945 0"></polygon>
                            </g>
                            <g transform="translate(2847.012106, 3104.160017)">
                                <polygon id="Path" stroke="#FFFFFF" stroke-width="5.92820132" points="0 104.012692 59.1314945 208.025384 177.395937 208.025384 236.527432 104.012692 177.395937 0 59.1314945 0"></polygon>
                            </g>
                            <g transform="translate(3026.232107, 3208.560018)">
                                <polygon id="Path" stroke="#000000" stroke-width="5.92820132" points="0 104.012692 59.1314945 208.025384 177.395937 208.025384 236.527432 104.012692 177.395937 0 59.1314945 0"></polygon>
                            </g>
                            <g transform="translate(3203.712108, 3104.160017)">
                                <polygon id="Path" stroke="#000000" stroke-width="5.92820132" points="0 104.012692 59.1314945 208.025384 177.395937 208.025384 236.527432 104.012692 177.395937 0 59.1314945 0"></polygon>
                            </g>
                            <g transform="translate(3381.192109, 3208.560018)">
                                <polygon id="Path" stroke="#000000" stroke-width="5.92820132" points="0 104.012692 59.1314945 208.025384 177.395937 208.025384 236.527432 104.012692 177.395937 0 59.1314945 0"></polygon>
                            </g>
                            <g transform="translate(3558.672110, 3104.160017)">
                                <polygon id="Path" stroke="#000000" stroke-width="5.92820132" points="0 104.012692 59.1314945 208.025384 177.395937 208.025384 236.527432 104.012692 177.395937 0 59.1314945 0"></polygon>
                            </g>
                            <g transform="translate(3737.892111, 3208.560018)">
                                <polygon id="Path" stroke="#000000" stroke-width="5.92820132" points="0 104.012692 59.1314945 208.025384 177.395937 208.025384 236.527432 104.012692 177.395937 0 59.1314945 0"></polygon>
                            </g>
                            <g transform="translate(3915.372112, 3104.160017)">
                                <polygon id="Path" stroke="#000000" stroke-width="5.92820132" points="0 104.012692 59.1314945 208.025384 177.395937 208.025384 236.527432 104.012692 177.395937 0 59.1314945 0"></polygon>
                            </g>
                            <g transform="translate(4092.852113, 3208.560018)">
                                <polygon id="Path" stroke="#000000" stroke-width="5.92820132" points="0 104.012692 59.1314945 208.025384 177.395937 208.025384 236.527432 104.012692 177.395937 0 59.1314945 0"></polygon>
                            </g>
                            <g transform="translate(2492.052104, 3312.960018)">
                                <polygon id="Path" stroke="#000000" stroke-width="5.92820132" points="0 104.012692 59.1314945 208.025384 177.395937 208.025384 236.527432 104.012692 177.395937 0 59.1314945 0"></polygon>
                            </g>
                            <g transform="translate(2669.532105, 3415.620019)">
                                <polygon id="Path" stroke="#000000" stroke-width="5.92820132" points="0 104.012692 59.1314945 208.025384 177.395937 208.025384 236.527432 104.012692 177.395937 0 59.1314945 0"></polygon>
                            </g>
                            <g transform="translate(2847.012106, 3312.960018)">
                                <polygon id="Path" stroke="#000000" stroke-width="5.92820132" points="0 104.012692 59.1314945 208.025384 177.395937 208.025384 236.527432 104.012692 177.395937 0 59.1314945 0"></polygon>
                            </g>
                            <g transform="translate(3026.232107, 3415.620019)">
                                <polygon id="Path" stroke="#000000" stroke-width="5.92820132" points="0 104.012692 59.1314945 208.025384 177.395937 208.025384 236.527432 104.012692 177.395937 0 59.1314945 0"></polygon>
                            </g>
                            <g transform="translate(3203.712108, 3312.960018)">
                                <polygon id="Path" stroke="#000000" stroke-width="5.92820132" points="0 104.012692 59.1314945 208.025384 177.395937 208.025384 236.527432 104.012692 177.395937 0 59.1314945 0"></polygon>
                            </g>
                            <g transform="translate(3381.192109, 3415.620019)">
                                <polygon id="Path" stroke="#000000" stroke-width="5.92820132" points="0 104.012692 59.1314945 208.025384 177.395937 208.025384 236.527432 104.012692 177.395937 0 59.1314945 0"></polygon>
                            </g>
                            <g transform="translate(3558.672110, 3312.960018)">
                                <polygon id="Path" stroke="#000000" stroke-width="5.92820132" points="0 104.012692 59.1314945 208.025384 177.395937 208.025384 236.527432 104.012692 177.395937 0 59.1314945 0"></polygon>
                            </g>
                            <g transform="translate(3737.892111, 3415.620019)">
                                <polygon id="Path" stroke="#000000" stroke-width="5.92820132" points="0 104.012692 59.1314945 208.025384 177.395937 208.025384 236.527432 104.012692 177.395937 0 59.1314945 0"></polygon>
                            </g>
                            <g transform="translate(3915.372112, 3312.960018)">
                                <polygon id="Path" stroke="#000000" stroke-width="5.92820132" points="0 104.012692 59.1314945 208.025384 177.395937 208.025384 236.527432 104.012692 177.395937 0 59.1314945 0"></polygon>
                            </g>
                            <g transform="translate(4092.852113, 3415.620019)">
                                <polygon id="Path" stroke="#000000" stroke-width="5.92820132" points="0 104.012692 59.1314945 208.025384 177.395937 208.025384 236.527432 104.012692 177.395937 0 59.1314945 0"></polygon>
                            </g>
                            <g transform="translate(2492.052104, 3520.020019)">
                                <polygon id="Path" stroke="#000000" stroke-width="5.92820132" points="0 104.012692 59.1314945 208.025384 177.395937 208.025384 236.527432 104.012692 177.395937 0 59.1314945 0"></polygon>
                            </g>
                            <g transform="translate(2669.532105, 3620.940020)">
                                <polygon id="Path" stroke="#000000" stroke-width="5.92820132" points="0 104.012692 59.1314945 208.025384 177.395937 208.025384 236.527432 104.012692 177.395937 0 59.1314945 0"></polygon>
                            </g>
                            <g transform="translate(2847.012106, 3520.020019)">
                                <polygon id="Path" stroke="#000000" stroke-width="5.92820132" points="0 104.012692 59.1314945 208.025384 177.395937 208.025384 236.527432 104.012692 177.395937 0 59.1314945 0"></polygon>
                            </g>
                            <g transform="translate(3026.232107, 3620.940020)">
                                <polygon id="Path" stroke="#000000" stroke-width="5.92820132" points="0 104.012692 59.1314945 208.025384 177.395937 208.025384 236.527432 104.012692 177.395937 0 59.1314945 0"></polygon>
                            </g>
                            <g transform="translate(3203.712108, 3520.020019)">
                                <polygon id="Path" stroke="#000000" stroke-width="5.92820132" points="0 104.012692 59.1314945 208.025384 177.395937 208.025384 236.527432 104.012692 177.395937 0 59.1314945 0"></polygon>
                            </g>
                            <g transform="translate(3381.192109, 3620.940020)">
                                <polygon id="Path" stroke="#000000" stroke-width="5.92820132" points="0 104.012692 59.1314945 208.025384 177.395937 208.025384 236.527432 104.012692 177.395937 0 59.1314945 0"></polygon>
                            </g>
                            <g transform="translate(3558.672110, 3520.020019)">
                                <polygon id="Path" stroke="#000000" stroke-width="5.92820132" points="0 104.012692 59.1314945 208.025384 177.395937 208.025384 236.527432 104.012692 177.395937 0 59.1314945 0"></polygon>
                            </g>
                            <g transform="translate(3737.892111, 3620.940020)">
                                <polygon id="Path" stroke="#000000" stroke-width="5.92820132" points="0 104.012692 59.1314945 208.025384 177.395937 208.025384 236.527432 104.012692 177.395937 0 59.1314945 0"></polygon>
                            </g>
                            <g transform="translate(3915.372112, 3520.020019)">
                                <polygon id="Path" stroke="#000000" stroke-width="5.92820132" points="0 104.012692 59.1314945 208.025384 177.395937 208.025384 236.527432 104.012692 177.395937 0 59.1314945 0"></polygon>
                            </g>
                            <g transform="translate(4092.852113, 3620.940020)">
                                <polygon id="Path" stroke="#000000" stroke-width="5.92820132" points="0 104.012692 59.1314945 208.025384 177.395937 208.025384 236.527432 104.012692 177.395937 0 59.1314945 0"></polygon>
                            </g>
                            <g transform="translate(2492.052104, 3723.600020)">
                                <polygon id="Path" stroke="#000000" stroke-width="5.92820132" points="0 104.012692 59.1314945 208.025384 177.395937 208.025384 236.527432 104.012692 177.395937 0 59.1314945 0"></polygon>
                            </g>
                            <g transform="translate(2669.532105, 3828.000021)">
                                <polygon id="Path" stroke="#000000" stroke-width="5.92820132" points="0 104.012692 59.1314945 208.025384 177.395937 208.025384 236.527432 104.012692 177.395937 0 59.1314945 0"></polygon>
                            </g>
                            <g transform="translate(2847.012106, 3723.600020)">
                                <polygon id="Path" stroke="#000000" stroke-width="5.92820132" points="0 104.012692 59.1314945 208.025384 177.395937 208.025384 236.527432 104.012692 177.395937 0 59.1314945 0"></polygon>
                            </g>
                            <g transform="translate(3026.232107, 3828.000021)">
                                <polygon id="Path" stroke="#000000" stroke-width="5.92820132" points="0 104.012692 59.1314945 208.025384 177.395937 208.025384 236.527432 104.012692 177.395937 0 59.1314945 0"></polygon>
                            </g>
                            <g transform="translate(3203.712108, 3723.600020)">
                                <polygon id="Path" stroke="#000000" stroke-width="5.92820132" points="0 104.012692 59.1314945 208.025384 177.395937 208.025384 236.527432 104.012692 177.395937 0 59.1314945 0"></polygon>
                            </g>
                            <g transform="translate(3381.192109, 3828.000021)">
                                <polygon id="Path" stroke="#000000" stroke-width="5.92820132" points="0 104.012692 59.1314945 208.025384 177.395937 208.025384 236.527432 104.012692 177.395937 0 59.1314945 0"></polygon>
                            </g>
                            <g transform="translate(3737.892111, 3828.000021)">
                                <polygon id="Path" stroke="#000000" stroke-width="5.92820132" points="0 104.012692 59.1314945 208.025384 177.395937 208.025384 236.527432 104.012692 177.395937 0 59.1314945 0"></polygon>
                            </g>
                            <g transform="translate(3915.372112, 3723.600020)">
                                <polygon id="Path" stroke="#000000" stroke-width="5.92820132" points="0 104.012692 59.1314945 208.025384 177.395937 208.025384 236.527432 104.012692 177.395937 0 59.1314945 0"></polygon>
                            </g>
                            <g transform="translate(4092.852113, 3828.000021)">
                                <polygon id="Path" stroke="#000000" stroke-width="5.92820132" points="0 104.012692 59.1314945 208.025384 177.395937 208.025384 236.527432 104.012692 177.395937 0 59.1314945 0"></polygon>
                            </g>
                        </g>
                    </g>
                </g>
            </g>
        </g>
    </g>
</svg>