<?xml version="1.0" encoding="UTF-8"?>
<svg width="458px" height="114px" viewBox="0 0 458 114" version="1.1" xmlns="http://www.w3.org/2000/svg" xmlns:xlink="http://www.w3.org/1999/xlink">
    <!-- Generator: Sketch 63.1 (92452) - https://sketch.com -->
    <title>gastrobar_font_1</title>
    <desc>Created with Sketch.</desc>
    <g id="Кейс" stroke="none" stroke-width="1" fill="none" fill-rule="evenodd">
        <g id="Портфолио-GastroBar-XL" transform="translate(-776.000000, -3383.000000)" fill="#AFAFAF" fill-rule="nonzero">
            <g id="Group-17" transform="translate(165.000000, 3212.000000)">
                <g id="Group-19" transform="translate(611.000000, 125.000000)">
                    <path d="M5.6,64 L6.425,61.6 L13,61.6 L13.825,64 L18.7,64 L12.4,47.325 L7,47.325 L0.725,64 L5.6,64 Z M11.825,57.85 L7.575,57.85 L9.7,51.575 L11.825,57.85 Z M25.2,64.3 C25.9666667,64.3 26.6875,64.1625 27.3625,63.8875 C28.0375,63.6125 28.5666667,63.25 28.95,62.8 L28.95,62.8 L28.95,64 L32.8,64 L32.8,56.45 C32.8,55.55 32.6458333,54.775 32.3375,54.125 C32.0291667,53.475 31.6041667,52.975 31.0625,52.625 C30.5208333,52.275 29.9291667,52.0208333 29.2875,51.8625 C28.6458333,51.7041667 27.9416667,51.625 27.175,51.625 C24.9916667,51.625 23.1666667,52.25 21.7,53.5 L21.7,53.5 L23.075,55.925 C24.075,55.075 25.2166667,54.65 26.5,54.65 C27.2666667,54.65 27.8666667,54.8083333 28.3,55.125 C28.7333333,55.4416667 28.95,55.8666667 28.95,56.4 L28.95,56.4 L28.95,57.85 C28.2,56.9166667 26.95,56.45 25.2,56.45 C24.1,56.45 23.1333333,56.7625 22.3,57.3875 C21.4666667,58.0125 21.05,58.9916667 21.05,60.325 C21.05,61.5916667 21.4791667,62.5708333 22.3375,63.2625 C23.1958333,63.9541667 24.15,64.3 25.2,64.3 Z M26.8,61.775 C26.25,61.775 25.7916667,61.6541667 25.425,61.4125 C25.0583333,61.1708333 24.875,60.825 24.875,60.375 C24.875,59.925 25.0583333,59.5791667 25.425,59.3375 C25.7916667,59.0958333 26.25,58.975 26.8,58.975 C27.8166667,58.975 28.5333333,59.2583333 28.95,59.825 L28.95,59.825 L28.95,60.9 C28.55,61.4833333 27.8333333,61.775 26.8,61.775 Z M47.45,64 C49.0166667,64 50.225,63.5666667 51.075,62.7 C51.925,61.8333333 52.35,60.7583333 52.35,59.475 C52.35,58.4416667 52.0458333,57.5375 51.4375,56.7625 C50.8291667,55.9875 50.075,55.5333333 49.175,55.4 C49.9916667,55.2166667 50.6708333,54.7833333 51.2125,54.1 C51.7541667,53.4166667 52.025,52.575 52.025,51.575 C52.025,50.425 51.6,49.4291667 50.75,48.5875 C49.9,47.7458333 48.7,47.325 47.15,47.325 L47.15,47.325 L37.7,47.325 L37.7,64 L47.45,64 Z M46.175,53.725 L42,53.725 L42,50.95 L46.175,50.95 C46.6083333,50.95 46.9625,51.0791667 47.2375,51.3375 C47.5125,51.5958333 47.65,51.925 47.65,52.325 C47.65,52.7416667 47.5125,53.0791667 47.2375,53.3375 C46.9625,53.5958333 46.6083333,53.725 46.175,53.725 L46.175,53.725 Z M46.325,60.375 L42,60.375 L42,57.375 L46.325,57.375 C46.8416667,57.375 47.2458333,57.5166667 47.5375,57.8 C47.8291667,58.0833333 47.975,58.4416667 47.975,58.875 C47.975,59.325 47.8291667,59.6875 47.5375,59.9625 C47.2458333,60.2375 46.8416667,60.375 46.325,60.375 L46.325,60.375 Z M64.025,64.3 C65.575,64.3 66.85,63.7375 67.85,62.6125 C68.85,61.4875 69.35,59.9333333 69.35,57.95 C69.35,56.0166667 68.8458333,54.4791667 67.8375,53.3375 C66.8291667,52.1958333 65.5583333,51.625 64.025,51.625 C62.5583333,51.625 61.3666667,52.2 60.45,53.35 L60.45,53.35 L60.45,47.325 L56.6,47.325 L56.6,64 L60.45,64 L60.45,62.6 C61.4333333,63.7333333 62.625,64.3 64.025,64.3 Z M62.75,60.9 C62.3333333,60.9 61.9041667,60.8 61.4625,60.6 C61.0208333,60.4 60.6833333,60.1416667 60.45,59.825 L60.45,59.825 L60.45,56.125 C60.6833333,55.8083333 61.0208333,55.5458333 61.4625,55.3375 C61.9041667,55.1291667 62.3333333,55.025 62.75,55.025 C63.5333333,55.025 64.175,55.2916667 64.675,55.825 C65.175,56.3583333 65.425,57.0666667 65.425,57.95 C65.425,58.85 65.175,59.5666667 64.675,60.1 C64.175,60.6333333 63.5333333,60.9 62.75,60.9 Z M81.65,64.3 C83.4833333,64.3 84.9958333,63.8708333 86.1875,63.0125 C87.3791667,62.1541667 88.2916667,61.0916667 88.925,59.825 L88.925,59.825 L85.225,58.075 C84.9416667,58.7583333 84.4708333,59.3333333 83.8125,59.8 C83.1541667,60.2666667 82.4333333,60.5 81.65,60.5 C80.3,60.5 79.1875,60.0375 78.3125,59.1125 C77.4375,58.1875 77,57.0416667 77,55.675 C77,54.3083333 77.4375,53.1625 78.3125,52.2375 C79.1875,51.3125 80.3,50.85 81.65,50.85 C82.4333333,50.85 83.1541667,51.0833333 83.8125,51.55 C84.4708333,52.0166667 84.9416667,52.5916667 85.225,53.275 L85.225,53.275 L88.925,51.525 C87.425,48.5416667 85,47.05 81.65,47.05 C79.05,47.05 76.8958333,47.85 75.1875,49.45 C73.4791667,51.05 72.625,53.125 72.625,55.675 C72.625,58.2083333 73.4833333,60.2791667 75.2,61.8875 C76.9166667,63.4958333 79.0666667,64.3 81.65,64.3 Z M98.475,64.3 C99.675,64.3 100.695833,64.0833333 101.5375,63.65 C102.379167,63.2166667 103.008333,62.6916667 103.425,62.075 L103.425,62.075 L100.925,59.725 C100.375,60.5083333 99.6166667,60.9 98.65,60.9 C97.8333333,60.9 97.1583333,60.6333333 96.625,60.1 C96.0916667,59.5666667 95.825,58.85 95.825,57.95 C95.825,57.05 96.0916667,56.3375 96.625,55.8125 C97.1583333,55.2875 97.8333333,55.025 98.65,55.025 C99.65,55.025 100.408333,55.4083333 100.925,56.175 L100.925,56.175 L103.425,53.85 C103.008333,53.2333333 102.379167,52.7083333 101.5375,52.275 C100.695833,51.8416667 99.675,51.625 98.475,51.625 C96.575,51.625 95,52.2125 93.75,53.3875 C92.5,54.5625 91.875,56.0833333 91.875,57.95 C91.875,59.8333333 92.5,61.3625 93.75,62.5375 C95,63.7125 96.575,64.3 98.475,64.3 Z M114.3,64 C116.95,64 119.1125,63.2458333 120.7875,61.7375 C122.4625,60.2291667 123.3,58.2 123.3,55.65 C123.3,53.1 122.4625,51.075 120.7875,49.575 C119.1125,48.075 116.941667,47.325 114.275,47.325 L114.275,47.325 L107.275,47.325 L107.275,64 L114.3,64 Z M114.275,60.25 L111.575,60.25 L111.575,51.075 L114.3,51.075 C115.766667,51.075 116.9,51.5 117.7,52.35 C118.5,53.2 118.9,54.3 118.9,55.65 C118.9,56.9333333 118.483333,58.0208333 117.65,58.9125 C116.816667,59.8041667 115.691667,60.25 114.275,60.25 L114.275,60.25 Z M131.9,64.3 C133.3,64.3 134.491667,63.7333333 135.475,62.6 L135.475,62.6 L135.475,64 L139.3,64 L139.3,47.325 L135.475,47.325 L135.475,53.35 C134.541667,52.2 133.35,51.625 131.9,51.625 C130.35,51.625 129.070833,52.1958333 128.0625,53.3375 C127.054167,54.4791667 126.55,56.0166667 126.55,57.95 C126.55,59.9333333 127.054167,61.4875 128.0625,62.6125 C129.070833,63.7375 130.35,64.3 131.9,64.3 Z M133.15,60.9 C132.383333,60.9 131.75,60.6291667 131.25,60.0875 C130.75,59.5458333 130.5,58.8333333 130.5,57.95 C130.5,57.0666667 130.745833,56.3583333 131.2375,55.825 C131.729167,55.2916667 132.366667,55.025 133.15,55.025 C133.566667,55.025 133.995833,55.125 134.4375,55.325 C134.879167,55.525 135.225,55.7833333 135.475,56.1 L135.475,56.1 L135.475,59.8 C135.225,60.1166667 134.879167,60.3791667 134.4375,60.5875 C133.995833,60.7958333 133.566667,60.9 133.15,60.9 Z M156.45,64 L156.45,60.25 L148.525,60.25 L148.525,57.425 L156.275,57.425 L156.275,53.675 L148.525,53.675 L148.525,51.075 L156.45,51.075 L156.45,47.325 L144.225,47.325 L144.225,64 L156.45,64 Z M166.65,64.3 C167.616667,64.3 168.554167,64.1625 169.4625,63.8875 C170.370833,63.6125 171.116667,63.2166667 171.7,62.7 L171.7,62.7 L170.075,60.3 C169.758333,60.6 169.295833,60.8458333 168.6875,61.0375 C168.079167,61.2291667 167.541667,61.325 167.075,61.325 C166.241667,61.325 165.558333,61.1166667 165.025,60.7 C164.491667,60.2833333 164.166667,59.775 164.05,59.175 L164.05,59.175 L172.65,59.175 L172.65,58.35 C172.65,56.3166667 172.075,54.6875 170.925,53.4625 C169.775,52.2375 168.291667,51.625 166.475,51.625 C164.608333,51.625 163.070833,52.2333333 161.8625,53.45 C160.654167,54.6666667 160.05,56.1666667 160.05,57.95 C160.05,59.8666667 160.675,61.4041667 161.925,62.5625 C163.175,63.7208333 164.75,64.3 166.65,64.3 Z M168.975,56.675 L164,56.675 C164.1,56.125 164.35,55.6416667 164.75,55.225 C165.15,54.8083333 165.725,54.6 166.475,54.6 C167.275,54.6 167.875,54.8125 168.275,55.2375 C168.675,55.6625 168.908333,56.1416667 168.975,56.675 L168.975,56.675 Z M180.95,64 L180.95,57.425 L188.7,57.425 L188.7,53.675 L180.95,53.675 L180.95,51.075 L188.875,51.075 L188.875,47.325 L176.65,47.325 L176.65,64 L180.95,64 Z M197.775,64 L197.775,55.275 L200.225,55.275 L200.225,51.925 L197.775,51.925 L197.775,51.325 C197.775,50.9083333 197.9,50.5833333 198.15,50.35 C198.4,50.1166667 198.716667,50 199.1,50 C199.6,50 200,50.1583333 200.3,50.475 L200.3,50.475 L201.725,48.275 C200.941667,47.475 199.783333,47.075 198.25,47.075 C196.983333,47.075 195.945833,47.4666667 195.1375,48.25 C194.329167,49.0333333 193.925,50.0583333 193.925,51.325 L193.925,51.325 L193.925,51.925 L191.925,51.925 L191.925,55.275 L193.925,55.275 L193.925,64 L197.775,64 Z M212.1,64.3 C215.05,64.3 217.508333,63.2166667 219.475,61.05 L219.475,61.05 L219.475,54.425 L211.425,54.425 L211.425,58.2 L215.175,58.2 L215.175,59.5 C214.858333,59.7666667 214.4125,60 213.8375,60.2 C213.2625,60.4 212.683333,60.5 212.1,60.5 C210.75,60.5 209.6375,60.0375 208.7625,59.1125 C207.8875,58.1875 207.45,57.0416667 207.45,55.675 C207.45,54.3083333 207.8875,53.1625 208.7625,52.2375 C209.6375,51.3125 210.75,50.85 212.1,50.85 C212.866667,50.85 213.5625,51.0541667 214.1875,51.4625 C214.8125,51.8708333 215.291667,52.375 215.625,52.975 L215.625,52.975 L219.225,51.1 C218.575,49.9333333 217.658333,48.9666667 216.475,48.2 C215.291667,47.4333333 213.833333,47.05 212.1,47.05 C209.55,47.05 207.408333,47.8416667 205.675,49.425 C203.941667,51.0083333 203.075,53.0916667 203.075,55.675 C203.075,58.2583333 203.941667,60.3416667 205.675,61.925 C207.408333,63.5083333 209.55,64.3 212.1,64.3 Z M228.925,68.9 C229.575,68.9 230.2,68.8541667 230.8,68.7625 C231.4,68.6708333 232.016667,68.4875 232.65,68.2125 C233.283333,67.9375 233.825,67.5875 234.275,67.1625 C234.725,66.7375 235.095833,66.1625 235.3875,65.4375 C235.679167,64.7125 235.825,63.875 235.825,62.925 L235.825,62.925 L235.825,51.925 L232,51.925 L232,53.35 C231.066667,52.2 229.875,51.625 228.425,51.625 C226.858333,51.625 225.579167,52.1541667 224.5875,53.2125 C223.595833,54.2708333 223.1,55.7666667 223.1,57.7 C223.1,59.65 223.6,61.1541667 224.6,62.2125 C225.6,63.2708333 226.875,63.8 228.425,63.8 C229.808333,63.8 231,63.2166667 232,62.05 L232,62.05 L232,62.975 C232,63.9916667 231.6875,64.7083333 231.0625,65.125 C230.4375,65.5416667 229.725,65.75 228.925,65.75 C227.341667,65.75 226.116667,65.2833333 225.25,64.35 L225.25,64.35 L223.575,67.1 C225.041667,68.3 226.825,68.9 228.925,68.9 Z M229.7,60.4 C228.916667,60.4 228.279167,60.1666667 227.7875,59.7 C227.295833,59.2333333 227.05,58.5666667 227.05,57.7 C227.05,56.85 227.295833,56.1916667 227.7875,55.725 C228.279167,55.2583333 228.916667,55.025 229.7,55.025 C230.116667,55.025 230.545833,55.125 230.9875,55.325 C231.429167,55.525 231.766667,55.7833333 232,56.1 L232,56.1 L232,59.325 C231.766667,59.6416667 231.429167,59.9 230.9875,60.1 C230.545833,60.3 230.116667,60.4 229.7,60.4 Z M245.05,64 L245.05,57.3 L251.975,57.3 L251.975,64 L256.275,64 L256.275,47.325 L251.975,47.325 L251.975,53.55 L245.05,53.55 L245.05,47.325 L240.75,47.325 L240.75,64 L245.05,64 Z M265.05,64 L265.05,56.2 C265.683333,55.4166667 266.458333,55.025 267.375,55.025 C268.708333,55.025 269.375,55.675 269.375,56.975 L269.375,56.975 L269.375,64 L273.225,64 L273.225,55.4 C273.225,54.2333333 272.891667,53.3125 272.225,52.6375 C271.558333,51.9625 270.558333,51.625 269.225,51.625 C267.458333,51.625 266.066667,52.2166667 265.05,53.4 L265.05,53.4 L265.05,47.325 L261.2,47.325 L261.2,64 L265.05,64 Z M282.425,64 L282.425,47.325 L278.125,47.325 L278.125,64 L282.425,64 Z M289.25,50.85 C289.866667,50.85 290.383333,50.6333333 290.8,50.2 C291.233333,49.7666667 291.45,49.2416667 291.45,48.625 C291.45,48.0083333 291.2375,47.4875 290.8125,47.0625 C290.3875,46.6375 289.866667,46.425 289.25,46.425 C288.633333,46.425 288.1125,46.6375 287.6875,47.0625 C287.2625,47.4875 287.05,48.0083333 287.05,48.625 C287.05,49.2416667 287.2625,49.7666667 287.6875,50.2 C288.1125,50.6333333 288.633333,50.85 289.25,50.85 Z M291.175,64 L291.175,51.925 L287.325,51.925 L287.325,64 L291.175,64 Z M299.225,64.3 C301.125,64.3 302.625,63.7958333 303.725,62.7875 C304.825,61.7791667 305.375,60.275 305.375,58.275 L305.375,58.275 L305.375,47.325 L301.075,47.325 L301.075,58.225 C301.075,58.925 300.875,59.4791667 300.475,59.8875 C300.075,60.2958333 299.533333,60.5 298.85,60.5 C298.033333,60.5 297.233333,60.175 296.45,59.525 L296.45,59.525 L294.65,62.8 C295.783333,63.8 297.308333,64.3 299.225,64.3 Z M312.2,50.85 C312.816667,50.85 313.333333,50.6333333 313.75,50.2 C314.183333,49.7666667 314.4,49.2416667 314.4,48.625 C314.4,48.0083333 314.1875,47.4875 313.7625,47.0625 C313.3375,46.6375 312.816667,46.425 312.2,46.425 C311.583333,46.425 311.0625,46.6375 310.6375,47.0625 C310.2125,47.4875 310,48.0083333 310,48.625 C310,49.2416667 310.2125,49.7666667 310.6375,50.2 C311.0625,50.6333333 311.583333,50.85 312.2,50.85 Z M309.45,68.9 C311,68.9 312.166667,68.45 312.95,67.55 C313.733333,66.65 314.125,65.4333333 314.125,63.9 L314.125,63.9 L314.125,51.925 L310.275,51.925 L310.275,63.9 C310.275,65.1333333 309.783333,65.75 308.8,65.75 C308.216667,65.75 307.7,65.575 307.25,65.225 L307.25,65.225 L306.275,68.05 C306.775,68.3666667 307.233333,68.5875 307.65,68.7125 C308.066667,68.8375 308.666667,68.9 309.45,68.9 Z M323.325,64 L323.325,59.125 L324.45,57.725 L328.825,64 L334.1,64 L327.275,55.125 L333.75,47.325 L328.45,47.325 L323.325,54.175 L323.325,47.325 L319.025,47.325 L319.025,64 L323.325,64 Z M341.125,64 L341.125,61.1 L342.275,59.725 L344.925,64 L349.675,64 L345,57.425 L349.45,51.925 L344.8,51.925 L341.125,56.75 L341.125,47.325 L337.275,47.325 L337.275,64 L341.125,64 Z M364.025,64 L364.025,60.25 L357.325,60.25 L357.325,47.325 L353.025,47.325 L353.025,64 L364.025,64 Z M372,64 L372,47.325 L368.15,47.325 L368.15,64 L372,64 Z M381.2,64 L381.2,53.15 L385.4,64 L387.3,64 L391.525,53.15 L391.525,64 L395.825,64 L395.825,47.325 L389.85,47.325 L386.35,56.375 L382.875,47.325 L376.9,47.325 L376.9,64 L381.2,64 Z M404.575,64 L404.575,56.2 C405.208333,55.4166667 405.925,55.025 406.725,55.025 C407.791667,55.025 408.325,55.5666667 408.325,56.65 L408.325,56.65 L408.325,64 L412.175,64 L412.175,56.2 C412.758333,55.4166667 413.483333,55.025 414.35,55.025 C415.416667,55.025 415.95,55.5666667 415.95,56.65 L415.95,56.65 L415.95,64 L419.775,64 L419.775,55.25 C419.775,54.05 419.458333,53.1458333 418.825,52.5375 C418.191667,51.9291667 417.3,51.625 416.15,51.625 C415.266667,51.625 414.445833,51.8375 413.6875,52.2625 C412.929167,52.6875 412.358333,53.1916667 411.975,53.775 C411.475,52.3416667 410.333333,51.625 408.55,51.625 C407.683333,51.625 406.883333,51.8166667 406.15,52.2 C405.416667,52.5833333 404.891667,52.9833333 404.575,53.4 L404.575,53.4 L404.575,51.925 L400.725,51.925 L400.725,64 L404.575,64 Z M429,64 L429,54.35 L436.05,64 L440.2,64 L440.2,47.325 L435.875,47.325 L435.875,56.5 L429.125,47.325 L424.7,47.325 L424.7,64 L429,64 Z M448.95,64 L448.95,56.2 C449.583333,55.4166667 450.366667,55.025 451.3,55.025 C452.616667,55.025 453.275,55.6916667 453.275,57.025 L453.275,57.025 L453.275,64 L457.125,64 L457.125,55.45 C457.125,54.2833333 456.791667,53.3541667 456.125,52.6625 C455.458333,51.9708333 454.458333,51.625 453.125,51.625 C451.358333,51.625 449.966667,52.2166667 448.95,53.4 L448.95,53.4 L448.95,51.925 L445.1,51.925 L445.1,64 L448.95,64 Z M10.575,99.3 C13.1416667,99.3 15.2666667,98.4916667 16.95,96.875 C18.6333333,95.2583333 19.475,93.1916667 19.475,90.675 C19.475,88.1583333 18.6333333,86.0916667 16.95,84.475 C15.2666667,82.8583333 13.1416667,82.05 10.575,82.05 C8.00833333,82.05 5.87916667,82.8583333 4.1875,84.475 C2.49583333,86.0916667 1.65,88.1583333 1.65,90.675 C1.65,93.1916667 2.49583333,95.2583333 4.1875,96.875 C5.87916667,98.4916667 8.00833333,99.3 10.575,99.3 Z M10.575,95.5 C9.20833333,95.5 8.10833333,95.0416667 7.275,94.125 C6.44166667,93.2083333 6.025,92.0583333 6.025,90.675 C6.025,89.2916667 6.44166667,88.1416667 7.275,87.225 C8.10833333,86.3083333 9.20833333,85.85 10.575,85.85 C11.925,85.85 13.0166667,86.3083333 13.85,87.225 C14.6833333,88.1416667 15.1,89.2916667 15.1,90.675 C15.1,92.0583333 14.6833333,93.2083333 13.85,94.125 C13.0166667,95.0416667 11.925,95.5 10.575,95.5 Z M29.325,99.3 C31.325,99.3 32.925,98.6833333 34.125,97.45 C35.325,96.2166667 35.925,94.7166667 35.925,92.95 C35.925,91.1833333 35.325,89.6875 34.125,88.4625 C32.925,87.2375 31.325,86.625 29.325,86.625 C27.3416667,86.625 25.75,87.2375 24.55,88.4625 C23.35,89.6875 22.75,91.1833333 22.75,92.95 C22.75,94.7166667 23.35,96.2166667 24.55,97.45 C25.75,98.6833333 27.3416667,99.3 29.325,99.3 Z M29.325,95.9 C28.5083333,95.9 27.8666667,95.625 27.4,95.075 C26.95,94.5083333 26.725,93.8 26.725,92.95 C26.725,92.1166667 26.9541667,91.4208333 27.4125,90.8625 C27.8708333,90.3041667 28.5083333,90.025 29.325,90.025 C30.1416667,90.025 30.7875,90.3041667 31.2625,90.8625 C31.7375,91.4208333 31.975,92.1166667 31.975,92.95 C31.975,93.8 31.7375,94.5041667 31.2625,95.0625 C30.7875,95.6208333 30.1416667,95.9 29.325,95.9 Z M44.35,99 L44.35,93.4 L48.4,93.4 C50.2,93.4 51.6166667,92.8708333 52.65,91.8125 C53.6833333,90.7541667 54.2,89.4416667 54.2,87.875 C54.2,86.2916667 53.6833333,84.9708333 52.65,83.9125 C51.6166667,82.8541667 50.2,82.325 48.4,82.325 L48.4,82.325 L40.05,82.325 L40.05,99 L44.35,99 Z M47.825,89.65 L44.35,89.65 L44.35,86.075 L47.825,86.075 C48.4083333,86.075 48.8875,86.2333333 49.2625,86.55 C49.6375,86.8666667 49.825,87.3083333 49.825,87.875 C49.825,88.425 49.6375,88.8583333 49.2625,89.175 C48.8875,89.4916667 48.4083333,89.65 47.825,89.65 L47.825,89.65 Z M61.875,103.6 L61.875,97.575 C62.8416667,98.725 64.0333333,99.3 65.45,99.3 C67.0166667,99.3 68.2916667,98.7416667 69.275,97.625 C70.2583333,96.5083333 70.75,94.95 70.75,92.95 C70.75,90.9666667 70.2583333,89.4166667 69.275,88.3 C68.2916667,87.1833333 67.0166667,86.625 65.45,86.625 C64,86.625 62.8083333,87.1916667 61.875,88.325 L61.875,88.325 L61.875,86.925 L58.025,86.925 L58.025,103.6 L61.875,103.6 Z M64.175,95.9 C63.7583333,95.9 63.3291667,95.7958333 62.8875,95.5875 C62.4458333,95.3791667 62.1083333,95.1166667 61.875,94.8 L61.875,94.8 L61.875,91.125 C62.1083333,90.8083333 62.4458333,90.5458333 62.8875,90.3375 C63.3291667,90.1291667 63.7583333,90.025 64.175,90.025 C64.9416667,90.025 65.575,90.2916667 66.075,90.825 C66.575,91.3583333 66.825,92.0666667 66.825,92.95 C66.825,93.85 66.575,94.5666667 66.075,95.1 C65.575,95.6333333 64.9416667,95.9 64.175,95.9 Z M87.775,100.125 L90.775,97.725 L89.725,96.45 C91.125,94.8833333 91.825,92.9583333 91.825,90.675 C91.825,88.1583333 90.9833333,86.0916667 89.3,84.475 C87.6166667,82.8583333 85.4916667,82.05 82.925,82.05 C80.3583333,82.05 78.2291667,82.8583333 76.5375,84.475 C74.8458333,86.0916667 74,88.1583333 74,90.675 C74,93.1916667 74.8458333,95.2583333 76.5375,96.875 C78.2291667,98.4916667 80.3583333,99.3 82.925,99.3 C84.175,99.3 85.3833333,99.075 86.55,98.625 L86.55,98.625 L87.775,100.125 Z M82.925,95.5 C81.5583333,95.5 80.4583333,95.0416667 79.625,94.125 C78.7916667,93.2083333 78.375,92.0583333 78.375,90.675 C78.375,89.2916667 78.7916667,88.1416667 79.625,87.225 C80.4583333,86.3083333 81.5583333,85.85 82.925,85.85 C84.275,85.85 85.3666667,86.3083333 86.2,87.225 C87.0333333,88.1416667 87.45,89.2916667 87.45,90.675 C87.45,91.5083333 87.275,92.3 86.925,93.05 L86.925,93.05 L85.35,91.15 L82.375,93.55 L83.9,95.4 C83.6166667,95.4666667 83.2916667,95.5 82.925,95.5 Z M107.825,103.6 L107.825,86.925 L103.975,86.925 L103.975,88.325 C103.041667,87.1916667 101.85,86.625 100.4,86.625 C98.8333333,86.625 97.5583333,87.1833333 96.575,88.3 C95.5916667,89.4166667 95.1,90.9666667 95.1,92.95 C95.1,94.95 95.5916667,96.5083333 96.575,97.625 C97.5583333,98.7416667 98.8333333,99.3 100.4,99.3 C101.833333,99.3 103.025,98.725 103.975,97.575 L103.975,97.575 L103.975,103.6 L107.825,103.6 Z M101.7,95.9 C100.916667,95.9 100.275,95.6333333 99.775,95.1 C99.275,94.5666667 99.025,93.85 99.025,92.95 C99.025,92.0666667 99.275,91.3583333 99.775,90.825 C100.275,90.2916667 100.916667,90.025 101.7,90.025 C102.1,90.025 102.520833,90.1291667 102.9625,90.3375 C103.404167,90.5458333 103.741667,90.8083333 103.975,91.125 L103.975,91.125 L103.975,94.8 C103.758333,95.1166667 103.425,95.3791667 102.975,95.5875 C102.525,95.7958333 102.1,95.9 101.7,95.9 Z M117.025,99 L117.025,93.4 L119.225,93.4 L122.025,99 L126.95,99 L123.55,92.875 C124.45,92.5583333 125.229167,91.9791667 125.8875,91.1375 C126.545833,90.2958333 126.875,89.2083333 126.875,87.875 C126.875,86.275 126.358333,84.95 125.325,83.9 C124.291667,82.85 122.875,82.325 121.075,82.325 L121.075,82.325 L112.725,82.325 L112.725,99 L117.025,99 Z M120.425,89.65 L117.025,89.65 L117.025,86.075 L120.425,86.075 C121.008333,86.075 121.5,86.2333333 121.9,86.55 C122.3,86.8666667 122.5,87.3 122.5,87.85 C122.5,88.4166667 122.3,88.8583333 121.9,89.175 C121.5,89.4916667 121.008333,89.65 120.425,89.65 L120.425,89.65 Z M135,99 L135,91.3 C135.233333,90.9833333 135.629167,90.7208333 136.1875,90.5125 C136.745833,90.3041667 137.291667,90.2 137.825,90.2 C138.158333,90.2 138.475,90.2333333 138.775,90.3 L138.775,90.3 L138.775,86.6 C138.075,86.6 137.375,86.775 136.675,87.125 C135.975,87.475 135.416667,87.9 135,88.4 L135,88.4 L135,86.925 L131.15,86.925 L131.15,99 L135,99 Z M148.825,99.3 C151.025,99.3 152.733333,98.7958333 153.95,97.7875 C155.166667,96.7791667 155.775,95.425 155.775,93.725 C155.775,92.7583333 155.541667,91.925 155.075,91.225 C154.608333,90.525 154.025,90.0083333 153.325,89.675 C152.625,89.3416667 151.870833,89.0541667 151.0625,88.8125 C150.254167,88.5708333 149.5,88.3916667 148.8,88.275 C148.1,88.1583333 147.516667,87.9875 147.05,87.7625 C146.583333,87.5375 146.35,87.2666667 146.35,86.95 C146.35,86.15 146.95,85.75 148.15,85.75 C150,85.75 151.625,86.325 153.025,87.475 L153.025,87.475 L155.375,84.4 C153.575,82.85 151.316667,82.075 148.6,82.075 C146.55,82.075 144.929167,82.5916667 143.7375,83.625 C142.545833,84.6583333 141.95,85.9083333 141.95,87.375 C141.95,88.375 142.183333,89.2333333 142.65,89.95 C143.116667,90.6666667 143.7,91.1875 144.4,91.5125 C145.1,91.8375 145.858333,92.1208333 146.675,92.3625 C147.491667,92.6041667 148.25,92.7791667 148.95,92.8875 C149.65,92.9958333 150.233333,93.1625 150.7,93.3875 C151.166667,93.6125 151.4,93.9 151.4,94.25 C151.4,94.65 151.1875,94.9791667 150.7625,95.2375 C150.3375,95.4958333 149.758333,95.625 149.025,95.625 C146.941667,95.625 145.166667,94.8916667 143.7,93.425 L143.7,93.425 L141.425,96.65 C143.275,98.4166667 145.741667,99.3 148.825,99.3 Z M164.3,99.3 C166,99.3 167.341667,98.9291667 168.325,98.1875 C169.308333,97.4458333 169.8,96.4833333 169.8,95.3 C169.8,94.3833333 169.558333,93.6291667 169.075,93.0375 C168.591667,92.4458333 168.004167,92.0333333 167.3125,91.8 C166.620833,91.5666667 165.933333,91.3875 165.25,91.2625 C164.566667,91.1375 163.983333,91.0125 163.5,90.8875 C163.016667,90.7625 162.775,90.575 162.775,90.325 C162.775,90.075 162.916667,89.8666667 163.2,89.7 C163.483333,89.5333333 163.85,89.45 164.3,89.45 C164.983333,89.45 165.65,89.5791667 166.3,89.8375 C166.95,90.0958333 167.466667,90.4083333 167.85,90.775 L167.85,90.775 L169.325,88.225 C167.858333,87.1583333 166.175,86.625 164.275,86.625 C162.658333,86.625 161.391667,87.0083333 160.475,87.775 C159.558333,88.5416667 159.1,89.4833333 159.1,90.6 C159.1,91.5 159.341667,92.2333333 159.825,92.8 C160.308333,93.3666667 160.895833,93.7583333 161.5875,93.975 C162.279167,94.1916667 162.966667,94.3541667 163.65,94.4625 C164.333333,94.5708333 164.916667,94.6958333 165.4,94.8375 C165.883333,94.9791667 166.125,95.1916667 166.125,95.475 C166.125,96.0916667 165.583333,96.4 164.5,96.4 C163.816667,96.4 163.054167,96.2375 162.2125,95.9125 C161.370833,95.5875 160.716667,95.2166667 160.25,94.8 L160.25,94.8 L158.65,97.45 C159.283333,98.0166667 160.1125,98.4666667 161.1375,98.8 C162.1625,99.1333333 163.216667,99.3 164.3,99.3 Z M180.225,99 L180.225,86.075 L184.875,86.075 L184.875,82.325 L171.25,82.325 L171.25,86.075 L175.925,86.075 L175.925,99 L180.225,99 Z M193.4,99.3 C194.733333,99.3 195.683333,99.0333333 196.25,98.5 L196.25,98.5 L195.5,95.6 C195.333333,95.8 195.008333,95.9 194.525,95.9 C194.191667,95.9 193.929167,95.7875 193.7375,95.5625 C193.545833,95.3375 193.45,95.0416667 193.45,94.675 L193.45,94.675 L193.45,90.275 L195.9,90.275 L195.9,86.925 L193.45,86.925 L193.45,83.625 L189.625,83.625 L189.625,86.925 L187.625,86.925 L187.625,90.275 L189.625,90.275 L189.625,95.75 C189.625,96.9166667 189.945833,97.8 190.5875,98.4 C191.229167,99 192.166667,99.3 193.4,99.3 Z M207.825,99.3 C210.408333,99.3 212.3625,98.6583333 213.6875,97.375 C215.0125,96.0916667 215.675,94.375 215.675,92.225 L215.675,92.225 L215.675,82.325 L211.325,82.325 L211.325,92.1 C211.325,93.1166667 211.020833,93.9375 210.4125,94.5625 C209.804167,95.1875 208.941667,95.5 207.825,95.5 C206.691667,95.5 205.820833,95.1875 205.2125,94.5625 C204.604167,93.9375 204.3,93.1166667 204.3,92.1 L204.3,92.1 L204.3,82.325 L199.925,82.325 L199.925,92.25 C199.925,94.3833333 200.591667,96.0916667 201.925,97.375 C203.258333,98.6583333 205.225,99.3 207.825,99.3 Z M224.55,99.3 C226.3,99.3 227.691667,98.7166667 228.725,97.55 L228.725,97.55 L228.725,99 L232.575,99 L232.575,86.925 L228.725,86.925 L228.725,94.725 C228.108333,95.5083333 227.341667,95.9 226.425,95.9 C225.091667,95.9 224.425,95.25 224.425,93.95 L224.425,93.95 L224.425,86.925 L220.575,86.925 L220.575,95.525 C220.575,96.6916667 220.904167,97.6125 221.5625,98.2875 C222.220833,98.9625 223.216667,99.3 224.55,99.3 Z M245.8,99 L252.1,82.325 L247.225,82.325 L243.1,94.35 L239,82.325 L234.125,82.325 L240.4,99 L245.8,99 Z M261.975,99 L266.725,86.925 L262.65,86.925 L259.9,94.575 L257.175,86.925 L253.125,86.925 L257.875,99 L261.975,99 Z M277.45,99 L279.975,88.55 L282.5,99 L287.05,99 L291.825,82.325 L286.975,82.325 L284.475,93.45 L281.625,82.325 L278.325,82.325 L275.475,93.45 L272.95,82.325 L268.125,82.325 L272.9,99 L277.45,99 Z M301.25,99 L303.5,91.525 L305.775,99 L309.925,99 L313.5,86.925 L309.525,86.925 L307.6,94.325 L305.225,86.925 L301.8,86.925 L299.425,94.325 L297.475,86.925 L293.525,86.925 L297.1,99 L301.25,99 Z M319.35,99 L322.975,93.4 L326.6,99 L331.675,99 L325.875,90.425 L331.3,82.325 L326.2,82.325 L322.975,87.55 L319.7,82.325 L314.625,82.325 L320.075,90.45 L314.25,99 L319.35,99 Z M337.475,99 L339.825,95.35 L342.15,99 L346.375,99 L342.25,92.8 L346.1,86.925 L341.875,86.925 L339.825,90.2 L337.75,86.925 L333.525,86.925 L337.4,92.8 L333.275,99 L337.475,99 Z M356.625,99 L356.625,92.275 L362.925,82.325 L358.05,82.325 L354.475,88.475 L350.85,82.325 L346,82.325 L352.325,92.275 L352.325,99 L356.625,99 Z M365.95,103.9 C367.233333,103.866667 368.291667,103.625 369.125,103.175 C369.958333,102.725 370.6,101.908333 371.05,100.725 L371.05,100.725 L376.5,86.925 L372.425,86.925 L369.675,94.575 L366.95,86.925 L362.9,86.925 L367.7,99.175 L367.425,99.825 C367.241667,100.275 366.7,100.5 365.8,100.5 C365.433333,100.5 365.116667,100.425 364.85,100.275 L364.85,100.275 L364.3,103.7 C364.733333,103.833333 365.283333,103.9 365.95,103.9 Z M392.175,99 L392.175,95.25 L384.875,95.25 L392,85.75 L392,82.325 L379.225,82.325 L379.225,86.075 L386.325,86.075 L379.225,95.575 L379.225,99 L392.175,99 Z M406.275,99 L406.275,95.675 L401.225,95.675 L406.175,89.65 L406.175,86.925 L396.1,86.925 L396.1,90.275 L400.95,90.275 L396.1,96.175 L396.1,99 L406.275,99 Z M10.675,159 L10.675,142.325 L6.95,142.325 L1.125,148.075 L3.575,150.65 L6.375,147.825 L6.375,159 L10.675,159 Z M28.35,159 L28.35,155.25 L22.25,155.25 C24.3666667,153.783333 25.8916667,152.458333 26.825,151.275 C27.7583333,150.091667 28.225,148.875 28.225,147.625 C28.225,145.958333 27.5958333,144.616667 26.3375,143.6 C25.0791667,142.583333 23.4583333,142.075 21.475,142.075 C20.225,142.075 19,142.304167 17.8,142.7625 C16.6,143.220833 15.575,143.916667 14.725,144.85 L14.725,144.85 L17.1,147.7 C18.4,146.483333 19.8833333,145.875 21.55,145.875 C22.2,145.875 22.7458333,146.029167 23.1875,146.3375 C23.6291667,146.645833 23.85,147.075 23.85,147.625 C23.85,148.441667 23.3458333,149.316667 22.3375,150.25 C21.3291667,151.183333 18.975,152.983333 15.275,155.65 L15.275,155.65 L15.275,159 L28.35,159 Z M38.65,159.3 C40.7166667,159.3 42.3833333,158.841667 43.65,157.925 C44.9166667,157.008333 45.55,155.816667 45.55,154.35 C45.55,153.233333 45.1458333,152.320833 44.3375,151.6125 C43.5291667,150.904167 42.625,150.5 41.625,150.4 C42.6416667,150.233333 43.5041667,149.804167 44.2125,149.1125 C44.9208333,148.420833 45.275,147.6 45.275,146.65 C45.275,145.25 44.6958333,144.1375 43.5375,143.3125 C42.3791667,142.4875 40.75,142.075 38.65,142.075 C35.8,142.075 33.575,142.975 31.975,144.775 L31.975,144.775 L34.05,147.475 C35.25,146.408333 36.6333333,145.875 38.2,145.875 C39.0333333,145.875 39.7083333,146.004167 40.225,146.2625 C40.7416667,146.520833 41,146.9 41,147.4 C41,148.266667 40.1,148.7 38.3,148.7 C37.0166667,148.7 36.2666667,148.691667 36.05,148.675 L36.05,148.675 L36.05,152.5 C36.2166667,152.483333 36.9666667,152.475 38.3,152.475 C39.4,152.475 40.1708333,152.5875 40.6125,152.8125 C41.0541667,153.0375 41.275,153.391667 41.275,153.875 C41.275,154.358333 41.0333333,154.75 40.55,155.05 C40.0666667,155.35 39.375,155.5 38.475,155.5 C37.6916667,155.5 36.8791667,155.35 36.0375,155.05 C35.1958333,154.75 34.4916667,154.316667 33.925,153.75 L33.925,153.75 L31.75,156.675 C32.4333333,157.458333 33.3708333,158.091667 34.5625,158.575 C35.7541667,159.058333 37.1166667,159.3 38.65,159.3 Z M61.25,159 L61.25,155.95 L63.275,155.95 L63.275,152.175 L61.25,152.175 L61.25,142.325 L55.275,142.325 L48.95,152.6 L48.95,155.95 L56.925,155.95 L56.925,159 L61.25,159 Z M56.925,152.175 L53.125,152.175 L56.925,146.075 L56.925,152.175 Z M73.525,159.3 C75.6916667,159.3 77.4083333,158.766667 78.675,157.7 C79.9416667,156.633333 80.575,155.2 80.575,153.4 C80.575,151.783333 80.0458333,150.475 78.9875,149.475 C77.9291667,148.475 76.6666667,147.975 75.2,147.975 C73.7333333,147.975 72.5416667,148.416667 71.625,149.3 L71.625,149.3 L71.625,146.075 L79.425,146.075 L79.425,142.325 L67.325,142.325 L67.325,152.175 L70.3,152.9 C71.1833333,152.066667 72.2833333,151.65 73.6,151.65 C74.4333333,151.65 75.075,151.825 75.525,152.175 C75.975,152.525 76.2,152.991667 76.2,153.575 C76.2,154.125 75.9625,154.583333 75.4875,154.95 C75.0125,155.316667 74.3416667,155.5 73.475,155.5 C71.775,155.5 70.3333333,154.958333 69.15,153.875 L69.15,153.875 L66.8,156.875 C68.45,158.491667 70.6916667,159.3 73.525,159.3 Z M91.45,159.3 C93.3833333,159.3 94.975,158.754167 96.225,157.6625 C97.475,156.570833 98.1,155.166667 98.1,153.45 C98.1,151.75 97.5375,150.4125 96.4125,149.4375 C95.2875,148.4625 93.925,147.975 92.325,147.975 C91.4916667,147.975 90.7041667,148.15 89.9625,148.5 C89.2208333,148.85 88.6416667,149.308333 88.225,149.875 L88.225,149.875 L88.225,149.675 C88.225,148.558333 88.6125,147.645833 89.3875,146.9375 C90.1625,146.229167 91.075,145.875 92.125,145.875 C93.3583333,145.875 94.425,146.241667 95.325,146.975 L95.325,146.975 L97.2,143.675 C95.8333333,142.608333 94.1416667,142.075 92.125,142.075 C89.5916667,142.075 87.5833333,142.85 86.1,144.4 C84.6166667,145.95 83.875,148.05 83.875,150.7 C83.875,153.25 84.5083333,155.320833 85.775,156.9125 C87.0416667,158.504167 88.9333333,159.3 91.45,159.3 Z M91.175,155.5 C90.2416667,155.5 89.5333333,155.233333 89.05,154.7 C88.5666667,154.166667 88.2916667,153.516667 88.225,152.75 C88.9583333,152 89.8916667,151.625 91.025,151.625 C91.7583333,151.625 92.3958333,151.791667 92.9375,152.125 C93.4791667,152.458333 93.75,152.95 93.75,153.6 C93.75,154.1 93.5125,154.541667 93.0375,154.925 C92.5625,155.308333 91.9416667,155.5 91.175,155.5 Z M108.375,159 L114.25,145.3 L114.25,142.325 L101.175,142.325 L101.175,146.075 L109.3,146.075 L103.65,159 L108.375,159 Z M124.375,159.3 C125.625,159.3 126.766667,159.141667 127.8,158.825 C128.833333,158.508333 129.695833,157.983333 130.3875,157.25 C131.079167,156.516667 131.425,155.633333 131.425,154.6 C131.425,153.683333 131.1125,152.85 130.4875,152.1 C129.8625,151.35 129.05,150.783333 128.05,150.4 C130.133333,149.6 131.175,148.308333 131.175,146.525 C131.175,145.508333 130.825,144.654167 130.125,143.9625 C129.425,143.270833 128.583333,142.783333 127.6,142.5 C126.616667,142.216667 125.541667,142.075 124.375,142.075 C123.525,142.075 122.708333,142.158333 121.925,142.325 C121.141667,142.491667 120.416667,142.745833 119.75,143.0875 C119.083333,143.429167 118.554167,143.895833 118.1625,144.4875 C117.770833,145.079167 117.575,145.758333 117.575,146.525 C117.575,148.325 118.608333,149.616667 120.675,150.4 C119.675,150.783333 118.8625,151.35 118.2375,152.1 C117.6125,152.85 117.3,153.683333 117.3,154.6 C117.3,156.133333 117.9875,157.3 119.3625,158.1 C120.7375,158.9 122.408333,159.3 124.375,159.3 Z M124.375,148.725 C123.758333,148.641667 123.2,148.4625 122.7,148.1875 C122.2,147.9125 121.95,147.566667 121.95,147.15 C121.95,146.683333 122.170833,146.316667 122.6125,146.05 C123.054167,145.783333 123.641667,145.65 124.375,145.65 C125.091667,145.65 125.670833,145.783333 126.1125,146.05 C126.554167,146.316667 126.775,146.683333 126.775,147.15 C126.775,147.566667 126.529167,147.9125 126.0375,148.1875 C125.545833,148.4625 124.991667,148.641667 124.375,148.725 Z M124.375,155.725 C123.575,155.725 122.925,155.575 122.425,155.275 C121.925,154.975 121.675,154.583333 121.675,154.1 C121.675,153.633333 121.9625,153.245833 122.5375,152.9375 C123.1125,152.629167 123.725,152.433333 124.375,152.35 C125.008333,152.433333 125.616667,152.629167 126.2,152.9375 C126.783333,153.245833 127.075,153.633333 127.075,154.1 C127.075,154.583333 126.820833,154.975 126.3125,155.275 C125.804167,155.575 125.158333,155.725 124.375,155.725 Z M140.6,159.275 C143.133333,159.275 145.141667,158.5 146.625,156.95 C148.108333,155.4 148.85,153.3 148.85,150.65 C148.85,148.1 148.216667,146.029167 146.95,144.4375 C145.683333,142.845833 143.791667,142.05 141.275,142.05 C139.341667,142.05 137.75,142.595833 136.5,143.6875 C135.25,144.779167 134.625,146.183333 134.625,147.9 C134.625,149.6 135.195833,150.941667 136.3375,151.925 C137.479167,152.908333 138.841667,153.4 140.425,153.4 C141.241667,153.4 142.020833,153.220833 142.7625,152.8625 C143.504167,152.504167 144.083333,152.041667 144.5,151.475 L144.5,151.475 L144.5,151.675 C144.5,152.725 144.141667,153.620833 143.425,154.3625 C142.708333,155.104167 141.766667,155.475 140.6,155.475 C139.366667,155.475 138.3,155.108333 137.4,154.375 L137.4,154.375 L135.55,157.675 C136.883333,158.741667 138.566667,159.275 140.6,159.275 Z M141.7,149.725 C140.983333,149.725 140.354167,149.558333 139.8125,149.225 C139.270833,148.891667 139,148.4 139,147.75 C139,147.25 139.233333,146.808333 139.7,146.425 C140.166667,146.041667 140.775,145.85 141.525,145.85 C142.475,145.85 143.195833,146.116667 143.6875,146.65 C144.179167,147.183333 144.45,147.833333 144.5,148.6 C143.8,149.35 142.866667,149.725 141.7,149.725 Z M159.325,159.3 C160.508333,159.3 161.558333,159.058333 162.475,158.575 C163.408333,158.091667 164.1625,157.441667 164.7375,156.625 C165.3125,155.808333 165.745833,154.895833 166.0375,153.8875 C166.329167,152.879167 166.475,151.808333 166.475,150.675 C166.475,149.141667 166.225,147.741667 165.725,146.475 C165.225,145.208333 164.420833,144.158333 163.3125,143.325 C162.204167,142.491667 160.875,142.075 159.325,142.075 C157.775,142.075 156.445833,142.491667 155.3375,143.325 C154.229167,144.158333 153.425,145.208333 152.925,146.475 C152.425,147.741667 152.175,149.141667 152.175,150.675 C152.175,151.808333 152.320833,152.879167 152.6125,153.8875 C152.904167,154.895833 153.3375,155.808333 153.9125,156.625 C154.4875,157.441667 155.2375,158.091667 156.1625,158.575 C157.0875,159.058333 158.141667,159.3 159.325,159.3 Z M159.325,155.5 C157.458333,155.5 156.525,153.891667 156.525,150.675 C156.525,147.475 157.458333,145.875 159.325,145.875 C161.191667,145.875 162.125,147.475 162.125,150.675 C162.125,153.891667 161.191667,155.5 159.325,155.5 Z" id="gastrobar_font_1"></path>
                </g>
            </g>
        </g>
    </g>
</svg>