<svg xmlns="http://www.w3.org/2000/svg" width="37" height="40" viewBox="0 0 37 40"><g><g><g><path fill="#fff" d="M33.917 3.47H23.489a.87.87 0 0 0 0 1.738h10.428a.87.87 0 0 0 0-1.738z"/></g><g><path fill="#fff" d="M34.53 3.73L31.056.254a.87.87 0 0 0-1.23 1.229l2.862 2.86-2.863 2.863a.87.87 0 0 0 1.23 1.229l3.477-3.476a.87.87 0 0 0 0-1.229z"/></g><g><path fill="#fff" d="M11.327 3.47H.899a.87.87 0 0 0 0 1.738h10.428a.87.87 0 0 0 0-1.738z"/></g><g><path fill="#fff" d="M2.128 4.344l2.86-2.861A.87.87 0 0 0 3.76.254L.284 3.73a.87.87 0 0 0 0 1.229L3.76 8.435c.17.168.393.254.615.254a.87.87 0 0 0 .614-1.484z"/></g><g><path fill="#fff" d="M26.955 38.231h-4.07a6.04 6.04 0 0 1-4.302-1.781L6.21 24.072a.87.87 0 0 1 0-1.229 2.802 2.802 0 0 1 1.98-.813c.588 0 1.179.182 1.674.554l4.408 3.308a.87.87 0 0 0 1.39-.695V8.685A1.74 1.74 0 0 1 17.4 6.948c.959 0 1.737.78 1.737 1.738V21.72a.87.87 0 0 0 1.737 0v-4.345a1.74 1.74 0 0 1 1.738-1.738c.959 0 1.737.78 1.737 1.738v4.345a.87.87 0 0 0 1.738 0v-2.607a1.74 1.74 0 0 1 1.737-1.738c.959 0 1.737.78 1.737 1.738v2.607a.87.87 0 0 0 1.738 0v-.87a1.74 1.74 0 0 1 1.737-1.737c.959 0 1.737.78 1.737 1.738v9.558c0 4.312-3.508 7.821-7.818 7.821zm6.09-20.855c-.714 0-1.38.217-1.932.587a3.485 3.485 0 0 0-3.282-2.325c-.714 0-1.38.217-1.932.587a3.485 3.485 0 0 0-3.282-2.325c-.632 0-1.226.17-1.737.467V8.686a3.48 3.48 0 0 0-3.476-3.476 3.48 3.48 0 0 0-3.476 3.476v14.772l-3.02-2.264a4.556 4.556 0 0 0-5.925.42 2.609 2.609 0 0 0 0 3.687l12.375 12.377a7.773 7.773 0 0 0 5.532 2.291h4.072c5.27 0 9.56-4.287 9.56-9.559v-9.558a3.48 3.48 0 0 0-3.477-3.476z"/></g></g></g></svg>