<svg xmlns="http://www.w3.org/2000/svg" width="322" height="498" viewBox="0 0 322 498"><defs><clipPath id="vfj1a"><path d="M297.99 87.89h23.889v15.952H297.99z"/></clipPath><clipPath id="vfj1b"><path d="M87.4.25h52.731v35.8H87.4z"/></clipPath><clipPath id="vfj1c"><path d="M0 34.29h140.188v332.259H0z"/></clipPath></defs><g><g><g><path fill="#1f191a" d="M245.99 186.032l-25.95-14.037 16.542-21.745z"/></g><g><g><path fill="#1f191a" d="M245.234 187.446l-25.952-14.038a1.587 1.587 0 0 1-.805-1.072 1.6 1.6 0 0 1 .292-1.31l16.547-21.746a1.619 1.619 0 0 1 1.584-.602 1.6 1.6 0 0 1 1.233 1.165l9.403 35.784a1.603 1.603 0 0 1-1.543 2.011c-.26 0-.523-.063-.76-.192zm-22.786-15.962l21.046 11.394-7.626-29.044z"/></g><g><path fill="#1f191a" d="M320.279 92.649L299.59 89.5l9.518 12.743z"/></g><g><g/><g clip-path="url(#vfj1a)"><path fill="#1f191a" d="M308.933 103.83a1.575 1.575 0 0 1-1.103-.632l-9.52-12.746a1.593 1.593 0 0 1-.09-1.784 1.57 1.57 0 0 1 1.611-.759l20.69 3.149a1.606 1.606 0 0 1 1.297 1.144 1.607 1.607 0 0 1-.497 1.658l-11.171 9.594a1.597 1.597 0 0 1-1.217.376zm-5.724-12.164l6.156 8.241 7.224-6.203z"/></g></g><g><path fill="#1f191a" d="M204.8 135.65a1.596 1.596 0 0 1-.713-1.48l3.312-37.157c.045-.523.342-.987.796-1.248a1.58 1.58 0 0 1 1.476-.06l35.001 16.497c.55.254.905.8.92 1.405a1.597 1.597 0 0 1-.841 1.455l-38.315 20.66a1.575 1.575 0 0 1-1.636-.072zm5.582-36.067l-2.846 31.907 32.902-17.743z"/></g><g><path fill="#1f191a" d="M284.621 160.576a1.597 1.597 0 0 1-1.183-.565l-14.877-17.536a1.605 1.605 0 0 1 1.07-2.635l34.194-3.264a1.604 1.604 0 0 1 1.32 2.69l-19.318 20.8a1.588 1.588 0 0 1-1.167.51zm-11.631-17.834l11.721 13.823 15.23-16.398z"/></g><g><path fill="#57585b" d="M197.84 325.988l41.024-13.748c-9.751 19.505-22.126 34.854-37.656 40.324z"/></g><g><path fill="#57585b" d="M220.789 47.01l15.957 22.56H205.86z"/></g><g><path fill="#1f191a" d="M197.846 325.99l3.368 26.577c-17.944 6.324-32.056 9.45-42.16 10.943l-.354-2.486z"/></g><g><path fill="#57585b" d="M197.841 325.99l-39.145 35.034-11.916-26.01z"/></g><g><path fill="#1f191a" d="M191.137 35.816l-32.445 5.969-39.503 3.128-30.209-9.097s2.232-15.313 2.977-17.552c.745-2.238 3.368-2.238 3.368-2.238s.745-7.106 3.368-7.852c2.59-.745 27.554-5.578 41.346-6.324 13.795.746 38.793 5.579 41.382 6.324 2.624.746 3.369 7.852 3.369 7.852s2.623 0 3.368 2.238c.745 2.24 2.979 17.552 2.979 17.552"/></g><g><path fill="#1f191a" d="M177.703 238.263l-49.183-3.34 18.261-19.683z"/></g><g><path fill="#1f191a" d="M151.599 108.3l9.821 28.78-55.28-1.138z"/></g><g><path fill="#1f191a" d="M158.7 361.027l.353 2.486c-12.586 1.92-19.006 1.352-19.006 1.352s-10.921.995-32.197-3.838l38.934-26.007z"/></g><g><path fill="#57585b" d="M158.697 41.79v36.239l-30.177-22.42z"/></g><g><path fill="#57585b" d="M151.606 275.25l-4.824 59.761-25.742-40.716z"/></g><g><path fill="#57585b" d="M151.599 108.3L106.14 135.94l14.893-35.671z"/></g><g><path fill="#1f191a" d="M121.038 294.3l25.742 40.718-61.13-16.452z"/></g><g><path fill="#57585b" d="M146.78 335.01l-38.934 26.007L85.65 318.56z"/></g><g><path fill="#57585b" d="M128.52 55.607L90.12 69.43l5.956-18.3z"/></g><g><path fill="#57585b" d="M121.034 100.27l-14.893 35.671-30.211-30.626z"/></g><g><path fill="#57585b" d="M80.58 240.08l40.457 54.218-37.264-3.34z"/></g><g><path fill="#1f191a" d="M85.654 318.56l22.196 42.46c-8.156-1.85-17.8-4.55-28.933-8.458a39.144 39.144 0 0 1-6.347-2.914z"/></g><g><path fill="#1f191a" d="M75.93 105.32l30.211 30.628-65.601-4.477z"/></g><g><path fill="#57585b" d="M88.986 35.82l7.09 15.313-27.196 1.491 20.034-16.768z"/></g><g><path fill="#57585b" d="M90.114 69.43L75.93 105.315 62.88 73.621z"/></g><g><path fill="#1f191a" d="M90.114 69.426L62.88 73.618l5.996-20.998z"/></g><g><path fill="#1f191a" d="M88.907 35.85L68.876 52.62l-22.908 1.847-.038-.036C66.57 41.43 87.667 36.134 88.907 35.85"/></g><g><path fill="#1f191a" d="M83.775 290.96l1.878 27.606-44.183-5.863z"/></g><g><path fill="#57585b" d="M85.653 318.563L72.57 349.65C60.088 342.76 49.84 329.223 41.47 312.7z"/></g><g><path fill="#57585b" d="M83.775 290.96L41.47 312.703l12.483-41.923z"/></g><g><path fill="#1f191a" d="M66.679 157.08l13.9 39.331-48.649 9.38z"/></g><g><path fill="#1f191a" d="M80.58 240.076l-26.63 30.698-.037-.036c-.637-1.955-21.983-63.635-21.983-64.914v-.034z"/></g><g><path fill="#1f191a" d="M62.888 73.62l13.05 31.691L39.06 92.985z"/></g><g><path fill="#57585b" d="M75.938 105.319l-35.39 26.15L39.06 92.99z"/></g><g><path fill="#57585b" d="M68.879 52.62l-5.994 20.998L43.42 68.75z"/></g><g><path fill="#57585b" d="M68.879 52.62L43.42 68.75l2.552-14.283z"/></g><g><path fill="#57585b" d="M66.676 157.08l-34.75 48.712L6.36 165.076z"/></g><g><path fill="#1f191a" d="M66.681 157.084L6.366 165.08H6.33c-.142-3.34-.212-6.645-.106-8.99.317-5.72 2.056-9.772-.214-16.024l.07-.036c13.3 6.074 36.454 13.608 60.601 17.054"/></g><g><path fill="#57585b" d="M62.888 73.627L39.06 92.992l4.363-24.232z"/></g><g><path fill="#1f191a" d="M53.95 270.775L41.465 312.7c-12.339-24.302-20.6-55.176-25.886-81.149l38.331 39.19z"/></g><g><path fill="#57585b" d="M53.911 270.742L15.58 231.553s15.993-24.905 16.346-25.723c0 1.28 21.348 62.957 21.985 64.912"/></g><g><path fill="#1f191a" d="M43.42 68.758L39.06 92.99 16.65 82.01c7.62-11.617 18.4-20.678 29.286-27.57l.038.034z"/></g><g><path fill="#1f191a" d="M39.06 92.99l1.487 38.477L5.87 114.272c.07-.96.142-1.883.212-2.843z"/></g><g><path fill="#57585b" d="M39.058 92.99L6.08 111.429c1.136-11.261 5-20.998 10.568-29.419z"/></g><g><path fill="#1f191a" d="M31.933 205.796v.036c-.354.816-16.349 25.723-16.349 25.723C9.56 202.066 7.358 178.9 7.358 178.9s-.673-7.034-1.028-13.82h.038z"/></g><g><g/><g clip-path="url(#vfj1b)"><path fill="#1f191a" d="M90.566 36.05l-3.166-.464c.227-1.581 2.275-15.52 3.044-17.827.628-1.88 2.135-2.775 3.454-3.135.4-2.592 1.51-7.18 4.365-7.993 2.828-.813 27.904-5.635 41.692-6.381l.176 3.203c-13.581.732-38.21 5.461-40.988 6.261-.801.227-1.901 3.44-2.223 6.484a1.605 1.605 0 0 1-1.591 1.433c-.045.002-1.483.045-1.85 1.142-.515 1.542-2.024 11.177-2.913 17.277"/></g></g><g><g/><g clip-path="url(#vfj1c)"><path fill="#1f191a" d="M137.204 366.549c-4.615 0-14.54-.52-29.711-3.966-9.131-2.07-18.925-4.933-29.111-8.507a40.922 40.922 0 0 1-6.608-3.032c-11.675-6.45-22.36-19.11-31.732-37.619-10.444-20.574-19.204-48.013-26.026-81.556-5.978-29.234-8.228-52.59-8.25-52.822-.007-.068-.684-7.149-1.033-13.89-.171-3.94-.205-7.013-.113-9.144.093-1.644.295-3.137.493-4.583.484-3.58.898-6.665-.61-10.82-.5-1.408-1.228-2.908-2.243-4.59-5.542-9.246.682-20.113 2.04-22.284l.183-2.432c1.091-10.827 4.734-20.969 10.83-30.183 6.846-10.432 16.859-19.87 29.769-28.043C66.525 39.57 88.341 34.34 88.559 34.29l.706 3.126c-.204.047-21.485 5.149-42.48 18.374-12.512 7.928-22.205 17.045-28.8 27.097-5.81 8.781-9.276 18.437-10.314 28.696l-.209 2.802c-.02.277-.112.547-.27.777-.07.11-7.184 10.864-2.19 19.207 1.121 1.865 1.947 3.554 2.514 5.155 1.775 4.885 1.285 8.507.767 12.336-.189 1.367-.38 2.78-.468 4.313-.085 2.02-.047 5 .115 8.831.344 6.66 1.015 13.669 1.02 13.736.026.235 2.258 23.43 8.2 52.49 6.766 33.258 15.431 60.425 25.743 80.742 9.08 17.928 19.323 30.131 30.442 36.273a37.9 37.9 0 0 0 6.116 2.809c10.062 3.531 19.737 6.36 28.75 8.4 20.698 4.7 31.581 3.813 31.703 3.804l.286 3.194c-.131.014-1.13.097-2.986.097"/></g></g><g><path fill="#1f191a" d="M139.9 366.45l.279-3.193c.07.005 6.435.523 18.623-1.336 12.594-1.86 26.683-5.518 41.875-10.869 13.685-4.82 26.053-18.124 36.763-39.534 6.397-12.711 12.235-28.342 17.365-46.493l-31.678 6.572a1.586 1.586 0 0 1-1.478-.46 1.593 1.593 0 0 1-.396-1.5l13.17-52.619-56.124 22.73-1.202-2.973 58.892-23.847 34.434-23.038a1.598 1.598 0 0 1 2.475 1.543c-1.886 14.378-6.251 42.838-14.301 71.91v.013c-5.353 19.433-11.511 36.122-18.302 49.604-11.09 22.175-24.061 36.009-38.558 41.115-15.383 5.423-29.669 9.128-42.458 11.018-7.971 1.214-13.497 1.446-16.555 1.446-1.782 0-2.725-.08-2.824-.088zm97.22-147.038l-12.145 48.527 29.855-6.193zm1.605-4.461l18.006 43.045c6.642-25.093 10.553-49.21 12.521-63.469z"/></g><g><path fill="#1f191a" d="M66.453 158.67c-25.149-3.589-48.6-11.499-61.043-17.181l1.325-2.919c12.252 5.595 35.361 13.387 60.165 16.926z"/></g><g><path fill="#1f191a" d="M44.268 70.11L42.56 67.4l25.461-16.13 1.706 2.71z"/></g><g><path fill="#1f191a" d="M6.86 112.829l-1.56-2.802 32.317-18.07 6.781-37.766a1.602 1.602 0 0 1 1.447-1.315l22.401-1.808 19.642-16.44c.095-.08.27-.184.378-.24a1.622 1.622 0 0 1 1.247-.08c.41.145.742.444.92.838l7.094 15.314a1.598 1.598 0 0 1-.08 1.5c-.27.457-.754.747-1.283.774l-26.06 1.43-5.679 19.9c-.238.83-1.104 1.328-1.926 1.116l-17.808-4.452-4.06 22.545c-.087.473-.38.882-.796 1.117zm38.393-45.264l16.524 4.129 4.929-17.284-19.377 1.563zm43.138-29.214L73.589 50.764l20.042-1.102z"/></g><g><path fill="#1f191a" d="M38.35 94.431L15.94 83.454l1.409-2.883 21.487 10.532 23.04-18.721c.22-.178.484-.295.767-.34l26.255-4.04 5.655-17.361a1.6 1.6 0 0 1 1.105-1.052l23.118-6.218a1.614 1.614 0 0 1 1.62.495l9.327 10.694c.44.502.52 1.227.204 1.815-.32.588-.98.917-1.627.827l-31.117-4.295-5.546 17.024a1.606 1.606 0 0 1-1.28 1.088l-26.8 4.129-23.495 19.088a1.59 1.59 0 0 1-1.712.195zm65.783-43.797l20.375 2.815-5.86-6.72z"/></g><g><path fill="#1f191a" d="M39.85 132.912a1.606 1.606 0 0 1-.91-1.382l-1.489-38.478c-.022-.527.22-1.03.642-1.345a1.592 1.592 0 0 1 1.467-.24l33.56 11.22-11.717-28.45 2.958-1.225 11.543 28.029 12.72-32.198c.17-.428.512-.764.946-.92l38.403-13.821a1.6 1.6 0 0 1 1.99 2.187L119.15 79.455l-2.9-1.356 9.184-19.678-34.103 12.275-13.907 35.2c-.074.188-.18.363-.322.516-.072.077-.15.147-.232.205l-35.379 26.14a1.594 1.594 0 0 1-1.642.155zm.889-37.668l1.287 33.135 30.47-22.518z"/></g><g><path fill="#1f191a" d="M106.041 137.54l-65.599-4.476a1.616 1.616 0 0 1-.6-.164L5.16 115.704l1.418-2.874 34.398 17.056 65.283 4.455z"/></g><g><path fill="#1f191a" d="M105.013 137.073l-30.211-30.624a1.617 1.617 0 0 1-.454-1.311c.058-.482.324-.91.733-1.173l38.94-24.741-24.414-8.268a1.68 1.68 0 0 1-.48-.262L67.89 53.888l1.985-2.518 21.019 16.635 27.329 9.255a1.598 1.598 0 0 1 1.073 1.326 1.596 1.596 0 0 1-.73 1.548l-35.918 22.824 38.216-4.275c.594-.079 1.116.176 1.458.633a1.59 1.59 0 0 1 .196 1.577l-14.893 35.67a1.593 1.593 0 0 1-1.172.956c-.1.02-.203.031-.302.031a1.6 1.6 0 0 1-1.138-.477zm-25.614-30.527l26.201 26.563 12.917-30.937z"/></g><g><path fill="#1f191a" d="M157.739 79.314l-30.177-22.421a1.604 1.604 0 0 1 .288-2.743l21.944-10.05-30.478 2.412c-.196.004-.4-.007-.587-.06L88.52 37.353l.925-3.074 29.923 9.011 39.19-3.103c.045-.003.095-.003.135-.005.346 0 .675.113.943.306l11.904 8.595c.615.442.833 1.243.538 1.935L160.164 78.66a1.6 1.6 0 0 1-2.425.653zm-26.091-23.379l25.435 18.906V44.28zm28.647-11.018V70.27l8.332-19.338z"/></g><g><path fill="#1f191a" d="M183.14 91.592l-24.799-11.95-40.61.738-.061-3.204 40.99-.746c.331.014.502.052.72.158l25.144 12.115z"/></g><g><path fill="#1f191a" d="M161.395 138.68l-55.278-1.137a1.601 1.601 0 0 1-1.512-1.19 1.603 1.603 0 0 1 .715-1.785l42.228-25.68-26.91-7.07a1.595 1.595 0 0 1-1.174-1.304l-3.332-21.496a1.592 1.592 0 0 1 .803-1.649 1.607 1.607 0 0 1 1.825.192l31.896 27.781 6.484-27.682 3.119.734-6.26 26.716 29.061-16.367 1.566 2.793-31.075 17.505 9.39 27.518a1.598 1.598 0 0 1-1.515 2.121zm-49.712-4.232l47.492.98-8.438-24.725zm10.779-35.464l22.931 6.023-25.431-22.149z"/></g><g><path fill="#1f191a" d="M261.488 80.73c-.193 0-.389-.036-.576-.106l-24.752-9.559 1.152-2.993 19.3 7.455c-8.822-10.39-21.084-19.493-36.54-27.115-15.788-7.754-29.173-11.004-29.306-11.036a1.604 1.604 0 0 1-1.212-1.326c-.891-6.102-2.403-15.737-2.914-17.28-.37-1.108-1.836-1.14-1.854-1.14a1.607 1.607 0 0 1-1.591-1.436c-.32-3.04-1.417-6.253-2.212-6.478-2.693-.775-27.729-5.547-41.033-6.266l.178-3.2c13.81.746 38.902 5.565 41.733 6.383 2.85.808 3.955 5.399 4.356 7.99 1.325.361 2.835 1.255 3.458 3.136.675 2.03 2.342 13.079 2.891 16.77 3.52.94 15.381 4.354 28.92 11.005 18.137 8.946 32.03 19.93 41.292 32.646a1.603 1.603 0 0 1-1.29 2.55"/></g><g><path fill="#1f191a" d="M162.87 137.775l-2.885-1.383 22.136-46.349-13.026-39.135a1.607 1.607 0 0 1-.045-.867c0-.002.003-.004.003-.007v-.01c0-.003.004-.005.004-.005v-.012a1.63 1.63 0 0 1 .126-.335v-.005l.005-.002v-.007c.002 0 .002-.002.002-.002v-.002c0-.003.004-.005.004-.007.115-.219.28-.414.493-.563l14.618-10.37-25.319 4.656-.576-3.151 32.45-5.97a1.593 1.593 0 0 1 1.761.954c.293.694.061 1.498-.549 1.93L176.176 48.41l44.505-2.993c.72-.007 1.188.273 1.492.793.306.53.288 1.185-.052 1.691l-14.926 22.561a1.599 1.599 0 0 1-2.097.525l-31.685-17.245 11.945 35.898c.133.397.104.827-.076 1.2zm13.356-86.152l29.11 15.86 12.332-18.65z"/></g><g><path fill="#1f191a" d="M184.925 91.312l-2.185-2.347 22.018-20.57c.297-.277.689-.43 1.094-.43h27.787l-14.163-20.031 2.61-1.854 15.952 22.56a1.603 1.603 0 0 1-1.303 2.532H206.48z"/></g><g><path fill="#1f191a" d="M42.198 314.128l-1.458-2.851 39.893-20.51-27.576-18.662 1.79-2.655 29.82 20.18c.466.318.733.858.7 1.424a1.611 1.611 0 0 1-.867 1.33z"/></g><g><path fill="#1f191a" d="M52.394 271.238c-.138-.428-1.274-3.725-2.957-8.621-17.734-51.541-19.107-56.048-19.107-56.791l3.2-.036v.036c.427 1.962 13.866 41.036 18.931 55.746 1.694 4.925 2.833 8.238 2.977 8.668z"/></g><g><path fill="#1f191a" d="M52.771 271.861l-38.331-39.19a1.601 1.601 0 0 1-.205-1.99c6.242-9.723 15.726-24.552 16.257-25.561l2.902 1.342c-.337.786-9.727 15.449-15.775 24.879l37.436 38.272z"/></g><g><path fill="#1f191a" d="M52.855 271.945l2.162-2.365.038.034z"/></g><g><path fill="#1f191a" d="M74.043 350.277l-1.433-.606-1.643.018v-.033c0-.217.04-.426.124-.624l12.274-29.153-42.102-5.586a1.596 1.596 0 0 1-1.134-.718 1.592 1.592 0 0 1-.192-1.33L52.42 270.32l3.067.919-11.947 40.124 42.32 5.615a1.606 1.606 0 0 1 1.267 2.212z"/></g><g><path fill="#1f191a" d="M107.45 362.579a1.586 1.586 0 0 1-1.02-.81l-22.195-42.447a1.895 1.895 0 0 1-.135-.358c0-.004 0-.007-.005-.009v-.004a1.015 1.015 0 0 1-.033-.194.214.214 0 0 1-.005-.014v-.004c0-.023-.005-.045-.005-.068l-1.878-27.601a1.613 1.613 0 0 1 .474-1.255c.336-.326.81-.486 1.265-.45l37.267 3.34c.675.06 1.237.536 1.408 1.192a1.61 1.61 0 0 1-.646 1.73l-32.517 22.297 57.774 15.545a1.607 1.607 0 0 1 .47 2.882l-38.936 26.007c-.266.18-.574.27-.885.27a1.57 1.57 0 0 1-.398-.049zm-18.688-41.518l19.676 37.632 34.515-23.05zm-3.267-28.336l1.557 22.934 29.403-20.16z"/></g><g><path fill="#1f191a" d="M82.172 291.054l-2.947-46.975-24.068 27.745-2.417-2.103 26.627-30.699a1.601 1.601 0 0 1 2.805.953l3.19 50.878z"/></g><g><path fill="#1f191a" d="M158.364 362.59a1.61 1.61 0 0 1-1.13-.9l-11.911-26.01-25.639-40.524-40.239-53.912-48.429-34.133a1.678 1.678 0 0 1-.35-.329c0-.002 0-.002-.005-.002v-.002c0-.003 0-.003-.005-.005-.027-.043-.056-.083-.085-.128L5.006 165.929a1.61 1.61 0 0 1-.096-1.534 1.607 1.607 0 0 1 1.244-.908l60.313-7.993a1.593 1.593 0 0 1 1.582.763 1.607 1.607 0 0 1-.072 1.757L35.555 203.46l44.714-8.621c.502-.086.958.033 1.325.337.367.304.58.757.58 1.237v41.88l46.162-4.959c.065-.009.137-.025.207-.011h.024l.059.004 49.178 3.34c.576.04 1.087.385 1.339.91a1.612 1.612 0 0 1-.14 1.615l-24.2 34.297 34.836-1.72c.873-.081 1.532.547 1.658 1.356l7.295 47.25 22.75-50.998c.265-.593.843-.915 1.505-.948a1.605 1.605 0 0 1 1.451 1.031l16.065 42.207c.153.41.135.863-.052 1.257a1.592 1.592 0 0 1-.938.836l-39.78 13.33 3.2 25.273-3.175.406-2.984-23.552-36.877 33a1.594 1.594 0 0 1-1.393.374zm-9.284-26.351l10.161 22.142 33.359-29.845zm3.819-57.18l-4.358 54.025 46.152-8.158zm-29.65 15.755l22.322 35.301 4.178-51.816zm99.436-20.585l-21.908 49.1 36.002-12.078zm-67.662 2.466l40.433 44.297-7.093-45.945zm-25.517-36.82l-6.462 51.278 26.428-16.466zm-45.97 1.501l36.407 48.789 6.727-53.426zm47.853-4.644l20.351 35.54 23.006-32.595zm-95.461-30.08l43.045 30.334v-38.63zM9.045 166.335l22.96 36.572 31.217-43.75z"/></g><g><path fill="#1f191a" d="M146.345 216.783L80.143 197.95a1.607 1.607 0 0 1-1.163-1.547c0-.719.48-1.345 1.172-1.538l46.452-13.005a1.597 1.597 0 0 1 1.788.698l19.75 31.836a1.598 1.598 0 1 1-1.357 2.448c-.147 0-.291-.018-.44-.059zm-59.86-20.362l56.75 16.143-16.933-27.29z"/></g><g><path fill="#1f191a" d="M188.209 273.892l-11.867-34.633-29.364-21.869-17.291 18.63a1.61 1.61 0 0 1-2.172.16l-47.938-38.515a1.591 1.591 0 0 1-.509-.716l-13.898-39.33 3.017-1.069 13.743 38.9 46.429 37.296 17.25-18.59c.113-.124.244-.223.379-.304l42.914-25.496a1.613 1.613 0 0 1 1.773.095c.515.387.754 1.043.599 1.671l-11.757 47.466 44.208 31.135c.547.383.799 1.068.626 1.717a1.595 1.595 0 0 1-1.388 1.189l-33.084 3.338a1.594 1.594 0 0 1-1.67-1.074zm-7.39-31.478l10.007 29.235 27.546-2.78zm-31.15-27.017l27.054 20.152 10.518-42.482z"/></g><g><path fill="#1f191a" d="M235.998 215.78l-46.741-24.48-62.386-6.296a1.552 1.552 0 0 1-.48-.123l-60.347-26.327a1.603 1.603 0 0 1 .3-3.038c4-.858 85.842 2.941 95.157 3.378l-.153 3.203c-29.147-1.37-70.504-3.14-87.136-3.475l53.226 23.218 62.442 6.302c.205.02.4.079.583.173l47.018 24.62z"/></g><g><path fill="#1f191a" d="M188.566 190.856L161.2 162.572l-33.286 22.178-1.773-2.671 34.394-22.917a1.621 1.621 0 0 1 2.036.219l28.296 29.24z"/></g><g><path fill="#1f191a" d="M33.149 295.46S9.929 427.847 11.092 440.512c1.164 12.666 1.55 52.423 1.55 52.423l12.794 4.924 6.197-4.221s-3.87-44.682-3.87-55.94c0-11.258 15.392-122.236 15.392-122.236z"/></g><g><path fill="#1f191a" d="M30.13 476.057l203.125-74.922-5.913-70.333 9.293-15.412 9.027 93.694-214.486 79.47z"/></g><g><path fill="#1f191a" d="M247.172 295.46s21.704 132.387 20.54 145.052c-1.163 12.666-1.55 52.423-1.55 52.423l-12.793 4.924-6.197-4.221s3.87-44.682 3.87-55.94c0-11.258-15.392-122.236-15.392-122.236z"/></g><g><path fill="#1f191a" d="M248.657 476.166L45.554 401.14l7.358-72.09-11.44-16.349-8.322 96.387 214.461 79.577z"/></g><g><path fill="#1f191a" d="M160.916 149.985l-90.581-1.755-36.787-7.006L.99 127.483l1.242-2.953 32.236 13.642 36.198 6.883 90.308 1.723z"/></g></g></g></g></svg>