<svg xmlns="http://www.w3.org/2000/svg" width="345" height="171" viewBox="0 0 345 171">
    <g>
        <g>
            <g>
                <g>
                    <g>
                        <path fill="#3c3848"
                              d="M105.004 84.023H77.19V81.3l26.798-36.42V24.46H49.03v9.87l3.852 10.104h22.834v2.722L49.03 83.564v20.31h55.974V84.023z"/>
                    </g>
                    <g>
                        <path fill="#3c3848" d="M136.433 24.46H111.79v79.413h49.52v-19.85h-24.877V24.46z"/>
                    </g>
                    <g>
                        <path fill="#3c3848" d="M282.306 24.46H226.89v19.974h14.817v59.44h24.766v-59.44h11.869l3.964-10.105V24.46z"/>
                    </g>
                    <g>
                        <path fill="#3c3848"
                              d="M308.1 68.031l2.233-23.595h2.713l2.233 23.595zm24.185-43.571h-41.157L280.04 94.015v9.859h24.71l1.574-15.997h10.865l1.406 15.997h24.766v-9.859z"/>
                    </g>
                    <g>
                        <path fill="#3c3848"
                              d="M208.726 84.29l-1.709-.84v.84h-.659l-1.038-.985v.896a2.817 2.817 0 0 1-1.485 0c-.893-.224-11.959-20.92-14.806-23.776-2.847-2.855-4.868-6.607-4.868-9.799 0-3.191 1.92-4.39 2.735-5.498.816-1.11 2.234-7.84 6.153-7.84 3.919 0 4.589 2.89 4.589 2.89 1.775 1.12.514 3.494.514 2.755 0-.74-.66-.594-1.63-.75-.972-.158-.883 2.385-.883 2.385a43.09 43.09 0 0 1 4.668 5.711c2.657 3.797 4.064 13.372 4.812 16.642.748 3.27 6.297 9.284 6.297 9.284l-5.437-2.363zm-32.94-59.83L164.71 94.015v9.859h24.643l1.585-15.997h10.854l1.473 15.997h24.766v-9.859l-11.076-69.544z"/>
                    </g>
                </g>
                <g>
                    <path fill="#3c3848" d="M56.665 114.18H49.15v-2.15h17.285v2.15H58.92v21.431h-2.233z"/>
                </g>
                <g>
                    <path fill="#3c3848"
                          d="M82.823 124.472a6.917 6.917 0 0 1-4.858 1.535h-5.672v-11.823h5.672a6.961 6.961 0 0 1 4.858 1.49 5.694 5.694 0 0 1 1.674 4.405 5.615 5.615 0 0 1-1.674 4.348zm4.276 11.143l-5.226-8.088a7.093 7.093 0 0 0 3.618-2.745 8.254 8.254 0 0 0 1.273-4.671 7.698 7.698 0 0 0-2.322-5.926 9.025 9.025 0 0 0-6.365-2.151H70.06v23.592h2.233v-7.483h5.74c.57 0 1.14-.033 1.708-.1l4.88 7.583z"/>
                </g>
                <g>
                    <path fill="#3c3848"
                          d="M94.43 127.299l5.124-12.67 5.125 12.67zm13.644 8.323h2.39l-9.77-23.592H98.46l-9.77 23.592h2.345l2.568-6.307h11.903z"/>
                </g>
                <g>
                    <path fill="#3c3848"
                          d="M116.245 133.552v-19.268h6.316a9.533 9.533 0 0 1 4.91 1.221 8.554 8.554 0 0 1 3.27 3.36 11.354 11.354 0 0 1 0 10.004 8.409 8.409 0 0 1-3.27 3.361 9.545 9.545 0 0 1-4.91 1.232zm-2.2 2.072h8.699a11.76 11.76 0 0 0 5.985-1.5 10.504 10.504 0 0 0 4.03-4.18 13.808 13.808 0 0 0 0-12.232c-.918-1.75-2.317-3.2-4.03-4.179a11.76 11.76 0 0 0-5.985-1.5h-8.754z"/>
                </g>
                <g>
                    <path fill="#3c3848" d="M154.318 133.46v2.162H139.2V112.03h14.66v2.15h-12.393v8.391h11.043v2.118h-11.043v8.76z"/>
                </g>
            </g>
            <g>
                <g>
                    <path fill="none" stroke="#9c784e" stroke-miterlimit="50" stroke-width=".51" d="M266.383 74.61l.217-.51"/>
                </g>
                <g>
                    <path fill="none" stroke="#9c784e" stroke-dasharray=".798 .798" stroke-miterlimit="50" stroke-width=".51" d="M267.01 73.07l23.125-57.05"/>
                </g>
                <g>
                    <path fill="none" stroke="#9c784e" stroke-miterlimit="50" stroke-width=".51" d="M290.343 15.505l.217-.521"/>
                </g>
            </g>
            <g>
                <g>
                    <g>
                        <text dominant-baseline="text-before-edge" style="font-kerning:normal" font-family="'Raleway Medium','Raleway-Medium'" font-size="8"
                              transform="translate(284 -1)">
                            <tspan style="font-kerning:normal">21,47</tspan>
                        </text>
                    </g>
                </g>
                <g>
                    <path fill="#9c784e"
                          d="M308.535 3.727a.614.614 0 0 1-.603-.625c0-.344.27-.624.603-.624.334 0 .604.28.604.624a.624.624 0 0 1-.17.453.582.582 0 0 1-.434.184zm0-1.487a.822.822 0 0 0-.59.253.877.877 0 0 0-.245.61c0 .478.372.867.835.874a.861.861 0 0 0 .848-.875.86.86 0 0 0-.848-.862z"/>
                </g>
            </g>
            <g>
                <g>
                    <g>
                        <text dominant-baseline="text-before-edge" style="font-kerning:normal" font-family="'Raleway Medium','Raleway-Medium'" font-size="8"
                              transform="translate(321 -1)">
                            <tspan style="font-kerning:normal">9,08</tspan>
                        </text>
                    </g>
                </g>
                <g>
                    <path fill="#9c784e"
                          d="M340.327 3.114a.596.596 0 0 1 .568-.451c.264 0 .496.184.568.451a.61.61 0 0 1-.545.623c-.327 0-.591-.279-.591-.623zm.59-.874c-.219 0-.43.092-.585.256a.9.9 0 0 0-.242.618c0 .313.158.601.414.758a.79.79 0 0 0 .827 0 .885.885 0 0 0 .414-.758c0-.483-.37-.874-.827-.874z"/>
                </g>
            </g>
            <g>
                <g>
                    <text dominant-baseline="text-before-edge" style="font-kerning:normal" font-family="'Raleway Medium','Raleway-Medium'" font-size="8"
                          transform="translate(181 137)">
                        <tspan style="font-kerning:normal">12,52 H</tspan>
                    </text>
                </g>
            </g>
            <g>
                <g>
                    <text dominant-baseline="text-before-edge" style="font-kerning:normal" font-family="'Raleway Medium','Raleway-Medium'" font-size="8"
                          transform="translate(0 70)">
                        <tspan style="font-kerning:normal">4,71 H</tspan>
                    </text>
                </g>
            </g>
            <g>
                <path fill="none" stroke="#9c784e" stroke-dasharray=".798 .798" stroke-miterlimit="50" stroke-width=".51" d="M343.034 93.582L330.27 13.01"/>
            </g>
            <g>
                <g>
                    <path fill="none" stroke="#9c784e" stroke-miterlimit="50" stroke-width=".51" d="M31.9 27.81v104.462"/>
                </g>
                <g>
                    <path fill="#9c784e" d="M29.2 29.378l2.699-.885 2.698.885L31.9 24.46 29.2 29.378z"/>
                </g>
                <g>
                    <path fill="#9c784e" d="M29.2 130.71l2.699.874 2.698-.874-2.698 4.918-2.699-4.918z"/>
                </g>
            </g>
            <g>
                <g>
                    <path fill="none" stroke="#9c784e" stroke-miterlimit="50" stroke-width=".51" d="M340.034 153.22H52.37"/>
                </g>
                <g>
                    <path fill="#9c784e" d="M338.46 150.52l.882 2.713-.882 2.699 4.902-2.699-4.902-2.713z"/>
                </g>
                <g>
                    <path fill="#9c784e" d="M53.932 150.52l-.871 2.713.87 2.699-4.901-2.699 4.902-2.713z"/>
                </g>
            </g>
            <g>
                <path fill="none" stroke="#9c784e" stroke-miterlimit="50" stroke-width=".51" d="M48.665 23.779H15.16"/>
            </g>
            <g>
                <path fill="none" stroke="#9c784e" stroke-miterlimit="50" stroke-width=".51" d="M49.059 103.95v66.213"/>
            </g>
            <g>
                <path fill="none" stroke="#9c784e" stroke-miterlimit="50" stroke-width=".51" d="M344.229 103.95v66.213"/>
            </g>
            <g>
                <path fill="none" stroke="#9c784e" stroke-miterlimit="50" stroke-width=".51" d="M154.765 135.459H15.16"/>
            </g>
        </g>
    </g>
</svg>