<?xml version="1.0" encoding="UTF-8"?>
<svg width="489px" height="123px" viewBox="0 0 489 123" version="1.1" xmlns="http://www.w3.org/2000/svg" xmlns:xlink="http://www.w3.org/1999/xlink">
    <!-- Generator: Sketch 63.1 (92452) - https://sketch.com -->
    <title>group_font2</title>
    <desc>Created with Sketch.</desc>
    <g id="Кейс" stroke="none" stroke-width="1" fill="none" fill-rule="evenodd">
        <g id="Pride-Group-XL" transform="translate(-735.000000, -4004.000000)" fill="#AFAFAF" fill-rule="nonzero">
            <g id="Group" transform="translate(165.000000, 3850.000000)">
                <path d="M572.6,171 L574.075,167.3 L582.375,167.3 L583.85,171 L586.225,171 L579.5,154.325 L576.925,154.325 L570.225,171 L572.6,171 Z M581.75,165.45 L574.675,165.45 L578.225,156.475 L581.75,165.45 Z M593.875,171.3 C595.525,171.3 596.858333,170.741667 597.875,169.625 L597.875,169.625 L597.875,171 L599.75,171 L599.75,162.7 C599.75,161.316667 599.316667,160.291667 598.45,159.625 C597.583333,158.958333 596.458333,158.625 595.075,158.625 C593.141667,158.625 591.533333,159.291667 590.25,160.625 L590.25,160.625 L591.125,161.925 C592.175,160.808333 593.408333,160.25 594.825,160.25 C595.725,160.25 596.458333,160.475 597.025,160.925 C597.591667,161.375 597.875,162 597.875,162.8 L597.875,162.8 L597.875,164.975 C596.925,163.875 595.591667,163.325 593.875,163.325 C592.741667,163.325 591.754167,163.670833 590.9125,164.3625 C590.070833,165.054167 589.65,166.033333 589.65,167.3 C589.65,168.533333 590.075,169.508333 590.925,170.225 C591.775,170.941667 592.758333,171.3 593.875,171.3 Z M594.55,169.95 C593.683333,169.95 592.970833,169.704167 592.4125,169.2125 C591.854167,168.720833 591.575,168.091667 591.575,167.325 C591.575,166.541667 591.854167,165.904167 592.4125,165.4125 C592.970833,164.920833 593.683333,164.675 594.55,164.675 C596.05,164.675 597.158333,165.175 597.875,166.175 L597.875,166.175 L597.875,168.45 C597.158333,169.45 596.05,169.95 594.55,169.95 Z M613.175,171 C614.675,171 615.854167,170.5875 616.7125,169.7625 C617.570833,168.9375 618,167.85 618,166.5 C618,165.5 617.679167,164.6 617.0375,163.8 C616.395833,163 615.633333,162.533333 614.75,162.4 C615.566667,162.233333 616.258333,161.804167 616.825,161.1125 C617.391667,160.420833 617.675,159.575 617.675,158.575 C617.675,157.308333 617.254167,156.283333 616.4125,155.5 C615.570833,154.716667 614.433333,154.325 613,154.325 L613,154.325 L605.575,154.325 L605.575,171 L613.175,171 Z M612.65,161.55 L607.65,161.55 L607.65,156.175 L612.65,156.175 C613.55,156.175 614.254167,156.429167 614.7625,156.9375 C615.270833,157.445833 615.525,158.091667 615.525,158.875 C615.525,159.658333 615.275,160.3 614.775,160.8 C614.275,161.3 613.566667,161.55 612.65,161.55 L612.65,161.55 Z M612.75,169.15 L607.65,169.15 L607.65,163.4 L612.75,163.4 C613.733333,163.4 614.495833,163.675 615.0375,164.225 C615.579167,164.775 615.85,165.458333 615.85,166.275 C615.85,167.158333 615.575,167.858333 615.025,168.375 C614.475,168.891667 613.716667,169.15 612.75,169.15 L612.75,169.15 Z M629.175,171.3 C630.775,171.3 632.070833,170.729167 633.0625,169.5875 C634.054167,168.445833 634.55,166.908333 634.55,164.975 C634.55,163.058333 634.05,161.520833 633.05,160.3625 C632.05,159.204167 630.758333,158.625 629.175,158.625 C627.508333,158.625 626.15,159.333333 625.1,160.75 L625.1,160.75 L625.1,154.325 L623.225,154.325 L623.225,171 L625.1,171 L625.1,169.2 C626.133333,170.6 627.491667,171.3 629.175,171.3 Z M628.7,169.625 C627.983333,169.625 627.2875,169.441667 626.6125,169.075 C625.9375,168.708333 625.433333,168.258333 625.1,167.725 L625.1,167.725 L625.1,162.25 C625.433333,161.7 625.9375,161.2375 626.6125,160.8625 C627.2875,160.4875 627.983333,160.3 628.7,160.3 C629.9,160.3 630.85,160.7375 631.55,161.6125 C632.25,162.4875 632.6,163.608333 632.6,164.975 C632.6,166.341667 632.25,167.458333 631.55,168.325 C630.85,169.191667 629.9,169.625 628.7,169.625 Z M647.575,171.3 C650.191667,171.3 652.308333,170.2 653.925,168 L653.925,168 L652.15,167.025 C651.666667,167.758333 651.016667,168.345833 650.2,168.7875 C649.383333,169.229167 648.508333,169.45 647.575,169.45 C645.741667,169.45 644.2125,168.8125 642.9875,167.5375 C641.7625,166.2625 641.15,164.641667 641.15,162.675 C641.15,160.708333 641.7625,159.0875 642.9875,157.8125 C644.2125,156.5375 645.741667,155.9 647.575,155.9 C648.508333,155.9 649.383333,156.125 650.2,156.575 C651.016667,157.025 651.666667,157.608333 652.15,158.325 L652.15,158.325 L653.9,157.35 C652.35,155.15 650.241667,154.05 647.575,154.05 C645.141667,154.05 643.104167,154.854167 641.4625,156.4625 C639.820833,158.070833 639,160.141667 639,162.675 C639,165.208333 639.820833,167.279167 641.4625,168.8875 C643.104167,170.495833 645.141667,171.3 647.575,171.3 Z M663.825,171.3 C665.691667,171.3 667.166667,170.6 668.25,169.2 L668.25,169.2 L667,168.05 C666.216667,169.1 665.191667,169.625 663.925,169.625 C662.658333,169.625 661.645833,169.1875 660.8875,168.3125 C660.129167,167.4375 659.75,166.316667 659.75,164.95 C659.75,163.583333 660.129167,162.466667 660.8875,161.6 C661.645833,160.733333 662.658333,160.3 663.925,160.3 C665.208333,160.3 666.233333,160.825 667,161.875 L667,161.875 L668.25,160.725 C667.166667,159.325 665.691667,158.625 663.825,158.625 C662.041667,158.625 660.591667,159.225 659.475,160.425 C658.358333,161.625 657.8,163.133333 657.8,164.95 C657.8,166.766667 658.358333,168.279167 659.475,169.4875 C660.591667,170.695833 662.041667,171.3 663.825,171.3 Z M678.65,171 C681.2,171 683.2625,170.216667 684.8375,168.65 C686.4125,167.083333 687.2,165.091667 687.2,162.675 C687.2,160.275 686.4125,158.283333 684.8375,156.7 C683.2625,155.116667 681.2,154.325 678.65,154.325 L678.65,154.325 L672.95,154.325 L672.95,171 L678.65,171 Z M678.65,169.15 L675.025,169.15 L675.025,156.175 L678.65,156.175 C680.65,156.175 682.216667,156.791667 683.35,158.025 C684.483333,159.258333 685.05,160.808333 685.05,162.675 C685.05,164.525 684.475,166.066667 683.325,167.3 C682.175,168.533333 680.616667,169.15 678.65,169.15 L678.65,169.15 Z M697.05,171.3 C698.733333,171.3 700.091667,170.6 701.125,169.2 L701.125,169.2 L701.125,171 L703,171 L703,154.325 L701.125,154.325 L701.125,160.75 C700.075,159.333333 698.716667,158.625 697.05,158.625 C695.45,158.625 694.154167,159.204167 693.1625,160.3625 C692.170833,161.520833 691.675,163.058333 691.675,164.975 C691.675,166.908333 692.170833,168.445833 693.1625,169.5875 C694.154167,170.729167 695.45,171.3 697.05,171.3 Z M697.5,169.625 C696.316667,169.625 695.375,169.191667 694.675,168.325 C693.975,167.458333 693.625,166.341667 693.625,164.975 C693.625,163.608333 693.975,162.4875 694.675,161.6125 C695.375,160.7375 696.316667,160.3 697.5,160.3 C698.216667,160.3 698.9125,160.4875 699.5875,160.8625 C700.2625,161.2375 700.775,161.7 701.125,162.25 L701.125,162.25 L701.125,167.725 C700.775,168.258333 700.266667,168.708333 699.6,169.075 C698.933333,169.441667 698.233333,169.625 697.5,169.625 Z M719.75,171 L719.75,169.15 L710.9,169.15 L710.9,163.4 L719.575,163.4 L719.575,161.55 L710.9,161.55 L710.9,156.175 L719.75,156.175 L719.75,154.325 L708.825,154.325 L708.825,171 L719.75,171 Z M730.425,171.3 C732.391667,171.3 733.991667,170.683333 735.225,169.45 L735.225,169.45 L734.325,168.225 C733.341667,169.241667 732.1,169.75 730.6,169.75 C729.35,169.75 728.333333,169.35 727.55,168.55 C726.766667,167.75 726.333333,166.758333 726.25,165.575 L726.25,165.575 L736.025,165.575 L736.025,165.1 C736.025,163.233333 735.504167,161.6875 734.4625,160.4625 C733.420833,159.2375 732.008333,158.625 730.225,158.625 C728.525,158.625 727.108333,159.2375 725.975,160.4625 C724.841667,161.6875 724.275,163.183333 724.275,164.95 C724.275,166.833333 724.85,168.3625 726,169.5375 C727.15,170.7125 728.625,171.3 730.425,171.3 Z M734.175,164.2 L726.25,164.2 C726.3,163.15 726.670833,162.216667 727.3625,161.4 C728.054167,160.583333 729,160.175 730.2,160.175 C731.466667,160.175 732.441667,160.5875 733.125,161.4125 C733.808333,162.2375 734.158333,163.166667 734.175,164.2 L734.175,164.2 Z M743.2,171 L743.2,163.4 L751.875,163.4 L751.875,161.55 L743.2,161.55 L743.2,156.175 L752.05,156.175 L752.05,154.325 L741.125,154.325 L741.125,171 L743.2,171 Z M759.2,171 L759.2,160.575 L761.65,160.575 L761.65,158.925 L759.2,158.925 L759.2,158 C759.2,157.233333 759.3625,156.645833 759.6875,156.2375 C760.0125,155.829167 760.483333,155.625 761.1,155.625 C761.65,155.625 762.15,155.825 762.6,156.225 L762.6,156.225 L763.375,155 C762.708333,154.383333 761.858333,154.075 760.825,154.075 C759.741667,154.075 758.8875,154.420833 758.2625,155.1125 C757.6375,155.804167 757.325,156.766667 757.325,158 L757.325,158 L757.325,158.925 L755.325,158.925 L755.325,160.575 L757.325,160.575 L757.325,171 L759.2,171 Z M773.85,171.325 C776.5,171.325 778.683333,170.366667 780.4,168.45 L780.4,168.45 L780.4,162.425 L772.6,162.425 L772.6,164.275 L778.325,164.275 L778.325,167.675 C777.841667,168.158333 777.204167,168.579167 776.4125,168.9375 C775.620833,169.295833 774.766667,169.475 773.85,169.475 C772.016667,169.475 770.4875,168.833333 769.2625,167.55 C768.0375,166.266667 767.425,164.641667 767.425,162.675 C767.425,160.708333 768.0375,159.0875 769.2625,157.8125 C770.4875,156.5375 772.016667,155.9 773.85,155.9 C774.816667,155.9 775.729167,156.108333 776.5875,156.525 C777.445833,156.941667 778.141667,157.5 778.675,158.2 L778.675,158.2 L780.325,157.175 C778.641667,155.091667 776.483333,154.05 773.85,154.05 C771.433333,154.05 769.4,154.85 767.75,156.45 C766.1,158.05 765.275,160.125 765.275,162.675 C765.275,165.225 766.1,167.304167 767.75,168.9125 C769.4,170.520833 771.433333,171.325 773.85,171.325 Z M790.55,175.9 C792.216667,175.9 793.591667,175.4875 794.675,174.6625 C795.758333,173.8375 796.3,172.5 796.3,170.65 L796.3,170.65 L796.3,158.925 L794.425,158.925 L794.425,160.75 C793.375,159.333333 792.025,158.625 790.375,158.625 C788.775,158.625 787.479167,159.191667 786.4875,160.325 C785.495833,161.458333 785,162.983333 785,164.9 C785,166.816667 785.495833,168.3375 786.4875,169.4625 C787.479167,170.5875 788.775,171.15 790.375,171.15 C791.191667,171.15 791.958333,170.95 792.675,170.55 C793.391667,170.15 793.975,169.633333 794.425,169 L794.425,169 L794.425,170.725 C794.425,171.958333 794.058333,172.870833 793.325,173.4625 C792.591667,174.054167 791.666667,174.35 790.55,174.35 C788.85,174.35 787.541667,173.8 786.625,172.7 L786.625,172.7 L785.675,174.1 C786.358333,174.783333 787.075,175.254167 787.825,175.5125 C788.575,175.770833 789.483333,175.9 790.55,175.9 Z M790.825,169.5 C789.641667,169.5 788.7,169.070833 788,168.2125 C787.3,167.354167 786.95,166.25 786.95,164.9 C786.95,163.533333 787.295833,162.425 787.9875,161.575 C788.679167,160.725 789.625,160.3 790.825,160.3 C791.558333,160.3 792.258333,160.4875 792.925,160.8625 C793.591667,161.2375 794.091667,161.7 794.425,162.25 L794.425,162.25 L794.425,167.525 C794.091667,168.075 793.5875,168.541667 792.9125,168.925 C792.2375,169.308333 791.541667,169.5 790.825,169.5 Z M804.2,171 L804.2,163.35 L813.95,163.35 L813.95,171 L816.025,171 L816.025,154.325 L813.95,154.325 L813.95,161.5 L804.2,161.5 L804.2,154.325 L802.125,154.325 L802.125,171 L804.2,171 Z M823.725,171 L823.725,162.175 C824.108333,161.658333 824.629167,161.216667 825.2875,160.85 C825.945833,160.483333 826.616667,160.3 827.3,160.3 C828.183333,160.3 828.858333,160.508333 829.325,160.925 C829.791667,161.341667 830.025,162.05 830.025,163.05 L830.025,163.05 L830.025,171 L831.9,171 L831.9,162.475 C831.9,159.908333 830.616667,158.625 828.05,158.625 C827.2,158.625 826.383333,158.829167 825.6,159.2375 C824.816667,159.645833 824.191667,160.125 823.725,160.675 L823.725,160.675 L823.725,154.325 L821.85,154.325 L821.85,171 L823.725,171 Z M839.8,171 L839.8,154.325 L837.725,154.325 L837.725,171 L839.8,171 Z M846.55,157.2 C846.9,157.2 847.2,157.079167 847.45,156.8375 C847.7,156.595833 847.825,156.3 847.825,155.95 C847.825,155.6 847.7,155.3 847.45,155.05 C847.2,154.8 846.9,154.675 846.55,154.675 C846.216667,154.675 845.925,154.8 845.675,155.05 C845.425,155.3 845.3,155.6 845.3,155.95 C845.3,156.3 845.425,156.595833 845.675,156.8375 C845.925,157.079167 846.216667,157.2 846.55,157.2 Z M847.5,171 L847.5,158.925 L845.625,158.925 L845.625,171 L847.5,171 Z M856,171.3 C857.566667,171.3 858.841667,170.845833 859.825,169.9375 C860.808333,169.029167 861.3,167.708333 861.3,165.975 L861.3,165.975 L861.3,154.325 L859.225,154.325 L859.225,165.95 C859.225,167 858.920833,167.845833 858.3125,168.4875 C857.704167,169.129167 856.891667,169.45 855.875,169.45 C854.691667,169.45 853.641667,168.9 852.725,167.8 L852.725,167.8 L851.65,169.375 C852.75,170.658333 854.2,171.3 856,171.3 Z M868.05,157.2 C868.4,157.2 868.7,157.079167 868.95,156.8375 C869.2,156.595833 869.325,156.3 869.325,155.95 C869.325,155.6 869.2,155.3 868.95,155.05 C868.7,154.8 868.4,154.675 868.05,154.675 C867.716667,154.675 867.425,154.8 867.175,155.05 C866.925,155.3 866.8,155.6 866.8,155.95 C866.8,156.3 866.925,156.595833 867.175,156.8375 C867.425,157.079167 867.716667,157.2 868.05,157.2 Z M865.425,175.9 C866.575,175.9 867.458333,175.575 868.075,174.925 C868.691667,174.275 869,173.358333 869,172.175 L869,172.175 L869,158.925 L867.125,158.925 L867.125,172.175 C867.125,172.908333 866.95,173.454167 866.6,173.8125 C866.25,174.170833 865.775,174.35 865.175,174.35 C864.541667,174.35 863.966667,174.091667 863.45,173.575 L863.45,173.575 L862.775,175 C863.558333,175.6 864.441667,175.9 865.425,175.9 Z M876.9,171 L876.9,165.4 L878.575,163.5 L884.9,171 L887.475,171 L879.925,162.25 L886.875,154.325 L884.275,154.325 L876.9,162.95 L876.9,154.325 L874.825,154.325 L874.825,171 L876.9,171 Z M893.65,171 L893.65,167.55 L895.65,165.575 L900,171 L902.4,171 L897.025,164.4 L902.375,158.925 L900,158.925 L893.65,165.35 L893.65,154.325 L891.775,154.325 L891.775,171 L893.65,171 Z M916.525,171 L916.525,169.15 L908.775,169.15 L908.775,154.325 L906.7,154.325 L906.7,171 L916.525,171 Z M923.25,171 L923.25,154.325 L921.375,154.325 L921.375,171 L923.25,171 Z M931.15,171 L931.15,157.275 L936.8,171 L937.65,171 L943.325,157.275 L943.325,171 L945.4,171 L945.4,154.325 L942.425,154.325 L937.225,166.875 L932.05,154.325 L929.075,154.325 L929.075,171 L931.15,171 Z M953.1,171 L953.1,162.175 C953.45,161.658333 953.920833,161.216667 954.5125,160.85 C955.104167,160.483333 955.691667,160.3 956.275,160.3 C957.758333,160.3 958.5,161.133333 958.5,162.8 L958.5,162.8 L958.5,171 L960.375,171 L960.375,162.15 C960.708333,161.65 961.175,161.216667 961.775,160.85 C962.375,160.483333 962.975,160.3 963.575,160.3 C965.058333,160.3 965.8,161.133333 965.8,162.8 L965.8,162.8 L965.8,171 L967.675,171 L967.675,162.275 C967.675,159.841667 966.55,158.625 964.3,158.625 C963.466667,158.625 962.675,158.85 961.925,159.3 C961.175,159.75 960.616667,160.275 960.25,160.875 C960.066667,160.208333 959.7,159.666667 959.15,159.25 C958.6,158.833333 957.883333,158.625 957,158.625 C956.2,158.625 955.425,158.85 954.675,159.3 C953.925,159.75 953.4,160.208333 953.1,160.675 L953.1,160.675 L953.1,158.925 L951.225,158.925 L951.225,171 L953.1,171 Z M975.575,171 L975.575,157.7 L985.3,171 L987.3,171 L987.3,154.325 L985.225,154.325 L985.225,167.35 L975.625,154.325 L973.5,154.325 L973.5,171 L975.575,171 Z M995,171 L995,162.175 C995.366667,161.658333 995.879167,161.216667 996.5375,160.85 C997.195833,160.483333 997.875,160.3 998.575,160.3 C999.441667,160.3 1000.10833,160.5125 1000.575,160.9375 C1001.04167,161.3625 1001.275,162.083333 1001.275,163.1 L1001.275,163.1 L1001.275,171 L1003.15,171 L1003.15,162.525 C1003.15,159.925 1001.86667,158.625 999.3,158.625 C998.466667,158.625 997.658333,158.829167 996.875,159.2375 C996.091667,159.645833 995.466667,160.125 995,160.675 L995,160.675 L995,158.925 L993.125,158.925 L993.125,171 L995,171 Z M1016.575,171.3 C1019.00833,171.3 1020.99583,170.483333 1022.5375,168.85 C1024.07917,167.216667 1024.85,165.158333 1024.85,162.675 C1024.85,160.191667 1024.07917,158.133333 1022.5375,156.5 C1020.99583,154.866667 1019.00833,154.05 1016.575,154.05 C1014.125,154.05 1012.13333,154.866667 1010.6,156.5 C1009.06667,158.133333 1008.3,160.191667 1008.3,162.675 C1008.3,165.158333 1009.06667,167.216667 1010.6,168.85 C1012.13333,170.483333 1014.125,171.3 1016.575,171.3 Z M1016.575,169.45 C1014.725,169.45 1013.24167,168.8125 1012.125,167.5375 C1011.00833,166.2625 1010.45,164.641667 1010.45,162.675 C1010.45,160.691667 1011.00833,159.066667 1012.125,157.8 C1013.24167,156.533333 1014.725,155.9 1016.575,155.9 C1018.40833,155.9 1019.8875,156.533333 1021.0125,157.8 C1022.1375,159.066667 1022.7,160.691667 1022.7,162.675 C1022.7,164.641667 1022.1375,166.2625 1021.0125,167.5375 C1019.8875,168.8125 1018.40833,169.45 1016.575,169.45 Z M1035.3,171.3 C1037.1,171.3 1038.54167,170.691667 1039.625,169.475 C1040.725,168.258333 1041.275,166.75 1041.275,164.95 C1041.275,163.15 1040.72917,161.645833 1039.6375,160.4375 C1038.54583,159.229167 1037.1,158.625 1035.3,158.625 C1033.5,158.625 1032.05417,159.229167 1030.9625,160.4375 C1029.87083,161.645833 1029.325,163.15 1029.325,164.95 C1029.325,166.75 1029.87083,168.258333 1030.9625,169.475 C1032.05417,170.691667 1033.5,171.3 1035.3,171.3 Z M1035.3,169.625 C1034.06667,169.625 1033.08333,169.175 1032.35,168.275 C1031.63333,167.358333 1031.275,166.25 1031.275,164.95 C1031.275,163.666667 1031.6375,162.570833 1032.3625,161.6625 C1033.0875,160.754167 1034.06667,160.3 1035.3,160.3 C1036.53333,160.3 1037.50833,160.75 1038.225,161.65 C1038.94167,162.55 1039.3,163.65 1039.3,164.95 C1039.3,166.25 1038.94167,167.354167 1038.225,168.2625 C1037.50833,169.170833 1036.53333,169.625 1035.3,169.625 Z M1048.475,171 L1048.475,164.375 L1053.1,164.375 C1054.7,164.375 1055.97083,163.891667 1056.9125,162.925 C1057.85417,161.958333 1058.325,160.766667 1058.325,159.35 C1058.325,157.933333 1057.85833,156.741667 1056.925,155.775 C1055.99167,154.808333 1054.71667,154.325 1053.1,154.325 L1053.1,154.325 L1046.4,154.325 L1046.4,171 L1048.475,171 Z M1052.85,162.525 L1048.475,162.525 L1048.475,156.175 L1052.85,156.175 C1053.83333,156.175 1054.63333,156.470833 1055.25,157.0625 C1055.86667,157.654167 1056.175,158.416667 1056.175,159.35 C1056.175,160.283333 1055.86667,161.045833 1055.25,161.6375 C1054.63333,162.229167 1053.83333,162.525 1052.85,162.525 L1052.85,162.525 Z M573.75,210.6 L573.75,204.175 C574.766667,205.591667 576.125,206.3 577.825,206.3 C579.425,206.3 580.720833,205.725 581.7125,204.575 C582.704167,203.425 583.2,201.883333 583.2,199.95 C583.2,198.016667 582.704167,196.479167 581.7125,195.3375 C580.720833,194.195833 579.425,193.625 577.825,193.625 C576.991667,193.625 576.216667,193.816667 575.5,194.2 C574.783333,194.583333 574.2,195.091667 573.75,195.725 L573.75,195.725 L573.75,193.925 L571.875,193.925 L571.875,210.6 L573.75,210.6 Z M577.35,204.625 C576.633333,204.625 575.9375,204.4375 575.2625,204.0625 C574.5875,203.6875 574.083333,203.225 573.75,202.675 L573.75,202.675 L573.75,197.225 C574.083333,196.691667 574.5875,196.2375 575.2625,195.8625 C575.9375,195.4875 576.633333,195.3 577.35,195.3 C578.533333,195.3 579.475,195.733333 580.175,196.6 C580.875,197.466667 581.225,198.583333 581.225,199.95 C581.225,201.316667 580.875,202.4375 580.175,203.3125 C579.475,204.1875 578.533333,204.625 577.35,204.625 Z M601.975,206.775 L603.425,205.525 L601.825,203.825 C603.358333,202.208333 604.125,200.158333 604.125,197.675 C604.125,195.191667 603.354167,193.133333 601.8125,191.5 C600.270833,189.866667 598.283333,189.05 595.85,189.05 C593.4,189.05 591.408333,189.866667 589.875,191.5 C588.341667,193.133333 587.575,195.191667 587.575,197.675 C587.575,200.158333 588.341667,202.216667 589.875,203.85 C591.408333,205.483333 593.4,206.3 595.85,206.3 C597.55,206.3 599.05,205.883333 600.35,205.05 L600.35,205.05 L601.975,206.775 Z M595.85,204.45 C594,204.45 592.516667,203.8125 591.4,202.5375 C590.283333,201.2625 589.725,199.641667 589.725,197.675 C589.725,195.691667 590.283333,194.066667 591.4,192.8 C592.516667,191.533333 594,190.9 595.85,190.9 C597.683333,190.9 599.1625,191.533333 600.2875,192.8 C601.4125,194.066667 601.975,195.691667 601.975,197.675 C601.975,199.541667 601.466667,201.1 600.45,202.35 L600.45,202.35 L598.1,199.8 L596.65,201.025 L599.025,203.6 C598.091667,204.166667 597.033333,204.45 595.85,204.45 Z M619.825,210.6 L619.825,193.925 L617.95,193.925 L617.95,195.725 C617.516667,195.091667 616.941667,194.583333 616.225,194.2 C615.508333,193.816667 614.733333,193.625 613.9,193.625 C612.3,193.625 611.004167,194.195833 610.0125,195.3375 C609.020833,196.479167 608.525,198.016667 608.525,199.95 C608.525,201.883333 609.020833,203.425 610.0125,204.575 C611.004167,205.725 612.3,206.3 613.9,206.3 C615.583333,206.3 616.933333,205.591667 617.95,204.175 L617.95,204.175 L617.95,210.6 L619.825,210.6 Z M614.35,204.625 C613.166667,204.625 612.229167,204.1875 611.5375,203.3125 C610.845833,202.4375 610.5,201.316667 610.5,199.95 C610.5,198.583333 610.845833,197.466667 611.5375,196.6 C612.229167,195.733333 613.166667,195.3 614.35,195.3 C615.083333,195.3 615.7875,195.4875 616.4625,195.8625 C617.1375,196.2375 617.633333,196.691667 617.95,197.225 L617.95,197.225 L617.95,202.675 C617.633333,203.225 617.1375,203.6875 616.4625,204.0625 C615.7875,204.4375 615.083333,204.625 614.35,204.625 Z M627.75,206 L627.75,199.375 L631.075,199.375 L635.325,206 L637.775,206 L633.275,199.2 C634.491667,199.1 635.516667,198.625 636.35,197.775 C637.183333,196.925 637.6,195.783333 637.6,194.35 C637.6,192.833333 637.116667,191.616667 636.15,190.7 C635.183333,189.783333 633.925,189.325 632.375,189.325 L632.375,189.325 L625.675,189.325 L625.675,206 L627.75,206 Z M632.125,197.55 L627.75,197.55 L627.75,191.175 L632.125,191.175 C633.108333,191.175 633.908333,191.470833 634.525,192.0625 C635.141667,192.654167 635.45,193.416667 635.45,194.35 C635.45,195.283333 635.141667,196.05 634.525,196.65 C633.908333,197.25 633.108333,197.55 632.125,197.55 L632.125,197.55 Z M644.675,206 L644.675,197.45 C644.958333,196.966667 645.433333,196.525 646.1,196.125 C646.766667,195.725 647.383333,195.525 647.95,195.525 C648.216667,195.525 648.466667,195.55 648.7,195.6 L648.7,195.6 L648.7,193.675 C647.133333,193.675 645.791667,194.408333 644.675,195.875 L644.675,195.875 L644.675,193.925 L642.8,193.925 L642.8,206 L644.675,206 Z M658.525,206.3 C660.608333,206.3 662.154167,205.825 663.1625,204.875 C664.170833,203.925 664.675,202.766667 664.675,201.4 C664.675,200.433333 664.429167,199.608333 663.9375,198.925 C663.445833,198.241667 662.8375,197.745833 662.1125,197.4375 C661.3875,197.129167 660.595833,196.8375 659.7375,196.5625 C658.879167,196.2875 658.0875,196.058333 657.3625,195.875 C656.6375,195.691667 656.029167,195.408333 655.5375,195.025 C655.045833,194.641667 654.8,194.158333 654.8,193.575 C654.8,192.791667 655.120833,192.154167 655.7625,191.6625 C656.404167,191.170833 657.225,190.925 658.225,190.925 C660.225,190.925 661.833333,191.591667 663.05,192.925 L663.05,192.925 L664.3,191.4 C662.833333,189.85 660.858333,189.075 658.375,189.075 C656.725,189.075 655.358333,189.504167 654.275,190.3625 C653.191667,191.220833 652.65,192.333333 652.65,193.7 C652.65,194.5 652.833333,195.191667 653.2,195.775 C653.566667,196.358333 654.0375,196.808333 654.6125,197.125 C655.1875,197.441667 655.825,197.7125 656.525,197.9375 C657.225,198.1625 657.929167,198.366667 658.6375,198.55 C659.345833,198.733333 659.9875,198.9375 660.5625,199.1625 C661.1375,199.3875 661.608333,199.7 661.975,200.1 C662.341667,200.5 662.525,200.991667 662.525,201.575 C662.525,202.341667 662.208333,203.0125 661.575,203.5875 C660.941667,204.1625 659.95,204.45 658.6,204.45 C656.516667,204.45 654.766667,203.658333 653.35,202.075 L653.35,202.075 L652.125,203.65 C653.691667,205.416667 655.825,206.3 658.525,206.3 Z M673.525,206.3 C675.025,206.3 676.191667,205.958333 677.025,205.275 C677.858333,204.591667 678.275,203.716667 678.275,202.65 C678.275,201.783333 678.016667,201.079167 677.5,200.5375 C676.983333,199.995833 676.358333,199.616667 675.625,199.4 C674.891667,199.183333 674.1625,198.995833 673.4375,198.8375 C672.7125,198.679167 672.091667,198.4625 671.575,198.1875 C671.058333,197.9125 670.8,197.533333 670.8,197.05 C670.8,196.5 671.041667,196.045833 671.525,195.6875 C672.008333,195.329167 672.658333,195.15 673.475,195.15 C675.025,195.15 676.225,195.658333 677.075,196.675 L677.075,196.675 L677.95,195.375 C676.783333,194.208333 675.291667,193.625 673.475,193.625 C672.091667,193.625 670.995833,193.958333 670.1875,194.625 C669.379167,195.291667 668.975,196.116667 668.975,197.1 C668.975,197.933333 669.233333,198.604167 669.75,199.1125 C670.266667,199.620833 670.891667,199.979167 671.625,200.1875 C672.358333,200.395833 673.0875,200.579167 673.8125,200.7375 C674.5375,200.895833 675.158333,201.129167 675.675,201.4375 C676.191667,201.745833 676.45,202.166667 676.45,202.7 C676.45,203.316667 676.2,203.816667 675.7,204.2 C675.2,204.583333 674.5,204.775 673.6,204.775 C672.816667,204.775 672.0625,204.608333 671.3375,204.275 C670.6125,203.941667 670.041667,203.533333 669.625,203.05 L669.625,203.05 L668.65,204.4 C669.85,205.666667 671.475,206.3 673.525,206.3 Z M687.4,206 L687.4,191.175 L692.7,191.175 L692.7,189.325 L680.05,189.325 L680.05,191.175 L685.325,191.175 L685.325,206 L687.4,206 Z M700.425,206.3 C701.375,206.3 702.125,206.041667 702.675,205.525 L702.675,205.525 L702.125,204.125 C701.825,204.458333 701.4,204.625 700.85,204.625 C700.45,204.625 700.145833,204.483333 699.9375,204.2 C699.729167,203.916667 699.625,203.541667 699.625,203.075 L699.625,203.075 L699.625,195.575 L702.075,195.575 L702.075,193.925 L699.625,193.925 L699.625,190.625 L697.75,190.625 L697.75,193.925 L695.75,193.925 L695.75,195.575 L697.75,195.575 L697.75,203.475 C697.75,204.391667 697.975,205.091667 698.425,205.575 C698.875,206.058333 699.541667,206.3 700.425,206.3 Z M713.6,206.3 C715.816667,206.3 717.5,205.7 718.65,204.5 C719.816667,203.283333 720.4,201.616667 720.4,199.5 L720.4,199.5 L720.4,189.325 L718.325,189.325 L718.325,199.475 C718.325,201.025 717.916667,202.241667 717.1,203.125 C716.283333,204.008333 715.116667,204.45 713.6,204.45 C712.083333,204.45 710.916667,204.008333 710.1,203.125 C709.283333,202.241667 708.875,201.025 708.875,199.475 L708.875,199.475 L708.875,189.325 L706.8,189.325 L706.8,199.525 C706.8,201.625 707.379167,203.279167 708.5375,204.4875 C709.695833,205.695833 711.383333,206.3 713.6,206.3 Z M730.075,206.3 C730.925,206.3 731.729167,206.108333 732.4875,205.725 C733.245833,205.341667 733.875,204.866667 734.375,204.3 L734.375,204.3 L734.375,206 L736.25,206 L736.25,193.925 L734.375,193.925 L734.375,202.8 C734.008333,203.316667 733.495833,203.75 732.8375,204.1 C732.179167,204.45 731.5,204.625 730.8,204.625 C729.916667,204.625 729.245833,204.416667 728.7875,204 C728.329167,203.583333 728.1,202.875 728.1,201.875 L728.1,201.875 L728.1,193.925 L726.225,193.925 L726.225,202.45 C726.225,205.016667 727.508333,206.3 730.075,206.3 Z M748.575,206 L755.3,189.325 L752.925,189.325 L747.3,203.725 L741.675,189.325 L739.3,189.325 L746,206 L748.575,206 Z M764.35,206 L769.375,193.925 L767.325,193.925 L763.325,203.825 L759.3,193.925 L757.275,193.925 L762.3,206 L764.35,206 Z M778.725,206 L782.4,192.55 L786.075,206 L788.325,206 L793.075,189.325 L790.775,189.325 L787.1,203.225 L783.275,189.325 L781.55,189.325 L777.725,203.225 L774.025,189.325 L771.725,189.325 L776.475,206 L778.725,206 Z M801.475,206 L804.625,196.3 L807.775,206 L809.65,206 L813.5,193.925 L811.55,193.925 L808.6,203.55 L805.425,193.925 L803.825,193.925 L800.65,203.55 L797.7,193.925 L795.75,193.925 L799.6,206 L801.475,206 Z M817.525,206 L822.85,198.9 L828.175,206 L830.675,206 L824.2,197.425 L830.3,189.325 L827.775,189.325 L822.85,196 L817.9,189.325 L815.375,189.325 L821.5,197.45 L815,206 L817.525,206 Z M835.45,206 L839.075,201.05 L842.7,206 L844.875,206 L840.225,199.8 L844.6,193.925 L842.425,193.925 L839.075,198.525 L835.725,193.925 L833.55,193.925 L837.925,199.8 L833.3,206 L835.45,206 Z M854.2,206 L854.2,198.95 L860.75,189.325 L858.325,189.325 L853.15,197.075 L847.975,189.325 L845.55,189.325 L852.125,198.95 L852.125,206 L854.2,206 Z M864.05,210.9 C865.75,210.866667 866.933333,210.05 867.6,208.45 L867.6,208.45 L873.65,193.925 L871.6,193.925 L867.6,203.825 L863.575,193.925 L861.55,193.925 L866.6,206.125 L865.8,207.95 C865.6,208.433333 865.358333,208.766667 865.075,208.95 C864.791667,209.133333 864.433333,209.225 864,209.225 C863.616667,209.225 863.275,209.158333 862.975,209.025 L862.975,209.025 L862.675,210.725 C863.091667,210.841667 863.55,210.9 864.05,210.9 Z M889.125,206 L889.125,204.15 L879.575,204.15 L888.95,191.05 L888.95,189.325 L876.925,189.325 L876.925,191.175 L886.3,191.175 L876.925,204.275 L876.925,206 L889.125,206 Z M902.85,206 L902.85,204.375 L896.05,204.375 L902.75,195.35 L902.75,193.925 L893.65,193.925 L893.65,195.575 L900.3,195.575 L893.65,204.55 L893.65,206 L902.85,206 Z M576.525,276 L576.525,259.325 L574.7,259.325 L570.525,263.625 L571.775,264.9 L574.45,262.075 L574.45,276 L576.525,276 Z M593.275,276 L593.275,274.15 L585.1,274.15 C587.833333,272 589.866667,270.154167 591.2,268.6125 C592.533333,267.070833 593.2,265.525 593.2,263.975 C593.2,262.408333 592.645833,261.2 591.5375,260.35 C590.429167,259.5 589.116667,259.075 587.6,259.075 C586.416667,259.075 585.3125,259.304167 584.2875,259.7625 C583.2625,260.220833 582.433333,260.866667 581.8,261.7 L581.8,261.7 L583.075,263.025 C584.175,261.625 585.683333,260.925 587.6,260.925 C588.55,260.925 589.366667,261.183333 590.05,261.7 C590.733333,262.216667 591.075,262.975 591.075,263.975 C591.075,264.675 590.891667,265.379167 590.525,266.0875 C590.158333,266.795833 589.529167,267.604167 588.6375,268.5125 C587.745833,269.420833 586.820833,270.279167 585.8625,271.0875 C584.904167,271.895833 583.558333,272.983333 581.825,274.35 L581.825,274.35 L581.825,276 L593.275,276 Z M603.825,276.3 C605.625,276.3 607.058333,275.854167 608.125,274.9625 C609.191667,274.070833 609.725,272.916667 609.725,271.5 C609.725,270.283333 609.3125,269.316667 608.4875,268.6 C607.6625,267.883333 606.791667,267.483333 605.875,267.4 C606.808333,267.233333 607.641667,266.820833 608.375,266.1625 C609.108333,265.504167 609.475,264.625 609.475,263.525 C609.475,262.141667 608.945833,261.054167 607.8875,260.2625 C606.829167,259.470833 605.475,259.075 603.825,259.075 C601.441667,259.075 599.541667,259.933333 598.125,261.65 L598.125,261.65 L599.275,262.95 C600.525,261.6 601.991667,260.925 603.675,260.925 C604.741667,260.925 605.629167,261.179167 606.3375,261.6875 C607.045833,262.195833 607.4,262.891667 607.4,263.775 C607.4,264.691667 607.0375,265.379167 606.3125,265.8375 C605.5875,266.295833 604.658333,266.525 603.525,266.525 C602.558333,266.525 601.983333,266.516667 601.8,266.5 L601.8,266.5 L601.8,268.4 C601.966667,268.383333 602.541667,268.375 603.525,268.375 C604.808333,268.375 605.820833,268.616667 606.5625,269.1 C607.304167,269.583333 607.675,270.325 607.675,271.325 C607.675,272.291667 607.329167,273.054167 606.6375,273.6125 C605.945833,274.170833 604.991667,274.45 603.775,274.45 C602.808333,274.45 601.916667,274.25 601.1,273.85 C600.283333,273.45 599.625,272.916667 599.125,272.25 L599.125,272.25 L597.9,273.55 C598.45,274.35 599.241667,275.008333 600.275,275.525 C601.308333,276.041667 602.491667,276.3 603.825,276.3 Z M623.9,276 L623.9,271.775 L626.25,271.775 L626.25,269.95 L623.9,269.95 L623.9,259.325 L621.05,259.325 L613.9,270.05 L613.9,271.775 L621.825,271.775 L621.825,276 L623.9,276 Z M621.825,269.95 L615.975,269.95 L621.825,261.25 L621.825,269.95 Z M636.575,276.3 C638.291667,276.3 639.708333,275.8 640.825,274.8 C641.941667,273.8 642.5,272.466667 642.5,270.8 C642.5,269.166667 641.983333,267.870833 640.95,266.9125 C639.916667,265.954167 638.666667,265.475 637.2,265.475 C635.6,265.475 634.3,265.975 633.3,266.975 L633.3,266.975 L633.3,261.175 L641.425,261.175 L641.425,259.325 L631.225,259.325 L631.225,268.325 L632.75,268.85 C633.816667,267.8 635.1,267.275 636.6,267.275 C637.733333,267.275 638.654167,267.604167 639.3625,268.2625 C640.070833,268.920833 640.425,269.791667 640.425,270.875 C640.425,271.891667 640.066667,272.741667 639.35,273.425 C638.633333,274.108333 637.708333,274.45 636.575,274.45 C634.658333,274.45 633.125,273.716667 631.975,272.25 L631.975,272.25 L630.7,273.625 C632.05,275.408333 634.008333,276.3 636.575,276.3 Z M653.5,276.3 C655.266667,276.3 656.683333,275.770833 657.75,274.7125 C658.816667,273.654167 659.35,272.366667 659.35,270.85 C659.35,269.15 658.8375,267.8375 657.8125,266.9125 C656.7875,265.9875 655.483333,265.525 653.9,265.525 C652.916667,265.525 651.9875,265.791667 651.1125,266.325 C650.2375,266.858333 649.591667,267.458333 649.175,268.125 C649.158333,267.975 649.15,267.758333 649.15,267.475 C649.15,266.325 649.3125,265.270833 649.6375,264.3125 C649.9625,263.354167 650.4875,262.55 651.2125,261.9 C651.9375,261.25 652.816667,260.925 653.85,260.925 C655.266667,260.925 656.458333,261.491667 657.425,262.625 L657.425,262.625 L658.475,261.075 C657.308333,259.741667 655.766667,259.075 653.85,259.075 C652.35,259.075 651.079167,259.4875 650.0375,260.3125 C648.995833,261.1375 648.241667,262.183333 647.775,263.45 C647.308333,264.716667 647.075,266.133333 647.075,267.7 C647.075,268.866667 647.195833,269.954167 647.4375,270.9625 C647.679167,271.970833 648.045833,272.879167 648.5375,273.6875 C649.029167,274.495833 649.7,275.133333 650.55,275.6 C651.4,276.066667 652.383333,276.3 653.5,276.3 Z M653.425,274.45 C652.108333,274.45 651.108333,273.9875 650.425,273.0625 C649.741667,272.1375 649.341667,271.058333 649.225,269.825 C649.691667,269.075 650.3,268.470833 651.05,268.0125 C651.8,267.554167 652.583333,267.325 653.4,267.325 C654.533333,267.325 655.458333,267.633333 656.175,268.25 C656.891667,268.866667 657.25,269.758333 657.25,270.925 C657.25,271.825 656.9125,272.6375 656.2375,273.3625 C655.5625,274.0875 654.625,274.45 653.425,274.45 Z M667.9,276 L674.725,260.75 L674.725,259.325 L663.35,259.325 L663.35,261.175 L672.325,261.175 L665.6,276 L667.9,276 Z M684.725,276.3 C686.425,276.3 687.841667,275.891667 688.975,275.075 C690.125,274.241667 690.7,273.141667 690.7,271.775 C690.7,270.725 690.320833,269.816667 689.5625,269.05 C688.804167,268.283333 687.858333,267.733333 686.725,267.4 C687.808333,267.1 688.7,266.6125 689.4,265.9375 C690.1,265.2625 690.45,264.416667 690.45,263.4 C690.45,262 689.879167,260.929167 688.7375,260.1875 C687.595833,259.445833 686.258333,259.075 684.725,259.075 C683.191667,259.075 681.858333,259.445833 680.725,260.1875 C679.591667,260.929167 679.025,262 679.025,263.4 C679.025,264.416667 679.375,265.2625 680.075,265.9375 C680.775,266.6125 681.658333,267.1 682.725,267.4 C681.591667,267.733333 680.645833,268.283333 679.8875,269.05 C679.129167,269.816667 678.75,270.725 678.75,271.775 C678.75,273.158333 679.320833,274.258333 680.4625,275.075 C681.604167,275.891667 683.025,276.3 684.725,276.3 Z M684.725,266.55 C684.391667,266.483333 684.054167,266.395833 683.7125,266.2875 C683.370833,266.179167 682.983333,266.020833 682.55,265.8125 C682.116667,265.604167 681.766667,265.3125 681.5,264.9375 C681.233333,264.5625 681.1,264.141667 681.1,263.675 C681.1,262.841667 681.441667,262.175 682.125,261.675 C682.808333,261.175 683.675,260.925 684.725,260.925 C685.758333,260.925 686.620833,261.175 687.3125,261.675 C688.004167,262.175 688.35,262.841667 688.35,263.675 C688.35,264.141667 688.216667,264.5625 687.95,264.9375 C687.683333,265.3125 687.333333,265.604167 686.9,265.8125 C686.466667,266.020833 686.079167,266.183333 685.7375,266.3 C685.395833,266.416667 685.058333,266.5 684.725,266.55 Z M684.725,274.45 C683.641667,274.45 682.720833,274.183333 681.9625,273.65 C681.204167,273.116667 680.825,272.416667 680.825,271.55 C680.825,270.883333 681.091667,270.295833 681.625,269.7875 C682.158333,269.279167 682.695833,268.920833 683.2375,268.7125 C683.779167,268.504167 684.275,268.375 684.725,268.325 C685.175,268.375 685.670833,268.504167 686.2125,268.7125 C686.754167,268.920833 687.2875,269.279167 687.8125,269.7875 C688.3375,270.295833 688.6,270.883333 688.6,271.55 C688.6,272.416667 688.220833,273.116667 687.4625,273.65 C686.704167,274.183333 685.791667,274.45 684.725,274.45 Z M700.7,276.275 C702.2,276.275 703.470833,275.8625 704.5125,275.0375 C705.554167,274.2125 706.308333,273.170833 706.775,271.9125 C707.241667,270.654167 707.475,269.241667 707.475,267.675 C707.475,266.491667 707.354167,265.4 707.1125,264.4 C706.870833,263.4 706.504167,262.491667 706.0125,261.675 C705.520833,260.858333 704.85,260.216667 704,259.75 C703.15,259.283333 702.158333,259.05 701.025,259.05 C699.275,259.05 697.866667,259.583333 696.8,260.65 C695.733333,261.716667 695.2,263 695.2,264.5 C695.2,266.2 695.716667,267.5125 696.75,268.4375 C697.783333,269.3625 699.091667,269.825 700.675,269.825 C701.658333,269.825 702.583333,269.558333 703.45,269.025 C704.316667,268.491667 704.958333,267.891667 705.375,267.225 C705.391667,267.375 705.4,267.6 705.4,267.9 C705.4,269.016667 705.25,270.05 704.95,271 C704.65,271.95 704.133333,272.758333 703.4,273.425 C702.666667,274.091667 701.766667,274.425 700.7,274.425 C699.283333,274.425 698.091667,273.858333 697.125,272.725 L697.125,272.725 L696.075,274.275 C697.241667,275.608333 698.783333,276.275 700.7,276.275 Z M701.15,268.025 C700.016667,268.025 699.091667,267.716667 698.375,267.1 C697.658333,266.483333 697.3,265.591667 697.3,264.425 C697.3,263.541667 697.641667,262.733333 698.325,262 C699.008333,261.266667 699.941667,260.9 701.125,260.9 C702.441667,260.9 703.441667,261.366667 704.125,262.3 C704.808333,263.233333 705.2,264.316667 705.3,265.55 C704.866667,266.3 704.270833,266.9 703.5125,267.35 C702.754167,267.8 701.966667,268.025 701.15,268.025 Z M718.4,276.3 C719.483333,276.3 720.45,276.045833 721.3,275.5375 C722.15,275.029167 722.820833,274.35 723.3125,273.5 C723.804167,272.65 724.170833,271.733333 724.4125,270.75 C724.654167,269.766667 724.775,268.741667 724.775,267.675 C724.775,266.608333 724.654167,265.583333 724.4125,264.6 C724.170833,263.616667 723.804167,262.704167 723.3125,261.8625 C722.820833,261.020833 722.15,260.345833 721.3,259.8375 C720.45,259.329167 719.483333,259.075 718.4,259.075 C717.3,259.075 716.329167,259.329167 715.4875,259.8375 C714.645833,260.345833 713.979167,261.020833 713.4875,261.8625 C712.995833,262.704167 712.629167,263.616667 712.3875,264.6 C712.145833,265.583333 712.025,266.608333 712.025,267.675 C712.025,268.741667 712.145833,269.766667 712.3875,270.75 C712.629167,271.733333 712.995833,272.65 713.4875,273.5 C713.979167,274.35 714.645833,275.029167 715.4875,275.5375 C716.329167,276.045833 717.3,276.3 718.4,276.3 Z M718.4,274.45 C717.4,274.45 716.566667,274.108333 715.9,273.425 C715.233333,272.725 714.775,271.891667 714.525,270.925 C714.275,269.958333 714.15,268.875 714.15,267.675 C714.15,266.475 714.275,265.391667 714.525,264.425 C714.775,263.458333 715.233333,262.633333 715.9,261.95 C716.566667,261.266667 717.4,260.925 718.4,260.925 C719.4,260.925 720.233333,261.266667 720.9,261.95 C721.566667,262.633333 722.025,263.458333 722.275,264.425 C722.525,265.391667 722.65,266.475 722.65,267.675 C722.65,268.875 722.525,269.958333 722.275,270.925 C722.025,271.891667 721.566667,272.720833 720.9,273.4125 C720.233333,274.104167 719.4,274.45 718.4,274.45 Z" id="group_font2"></path>
            </g>
        </g>
    </g>
</svg>