<?xml version="1.0" encoding="UTF-8"?>
<svg width="449px" height="123px" viewBox="0 0 449 123" version="1.1" xmlns="http://www.w3.org/2000/svg" xmlns:xlink="http://www.w3.org/1999/xlink">
    <!-- Generator: Sketch 63.1 (92452) - https://sketch.com -->
    <title>group_font1</title>
    <desc>Created with Sketch.</desc>
    <g id="Кейс" stroke="none" stroke-width="1" fill="none" fill-rule="evenodd">
        <g id="Pride-Group-XL" transform="translate(-173.000000, -4003.000000)" fill="#AFAFAF" fill-rule="nonzero">
            <g id="Group" transform="translate(165.000000, 3850.000000)">
                <path d="M10.025,170 L11.675,165.9 L20.5,165.9 L22.15,170 L23.8,170 L16.975,153.325 L15.2,153.325 L8.375,170 L10.025,170 Z M20.025,164.6 L12.15,164.6 L16.075,154.85 L20.025,164.6 Z M31.775,170.3 C33.4583333,170.3 34.825,169.725 35.875,168.575 L35.875,168.575 L35.875,170 L37.175,170 L37.175,161.5 C37.175,160.216667 36.7666667,159.25 35.95,158.6 C35.1333333,157.95 34.075,157.625 32.775,157.625 C30.925,157.625 29.375,158.3 28.125,159.65 L28.125,159.65 L28.85,160.55 C29.8833333,159.366667 31.1416667,158.775 32.625,158.775 C33.5583333,158.775 34.3333333,159.020833 34.95,159.5125 C35.5666667,160.004167 35.875,160.683333 35.875,161.55 L35.875,161.55 L35.875,164 C34.8416667,162.85 33.475,162.275 31.775,162.275 C30.6416667,162.275 29.6541667,162.629167 28.8125,163.3375 C27.9708333,164.045833 27.55,165.025 27.55,166.275 C27.55,167.508333 27.975,168.4875 28.825,169.2125 C29.675,169.9375 30.6583333,170.3 31.775,170.3 Z M32.225,169.275 C31.2416667,169.275 30.4458333,168.995833 29.8375,168.4375 C29.2291667,167.879167 28.925,167.166667 28.925,166.3 C28.925,165.433333 29.2291667,164.716667 29.8375,164.15 C30.4458333,163.583333 31.2416667,163.3 32.225,163.3 C33.7916667,163.3 35.0083333,163.858333 35.875,164.975 L35.875,164.975 L35.875,167.625 C35.025,168.725 33.8083333,169.275 32.225,169.275 Z M50.275,170 C51.7583333,170 52.925,169.595833 53.775,168.7875 C54.625,167.979167 55.05,166.883333 55.05,165.5 C55.05,164.516667 54.7291667,163.620833 54.0875,162.8125 C53.4458333,162.004167 52.6833333,161.533333 51.8,161.4 C52.6,161.233333 53.2875,160.804167 53.8625,160.1125 C54.4375,159.420833 54.725,158.575 54.725,157.575 C54.725,156.275 54.3083333,155.241667 53.475,154.475 C52.6416667,153.708333 51.525,153.325 50.125,153.325 L50.125,153.325 L43.275,153.325 L43.275,170 L50.275,170 Z M49.95,160.8 L44.7,160.8 L44.7,154.625 L49.95,154.625 C50.9833333,154.625 51.7875,154.920833 52.3625,155.5125 C52.9375,156.104167 53.225,156.841667 53.225,157.725 C53.225,158.625 52.9375,159.3625 52.3625,159.9375 C51.7875,160.5125 50.9833333,160.8 49.95,160.8 L49.95,160.8 Z M50.05,168.7 L44.7,168.7 L44.7,162.1 L50.05,162.1 C51.15,162.1 52.0083333,162.420833 52.625,163.0625 C53.2416667,163.704167 53.55,164.483333 53.55,165.4 C53.55,166.416667 53.2416667,167.220833 52.625,167.8125 C52.0083333,168.404167 51.15,168.7 50.05,168.7 L50.05,168.7 Z M66.075,170.3 C67.6916667,170.3 68.9958333,169.725 69.9875,168.575 C70.9791667,167.425 71.475,165.891667 71.475,163.975 C71.475,162.058333 70.9791667,160.520833 69.9875,159.3625 C68.9958333,158.204167 67.6916667,157.625 66.075,157.625 C64.3416667,157.625 62.9416667,158.375 61.875,159.875 L61.875,159.875 L61.875,153.325 L60.575,153.325 L60.575,170 L61.875,170 L61.875,168.075 C62.325,168.725 62.9208333,169.258333 63.6625,169.675 C64.4041667,170.091667 65.2083333,170.3 66.075,170.3 Z M65.85,169.125 C65.0333333,169.125 64.2583333,168.916667 63.525,168.5 C62.7916667,168.083333 62.2416667,167.575 61.875,166.975 L61.875,166.975 L61.875,161 C62.2416667,160.4 62.7958333,159.883333 63.5375,159.45 C64.2791667,159.016667 65.05,158.8 65.85,158.8 C67.1666667,158.8 68.2,159.283333 68.95,160.25 C69.7,161.216667 70.075,162.458333 70.075,163.975 C70.075,165.475 69.7,166.708333 68.95,167.675 C68.2,168.641667 67.1666667,169.125 65.85,169.125 Z M84.725,170.3 C87.175,170.3 89.2,169.308333 90.8,167.325 L90.8,167.325 L89.6,166.575 C89.0666667,167.308333 88.3666667,167.895833 87.5,168.3375 C86.6333333,168.779167 85.7083333,169 84.725,169 C82.7416667,169 81.0875,168.3125 79.7625,166.9375 C78.4375,165.5625 77.775,163.808333 77.775,161.675 C77.775,159.525 78.4375,157.766667 79.7625,156.4 C81.0875,155.033333 82.7416667,154.35 84.725,154.35 C85.7083333,154.35 86.6333333,154.570833 87.5,155.0125 C88.3666667,155.454167 89.0666667,156.041667 89.6,156.775 L89.6,156.775 L90.8,156 C89.2166667,154.033333 87.1916667,153.05 84.725,153.05 C82.325,153.05 80.3166667,153.854167 78.7,155.4625 C77.0833333,157.070833 76.275,159.141667 76.275,161.675 C76.275,164.208333 77.0833333,166.279167 78.7,167.8875 C80.3166667,169.495833 82.325,170.3 84.725,170.3 Z M100.825,170.3 C102.591667,170.3 104.016667,169.608333 105.1,168.225 L105.1,168.225 L104.2,167.425 C103.366667,168.558333 102.266667,169.125 100.9,169.125 C99.5166667,169.125 98.4125,168.633333 97.5875,167.65 C96.7625,166.666667 96.35,165.433333 96.35,163.95 C96.35,162.466667 96.7625,161.2375 97.5875,160.2625 C98.4125,159.2875 99.5166667,158.8 100.9,158.8 C102.283333,158.8 103.383333,159.358333 104.2,160.475 L104.2,160.475 L105.1,159.675 C104.016667,158.308333 102.591667,157.625 100.825,157.625 C99.075,157.625 97.6583333,158.229167 96.575,159.4375 C95.4916667,160.645833 94.95,162.15 94.95,163.95 C94.95,165.75 95.4916667,167.258333 96.575,168.475 C97.6583333,169.691667 99.075,170.3 100.825,170.3 Z M115.375,170 C117.908333,170 119.945833,169.204167 121.4875,167.6125 C123.029167,166.020833 123.8,164.041667 123.8,161.675 C123.8,159.325 123.025,157.345833 121.475,155.7375 C119.925,154.129167 117.891667,153.325 115.375,153.325 L115.375,153.325 L110.05,153.325 L110.05,170 L115.375,170 Z M115.375,168.7 L111.475,168.7 L111.475,154.625 L115.375,154.625 C117.525,154.625 119.216667,155.295833 120.45,156.6375 C121.683333,157.979167 122.3,159.658333 122.3,161.675 C122.3,163.691667 121.679167,165.366667 120.4375,166.7 C119.195833,168.033333 117.508333,168.7 115.375,168.7 L115.375,168.7 Z M134,170.3 C134.866667,170.3 135.670833,170.091667 136.4125,169.675 C137.154167,169.258333 137.75,168.725 138.2,168.075 L138.2,168.075 L138.2,170 L139.525,170 L139.525,153.325 L138.2,153.325 L138.2,159.875 C137.133333,158.375 135.733333,157.625 134,157.625 C132.4,157.625 131.1,158.208333 130.1,159.375 C129.1,160.541667 128.6,162.075 128.6,163.975 C128.6,165.891667 129.095833,167.425 130.0875,168.575 C131.079167,169.725 132.383333,170.3 134,170.3 Z M134.225,169.125 C132.925,169.125 131.895833,168.641667 131.1375,167.675 C130.379167,166.708333 130,165.475 130,163.975 C130,162.475 130.379167,161.2375 131.1375,160.2625 C131.895833,159.2875 132.925,158.8 134.225,158.8 C135.041667,158.8 135.816667,159.0125 136.55,159.4375 C137.283333,159.8625 137.833333,160.383333 138.2,161 L138.2,161 L138.2,166.975 C137.833333,167.575 137.283333,168.083333 136.55,168.5 C135.816667,168.916667 135.041667,169.125 134.225,169.125 Z M156.2,170 L156.2,168.7 L147.05,168.7 L147.05,162.1 L156.025,162.1 L156.025,160.8 L147.05,160.8 L147.05,154.625 L156.2,154.625 L156.2,153.325 L145.625,153.325 L145.625,170 L156.2,170 Z M167.025,170.3 C168.925,170.3 170.5,169.65 171.75,168.35 L171.75,168.35 L171.075,167.5 C170.041667,168.616667 168.725,169.175 167.125,169.175 C165.741667,169.175 164.625,168.716667 163.775,167.8 C162.925,166.883333 162.466667,165.741667 162.4,164.375 L162.4,164.375 L172.5,164.375 L172.5,164.025 C172.5,162.208333 171.991667,160.6875 170.975,159.4625 C169.958333,158.2375 168.566667,157.625 166.8,157.625 C165.133333,157.625 163.745833,158.2375 162.6375,159.4625 C161.529167,160.6875 160.975,162.183333 160.975,163.95 C160.975,165.816667 161.541667,167.341667 162.675,168.525 C163.808333,169.708333 165.258333,170.3 167.025,170.3 Z M171.175,163.35 L162.4,163.35 C162.45,162.166667 162.8625,161.104167 163.6375,160.1625 C164.4125,159.220833 165.458333,158.75 166.775,158.75 C168.175,158.75 169.254167,159.225 170.0125,160.175 C170.770833,161.125 171.158333,162.183333 171.175,163.35 L171.175,163.35 Z M179.325,170 L179.325,162.1 L188.3,162.1 L188.3,160.8 L179.325,160.8 L179.325,154.625 L188.475,154.625 L188.475,153.325 L177.9,153.325 L177.9,170 L179.325,170 Z M195.125,170 L195.125,159.075 L197.575,159.075 L197.575,157.925 L195.125,157.925 L195.125,156.825 C195.125,155.075 195.825,154.2 197.225,154.2 C197.808333,154.2 198.325,154.408333 198.775,154.825 L198.775,154.825 L199.4,153.925 C198.75,153.358333 197.983333,153.075 197.1,153.075 C196.083333,153.075 195.283333,153.408333 194.7,154.075 C194.116667,154.741667 193.825,155.658333 193.825,156.825 L193.825,156.825 L193.825,157.925 L191.825,157.925 L191.825,159.075 L193.825,159.075 L193.825,170 L195.125,170 Z M209.9,170.325 C212.466667,170.325 214.575,169.4 216.225,167.55 L216.225,167.55 L216.225,161.725 L208.5,161.725 L208.5,163 L214.8,163 L214.8,167 C214.25,167.55 213.55,168.025 212.7,168.425 C211.85,168.825 210.916667,169.025 209.9,169.025 C207.916667,169.025 206.2625,168.333333 204.9375,166.95 C203.6125,165.566667 202.95,163.808333 202.95,161.675 C202.95,159.525 203.6125,157.766667 204.9375,156.4 C206.2625,155.033333 207.916667,154.35 209.9,154.35 C210.95,154.35 211.929167,154.558333 212.8375,154.975 C213.745833,155.391667 214.5,155.958333 215.1,156.675 L215.1,156.675 L216.175,155.9 C214.525,154 212.433333,153.05 209.9,153.05 C207.516667,153.05 205.5125,153.854167 203.8875,155.4625 C202.2625,157.070833 201.45,159.141667 201.45,161.675 C201.45,164.208333 202.2625,166.283333 203.8875,167.9 C205.5125,169.516667 207.516667,170.325 209.9,170.325 Z M226.575,174.9 C228.191667,174.9 229.504167,174.495833 230.5125,173.6875 C231.520833,172.879167 232.025,171.608333 232.025,169.875 L232.025,169.875 L232.025,157.925 L230.7,157.925 L230.7,159.875 C229.633333,158.375 228.233333,157.625 226.5,157.625 C224.9,157.625 223.6,158.204167 222.6,159.3625 C221.6,160.520833 221.1,162.05 221.1,163.95 C221.1,165.866667 221.595833,167.395833 222.5875,168.5375 C223.579167,169.679167 224.883333,170.25 226.5,170.25 C227.366667,170.25 228.170833,170.0375 228.9125,169.6125 C229.654167,169.1875 230.25,168.65 230.7,168 L230.7,168 L230.7,169.9 C230.7,171.2 230.3125,172.170833 229.5375,172.8125 C228.7625,173.454167 227.775,173.775 226.575,173.775 C225.658333,173.775 224.891667,173.645833 224.275,173.3875 C223.658333,173.129167 223.091667,172.691667 222.575,172.075 L222.575,172.075 L221.825,173.075 C222.508333,173.775 223.208333,174.254167 223.925,174.5125 C224.641667,174.770833 225.525,174.9 226.575,174.9 Z M226.725,169.075 C225.425,169.075 224.395833,168.595833 223.6375,167.6375 C222.879167,166.679167 222.5,165.45 222.5,163.95 C222.5,162.45 222.879167,161.216667 223.6375,160.25 C224.395833,159.283333 225.425,158.8 226.725,158.8 C227.541667,158.8 228.316667,159.0125 229.05,159.4375 C229.783333,159.8625 230.333333,160.383333 230.7,161 L230.7,161 L230.7,166.875 C230.333333,167.491667 229.783333,168.0125 229.05,168.4375 C228.316667,168.8625 227.541667,169.075 226.725,169.075 Z M239.525,170 L239.525,162.075 L250.1,162.075 L250.1,170 L251.55,170 L251.55,153.325 L250.1,153.325 L250.1,160.775 L239.525,160.775 L239.525,153.325 L238.1,153.325 L238.1,170 L239.525,170 Z M258.925,170 L258.925,160.875 C259.325,160.291667 259.891667,159.8 260.625,159.4 C261.358333,159 262.1,158.8 262.85,158.8 C263.8,158.8 264.525,159.020833 265.025,159.4625 C265.525,159.904167 265.775,160.675 265.775,161.775 L265.775,161.775 L265.775,170 L267.075,170 L267.075,161.5 C267.075,158.916667 265.808333,157.625 263.275,157.625 C262.458333,157.625 261.65,157.8375 260.85,158.2625 C260.05,158.6875 259.408333,159.183333 258.925,159.75 L258.925,159.75 L258.925,153.325 L257.625,153.325 L257.625,170 L258.925,170 Z M274.6,170 L274.6,153.325 L273.175,153.325 L273.175,170 L274.6,170 Z M281.35,156.025 C281.633333,156.025 281.870833,155.929167 282.0625,155.7375 C282.254167,155.545833 282.35,155.308333 282.35,155.025 C282.35,154.758333 282.254167,154.529167 282.0625,154.3375 C281.870833,154.145833 281.633333,154.05 281.35,154.05 C281.083333,154.05 280.85,154.145833 280.65,154.3375 C280.45,154.529167 280.35,154.758333 280.35,155.025 C280.35,155.291667 280.45,155.525 280.65,155.725 C280.85,155.925 281.083333,156.025 281.35,156.025 Z M282,170 L282,157.925 L280.7,157.925 L280.7,170 L282,170 Z M290.65,170.3 C292.116667,170.3 293.325,169.8625 294.275,168.9875 C295.225,168.1125 295.7,166.841667 295.7,165.175 L295.7,165.175 L295.7,153.325 L294.25,153.325 L294.25,165.175 C294.25,166.308333 293.916667,167.229167 293.25,167.9375 C292.583333,168.645833 291.691667,169 290.575,169 C289.291667,169 288.183333,168.391667 287.25,167.175 L287.25,167.175 L286.375,168.25 C287.425,169.616667 288.85,170.3 290.65,170.3 Z M302.45,156.025 C302.733333,156.025 302.970833,155.929167 303.1625,155.7375 C303.354167,155.545833 303.45,155.308333 303.45,155.025 C303.45,154.758333 303.354167,154.529167 303.1625,154.3375 C302.970833,154.145833 302.733333,154.05 302.45,154.05 C302.183333,154.05 301.95,154.145833 301.75,154.3375 C301.55,154.529167 301.45,154.758333 301.45,155.025 C301.45,155.291667 301.55,155.525 301.75,155.725 C301.95,155.925 302.183333,156.025 302.45,156.025 Z M299.825,174.9 C300.875,174.9 301.683333,174.616667 302.25,174.05 C302.816667,173.483333 303.1,172.65 303.1,171.55 L303.1,171.55 L303.1,157.925 L301.8,157.925 L301.8,171.55 C301.8,172.3 301.608333,172.858333 301.225,173.225 C300.841667,173.591667 300.333333,173.775 299.7,173.775 C299.033333,173.775 298.441667,173.5 297.925,172.95 L297.925,172.95 L297.35,173.975 C298.066667,174.591667 298.891667,174.9 299.825,174.9 Z M310.625,170 L310.625,164.175 L312.475,162.15 L319.35,170 L321.175,170 L313.4,161.275 L320.5,153.325 L318.675,153.325 L310.625,162.45 L310.625,153.325 L309.2,153.325 L309.2,170 L310.625,170 Z M327.1,170 L327.1,166.375 L329.35,164.25 L334.175,170 L335.925,170 L330.325,163.375 L335.95,157.925 L334.225,157.925 L327.1,164.825 L327.1,153.325 L325.8,153.325 L325.8,170 L327.1,170 Z M349.975,170 L349.975,168.7 L341.9,168.7 L341.9,153.325 L340.475,153.325 L340.475,170 L349.975,170 Z M356.325,170 L356.325,153.325 L355.025,153.325 L355.025,170 L356.325,170 Z M363.85,170 L363.85,155.275 L369.95,170 L370.5,170 L376.575,155.275 L376.575,170 L378.025,170 L378.025,153.325 L375.875,153.325 L370.225,167.075 L364.55,153.325 L362.425,153.325 L362.425,170 L363.85,170 Z M385.425,170 L385.425,160.875 C385.808333,160.308333 386.325,159.820833 386.975,159.4125 C387.625,159.004167 388.258333,158.8 388.875,158.8 C390.491667,158.8 391.3,159.716667 391.3,161.55 L391.3,161.55 L391.3,170 L392.625,170 L392.625,160.85 C392.975,160.283333 393.479167,159.8 394.1375,159.4 C394.795833,159 395.441667,158.8 396.075,158.8 C397.691667,158.8 398.5,159.716667 398.5,161.55 L398.5,161.55 L398.5,170 L399.8,170 L399.8,161.3 C399.8,158.85 398.7,157.625 396.5,157.625 C395.7,157.625 394.925,157.854167 394.175,158.3125 C393.425,158.770833 392.866667,159.3 392.5,159.9 C392.333333,159.25 391.983333,158.708333 391.45,158.275 C390.916667,157.841667 390.208333,157.625 389.325,157.625 C388.541667,157.625 387.770833,157.858333 387.0125,158.325 C386.254167,158.791667 385.725,159.266667 385.425,159.75 L385.425,159.75 L385.425,157.925 L384.125,157.925 L384.125,170 L385.425,170 Z M407.325,170 L407.325,155.675 L417.825,170 L419.225,170 L419.225,153.325 L417.8,153.325 L417.8,167.45 L407.35,153.325 L405.9,153.325 L405.9,170 L407.325,170 Z M426.625,170 L426.625,160.875 C427.025,160.291667 427.591667,159.8 428.325,159.4 C429.058333,159 429.8,158.8 430.55,158.8 C431.5,158.8 432.225,159.029167 432.725,159.4875 C433.225,159.945833 433.475,160.725 433.475,161.825 L433.475,161.825 L433.475,170 L434.775,170 L434.775,161.55 C434.775,158.933333 433.508333,157.625 430.975,157.625 C430.158333,157.625 429.35,157.8375 428.55,158.2625 C427.75,158.6875 427.108333,159.183333 426.625,159.75 L426.625,159.75 L426.625,157.925 L425.325,157.925 L425.325,170 L426.625,170 Z M448.35,170.3 C450.75,170.3 452.7,169.483333 454.2,167.85 C455.7,166.216667 456.45,164.158333 456.45,161.675 C456.45,159.191667 455.7,157.133333 454.2,155.5 C452.7,153.866667 450.75,153.05 448.35,153.05 C445.933333,153.05 443.979167,153.866667 442.4875,155.5 C440.995833,157.133333 440.25,159.191667 440.25,161.675 C440.25,164.158333 440.995833,166.216667 442.4875,167.85 C443.979167,169.483333 445.933333,170.3 448.35,170.3 Z M448.35,169 C446.35,169 444.75,168.3125 443.55,166.9375 C442.35,165.5625 441.75,163.808333 441.75,161.675 C441.75,159.525 442.35,157.766667 443.55,156.4 C444.75,155.033333 446.35,154.35 448.35,154.35 C450.333333,154.35 451.929167,155.033333 453.1375,156.4 C454.345833,157.766667 454.95,159.525 454.95,161.675 C454.95,163.808333 454.341667,165.5625 453.125,166.9375 C451.908333,168.3125 450.316667,169 448.35,169 Z M15.125,205.3 C16.875,205.3 18.2833333,204.691667 19.35,203.475 C20.4166667,202.258333 20.95,200.75 20.95,198.95 C20.95,197.15 20.4166667,195.645833 19.35,194.4375 C18.2833333,193.229167 16.875,192.625 15.125,192.625 C13.3916667,192.625 11.9916667,193.229167 10.925,194.4375 C9.85833333,195.645833 9.325,197.15 9.325,198.95 C9.325,200.75 9.85833333,202.258333 10.925,203.475 C11.9916667,204.691667 13.3916667,205.3 15.125,205.3 Z M15.125,204.125 C13.775,204.125 12.7041667,203.616667 11.9125,202.6 C11.1208333,201.583333 10.725,200.366667 10.725,198.95 C10.725,197.533333 11.1208333,196.320833 11.9125,195.3125 C12.7041667,194.304167 13.775,193.8 15.125,193.8 C16.4916667,193.8 17.5708333,194.304167 18.3625,195.3125 C19.1541667,196.320833 19.55,197.533333 19.55,198.95 C19.55,200.383333 19.1541667,201.604167 18.3625,202.6125 C17.5708333,203.620833 16.4916667,204.125 15.125,204.125 Z M27.775,205 L27.775,198.075 L32.6,198.075 C34.1333333,198.075 35.3541667,197.604167 36.2625,196.6625 C37.1708333,195.720833 37.625,194.566667 37.625,193.2 C37.625,191.833333 37.175,190.679167 36.275,189.7375 C35.375,188.795833 34.15,188.325 32.6,188.325 L32.6,188.325 L26.35,188.325 L26.35,205 L27.775,205 Z M32.45,196.775 L27.775,196.775 L27.775,189.625 L32.45,189.625 C33.55,189.625 34.4375,189.958333 35.1125,190.625 C35.7875,191.291667 36.125,192.15 36.125,193.2 C36.125,194.25 35.7875,195.108333 35.1125,195.775 C34.4375,196.441667 33.55,196.775 32.45,196.775 L32.45,196.775 Z M43.875,209.6 L43.875,203.05 C44.9416667,204.55 46.3416667,205.3 48.075,205.3 C49.6916667,205.3 50.9958333,204.720833 51.9875,203.5625 C52.9791667,202.404167 53.475,200.866667 53.475,198.95 C53.475,197.016667 52.9791667,195.479167 51.9875,194.3375 C50.9958333,193.195833 49.6916667,192.625 48.075,192.625 C47.2083333,192.625 46.4041667,192.829167 45.6625,193.2375 C44.9208333,193.645833 44.325,194.175 43.875,194.825 L43.875,194.825 L43.875,192.925 L42.575,192.925 L42.575,209.6 L43.875,209.6 Z M47.85,204.125 C47.05,204.125 46.2791667,203.908333 45.5375,203.475 C44.7958333,203.041667 44.2416667,202.525 43.875,201.925 L43.875,201.925 L43.875,195.95 C44.2416667,195.35 44.7916667,194.841667 45.525,194.425 C46.2583333,194.008333 47.0333333,193.8 47.85,193.8 C49.1666667,193.8 50.2,194.283333 50.95,195.25 C51.7,196.216667 52.075,197.45 52.075,198.95 C52.075,200.466667 51.7,201.708333 50.95,202.675 C50.2,203.641667 49.1666667,204.125 47.85,204.125 Z M72.775,205.675 L73.75,204.775 L72,202.95 C73.5833333,201.316667 74.375,199.225 74.375,196.675 C74.375,194.191667 73.625,192.133333 72.125,190.5 C70.625,188.866667 68.675,188.05 66.275,188.05 C63.8583333,188.05 61.9041667,188.866667 60.4125,190.5 C58.9208333,192.133333 58.175,194.191667 58.175,196.675 C58.175,199.158333 58.9208333,201.216667 60.4125,202.85 C61.9041667,204.483333 63.8583333,205.3 66.275,205.3 C68.0916667,205.3 69.6666667,204.816667 71,203.85 L71,203.85 L72.775,205.675 Z M66.275,204 C64.275,204 62.675,203.3125 61.475,201.9375 C60.275,200.5625 59.675,198.808333 59.675,196.675 C59.675,194.525 60.275,192.766667 61.475,191.4 C62.675,190.033333 64.275,189.35 66.275,189.35 C68.2583333,189.35 69.8541667,190.033333 71.0625,191.4 C72.2708333,192.766667 72.875,194.525 72.875,196.675 C72.875,198.791667 72.2666667,200.55 71.05,201.95 L71.05,201.95 L68.475,199.25 L67.475,200.175 L70.05,202.85 C68.9666667,203.616667 67.7083333,204 66.275,204 Z M89.975,209.6 L89.975,192.925 L88.675,192.925 L88.675,194.825 C88.225,194.175 87.6291667,193.645833 86.8875,193.2375 C86.1458333,192.829167 85.3333333,192.625 84.45,192.625 C82.8333333,192.625 81.5333333,193.2 80.55,194.35 C79.5666667,195.5 79.075,197.033333 79.075,198.95 C79.075,200.866667 79.5708333,202.404167 80.5625,203.5625 C81.5541667,204.720833 82.85,205.3 84.45,205.3 C86.2,205.3 87.6083333,204.55 88.675,203.05 L88.675,203.05 L88.675,209.6 L89.975,209.6 Z M84.7,204.125 C83.3833333,204.125 82.35,203.641667 81.6,202.675 C80.85,201.708333 80.475,200.466667 80.475,198.95 C80.475,197.45 80.85,196.216667 81.6,195.25 C82.35,194.283333 83.3833333,193.8 84.7,193.8 C85.5166667,193.8 86.2916667,194.008333 87.025,194.425 C87.7583333,194.841667 88.3083333,195.35 88.675,195.95 L88.675,195.95 L88.675,201.925 C88.3083333,202.525 87.7541667,203.041667 87.0125,203.475 C86.2708333,203.908333 85.5,204.125 84.7,204.125 Z M97.5,205 L97.5,198.1 L101.175,198.1 L105.85,205 L107.575,205 L102.75,198 C104.05,197.95 105.145833,197.5 106.0375,196.65 C106.929167,195.8 107.375,194.65 107.375,193.2 C107.375,191.716667 106.895833,190.533333 105.9375,189.65 C104.979167,188.766667 103.766667,188.325 102.3,188.325 L102.3,188.325 L96.075,188.325 L96.075,205 L97.5,205 Z M102.175,196.8 L97.5,196.8 L97.5,189.625 L102.175,189.625 C103.275,189.625 104.166667,189.958333 104.85,190.625 C105.533333,191.291667 105.875,192.15 105.875,193.2 C105.875,194.25 105.533333,195.1125 104.85,195.7875 C104.166667,196.4625 103.275,196.8 102.175,196.8 L102.175,196.8 Z M114.175,205 L114.175,196.2 C114.458333,195.666667 114.95,195.175 115.65,194.725 C116.35,194.275 117,194.05 117.6,194.05 C117.883333,194.05 118.1,194.066667 118.25,194.1 L118.25,194.1 L118.25,192.675 C116.716667,192.675 115.358333,193.45 114.175,195 L114.175,195 L114.175,192.925 L112.875,192.925 L112.875,205 L114.175,205 Z M128.025,205.3 C130.075,205.3 131.575,204.829167 132.525,203.8875 C133.475,202.945833 133.95,201.841667 133.95,200.575 C133.95,199.725 133.766667,198.995833 133.4,198.3875 C133.033333,197.779167 132.554167,197.308333 131.9625,196.975 C131.370833,196.641667 130.720833,196.354167 130.0125,196.1125 C129.304167,195.870833 128.595833,195.654167 127.8875,195.4625 C127.179167,195.270833 126.529167,195.0625 125.9375,194.8375 C125.345833,194.6125 124.866667,194.295833 124.5,193.8875 C124.133333,193.479167 123.95,192.991667 123.95,192.425 C123.95,191.525 124.320833,190.7875 125.0625,190.2125 C125.804167,189.6375 126.733333,189.35 127.85,189.35 C129.866667,189.35 131.458333,190.05 132.625,191.45 L132.625,191.45 L133.575,190.4 C132.191667,188.833333 130.308333,188.05 127.925,188.05 C126.375,188.05 125.075,188.458333 124.025,189.275 C122.975,190.091667 122.45,191.166667 122.45,192.5 C122.45,193.283333 122.633333,193.954167 123,194.5125 C123.366667,195.070833 123.845833,195.504167 124.4375,195.8125 C125.029167,196.120833 125.679167,196.3875 126.3875,196.6125 C127.095833,196.8375 127.804167,197.05 128.5125,197.25 C129.220833,197.45 129.870833,197.675 130.4625,197.925 C131.054167,198.175 131.533333,198.529167 131.9,198.9875 C132.266667,199.445833 132.45,200.008333 132.45,200.675 C132.45,201.541667 132.104167,202.3125 131.4125,202.9875 C130.720833,203.6625 129.6,204 128.05,204 C125.966667,204 124.233333,203.191667 122.85,201.575 L122.85,201.575 L121.925,202.65 C123.375,204.416667 125.408333,205.3 128.025,205.3 Z M142.925,205.3 C144.375,205.3 145.491667,204.966667 146.275,204.3 C147.058333,203.633333 147.45,202.783333 147.45,201.75 C147.45,200.9 147.1875,200.208333 146.6625,199.675 C146.1375,199.141667 145.5,198.766667 144.75,198.55 C144,198.333333 143.254167,198.1375 142.5125,197.9625 C141.770833,197.7875 141.1375,197.541667 140.6125,197.225 C140.0875,196.908333 139.825,196.475 139.825,195.925 C139.825,195.291667 140.1,194.766667 140.65,194.35 C141.2,193.933333 141.933333,193.725 142.85,193.725 C144.466667,193.725 145.666667,194.258333 146.45,195.325 L146.45,195.325 L147.175,194.4 C146.108333,193.216667 144.666667,192.625 142.85,192.625 C141.533333,192.625 140.4875,192.945833 139.7125,193.5875 C138.9375,194.229167 138.55,195.025 138.55,195.975 C138.55,196.775 138.8125,197.416667 139.3375,197.9 C139.8625,198.383333 140.5,198.729167 141.25,198.9375 C142,199.145833 142.745833,199.3375 143.4875,199.5125 C144.229167,199.6875 144.8625,199.954167 145.3875,200.3125 C145.9125,200.670833 146.175,201.15 146.175,201.75 C146.175,202.466667 145.883333,203.054167 145.3,203.5125 C144.716667,203.970833 143.933333,204.2 142.95,204.2 C142.133333,204.2 141.383333,204.033333 140.7,203.7 C140.016667,203.366667 139.466667,202.941667 139.05,202.425 L139.05,202.425 L138.275,203.4 C139.425,204.666667 140.975,205.3 142.925,205.3 Z M156.2,205 L156.2,189.625 L161.65,189.625 L161.65,188.325 L149.3,188.325 L149.3,189.625 L154.75,189.625 L154.75,205 L156.2,205 Z M169.175,205.3 C170.008333,205.3 170.691667,205.05 171.225,204.55 L171.225,204.55 L170.725,203.55 C170.375,203.933333 169.925,204.125 169.375,204.125 C168.541667,204.125 168.125,203.575 168.125,202.475 L168.125,202.475 L168.125,194.075 L170.575,194.075 L170.575,192.925 L168.125,192.925 L168.125,189.625 L166.8,189.625 L166.8,192.925 L164.8,192.925 L164.8,194.075 L166.8,194.075 L166.8,202.675 C166.8,204.425 167.591667,205.3 169.175,205.3 Z M181.975,205.3 C184.091667,205.3 185.704167,204.708333 186.8125,203.525 C187.920833,202.341667 188.475,200.7 188.475,198.6 L188.475,198.6 L188.475,188.325 L187.025,188.325 L187.025,198.575 C187.025,200.291667 186.591667,201.625 185.725,202.575 C184.858333,203.525 183.608333,204 181.975,204 C180.358333,204 179.1125,203.520833 178.2375,202.5625 C177.3625,201.604167 176.925,200.275 176.925,198.575 L176.925,198.575 L176.925,188.325 L175.475,188.325 L175.475,198.6 C175.475,200.683333 176.033333,202.320833 177.15,203.5125 C178.266667,204.704167 179.875,205.3 181.975,205.3 Z M198.375,205.3 C199.191667,205.3 199.983333,205.104167 200.75,204.7125 C201.516667,204.320833 202.175,203.825 202.725,203.225 L202.725,203.225 L202.725,205 L204.025,205 L204.025,192.925 L202.725,192.925 L202.725,202.125 C202.308333,202.691667 201.7375,203.166667 201.0125,203.55 C200.2875,203.933333 199.55,204.125 198.8,204.125 C197.85,204.125 197.125,203.904167 196.625,203.4625 C196.125,203.020833 195.875,202.241667 195.875,201.125 L195.875,201.125 L195.875,192.925 L194.575,192.925 L194.575,201.425 C194.575,202.758333 194.891667,203.7375 195.525,204.3625 C196.158333,204.9875 197.108333,205.3 198.375,205.3 Z M216.125,205 L222.95,188.325 L221.3,188.325 L215.225,203.4 L209.175,188.325 L207.525,188.325 L214.35,205 L216.125,205 Z M231.775,205 L236.875,192.925 L235.4,192.925 L231.05,203.475 L226.65,192.925 L225.2,192.925 L230.3,205 L231.775,205 Z M245.85,205 L249.85,190.675 L253.85,205 L255.45,205 L260.2,188.325 L258.6,188.325 L254.575,203 L250.5,188.325 L249.2,188.325 L245.1,203 L241.075,188.325 L239.475,188.325 L244.25,205 L245.85,205 Z M268.275,205 L271.675,194.675 L275.05,205 L276.3,205 L280.225,192.925 L278.825,192.925 L275.625,203.175 L272.225,192.925 L271.1,192.925 L267.7,203.175 L264.5,192.925 L263.1,192.925 L267.025,205 L268.275,205 Z M283.725,205 L289.525,197.475 L295.35,205 L297.125,205 L290.425,196.425 L296.75,188.325 L294.95,188.325 L289.525,195.4 L284.125,188.325 L282.3,188.325 L288.65,196.45 L281.925,205 L283.725,205 Z M301.575,205 L305.6,199.675 L309.6,205 L311.15,205 L306.375,198.8 L310.875,192.925 L309.325,192.925 L305.6,197.9 L301.85,192.925 L300.3,192.925 L304.8,198.8 L300.025,205 L301.575,205 Z M320.225,205 L320.225,197.875 L326.85,188.325 L325.125,188.325 L319.5,196.525 L313.875,188.325 L312.15,188.325 L318.775,197.875 L318.775,205 L320.225,205 Z M330.225,209.9 C331.658333,209.9 332.691667,209.15 333.325,207.65 L333.325,207.65 L339.575,192.925 L338.1,192.925 L333.75,203.475 L329.35,192.925 L327.9,192.925 L333,205.1 L332.05,207.25 C331.65,208.233333 331.041667,208.725 330.225,208.725 C329.825,208.725 329.475,208.658333 329.175,208.525 L329.175,208.525 L328.95,209.725 C329.333333,209.841667 329.758333,209.9 330.225,209.9 Z M355.025,205 L355.025,203.7 L344.8,203.7 L354.85,189.55 L354.85,188.325 L343,188.325 L343,189.625 L353.05,189.625 L343,203.75 L343,205 L355.025,205 Z M368.6,205 L368.6,203.85 L361.275,203.85 L368.5,193.975 L368.5,192.925 L359.675,192.925 L359.675,194.075 L366.825,194.075 L359.675,203.925 L359.675,205 L368.6,205 Z M13.625,275 L13.625,258.325 L12.325,258.325 L8.65,262.2 L9.525,263.125 L12.2,260.275 L12.2,275 L13.625,275 Z M30.1,275 L30.1,273.7 L21.325,273.7 C22.775,272.533333 23.9291667,271.570833 24.7875,270.8125 C25.6458333,270.054167 26.525,269.1875 27.425,268.2125 C28.325,267.2375 28.9833333,266.308333 29.4,265.425 C29.8166667,264.541667 30.025,263.658333 30.025,262.775 C30.025,261.241667 29.4958333,260.075 28.4375,259.275 C27.3791667,258.475 26.1583333,258.075 24.775,258.075 C23.6083333,258.075 22.5416667,258.304167 21.575,258.7625 C20.6083333,259.220833 19.825,259.85 19.225,260.65 L19.225,260.65 L20.2,261.55 C20.6666667,260.883333 21.2958333,260.354167 22.0875,259.9625 C22.8791667,259.570833 23.775,259.375 24.775,259.375 C25.7916667,259.375 26.6791667,259.6625 27.4375,260.2375 C28.1958333,260.8125 28.575,261.658333 28.575,262.775 C28.575,263.408333 28.4166667,264.066667 28.1,264.75 C27.7833333,265.433333 27.3875,266.0875 26.9125,266.7125 C26.4375,267.3375 25.75,268.075 24.85,268.925 C23.95,269.775 23.1,270.533333 22.3,271.2 C21.5,271.866667 20.4333333,272.741667 19.1,273.825 L19.1,273.825 L19.1,275 L30.1,275 Z M40.725,275.3 C42.4583333,275.3 43.8291667,274.854167 44.8375,273.9625 C45.8458333,273.070833 46.35,271.925 46.35,270.525 C46.35,269.291667 45.9375,268.316667 45.1125,267.6 C44.2875,266.883333 43.425,266.475 42.525,266.375 C43.075,266.275 43.6,266.095833 44.1,265.8375 C44.6,265.579167 45.0583333,265.15 45.475,264.55 C45.8916667,263.95 46.1,263.258333 46.1,262.475 C46.1,261.108333 45.5833333,260.033333 44.55,259.25 C43.5166667,258.466667 42.2416667,258.075 40.725,258.075 C38.475,258.075 36.6583333,258.916667 35.275,260.6 L35.275,260.6 L36.175,261.5 C37.4416667,260.083333 38.9333333,259.375 40.65,259.375 C41.7833333,259.375 42.7333333,259.6625 43.5,260.2375 C44.2666667,260.8125 44.65,261.6 44.65,262.6 C44.65,263.65 44.2458333,264.441667 43.4375,264.975 C42.6291667,265.508333 41.625,265.775 40.425,265.775 C39.5583333,265.775 39.0416667,265.766667 38.875,265.75 L38.875,265.75 L38.875,267.1 C39.0416667,267.083333 39.5583333,267.075 40.425,267.075 C41.7583333,267.075 42.8375,267.354167 43.6625,267.9125 C44.4875,268.470833 44.9,269.316667 44.9,270.45 C44.9,271.55 44.5208333,272.416667 43.7625,273.05 C43.0041667,273.683333 41.9833333,274 40.7,274 C38.6666667,274 37.1083333,273.225 36.025,271.675 L36.025,271.675 L35.05,272.525 C35.5666667,273.325 36.3166667,273.9875 37.3,274.5125 C38.2833333,275.0375 39.425,275.3 40.725,275.3 Z M60.05,275 L60.05,270.45 L62.5,270.45 L62.5,269.15 L60.05,269.15 L60.05,258.325 L58.125,258.325 L50.725,269.175 L50.725,270.45 L58.625,270.45 L58.625,275 L60.05,275 Z M58.625,269.15 L52.2,269.15 L58.625,259.75 L58.625,269.15 Z M72.85,275.3 C74.4333333,275.3 75.7666667,274.808333 76.85,273.825 C77.9333333,272.841667 78.475,271.541667 78.475,269.925 C78.475,268.258333 77.9583333,266.954167 76.925,266.0125 C75.8916667,265.070833 74.6333333,264.6 73.15,264.6 C71.5666667,264.6 70.2416667,265.116667 69.175,266.15 L69.175,266.15 L69.175,259.625 L77.375,259.625 L77.375,258.325 L67.75,258.325 L67.75,267.075 L68.825,267.525 C70.0083333,266.441667 71.3583333,265.9 72.875,265.9 C74.0916667,265.9 75.0875,266.266667 75.8625,267 C76.6375,267.733333 77.025,268.725 77.025,269.975 C77.025,271.125 76.6291667,272.083333 75.8375,272.85 C75.0458333,273.616667 74.05,274 72.85,274 C70.85,274 69.2916667,273.208333 68.175,271.625 L68.175,271.625 L67.225,272.575 C68.4916667,274.391667 70.3666667,275.3 72.85,275.3 Z M89.5,275.3 C91.2,275.3 92.5583333,274.775 93.575,273.725 C94.5916667,272.675 95.1,271.425 95.1,269.975 C95.1,268.275 94.6,266.970833 93.6,266.0625 C92.6,265.154167 91.3083333,264.7 89.725,264.7 C88.6916667,264.7 87.725,264.991667 86.825,265.575 C85.925,266.158333 85.2666667,266.791667 84.85,267.475 C84.8333333,267.308333 84.825,267.05 84.825,266.7 C84.825,265.766667 84.9166667,264.883333 85.1,264.05 C85.2833333,263.216667 85.5583333,262.441667 85.925,261.725 C86.2916667,261.008333 86.8041667,260.4375 87.4625,260.0125 C88.1208333,259.5875 88.8833333,259.375 89.75,259.375 C91.2666667,259.375 92.4833333,260 93.4,261.25 L93.4,261.25 L94.25,260.2 C93.1166667,258.783333 91.6166667,258.075 89.75,258.075 C88.8666667,258.075 88.0583333,258.2375 87.325,258.5625 C86.5916667,258.8875 85.9875,259.320833 85.5125,259.8625 C85.0375,260.404167 84.6333333,261.05 84.3,261.8 C83.9666667,262.55 83.7291667,263.329167 83.5875,264.1375 C83.4458333,264.945833 83.375,265.791667 83.375,266.675 C83.375,267.608333 83.4416667,268.483333 83.575,269.3 C83.7083333,270.116667 83.9291667,270.895833 84.2375,271.6375 C84.5458333,272.379167 84.9333333,273.016667 85.4,273.55 C85.8666667,274.083333 86.45,274.508333 87.15,274.825 C87.85,275.141667 88.6333333,275.3 89.5,275.3 Z M89.45,274 C88.4666667,274 87.6333333,273.716667 86.95,273.15 C86.2666667,272.583333 85.775,271.933333 85.475,271.2 C85.175,270.466667 84.9916667,269.675 84.925,268.825 C85.4083333,267.975 86.0625,267.2875 86.8875,266.7625 C87.7125,266.2375 88.575,265.975 89.475,265.975 C90.725,265.975 91.7333333,266.316667 92.5,267 C93.2666667,267.683333 93.65,268.683333 93.65,270 C93.65,271.016667 93.2791667,271.9375 92.5375,272.7625 C91.7958333,273.5875 90.7666667,274 89.45,274 Z M103.15,275 L110.275,259.325 L110.275,258.325 L99.35,258.325 L99.35,259.625 L108.575,259.625 L101.575,275 L103.15,275 Z M120.225,275.3 C121.841667,275.3 123.1875,274.8875 124.2625,274.0625 C125.3375,273.2375 125.875,272.158333 125.875,270.825 C125.875,269.725 125.479167,268.791667 124.6875,268.025 C123.895833,267.258333 122.916667,266.716667 121.75,266.4 C122.85,266.1 123.770833,265.6125 124.5125,264.9375 C125.254167,264.2625 125.625,263.408333 125.625,262.375 C125.625,260.991667 125.083333,259.929167 124,259.1875 C122.916667,258.445833 121.658333,258.075 120.225,258.075 C118.758333,258.075 117.491667,258.445833 116.425,259.1875 C115.358333,259.929167 114.825,260.991667 114.825,262.375 C114.825,263.408333 115.195833,264.2625 115.9375,264.9375 C116.679167,265.6125 117.6,266.1 118.7,266.4 C117.533333,266.716667 116.55,267.2625 115.75,268.0375 C114.95,268.8125 114.55,269.741667 114.55,270.825 C114.55,272.158333 115.0875,273.2375 116.1625,274.0625 C117.2375,274.8875 118.591667,275.3 120.225,275.3 Z M120.225,265.8 C119.858333,265.733333 119.5,265.641667 119.15,265.525 C118.8,265.408333 118.383333,265.225 117.9,264.975 C117.416667,264.725 117.025,264.3875 116.725,263.9625 C116.425,263.5375 116.275,263.058333 116.275,262.525 C116.275,261.558333 116.65,260.791667 117.4,260.225 C118.15,259.658333 119.091667,259.375 120.225,259.375 C121.358333,259.375 122.3,259.658333 123.05,260.225 C123.8,260.791667 124.175,261.558333 124.175,262.525 C124.175,263.058333 124.025,263.5375 123.725,263.9625 C123.425,264.3875 123.033333,264.720833 122.55,264.9625 C122.066667,265.204167 121.65,265.3875 121.3,265.5125 C120.95,265.6375 120.591667,265.733333 120.225,265.8 Z M120.225,274 C119.058333,274 118.0625,273.7 117.2375,273.1 C116.4125,272.5 116,271.708333 116,270.725 C116,270.125 116.166667,269.583333 116.5,269.1 C116.833333,268.616667 117.245833,268.2375 117.7375,267.9625 C118.229167,267.6875 118.6875,267.475 119.1125,267.325 C119.5375,267.175 119.908333,267.083333 120.225,267.05 C120.541667,267.083333 120.908333,267.175 121.325,267.325 C121.741667,267.475 122.2,267.6875 122.7,267.9625 C123.2,268.2375 123.616667,268.616667 123.95,269.1 C124.283333,269.583333 124.45,270.125 124.45,270.725 C124.45,271.691667 124.029167,272.479167 123.1875,273.0875 C122.345833,273.695833 121.358333,274 120.225,274 Z M136.125,275.275 C137.008333,275.275 137.816667,275.1125 138.55,274.7875 C139.283333,274.4625 139.8875,274.029167 140.3625,273.4875 C140.8375,272.945833 141.241667,272.3 141.575,271.55 C141.908333,270.8 142.145833,270.020833 142.2875,269.2125 C142.429167,268.404167 142.5,267.558333 142.5,266.675 C142.5,265.741667 142.433333,264.866667 142.3,264.05 C142.166667,263.233333 141.945833,262.454167 141.6375,261.7125 C141.329167,260.970833 140.941667,260.333333 140.475,259.8 C140.008333,259.266667 139.425,258.841667 138.725,258.525 C138.025,258.208333 137.241667,258.05 136.375,258.05 C134.675,258.05 133.316667,258.575 132.3,259.625 C131.283333,260.675 130.775,261.925 130.775,263.375 C130.775,265.075 131.275,266.383333 132.275,267.3 C133.275,268.216667 134.566667,268.675 136.15,268.675 C137.166667,268.675 138.129167,268.379167 139.0375,267.7875 C139.945833,267.195833 140.616667,266.558333 141.05,265.875 L141.05,265.875 L141.05,266.65 C141.05,267.583333 140.9625,268.4625 140.7875,269.2875 C140.6125,270.1125 140.341667,270.8875 139.975,271.6125 C139.608333,272.3375 139.095833,272.9125 138.4375,273.3375 C137.779167,273.7625 137.008333,273.975 136.125,273.975 C134.608333,273.975 133.391667,273.358333 132.475,272.125 L132.475,272.125 L131.65,273.15 C132.75,274.566667 134.241667,275.275 136.125,275.275 Z M136.4,267.375 C135.15,267.375 134.141667,267.033333 133.375,266.35 C132.608333,265.666667 132.225,264.666667 132.225,263.35 C132.225,262.333333 132.595833,261.4125 133.3375,260.5875 C134.079167,259.7625 135.108333,259.35 136.425,259.35 C137.408333,259.35 138.241667,259.633333 138.925,260.2 C139.608333,260.766667 140.1,261.416667 140.4,262.15 C140.7,262.883333 140.883333,263.675 140.95,264.525 C140.466667,265.375 139.8125,266.0625 138.9875,266.5875 C138.1625,267.1125 137.3,267.375 136.4,267.375 Z M153.575,275.3 C154.641667,275.3 155.583333,275.041667 156.4,274.525 C157.216667,274.008333 157.858333,273.320833 158.325,272.4625 C158.791667,271.604167 159.141667,270.683333 159.375,269.7 C159.608333,268.716667 159.725,267.708333 159.725,266.675 C159.725,265.625 159.608333,264.6125 159.375,263.6375 C159.141667,262.6625 158.791667,261.75 158.325,260.9 C157.858333,260.05 157.216667,259.366667 156.4,258.85 C155.583333,258.333333 154.641667,258.075 153.575,258.075 C152.491667,258.075 151.5375,258.333333 150.7125,258.85 C149.8875,259.366667 149.245833,260.05 148.7875,260.9 C148.329167,261.75 147.983333,262.6625 147.75,263.6375 C147.516667,264.6125 147.4,265.625 147.4,266.675 C147.4,267.725 147.516667,268.7375 147.75,269.7125 C147.983333,270.6875 148.329167,271.604167 148.7875,272.4625 C149.245833,273.320833 149.891667,274.008333 150.725,274.525 C151.558333,275.041667 152.508333,275.3 153.575,275.3 Z M153.575,274 C152.725,274 151.9875,273.783333 151.3625,273.35 C150.7375,272.916667 150.254167,272.3375 149.9125,271.6125 C149.570833,270.8875 149.316667,270.1125 149.15,269.2875 C148.983333,268.4625 148.9,267.591667 148.9,266.675 C148.9,265.758333 148.983333,264.8875 149.15,264.0625 C149.316667,263.2375 149.570833,262.4625 149.9125,261.7375 C150.254167,261.0125 150.7375,260.4375 151.3625,260.0125 C151.9875,259.5875 152.725,259.375 153.575,259.375 C154.408333,259.375 155.1375,259.5875 155.7625,260.0125 C156.3875,260.4375 156.870833,261.0125 157.2125,261.7375 C157.554167,262.4625 157.804167,263.2375 157.9625,264.0625 C158.120833,264.8875 158.2,265.758333 158.2,266.675 C158.2,267.591667 158.120833,268.4625 157.9625,269.2875 C157.804167,270.1125 157.554167,270.8875 157.2125,271.6125 C156.870833,272.3375 156.3875,272.916667 155.7625,273.35 C155.1375,273.783333 154.408333,274 153.575,274 Z" id="group_font1"></path>
            </g>
        </g>
    </g>
</svg>