<?xml version="1.0" encoding="UTF-8"?>
<svg width="400px" height="312px" viewBox="0 0 400 312" version="1.1" xmlns="http://www.w3.org/2000/svg" xmlns:xlink="http://www.w3.org/1999/xlink">
    <!-- Generator: Sketch 63.1 (92452) - https://sketch.com -->
    <title>Group 242</title>
    <desc>Created with Sketch.</desc>
    <defs>
        <polygon id="path-1" points="0.700671215 1.01583235 99.027451 1.01583235 99.027451 135.957028 0.700671215 135.957028"></polygon>
        <polygon id="path-3" points="1.11271133 0.829483333 52.3945588 0.829483333 52.3945588 56.4946183 1.11271133 56.4946183"></polygon>
        <polygon id="path-5" points="2.59982482 1.82718475 42.2362864 1.82718475 42.2362864 44.4833333 2.59982482 44.4833333"></polygon>
    </defs>
    <g id="Кейс" stroke="none" stroke-width="1" fill="none" fill-rule="evenodd">
        <g id="Pride-Group-XL" transform="translate(-875.000000, -6019.000000)">
            <g id="Group-242" transform="translate(875.000000, 6017.000000)">
                <path d="M228.119477,118.290342 C224.854118,118.290342 222.190065,115.623958 222.190065,112.355742 C222.190065,111.929225 222.226667,111.539342 222.294641,111.149458 L222.294641,111.112825 L231.065882,109.265458 L233.729935,110.155125 L233.729935,110.189142 L233.693333,110.225775 C233.944314,110.900875 234.082876,111.609992 234.082876,112.355742 C234.082876,115.234075 232.061961,117.615242 229.32732,118.185675 C228.935163,118.253708 228.545621,118.290342 228.119477,118.290342" id="Fill-1" fill="#706F6E"></path>
                <polygon id="Fill-3" fill="#C5C5C5" points="181.502222 222.939215 199.857778 227.701548 218.176732 222.939215 199.857778 310.817348"></polygon>
                <polygon id="Fill-5" fill="#403F3E" points="199.859085 187.655035 190.734902 175.929752 190.734902 175.893118 199.788497 177.952435 199.859085 177.952435 199.895686 177.952435 208.949281 175.893118 208.949281 175.929752"></polygon>
                <polygon id="Fill-7" fill="#9C9B9B" points="186.11817 169.959303 213.563922 169.959303 199.859346 177.919203"></polygon>
                <polygon id="Fill-9" fill="#C5C5C5" points="190.734379 71.0650033 168.616732 25.86732 199.717386 5.68235333 199.717386 89.4026033"></polygon>
                <polygon id="Fill-11" fill="#595958" points="199.751895 311.208278 163.822484 272.261812 164.604183 268.742395 178.379346 207.624912 181.503529 222.940262 199.859085 310.818395"></polygon>
                <polygon id="Fill-13" fill="#706F6E" points="178.379869 207.624912 164.602092 268.742395 163.823007 268.567078 163.823007 197.320478 178.591634 206.808512"></polygon>
                <path d="M168.616732,109.264935 L177.385359,111.112302 L177.385359,111.148935 C177.455948,111.538818 177.492549,111.931318 177.492549,112.357835 C177.492549,115.626052 174.828497,118.289818 171.526536,118.289818 C168.261176,118.289818 165.599739,115.626052 165.599739,112.357835 C165.599739,111.609468 165.738301,110.900352 165.989281,110.225252 L165.95268,110.191235 L165.95268,110.154602 L168.616732,109.264935 Z" id="Fill-15" fill="#706F6E"></path>
                <polygon id="Fill-17" fill="#9C9B9B" points="190.734379 71.0650033 138.721307 22.6671367 168.616732 25.86732"></polygon>
                <path d="M168.083137,73.5181283 L137.79817,105.035878 C138.080523,103.507745 138.260915,102.550045 138.260915,102.476778 C138.224314,102.513412 106.626928,94.872745 106.626928,94.872745 C106.626928,94.872745 106.663529,94.872745 106.697516,94.8361117 C107.868758,94.5168783 146.213856,80.1984783 166.982484,72.4505283 L168.083137,73.5181283 Z" id="Fill-19" fill="#9C9B9B"></path>
                <path d="M140.070588,55.8914767 L109.822222,46.8665933 L138.65098,22.7016767 C138.687582,22.7016767 138.721569,22.66766 138.721569,22.66766 L190.734641,71.0655267 L179.620915,67.7606767 L140.070588,55.8914767 Z" id="Fill-21" fill="#9C9B9B"></path>
                <polygon id="Fill-23" fill="#595958" points="153.527843 144.017408 117.598431 149.562125 133.998431 124.973308"></polygon>
                <path d="M168.616732,72.94848 L133.999739,124.973047 L133.963137,124.936413 C133.963137,124.936413 136.697778,110.900613 137.798431,105.036663 L168.083399,73.5189133 L168.616732,72.94848 Z" id="Fill-25" fill="#222221"></path>
                <polygon id="Fill-27" fill="#9C9B9B" points="153.527843 144.017408 163.041569 176.887975 139.823268 162.922825 117.598431 149.562125"></polygon>
                <polygon id="Fill-29" fill="#222221" points="163.821961 272.262335 162.509542 272.544935 139.821961 162.922302 163.040261 176.887452 163.821961 197.318385 163.821961 268.567602 164.60366 268.742918"></polygon>
                <polygon id="Fill-31" fill="#595958" points="128.959477 248.561615 139.822222 162.920732 162.509804 272.545982 165.6 287.400798 129.952941 248.666282"></polygon>
                <path d="M138.722353,22.6671367 C138.722353,22.6671367 138.685752,22.70377 138.651765,22.70377 C137.124967,23.6981033 66.4007843,55.50107 64.1628758,56.49802 L64.0922876,56.5320367 L97.0047059,16.1280867 L97.0413072,16.1280867 C98.5681046,16.3792867 138.013856,22.6671367 138.722353,22.6671367" id="Fill-33" fill="#C5C5C5"></path>
                <path d="M138.65098,22.7027233 L109.822222,46.8650233 L64.1647059,56.4969733 C66.4,55.5000233 137.124183,23.6970567 138.65098,22.7027233" id="Fill-35" fill="#595958"></path>
                <path d="M96.5783007,147.962818 L137.799216,105.036402 C136.698562,110.900352 133.963922,124.936152 133.963922,124.936152 L133.997908,124.972785 L117.597908,149.561602 L89.229281,186.979935 L96.5783007,147.962818 Z" id="Fill-37" fill="#9C9B9B"></path>
                <path d="M139.822745,162.921778 L128.96,248.562662 L127.041046,263.804745 C127.752157,262.598462 117.597908,149.563695 117.597908,149.563695 L139.822745,162.921778 Z" id="Fill-39" fill="#706F6E"></path>
                <path d="M121.289935,77.9235483 C130.272941,67.4045483 140.071634,55.891215 140.071634,55.891215 L179.621961,67.760415 C179.054641,67.9383483 174.082092,69.8197317 166.984052,72.4494817 C146.21281,80.1974317 107.867712,94.5184483 106.696471,94.8376817 C107.47817,94.0552983 114.155294,86.309965 121.289935,77.9235483" id="Fill-41" fill="#C5C5C5"></path>
                <path d="M109.821438,46.86607 L140.069804,55.8909533 C140.069804,55.8909533 130.271111,67.4069033 121.290719,77.9232867 L115.716863,62.8225033 L109.821438,46.86607 Z" id="Fill-43" fill="#403F3E"></path>
                <path d="M105.491242,220.664808 L89.0520261,187.830875 L89.2298039,186.980458 L117.598431,149.562125 C117.598431,149.562125 127.75268,262.596892 127.041569,263.803175 L105.491242,220.701442 L105.491242,220.664808 Z" id="Fill-45" fill="#222221"></path>
                <path d="M95.2661438,68.2594133 L121.289673,77.9227633 C114.155033,86.30918 107.477908,94.0545133 106.696209,94.8368967 C106.662222,94.87353 106.628235,94.87353 106.628235,94.87353 L95.2661438,68.2594133 Z" id="Fill-47" fill="#222221"></path>
                <path d="M96.5783007,147.962818 L106.627974,94.8732683 C106.627974,94.8732683 138.225359,102.513935 138.259346,102.477302 C138.259346,102.550568 138.081569,103.508268 137.799216,105.036402 L96.5783007,147.962818 Z" id="Fill-49" fill="#403F3E"></path>
                <polygon id="Fill-51" fill="#9C9B9B" points="121.289935 77.9235483 95.2664052 68.2601983 115.716078 62.822765"></polygon>
                <path d="M89.0517647,187.831398 L105.49098,220.665332 L105.49098,220.701965 C105.49098,221.481732 93.2426144,245.361432 93.2426144,245.361432 L76.9811765,204.070432 L76.5184314,203.714565 L89.2295425,186.980982 L89.0517647,187.831398 Z" id="Fill-53" fill="#403F3E"></path>
                <polygon id="Fill-55" fill="#595958" points="51.383268 195.045025 96.5780392 147.963342 89.231634 186.980458 76.5179085 203.714042 56.6381699 229.904258"></polygon>
                <polygon id="Fill-57" fill="#9C9B9B" points="97.0047059 16.127825 64.0922876 56.531775 61.1458824 48.8204583 58.8373856 42.8152083 106.628235 4.368525 97.0413072 16.127825"></polygon>
                <polygon id="Fill-59" fill="#706F6E" points="115.71634 62.8217183 95.2666667 68.2591517 64.0928105 56.5338683 64.1633987 56.497235 109.820915 46.865285"></polygon>
                <path d="M67.3605229,78.2788917 C67.3605229,78.2788917 69.9513725,79.6290917 72.5788235,80.945275 L67.3971242,86.416725 L64.092549,85.9561917 L62.5291503,82.1881917 L61.1095425,78.2788917 L67.3605229,78.2788917 Z" id="Fill-61" fill="#403F3E"></path>
                <polygon id="Fill-63" fill="#222221" points="96.5783007 147.962818 51.3835294 195.044502 38.8501961 208.088585 38.8501961 175.537252"></polygon>
                <polygon id="Fill-65" fill="#403F3E" points="27.5244444 113.458143 19.7152941 122.344343 8.46039216 125.468643 17.6551634 116.336477"></polygon>
                <polygon id="Fill-67" fill="#858585" points="1.74849673 110.330442 17.6543791 116.335692 8.45960784 125.467858 6.15372549 120.244992"></polygon>
                <path d="M201.465098,8.737835 L201.465098,82.3682183 L228.811503,26.4893017 L201.465098,8.737835 Z M199.734379,91.3878683 C199.635033,91.3878683 199.538301,91.374785 199.449412,91.3538517 C198.657255,91.170685 197.967059,90.7127683 197.967059,89.9016017 L197.967059,5.68156833 C197.967059,5.071885 198.286013,4.41771833 198.80366,4.098485 C199.32915,3.784485 199.972288,3.666735 200.518693,3.949335 C200.667712,4.02521833 200.944837,4.19791833 201.067712,4.31566833 L201.177516,4.420335 L232.016732,24.398585 C232.759216,24.8800517 233.020654,25.8403683 232.63634,26.635835 L201.535686,90.1711183 C201.216732,90.8148183 200.453333,91.3878683 199.734379,91.3878683 L199.734379,91.3878683 Z" id="Fill-69" fill="#403F3E"></path>
                <path d="M261.033987,24.98969 L215.601307,67.2567067 L286.249673,46.1192733 L261.033987,24.98969 Z M208.947712,72.8145067 C208.333333,72.8145067 207.745098,72.4874233 207.431373,71.93269 C207.026144,71.22619 207.164706,70.3365233 207.75817,69.7844067 L255.922876,24.96614 L231.25098,27.6063567 C230.260131,27.7424233 229.431373,27.0097567 229.326797,26.0520567 C229.224837,25.09174 229.917647,24.22824 230.879739,24.12619 L260.775163,20.9260067 C261.14902,20.8946067 261.470588,20.96264 261.766013,21.1170233 C261.904575,21.1772067 262.03268,21.2583233 262.155556,21.3603733 L290.986928,45.52529 C291.478431,45.9387233 291.703268,46.5902733 291.575163,47.2182733 C291.44183,47.84889 290.976471,48.35914 290.364706,48.5423067 L209.444444,72.74124 C209.279739,72.7935733 209.112418,72.8145067 208.947712,72.8145067 L208.947712,72.8145067 Z" id="Fill-71" fill="#403F3E"></path>
                <path d="M293.034771,96.62094 C292.778562,96.62094 292.522353,96.5633733 292.273987,96.44039 L292.203399,96.4037567 C292.033464,96.3200233 291.879216,96.2075067 291.748497,96.07144 C291.034771,95.3597067 286.645229,90.27029 277.063529,79.06049 L258.28183,57.02554 C257.654379,56.2902567 257.743268,55.1860233 258.475294,54.56064 C259.209935,53.9352567 260.315817,54.0242233 260.940654,54.75689 L279.719739,76.7866067 C283.390327,81.0805567 293.053072,92.3871733 294.179869,93.5620567 C294.741961,94.0801567 294.938039,94.9305733 294.582484,95.6370733 C294.279216,96.2572233 293.67268,96.62094 293.034771,96.62094" id="Fill-73" fill="#403F3E"></path>
                <path d="M292.983529,96.58797 C292.829281,96.58797 292.680261,96.5670367 292.523399,96.5277867 C291.582222,96.2687367 272.583529,89.1985033 237.856732,76.2381533 L225.501176,71.6354367 C222.097255,70.36897 219.872418,69.5421033 219.50902,69.41912 C219.229281,69.3275367 218.978301,69.16792 218.779608,68.9533533 C218.123399,68.2468533 218.141699,67.1216867 218.847582,66.4622867 C219.412288,65.9363367 220.212288,65.8447533 220.855425,66.1875367 C221.605752,66.4544367 223.710327,67.2342033 226.716863,68.3541367 L239.080261,72.95947 C258.881569,80.3489367 292.024052,92.71792 293.464575,93.1549033 C294.376993,93.4348867 294.912941,94.39782 294.651503,95.3188867 C294.429281,96.08557 293.739085,96.58797 292.983529,96.58797" id="Fill-75" fill="#403F3E"></path>
                <path d="M278.39268,79.6740983 C277.935163,79.6740983 277.488105,79.496165 277.156078,79.1612317 C276.675033,78.6771483 276.515556,77.9601817 276.753464,77.3190983 L288.225359,46.259265 C288.523399,45.4480983 289.393987,44.9692483 290.220131,45.1576483 L320.000523,51.4350317 C299.184837,42.0621317 263.433203,25.9329983 260.269804,24.2766483 C260.044967,24.1745983 259.841046,24.0306817 259.684183,23.8605983 C259.208366,23.352965 259.080261,22.607215 259.36,21.971365 C259.637124,21.3302817 260.264575,20.919465 260.962614,20.919465 C262.058039,20.8069483 286.337778,16.9578317 302.366536,14.403965 C303.299869,14.231265 304.214902,14.9011317 304.366536,15.8535983 C304.51817,16.8112983 303.86719,17.7061983 302.912941,17.857965 C285.52732,20.6316317 273.488105,22.536565 266.899869,23.549215 C283.017516,30.9726983 332.967843,53.449865 336.227974,54.8968817 C336.269804,54.9151983 336.30902,54.9361317 336.35085,54.9596817 C337.04366,55.3312483 337.438431,56.1450317 337.258039,56.9143317 C337.014902,57.9609983 335.846275,58.575915 334.808366,58.097065 L290.975686,48.889015 L281.349542,74.958865 L303.804444,66.6195483 C304.724706,66.284615 305.726013,66.747765 306.05281,67.650515 C306.390065,68.5558817 305.924706,69.5632983 305.025359,69.9008483 L278.999216,79.5641983 C278.800523,79.637465 278.596601,79.6740983 278.39268,79.6740983" id="Fill-77" fill="#403F3E"></path>
                <path d="M310.627974,189.581687 C309.812288,189.581687 309.088105,189.01387 308.91817,188.18962 L308.737778,187.33397 L301.388758,148.31947 C301.205752,147.374853 301.830588,146.45902 302.779608,146.27847 C303.762614,146.10577 304.646275,146.72592 304.818824,147.673153 L312.337778,187.477887 C312.533856,188.42512 311.929935,189.348803 310.983529,189.545053 C310.865882,189.57122 310.745621,189.581687 310.627974,189.581687" id="Fill-79" fill="#403F3E"></path>
                <path d="M303.104052,149.710752 C302.280523,149.710752 301.545882,149.124618 301.38902,148.287285 L291.341961,95.2003517 C291.279216,94.8575683 291.313203,94.5043183 291.451765,94.185085 L302.016471,69.4288017 L283.517124,64.5094683 C282.583791,64.2635017 282.026928,63.3058017 282.277908,62.3716517 C282.528889,61.442735 283.470065,60.877535 284.419085,61.128735 L304.866144,66.568785 C305.352418,66.6970017 305.762876,67.0345517 305.985098,67.4898517 C306.20732,67.950385 306.220392,68.4789517 306.021699,68.947335 L294.873987,95.072135 L304.819085,147.635735 C305.002092,148.585585 304.377255,149.501418 303.425621,149.681968 C303.318431,149.702902 303.208627,149.710752 303.104052,149.710752" id="Fill-81" fill="#403F3E"></path>
                <path d="M236.641569,178.637217 C236.262484,178.637217 235.886013,178.514233 235.577516,178.2735 C235.007582,177.8339 234.759216,177.090767 234.960523,176.399967 L244.474248,143.532017 C244.560523,143.244183 244.717386,142.977283 244.934379,142.765333 L264.463791,123.6846 C265.143529,123.012117 266.259869,123.022583 266.934379,123.713383 C267.608889,124.404183 267.593203,125.511033 266.900392,126.18875 L247.705621,144.947633 L239.559216,173.095117 L258.921307,161.4588 C259.747451,160.961633 260.821961,161.228533 261.321307,162.058017 C261.818039,162.884883 261.548758,163.960333 260.725229,164.4575 L237.543529,178.386017 C237.263791,178.5561 236.950065,178.637217 236.641569,178.637217" id="Fill-83" fill="#403F3E"></path>
                <path d="M343.042353,231.652715 C342.514248,231.652715 341.996601,231.414598 341.648889,230.961915 L280.689412,150.617165 C280.10902,149.847865 280.255425,148.751482 281.026667,148.167965 C281.787451,147.587065 282.888105,147.736215 283.47634,148.505515 L344.435817,228.845032 C345.018824,229.616948 344.86719,230.713332 344.098562,231.296848 C343.784837,231.537582 343.41098,231.652715 343.042353,231.652715" id="Fill-85" fill="#403F3E"></path>
                <path d="M236.641569,178.637217 C235.909542,178.637217 235.221961,178.168833 234.978824,177.43355 L222.913464,140.7505 L216.066405,130.799317 C215.781438,130.385883 215.68732,129.8704 215.804967,129.386317 L220.385359,110.734717 C220.618039,109.795333 221.548758,109.21705 222.497778,109.449933 C223.43634,109.677583 224.008889,110.624817 223.781438,111.561583 L219.389281,129.459583 L225.933072,138.973783 C226.029804,139.112467 226.103007,139.259 226.157908,139.421233 L238.304314,176.339783 C238.602353,177.26085 238.108235,178.247333 237.187974,178.54825 C237.004967,178.608433 236.821961,178.637217 236.641569,178.637217" id="Fill-87" fill="#403F3E"></path>
                <path d="M222.658301,112.824387 L222.083137,111.147103 L221.806013,109.420103 L230.705359,107.551803 C231.006013,107.486387 231.319739,107.504703 231.615163,107.604137 L234.276601,108.493803 C234.585098,108.595853 234.843922,108.77117 235.042614,109.001437 C235.513203,109.456737 235.766797,110.126603 235.578562,110.746753 C235.298824,111.678287 234.496209,112.24872 233.578562,111.971353 L233.223007,111.86407 C233.094902,111.82482 232.972026,111.772487 232.856993,111.704453 L230.961569,111.073837 L222.658301,112.824387 Z" id="Fill-89" fill="#403F3E"></path>
                <path d="M242.03634,114.781915 C241.848105,114.781915 241.659869,114.750515 241.474248,114.687715 L233.508235,111.948065 C232.595817,111.628832 232.117386,110.631882 232.431111,109.718665 C232.75268,108.808065 233.764444,108.334448 234.655948,108.643215 L242.595817,111.375015 C243.508235,111.683782 244.002353,112.678115 243.691242,113.593948 C243.440261,114.323998 242.763137,114.781915 242.03634,114.781915" id="Fill-91" fill="#403F3E"></path>
                <path d="M220.026144,121.356813 C219.160784,121.356813 218.410458,120.71573 218.29281,119.83653 C218.164706,118.881447 218.839216,117.99963 219.793464,117.87403 L233.845752,116.00573 L236.143791,110.858747 C236.541176,109.974313 237.584314,109.579197 238.457516,109.97693 C239.335948,110.372047 239.730719,111.40563 239.341176,112.290063 L236.640523,118.331947 C236.392157,118.884063 235.871895,119.27133 235.270588,119.347213 L220.258824,121.338497 C220.177778,121.35158 220.099346,121.356813 220.026144,121.356813" id="Fill-93" fill="#403F3E"></path>
                <path d="M234.083399,289.150563 C233.811503,289.150563 233.536993,289.087763 233.280784,288.95693 C232.585359,288.59583 232.211503,287.813447 232.37098,287.04153 L258.112157,162.60333 C258.112157,161.988413 258.399739,161.737213 258.927843,161.420597 L281.186667,148.059897 C281.991895,147.573197 283.079477,147.824397 283.581438,148.66173 C284.075556,149.491213 283.808889,150.566663 282.980131,151.06383 L261.340915,164.050347 L237.082092,281.556997 L268.446797,247.482763 C269.097778,246.768413 270.206275,246.73178 270.912157,247.380713 C271.620654,248.03488 271.667712,249.14173 271.011503,249.850847 L235.367059,288.585363 C235.029804,288.954313 234.56183,289.150563 234.083399,289.150563" id="Fill-95" fill="#403F3E"></path>
                <path d="M272.642876,265.55451 C271.772288,265.55451 271.021961,264.91081 270.906928,264.028993 L258.091242,163.180043 C257.968366,162.219727 258.64549,161.34576 259.604967,161.222777 C260.556601,161.123343 261.435033,161.780127 261.557908,162.737827 L274.376209,263.581543 C274.499085,264.539243 273.819346,265.418443 272.865098,265.541427 C272.789281,265.549277 272.713464,265.55451 272.642876,265.55451" id="Fill-97" fill="#403F3E"></path>
                <path d="M199.693072,313.058262 C199.583268,313.058262 199.47085,313.047795 199.361046,313.024245 C198.443399,312.822762 197.836863,312.045612 197.99634,311.124545 L198.030327,310.915212 C198.040784,310.860262 198.153203,310.415428 198.168889,310.368328 L216.466928,222.584395 C216.663007,221.637162 217.606797,221.019628 218.532288,221.226345 C219.478693,221.425212 220.085229,222.354128 219.891765,223.298745 L201.570196,311.174262 C201.559739,311.208278 201.449935,311.629562 201.442092,311.660962 C201.227712,312.456428 200.490458,313.058262 199.693072,313.058262" id="Fill-99" fill="#403F3E"></path>
                <path d="M201.212288,312.396507 L199.716863,311.42049 L198.477647,310.182807 L198.618824,310.044123 L234.574379,271.076723 C235.235817,270.367607 236.341699,270.323123 237.042353,270.979907 C237.753464,271.631457 237.797908,272.740923 237.141699,273.45004 L201.212288,312.396507 Z" id="Fill-101" fill="#403F3E"></path>
                <path d="M235.857778,274.012623 C235.052549,274.012623 234.333595,273.455273 234.153203,272.64149 L233.374118,269.122073 L221.38719,215.95664 L219.891765,223.291157 C219.758431,223.945323 219.261699,224.46604 218.615948,224.633507 L200.296993,229.393223 L199.28,226.04389 L216.686536,221.519673 L219.588497,207.271923 C219.753203,206.468607 220.459085,205.88509 221.282614,205.874623 C222.093072,205.840607 222.827712,206.437207 223.008105,207.237907 L237.564967,271.885273 C237.774118,272.827273 237.178039,273.761423 236.236863,273.970757 C236.108758,273.99954 235.980654,274.012623 235.857778,274.012623" id="Fill-103" fill="#403F3E"></path>
                <path d="M235.857778,270.315012 C234.893072,270.315012 234.108758,269.530012 234.108758,268.564462 L234.108758,197.320478 C234.108758,196.354928 234.893072,195.572545 235.857778,195.572545 C236.822484,195.572545 237.606797,196.354928 237.606797,197.320478 L237.606797,268.564462 C237.606797,269.530012 236.822484,270.315012 235.857778,270.315012" id="Fill-105" fill="#403F3E"></path>
                <path d="M272.642876,265.55451 C272.376209,265.55451 272.109542,265.496943 271.858562,265.371343 C270.998431,264.936977 270.648105,263.885077 271.079477,263.021577 L292.629804,219.919843 C293.063791,219.053727 294.117386,218.70571 294.974902,219.13746 C295.835033,219.56921 296.185359,220.618493 295.751373,221.48461 L274.20366,264.58896 C273.897778,265.20126 273.283399,265.55451 272.642876,265.55451" id="Fill-107" fill="#403F3E"></path>
                <path d="M294.191111,222.415358 C293.927059,222.415358 293.657778,222.357792 293.406797,222.232192 C292.544052,221.797825 292.19634,220.743308 292.627712,219.879808 L309.064314,187.048492 C309.498301,186.179758 310.559739,185.836975 311.412026,186.268725 C312.274771,186.703092 312.622484,187.752375 312.191111,188.615875 L295.751895,221.449808 C295.446013,222.062108 294.82902,222.415358 294.191111,222.415358" id="Fill-109" fill="#403F3E"></path>
                <path d="M272.642876,265.55451 C272.044183,265.55451 271.463791,265.24836 271.136993,264.693627 C270.760523,264.060393 270.138301,263.000643 280.342222,149.403293 C280.425882,148.445593 281.322614,147.736477 282.237647,147.817593 C283.202353,147.903943 283.908235,148.75436 283.821961,149.717293 C279.900392,193.371143 274.177516,259.350393 274.35268,263.45071 C274.499085,264.16506 274.190588,264.923893 273.52915,265.31116 C273.252026,265.478627 272.946144,265.55451 272.642876,265.55451" id="Fill-111" fill="#403F3E"></path>
                <path d="M263.967582,125.268992 C263.967582,125.268992 261.266928,111.295992 260.166275,105.392792 C259.84732,103.678875 259.672157,102.556325 259.672157,102.477825 C259.672157,101.771325 260.100915,101.130242 260.75451,100.860725 C260.874771,100.811008 261.002876,100.774375 261.13098,100.753442 C262.37281,100.483925 284.249935,95.2061083 292.649935,93.1729583 C293.580654,92.963625 294.532288,93.5235917 294.75451,94.4655917 C294.981961,95.4023583 294.406797,96.346975 293.465621,96.574625 C274.968889,101.046508 266.984575,102.977608 263.400261,103.678875 C263.463007,103.990258 263.525752,104.353975 263.601569,104.754325 C264.699608,110.644442 267.397647,124.604358 267.397647,124.604358 L263.967582,125.268992 Z" id="Fill-113" fill="#403F3E"></path>
                <path d="M282.08183,151.31032 C281.99817,151.31032 281.906667,151.30247 281.817778,151.289387 L245.89098,145.747287 C244.934118,145.598137 244.277908,144.70847 244.426928,143.75077 C244.573333,142.798303 245.467451,142.146753 246.416471,142.29067 L282.348497,147.83277 C283.302745,147.98192 283.958954,148.871587 283.812549,149.829287 C283.673987,150.692787 282.934118,151.31032 282.08183,151.31032" id="Fill-115" fill="#403F3E"></path>
                <path d="M213.37281,172.07514 L210.486536,173.757657 L212.520523,173.302357 L213.37281,172.07514 Z M199.893072,179.702723 C199.093072,179.702723 198.374118,179.153223 198.191111,178.342057 C198.018562,177.596307 198.350588,176.861023 198.959739,176.476373 L198.933595,176.42404 L199.006797,176.387407 L212.682614,168.445823 L219.851242,162.92204 C220.53098,162.393473 221.490458,162.445807 222.120523,163.045023 C222.745359,163.639007 222.839477,164.60194 222.347974,165.30844 L214.99634,175.861457 C214.745359,176.222557 214.368889,176.476373 213.945359,176.570573 L200.28,179.65824 C200.151895,179.68964 200.021176,179.702723 199.893072,179.702723 L199.893072,179.702723 Z" id="Fill-117" fill="#403F3E"></path>
                <path d="M221.090719,208.557753 C220.850196,208.557753 220.604444,208.50542 220.376993,208.40337 L199.140392,198.88132 C198.512941,198.59872 197.966536,197.905303 197.966536,197.214503 L197.966536,187.833753 C197.966536,187.438637 198.099869,187.053987 198.345621,186.74522 L207.566536,174.855087 C208.154771,174.09102 209.263268,173.960187 210.018824,174.54632 C210.782222,175.140303 210.91817,176.236687 210.32732,177.000753 L201.464575,188.438203 L201.464575,196.081487 L220.941699,204.82377 L234.146928,196.340537 L234.892026,176.820203 C234.928627,175.854653 235.736471,175.022553 236.711634,175.140303 C237.673725,175.176937 238.426667,175.99072 238.387451,176.953653 L237.605752,197.384587 C237.584837,197.957637 237.281569,198.483587 236.800523,198.792353 L222.031895,208.280387 C221.752157,208.46617 221.420131,208.557753 221.090719,208.557753" id="Fill-119" fill="#403F3E"></path>
                <path d="M228.119477,120.04063 C223.886797,120.04063 220.438431,116.59448 220.438431,112.35548 C220.438431,111.81383 220.48549,111.324513 220.576993,110.827347 C220.76,109.880113 221.654118,109.244263 222.618824,109.42743 C223.567843,109.605363 224.19268,110.515963 224.020131,111.46843 C223.962614,111.756263 223.936471,112.04148 223.936471,112.35548 C223.936471,114.66338 225.81098,116.542147 228.119477,116.542147 C228.438431,116.542147 228.723399,116.513363 229.016209,116.463647 C230.95085,116.06068 232.333856,114.367697 232.333856,112.35548 C232.333856,111.84523 232.244967,111.348063 232.054118,110.835197 C231.716863,109.92983 232.176993,108.922413 233.081569,108.584863 C233.991373,108.247313 234.99268,108.71308 235.329935,109.61583 C235.661961,110.508113 235.829281,111.431797 235.829281,112.35548 C235.829281,116.04498 233.303791,119.143113 229.682876,119.896713 C229.144314,119.99353 228.658039,120.04063 228.119477,120.04063" id="Fill-121" fill="#403F3E"></path>
                <path d="M186.11817,171.707237 C185.153464,171.707237 184.24366,170.922237 184.24366,169.956687 C184.24366,168.991137 184.902484,168.208753 185.86719,168.208753 L186.11817,168.208753 C187.082876,168.208753 187.86719,168.991137 187.86719,169.956687 C187.86719,170.922237 187.082876,171.707237 186.11817,171.707237" id="Fill-123" fill="#403F3E"></path>
                <path d="M353.553464,155.11286 C353.143007,155.11286 352.737778,154.97156 352.405752,154.68111 C351.67634,154.050493 351.600523,152.943643 352.233203,152.21621 L355.537778,148.411577 C355.869804,148.029543 356.35085,147.81236 356.858039,147.81236 L373.788758,147.81236 L385.375686,138.091443 C386.11817,137.479143 387.218824,137.565493 387.835817,138.311243 C388.463268,139.049143 388.361307,140.153377 387.624052,140.776143 L375.55085,150.90526 C375.237124,151.16431 374.839739,151.310843 374.426667,151.310843 L357.65281,151.310843 L354.873725,154.513643 C354.526013,154.911377 354.039739,155.11286 353.553464,155.11286" id="Fill-125" fill="#403F3E"></path>
                <g id="Group-129" transform="translate(300.653595, 46.270517)">
                    <mask id="mask-2" fill="white">
                        <use xlink:href="#path-1"></use>
                    </mask>
                    <g id="Clip-128"></g>
                    <path d="M70.5775163,135.957028 C70.3239216,135.957028 70.065098,135.902078 69.8271895,135.786945 L1.69908497,103.306262 C0.823267974,102.890212 0.457254902,101.848778 0.870326797,100.977428 C1.28862745,100.100845 2.35006536,99.7423617 3.20235294,100.147945 L70.368366,132.168095 L84.2402614,121.604612 L80.7213072,103.628112 C80.6611765,103.329812 80.6847059,103.018428 80.7788235,102.733212 L88.9147712,78.638945 L95.1631373,64.5220283 L57.6729412,31.436895 C57.3383007,31.138595 57.1265359,30.722545 57.0873203,30.275095 L56.499085,23.4115783 L37.2128105,3.99852833 C36.5304575,3.31557833 36.5356863,2.20611167 37.2180392,1.52316167 C37.9056209,0.840211667 39.0115033,0.850678333 39.6912418,1.53101167 L59.4245752,21.3941283 C59.7173856,21.6845783 59.8951634,22.071845 59.9317647,22.4774283 L60.5095425,29.2755283 L98.4363399,62.7453117 C99.0088889,63.252945 99.1866667,64.069345 98.8781699,64.7706117 L92.1696732,79.9080283 L84.2402614,103.410928 L87.8794771,121.999728 C88.0075817,122.656512 87.7513725,123.326378 87.2258824,123.729345 L71.6389542,135.598545 C71.3252288,135.836662 70.9539869,135.957028 70.5775163,135.957028" id="Fill-127" fill="#403F3E" mask="url(#mask-2)"></path>
                </g>
                <path d="M383.090196,151.31032 C382.530719,151.31032 381.973856,151.038187 381.636601,150.535787 C381.100654,149.729853 381.315033,148.643937 382.115033,148.10752 L390.062745,142.774753 L395.783007,127.260537 L392.044444,121.163703 C391.537255,120.339453 391.793464,119.261387 392.619608,118.75637 C393.440523,118.251353 394.520261,118.50517 395.019608,119.32942 L399.207843,126.153687 C399.490196,126.611603 399.545098,127.168953 399.359477,127.67397 L393.145098,144.517453 C393.016993,144.862853 392.784314,145.158537 392.481046,145.365253 L384.062745,151.014637 C383.764706,151.21612 383.427451,151.31032 383.090196,151.31032" id="Fill-130" fill="#403F3E"></path>
                <path d="M391.224575,127.21867 C391.067712,127.21867 390.916078,127.197737 390.753987,127.15587 L379.499085,124.026337 C379.172288,123.93737 378.879477,123.751587 378.654641,123.495153 L370.84549,114.614187 C370.330458,114.03067 370.262484,113.17502 370.683399,112.520853 C371.101699,111.858837 371.891242,111.55792 372.649412,111.780337 L381.922614,114.49382 L397.318693,108.69267 C398.21281,108.365587 399.22719,108.81042 399.567059,109.71317 C399.909542,110.61592 399.452026,111.625953 398.550065,111.968737 L382.607582,117.976603 C382.259869,118.107437 381.865098,118.125753 381.501699,118.015853 L377.449412,116.827887 L380.936993,120.794753 L391.695163,123.785603 C392.620654,124.042037 393.167059,125.007587 392.91085,125.936503 C392.693856,126.711037 391.987974,127.21867 391.224575,127.21867" id="Fill-132" fill="#403F3E"></path>
                <path d="M391.224575,127.21867 C390.777516,127.21867 390.335686,127.051203 389.995817,126.713653 L380.764444,117.57887 C380.076863,116.90377 380.071634,115.79692 380.751373,115.10612 C381.428497,114.41532 382.534379,114.41532 383.221961,115.093037 L392.453333,124.225203 C393.140915,124.90292 393.143529,126.012387 392.46902,126.70057 C392.126536,127.04597 391.674248,127.21867 391.224575,127.21867" id="Fill-134" fill="#403F3E"></path>
                <path d="M326.105098,83.4151467 L330.301176,84.9406633 L331.990065,84.68423 C332.000523,84.68423 332.003137,84.68423 332.008366,84.6816133 L335.349542,84.22108 C335.668497,84.17398 335.987451,84.2158467 336.282876,84.34668 L337.310327,84.7915133 L335.92732,83.4386967 C335.441046,82.95723 335.27634,82.2376467 335.50902,81.59133 L336.07634,80.02918 L332.745621,80.02918 L326.431895,83.2529133 C326.319477,83.3078633 326.209673,83.3601967 326.105098,83.4151467 M345.281569,91.8957633 C345.048889,91.8957633 344.813595,91.85128 344.588758,91.7544633 L335.344314,87.75358 L330.379608,88.46793 C330.081569,88.50718 329.796601,88.47578 329.524706,88.3789633 L320.931242,85.2546633 C320.214902,84.9929967 319.749542,84.2969633 319.780915,83.5355133 C319.820131,82.7714467 320.337778,82.1198967 321.075033,81.92103 C321.448889,81.7980467 323.36,80.8586633 324.897255,80.10768 L331.516863,76.7269467 C331.762614,76.59873 332.042353,76.5306967 332.322092,76.5306967 L338.573072,76.5306967 C339.140392,76.5306967 339.67634,76.8080633 340.005752,77.27383 C340.32732,77.74483 340.41098,78.34143 340.214902,78.8778467 L339.176993,81.72478 L346.507712,88.8970633 C347.106405,89.4858133 347.203137,90.4251967 346.735163,91.12123 C346.403137,91.6210133 345.851503,91.8957633 345.281569,91.8957633" id="Fill-136" fill="#403F3E"></path>
                <path d="M335.589804,87.7028167 C335.367582,87.7028167 335.140131,87.6583333 334.920523,87.5693667 C334.02902,87.2004167 333.60549,86.1746833 333.974118,85.2824 L335.534902,81.5196333 C335.913987,80.6247333 336.944052,80.2086833 337.822484,80.5724 C338.711373,80.94135 339.134902,81.9670833 338.768889,82.85675 L337.20549,86.62475 C336.925752,87.2972333 336.274771,87.7028167 335.589804,87.7028167" id="Fill-138" fill="#403F3E"></path>
                <path d="M332.250458,88.1654433 C331.785098,88.1654433 331.324967,87.9848933 330.979869,87.61856 L325.832157,82.1811267 L328.349804,79.7502433 L333.518431,85.2138433 C334.182484,85.91511 334.153725,87.02196 333.450458,87.6839767 C333.113203,88.0058267 332.68183,88.1654433 332.250458,88.1654433" id="Fill-140" fill="#403F3E"></path>
                <g id="Group-144" transform="translate(290.196078, 1.787183)">
                    <mask id="mask-4" fill="white">
                        <use xlink:href="#path-3"></use>
                    </mask>
                    <g id="Clip-143"></g>
                    <path d="M14.7155556,14.3610517 L44.8384314,51.2979183 L48.5586928,41.590085 L14.7155556,14.3610517 Z M45.3926797,56.4946183 C44.8750327,56.4946183 44.3756863,56.261735 44.0436601,55.8509183 L1.50509804,3.68505167 C0.940392157,2.991635 0.990065359,1.98421833 1.6227451,1.34575167 C2.24496732,0.709901667 3.25673203,0.654951667 3.96,1.21491833 L51.7456209,39.6642183 C52.3364706,40.1430683 52.5508497,40.946385 52.2763399,41.6581183 L47.0266667,55.3694517 C46.8044444,55.9529683 46.2867974,56.3742517 45.6724183,56.4710683 C45.580915,56.489385 45.4867974,56.4946183 45.3926797,56.4946183 L45.3926797,56.4946183 Z" id="Fill-142" fill="#403F3E" mask="url(#mask-4)"></path>
                </g>
                <path d="M348.299085,196.795575 C347.838954,196.795575 347.384052,196.615025 347.038954,196.256542 L301.846797,149.214108 C301.833725,149.203642 301.820654,149.187942 301.807582,149.174858 L243.433725,88.3661417 L283.538301,148.591342 C284.074248,149.394658 283.854641,150.483192 283.052026,151.016992 C282.259869,151.553408 281.167059,151.341458 280.625882,150.530292 L229.608889,73.919525 C229.106928,73.165925 229.263791,72.1506583 229.972288,71.5828417 C230.665098,71.0202583 231.697778,71.0804417 232.327843,71.737225 L304.202353,146.618375 C304.314771,146.707342 304.414118,146.812008 304.505621,146.932375 L349.559216,193.833508 C350.228497,194.529542 350.204967,195.639008 349.509542,196.306258 C349.174902,196.633342 348.735686,196.795575 348.299085,196.795575" id="Fill-145" fill="#403F3E"></path>
                <path d="M360.793987,209.835472 C360.328627,209.835472 359.868497,209.649688 359.533856,209.299055 L347.037124,196.294222 C346.367843,195.600805 346.391373,194.488722 347.089412,193.818855 C347.779608,193.148988 348.88549,193.172538 349.56,193.868572 L359.047582,203.743872 L359.047582,175.538822 C359.047582,174.570655 359.829281,173.788272 360.793987,173.788272 C361.758693,173.788272 362.543007,174.570655 362.543007,175.538822 L362.543007,208.087538 C362.543007,208.799272 362.111634,209.442972 361.444967,209.707255 C361.235817,209.793605 361.013595,209.835472 360.793987,209.835472" id="Fill-147" fill="#403F3E"></path>
                <path d="M343.042353,231.652715 C342.956078,231.652715 342.869804,231.647482 342.780915,231.631782 C341.826667,231.490482 341.170458,230.600815 341.311634,229.640498 L346.571765,194.820515 C346.571765,193.854965 347.345621,193.185098 348.310327,193.185098 C349.275033,193.185098 350.048889,194.079998 350.048889,195.045548 L344.770458,230.166448 C344.639739,231.032565 343.892026,231.652715 343.042353,231.652715" id="Fill-149" fill="#403F3E"></path>
                <path d="M304.413856,70.0073467 C303.707974,70.0073467 303.041307,69.5755967 302.779869,68.8717133 C302.44,67.97158 302.894902,66.9615467 303.802092,66.62138 L334.975948,54.8960967 C335.87268,54.5690133 336.892288,55.0164633 337.224314,55.9165967 C337.566797,56.8219633 337.111895,57.8319967 336.204706,58.1721633 L305.028235,69.8974467 C304.829542,69.9707133 304.620392,70.0073467 304.413856,70.0073467" id="Fill-151" fill="#403F3E"></path>
                <path d="M352.345882,117.339707 C352.110588,117.339707 351.867451,117.28999 351.64,117.18794 C350.758954,116.800673 350.35634,115.764473 350.748497,114.882657 L355.990327,103.029157 L349.245229,96.09499 C348.573333,95.4015733 348.58902,94.2921067 349.279216,93.62224 C349.974641,92.9445233 351.083137,92.9654567 351.749804,93.65364 L359.315817,101.435607 C359.815163,101.945857 359.951111,102.709923 359.660915,103.36409 L353.943268,116.30089 C353.658301,116.95244 353.015163,117.339707 352.345882,117.339707" id="Fill-153" fill="#403F3E"></path>
                <path d="M306.441046,247.112505 C305.790065,247.112505 305.186144,246.746172 304.882876,246.162655 C292.44366,221.906155 292.44366,221.238905 292.44366,220.699872 C292.44366,219.734322 293.225359,218.933622 294.190065,218.933622 C295.157386,218.933622 295.939085,219.697688 295.939085,220.665855 C296.289412,221.531972 301.871111,232.574305 306.231895,241.117722 L321.07634,203.429872 C321.424052,202.529738 322.454118,202.097988 323.343007,202.443388 C324.239739,202.796638 324.681569,203.811905 324.326013,204.712038 L308.064575,246.005655 C307.813595,246.641505 307.214902,247.075872 306.52732,247.109888 C306.498562,247.112505 306.46719,247.112505 306.441046,247.112505" id="Fill-155" fill="#403F3E"></path>
                <path d="M170.871111,26.489825 L198.217516,82.366125 L198.217516,8.733125 L170.871111,26.489825 Z M199.966536,91.6474417 C199.284183,91.6474417 198.651503,91.2470917 198.36915,90.6060083 C198.35085,90.5746083 198.16,90.200425 198.146928,90.1716417 L167.046275,26.6363583 C166.661961,25.8408917 166.923399,24.880575 167.665882,24.3991083 L198.763922,4.21414167 L199.820131,5.51724167 L198.886797,4.11994167 L198.996601,4.04929167 C199.535163,3.69080833 200.227974,3.65679167 200.790065,3.96294167 C201.36,4.266475 201.715556,4.85784167 201.715556,5.50154167 L201.715556,89.8995083 C201.715556,90.726375 201.135163,91.440725 200.32732,91.613425 C200.207059,91.636975 200.084183,91.6474417 199.966536,91.6474417 L199.966536,91.6474417 Z" id="Fill-157" fill="#403F3E"></path>
                <path d="M113.433987,46.1197967 L184.079739,67.25723 L138.649673,24.9902133 L113.433987,46.1197967 Z M190.733333,72.81503 C190.571242,72.81503 190.401307,72.79148 190.239216,72.7417633 L109.318954,48.54283 C108.704575,48.3570467 108.24183,47.8494133 108.108497,47.2187967 C107.975163,46.5907967 108.205229,45.9392467 108.696732,45.5231967 L137.528105,21.3608967 C137.65098,21.2588467 137.779085,21.17773 137.915033,21.11493 C138.210458,20.9631633 138.539869,20.89513 138.905882,20.92653 L168.803922,24.1267133 C169.763399,24.2287633 170.456209,25.0922633 170.354248,26.05258 C170.249673,27.0076633 169.423529,27.7141633 168.430065,27.60688 L143.760784,24.9666633 L191.922876,69.78493 C192.518954,70.3370467 192.657516,71.2267133 192.249673,71.9332133 C191.935948,72.4879467 191.350327,72.81503 190.733333,72.81503 L190.733333,72.81503 Z" id="Fill-159" fill="#403F3E"></path>
                <path d="M106.624837,96.6235567 C105.660131,96.6235567 104.875817,95.8385567 104.875817,94.8730067 C104.875817,94.2921067 105.15817,93.77924 105.594771,93.4600067 C106.661438,92.3139067 112.096732,86.0260567 119.963399,76.7892233 L138.742484,54.75689 L141.401307,57.02554 L122.619608,79.06049 C115.997386,86.8424567 108.823529,95.1870067 107.932026,96.0766733 C107.602614,96.4037567 107.090196,96.6235567 106.624837,96.6235567" id="Fill-161" fill="#403F3E"></path>
                <path d="M106.696209,96.58797 C105.927582,96.58797 105.224314,96.07772 105.00732,95.2979533 C104.758954,94.36642 105.305359,93.4034867 106.236078,93.1522867 C107.624314,92.7283867 138.335425,81.27262 158.651765,73.68952 L174.39817,67.8229533 C176.837386,66.9123533 178.466144,66.3079033 178.981176,66.12997 C179.59817,65.8892367 180.31451,65.9912867 180.832157,66.4622867 C181.540654,67.1216867 181.587712,68.2128367 180.934118,68.9193367 L180.902745,68.9533533 C180.693595,69.1731533 180.434771,69.3380033 180.141961,69.4295867 C179.833464,69.5264033 178.199477,70.14132 175.621699,71.1016367 L159.877908,76.97082 C125.647843,89.7375367 108.100131,96.2687367 107.158954,96.5277867 C107.002092,96.5670367 106.847843,96.58797 106.696209,96.58797" id="Fill-163" fill="#403F3E"></path>
                <path d="M64.1461438,58.25014 C63.4820915,58.25014 62.844183,57.8864233 62.5487582,57.26104 C62.140915,56.4001567 62.4598693,55.39274 63.3095425,54.9662233 L63.3801307,54.92959 C66.7056209,53.45379 116.590588,31.00279 132.776209,23.5479067 C121.265098,21.77904 97.0742484,17.9063733 96.7605229,17.8566567 C95.8088889,17.7022733 95.1631373,16.80214 95.3173856,15.8496733 C95.471634,14.8998233 96.3396078,14.22734 97.3226144,14.4026567 C99.2520261,14.7166567 137.259869,20.77424 138.83634,20.9207733 C139.503007,20.98619 140.096471,21.4231733 140.331765,22.04594 C140.567059,22.66609 140.452026,23.3752067 139.999739,23.85929 C139.840261,24.03199 139.633725,24.1759067 139.411503,24.2779567 C134.946144,26.6094067 65.5709804,57.7843733 64.8729412,58.09314 C64.6350327,58.1978067 64.3918954,58.25014 64.1461438,58.25014" id="Fill-165" fill="#403F3E"></path>
                <path d="M121.289935,79.6740983 C121.086013,79.6740983 120.882092,79.637465 120.680784,79.5641983 L94.6572549,69.9008483 C93.7579085,69.5632983 93.292549,68.5558817 93.6298039,67.650515 C93.9618301,66.747765 94.9735948,66.2819983 95.8755556,66.6195483 L118.333072,74.958865 L108.706928,48.889015 L64.5239216,58.206965 C63.5644444,58.4293817 62.6520261,57.8013817 62.4533333,56.8541483 C62.2572549,55.9095317 62.8559477,54.980615 63.8049673,54.784365 L109.462484,45.1550317 C110.301699,44.9901817 111.16183,45.4480983 111.457255,46.259265 L122.92915,77.3190983 C123.167059,77.9601817 123.007582,78.6771483 122.526536,79.1612317 C122.191895,79.496165 121.747451,79.6740983 121.289935,79.6740983" id="Fill-167" fill="#403F3E"></path>
                <path d="M89.0543791,189.581687 C88.936732,189.581687 88.8164706,189.57122 88.6988235,189.545053 C87.7524183,189.348803 87.1484967,188.42512 87.3445752,187.477887 L87.5197386,186.622237 L104.808627,95.07292 L93.660915,68.9455033 C93.4622222,68.4797367 93.4726797,67.95117 93.694902,67.4906367 C93.9197386,67.0353367 94.3301961,66.6977867 94.8164706,66.5669533 L115.263529,61.12952 C116.215163,60.87832 117.153725,61.4409033 117.404706,62.3724367 C117.653072,63.3065867 117.098824,64.26167 116.16549,64.5102533 L97.6661438,69.4295867 L108.23085,94.18587 C108.369412,94.5051033 108.403399,94.8583533 108.340654,95.2011367 L90.764183,188.18962 C90.5942484,189.01387 89.8648366,189.581687 89.0543791,189.581687" id="Fill-169" fill="#403F3E"></path>
                <path d="M56.6350327,231.652715 C56.2664052,231.652715 55.8951634,231.537582 55.5814379,231.294232 C54.8101961,230.713332 54.6585621,229.616948 55.244183,228.845032 L116.206275,148.505515 C116.75268,147.791165 117.740915,147.607998 118.499085,148.063298 L160.122614,173.089098 L151.976209,144.946848 L132.778824,126.224598 C132.091242,125.552115 132.057255,124.437415 132.716078,123.746615 C133.380131,123.050582 134.457255,123.000865 135.160523,123.660265 L154.747451,142.764548 C154.964444,142.976498 155.121307,143.243398 155.207582,143.531232 L164.721307,176.399182 C164.92,177.089982 164.674248,177.835732 164.104314,178.275332 C163.52915,178.707082 162.755294,178.756798 162.138301,178.387848 L118.044183,151.867932 L58.0284967,230.961915 C57.6807843,231.414598 57.1631373,231.652715 56.6350327,231.652715" id="Fill-171" fill="#403F3E"></path>
                <path d="M163.040784,178.637217 C162.860392,178.637217 162.674771,178.608433 162.494379,178.54825 C161.574118,178.247333 161.08,177.26085 161.378039,176.339783 L173.524444,139.421233 C173.579346,139.259 173.652549,139.112467 173.746667,138.973783 L180.293072,129.459583 L175.864314,111.569433 C175.631634,110.632667 176.204183,109.682817 177.145359,109.45255 C178.094379,109.188267 179.022484,109.792717 179.260392,110.726867 L183.874771,129.386317 C183.995033,129.8704 183.900915,130.385883 183.615948,130.799317 L176.768889,140.7505 L164.703529,177.43355 C164.460392,178.168833 163.77281,178.637217 163.040784,178.637217" id="Fill-173" fill="#403F3E"></path>
                <path d="M177.55268,112.8987 C177.448105,112.8987 177.338301,112.885617 177.228497,112.864683 L168.721307,111.074883 L166.815425,111.710733 C166.703007,111.773533 166.582745,111.828483 166.459869,111.8625 C165.534379,112.150333 164.384052,111.6741 164.101699,110.7478 C163.824575,109.8215 164.169673,108.900433 165.092549,108.62045 L165.134379,108.607367 C165.215425,108.562883 165.306928,108.523633 165.40366,108.492233 L168.065098,107.605183 C168.360523,107.50575 168.684706,107.487433 168.977516,107.55285 L177.743529,109.402833 C178.682092,109.599083 179.377516,110.53585 179.186667,111.475233 C179.019346,112.307333 178.360523,112.8987 177.55268,112.8987" id="Fill-175" fill="#403F3E"></path>
                <path d="M157.646013,114.781915 C156.919216,114.781915 156.239477,114.323998 155.988497,113.593948 C155.68,112.678115 156.174118,111.683782 157.086536,111.375015 L165.023791,108.643215 C165.91268,108.331832 166.929673,108.808065 167.251242,109.718665 C167.564967,110.631882 167.086536,111.628832 166.174118,111.948065 L158.208105,114.687715 C158.025098,114.750515 157.831634,114.781915 157.646013,114.781915" id="Fill-177" fill="#403F3E"></path>
                <path d="M179.656471,121.356813 C179.583268,121.356813 179.504837,121.35158 179.42902,121.338497 L164.412026,119.347213 C163.808105,119.268713 163.290458,118.884063 163.042092,118.331947 L160.341438,112.290063 C159.951895,111.40563 160.346667,110.372047 161.225098,109.97693 C162.093072,109.573963 163.141438,109.974313 163.536209,110.858747 L165.836863,116.008347 L179.883922,117.87403 C180.843399,117.99963 181.517908,118.87883 181.389804,119.83653 C181.272157,120.71573 180.519216,121.356813 179.656471,121.356813" id="Fill-179" fill="#403F3E"></path>
                <path d="M130.892026,247.19179 C131.017516,247.27029 131.132549,247.369723 131.237124,247.48224 L162.599216,281.556473 L140.235817,173.545707 L130.892026,247.19179 Z M165.597908,289.15004 C165.122092,289.15004 164.651503,288.95379 164.314248,288.58484 L130.324706,251.65844 L128.771765,264.024807 C128.656732,264.97989 127.736471,265.63144 126.821438,265.542473 C125.864575,265.41949 125.187451,264.545523 125.305098,263.587823 L138.086797,162.699623 C138.196601,161.85444 138.899869,161.208123 139.754771,161.174107 C140.596601,161.056357 141.36,161.731457 141.532549,162.566173 L167.310327,287.041007 C167.469804,287.812923 167.098562,288.595307 166.400523,288.956407 C166.144314,289.08724 165.872418,289.15004 165.597908,289.15004 L165.597908,289.15004 Z" id="Fill-181" fill="#403F3E"></path>
                <path d="M199.902484,313.068467 C199.092026,313.068467 198.386144,312.5556 198.244967,311.71565 L198.21098,311.5037 L179.79268,223.298483 C179.596601,222.353867 180.203137,221.427567 181.144314,221.226083 C182.122092,221.037683 183.018824,221.642133 183.214902,222.584133 L201.570458,310.45965 C201.573072,310.480583 201.651503,310.8914 201.651503,310.91495 C201.813595,311.8648 201.193987,312.874833 200.244967,313.037067 C200.129935,313.058 200.017516,313.068467 199.902484,313.068467" id="Fill-183" fill="#403F3E"></path>
                <g id="Group-187" transform="translate(159.477124, 268.687183)">
                    <mask id="mask-6" fill="white">
                        <use xlink:href="#path-5"></use>
                    </mask>
                    <g id="Clip-186"></g>
                    <path d="M40.4891503,44.483595 C39.9845752,44.483595 39.4826144,44.2611783 39.134902,43.8425117 C39.0773856,43.7954117 39.0277124,43.7483117 38.9911111,43.7090617 L3.06431373,4.762595 C2.40810458,4.05347833 2.45254902,2.94401167 3.16366013,2.29246167 C3.86431373,1.63306167 4.97542484,1.68277833 5.63163399,2.38927833 L41.5584314,41.335745 C41.7152941,41.4404117 41.7571242,41.5136783 41.8721569,41.6628283 C42.4603922,42.426895 42.3218301,43.5285117 41.5584314,44.114645 C41.2394771,44.365845 40.8630065,44.483595 40.4891503,44.483595" id="Fill-185" fill="#403F3E" mask="url(#mask-6)"></path>
                </g>
                <path d="M163.824575,274.012623 C163.701699,274.012623 163.573595,273.99954 163.44549,273.970757 C162.504314,273.761423 161.908235,272.827273 162.117386,271.885273 L162.896471,268.365857 L176.674248,207.237907 C176.854641,206.439823 177.565752,205.874623 178.378824,205.874623 L178.399739,205.874623 C179.223268,205.88509 179.92915,206.468607 180.093856,207.271923 L182.995817,221.519673 L200.292549,226.007257 L199.965752,227.736873 L199.414118,229.398457 L199.304314,229.36444 L181.066405,224.633507 C180.420654,224.46604 179.923922,223.945323 179.790588,223.291157 L178.295163,215.95664 L165.52915,272.64149 C165.348758,273.455273 164.629804,274.012623 163.824575,274.012623" id="Fill-188" fill="#403F3E"></path>
                <path d="M163.824575,270.315012 C162.859869,270.315012 162.075556,269.530012 162.075556,268.564462 L162.075556,197.320478 C162.075556,196.354928 162.859869,195.572545 163.824575,195.572545 C164.789281,195.572545 165.57098,196.354928 165.57098,197.320478 L165.57098,268.564462 C165.57098,269.530012 164.789281,270.315012 163.824575,270.315012" id="Fill-190" fill="#403F3E"></path>
                <path d="M127.039477,265.55451 C126.398954,265.55451 125.784575,265.20126 125.478693,264.58896 L103.928366,221.48461 C103.496993,220.618493 103.84732,219.56921 104.707451,219.13746 C105.562353,218.70571 106.618562,219.053727 107.049935,219.919843 L128.602876,263.021577 C129.034248,263.885077 128.683922,264.936977 127.823791,265.371343 C127.57281,265.496943 127.306144,265.55451 127.039477,265.55451" id="Fill-192" fill="#403F3E"></path>
                <path d="M105.491242,222.415358 C104.853333,222.415358 104.23634,222.062108 103.927843,221.449808 L87.4912418,188.615875 C87.0598693,187.752375 87.4075817,186.703092 88.2703268,186.268725 C89.1226144,185.836975 90.1840523,186.179758 90.6154248,187.048492 L107.052026,219.879808 C107.486013,220.743308 107.138301,221.797825 106.275556,222.232192 C106.024575,222.357792 105.755294,222.415358 105.491242,222.415358" id="Fill-194" fill="#403F3E"></path>
                <path d="M127.039477,265.554772 C126.736209,265.554772 126.430327,265.478888 126.153203,265.311422 C125.491765,264.924155 125.183268,264.165322 125.329673,263.450972 C125.504837,259.350655 119.779346,193.371405 115.860392,149.717555 C115.774118,148.754622 116.48,147.904205 117.444706,147.817855 C118.385882,147.736738 119.253856,148.445855 119.340131,149.403555 C129.544052,263.000905 128.92183,264.060655 128.545359,264.693888 C128.218562,265.248622 127.63817,265.554772 127.039477,265.554772 L127.039477,265.554772 Z" id="Fill-196" fill="#403F3E"></path>
                <path d="M135.679216,125.271608 L132.24915,124.601742 C132.24915,124.601742 134.981176,110.571175 136.084444,104.715075 C136.155033,104.322575 136.217778,103.977175 136.277908,103.676258 C132.688366,102.974992 124.701438,101.043892 106.212549,96.574625 C105.276601,96.346975 104.698824,95.4023583 104.926275,94.4655917 C105.153725,93.5262083 106.118431,92.9688583 107.033464,93.1729583 C115.433464,95.2061083 137.307974,100.483925 138.552418,100.753442 C138.677908,100.774375 138.806013,100.811008 138.928889,100.860725 C139.579869,101.130242 140.008627,101.771325 140.008627,102.477825 C140.008627,102.553708 139.84915,103.576825 139.548497,105.204392 C138.416471,111.225342 135.679216,125.271608 135.679216,125.271608" id="Fill-198" fill="#403F3E"></path>
                <path d="M117.59817,151.31032 C116.748497,151.31032 116.006013,150.692787 115.870065,149.829287 C115.72366,148.871587 116.379869,147.98192 117.334118,147.83277 L153.263529,142.29067 C154.191634,142.14937 155.109281,142.798303 155.255686,143.75077 C155.402092,144.70847 154.748497,145.598137 153.791634,145.747287 L117.864837,151.289387 C117.775948,151.30247 117.684444,151.31032 117.59817,151.31032" id="Fill-200" fill="#403F3E"></path>
                <path d="M187.162614,173.301572 L189.178301,173.754255 L186.326013,172.097905 L187.162614,173.301572 Z M199.855425,179.701938 L199.787451,179.701938 L185.737778,176.569788 C185.314248,176.475588 184.935163,176.221772 184.686797,175.863288 L177.332549,165.307655 C176.84366,164.601155 176.937778,163.640838 177.562614,163.044238 C178.184837,162.447638 179.152157,162.392688 179.831895,162.921255 L187.186144,168.570638 L200.731242,176.402322 C201.272418,176.716322 201.604444,177.291988 201.604444,177.917372 C201.604444,178.882922 200.822745,179.701938 199.855425,179.701938 L199.855425,179.701938 Z" id="Fill-202" fill="#403F3E"></path>
                <path d="M199.943268,179.735955 C199.687059,179.735955 199.43085,179.678388 199.182484,179.555405 L199.111895,179.518772 C198.251765,179.087022 197.901438,178.037738 198.33281,177.174238 C198.761569,176.302888 199.815163,175.962722 200.675294,176.389238 C201.535425,176.820988 201.924967,177.888588 201.49098,178.752088 C201.187712,179.372238 200.581176,179.735955 199.943268,179.735955" id="Fill-204" fill="#403F3E"></path>
                <path d="M199.892288,179.702723 L199.855686,179.702723 C198.89098,179.702723 198.109281,178.917723 198.109281,177.952173 C198.109281,176.986623 198.89098,176.20424 199.855686,176.20424 C200.820392,176.20424 201.623007,176.986623 201.623007,177.952173 C201.623007,178.917723 200.856993,179.702723 199.892288,179.702723" id="Fill-206" fill="#403F3E"></path>
                <path d="M178.591634,208.557753 C178.262222,208.557753 177.930196,208.46617 177.647843,208.280387 L162.88183,198.792353 C162.400784,198.483587 162.097516,197.957637 162.076601,197.384587 L161.292288,176.953653 C161.255686,175.99072 162.006013,175.176937 162.970719,175.140303 C163.906667,175.03302 164.748497,175.854653 164.790327,176.820203 L165.535425,196.340537 L178.740654,204.82377 L198.217778,196.10242 L198.217778,188.41727 L189.355033,177.00337 C188.764183,176.239303 188.900131,175.140303 189.660915,174.548937 C190.413856,173.960187 191.517124,174.09102 192.113203,174.85247 L201.234771,186.58037 C201.404706,186.85512 201.715817,187.509287 201.715817,187.833753 L201.715817,197.214503 C201.715817,197.808487 201.412549,198.36322 200.913203,198.68507 L179.302745,208.40337 C179.077908,208.50542 178.832157,208.557753 178.591634,208.557753" id="Fill-208" fill="#403F3E"></path>
                <path d="M171.524706,120.04063 C167.292026,120.04063 163.848889,116.59448 163.848889,112.35548 C163.848889,111.442263 164.016209,110.523813 164.343007,109.626297 C164.675033,108.715697 165.673725,108.252547 166.586144,108.582247 C167.493333,108.911947 167.958693,109.919363 167.629281,110.82473 C167.438431,111.345447 167.346928,111.84523 167.346928,112.35548 C167.346928,114.66338 169.221438,116.542147 171.524706,116.542147 C173.854118,116.542147 175.744314,114.66338 175.744314,112.35548 C175.744314,112.04148 175.71817,111.756263 175.663268,111.46843 C175.490719,110.515963 176.115556,109.605363 177.064575,109.42743 C178.000523,109.236413 178.923399,109.880113 179.103791,110.827347 C179.197908,111.324513 179.239739,111.81383 179.239739,112.35548 C179.239739,116.59448 175.780915,120.04063 171.524706,120.04063" id="Fill-210" fill="#403F3E"></path>
                <path d="M213.814379,171.707237 L186.117647,171.707237 C185.152941,171.707237 184.371242,170.922237 184.371242,169.956687 C184.371242,168.991137 185.152941,168.208753 186.117647,168.208753 L213.560784,168.208753 C214.52549,168.208753 215.437908,168.991137 215.437908,169.956687 C215.437908,170.922237 214.779085,171.707237 213.814379,171.707237" id="Fill-212" fill="#403F3E"></path>
                <path d="M46.1288889,155.11286 C45.64,155.11286 45.1589542,154.911377 44.8138562,154.51626 L42.0007843,151.310843 L25.2556863,151.310843 C24.8426144,151.310843 24.4426144,151.16431 24.1288889,150.90526 L12.0583007,140.776143 C11.3210458,140.153377 11.219085,139.049143 11.8439216,138.311243 C12.4687582,137.565493 13.5694118,137.479143 14.3066667,138.091443 L25.8909804,147.81236 L42.7929412,147.81236 C43.2922876,147.81236 43.7759477,148.026927 44.1105882,148.406343 L47.4439216,152.20836 C48.0766013,152.935793 48.0112418,154.040027 47.2792157,154.678493 C46.9524183,154.968943 46.5393464,155.11286 46.1288889,155.11286" id="Fill-214" fill="#403F3E"></path>
                <path d="M28.4488889,182.227545 C28.0750327,182.227545 27.7037908,182.107178 27.3952941,181.871678 L11.7717647,169.999862 C11.2384314,169.596895 10.9822222,168.924412 11.1103268,168.267628 L14.7783007,149.678828 L6.80183007,126.029395 L0.150849673,111.041128 C-0.157647059,110.339862 0.0175163399,109.523462 0.592679739,109.015828 L38.5142484,75.5486617 L39.0606536,68.7584117 C39.0972549,68.347595 39.2750327,67.9577117 39.5652288,67.664645 L59.3377778,47.8015283 C60.0175163,47.1159617 61.1233987,47.113345 61.8109804,47.796295 C62.4933333,48.4766283 62.4985621,49.5887117 61.8162092,50.269045 L42.4933333,69.6794783 L41.9416993,76.535145 C41.905098,76.9878283 41.6959477,77.406495 41.3560784,77.7074117 L3.86588235,110.792545 L10.056732,124.760312 L18.2449673,149.003728 C18.3416993,149.291562 18.3652288,149.600328 18.3024837,149.901245 L14.7547712,167.875128 L28.6580392,178.441228 L95.8266667,146.384445 C96.6946405,145.973628 97.7403922,146.332112 98.1586928,147.208695 C98.5717647,148.080045 98.2057516,149.124095 97.3299346,149.540145 L29.2018301,182.060078 C28.9586928,182.172595 28.705098,182.227545 28.4488889,182.227545" id="Fill-216" fill="#403F3E"></path>
                <path d="M16.5869281,151.31032 C16.2496732,151.31032 15.9124183,151.21612 15.6169935,151.017253 L7.16732026,145.36787 C6.85882353,145.158537 6.62614379,144.860237 6.50065359,144.514837 L0.322875817,127.67397 C0.137254902,127.168953 0.192156863,126.608987 0.474509804,126.153687 L4.66013072,119.32942 C5.1620915,118.502553 6.23660131,118.24612 7.0627451,118.75637 C7.88888889,119.261387 8.14509804,120.339453 7.6379085,121.163703 L3.89673203,127.263153 L9.58039216,142.772137 L17.5568627,148.104903 C18.3647059,148.64132 18.5764706,149.729853 18.0405229,150.53317 C17.703268,151.038187 17.151634,151.31032 16.5869281,151.31032" id="Fill-218" fill="#403F3E"></path>
                <path d="M8.45803922,127.21867 C7.69202614,127.21867 6.98875817,126.711037 6.77176471,125.936503 C6.51555556,125.007587 7.06196078,124.042037 7.98745098,123.785603 L18.7456209,120.794753 L22.2410458,116.822653 L18.139085,118.015853 C17.7783007,118.125753 17.3887582,118.107437 17.0332026,117.976603 L1.12732026,111.968737 C0.227973856,111.625953 -0.226928105,110.61592 0.115555556,109.71317 C0.455424837,108.807803 1.45673203,108.365587 2.36653595,108.69267 L17.7260131,114.49382 L27.0384314,111.780337 C27.7678431,111.55792 28.580915,111.858837 28.9992157,112.520853 C29.4201307,113.17502 29.3495425,114.03067 28.8371242,114.614187 L21.0279739,123.495153 C20.8031373,123.751587 20.5103268,123.93737 20.1835294,124.026337 L8.92862745,127.15587 C8.76653595,127.197737 8.61490196,127.21867 8.45803922,127.21867" id="Fill-220" fill="#403F3E"></path>
                <path d="M8.45803922,127.21867 C8.00575163,127.21867 7.56130719,127.04597 7.21359477,126.703187 C6.53908497,126.015003 6.54169935,124.908153 7.22928105,124.22782 L16.4240523,115.095653 C17.1037908,114.412703 18.2070588,114.417937 18.8946405,115.103503 C19.5743791,115.791687 19.5691503,116.898537 18.8815686,117.57887 L9.68679739,126.711037 C9.34954248,127.051203 8.90509804,127.21867 8.45803922,127.21867" id="Fill-222" fill="#403F3E"></path>
                <path d="M64.092549,84.204595 C64.1735948,84.204595 64.2520261,84.2098283 64.3330719,84.220295 L67.6350327,84.683445 C67.6402614,84.6860617 67.6454902,84.6860617 67.650719,84.6860617 L69.3788235,84.9398783 L73.6062745,83.4012783 C73.4546405,83.3306283 73.2977778,83.2521283 73.140915,83.1736283 L71.8075817,82.5142283 C69.7631373,81.4937283 67.7500654,80.452295 66.9317647,80.028395 L63.6036601,80.028395 L64.1735948,81.590545 C64.4062745,82.2368617 64.2415686,82.956445 63.7552941,83.4379117 L62.3722876,84.793345 L63.3997386,84.3485117 C63.616732,84.2543117 63.8546405,84.204595 64.092549,84.204595 M54.4010458,91.8949783 C53.8311111,91.8949783 53.2794771,91.6202283 52.947451,91.1230617 C52.4794771,90.4244117 52.5762092,89.487645 53.174902,88.8962783 L60.5056209,81.7266117 L59.465098,78.8770617 C59.2690196,78.340645 59.3552941,77.744045 59.6768627,77.2756617 C60.0036601,76.8072783 60.5422222,76.5299117 61.1095425,76.5299117 L67.3605229,76.5299117 C67.6402614,76.5299117 67.92,76.597945 68.1657516,76.7287783 C68.1709804,76.731395 70.7461438,78.0711283 73.3579085,79.3794617 L74.6938562,80.0388617 C76.2677124,80.8186283 78.223268,81.7920283 78.6389542,81.928095 C79.3448366,82.163595 79.8572549,82.830845 79.8678994,83.576595 C79.8781699,84.3197283 79.4494118,85.0000617 78.7461438,85.2538783 L70.1579085,88.380795 C69.8912418,88.474995 69.5932026,88.5090117 69.3082353,88.467145 L64.3383007,87.752795 L55.0938562,91.7536783 C54.8690196,91.850495 54.6337255,91.8949783 54.4010458,91.8949783" id="Fill-224" fill="#403F3E"></path>
                <path d="M64.092549,87.7028167 C63.4075817,87.7028167 62.7566013,87.2972333 62.4768627,86.62475 L60.9134641,82.85675 C60.547451,81.9670833 60.968366,80.94135 61.8598693,80.5724 C62.7435294,80.20345 63.768366,80.6221167 64.147451,81.5196333 L65.7056209,85.2824 C66.0768627,86.1746833 65.6533333,87.2004167 64.7618301,87.5693667 C64.5422222,87.6583333 64.3147712,87.7028167 64.092549,87.7028167" id="Fill-226" fill="#403F3E"></path>
                <path d="M67.3963399,88.1654433 C66.9649673,88.1654433 66.5309804,88.0058267 66.1937255,87.6839767 C65.4930719,87.02196 65.4616993,85.9124933 66.1257516,85.2138433 L71.3100654,79.7423933 C71.9845752,79.0437433 73.0878431,79.0097267 73.7806536,79.6769767 C74.4839216,80.34161 74.5152941,81.44846 73.8512418,82.14711 L68.6643137,87.61856 C68.3218301,87.9848933 67.8616993,88.1654433 67.3963399,88.1654433" id="Fill-228" fill="#403F3E"></path>
                <path d="M60.9267974,43.3780533 L64.6470588,53.08327 L94.6653595,16.2327533 L60.9267974,43.3780533 Z M64.0928105,58.27997 C64.0013072,58.27997 63.9045752,58.2747367 63.8130719,58.2590367 C63.1986928,58.1596033 62.6810458,57.73832 62.4562092,57.15742 L57.2091503,43.44347 C56.9372549,42.7343533 57.151634,41.92842 57.7398693,41.4521867 L105.528105,3.00027 C106.228758,2.44292 107.235294,2.49787 107.862745,3.13372 C108.495425,3.76957 108.545098,4.77960333 107.980392,5.47302 L98.3986928,17.2349367 C98.330719,17.3160533 98.2575163,17.3919367 98.1764706,17.45997 L65.4470588,57.63627 C65.1124183,58.0470867 64.6104575,58.27997 64.0928105,58.27997 L64.0928105,58.27997 Z" id="Fill-230" fill="#403F3E"></path>
                <path d="M38.8501961,209.835472 C38.6332026,209.835472 38.408366,209.793605 38.1992157,209.707255 C37.5351634,209.442972 37.1037908,208.799272 37.1037908,208.087538 L37.1037908,175.538822 C37.1037908,174.570655 37.8854902,173.788272 38.8501961,173.788272 C39.814902,173.788272 40.5992157,174.570655 40.5992157,175.538822 L40.5992157,203.743872 L167.341699,71.751355 C167.961307,71.0945717 168.988758,71.0186883 169.705098,71.578655 C170.413595,72.1464717 170.575686,73.1617383 170.073725,73.9205717 L119.051503,150.531338 C118.515556,151.342505 117.427974,151.554455 116.630588,151.015422 C115.822745,150.479005 115.608366,149.390472 116.146928,148.592388 L156.295948,88.3122383 L40.1103268,209.299055 C39.7756863,209.649688 39.3155556,209.835472 38.8501961,209.835472" id="Fill-232" fill="#403F3E"></path>
                <path d="M56.6350327,231.652715 C55.7853595,231.652715 55.0376471,231.032565 54.9069281,230.166448 L49.6520261,195.307215 C49.5108497,194.349515 50.1670588,193.459848 51.1239216,193.315932 C52.0572549,193.174632 52.9670588,193.828798 53.1108497,194.781265 L58.3657516,229.640498 C58.5069281,230.600815 57.850719,231.490482 56.8964706,231.631782 C56.8075817,231.647482 56.7213072,231.652715 56.6350327,231.652715" id="Fill-234" fill="#403F3E"></path>
                <path d="M95.2684967,70.0073467 C95.0619608,70.0073467 94.8528105,69.9707133 94.6541176,69.8974467 L63.4776471,58.1721633 C62.5704575,57.8319967 62.1155556,56.8219633 62.4554248,55.9165967 C62.7900654,55.0164633 63.8201307,54.56378 64.7064052,54.8960967 L95.8802614,66.62138 C96.787451,66.9615467 97.2423529,67.97158 96.9024837,68.8717133 C96.6410458,69.5755967 95.9743791,70.0073467 95.2684967,70.0073467" id="Fill-236" fill="#403F3E"></path>
                <path d="M47.336732,117.339707 C46.667451,117.339707 46.0295425,116.95244 45.7393464,116.30089 L39.9824837,103.366707 C39.6922876,102.71254 39.8308497,101.948473 40.3301961,101.435607 L47.8962092,93.65364 C48.5759477,92.9654567 49.6766013,92.94714 50.3667974,93.62224 C51.0596078,94.2921067 51.0726797,95.4015733 50.4007843,96.09499 L43.6635294,103.02654 L48.9315033,114.88004 C49.3262745,115.75924 48.9288889,116.79544 48.0452288,117.18794 C47.8151634,117.28999 47.5720261,117.339707 47.336732,117.339707" id="Fill-238" fill="#403F3E"></path>
                <path d="M93.2415686,247.112505 C93.2128105,247.112505 93.1840523,247.112505 93.1552941,247.109888 C92.4677124,247.075872 91.8690196,246.641505 91.6180392,246.005655 L75.3566013,204.712038 C75.0010458,203.811905 75.4428758,202.796638 76.3396078,202.443388 C77.2337255,202.100605 78.2585621,202.529738 78.6062745,203.429872 L93.450719,241.117722 C97.816732,232.566455 103.40366,221.482255 103.80366,220.275972 C103.80366,219.310422 104.553987,218.721672 105.518693,218.721672 C106.486013,218.721672 107.238954,219.697688 107.238954,220.665855 L107.238954,220.699872 C107.238954,221.238905 107.238954,221.906155 94.7997386,246.162655 C94.4964706,246.746172 93.892549,247.112505 93.2415686,247.112505" id="Fill-240" fill="#403F3E"></path>
            </g>
        </g>
    </g>
</svg>