<?xml version="1.0" encoding="utf-8"?>
<!-- Generator: Adobe Illustrator 24.0.1, SVG Export Plug-In . SVG Version: 6.00 Build 0)  -->
<svg version="1.1" id="Слой_1" xmlns="http://www.w3.org/2000/svg" xmlns:xlink="http://www.w3.org/1999/xlink" x="0px" y="0px"
	 viewBox="0 0 442.5 680.6" style="enable-background:new 0 0 442.5 680.6;" xml:space="preserve">
<style type="text/css">
	.st0{fill-rule:evenodd;clip-rule:evenodd;fill:#d9255e;}
</style>
<title>Apollo Mask</title>
<g id="Слой_2_1_">
	<g id="Слой_1-2">
		<path class="st0" d="M283.5,0c3.4,0.2,3.8,1.5,5.7,3c2.3-0.5,3.1-1.9,4.9-2.3c3.1-0.7,4.7,2,6.4,2.6l6,0.8
			c3.1,1.7,6.4,8.2,6.8,12.5c-0.5,1.6-1,3.3-1.5,4.9l2.2,2.3c3.6,8-1.3,14.1-6,16.6c0,4.4-1.5,6.5-2.3,9.8
			c17.9,8.8,20.8,35,3.4,45.7c0.4,6.9,0.8,13.8,1.1,20.8c1,4.1,4,9.8,3.4,15.1l-3.8,6.8c-1.9,4.5-2.1,12.9-1.1,18.9
			c1.1,6.7,7.4,33.1,5.7,37c-3.6,8-13.3,0.8-18.5,3l-0.4,0.8c1.2,9.9,5,6.7-2.6,14.4v0.8c4.8,2.8,11.3,3.2,15.5,6.4
			c3.3,2.5,3.6,8.8,6.8,10.9l21.1,7.2c3.9-2.6,11.5-6.9,18.5-3.8l6,3.8l10.6,0.4c12.1,3.1,18.7,9.1,24.5,18.5c5.3,0,15.2,1,18.5,3.8
			c0.9,1.9,1.8,3.8,2.6,5.7l8.3,2.3c5.2,2.1,11.7,8.2,13.6,13.6c11.5,32.9-8.1,73-21.5,93.7c-4.3,6.7-9,15.6-16.2,19.3
			c-7.4,3.7-15.9-5.7-22.3-5.3c-4.3,8.1-7.3,18.5-11.3,27.6c-3.3,7.3-8.5,13.3-11,21.9c-1,6.9-2,13.9-3,20.8
			c-4.6,14.4-21.6,44.4-32.5,52.1c-14.7,10.5-30.4,8.1-52.5,12.1c-1.1,4.8,1.1,10.4-1.5,14.7c-3.6,6-19.3,9.4-20.4,11.3
			c-3.7,6.2,1.9,30.8,4.5,33.6c21.7,5.3,63.3,29.3,50.6,61.2c-10.8,27-39.9,29.8-73.3,34.8l-18.1,0.8l-25.3-1.9
			c-24.8-4.4-44.5-10.2-60.4-23c-9.5-7.7-12.9-27.5-6-40.8c9.6-18.7,31.8-27.2,53.3-34.4c2.2-6.7,10.1-22.9,4.5-32.5
			c-13.4-2.9-21.1-11.5-18.1-26.4l-1.1-1.5c-9.5,0-18.9-1.9-26.8-3.8c-12.1-2.9-23-5.6-31.3-12.1c-12.3-9.6-24.8-47.7-31.3-64.6
			c-2.1-5.3-2.1-11-4.9-15.1c-4.7-1.1-12.2,0.5-17-1.5c-18-7.4-35.7-36.2-43.1-54.8c-1.8-4.5-3.4-12.9-2.6-18.9
			C1.9,335.9,6,327.5,11.5,318c6.8-11.5,16.8-21.1,27.6-28.7c6-4.2,16.1-8,20.4-14c-1.1-3.2-5-8-4.2-11.3c1.6-8.9,10.6-8.5,17.8-7.5
			l0.4-0.4c-0.2-2.5-0.9-5.8,0.4-7.6c2.6-3.6,7.9-2.4,12.1-4.5c7.7-4,10-11.4,22.3-10.6c2.3-4.8,5.4-6.7,10.6-8.7
			c0.2-5.5,3.5-6.4,2.6-11.7c-11.3-14.4-5.8-13.9-2.3-30.6c-3.7-3.5-12-12.1-3.8-17.4l6.4-1.5l1.9-12.1l-5.3-7.9
			c-2-5.3-2-8.6-4.9-12.5c1.1-3,2.3-6.1,3.4-9.1c0.7-4.8-2.9-10.8-1.5-17.4c7.9-38.2,27.4-65.5,60.4-78.9
			c9.2-3.7,24.4-10.6,38.2-8.3l15.9,3.4c3.6-4.7,12.3-10.4,18.9-11.7l8.3,0.8l5.3-3l4.9,1.1l6.7-5.3L283.5,0z"/>
	</g>
</g>
</svg>
