<svg xmlns="http://www.w3.org/2000/svg" viewBox="0 0 517.87 383.08">
<defs>
    <style>
      .cls-3 {
        fill: #ba2a5d;
      }
    </style>
  </defs>
  <title>Ресурс 3</title>
  <g class="cls-1">
      <path class="cls-3" d="M517.62,183.69c-1.51-6.65-8.51-10.28-14.74-13.05s-13.22-6.48-14.63-13.15c-.78-3.72.41-7.57.17-11.36,0-.3-.05-.61-.09-.91a28.23,28.23,0,0,1,.09-8.26,11.56,11.56,0,0,0,0-3.85c-1.08-6.89-8.1-12.35-7.31-19.28.76-6.56,7.9-10.08,12-15.24,4.73-6,5.07-15.29.05-21-4.44-5-15.74-6.85-20.35-.76-2.14,2.82-1.6,7.57-2.22,10.93a58.16,58.16,0,0,1-3.75,12.31c-6.82,15.92-20.56,29.07-37.3,34-3.62,1.07-7.41,1.81-10.65,3.75s-5.9,5.44-5.5,9.19c.37,3.45,3.1,6.09,4.83,9.09a17.21,17.21,0,0,1-2.89,20.36c-4.65,4.48-12,6.45-14.59,12.37l0,.06a11.45,11.45,0,0,1-9.59,7c-4.81.38-9.65.58-14.44,1.18-3.25.4-6.58,1-9.34,2.8s-4.86,4.91-4.51,8.18,2.95,5.81,5.64,7.71a38.62,38.62,0,0,0,23,7c5.93-.13,12-1.63,17.7,0s10,6,15.32,8.35c9.9,4.37,22.53.53,28.89-8.23s6.31-21.45.46-30.56A34.75,34.75,0,0,0,441,181a10.55,10.55,0,0,1-5.62-11.26l0-.1c1.49-7.72,9.37-12.56,17-14.44,1.26-.31,2.54-.57,3.82-.79a1.28,1.28,0,0,1,.77.1h0c6.83,3.31,11.68,9.66,15.6,16.16s7.24,13.47,12.28,19.16,12.29,10.08,19.85,9.37S519.3,191.1,517.62,183.69Z"/>
  </g>
</svg>
