<svg xmlns="http://www.w3.org/2000/svg" viewBox="0 0 517.87 383.08">
  <defs>
    <style>
      .cls-3 {
        fill: #ba2a5d;
      }
    </style>
  </defs>
  <title>Ресурс 3</title>
  <g class="cls-1">
    <path class="cls-3" d="M89.78,205.65c-4.44,12,.55,26.31-5.06,37.83-4.91,10.08-16.8,15.07-28,15.5s-22.17-2.79-33.17-4.92c-4.14-.8-8.4-1.45-12.56-.72s-8.22,3.1-10,6.92c-2.48,5.26.05,11.7,4.1,15.88a25.56,25.56,0,0,0,20.54,7.57c9.51-.92,19.4-7.11,27.92-2.79,8.07,4.08,9.81,15.37,17.25,20.51,6.57,4.53,15.55,2.93,23,0,5-2,10.53-5.49,10.75-10.9.17-4-2.64-7.36-4.39-10.93-5-10.21-1-23.14,7.15-31.09s19.47-11.69,30.67-13.58c11.74-2,25-2.79,33-11.64,3.78-4.19,5.55-11.29,1.51-15.24-2.53-2.46-6.44-2.81-10-2.51a37.42,37.42,0,0,0-16.86,5.69c-3.85,2.45-7.39,5.67-11.81,6.78-8.15,2-13.76-5.65-7.64-11.83,4.55-4.59,9.44-7.69,4-14.71C119.32,177.59,94.36,193.21,89.78,205.65Z"/>
  </g>
</svg>
