<svg xmlns="http://www.w3.org/2000/svg" viewBox="0 0 517.87 383.08">
<defs>
    <style>
      .cls-3 {
        fill: #ba2a5d;
      }
    </style>
  </defs>
  <title>Ресурс 3</title>
  <g class="cls-1">
      <path class="cls-3" d="M276.62,54.87c-5.48-.7-12.09-1-15.38,3.46-2.25,3-2,7.18-3.08,10.8-2.36,8-11.13,12.73-19.49,13.33s-16.57-2-24.73-3.86-17-3.08-24.73.1a24.1,24.1,0,0,0-14.28,25c1,7.31,7.2,14.64,14.53,13.71,8-1,12.31-10.69,20-13.07,8.51-2.6,17.51,5.7,18.06,14.59s-5.16,17.11-12.2,22.56c-4,3.13-8.57,5.62-12.22,9.18s-6.38,8.63-5.45,13.65c1.52,8.15,12.3,11.74,20,8.57s12.54-10.74,16.08-18.25c2.71-5.72,5.14-11.92,10-15.91,6.2-5,14.81-5.39,22.7-6.63,5.45-.85,11-2.3,15.4-5.6s7.54-8.79,6.75-14.25c-1.38-9.53-13.43-15.29-13.54-24.91-.08-6.71,6.1-12.07,12.57-13.82s13.32-.91,20-.94,13.95-1.24,18.61-6.07c8.84-9.15,1.18-31.82-13.24-27.26-5,1.59-8.32,8.08-12.31,11.28C293.57,56.27,285.36,56,276.62,54.87Z"/>
  </g>
</svg>
