<svg xmlns="http://www.w3.org/2000/svg" width="428" height="219" viewBox="0 0 428 219"><defs><clipPath id="mozea"><path d="M0 170.02h51.868v48.253H0z"/></clipPath><clipPath id="mozeb"><path d="M384.27 178.81h43.158v39.358H384.27z"/></clipPath></defs><g><g><g><g/><g clip-path="url(#mozea)"><path fill="#fff" d="M0 218.274V170.02h40.828c3.755 0 6.473.746 8.156 2.237 1.683 1.492 2.523 3.865 2.523 7.121v5.89c0 2.313-.706 4.16-2.118 5.546-1.412 1.385-3.44 2.245-6.083 2.58 2.733.364 4.844 1.354 6.331 2.967 1.488 1.613 2.23 3.713 2.23 6.3v6.163c0 3.195-1.156 5.57-3.47 7.121-2.313 1.553-5.828 2.329-10.544 2.329zm10.905-40.402v11.514h25.28c1.923 0 3.252-.259 3.989-.777.736-.518 1.104-1.417 1.104-2.695v-4.57c0-1.249-.368-2.14-1.104-2.673-.737-.532-2.066-.8-3.988-.8zm0 19.447v12.28h25.28c2.104 0 3.523-.32 4.26-.958.735-.639 1.103-1.765 1.103-3.379v-3.65c0-1.614-.368-2.733-1.103-3.357-.737-.623-2.156-.936-4.26-.936z"/></g></g><g><path fill="#fff" d="M68 217.16v-39h42.497v6.89H77.744v8.512h19.075v6.71H77.744v9.592H111v7.296z"/></g><g><path fill="#fff" d="M122 217.16v-39h42.497v6.89h-32.753v8.512h19.075v6.71h-19.075v9.592H165v7.296z"/></g><g><path fill="#fff" d="M229.128 178.742H194.19v30.38h34.937v-10.671H210.84v-8.174H240v16.53c0 4.39-.819 7.38-2.456 8.968-1.638 1.59-4.793 2.385-9.463 2.385h-33.162c-4.671 0-7.825-.795-9.463-2.385-1.637-1.589-2.456-4.578-2.456-8.968v-25.294c0-4.36.819-7.341 2.456-8.947 1.638-1.604 4.792-2.406 9.463-2.406h33.162c4.61 0 7.748.788 9.416 2.36 1.668 1.575 2.503 4.422 2.503 8.538v1.09l-10.872 1.953z"/></g><g><path fill="#fff" d="M252 217.16l23.23-39h9.177l23.593 39h-10.711l-4.927-8.557h-25.9l-4.926 8.557zm18.53-15.672h17.945l-9.13-16.258z"/></g><g><path fill="#fff" d="M316 217.16v-39h7.701l19.322 23.147 19.23-23.147H370v39h-8.932v-26.841l-17.635 22.158h-1.868L323.7 190.949v26.211z"/></g><g><g/><g clip-path="url(#mozeb)"><path fill="#fff" d="M384.27 218.168V178.81h42.653v6.953H394.05v8.59h19.145v6.772H394.05v9.68h33.379v7.363z"/></g></g><g><path fill="#ffc500" d="M171 51.16v46l40 23 40-23v-46l-40-23z"/></g><g><path fill="#fff" d="M263.336 57.471V44.723l-45.505-26.28V65.6l-10.274 9.059 10.274 9.06v47.158l45.505-26.28V80.992h-20.51v4.251L230.826 74.66l12.002-10.583v4.25H276v43.583l-64.5 37.25-64.5-37.25v-74.5L211.5.16 276 37.41v20.061zM159.663 68.337h45.505V18.442l-45.505 26.286zm0 36.265l45.505 26.286V80.994h-45.505z"/></g></g></g></svg>