<?xml version="1.0" encoding="UTF-8"?>
<svg width="428px" height="219px" viewBox="0 0 428 219" version="1.1" xmlns="http://www.w3.org/2000/svg" xmlns:xlink="http://www.w3.org/1999/xlink">
    <!-- Generator: Sketch 63.1 (92452) - https://sketch.com -->
    <title>Group 21</title>
    <desc>Created with Sketch.</desc>
    <defs>
        <polygon id="path-1" points="8.81355932e-05 0.853660714 51.8678847 0.853660714 51.8678847 49.1071429 8.81355932e-05 49.1071429"></polygon>
        <polygon id="path-3" points="0.274416327 0.6416 43.4324898 0.6416 43.4324898 39.9998222 0.274416327 39.9998222"></polygon>
    </defs>
    <g id="Кейс" stroke="none" stroke-width="1" fill="none" fill-rule="evenodd">
        <g id="Bee-games-XL" transform="translate(-882.000000, -1686.000000)">
            <g id="Group-21" transform="translate(882.000000, 1686.000000)">
                <g id="Group-3" transform="translate(0.000000, 169.163900)">
                    <mask id="mask-2" fill="white">
                        <use xlink:href="#path-1"></use>
                    </mask>
                    <g id="Clip-2"></g>
                    <path d="M36.1859186,28.1527679 L10.9051051,28.1527679 L10.9051051,40.433125 L36.1859186,40.433125 C38.2888339,40.433125 39.7078169,40.1134821 40.4446305,39.4750893 C41.1805627,38.8358036 41.5480881,37.7099107 41.5480881,36.095625 L41.5480881,32.4447321 C41.5480881,30.8313393 41.1805627,29.7125893 40.4446305,29.0884821 C39.7078169,28.4652679 38.2888339,28.1527679 36.1859186,28.1527679 L36.1859186,28.1527679 Z M36.1859186,8.70544643 L10.9051051,8.70544643 L10.9051051,20.2099107 L36.1859186,20.2099107 C38.1081559,20.2099107 39.4372407,19.9509821 40.1740542,19.433125 C40.9099864,18.9161607 41.2783932,18.0179464 41.2783932,16.7402679 L41.2783932,12.1741964 C41.2783932,10.926875 40.9099864,10.0366964 40.1740542,9.50366071 C39.4372407,8.97241071 38.1081559,8.70544643 36.1859186,8.70544643 L36.1859186,8.70544643 Z M8.81355932e-05,49.1072321 L8.81355932e-05,0.853660714 L40.8280203,0.853660714 C44.5825966,0.853660714 47.3015797,1.59919643 48.9840881,3.09026786 C50.6665966,4.58223214 51.5074102,6.95544643 51.5074102,10.2116964 L51.5074102,16.1009821 C51.5074102,18.414375 50.8014441,20.2625893 49.3895119,21.6474107 C47.9766983,23.033125 45.9495797,23.8929464 43.3063932,24.226875 C46.039478,24.5920536 48.1503254,25.5813393 49.6371729,27.1947321 C51.1249017,28.8072321 51.8678847,30.908125 51.8678847,33.4938393 L51.8678847,39.6572321 C51.8678847,42.8527679 50.7115458,45.226875 48.3979864,46.7786607 C46.0844271,48.3313393 42.5695797,49.1072321 37.8534441,49.1072321 L8.81355932e-05,49.1072321 Z" id="Fill-1" fill="#FFFFFF" mask="url(#mask-2)"></path>
                </g>
                <polygon id="Fill-4" fill="#FFFFFF" points="68 217.1639 68 178.1639 110.497191 178.1639 110.497191 185.053507 77.7439349 185.053507 77.7439349 193.565545 96.8193583 193.565545 96.8193583 200.275468 77.7439349 200.275468 77.7439349 209.868246 111 209.868246 111 217.1639"></polygon>
                <polygon id="Fill-6" fill="#FFFFFF" points="122 217.1639 122 178.1639 164.497191 178.1639 164.497191 185.053507 131.743935 185.053507 131.743935 193.565545 150.819358 193.565545 150.819358 200.275468 131.743935 200.275468 131.743935 209.868246 165 209.868246 165 217.1639"></polygon>
                <path d="M229.127774,178.746241 L194.190741,178.746241 L194.190741,209.12682 L229.127774,209.12682 L229.127774,198.454626 L210.839837,198.454626 L210.839837,190.280842 L240,190.280842 L240,206.811373 C240,211.200685 239.181469,214.190249 237.543518,215.779177 C235.905566,217.368993 232.750663,218.1639 228.080589,218.1639 L194.918522,218.1639 C190.247557,218.1639 187.093544,217.368993 185.456482,215.779177 C183.818531,214.190249 183,211.200685 183,206.811373 L183,181.516428 C183,177.157313 183.818531,174.175743 185.456482,172.56994 C187.093544,170.965914 190.247557,170.1639 194.918522,170.1639 L228.080589,170.1639 C232.691053,170.1639 235.829051,170.951703 237.497253,172.524644 C239.165454,174.09936 240,176.94593 240,181.061687 L240,182.152354 L229.127774,184.104541 L229.127774,178.746241 Z" id="Fill-8" fill="#FFFFFF"></path>
                <path d="M270.530829,201.491851 L288.474696,201.491851 L279.344972,185.234071 L270.530829,201.491851 Z M252,217.1639 L275.230939,178.1639 L284.40663,178.1639 L308,217.1639 L297.28884,217.1639 L292.361547,208.606942 L266.462762,208.606942 L261.536354,217.1639 L252,217.1639 Z" id="Fill-10" fill="#FFFFFF"></path>
                <polygon id="Fill-12" fill="#FFFFFF" points="316 217.1639 316 178.1639 323.701299 178.1639 343.022727 201.311287 362.252356 178.1639 370 178.1639 370 217.1639 361.067884 217.1639 361.067884 190.322444 343.432702 212.480694 341.56464 212.480694 323.701299 190.953096 323.701299 217.1639"></polygon>
                <g id="Group-16" transform="translate(384.000000, 178.163900)">
                    <mask id="mask-4" fill="white">
                        <use xlink:href="#path-3"></use>
                    </mask>
                    <g id="Clip-15"></g>
                    <polygon id="Fill-14" fill="#FFFFFF" mask="url(#mask-4)" points="0.274416327 39.9998222 0.274416327 0.6416 42.9274776 0.6416 42.9274776 7.59448889 10.0540898 7.59448889 10.0540898 16.1847111 29.1994776 16.1847111 29.1994776 22.9562667 10.0540898 22.9562667 10.0540898 32.6371556 43.4330286 32.6371556 43.4330286 39.9998222"></polygon>
                </g>
                <polygon id="Fill-17" fill="#FFC500" points="171 51.1636781 171 97.1641227 211 120.1639 251 97.1641227 251 51.1636781 211 28.1639004"></polygon>
                <path d="M159.662876,80.9976965 L205.168118,80.9976965 L205.168118,130.881556 L159.662876,104.600963 L159.662876,80.9976965 Z M159.662876,44.7268383 L205.168118,18.4462452 L205.168118,68.3309921 L159.662876,68.3309921 L159.662876,44.7268383 Z M276,57.4752118 L276,37.4139004 L211.5,0.163900415 L147,37.4139004 L147,111.9139 L211.5,149.1639 L276,111.9139 L276,68.3301044 L242.826619,68.3301044 L242.826619,64.0806465 L230.824885,74.6639004 L242.826619,85.248042 L242.826619,80.9968088 L263.336236,80.9968088 L263.336236,104.600963 L217.830994,130.881556 L217.830994,83.7238475 L207.557106,74.6639004 L217.830994,65.604841 L217.830994,18.4462452 L263.336236,44.7268383 L263.336236,57.4752118 L276,57.4752118 Z" id="Fill-19" fill="#FFFFFF"></path>
            </g>
        </g>
    </g>
</svg>