<svg xmlns="http://www.w3.org/2000/svg" width="44" height="54" viewBox="0 0 44 54"><g><g><g><path fill="#d9255e" d="M28.92 45.682H15.375L12.371 34.83l8.753-16.528v10.614a3.44 3.44 0 1 0 1.826 0V18.302l8.757 16.536zm-1.64 6.393H17.141l-1.257-4.566h12.565zM22.042 30.62a1.613 1.613 0 1 1 0 3.226 1.613 1.613 0 0 1 0-3.226zm.802-16.422a.913.913 0 0 0-1.614 0l-10.644 20.11a.887.887 0 0 0-.073.66l2.969 10.715h-1.02a.913.913 0 1 0 0 1.827h1.524l1.578 5.713a.923.923 0 0 0 .88.68H27.99a.923.923 0 0 0 .885-.697l1.461-5.696h1.275a.913.913 0 1 0 0-1.827h-.805l2.76-10.732a.887.887 0 0 0-.078-.644z"/></g><g><path fill="#d9255e" d="M1.836 19.878h5.032V24.9H1.836zM22.044 1.84a2.917 2.917 0 0 1 2.919 2.914 2.917 2.917 0 0 1-2.92 2.914 2.917 2.917 0 0 1-2.918-2.914 2.92 2.92 0 0 1 2.919-2.914zM42.25 24.9H37.22v-5.022h5.032zM.95 26.729h6.842a.87.87 0 0 0 .896-.88v-6.84c0-.505-.392-.957-.896-.957H5.87A16.7 16.7 0 0 1 17.56 6.274a4.733 4.733 0 0 0 8.966-.005 16.694 16.694 0 0 1 11.69 11.782h-1.92c-.504 0-.896.452-.896.956v6.841a.87.87 0 0 0 .896.88h6.841a.908.908 0 0 0 .94-.88v-6.84a.973.973 0 0 0-.94-.957H40.1A18.533 18.533 0 0 0 26.776 4.45a4.741 4.741 0 0 0-9.464-.006A18.556 18.556 0 0 0 3.988 18.051H.949a.973.973 0 0 0-.939.956v6.841a.907.907 0 0 0 .94.88z"/></g></g></g></svg>