<svg xmlns="http://www.w3.org/2000/svg" width="45" height="67" viewBox="0 0 45 67"><g><g><g><path fill="#fff" d="M19.24 34.068l3.144-8.043c.112-.335.112-.67-.113-1.006-.224-.223-.56-.447-.898-.447H17.67l6.623-12.289h4.153l-4.714 8.38a1.01 1.01 0 0 0 0 1.116c.224.336.56.559 1.01.559h4.377zM31.479 20.1H26.65l4.716-8.375a1.01 1.01 0 0 0 0-1.117c-.225-.335-.561-.558-1.01-.558h-6.737c-.45 0-.786.223-1.01.558l-7.86 14.517a1.01 1.01 0 0 0 0 1.117c.224.335.56.558 1.01.558h4.042l-5.053 13.065c-.224.447 0 1.117.45 1.34.224.112.336.112.561.112.337 0 .674-.112.898-.335l15.72-18.984c.224-.335.336-.781.112-1.228-.225-.447-.562-.67-1.01-.67z"/></g><g><path fill="#fff" d="M36.313 37.743c-2.807 2.792-4.828 5.919-5.726 9.157H14.418c-.898-3.238-2.92-6.365-5.726-9.157-4.716-4.466-6.962-10.72-6.288-17.196 1.123-9.492 8.758-17.085 18.302-18.202.561 0 1.123-.111 1.796-.111.674 0 1.236.111 1.797.111 9.544 1.117 17.292 8.71 18.302 18.202.674 6.476-1.572 12.73-6.288 17.196zM25.986 63.88c-.45.561-1.123.898-1.798.898h-3.371c-.674 0-1.349-.337-1.798-.898l-1.012-1.346h8.99zm1.01-12.512c-.674 0-1.124.446-1.124 1.116 0 .67.45 1.117 1.124 1.117h3.37v2.233h-6.74c-.674 0-1.123.447-1.123 1.117 0 .67.449 1.116 1.123 1.116h6.74V60.3H14.64v-2.233h3.37c.674 0 1.123-.447 1.123-1.117 0-.67-.45-1.117-1.123-1.117h-3.37V53.6h6.74c.673 0 1.123-.447 1.123-1.117 0-.67-.45-1.116-1.124-1.116h-6.74v-2.234h15.727v2.234zm17.85-31.044C43.724 9.715 35.19 1.228 24.636.112 23.962.112 23.289 0 22.503 0s-1.46.112-2.134.112C9.815 1.34 1.282 9.827.16 20.323A22.856 22.856 0 0 0 7.12 39.418c2.807 2.68 4.604 5.807 5.277 8.822v13.177c0 .67.45 1.116 1.123 1.116h1.684l2.022 2.68C18.124 66.33 19.359 67 20.818 67h3.369c1.46 0 2.807-.67 3.593-1.787l2.02-2.68h1.685c.674 0 1.123-.446 1.123-1.116V48.24c.561-3.015 2.47-6.142 5.277-8.822 5.165-5.025 7.747-11.948 6.961-19.095z"/></g></g></g></svg>