<svg xmlns="http://www.w3.org/2000/svg" width="67" height="39" viewBox="0 0 67 39"><g><g><g><path fill="#fff" d="M20.936 13.953c.77 0 1.396-.62 1.396-1.386 0-.766-.625-1.387-1.396-1.387-.771 0-1.396.62-1.396 1.387 0 .766.625 1.386 1.396 1.386z"/></g><g><path fill="#fff" d="M46.066 13.953c.77 0 1.396-.62 1.396-1.386 0-.766-.625-1.387-1.396-1.387-.771 0-1.396.62-1.396 1.387 0 .766.625 1.386 1.396 1.386z"/></g><g><path fill="#fff" d="M64.208 27.833a2.787 2.787 0 0 1-2.791 2.776H5.583a2.787 2.787 0 0 1-2.791-2.776V13.956a2.787 2.787 0 0 1 2.791-2.776 2.787 2.787 0 0 1 2.792 2.776v9.714c0 .767.624 1.388 1.396 1.388h47.458c.772 0 1.396-.62 1.396-1.388v-9.714a2.787 2.787 0 0 1 2.792-2.776 2.787 2.787 0 0 1 2.791 2.776zm-8.375 8.311v-2.783h5.594v2.783zm-50.25 0v-2.783h5.594v2.783zM8.375 5.638a2.787 2.787 0 0 1 2.79-2.775h18.139a2.787 2.787 0 0 1 2.79 2.775v16.653H11.165v-8.327c0-2.045-1.13-3.816-2.79-4.779zm29.313-2.775h18.145a2.787 2.787 0 0 1 2.792 2.775v3.547c-1.66.963-2.792 2.734-2.792 4.78v8.326H34.896V5.638a2.787 2.787 0 0 1 2.791-2.775zM61.416 8.41V5.637c0-3.06-2.504-5.547-5.584-5.547H37.688c-1.676 0-3.164.752-4.188 1.916C32.476.842 30.988.09 29.312.09H11.168c-3.08 0-5.584 2.488-5.584 5.547V8.41C2.504 8.41 0 10.898 0 13.957v13.866c0 2.045 1.13 3.814 2.792 4.776v4.931a1.39 1.39 0 0 0 1.396 1.387h8.375a1.39 1.39 0 0 0 1.395-1.387v-4.16h39.084v4.16a1.39 1.39 0 0 0 1.396 1.387h8.375a1.39 1.39 0 0 0 1.396-1.387v-4.931c1.66-.962 2.791-2.731 2.791-4.776V13.957c0-3.06-2.504-5.547-5.583-5.547z"/></g></g></g></svg>