<svg xmlns="http://www.w3.org/2000/svg" width="58" height="67" viewBox="0 0 58 67"><g><g><g><path fill="#fff" d="M45.07 46.467v-2.162h10.716l.003 2.162zm-.007-12.968H24.707v31.339H9.708V21.612h14.999v5.403h25.712c1.772 0 3.214 1.454 3.214 3.242v11.887h-6.428V35.66a2.154 2.154 0 0 0-2.142-2.161zM11.85 9.282c0-.507.34-.939.83-1.052L38.665 2.18a.861.861 0 0 1 1.047.84v2.193c0 .34-.202.65-.512.788L22.567 13.34v6.11H11.851zm43.935 32.862V30.257c0-2.98-2.403-5.403-5.357-5.403H26.853V19.45H24.71v-4.696L40.06 7.98a3.018 3.018 0 0 0 1.796-2.766V3.02c0-1.892-1.792-3.377-3.67-2.945L12.2 6.124a3.22 3.22 0 0 0-2.491 3.158V19.45H7.565v45.388H4.35v2.16h25.718v-2.16h-3.215V35.66h18.218v6.484c-1.182 0-2.144.97-2.144 2.161v2.162c0 1.191.962 2.16 2.144 2.16h10.715c1.182 0 2.144-.969 2.144-2.16v-2.162a2.154 2.154 0 0 0-2.144-2.161z"/></g><g><path fill="#fff" d="M11.85 23.77h2.143v2.161H11.85z"/></g><g><path fill="#fff" d="M11.85 28.1h2.143v34.58H11.85z"/></g><g><path fill="#fff" d="M47.213 61.53c0-.5.117-1.002.339-1.45l2.876-5.797 2.876 5.797c.222.45.339.95.339 1.511 0 1.787-1.443 3.241-3.215 3.241-1.773 0-3.215-1.454-3.215-3.301zm3.215-12.08l-4.793 9.666a5.553 5.553 0 0 0-.565 2.475c0 2.98 2.403 5.404 5.358 5.404 2.954 0 5.358-2.424 5.358-5.464 0-.833-.196-1.67-.565-2.416z"/></g><g><path fill="#fff" d="M.07 64.84h2.143v2.161H.07z"/></g><g><path fill="#fff" d="M32.21 64.84h2.143v2.161H32.21z"/></g></g></g></svg>