<svg xmlns="http://www.w3.org/2000/svg" width="54" height="53" viewBox="0 0 54 53"><g><g><g><path fill="#b49060" d="M11.53 37.16c0-.922.748-1.67 1.67-1.67h27.59c.922 0 1.67.748 1.67 1.67v5.53a1.67 1.67 0 0 1-1.67 1.67H13.2a1.67 1.67 0 0 1-1.67-1.67z"/></g><g><path fill="#b49060" d="M11.53 23.68c0-.922.748-1.67 1.67-1.67h27.59c.922 0 1.67.748 1.67 1.67v5.53a1.67 1.67 0 0 1-1.67 1.67H13.2a1.67 1.67 0 0 1-1.67-1.67z"/></g><g><path fill="#b49060" d="M27 18c-.32-.55-.52-1.09-.77-1.63V1.45c.26-.54.45-1.08.76-1.62.31.54.5 1.08.76 1.62v14.87c-.23.54-.43 1.08-.75 1.68z"/></g><g><path fill="#b49060" d="M10.21 31.77h33.58v2.69H10.21z"/></g><g><path fill="#b49060" d="M32.16 21.24a5.48 5.48 0 0 0 .4-2 5.56 5.56 0 0 0-11.12 0 5.48 5.48 0 0 0 .4 2z"/></g><g><path fill="#b49060" d="M20.595 21a14.14 14.14 0 0 1-4.19-5.8l1.92 2c.68.69 1.34 1.4 2 2.06a6.16 6.16 0 0 1 2.35-4.71 4.36 4.36 0 0 0-1.16-.92c-3.11-1.66-6.28-3.21-9.33-5.09-1.12 6.56 3.65 13.27 8.41 12.46z"/></g><g><path fill="#b49060" d="M12.073 50.19c-.96.031-1.923.008-2.88-.07a12.26 12.26 0 0 1-2.93-.54 5.78 5.78 0 0 1-1.49-.71 3.51 3.51 0 0 1-.7-.65 2.3 2.3 0 0 1-.3-.48 1.43 1.43 0 0 1-.12-.31 1.72 1.72 0 0 1 0-.18 1.28 1.28 0 0 1 0-.28l2 .12a.11.11 0 0 1 0-.05v.08a.47.47 0 0 0 0 .09c.065.137.157.259.27.36a4 4 0 0 0 1 .69c.799.41 1.645.723 2.52.93a24.62 24.62 0 0 0 2.74.56c.93.15 1.87.24 2.82.34-1-.03-2 .06-2.93.07zm-11.3-5a.48.48 0 0 0-.48.53 10.54 10.54 0 0 0 .71 3.17 7.5 7.5 0 0 0 5.8 2.75h-.15V53h40.7v-1.35a9.52 9.52 0 0 0 5.56-2.15c.6-.52.65-2.71.8-3.76a.48.48 0 0 0-.48-.55z"/></g></g></g></svg>