<svg xmlns="http://www.w3.org/2000/svg" width="512" height="226" viewBox="0 0 512 226"><g><g><g><path fill="red" d="M186.151 58.28c.22.414.317.853.268 1.316v64.308c-.024 7.286-5.945 13.207-13.231 13.232-7.14 0-12.964-5.824-12.964-13.232V57.232c0-14.816-12.184-26.732-27-26.732s-27 11.916-27 26.732v66.672c0 7.408-5.824 13.232-12.964 13.232-7.286-.025-13.208-5.946-13.232-13.232V57.208c.024-14.719-11.868-26.708-26.61-26.732h-.122c-14.816 0-27 11.916-27 26.732v66.671c0 7.408-5.824 13.232-12.964 13.232-7.237.073-13.159-5.75-13.232-12.988V57.208C.1 28.112 23.908 4.28 53.296 4.28c15.888 0 30.168 6.872 39.964 18.252 9.796-11.38 24.076-18.252 39.964-18.252 29.363 0 53.195 23.808 53.195 52.928-.024.536-.024.804-.268 1.072z"/></g><g opacity=".9"><g opacity=".9"><path fill="#39b54a" d="M297.536 66.658c.024-22.2 18.008-40.208 40.207-40.208 22.224-.024 40.232 17.984 40.257 40.208 0 21.98-17.984 40.232-40.232 40.232-22.248 0-40.232-18.276-40.232-40.232zm40.232 66.428c36.796 0 66.428-29.9 66.428-66.428v-.244C404.122 29.79 374.393.157 337.768.23c-36.528 0-66.428 29.656-66.428 66.428 0 36.504 29.9 66.403 66.428 66.428z"/></g></g><g opacity=".9"><g opacity=".9"><path fill="#fbb03b" d="M164.61 66.908C164.61 30.136 194.242.48 230.77.48a66.86 66.86 0 0 1 57.68 33.068c3.703 6.36 1.315 14.28-4.752 17.983-6.36 3.436-14.28 1.316-17.984-4.751a40.152 40.152 0 0 0-34.92-20.104c-21.956 0-40.232 17.984-40.232 40.232 0 21.956 18.252 40.232 40.232 40.232 13.768 0 26.464-6.872 33.872-18.52 3.972-6.092 12.184-7.676 18.252-3.972 6.092 3.972 7.676 12.184 3.704 18.252-12.184 19.056-33.068 30.436-55.828 30.436-36.528 0-66.184-29.9-66.184-66.428z"/></g></g><g opacity=".9"><g opacity=".9"><path fill="#f0f" d="M445.349 26.426c15.886 0 32.82 8.48 38.375 27h-76.458c5.555-15.62 20.37-27 38.083-27zm.03-26.196h-.245c-36.625.073-66.257 29.802-66.184 66.428 0 36.528 29.656 66.428 66.428 66.428 9.772 0 23.272.268 40.744-11.38 6.092-3.972 9.528-10.869 6.36-17.472-3.192-6.36-11.38-10.064-17.472-6.092-12.696 8.187-23.54 8.723-29.632 8.723-17.74 0-32.556-11.355-38.112-27.243h91.284c7.407 0 13.231-5.824 13.231-12.964 0-43.156-34.383-66.428-66.403-66.428z"/></g></g><g opacity=".9"><g opacity=".9"><path fill="#29abe2" d="M458.61 13.223c-.025 7.286-5.946 13.207-13.232 13.232-22.2-.025-40.208 17.983-40.232 40.183v53.244c0 7.14-5.824 13.232-12.964 13.232-7.286-.024-13.208-5.946-13.232-13.232V66.638c0-36.772 29.9-66.428 66.428-66.428 7.408.024 13.232 5.848 13.232 13.013z"/></g></g><g><path d="M29.847 224.831v-31.264h10.332c20.518 0 20.518 31.264 0 31.264zm-.707-31.971v32.678h11.039c21.468 0 21.468-32.678 0-32.678z"/></g><g><path d="M76.835 224.831h17.4v.707H76.08V192.86h18.057v.707H76.835v15.23h16.912v.755H76.835v15.28z"/></g><g><path d="M138.919 192.86h.804l-13.134 33.19h-.805l-13.134-33.19h.804l12.72 32.264z"/></g><g><path d="M159.345 224.831h17.4v.707H158.59V192.86h18.057v.707h-17.302v15.23h16.912v.755h-16.912z"/></g><g><path d="M197.355 224.782h17.57v.756H196.6V192.86h.755v31.922z"/></g><g><path d="M257.71 220.471l-.34.342c-6.237 6.043-16.176 5.897-22.217-.342-6.237-6.238-6.237-16.375 0-22.613l.34-.341c6.237-6.044 16.176-5.898 22.218.34 6.163 6.263 6.163 16.327 0 22.614zm-23.092.56l.195.196c6.53 6.409 16.985 6.311 23.393-.195 6.531-6.555 6.531-17.18 0-23.735a16.594 16.594 0 0 0-11.818-4.947c-4.435-.024-8.675 1.78-11.77 4.947-6.53 6.555-6.53 17.155 0 23.735z"/></g><g><path d="M283.545 212.392v-18.827h10.57c12.154 0 12.154 18.827 0 18.827zm-.73-19.582l-.025 32.727h.755v-12.428h10.576c13.086 0 13.086-20.299 0-20.299z"/></g><g><path d="M324.317 225.537h-.707V192.81h.755l13.55 20.055 13.597-20.055h.755v32.727h-.707v-31.655l-13.33 19.812h-.608l-13.33-19.812.025 31.655z"/></g><g><path d="M373.885 224.831h17.4v.707H373.13V192.86h18.057v.707h-17.302v15.23h16.912v.755h-16.912z"/></g><g><path d="M411.14 225.545V192.77l.658.049 21.736 31.41v-31.41h.707v32.726h-.755l-21.59-31.24v31.24z"/></g><g><path d="M464.627 225.683v-32.118H453.32v-.755h23.32v.755h-11.306v32.118z"/></g></g></g></svg>