<svg xmlns="http://www.w3.org/2000/svg" width="47" height="53" viewBox="0 0 47 53"><g><g><g><path fill="#b49060" d="M35.88 21.54H13.27a1.25 1.25 0 1 1 0-2.5h22.61a1.25 1.25 0 1 1 0 2.5z"/></g><g><path fill="#b49060" d="M28.211 35.33a.86.86 0 0 1-.22 0 1.23 1.23 0 0 1-1-1.44l5.58-32.1 13.58 4.1a1.25 1.25 0 1 1-.72 2.39L34.551 5l-5.11 29.3a1.24 1.24 0 0 1-1.23 1.03z"/></g><g><path fill="#b49060" d="M.56 16.84l6.8.35L6.25 3.83.56 16.84z"/></g><g><path fill="#b49060" d="M14.54 13.89L6.83 2.92l1.66 14.1 6.05-3.13z"/></g><g><path fill="#b49060" d="M22.49.08L8.44 2.09l12.58 4.64L22.49.08z"/></g><g><path fill="#b49060" d="M16.84 11.76h-1.75l.82 1z"/></g><g><path fill="#b49060" d="M20.54 7.77L7.4 2.4l8.51 10.36 4.63-4.99z"/></g><g><path fill="#b49060" d="M6.154 2.724a1 1 0 0 1-.71-.29l-.78-.78a1.004 1.004 0 0 1 1.42-1.42l.78.77a1 1 0 0 1 0 1.42 1 1 0 0 1-.71.3z"/></g><g><path fill="#b49060" d="M19.11 32.32a1.99 1.99 0 1 0 0-3.98 1.99 1.99 0 0 0 0 3.98z"/></g><g><path fill="#b49060" d="M25.06 26.67a1.47 1.47 0 1 0 0-2.94 1.47 1.47 0 0 0 0 2.94z"/></g><g><path fill="#b49060" d="M23.19 45.09a1.64 1.64 0 1 1 0-3.28 1.64 1.64 0 0 1 0 3.28zm12.87-33.33H18.21l-1.57 1.68-.68.74h18.22c.8 0 1.13.07 1.06 1.05-.33 4.13-.77 14.7-1.2 18.82H14.52c-.35-3.44-.68-13.33-1.08-16.76-.08-.7-.15-1.23-.16-1.65L11 16.82v.4c.64 6.23 1.27 18.91 1.93 25.14.33 3.11.31 6.25.75 9.36.12.83.53 1.26 1.35 1.26h18.41a1.18 1.18 0 0 0 1.3-1.2L35 50c.47-5.12.92-10.24 1.41-15.36.46-4.79.95-16 1.46-20.81.13-1.56-.26-2.07-1.81-2.07z"/></g></g></g></svg>