<svg xmlns="http://www.w3.org/2000/svg" width="46" height="54" viewBox="0 0 46 54"><g><g><g><path fill="#b49060" d="M19.73 50.584c.514.145 1.01.348 1.48.603a25.386 25.386 0 0 1-8.45.182c0-.403.28-.363.45-.413 1.1-.412 2.225-.749 3.37-1.006 1.07-.251 2.07.393 3.13.594zM13.78 29.22a16.76 16.76 0 0 0-1-3.47h2.46c-.2 1.41-.51 5.32 2.45 5.69a4.94 4.94 0 0 1-2.96-.44 2.05 2.05 0 0 1-.95-1.78zM3.38 15.79h27.01c.73 0 1 .2.89.92 0 .47-.11.94-.19 1.39H3.32c-.2 0-.46 0-.62.07-.083-.59-.13-1.184-.14-1.78-.01-.7.44-.6.82-.6zm28.26-2.3H1.82c-1.16 0-1.57.44-1.56 1.57 0 .7 0 1.41.05 2.11.32 3 1 5.86 3.76 7.62a15 15 0 0 0 5.7 1.92c1.73.29 1.74.26 1.74 2 0 2.87 1 4.24 3.81 5 .44.12.56.27.56.69v12.61a.72.72 0 0 1-.6.82c-2.59.82-5.06 2-7.7 2.64-.454.09-.8.46-.86.92-.113.49.117.994.56 1.23.319.16.654.284 1 .37 4.16 1.25 8.42 1.18 12.67.92a26 26 0 0 0 5.36-1.09 1 1 0 0 0 .77-1.16c0-.48 0-1-.59-1.16-2.63-.63-5.07-1.77-7.62-2.61-.5-.17-.71-.33-.71-.9V34.58a.79.79 0 0 1 .67-.91c2.5-.83 3.78-2.11 3.65-4.79-.09-1.79 0-1.79 1.78-2.1.26 0 .51-.09.76-.15 3.08-.65 5.9-1.69 7.48-4.74a13.73 13.73 0 0 0 1.28-6.15c.02-2-.26-2.25-2.14-2.25z"/></g><g><path fill="#b49060" d="M41.646 11.277a7.27 7.27 0 0 0-1.58-3.64.31.31 0 0 0-.45 0l-3.48 3.49a.3.3 0 0 0 .21.51h5a.3.3 0 0 0 .3-.36z"/></g><g><path fill="#b49060" d="M33.392 10.004v-4.65a.3.3 0 0 0-.35-.3 7.31 7.31 0 0 0-3.3 1.52.3.3 0 0 0 0 .45l3.16 3.16a.3.3 0 0 0 .49-.18z"/></g><g><path fill="#b49060" d="M35.21 10.182l3.44-3.44a.3.3 0 0 0 0-.46A7.34 7.34 0 0 0 35 5.002a.3.3 0 0 0-.33.3v4.7a.3.3 0 0 0 .54.18z"/></g><g><path fill="#b49060" d="M41.346 12.93h-5a.3.3 0 0 0-.21.51l3.48 3.48a.31.31 0 0 0 .45 0 7.31 7.31 0 0 0 1.58-3.64.3.3 0 0 0-.3-.35z"/></g><g><path fill="#b49060" d="M32.003 11.107l-3.16-3.11a.3.3 0 0 0-.46 0 7.23 7.23 0 0 0-1.29 3.26.3.3 0 0 0 .3.34h4.35a.3.3 0 0 0 .26-.49z"/></g><g><path fill="#b49060" d="M34.7 14.338v5.05a.21.21 0 0 0 .22.21 7.34 7.34 0 0 0 3.79-1.4.21.21 0 0 0 0-.31L35 14.198a.2.2 0 0 0-.3.14z"/></g><g><path fill="#b49060" d="M34.37.65H34c-6.246.241-11.189 5.37-11.2 11.62h2.5a9.12 9.12 0 1 1 9.45 9.13 1.13 1.13 0 0 0-.64.23v2c.2.147.442.227.69.23A11.63 11.63 0 0 0 34.37.65z"/></g></g></g></svg>