<?xml version="1.0" encoding="UTF-8"?>
<svg width="168px" height="170px" viewBox="0 0 168 170" version="1.1" xmlns="http://www.w3.org/2000/svg" xmlns:xlink="http://www.w3.org/1999/xlink">
    <!-- Generator: Sketch 63.1 (92452) - https://sketch.com -->
    <title>mi-16</title>
    <desc>Created with Sketch.</desc>
    <g id="Сайт" stroke="none" stroke-width="1" fill="none" fill-rule="evenodd">
        <path d="M156.303082,170 C162.339615,170 167.082605,165.041419 167.082605,159.220477 L167.082605,159.220477 L167.082605,10.8942423 C167.082605,6.15125226 164.064338,2.05503356 159.752529,0.545900362 C155.225129,-0.963232841 150.482139,0.76149082 147.463873,4.4265286 L147.463873,4.4265286 L83.6490975,112.437348 L19.6187316,4.4265286 C16.8160557,0.76149082 11.8574752,-0.963232841 7.54566601,0.545900362 C3.01826641,2.05503356 0,6.15125226 0,10.8942423 L0,10.8942423 L0,159.220477 C0,165.041419 4.95858052,170 10.7795229,170 C16.8160557,170 21.5590458,165.041419 21.5590458,159.220477 L21.5590458,159.220477 L21.5590458,50.3472961 L74.8098888,139.386155 C76.9657933,142.188831 80.1996502,143.697964 83.6490975,143.697964 C87.0985449,143.697964 90.3324017,142.188831 92.2727158,139.386155 L92.2727158,139.386155 L145.307968,50.3472961 L145.307968,159.220477 C145.307968,165.041419 150.482139,170 156.303082,170 Z" id="mi-16" fill="#D9255E" fill-rule="nonzero"></path>
    </g>
</svg>