<?xml version="1.0" encoding="UTF-8"?>
<svg width="196px" height="170px" viewBox="0 0 196 170" version="1.1" xmlns="http://www.w3.org/2000/svg" xmlns:xlink="http://www.w3.org/1999/xlink">
    <!-- Generator: Sketch 63.1 (92452) - https://sketch.com -->
    <title>mi-2</title>
    <desc>Created with Sketch.</desc>
    <g id="Сайт" stroke="none" stroke-width="1" fill="none" fill-rule="evenodd">
        <path d="M63.8674033,170 L63.8674033,157.320442 L43.4392265,155.441989 C41.7173112,155.128913 40.6606814,154.737569 40.269337,154.267956 C39.8779926,153.798343 39.6823204,152.624309 39.6823204,150.745856 L39.6823204,150.745856 L39.6823204,34.7513812 L85.2348066,130.082873 L108.01105,130.082873 L155.207182,34.5165746 L155.207182,150.980663 C155.207182,152.702578 155.01151,153.876611 154.620166,154.502762 C154.228821,155.128913 153.172192,155.520258 151.450276,155.676796 L151.450276,155.676796 L131.961326,157.320442 L131.961326,170 L195.828729,170 L195.828729,157.320442 L180.096685,155.441989 C178.531308,155.128913 177.513812,154.698435 177.044199,154.150552 C176.574586,153.60267 176.339779,152.546041 176.339779,150.980663 L176.339779,150.980663 L176.339779,19.019337 C176.339779,17.2974217 176.535451,16.2016575 176.926796,15.7320442 C177.31814,15.2624309 178.37477,14.8710866 180.096685,14.558011 L180.096685,14.558011 L195.828729,12.679558 L195.828729,0 L150.745856,0 L97.2099448,111.533149 L45.5524862,0 L0,0 L0,12.9143646 L14.7928177,14.558011 C16.514733,14.7145488 17.5713628,15.1058932 17.9627072,15.7320442 C18.3540516,16.3581952 18.5497238,17.5322284 18.5497238,19.2541436 L18.5497238,19.2541436 L18.5497238,150.980663 C18.5497238,152.702578 18.3540516,153.837477 17.9627072,154.385359 C17.5713628,154.933241 16.514733,155.36372 14.7928177,155.676796 L14.7928177,155.676796 L0,157.320442 L0,170 L63.8674033,170 Z" id="mi-2" fill="#D9255E" fill-rule="nonzero"></path>
    </g>
</svg>