<?xml version="1.0" encoding="UTF-8"?>
<svg width="147px" height="170px" viewBox="0 0 147 170" version="1.1" xmlns="http://www.w3.org/2000/svg" xmlns:xlink="http://www.w3.org/1999/xlink">
    <!-- Generator: Sketch 63.1 (92452) - https://sketch.com -->
    <title>mi-30</title>
    <desc>Created with Sketch.</desc>
    <g id="Сайт" stroke="none" stroke-width="1" fill="none" fill-rule="evenodd">
        <path d="M18.25,170 C19.75,170 20.75,169 20.75,167.5 L20.75,49.25 L21.5,49.25 L63.75,142.75 C64.75,145 66,145.75 68.5,145.75 L78.5,145.75 C80.75,145.75 82,145 83,142.75 L125.25,49.25 L126,49.25 L126,167.5 C126,169 127,170 128.5,170 L144.25,170 C145.75,170 146.75,169 146.75,167.5 L146.75,2.5 C146.75,1 145.75,0 144.25,0 L128,0 C126,0 124.75,0.75 124,2.5 L74.25,117 L73.5,117 L22.75,2.5 C22,0.75 20.75,0 18.75,0 L2.5,0 C1,0 0,1 0,2.5 L0,167.5 C0,169 1,170 2.5,170 L18.25,170 Z" id="mi-30" fill="#D9255E" fill-rule="nonzero"></path>
    </g>
</svg>