<?xml version="1.0" encoding="UTF-8"?>
<svg width="164px" height="170px" viewBox="0 0 164 170" version="1.1" xmlns="http://www.w3.org/2000/svg" xmlns:xlink="http://www.w3.org/1999/xlink">
    <!-- Generator: Sketch 63.1 (92452) - https://sketch.com -->
    <title>mi-19</title>
    <desc>Created with Sketch.</desc>
    <g id="Сайт" stroke="none" stroke-width="1" fill="none" fill-rule="evenodd">
        <path d="M18.9465649,170 C20.5038168,170 21.5419847,169.221374 21.5419847,167.40458 L24.1374046,62.0305344 L23.6183206,25.1755725 L24.1374046,25.1755725 L39.4503817,61.7709924 L78.3816794,146.381679 C78.9007634,147.679389 79.9389313,148.198473 81.2366412,148.198473 L81.7557252,148.198473 C83.0534351,148.198473 84.0916031,147.679389 84.610687,146.381679 L123.022901,63.0687023 L139.374046,25.1755725 L139.89313,25.1755725 L139.114504,63.0687023 L141.709924,167.40458 C141.709924,169.221374 142.748092,170 144.305344,170 L160.656489,170 C162.21374,170 163.251908,168.961832 163.251908,167.40458 L159.618321,2.59541985 C159.618321,0.778625954 158.580153,0 157.022901,0 L129.51145,0 C128.21374,0 127.435115,0.519083969 126.656489,2.07633588 L82.0152672,104.076336 L36.5954198,2.07633588 C35.8167939,0.519083969 35.0381679,0 33.740458,0 L6.22900763,0 C4.67175573,0 3.63358779,0.778625954 3.63358779,2.59541985 L0,167.40458 C0,168.961832 1.03816794,170 2.59541985,170 L18.9465649,170 Z" id="mi-19" fill="#D9255E" fill-rule="nonzero"></path>
    </g>
</svg>