<?xml version="1.0" encoding="UTF-8"?>
<svg width="178px" height="170px" viewBox="0 0 178 170" version="1.1" xmlns="http://www.w3.org/2000/svg" xmlns:xlink="http://www.w3.org/1999/xlink">
    <!-- Generator: Sketch 63.1 (92452) - https://sketch.com -->
    <title>mi-1</title>
    <desc>Created with Sketch.</desc>
    <g id="Сайт" stroke="none" stroke-width="1" fill="none" fill-rule="evenodd">
        <path d="M30.8873239,170 L37.8309859,74.943662 C38.7887324,63.6901408 38.0704225,48.3661972 38.0704225,48.3661972 L38.5492958,48.3661972 C38.5492958,48.3661972 44.056338,65.1267606 47.8873239,74.943662 L75.4225352,140.788732 L102.239437,140.788732 L129.774648,74.943662 C133.605634,65.1267606 139.112676,48.6056338 139.112676,48.6056338 L139.591549,48.6056338 C139.591549,48.6056338 138.873239,63.6901408 139.830986,74.943662 L146.774648,170 L177.661972,170 L163.774648,0 L130.971831,0 L97.4507042,84.0422535 C93.6197183,94.0985915 89.0704225,108.943662 89.0704225,108.943662 L88.5915493,108.943662 C88.5915493,108.943662 84.0422535,94.0985915 80.2112676,84.0422535 L46.6901408,0 L13.8873239,0 L0,170 L30.8873239,170 Z" id="mi-1" fill="#D9255E" fill-rule="nonzero"></path>
    </g>
</svg>