<?xml version="1.0" encoding="UTF-8"?>
<svg width="200px" height="170px" viewBox="0 0 200 170" version="1.1" xmlns="http://www.w3.org/2000/svg" xmlns:xlink="http://www.w3.org/1999/xlink">
    <!-- Generator: Sketch 63.1 (92452) - https://sketch.com -->
    <title>mi-12</title>
    <desc>Created with Sketch.</desc>
    <g id="Сайт" stroke="none" stroke-width="1" fill="none" fill-rule="evenodd">
        <path d="M199.69588,127.392358 C182.920679,141.082465 144.16418,173.668775 139.34372,165.377584 C134.330441,155.736664 182.920679,63.1838296 189.090868,49.1080861 C192.754418,40.0456211 212.807532,-6.42361427 175.979216,12.0869525 C154.576374,22.4991463 122.3757,54.8926382 103.865133,81.3087596 C113.89169,57.2064591 128.931526,19.9925071 121.411608,13.6294998 C108.107138,1.86757711 49.2975249,72.2462946 19.796309,111.774067 C29.0515924,84.7794909 83.0407456,17.8715047 60.2881739,2.06039551 C48.3334328,-6.42361427 20.5675826,13.0510445 6.29902074,28.4765169 C4.17801829,30.7903377 -5.65572032,41.9738052 4.5636551,39.8528027 C11.5051177,27.7052433 66.6511812,-17.7999001 57.7815346,20.7637807 C53.3467114,40.4312579 30.4013213,82.2728516 20.7604011,103.290058 C18.0609434,109.460247 15.5543041,115.244799 12.8548465,121.222169 C9.38411521,125.271356 7.07029436,129.513361 5.14211032,132.405637 C0.70728702,139.154281 6.68465755,141.66092 8.61284159,141.853739 C16.904033,126.235448 109.264049,11.5084973 118.133695,22.8847832 C122.568518,28.2836985 109.649685,62.0269192 101.358494,84.7794909 C99.4303099,87.671767 97.6949443,90.9496798 96.1523971,93.4563191 C92.6816658,100.012145 98.0805811,100.976237 98.8518547,100.976237 C109.264049,77.4523915 159.78247,22.1135095 184.270408,14.9792286 C196.610786,11.1228605 180.606858,43.9019892 179.642766,46.0229917 C171.544393,66.4617425 131.630983,148.216746 133.366349,164.220673 C135.487352,186.39479 187.355502,138.383007 199.69588,127.392358 Z" id="mi-12" fill="#D9255E" fill-rule="nonzero"></path>
    </g>
</svg>