<?xml version="1.0" encoding="UTF-8"?>
<svg width="221px" height="170px" viewBox="0 0 221 170" version="1.1" xmlns="http://www.w3.org/2000/svg" xmlns:xlink="http://www.w3.org/1999/xlink">
    <!-- Generator: Sketch 63.1 (92452) - https://sketch.com -->
    <title>mi-26</title>
    <desc>Created with Sketch.</desc>
    <g id="Сайт" stroke="none" stroke-width="1" fill="none" fill-rule="evenodd">
        <path d="M61.625,170 L61.625,167.638889 C54.8564815,166.694444 49.5439815,165.159722 45.6875,163.034722 C41.8310185,160.909722 38.9583333,157.997685 37.0694444,154.298611 C35.1805556,150.599537 34,146.034722 33.5277778,140.604167 C33.0555556,135.173611 32.8194444,128.759259 32.8194444,121.361111 L32.8194444,91.1388889 C32.8194444,82.4814815 32.8587963,74.2569444 32.9375,66.4652778 C33.0162037,58.6736111 33.0949074,50.8032407 33.1736111,42.8541667 C33.2523148,34.9050926 33.2916667,25.7361111 33.2916667,15.3472222 C34.0787037,17.0787037 35.5347222,20.3842593 37.6597222,25.2638889 C39.7847222,30.1435185 42.5,36.2037037 45.8055556,43.4444444 C49.1111111,50.6851852 52.8101852,58.9490741 56.9027778,68.2361111 C60.9953704,77.5231481 65.4027778,87.4791667 70.125,98.1041667 C74.8472222,108.729167 79.6875,119.787037 84.6458333,131.277778 C89.6041667,142.768519 94.6018519,154.337963 99.6388889,165.986111 L101.055556,165.986111 C101.37037,165.041667 102.157407,163.113426 103.416667,160.201389 C104.675926,157.289352 106.013889,154.0625 107.430556,150.520833 C108.847222,146.979167 110.263889,143.516204 111.680556,140.131944 C113.097222,136.747685 114.199074,134.268519 114.986111,132.694444 C120.180556,121.046296 124.94213,110.381944 129.270833,100.701389 C133.599537,91.0208333 137.888889,81.537037 142.138889,72.25 C146.388889,62.962963 150.678241,53.4398148 155.006944,43.6805556 C159.335648,33.9212963 164.097222,23.2175926 169.291667,11.5694444 L169.291667,107.666667 L169.291667,107.666667 C169.291667,117.111111 169.134259,127.027778 168.819444,137.416667 C168.662037,140.564815 168.347222,143.673611 167.875,146.743056 C167.402778,149.8125 166.694444,152.37037 165.75,154.416667 C164.175926,157.722222 161.106481,160.634259 156.541667,163.152778 C151.976852,165.671296 146.310185,167.087963 139.541667,167.402778 L139.541667,170 L220.527778,170 L220.527778,167.638889 C216.75,167.481481 213.444444,166.891204 210.611111,165.868056 C207.777778,164.844907 205.416667,163.664352 203.527778,162.326389 C201.638889,160.988426 200.18287,159.729167 199.159722,158.548611 C198.136574,157.368056 197.546296,156.62037 197.388889,156.305556 C196.444444,154.574074 195.775463,152.173611 195.381944,149.104167 C194.988426,146.034722 194.791667,143.00463 194.791667,140.013889 C194.634259,130.726852 194.555556,121.912037 194.555556,113.569444 L194.555556,66.5833333 L194.555556,66.5833333 C194.555556,59.5 194.634259,52.1805556 194.791667,44.625 C194.949074,39.1157407 195.185185,33.5277778 195.5,27.8611111 C195.814815,22.1944444 196.444444,18.0231481 197.388889,15.3472222 C198.648148,11.8842593 200.969907,8.89351852 204.354167,6.375 C207.738426,3.85648148 212.657407,2.51851852 219.111111,2.36111111 L219.111111,0 L168.819444,0 C168.347222,1.25925926 166.418981,5.86342593 163.034722,13.8125 C159.650463,21.7615741 155.321759,31.7175926 150.048611,43.6805556 C144.775463,55.6435185 138.833333,69.0231481 132.222222,83.8194444 C125.611111,98.6157407 118.842593,113.490741 111.916667,128.444444 L55.4861111,0 L5.19444444,0 L5.19444444,2.36111111 C7.08333333,2.67592593 9.36574074,3.1875 12.0416667,3.89583333 C14.7175926,4.60416667 17.2361111,5.74537037 19.5972222,7.31944444 C21.9583333,8.89351852 24.0046296,11.0578704 25.7361111,13.8125 C27.4675926,16.5671296 28.412037,20.1481481 28.5694444,24.5555556 C28.7268519,29.1203704 28.8055556,32.9768519 28.8055556,36.125 L28.8055556,65.875 L28.8055556,65.875 C28.8055556,76.4212963 28.7268519,86.2986111 28.5694444,95.5069444 C28.412037,104.715278 28.1759259,112.703704 27.8611111,119.472222 C27.7037037,127.5 27.1527778,134.30787 26.2083333,139.895833 C25.2638889,145.483796 23.7685185,150.166667 21.7222222,153.944444 C19.6759259,157.722222 16.9212963,160.673611 13.4583333,162.798611 C9.99537037,164.923611 5.50925926,166.537037 0,167.638889 L0,170 L61.625,170 Z" id="mi-26" fill="#D9255E" fill-rule="nonzero"></path>
    </g>
</svg>