<?xml version="1.0" encoding="UTF-8"?>
<svg width="198px" height="170px" viewBox="0 0 198 170" version="1.1" xmlns="http://www.w3.org/2000/svg" xmlns:xlink="http://www.w3.org/1999/xlink">
    <!-- Generator: Sketch 63.1 (92452) - https://sketch.com -->
    <title>mi-4</title>
    <desc>Created with Sketch.</desc>
    <g id="Сайт" stroke="none" stroke-width="1" fill="none" fill-rule="evenodd">
        <path d="M197.67583,170 C196.097822,158.508866 194.459122,146.208497 192.759729,133.098893 C191.060336,119.98929 189.290134,105.574795 187.449125,89.8554088 C185.608116,74.1360228 184.131263,61.1781507 183.018565,50.9817922 C181.905867,40.7854338 180.074973,23.791503 177.525884,0 L177.525884,0 L172.306319,0 C164.618589,13.6356063 158.084018,25.34928 152.702606,35.1410211 C147.321195,44.9327621 141.585743,55.442699 135.496251,66.6708318 C129.406759,77.8989647 122.437225,90.674759 114.587647,104.998215 C106.73807,119.321671 102.105201,127.737713 100.68904,130.246341 C91.9493038,115.720576 83.7254552,101.467928 76.0174938,87.488397 C68.3095323,73.5088659 60.8241104,59.4989885 53.5612281,45.4587647 C46.2983458,31.418541 38.5600381,16.2656194 30.3463049,0 L30.3463049,0 L23.8521956,0 C23.0429608,8.41604189 21.232298,23.02273 18.4202071,43.8200643 C15.6081161,64.6173985 12.2396763,88.3583244 8.31488754,115.042842 C4.39009877,141.727359 1.61846959,160.046412 0,170 C0.890158277,169.919077 2.32655004,169.77746 4.30917529,169.575152 C6.29180055,169.372843 7.84957753,169.271689 8.98250625,169.271689 C9.83220278,169.271689 11.1775556,169.372843 13.0185648,169.575152 C14.859574,169.77746 16.4072355,169.919077 17.6615494,170 C17.6615494,162.79781 18.0054742,154.624539 18.6933238,145.480186 C19.3811734,136.335832 20.3320243,126.048435 21.5458765,114.617994 C22.7597287,103.187552 24.2972748,89.582292 26.1585148,73.8022135 C28.0197548,58.022135 29.2538379,47.3402356 29.860764,41.7565155 C34.1092467,49.8084018 38.4689992,58.092943 42.9400214,66.6101392 C47.4110437,75.1273355 51.5786029,83.0881828 55.442699,90.4926812 C59.3067952,97.8971796 63.3529692,105.736642 67.581221,114.011067 C71.8094728,122.285493 75.9669166,130.671189 80.0535523,139.168154 L80.0535523,139.168154 L93.7093895,167.268833 L96.4405569,167.268833 C108.579079,139.390694 130.307033,97.5532548 161.62442,41.7565155 C162.757349,49.7274783 164.001547,60.2374152 165.357015,73.2863263 C166.712484,86.3352374 168.280376,102.651434 170.060693,122.234916 C171.841009,141.818398 173.25717,157.740093 174.309175,170 C175.442104,169.919077 177.323575,169.77746 179.953588,169.575152 C182.583601,169.372843 184.586457,169.271689 185.962156,169.271689 C187.095085,169.271689 188.905748,169.372843 191.394145,169.575152 C193.882542,169.77746 195.976437,169.919077 197.67583,170 Z" id="mi-4" fill="#D9255E" fill-rule="nonzero"></path>
    </g>
</svg>