<?xml version="1.0" encoding="UTF-8"?>
<svg width="121px" height="170px" viewBox="0 0 121 170" version="1.1" xmlns="http://www.w3.org/2000/svg" xmlns:xlink="http://www.w3.org/1999/xlink">
    <!-- Generator: Sketch 63.1 (92452) - https://sketch.com -->
    <title>mi-5</title>
    <desc>Created with Sketch.</desc>
    <g id="Сайт" stroke="none" stroke-width="1" fill="none" fill-rule="evenodd">
        <path d="M15.0571429,170 L15.0571429,80.1428571 C15.0571429,62.1714286 14.5714286,47.1142857 13.6,32.0571429 L14.5714286,31.8142857 C18.9428571,43.9571429 25.7428571,60.2285714 32.0571429,76.5 L52.9428571,129.928571 L68,129.928571 L88.8857143,76.5 C95.2,60.2285714 102,43.9571429 106.371429,31.8142857 L107.342857,32.0571429 C106.371429,47.1142857 105.885714,62.1714286 105.885714,80.1428571 L105.885714,170 L120.942857,170 L120.942857,0 L104.914286,0 L74.5571429,73.3428571 C70.1857143,84.2714286 64.1142857,101.757143 60.9571429,111.228571 L59.9857143,111.228571 C56.8285714,101.757143 50.7571429,84.2714286 46.3857143,73.3428571 L16.0285714,0 L0,0 L0,170 L15.0571429,170 Z" id="mi-5" fill="#D9255E" fill-rule="nonzero"></path>
    </g>
</svg>