<?xml version="1.0" encoding="UTF-8"?>
<svg width="28px" height="28px" viewBox="0 0 28 28" version="1.1" xmlns="http://www.w3.org/2000/svg"
>
    <!-- Generator: Sketch 60.1 (88133) - https://sketch.com -->
    <title></title>
    <desc>Created with Sketch.</desc>
    <g id="Сайт" stroke="none" stroke-width="1" fill="none" fill-rule="evenodd">
        <g id="Главная-1-XL" transform="translate(-117.000000, -954.000000)" fill="#FFFFFF" fill-rule="nonzero">
            <g id="Group-2" transform="translate(49.000000, 954.000000)">
                <path d="M90.75,28 C93.6484375,28 96,25.6484375 96,22.75 L96,5.25 C96,2.3515625 93.6484375,0 90.75,0 L73.25,0 C70.3515625,0 68,2.3515625 68,5.25 L68,22.75 C68,25.6484375 70.3515625,28 73.25,28 L90.75,28 Z M77.296875,21.0364583 L70.3333333,21.0364583 L70.3333333,6.69010417 L77.0963542,6.69010417 C79.5572917,6.69010417 81.6901042,7.3828125 81.6901042,10.2447917 C81.6901042,11.6848958 81.015625,12.6145833 79.7395833,13.234375 C81.4895833,13.7447917 82.3463542,15.0755208 82.3463542,16.8802083 C82.3463542,19.796875 79.9036458,21.0364583 77.296875,21.0364583 Z M91.3880208,9.05989583 L85.5729167,9.05989583 L85.5729167,7.65625 L91.3880208,7.65625 L91.3880208,9.05989583 Z M76.6953125,12.4869792 C77.8255208,12.4869792 78.6276042,11.9947917 78.6276042,10.7734375 C78.6276042,9.44270833 77.5885417,9.1328125 76.4583333,9.1328125 L73.4869792,9.1328125 L73.4869792,12.4869792 L76.6953125,12.4869792 Z M88.5989583,21.3098958 C85.3177083,21.3098958 83.2760417,19.1041667 83.2760417,15.859375 C83.2760417,12.7421875 85.4453125,10.3541667 88.5989583,10.3541667 C91.8619792,10.3541667 93.6666667,12.9244792 93.6666667,15.9869792 C93.6666667,16.1692708 93.6666667,16.3515625 93.6484375,16.5338542 L86.15625,16.5338542 C86.15625,18.1927083 87.03125,19.1770833 88.7083333,19.1770833 C89.5651042,19.1770833 90.6770833,18.703125 90.9505208,17.828125 L93.4661458,17.828125 C92.7005208,20.1979167 91.0963542,21.3098958 88.5989583,21.3098958 Z M90.7864583,14.7291667 C90.6588542,13.3619792 89.9479167,12.5052083 88.5260417,12.5052083 C87.1588542,12.5052083 86.2473958,13.3619792 86.15625,14.7291667 L90.7864583,14.7291667 Z M76.859375,18.59375 C78.1536458,18.59375 79.1927083,18.15625 79.1927083,16.6979167 C79.1927083,15.2395833 78.3177083,14.6380208 76.9322917,14.6380208 L73.4869792,14.6380208 L73.4869792,18.59375 L76.859375,18.59375 Z"
                      id=""></path>
            </g>
        </g>
    </g>
</svg>