<svg xmlns="http://www.w3.org/2000/svg" width="30" height="25" viewBox="0 0 30 25"><g><g><path fill="#f3ece0" d="M1.875 17.802V1.875h26.25v15.927zM1.875 0C1.367 0 .928.18.557.542A1.788 1.788 0 0 0 0 1.875v15.938c0 .507.186.947.557 1.318.37.37.81.556 1.318.556h12.188V22.5H9.375a.9.9 0 0 0-.66.278.9.9 0 0 0-.277.66.9.9 0 0 0 .278.659.9.9 0 0 0 .659.278h11.25a.9.9 0 0 0 .66-.278.9.9 0 0 0 .277-.66.9.9 0 0 0-.278-.659.9.9 0 0 0-.659-.278h-4.688v-2.813h12.188c.508 0 .947-.185 1.318-.556.371-.371.557-.81.557-1.319V1.876c0-.527-.186-.972-.557-1.333A1.826 1.826 0 0 0 28.125 0z"/></g></g></svg>