<svg xmlns="http://www.w3.org/2000/svg" width="13" height="9" viewBox="0 0 13 9">
    <g>
        <g opacity=".5">
            <path fill="#fff"
                  d="M3.672 8.17c.156-.155.156-.312 0-.468l-2.617-2.89h11.133c.208 0 .312-.105.312-.313 0-.208-.104-.312-.313-.312H1.056l2.617-2.891c.156-.156.156-.313 0-.469-.156-.156-.313-.156-.469 0A1562.132 1562.132 0 0 1 .078 4.265c-.052.052-.078.13-.078.234 0 .104.026.182.078.234l3.125 3.438c.052.052.13.078.235.078.104 0 .182-.026.234-.078z"/>
        </g>
    </g>
</svg>