<svg xmlns="http://www.w3.org/2000/svg" width="18" height="30" viewBox="0 0 18 30"><g><g><path fill="#f3ece0" d="M7.12 2.813a.899.899 0 0 0-.657.278.902.902 0 0 0-.278.659c0 .254.093.474.278.66a.899.899 0 0 0 .658.277h3.743a.899.899 0 0 0 .658-.278.902.902 0 0 0 .278-.659.902.902 0 0 0-.278-.66.899.899 0 0 0-.658-.277zm.56 21.181c-.372.371-.557.81-.557 1.319 0 .507.185.947.556 1.318.371.37.81.556 1.319.556.527 0 .971-.185 1.333-.556.36-.371.542-.81.542-1.319 0-.507-.181-.947-.542-1.318a1.788 1.788 0 0 0-1.333-.556c-.508 0-.948.185-1.319.556zm7.592 3.853a.9.9 0 0 1-.659.278H3.372a.9.9 0 0 1-.659-.278.901.901 0 0 1-.278-.66V2.813c0-.253.093-.473.278-.659a.9.9 0 0 1 .659-.278h11.241a.9.9 0 0 1 .659.278.901.901 0 0 1 .278.66v24.375a.901.901 0 0 1-.278.659zM3.372 0c-.78 0-1.445.273-1.992.82a2.712 2.712 0 0 0-.82 1.992v24.375c0 .782.273 1.446.82 1.993.547.547 1.211.82 1.993.82h11.25c.78 0 1.445-.273 1.992-.82.547-.547.82-1.211.82-1.992V2.813c0-.782-.273-1.446-.82-1.993A2.712 2.712 0 0 0 14.623 0z"/></g></g></svg>