<?xml version="1.0" encoding="UTF-8"?>
<svg width="26px" height="31px" viewBox="0 0 26 31" version="1.1" xmlns="http://www.w3.org/2000/svg">
    <!-- Generator: Sketch 61.2 (89653) - https://sketch.com -->
    <title>tablet</title>
    <desc>Created with Sketch.</desc>
    <g id="Кейс" stroke="none" stroke-width="1" fill="none" fill-rule="evenodd">
        <g id="Портфолио-злата-XL" transform="translate(-850.000000, -9562.000000)" fill="#12171E" fill-rule="nonzero">
            <g id="Group-32" transform="translate(256.000000, 9563.000000)">
                <path d="M616.375,29.875 C617.15625,29.875 617.820312,29.6015625 618.367188,29.0546875 C618.914062,28.5078125 619.1875,27.84375 619.1875,27.0625 L619.1875,2.6875 C619.1875,1.90625 618.914062,1.2421875 618.367188,0.6953125 C617.820312,0.1484375 617.15625,-0.125 616.375,-0.125 L597.625,-0.125 C596.84375,-0.125 596.179688,0.1484375 595.632812,0.6953125 C595.085938,1.2421875 594.8125,1.90625 594.8125,2.6875 L594.8125,27.0625 C594.8125,27.84375 595.085938,28.5078125 595.632812,29.0546875 C596.179688,29.6015625 596.84375,29.875 597.625,29.875 L616.375,29.875 Z M616.375,28 L597.625,28 C597.371094,28 597.151367,27.9072266 596.96582,27.7216797 C596.780273,27.5361328 596.6875,27.3164062 596.6875,27.0625 L596.6875,2.6875 C596.6875,2.43359375 596.780273,2.21386719 596.96582,2.02832031 C597.151367,1.84277344 597.371094,1.75 597.625,1.75 L616.375,1.75 C616.628906,1.75 616.848633,1.84277344 617.03418,2.02832031 C617.219727,2.21386719 617.3125,2.43359375 617.3125,2.6875 L617.3125,27.0625 C617.3125,27.3164062 617.219727,27.5361328 617.03418,27.7216797 C616.848633,27.9072266 616.628906,28 616.375,28 Z M608.875,4.5625 C609.128906,4.5625 609.348633,4.46972656 609.53418,4.28417969 C609.719727,4.09863281 609.8125,3.87890625 609.8125,3.625 C609.8125,3.37109375 609.719727,3.15136719 609.53418,2.96582031 C609.348633,2.78027344 609.128906,2.6875 608.875,2.6875 L605.125,2.6875 C604.871094,2.6875 604.651367,2.78027344 604.46582,2.96582031 C604.280273,3.15136719 604.1875,3.37109375 604.1875,3.625 C604.1875,3.87890625 604.280273,4.09863281 604.46582,4.28417969 C604.651367,4.46972656 604.871094,4.5625 605.125,4.5625 L608.875,4.5625 Z M607,27.0625 C607.507812,27.0625 607.947266,26.8769531 608.318359,26.5058594 C608.689453,26.1347656 608.875,25.6953125 608.875,25.1875 C608.875,24.6796875 608.689453,24.2402344 608.318359,23.8691406 C607.947266,23.4980469 607.507812,23.3125 607,23.3125 C606.492188,23.3125 606.052734,23.4980469 605.681641,23.8691406 C605.310547,24.2402344 605.125,24.6796875 605.125,25.1875 C605.125,25.6953125 605.310547,26.1347656 605.681641,26.5058594 C606.052734,26.8769531 606.492188,27.0625 607,27.0625 Z"
                      id="tablet"></path>
            </g>
        </g>
    </g>
</svg>