<svg width="89" height="120" viewBox="0 0 89 120" fill="none" xmlns="http://www.w3.org/2000/svg">
<g clip-path="url(#clip0_1319_335)">
<path d="M80.9264 51.6336C80.4901 50.9793 80.0609 50.3319 79.6246 49.7549C79.2393 52.2049 77.944 54.4194 75.9975 55.9562C74.051 57.493 71.5964 58.239 69.1239 58.0454C66.6514 57.8517 64.3429 56.7325 62.6594 54.9114C60.9759 53.0902 60.0413 50.701 60.0421 48.221C60.0039 47.3527 60.025 46.4828 60.1054 45.6175C60.3239 44.1337 60.6532 42.6683 61.0905 41.2337C65.6854 22.2986 59.6833 9.52035 40.5722 0C43.3446 12.729 37.0117 21.0461 29.6234 28.9129C21.9255 37.1244 13.334 44.5198 7.10673 54.0753C0.253205 64.5808 -1.92106 75.818 1.81531 87.7941C7.40227 105.702 19.5402 116.855 38.1798 119.458C56.8194 122.062 71.9549 115.166 81.8059 99.0524C91.3192 83.4315 91.3685 67.2476 80.9264 51.6336Z" fill="#41FF01"/>
</g>
<defs>
<clipPath id="clip0_1319_335">
<rect width="88.8495" height="120" fill="white"/>
</clipPath>
</defs>
</svg>
