<svg width="42" height="64" viewBox="0 0 42 64" fill="none" xmlns="http://www.w3.org/2000/svg">
<path d="M39.3726 33.5764L39.2985 33.4437C39.1581 33.1785 39.0138 32.9172 38.8616 32.6637L20.7026 0L3.02321 32.3049C2.693 32.8509 2.38619 33.4138 2.10278 33.9937V34.0249C0.546315 37.2226 -0.16631 40.7654 0.0326598 44.3163C0.23163 47.8672 1.33558 51.3082 3.23954 54.312C5.14351 57.3159 7.78419 59.7829 10.9105 61.4783C14.0368 63.1737 17.5449 64.0413 21.1011 63.9985C24.6573 63.9557 28.1434 63.0039 31.228 61.2338C34.3127 59.4636 36.8932 56.9338 38.7243 53.885C40.5555 50.8362 41.5763 47.3696 41.6897 43.815C41.8032 40.2603 41.0055 36.7358 39.3726 33.5764Z" fill="#F23A93"/>
</svg>
