<svg width="68" height="64" viewBox="0 0 68 64" fill="none" xmlns="http://www.w3.org/2000/svg">
<path d="M66.9445 54.4901C66.9993 54.1161 67.0268 53.7387 67.0268 53.3608C67.0272 52.9828 66.9996 52.6054 66.9445 52.2315V0H24.3098V45.6568C21.3775 43.6935 17.9169 42.6697 14.3884 42.7215C6.44211 42.7215 0 47.4857 0 53.3608C0 59.2359 6.44211 64 14.3884 64C21.7037 64 27.7571 59.9491 28.6578 54.7095H28.6944V54.4901C28.747 54.1159 28.7745 53.7386 28.7767 53.3608C28.7748 52.9829 28.7473 52.6056 28.6944 52.2315V8.77383H62.5598V45.6568C59.6283 43.6919 56.1671 42.6679 52.6384 42.7215C44.6921 42.7215 38.2501 47.4857 38.2501 53.3608C38.2501 59.2359 44.6921 64 52.6384 64C59.9537 64 66.0072 59.9491 66.9079 54.7095H66.9445V54.4901Z" fill="#41FF01"/>
</svg>
