<svg xmlns="http://www.w3.org/2000/svg" width="54" height="54" viewBox="0 0 54 54"><g><g><g><path fill="#b49060" d="M38.495 16.194A21.325 21.325 0 0 1 50.183 25a11.785 11.785 0 0 1 1.49 10.796 14.436 14.436 0 0 1-5.3 6.818 17.408 17.408 0 0 1-8.878 3.41 16.928 16.928 0 0 1-8.998-1.8 29.614 29.614 0 0 1-6.998-5.229 31.544 31.544 0 0 0-4.54-3.778 12.539 12.539 0 0 0-5.818-1.84 38.547 38.547 0 0 1-4.43-.38 5.339 5.339 0 0 1-3.749-7.167 12.416 12.416 0 0 1 3.54-4.659 25.616 25.616 0 0 1 12.657-5.718 53.806 53.806 0 0 1 7.269-.73 36.997 36.997 0 0 1 12.067 1.47zm15.607 14.5a2.46 2.46 0 0 1-.09-.34 14.85 14.85 0 0 0-2.23-6.19 22.83 22.83 0 0 0-10.2-8.62 31.44 31.44 0 0 0-12-2.48 50.881 50.881 0 0 0-7.51.28 33.11 33.11 0 0 0-11.31 3 21.13 21.13 0 0 0-8.08 6.49 8.12 8.12 0 0 0-1.77 4.52c-.07 2.36-.12 4.69 0 7a6 6 0 0 0 3.78 5.58 11 11 0 0 0 4.18.64 13.22 13.22 0 0 1 9.07 3.24c1.35 1.19 2.67 2.42 4 3.62a25.36 25.36 0 0 0 7 4.73 17.92 17.92 0 0 0 10 1.42 19.19 19.19 0 0 0 9-3.92 15.58 15.58 0 0 0 5.54-7.65c.28-.87.35-1.79.56-2.67z"/></g><g><path fill="#b49060" d="M40.984 31.234a2.5 2.5 0 0 1 0 3.77 5.38 5.38 0 0 1-5.05 1.31 4.71 4.71 0 0 1-2.1-1 2.62 2.62 0 0 1 0-4.31 5.51 5.51 0 0 1 3.44-1.13 5.32 5.32 0 0 1 3.71 1.36zm-12.95-14.6a51.4 51.4 0 0 0-9.07.81 23.2 23.2 0 0 0-11.21 5.16 9.35 9.35 0 0 0-3 3.93 2.9 2.9 0 0 0 2.2 3.87c.75.135 1.509.205 2.27.21 1.866.03 3.722.3 5.52.8a18.26 18.26 0 0 1 6.76 4.22 66.33 66.33 0 0 0 5.56 4.81 15.7 15.7 0 0 0 8 3.13 14.82 14.82 0 0 0 12.14-4.75 9.76 9.76 0 0 0 1.48-12.58 18.83 18.83 0 0 0-9.75-7.86 31.53 31.53 0 0 0-10.9-1.75z"/></g><g><path fill="#b49060" d="M42.5 14.61l.53.26c.71-1.85 2-4.8 3.49-5.83a20.47 20.47 0 0 0-2.55 6.29 23 23 0 0 1 7.32 6 19.43 19.43 0 0 0 1.13-6.72c-.09-7.57-1.15-8-1-13.95-4 1.76-7.6 3.88-10 7a10.13 10.13 0 0 0-2.16 5.27 1.66 1.66 0 0 0 .08.54 23.46 23.46 0 0 1 3.16 1.14z"/></g><g><path fill="#b49060" d="M37.934 13.05l-4.28-.74a12.51 12.51 0 0 1 .39-6.14s3.46 1.58 4.75 3.77c0 0-1.24 1.98-.86 3.11z"/></g></g></g></svg>