<svg xmlns="http://www.w3.org/2000/svg" width="50" height="53" viewBox="0 0 50 53"><g><g><g><path fill="#b49060" d="M38.5 22.15a8.83 8.83 0 0 0 1.89 5.46l-12.89-.27a8.81 8.81 0 0 0 1.89-5.47v-5.23A8.24 8.24 0 0 0 24.24 9V6.14H38.5zM36.96 7.68H25.77V8a9.72 9.72 0 0 1 5.16 8.63v5.21a10.32 10.32 0 0 1-.81 4l7.59.16a10.45 10.45 0 0 1-.75-3.85z"/></g><g><path fill="#b49060" d="M30.54.17h7.02v5.34h-7.02z"/></g><g><path fill="#b49060" d="M49.15 35.27a.66.66 0 0 1-.23 0l-1.76-.54a4.14 4.14 0 0 1-2.86-3.17 22.07 22.07 0 0 1 .34-6.4c.06-.36.11-.7.15-1l1.83-13.46A2.61 2.61 0 0 0 46 8.6a2.66 2.66 0 0 0-2-.9h-6.59a.77.77 0 1 1 0-1.54H44a4.2 4.2 0 0 1 3.16 1.43 4.14 4.14 0 0 1 1 3.27l-1.85 13.46c0 .31-.09.66-.15 1a21.22 21.22 0 0 0-.35 5.89 2.59 2.59 0 0 0 1.8 2l1.76.54a.77.77 0 0 1-.22 1.51z"/></g><g><path fill="#b49060" d="M27.49 27.345l12.89.27"/></g><g><path fill="#b49060" d="M24.2 50.36s-1.28-.86-1.82-1.13l-1.05-.52a15.1 15.1 0 0 0 2.65 3.2h1.52s0-.12-.06-.22a3.43 3.43 0 0 0-1.24-1.33z"/></g><g><path fill="#b49060" d="M33.6 36.89a4 4 0 0 0 1-2.65 1.11 1.11 0 0 0-.86-1.11 1.45 1.45 0 0 0-.48-.09 1.11 1.11 0 0 0-.87.45 2 2 0 0 0-.49 1.19c-.13 1.38-.26 2.65-.52 4a7.57 7.57 0 0 0 2.22-1.79z"/></g><g><path fill="#b49060" d="M42.2 29.36a9.16 9.16 0 0 1-1.82-1.75l-12.88-.27a8.8 8.8 0 0 1-2 1.84 14.62 14.62 0 0 0-4.11 4.29c2.16-.06 3.89-.22 4.29-.26 1.42-.13 2.17-.43 2.68-1.74.94-2.44 3.72-3.59 6.61-2.73a5.77 5.77 0 0 1 4.19 6.05 9.48 9.48 0 0 1-4.42 7.14 7.13 7.13 0 0 1-1.49.9 17.29 17.29 0 0 0-6.37 4.25 8.26 8.26 0 0 1-3.12 1.83c.48.3.92.6.95.62a4.27 4.27 0 0 1 1.65 1.84c.14.336.14.714 0 1.05h16.59a14.52 14.52 0 0 0-.75-23.06z"/></g><g><path fill="#b49060" d="M30.2 39.501a34.82 34.82 0 0 0 .72-4.91 3 3 0 0 1 .74-1.76 2.26 2.26 0 0 1 4 1.39 5 5 0 0 1-1.24 3.3 9.33 9.33 0 0 1-3.48 2.54l-.94.45zm3.92 1.67a8.63 8.63 0 0 0 4.08-6.47 4.79 4.79 0 0 0-3.49-5c-2.37-.71-4.64.19-5.39 2.13a3.54 3.54 0 0 1-3.49 2.38c-.45 0-2.5.23-5 .27a14.45 14.45 0 0 0 .46 14.19l1.21-.36a9 9 0 0 0 3.73-1.92 18.3 18.3 0 0 1 6.67-4.48 6.21 6.21 0 0 0 1.22-.74z"/></g><g><path fill="#b49060" d="M30.2 39.501a34.82 34.82 0 0 0 .72-4.91 3 3 0 0 1 .74-1.76 2.26 2.26 0 0 1 4 1.39 5 5 0 0 1-1.24 3.3 9.33 9.33 0 0 1-3.48 2.54l-.94.45zm3.92 1.67a8.63 8.63 0 0 0 4.08-6.47 4.79 4.79 0 0 0-3.49-5c-2.37-.71-4.64.19-5.39 2.13a3.54 3.54 0 0 1-3.49 2.38c-1 .1-9.74.91-13.94-.76a38.63 38.63 0 0 0-6.19-2.05 5.52 5.52 0 0 0-5.79 2.49l.68.1c2 .29 4.71 1.08 5.46 4.49.15.59.333 1.171.55 1.74.09.25.19.5.27.75 1.42 4.2 3.42 6.39 6.69 7.34l1.23.35-1.14.57c-.69.35-1.86 1.12-1.87 1.13a4 4 0 0 0-1.28 1.34l-.07.21H25.5s0-.12-.06-.22a3.43 3.43 0 0 0-1.24-1.33s-1.28-.86-1.82-1.13l-1.12-.55 1.24-.37a9 9 0 0 0 3.73-1.92 18.3 18.3 0 0 1 6.67-4.48 6.21 6.21 0 0 0 1.22-.74z"/></g></g></g></svg>