<svg xmlns="http://www.w3.org/2000/svg" width="52" height="51" viewBox="0 0 52 51"><g><g><g><path fill="#b49060" d="M3.423 26.467c-.13-1.5.2-2.31 1.869-2.17.894.09 1.795.09 2.688 0 1.8-.22 2.52.48 2.52 2.32.02 3.2.7 6.363 1.998 9.289a20.454 20.454 0 0 0 8.775 9.828c-9.505-1.74-17.08-10.088-17.85-19.267zm-.28-5.14c-2.05-.03-2.76.53-2.76 2.67a24.74 24.74 0 0 0 9.96 20.23c2.01 1.56 4.42 2.74 4.93 5.66.23 1.36 1.48 1.11 2.43 1.11 5.4 0 10.8-.1 16.2 0 1.78 0 2.83-.46 3.17-2.29.29-1.6 1.51-2.42 2.79-3.28a25 25 0 0 0 11.61-20.54c.13-2.59-.42-3.69-3.36-3.59-7.29.22-14.59.07-21.88.07-7.73 0-15.4.06-23.09-.04z"/></g><g><path fill="#b49060" d="M36.08 16.505c-.27-1.34 4-.51 4.16.67a1.19 1.19 0 0 1-1.47 1.42 3.12 3.12 0 0 1-2.69-2.09zm3.59-4.46c0 1.69-4.35 1.95-4.17.95a2.5 2.5 0 0 1 2.24-2.4c.93-.05 1.93.4 1.93 1.45zm-9.94 8.71c.15-.343.32-.677.51-1 .72-1.06 1.58-1.28 2.11.23a5 5 0 0 1 .15.77h1.59a8 8 0 0 1-.14-1.1c.11-2.12 1.46-1.35 2.11-.58a4.11 4.11 0 0 1 .7 1.59h8.2s.58-1.22.58-1.35c1.71-4.95-.65-12-4.83-15-.92-.67-1.55-1.03-2.41.19-3.71 5.29-7.71 10.67-11.71 16.23a16.88 16.88 0 0 0 3.14.02z"/></g><g><path fill="#b49060" d="M27.621 6.714c-2.22-.08-6.05 2.34-7.29 3.17-.8-4.89.25-6.47 4-7.45 3.75-.98 8.04-.43 12.27.57-3.68 4.64-3.12 5.66-7.63 11.74-.6.81-4.33 5.58-8.08 5.7.31-3.87-.83-7.52-.09-9 .74-1.48 4.23-3.75 6.82-4.73z"/></g><g><path fill="#b49060" d="M9.594 20.84a20.72 20.72 0 0 1 3.4-9.67c-.25 1.35-.51 2.7-.77 4.06-.26 1.36-.59 2.94-.79 4.42a3.8 3.8 0 0 0-.14 1.19h6.53a5.31 5.31 0 0 0 1.52-4.77c-.65-5.2-1.49-10.39-1.84-15.72-8.72 4.11-12.78 15.19-8.31 20.49z"/></g></g></g></svg>