<svg xmlns="http://www.w3.org/2000/svg" width="622" height="450" viewBox="0 0 622 450"><g><g><g><path fill="#b2c9d9" d="M448.8 225c0 123.32-100.32 223.64-223.64 223.64S1.52 348.32 1.52 225 101.84 1.36 225.16 1.36 448.8 101.68 448.8 225zm1.36 0c0-124.06-100.94-225-225-225S.16 100.94.16 225s100.94 225 225 225c124.07 0 225-100.94 225-225z"/></g><g><path fill="#595959" d="M66.41 320a.82.82 0 0 1 .26.62 1.59 1.59 0 0 1-.09.48l-13.21 31.71a1 1 0 0 1-.91.63 1 1 0 0 1-.55-.17.88.88 0 0 1-.37-.46l-13.1-31.61a1.22 1.22 0 0 1-.15-.58.9.9 0 0 1 .92-.91c.482.002.91.312 1.06.77l12.24 29.44 12.28-29.58a1 1 0 0 1 .92-.63 1 1 0 0 1 .7.29z"/></g><g><path fill="#595959" d="M77.281 353.147a1 1 0 0 1-.68.29 1 1 0 0 1-.75-.29 1 1 0 0 1-.26-.72v-31.71a.94.94 0 0 1 .29-.72 1 1 0 0 1 1.73.72v31.71a1.2 1.2 0 0 1-.33.72z"/></g><g><path fill="#595959" d="M115.14 352.657a.85.85 0 0 1-.36.78 1.33 1.33 0 0 1-.74.24.9.9 0 0 1-.68-.34l-14.45-17.88-7.23 6.7v10.27a1.22 1.22 0 0 1-.34.72.92.92 0 0 1-.67.29 1 1 0 0 1-.75-.29 1 1 0 0 1-.27-.72v-31.71a1 1 0 0 1 .3-.72 1 1 0 0 1 1.73.72v19l20.81-19.51a1 1 0 0 1 .68-.29.93.93 0 0 1 .67.29.93.93 0 0 1 0 1.35l-13.34 12.44 14.4 18c.15.188.235.42.24.66z"/></g><g><path fill="#595959" d="M146.852 320a.93.93 0 0 1 0 1.33 1 1 0 0 1-.69.24h-10.73v30.93a1 1 0 0 1-.29.68.93.93 0 0 1-.67.29.9.9 0 0 1-.7-.29 1 1 0 0 1-.27-.68v-30.96h-10.74a1 1 0 0 1-.68-.26.88.88 0 0 1 0-1.31 1 1 0 0 1 .68-.26h23.42a1 1 0 0 1 .67.29z"/></g><g><path fill="#595959" d="M181.056 328.52a19.095 19.095 0 0 1 0 16.1 13.169 13.169 0 0 1-4.999 5.45 14.831 14.831 0 0 1-14.595 0 13.149 13.149 0 0 1-4.999-5.45 19.005 19.005 0 0 1 0-16.1 13.118 13.118 0 0 1 4.999-5.44 14.761 14.761 0 0 1 14.595 0 13.148 13.148 0 0 1 4.999 5.44zm1.769 17.06a20.83 20.83 0 0 0 0-18 15.12 15.12 0 0 0-5.71-6.14 16.89 16.89 0 0 0-16.67 0 15 15 0 0 0-5.71 6.14 20.83 20.83 0 0 0 0 18 15 15 0 0 0 5.71 6.15 17 17 0 0 0 16.67 0 15.15 15.15 0 0 0 5.71-6.15z"/></g><g><path fill="#595959" d="M196.53 336.433v-14.79h11.39a8.06 8.06 0 0 1 5.63 1.92 6.36 6.36 0 0 1 2.13 4.92 7.48 7.48 0 0 1-2.13 5.54 8.21 8.21 0 0 1-5.15 2.41zm21.95 15.16a3.32 3.32 0 0 1-1.23-1.81 16.93 16.93 0 0 1-.41-4.51 9 9 0 0 0-1.49-5.27 7.2 7.2 0 0 0-3.81-2.87 8.37 8.37 0 0 0 4.46-3.13 9.06 9.06 0 0 0 1.77-5.57 8.27 8.27 0 0 0-4.58-7.59 10.51 10.51 0 0 0-5-1.13h-12.72a.92.92 0 0 0-.67.29.91.91 0 0 0-.3.67v31.8a.93.93 0 0 0 .3.68 1 1 0 0 0 1.44 0 1 1 0 0 0 .29-.68v-14.11h11.25a8.42 8.42 0 0 1 4.91 1.47c1.413.98 2.12 2.783 2.12 5.41a14.85 14.85 0 0 0 .77 5.62 5 5 0 0 0 2.07 2.43.74.74 0 0 0 .43.1.9.9 0 0 0 .66-.27 1 1 0 0 0 .26-.69 1 1 0 0 0-.52-.84z"/></g><g><path fill="#595959" d="M230.601 353.147a1 1 0 0 1-.68.29 1 1 0 0 1-.75-.29 1 1 0 0 1-.26-.72v-31.71a.94.94 0 0 1 .29-.72 1 1 0 0 1 1.73.72v31.71a1.26 1.26 0 0 1-.33.72z"/></g><g><path fill="#595959" d="M253.62 322.887l7.38 18.16h-14.6zm14.12 29.63a1.09 1.09 0 0 0 .07-.39l-13-31.89a.93.93 0 0 0-1-.63 1.16 1.16 0 0 0-.56.12 1 1 0 0 0-.36.51l-13 31.89a1 1 0 0 0-.05.49 1 1 0 0 0 .31.58 1 1 0 0 0 .71.24.87.87 0 0 0 .86-.63l3.91-9.83h16.13v-.1l4 9.93a.88.88 0 0 0 .37.46c.18.113.389.172.6.17.262.01.518-.075.72-.24a.86.86 0 0 0 .29-.68z"/></g><g><path fill="#595959" d="M366.28 336.5h-10.51v-14.89h10.51a6.85 6.85 0 0 1 5.18 2 7.31 7.31 0 0 1 1.9 5.3 7.85 7.85 0 0 1-1.93 5.47 6.58 6.58 0 0 1-5.15 2.12zm-.04-16.79h-11.57a.92.92 0 0 0-.92.94v31.8a.92.92 0 0 0 .29.68 1 1 0 0 0 .72.29 1 1 0 0 0 .7-.29.9.9 0 0 0 .31-.68v-14h10.51a9.18 9.18 0 0 0 4.77-1.23 8.38 8.38 0 0 0 3.2-3.42 10.42 10.42 0 0 0 1.13-4.89 9.1 9.1 0 0 0-2.5-6.65 8.84 8.84 0 0 0-6.64-2.55z"/></g><g><path fill="#595959" d="M410.765 328.52a19.083 19.083 0 0 1 0 16.1 13.172 13.172 0 0 1-5.002 5.45 14.851 14.851 0 0 1-14.606 0 13.172 13.172 0 0 1-5.002-5.45 19.083 19.083 0 0 1 0-16.1 13.152 13.152 0 0 1 5.002-5.44 14.781 14.781 0 0 1 14.606 0 13.152 13.152 0 0 1 5.002 5.44zm1.75 17.06a20.92 20.92 0 0 0 0-18 15.12 15.12 0 0 0-5.71-6.14 16.89 16.89 0 0 0-16.67 0 15.08 15.08 0 0 0-5.72 6.14 20.92 20.92 0 0 0 0 18 15.11 15.11 0 0 0 5.72 6.15 17 17 0 0 0 16.67 0 15.15 15.15 0 0 0 5.71-6.15z"/></g><g><path fill="#595959" d="M443.51 351.8a.91.91 0 0 1 .3.67.89.89 0 0 1-.3.7 1 1 0 0 1-.67.27h-17.68a.9.9 0 0 1-.7-.29 1 1 0 0 1-.27-.68v-31.8a.93.93 0 0 1 .29-.67 1.05 1.05 0 0 1 1.45 0 .93.93 0 0 1 .29.67v30.84h16.62a.9.9 0 0 1 .67.29z"/></g><g><path fill="#595959" d="M471.512 320a.93.93 0 0 1 0 1.33 1 1 0 0 1-.7.24h-10.72v30.93a1 1 0 0 1-.29.68.93.93 0 0 1-.67.29.9.9 0 0 1-.7-.29 1 1 0 0 1-.27-.68v-30.96h-10.74a1 1 0 0 1-.68-.26.88.88 0 0 1 0-1.31 1 1 0 0 1 .68-.26h23.41a1 1 0 0 1 .68.29z"/></g><g><path fill="#595959" d="M489.005 322.887l7.32 18.16h-14.6zm14.18 29.24l-13-31.89a.94.94 0 0 0-1-.63 1.12 1.12 0 0 0-.55.12.86.86 0 0 0-.36.51l-13 31.89a.88.88 0 0 0-.05.49 1 1 0 0 0 .31.58 1 1 0 0 0 .7.24.87.87 0 0 0 .87-.63l3.9-9.83h16.04l4.05 9.83a.86.86 0 0 0 .36.46c.183.113.394.172.61.17.26.006.515-.08.72-.24a.86.86 0 0 0 .29-.68 1.37 1.37 0 0 0 .11-.39z"/></g><g><path fill="#595959" d="M532.58 320a.79.79 0 0 1 .26.62 1.59 1.59 0 0 1-.09.48l-13.2 31.76a1 1 0 0 1-.92.63 1 1 0 0 1-.55-.17.82.82 0 0 1-.36-.46l-13.11-31.66a1.22 1.22 0 0 1-.15-.58.89.89 0 0 1 .27-.65.91.91 0 0 1 .65-.26c.482.002.91.312 1.06.77l12.24 29.44L531 320.34a1 1 0 0 1 .92-.63 1 1 0 0 1 .66.29z"/></g><g><path fill="#595959" d="M561.56 351.8a.9.9 0 0 1 .29.67.89.89 0 0 1-.29.7.94.94 0 0 1-.67.27h-18.16a.94.94 0 0 1-.68-.29 1 1 0 0 1-.29-.68v-31.8a1 1 0 0 1 1-1h18.16a.92.92 0 0 1 .67.29.9.9 0 0 1 .29.67.87.87 0 0 1-.29.7.94.94 0 0 1-.67.27h-17.14v13.44h14.94a1 1 0 0 1 .68.29.92.92 0 0 1 .28.67.9.9 0 0 1-.28.7 1 1 0 0 1-.68.27h-14.94v14.5h17.11a.88.88 0 0 1 .67.33z"/></g><g><path fill="#595959" d="M593.412 320a.84.84 0 0 1 .29.65.9.9 0 0 1-.26.68 1 1 0 0 1-.7.24h-10.74v30.93a.94.94 0 0 1-.28.68 1 1 0 0 1-.68.29.92.92 0 0 1-.7-.29 1 1 0 0 1-.27-.68v-30.96h-10.75a1 1 0 0 1-.67-.26.88.88 0 0 1 0-1.31 1 1 0 0 1 .67-.26h23.42a1 1 0 0 1 .67.29z"/></g><g><path fill="#595959" d="M605 352.693a18.78 18.78 0 0 1-5.25-3.83 1 1 0 0 1-.29-.72 1.07 1.07 0 0 1 .34-.75 1 1 0 0 1 .72-.36 1.1 1.1 0 0 1 .82.43 12.3 12.3 0 0 0 4.46 3.37 13.1 13.1 0 0 0 5.42 1.16 10 10 0 0 0 6.12-1.78 5.62 5.62 0 0 0 2.41-4.72 6.17 6.17 0 0 0-1.25-3.81 9.09 9.09 0 0 0-3-2.38 44.398 44.398 0 0 0-4.79-2 48.65 48.65 0 0 1-5.18-2.21 9.16 9.16 0 0 1-3.18-2.75 7.59 7.59 0 0 1-1.33-4.67 7.46 7.46 0 0 1 1.3-4.29 8.71 8.71 0 0 1 3.71-3 13.1 13.1 0 0 1 5.59-1.12 14.22 14.22 0 0 1 5.4 1 9.59 9.59 0 0 1 4 2.92c.252.282.422.628.49 1a.92.92 0 0 1-.36.7c-.219.2-.504.31-.8.31a.8.8 0 0 1-.63-.29 9.31 9.31 0 0 0-3.46-2.74 10.69 10.69 0 0 0-4.68-1 10.2 10.2 0 0 0-6.09 1.74 5.49 5.49 0 0 0-2.44 4.72 5.39 5.39 0 0 0 1.18 3.52 8.93 8.93 0 0 0 3 2.33 40.74 40.74 0 0 0 4.43 1.86 45 45 0 0 1 5.35 2.22 9.5 9.5 0 0 1 3.37 2.93 8.54 8.54 0 0 1 1.4 5.11 7.27 7.27 0 0 1-1.3 4.15 9 9 0 0 1-3.74 3.06 13.08 13.08 0 0 1-5.56 1.13 14.66 14.66 0 0 1-6.18-1.24z"/></g><g><path fill="#b2c9d9" d="M236.25 269.1c0 10 .27 22.12 20.77 22.12v1.08h-68.25v-1.08c20.51 0 21.86-12.13 21.86-22.12v-92.25c0-10-1.35-18.07-21.86-18.07v-1.08H257v1.08c-20.5 0-20.77 8.09-20.77 18.07z"/></g><g><path fill="#b2c9d9" d="M393.84 212.19c0 28.86-13.76 59.34-43.43 59.34-23.75 0-30.75-10.79-30.75-28.86v-66.09c0-14.57 10.79-17.26 18.88-17.26h15.92c23.2 0 39.38 24.54 39.38 52.87zM263.26 157.7v1.12c24.28 0 26.17 7.28 26.17 17.8v183c0 10.53-1.89 17.53-26.17 17.53v1.08h85v-1.08c-24.6 0-28.6-4.85-28.6-17.53v-95.37c10.25 6.74 23.47 9.17 35.61 9.17 41.81 0 69.32-27.51 69.32-61.23 0-33.49-27.47-54.49-64.47-54.49z"/></g><g><path fill="#b2c9d9" d="M236.42 95.145c0-.39-.09-.77-.12-1.16a13.2 13.2 0 0 0-.14-1.41 16.61 16.61 0 1 0-27.82 14.62c.266.275.546.535.84.78 13.59 11.17 5.7 18.74 1.51 27.91L154 256.155l-67.72-145.67c-1.29-2.7-1.93-4.58-1.93-6.74 0-4.32 2.58-9.17 25.14-9.17v-1.08h-89v1.08c14.51 0 24.51 5.42 29.37 15.64l87.35 182.08h1.28l74.13-156.72c5.69-12 17.62-23 22.06-33.19a16.58 16.58 0 0 0 1.46-4.48c.172-.91.266-1.833.28-2.76z"/></g><g><path fill="#595959" d="M282.22 97l-11 14.94v16.48a.94.94 0 0 1-.28.68 1 1 0 0 1-.73.28 1 1 0 0 1-.72-.28 1 1 0 0 1-.29-.68v-16.27l-11-15.13a.94.94 0 0 1-.2-.62.86.86 0 0 1 .32-.63 1 1 0 0 1 .7-.29.92.92 0 0 1 .81.44l10.41 14.21 10.41-14.21a.93.93 0 0 1 .82-.44.88.88 0 0 1 .7.32 1 1 0 0 1 .26.6 1.42 1.42 0 0 1-.21.6z"/></g><g><path fill="#595959" d="M315.325 104.493a19 19 0 0 1 0 16.1 13.06 13.06 0 0 1-5 5.441 14.77 14.77 0 0 1-14.6 0 13.09 13.09 0 0 1-5-5.44 19.09 19.09 0 0 1 0-16.1 13.15 13.15 0 0 1 5-5.44 14.77 14.77 0 0 1 14.6 0 13.12 13.12 0 0 1 5 5.44zm1.76 17.06a20.83 20.83 0 0 0 0-18 15.15 15.15 0 0 0-5.71-6.15 17 17 0 0 0-16.67 0 15.21 15.21 0 0 0-5.71 6.15 20.83 20.83 0 0 0 0 18 15.15 15.15 0 0 0 5.71 6.15 17 17 0 0 0 16.67 0 15.08 15.08 0 0 0 5.71-6.15z"/></g><g><path fill="#595959" d="M354 113.072a1 1 0 0 1 .27.68v12.09a1 1 0 0 1-.44.87 19 19 0 0 1-4.83 2.29 17.11 17.11 0 0 1-5.33.84 17.61 17.61 0 0 1-8.88-2.23 16.12 16.12 0 0 1-6.17-6.2 18.84 18.84 0 0 1 0-17.82 16.12 16.12 0 0 1 6.17-6.2 17.62 17.62 0 0 1 8.88-2.24 19.44 19.44 0 0 1 5.13.66 14.22 14.22 0 0 1 4.37 2 .94.94 0 0 1 .43.82.88.88 0 0 1-.31.69 1 1 0 0 1-.6.27 1.46 1.46 0 0 1-.63-.19 17 17 0 0 0-8.39-2.27 15.66 15.66 0 0 0-7.9 2 14.09 14.09 0 0 0-5.42 5.49 17.18 17.18 0 0 0 0 15.9 14.05 14.05 0 0 0 5.42 5.5 15.75 15.75 0 0 0 7.9 2 15.23 15.23 0 0 0 4.51-.7 18.34 18.34 0 0 0 4.17-1.85v-10.7h-8.68a1 1 0 0 1-1-1 .9.9 0 0 1 .29-.7 1 1 0 0 1 .67-.27h9.64a.92.92 0 0 1 .73.27z"/></g><g><path fill="#595959" d="M375.22 98.837l7.37 18.16H368zm14.18 29.26l-13-31.89a.93.93 0 0 0-1-.63 1.16 1.16 0 0 0-.56.12 1 1 0 0 0-.36.51l-13 31.89a1 1 0 0 0 0 .49 1 1 0 0 0 .31.58c.201.16.454.242.71.23a.86.86 0 0 0 .86-.62l3.9-9.83h16.18l3.96 9.83a.88.88 0 0 0 .37.46c.18.111.39.167.6.16.26.009.514-.072.72-.23a.86.86 0 0 0 .29-.68c.03-.127.037-.26.02-.39z"/></g></g></g></svg>