<svg xmlns="http://www.w3.org/2000/svg" width="800" height="466" viewBox="0 0 800 466"><defs><clipPath id="vys1a"><path d="M45.43 231.24h.881v234.19h-.881z"/></clipPath><clipPath id="vys1b"><path d="M768.47 231.24h.881v234.19h-.881z"/></clipPath><clipPath id="vys1c"><path d="M0 465.425h799.856V.88H0z"/></clipPath></defs><g><g><g><g><path fill="none" stroke="#bdbdbd" stroke-dasharray="4 3" stroke-miterlimit="50" d="M799.856 271.67H0"/></g><g><path fill="none" stroke="#bdbdbd" stroke-dasharray="4 3" stroke-miterlimit="50" d="M799.856 357.62H0"/></g></g><g><path fill="none" stroke="#bdbdbd" stroke-dasharray="4 2" stroke-miterlimit="50" d="M571.26 30.92H228.6"/></g><g><path fill="none" stroke="#bdbdbd" stroke-dasharray="4 2" stroke-miterlimit="50" d="M571.26 246.01H228.6"/></g><g><g><path fill="none" stroke="#bdbdbd" stroke-dasharray="4 3" stroke-miterlimit="50" d="M799.856 402.8H0"/></g><g><path fill="none" stroke="#bdbdbd" stroke-dasharray="4 3" stroke-miterlimit="50" d="M799.856 422.16H0"/></g><g><g/><g clip-path="url(#vys1a)"><path fill="none" stroke="#bdbdbd" stroke-dasharray="4 3" stroke-miterlimit="50" d="M45.87 231.24v234.191"/></g></g><g><g/><g clip-path="url(#vys1b)"><path fill="none" stroke="#bdbdbd" stroke-dasharray="4 3" stroke-miterlimit="50" d="M768.91 231.24v234.191"/></g></g><g><path fill="none" stroke="#bdbdbd" stroke-dasharray="4 3" stroke-miterlimit="50" d="M539.31.88v270.786"/></g><g><path fill="none" stroke="#bdbdbd" stroke-dasharray="4 3" stroke-miterlimit="50" d="M263.88.88v270.786"/></g><g><path fill="none" stroke="#bdbdbd" stroke-dasharray="4 3" stroke-miterlimit="50" d="M402.06.88v270.786"/></g><g><path fill="#6f6f6e" d="M425.452 105.247c.172.466.27.957.27 1.472 0 1.988-1.398 3.633-3.289 4.026-.27.048-.54.073-.834.073a4.106 4.106 0 0 1-4.099-4.099c0-.294.024-.564.073-.834v-.025l6.063-1.3 1.841.638z"/></g><g><path fill="#c4c4c4" d="M402.06 186.378l12.668-3.288-12.667 60.67-12.691-60.67z"/></g><g><path fill="#9a9a9a" d="M411.535 146.5l-9.475 5.498-9.5-5.498z"/></g><g><path fill="#585857" d="M402.065 243.769l-.073.27-24.842-26.875.54-2.43 9.525-42.214 2.16 10.577z"/></g><g><path fill="#3f3e3e" d="M402.058 158.724l-6.308-8.124 6.259 1.424H402.083l6.26-1.424z"/></g><g><path fill="#c4c4c4" d="M395.753 78.175L380.46 46.98l21.503-13.94v57.824z"/></g><g><path fill="#9a9a9a" d="M380.459 46.978l15.292 31.195L359.79 44.77z"/></g><g><path fill="#585857" d="M395.754 78.173l-7.659-2.282-27.37-8.173-20.915-6.235 19.933-16.688c.024 0 .05-.025.05-.025z"/></g><g><path fill="#c4c4c4" d="M360.724 67.72l27.37 8.173s-3.535 1.326-8.763 3.264c-14.36 5.35-40.872 15.241-41.681 15.462.564-.563 5.154-5.89 10.089-11.682 6.21-7.265 12.985-15.217 12.985-15.217"/></g><g><path fill="#6f6f6e" d="M387.362 171.928l-.147.59-9.525 42.214-.54-.123V165.4z"/></g><g><path fill="#222221" d="M380.458 79.5L356.5 115.407s1.89-9.695 2.65-13.744l20.94-21.77z"/></g><g><path fill="#6f6f6e" d="M378.37 106.71c0-.515.098-1.006.27-1.472l-.025-.05 1.841-.638 6.064 1.301v.025c.05.27.073.54.073.834 0 2.258-1.84 4.099-4.124 4.099a4.107 4.107 0 0 1-4.099-4.099"/></g><g><path fill="#9a9a9a" d="M337.65 94.613c.809-.222 27.32-10.112 41.681-15.463l.76.736-20.939 21.77c.197-1.055.32-1.717.32-1.767-.025.025-21.872-5.252-21.872-5.252s.025 0 .05-.024"/></g><g><path fill="#585857" d="M376.243 217.356l2.135 10.259-24.645-26.776-.663-.074 7.486-59.125z"/></g><g><path fill="#222221" d="M377.144 214.607l.54.123-.54 2.43-.908.197-15.686-75.717 16.055 9.646.539 14.112z"/></g><g><path fill="#9a9a9a" d="M370.031 128.58l6.58 22.702-16.055-9.645-15.366-9.253z"/></g><g><path fill="#585857" d="M370.031 128.58l-24.841 3.804 11.315-16.984z"/></g><g><path fill="#3f3e3e" d="M339.81 61.48l20.915 6.234s-6.775 7.952-12.985 15.217l-3.855-10.43z"/></g><g><path fill="#c4c4c4" d="M359.788 44.766s-.024.024-.05.024c-1.055.687-49.953 22.629-51.5 23.316l-.048.024 22.755-27.88h.025c1.055.17 28.327 4.516 28.818 4.516"/></g><g><path fill="#585857" d="M359.74 44.79l-19.933 16.689-31.567 6.627c1.546-.687 50.445-22.629 51.5-23.316"/></g><g><path fill="#6f6f6e" d="M351.719 211.321c.491-.834-6.529-78.931-6.529-78.931l15.366 9.253-7.487 59.125z"/></g><g><path fill="#222221" d="M351.716 211.321l-14.9-29.77v-.026l-11.366-22.677.123-.614 19.614-25.844s7.02 78.097 6.53 78.931"/></g><g><path fill="#9a9a9a" d="M343.89 72.5l3.854 10.43-17.994-6.675z"/></g><g><path fill="#222221" d="M329.75 76.26l17.994 6.676c-4.935 5.792-9.525 11.118-10.09 11.682-.025.025-.048.025-.048.025z"/></g><g><path fill="#3f3e3e" d="M337.597 94.64s21.847 5.277 21.872 5.252c0 .05-.123.712-.32 1.767l-28.499 29.649v-.025z"/></g><g><path fill="#9a9a9a" d="M330.652 131.308l28.5-29.648a3181.91 3181.91 0 0 1-2.652 13.744l-11.316 16.984-19.614 25.844z"/></g><g><path fill="#222221" d="M330.655 131.305l-31.25 32.52-8.665 9.007v-22.506l39.915-19.046z"/></g><g><path fill="#585857" d="M330.65 131.31l-5.083 26.924-8.787 11.584-13.747 18.089-3.633-24.077z"/></g><g><path fill="#3f3e3e" d="M325.445 158.843l11.366 22.678v.025c-.123.735-8.469 17.032-8.469 17.032L317.1 170.06l-.319-.246 8.789-11.584z"/></g><g><path fill="#9a9a9a" d="M308.193 68.134l-2.038-5.3-1.595-4.149L337.6 32.13l-6.628 8.124h-.024z"/></g><g><path fill="#6f6f6e" d="M308.24 68.106l31.567-6.626 4.075 11.02-14.14 3.755-21.552-8.124z"/></g><g><path fill="#3f3e3e" d="M308.193 88.457l-1.08-2.577-.983-2.7h4.32s1.793.932 3.61 1.841l-3.56 3.755z"/></g><g><path fill="#3f3e3e" d="M282.911 107.48l-5.4 6.136-7.781 2.16 6.358-6.308z"/></g><g><path fill="#858585" d="M265.09 105.32l10.996 4.147-6.356 6.308-1.597-3.608z"/></g><g><path fill="#3f3e3e" d="M401.781 92.21c-.548-.127-1.021-.443-1.021-1.005V33.038c0-.422.22-.874.579-1.094.36-.219.809-.298 1.183-.103.108.056.304.177.389.26l.074.073 21.317 13.791c.513.332.697.996.427 1.545l-21.503 43.883c-.218.445-.75.84-1.247.84a.924.924 0 0 1-.198-.022zm1.396-57.06v50.844l18.91-38.584z"/></g><g><path fill="#3f3e3e" d="M407.3 78.772a1.21 1.21 0 0 1 .225-1.485l33.301-30.93-17.056 1.823c-.67.058-1.263-.41-1.331-1.073a1.21 1.21 0 0 1 1.073-1.331l20.67-2.21c.26-.024.48.024.685.13.095.044.182.1.268.17l19.935 16.69a1.209 1.209 0 0 1-.431 2.084l-55.946 16.69a1.21 1.21 0 0 1-1.394-.558zm37.06-32.402l-31.398 29.167 48.83-14.571z"/></g><g><path fill="#3f3e3e" d="M466.488 95.849c-.176 0-.355-.04-.526-.126l-.05-.025a1.215 1.215 0 0 1-.33-.245c-.633-.66-5.697-6.544-10.137-11.733L442.459 68.5a1.208 1.208 0 0 1 1.838-1.567l12.986 15.216c5.22 6.103 9.387 10.93 10.014 11.6.374.358.503.936.262 1.419-.212.428-.63.68-1.071.68"/></g><g><path fill="#3f3e3e" d="M466.452 95.824c-.123 0-.245-.018-.368-.058-1.357-.434-29.22-10.801-42.645-15.824-4.659-1.741-7.848-2.918-7.85-2.919a1.208 1.208 0 0 1-.714-1.551c.232-.625.923-.95 1.552-.715 0 0 3.193 1.178 7.859 2.922 15.122 5.656 41.332 15.401 42.535 15.787.636.203.985.884.783 1.52a1.213 1.213 0 0 1-1.152.838"/></g><g><path fill="#3f3e3e" d="M456.36 84.14a1.208 1.208 0 0 1-1.133-1.627l7.93-21.452a1.21 1.21 0 0 1 1.381-.763l20.619 4.327c-26.869-12.07-40.093-18.07-41.365-18.766a1.206 1.206 0 0 1-.607-1.536 1.207 1.207 0 0 1 1.123-.764c.759-.078 17.55-2.735 28.63-4.5.643-.12 1.279.344 1.383 1.001a1.206 1.206 0 0 1-1.005 1.383 5586.836 5586.836 0 0 1-24.9 3.933c5.328 2.45 17.901 8.145 45.131 20.368l2.807 1.262c.013.006.028.012.04.019l.026.012c.513.24.79.805.668 1.356-.158.718-.97 1.152-1.693.83l-30.333-6.347-6.658 18.008 15.53-5.762a1.208 1.208 0 1 1 .843 2.266l-17.995 6.676a1.24 1.24 0 0 1-.422.075"/></g><g><path fill="#3f3e3e" d="M478.652 160.052a1.21 1.21 0 0 1-1.187-.971l-.122-.613-5.083-26.913c0-.668.53-1.345 1.196-1.345.667 0 1.2.404 1.2 1.071v.05l5.183 27.275a1.211 1.211 0 0 1-1.187 1.446"/></g><g><path fill="#3f3e3e" d="M473.425 132.491c-.569 0-1.08-.404-1.187-.983l-6.92-36.643c-.044-.236-.02-.48.075-.7l7.308-17.1-12.794-3.396a1.205 1.205 0 0 1-.855-1.478 1.2 1.2 0 0 1 1.479-.857l14.14 3.756a1.208 1.208 0 0 1 .8 1.642l-7.711 18.045 6.852 36.281a1.207 1.207 0 0 1-1.187 1.433"/></g><g><path fill="#3f3e3e" d="M501.059 189.117c-.365 0-.724-.166-.963-.478l-41.494-54.654-30.49 18.34a1.21 1.21 0 0 1-1.784-1.372l6.579-22.702c.059-.199.17-.381.317-.527l13.501-13.18a1.208 1.208 0 1 1 1.687 1.729L435.14 129.23l-5.631 19.433 28.78-17.309a1.214 1.214 0 0 1 1.585.306l42.148 55.515a1.209 1.209 0 0 1-.963 1.94"/></g><g><path fill="#3f3e3e" d="M427.49 152.491c-.509 0-.98-.322-1.15-.83L418 126.323l-4.736-6.875a1.215 1.215 0 0 1-.18-.975l3.167-12.883a1.208 1.208 0 1 1 2.348.573l-3.036 12.362 4.526 6.57c.066.096.118.198.152.308l8.396 25.501a1.207 1.207 0 0 1-1.148 1.586"/></g><g><path fill="#3f3e3e" d="M417.832 107.042l-.402-1.157-.19-1.193 6.149-1.314c.213-.047.439-.035.647.04l1.842.636c.018.006.284.114.304.122.618.25.917.953.666 1.573-.25.62-.948.917-1.574.667l-1.708-.605z"/></g><g><path fill="#3f3e3e" d="M431.227 108.39c-.132 0-.265-.023-.396-.067l-5.492-1.888c-.631-.214-.97-.9-.754-1.532a1.197 1.197 0 0 1 1.532-.755l5.506 1.891a1.209 1.209 0 0 1-.396 2.35"/></g><g><path fill="#3f3e3e" d="M416.006 112.926a1.207 1.207 0 0 1-1.195-1.05 1.206 1.206 0 0 1 1.038-1.355l9.712-1.288 1.59-3.577c.274-.61.991-.88 1.597-.614.61.272.885.987.613 1.595l-1.866 4.197c-.17.384-.53.653-.947.706l-10.38 1.375a1.11 1.11 0 0 1-.162.011"/></g><g><path fill="#3f3e3e" d="M425.176 228.689a1.21 1.21 0 0 1-.63-1.32l17.795-85.976c.12-.577.64-1.054 1.23-.961a1.21 1.21 0 0 1 1.153 1.054l8.862 69.679a1.208 1.208 0 0 1-1.044 1.351 1.2 1.2 0 0 1-1.355-1.045l-1.091-8.547-23.479 25.508a1.21 1.21 0 0 1-1.441.257zm18.062-79.706l-15.436 74.602 21.682-23.559c.065-.072.14-.133.217-.185z"/></g><g><path fill="#3f3e3e" d="M401.966 245.375a1.202 1.202 0 0 1-1.19-1.391l.024-.148c.006-.044.089-.355.102-.396l12.647-60.598a1.206 1.206 0 0 1 1.43-.936 1.21 1.21 0 0 1 .936 1.43l-12.666 60.67c-.006.025-.084.318-.092.343a1.21 1.21 0 0 1-1.191 1.026"/></g><g><path fill="#3f3e3e" d="M402.999 244.852l-1.033-.673-.856-.855.099-.099 24.858-26.886a1.207 1.207 0 1 1 1.774 1.64z"/></g><g><path fill="#3f3e3e" d="M426.95 218.372a1.21 1.21 0 0 1-1.179-.947l-8.826-39.155-1.036 5.07a1.205 1.205 0 0 1-.879.926l-12.666 3.289-.704-2.315 12.032-3.123 2.011-9.842c.113-.556.601-.959 1.17-.965.556.125 1.067.387 1.192.943l10.066 44.65a1.207 1.207 0 0 1-1.181 1.469"/></g><g><path fill="#3f3e3e" d="M426.949 215.815c-.668 0-1.209-.541-1.209-1.209V165.4a1.209 1.209 0 0 1 2.417 0v49.207c0 .668-.541 1.209-1.208 1.209"/></g><g><path fill="#3f3e3e" d="M452.388 212.526a1.21 1.21 0 0 1-1.08-1.75l14.9-29.77a1.211 1.211 0 0 1 1.62-.54 1.21 1.21 0 0 1 .539 1.623l-14.9 29.77a1.203 1.203 0 0 1-1.08.667"/></g><g><path fill="#3f3e3e" d="M467.278 182.733a1.208 1.208 0 0 1-1.08-1.75l11.368-22.676c.3-.596 1.03-.837 1.621-.54.598.3.837 1.026.539 1.622l-11.368 22.677c-.211.423-.64.667-1.08.667"/></g><g><path fill="#3f3e3e" d="M452.386 212.528a1.21 1.21 0 0 1-1.042-.594c-.258-.437-.685-1.17 6.371-79.654a1.222 1.222 0 0 1 1.308-1.095c.668.06 1.156.647 1.096 1.312-2.71 30.161-6.672 75.746-6.55 78.58a1.212 1.212 0 0 1-1.183 1.451"/></g><g><path fill="#3f3e3e" d="M447.574 116.582c-.56 0-1.063-.392-1.183-.96-.123-.591-1.892-9.764-2.63-13.721-.221-1.184-.341-1.958-.341-2.014a1.21 1.21 0 0 1 1.01-1.19c.866-.187 15.981-3.834 21.788-5.237.646-.144 1.303.242 1.458.893a1.21 1.21 0 0 1-.891 1.458c-12.787 3.087-18.308 4.42-20.788 4.906.042.213.09.464.138.74.737 3.946 2.5 13.083 2.622 13.67a1.211 1.211 0 0 1-1.183 1.455"/></g><g><path fill="#3f3e3e" d="M458.911 133.597c-.06 0-.12-.005-.182-.014l-24.843-3.803a1.207 1.207 0 0 1-1.012-1.377c.101-.659.737-1.102 1.377-1.011l24.842 3.803a1.207 1.207 0 0 1-.182 2.402"/></g><g><path fill="#3f3e3e" d="M400.91 152.291a1.21 1.21 0 0 1 .52-1.28l-.018-.036.049-.024 9.474-5.495 4.95-3.815a1.205 1.205 0 0 1 1.57.085c.432.41.499 1.074.157 1.563l-5.08 7.29a1.208 1.208 0 0 1-.73.49l-9.445 2.133a1.208 1.208 0 0 1-1.447-.91zm10.5-4.327l-2 1.171 1.407-.317z"/></g><g><path fill="#3f3e3e" d="M416.747 173.136c-.167 0-.336-.035-.494-.106l-14.68-6.553c-.435-.193-.813-.675-.813-1.151v-6.48c0-.273.093-.538.263-.752l6.373-8.235a1.205 1.205 0 0 1 1.695-.214c.527.407.625 1.165.216 1.694l-6.13 7.924v5.281l13.468 6.015 9.13-5.838.515-13.48c.022-.669.56-1.224 1.253-1.161a1.206 1.206 0 0 1 1.161 1.252l-.54 14.113c-.014.397-.22.76-.555.973l-10.211 6.527c-.197.126-.425.19-.651.19"/></g><g><path fill="#3f3e3e" d="M421.597 112.027a5.313 5.313 0 0 1-5.307-5.307c0-.372.03-.71.093-1.05a1.208 1.208 0 1 1 2.379.428 3.46 3.46 0 0 0-.055.622c-.002 1.812 1.84 3.135 3.512 2.835a2.877 2.877 0 0 0 2.295-2.835c0-.354-.065-.699-.196-1.05a1.209 1.209 0 0 1 2.265-.845 5.42 5.42 0 0 1 .348 1.895c0 2.545-1.75 4.686-4.25 5.207-.374.068-.714.1-1.084.1"/></g><g><path fill="#3f3e3e" d="M392.564 147.706c-.668 0-1.294-.54-1.294-1.208 0-.667.456-1.208 1.122-1.208h.172a1.208 1.208 0 0 1 0 2.416"/></g><g><path fill="#3f3e3e" d="M508.329 136.227a1.21 1.21 0 0 1-.913-2.001l2.285-2.628c.23-.265.562-.415.912-.415h11.711l8.007-6.712a1.21 1.21 0 0 1 1.555 1.853l-8.343 6.994c-.218.18-.495.281-.778.281h-11.601l-1.923 2.212a1.205 1.205 0 0 1-.912.416"/></g><g><path fill="#3f3e3e" d="M520.549 154.973a1.21 1.21 0 0 1-.52-.118l-47.063-22.46a1.215 1.215 0 0 1-.746-1.112c-.003-.848.976-1.46 1.741-1.09l46.443 22.163 9.59-7.297-2.433-12.442a1.212 1.212 0 0 1 .041-.617l5.622-16.617 4.32-9.749-25.92-22.85a1.22 1.22 0 0 1-.407-.805l-.402-4.74-13.339-13.407a1.208 1.208 0 1 1 1.713-1.705l13.65 13.72c.201.2.323.467.35.75l.398 4.694 26.22 23.118c.397.35.519.914.305 1.397l-4.64 10.454-5.478 16.207 2.518 12.868a1.21 1.21 0 0 1-.454 1.193l-10.775 8.198a1.225 1.225 0 0 1-.734.247"/></g><g><path fill="#3f3e3e" d="M528.749 133.596a1.207 1.207 0 0 1-.67-2.214l5.488-3.658 3.956-10.714-2.588-4.212a1.207 1.207 0 1 1 2.06-1.264l2.895 4.712c.195.316.232.703.103 1.05l-4.295 11.634c-.089.239-.249.445-.463.587l-5.816 3.877a1.204 1.204 0 0 1-.67.202"/></g><g><path fill="#3f3e3e" d="M534.372 116.982c-.106 0-.214-.014-.324-.044l-7.783-2.16a1.203 1.203 0 0 1-.582-.367l-5.4-6.136a1.205 1.205 0 0 1-.114-1.446c.29-.456.837-.668 1.36-.512l6.413 1.876 10.644-4.007a1.208 1.208 0 0 1 .85 2.262l-11.021 4.149a1.19 1.19 0 0 1-.765.028l-2.802-.82 2.412 2.74 7.437 2.064a1.21 1.21 0 1 1-.324 2.372"/></g><g><path fill="#3f3e3e" d="M534.371 116.985c-.309 0-.613-.117-.85-.35l-6.382-6.308a1.209 1.209 0 1 1 1.7-1.717l6.383 6.307a1.209 1.209 0 0 1-.85 2.068"/></g><g><path fill="#3f3e3e" d="M502.612 92.583c-.164 0-.328-.032-.481-.1l-6.392-2.785-1.728.239c-.08.026-.161.048-.247.058l-1.472.197c-.202.025-.39.003-.573-.061l-5.941-2.16a1.213 1.213 0 0 1-.797-1.19 1.21 1.21 0 0 1 .9-1.115c.347-.112 2.327-1.074 3.635-1.71l3.579-1.85c.17-.09.362-.136.557-.136h4.321c.393 0 .765.191.991.514.224.324.28.737.145 1.106l-.718 1.968 5.067 4.953a1.21 1.21 0 0 1 .157 1.538 1.212 1.212 0 0 1-1.003.534m-13.234-5.875l2.885 1.05.937-.126c.076-.025.154-.045.236-.057l2.303-.317c.22-.029.446.003.645.09l.67.29-.918-.896a1.216 1.216 0 0 1-.29-1.277l.393-1.079h-2.3l-3.345 1.731c-.453.22-.855.417-1.216.591"/></g><g><path fill="#3f3e3e" d="M495.909 89.665c-.158 0-.315-.03-.465-.095a1.206 1.206 0 0 1-.65-1.58l1.08-2.578a1.207 1.207 0 1 1 2.228.934l-1.079 2.578c-.192.462-.642.74-1.114.74"/></g><g><path fill="#3f3e3e" d="M493.604 89.997c-.412 0-.774-.202-.994-.512l-3.44-3.605c-.45-.474-.457-1.233.003-1.697a1.196 1.196 0 0 1 1.674-.042l.025.024 3.607 3.777a1.22 1.22 0 0 1-.875 2.055"/></g><g><path fill="#3f3e3e" d="M494.972 68.899L465.56 32.892a1.207 1.207 0 0 1 .082-1.614 1.206 1.206 0 0 1 1.615-.091l33.04 26.557c.409.33.557.885.368 1.376l-3.632 9.446a1.204 1.204 0 0 1-2.061.333zm-20.269-28.623l20.822 25.48 2.569-6.681z"/></g><g><path fill="#3f3e3e" d="M504.694 165.036c-.318 0-.633-.124-.872-.37l-31.248-32.495a1.183 1.183 0 0 1-.202-.283l-40.17-41.727 16.374 24.55c.035.05.067.102.091.158l11.252 16.847a1.208 1.208 0 1 1-2.009 1.344l-11.342-16.983a1.036 1.036 0 0 1-.091-.162L422.633 80.17a1.209 1.209 0 0 1 1.877-1.507l49.782 51.786c.078.083.148.18.202.283l31.072 32.26a1.208 1.208 0 0 1-.872 2.045"/></g><g><path fill="#3f3e3e" d="M513.341 174.042c-.32 0-.64-.129-.871-.371l-8.644-8.983a1.207 1.207 0 0 1 .036-1.707 1.208 1.208 0 0 1 1.709.033l6.561 6.82V150.33a1.209 1.209 0 0 1 2.418 0v22.504a1.209 1.209 0 0 1-1.209 1.209"/></g><g><path fill="#3f3e3e" d="M501.059 189.11a1.21 1.21 0 0 1-1.196-1.39l3.633-24.05c0-.668.534-1.13 1.202-1.13.667 0 1.201.618 1.201 1.285l-3.645 24.258a1.211 1.211 0 0 1-1.195 1.028"/></g><g><path fill="#3f3e3e" d="M474.358 77.468a1.207 1.207 0 0 1-.425-2.34l21.552-8.124a1.207 1.207 0 1 1 .85 2.262l-21.552 8.126a1.209 1.209 0 0 1-.425.076"/></g><g><path fill="#3f3e3e" d="M507.493 110.155a1.207 1.207 0 0 1-1.104-1.698l3.622-8.185-4.658-4.792a1.208 1.208 0 1 1 1.73-1.683l5.229 5.374c.345.354.44.88.239 1.331l-3.954 8.935a1.207 1.207 0 0 1-1.104.718"/></g><g><path fill="#3f3e3e" d="M475.752 199.787c-.454 0-.868-.254-1.077-.658-8.43-16.463-8.547-17.157-8.585-17.385 0-.667.535-1.32 1.202-1.32.667 0 1.2.429 1.2 1.097.235.56 4.097 8.203 7.119 14.123l10.259-26.029a1.21 1.21 0 0 1 2.248.887l-11.243 28.52c-.173.44-.591.74-1.063.763-.022.002-.042.002-.06.002"/></g><g><path fill="#3f3e3e" d="M401.025 91.678c-.012-.02-.137-.27-.148-.29l-21.504-43.883a1.209 1.209 0 0 1 .428-1.545l21.504-13.942.729.903-.654-.96.074-.05c.37-.251.85-.283 1.245-.07.397.21.643.62.643 1.068V91.2a1.21 1.21 0 0 1-1.208 1.21c-.475 0-.916-.28-1.109-.731zm-19.01-44.274l18.91 38.585V35.142z"/></g><g><path fill="#3f3e3e" d="M395.407 79.332L339.464 62.64a1.21 1.21 0 0 1-.432-2.084l19.933-16.69c.087-.073.182-.131.281-.177a1.19 1.19 0 0 1 .673-.122l20.669 2.208a1.212 1.212 0 0 1 1.074 1.332c-.071.662-.674 1.128-1.332 1.072l-17.054-1.823 33.299 30.93a1.21 1.21 0 0 1-1.168 2.045zm-53.1-18.365l48.83 14.571-31.4-29.166z"/></g><g><path fill="#3f3e3e" d="M337.598 95.847a1.208 1.208 0 0 1-.719-2.18c.872-.939 5-5.725 9.937-11.52l12.985-15.217 1.842 1.567-12.987 15.219c-4.432 5.201-9.5 11.1-10.155 11.752a1.348 1.348 0 0 1-.903.379"/></g><g><path fill="#3f3e3e" d="M337.648 95.822a1.21 1.21 0 0 1-.316-2.374c.969-.294 22.43-8.293 36.63-13.586l4.946-1.844c5.228-1.937 8.76-3.262 8.76-3.262a1.208 1.208 0 1 1 .85 2.263s-3.535 1.327-8.768 3.265l-4.944 1.842c-19.73 7.355-36.123 13.458-36.842 13.654a1.23 1.23 0 0 1-.316.042"/></g><g><path fill="#3f3e3e" d="M308.226 69.316c-.46 0-.905-.252-1.108-.69-.279-.599-.049-1.298.544-1.584l.048-.023c1.867-.831 36.705-16.467 47.966-21.645-7.96-1.224-24.685-3.898-24.9-3.932a1.207 1.207 0 0 1-1-1.386 1.2 1.2 0 0 1 1.386-.999c1.32.215 27.615 4.4 28.708 4.503.471.046.892.364 1.045.814a1.2 1.2 0 0 1-.3 1.273 1.32 1.32 0 0 1-.355.232c-3.136 1.634-51.046 23.116-51.531 23.331a1.234 1.234 0 0 1-.503.106"/></g><g><path fill="#3f3e3e" d="M347.737 84.144a1.22 1.22 0 0 1-.42-.075l-17.992-6.676a1.208 1.208 0 1 1 .84-2.266l15.528 5.762-6.658-18.007-30.547 6.414a1.212 1.212 0 0 1-1.432-.935 1.21 1.21 0 0 1 .935-1.432l31.568-6.627c.595-.111 1.177.203 1.381.764l7.93 21.451a1.206 1.206 0 0 1-1.133 1.627"/></g><g><path fill="#3f3e3e" d="M325.45 160.049a1.208 1.208 0 0 1-1.187-1.446l.124-.614 11.956-63.217-7.71-18.044a1.209 1.209 0 0 1 .802-1.643l14.139-3.755a1.208 1.208 0 0 1 .62 2.334l-12.789 3.397 7.304 17.1c.095.22.122.463.078.7l-12.153 64.217c-.115.574-.62.97-1.184.97"/></g><g><path fill="#3f3e3e" d="M303.037 189.116a1.207 1.207 0 0 1-.96-1.94l42.146-55.516a1.214 1.214 0 0 1 1.587-.305l28.78 17.311-5.633-19.436-13.296-12.957a1.208 1.208 0 1 1 1.686-1.73l13.525 13.179c.15.147.26.33.318.528l6.58 22.702a1.21 1.21 0 1 1-1.784 1.372l-30.493-18.338L304 188.638a1.21 1.21 0 0 1-.963.478"/></g><g><path fill="#3f3e3e" d="M376.608 152.492a1.207 1.207 0 0 1-1.147-1.586l8.396-25.501a1.17 1.17 0 0 1 .152-.308l4.526-6.57-3.06-12.358a1.21 1.21 0 0 1 2.345-.582l3.193 12.888c.081.335.017.69-.18.975l-4.735 6.875-8.34 25.336c-.17.509-.641.83-1.15.83"/></g><g><path fill="#3f3e3e" d="M386.642 107.093a1.2 1.2 0 0 1-.222-.022l-5.881-1.26-1.523.529c-.618.21-1.42-.055-1.65-.67-.23-.613-.051-1.25.557-1.495l2.143-.757c.208-.074.431-.088.649-.04l6.063 1.301c.649.138 1.125.785.993 1.435-.118.573-.576.979-1.13.979"/></g><g><path fill="#3f3e3e" d="M372.88 108.39a1.21 1.21 0 0 1-.396-2.35l5.506-1.892a1.201 1.201 0 0 1 1.532.755 1.208 1.208 0 0 1-.755 1.532l-5.49 1.888a1.255 1.255 0 0 1-.397.066"/></g><g><path fill="#3f3e3e" d="M388.1 112.926a1.09 1.09 0 0 1-.161-.01l-10.382-1.376a1.211 1.211 0 0 1-.947-.706l-1.866-4.197a1.21 1.21 0 0 1 .614-1.595 1.217 1.217 0 0 1 1.596.614l1.59 3.577 9.713 1.288c.66.087 1.127.693 1.038 1.356-.08.608-.6 1.05-1.196 1.05"/></g><g><path fill="#3f3e3e" d="M377.488 228.436l-23.477-25.508-1.093 8.545c-.086.664-.71 1.12-1.352 1.047a1.208 1.208 0 0 1-1.046-1.352l8.837-69.677a1.208 1.208 0 0 1 1.152-1.056c.557-.057 1.11.384 1.23.962l17.822 85.975a1.209 1.209 0 0 1-2.073 1.064zm-23.084-28.599c.077.052.149.113.215.185l21.675 23.557-15.452-74.59z"/></g><g><path fill="#3f3e3e" d="M400.943 244.383l-.025-.147-12.732-60.893a1.209 1.209 0 0 1 .937-1.43 1.216 1.216 0 0 1 1.43.936l12.69 60.67c.002.01.053.288.056.297l-1.164.366z"/></g><g><path fill="#3f3e3e" d="M402.14 245.389c-.354 0-.704-.154-.941-.447a1.316 1.316 0 0 1-.097-.088l-24.84-26.874a1.205 1.205 0 0 1 .067-1.707 1.203 1.203 0 0 1 1.708.067l24.84 26.871c.11.076.146.136.224.24a1.209 1.209 0 0 1-.961 1.938"/></g><g><path fill="#3f3e3e" d="M377.151 218.372a1.208 1.208 0 0 1-1.182-1.47l10.067-44.65c.126-.554.653-.803 1.191-.942.57.006 1.057.409 1.171.965l2.009 9.842 11.961 3.099-.23 1.195-.39 1.144-.074-.026-12.605-3.263a1.206 1.206 0 0 1-.88-.926l-1.034-5.068-8.826 39.153a1.21 1.21 0 0 1-1.178.947"/></g><g><path fill="#3f3e3e" d="M377.149 215.815c-.668 0-1.209-.541-1.209-1.209V165.4a1.209 1.209 0 0 1 2.417 0v49.207c0 .668-.541 1.209-1.208 1.209"/></g><g><path fill="#3f3e3e" d="M351.72 212.527c-.442 0-.869-.244-1.082-.667l-14.9-29.77a1.21 1.21 0 0 1 2.162-1.083l14.901 29.77a1.209 1.209 0 0 1-1.08 1.75"/></g><g><path fill="#3f3e3e" d="M336.815 182.733c-.443 0-.87-.244-1.083-.666l-11.364-22.678a1.21 1.21 0 0 1 2.162-1.081l11.365 22.676a1.21 1.21 0 0 1-1.08 1.75"/></g><g><path fill="#3f3e3e" d="M351.717 212.53a1.21 1.21 0 0 1-1.182-1.453c.121-2.834-3.839-48.418-6.55-78.578a1.208 1.208 0 0 1 1.094-1.313 1.201 1.201 0 0 1 1.313 1.095c7.057 78.485 6.625 79.216 6.368 79.654-.224.383-.629.595-1.043.595z"/></g><g><path fill="#3f3e3e" d="M357.688 115.64l-2.373-.463s1.89-9.688 2.65-13.737l.135-.72c-2.493-.483-8.029-1.819-20.784-4.9a1.21 1.21 0 0 1-.892-1.458c.157-.648.828-1.036 1.459-.892 5.806 1.403 20.927 5.05 21.788 5.236a1.208 1.208 0 0 1 1.009 1.191c0 .053-.112.758-.32 1.883-.781 4.158-2.672 13.86-2.672 13.86"/></g><g><path fill="#3f3e3e" d="M345.187 133.597a1.209 1.209 0 0 1-.181-2.403l24.843-3.802c.653-.09 1.277.352 1.377 1.01.1.66-.352 1.277-1.012 1.378l-24.843 3.803c-.061.01-.123.014-.184.014"/></g><g><path fill="#3f3e3e" d="M402.01 153.233l-9.713-2.163a1.205 1.205 0 0 1-.728-.49l-5.082-7.29a1.206 1.206 0 0 1 .158-1.563 1.2 1.2 0 0 1 1.57-.085l5.082 3.902 9.368 5.41c.374.216.604.614.604 1.045 0 .667-.542 1.234-1.21 1.234zm-8.725-4.421l1.402.312-1.984-1.143z"/></g><g><path fill="#3f3e3e" d="M402.122 153.252c-.182 0-.366-.04-.539-.132l-.049-.026a1.205 1.205 0 0 1-.519-1.626 1.201 1.201 0 0 1 1.627-.52c.593.306.85 1.047.545 1.64-.216.42-.632.664-1.065.664"/></g><g><path fill="#3f3e3e" d="M402.083 153.226h-.024a1.208 1.208 0 1 1 0-2.416c.667 0 1.22.54 1.22 1.208 0 .667-.528 1.208-1.196 1.208"/></g><g><path fill="#3f3e3e" d="M387.359 173.133c-.228 0-.454-.064-.652-.19l-10.21-6.527a1.203 1.203 0 0 1-.557-.973l-.539-14.113a1.205 1.205 0 0 1 1.16-1.253c.709-.002 1.23.495 1.253 1.162l.517 13.48 9.13 5.838 13.466-6.001v-5.312l-6.129-7.906a1.209 1.209 0 1 1 1.91-1.482l6.309 8.125c.114.188.328.643.328.863v6.48c0 .405-.205.784-.543 1.008l-14.95 6.696a1.197 1.197 0 0 1-.493.105"/></g><g><path fill="#3f3e3e" d="M382.477 112.019a5.313 5.313 0 0 1-5.307-5.307c0-.636.114-1.272.342-1.89a1.21 1.21 0 0 1 2.27.833 2.99 2.99 0 0 0-.195 1.057 2.893 2.893 0 0 0 2.89 2.89c1.608 0 2.917-1.296 2.917-2.89 0-.22-.02-.42-.056-.622a1.207 1.207 0 0 1 .976-1.403 1.21 1.21 0 0 1 1.403.975c.062.34.094.678.094 1.05 0 2.926-2.393 5.307-5.334 5.307"/></g><g><path fill="#3f3e3e" d="M411.706 147.706h-19.147a1.208 1.208 0 1 1 0-2.416h18.976c.666 0 1.293.54 1.293 1.208 0 .667-.455 1.208-1.122 1.208"/></g><g><path fill="#3f3e3e" d="M295.768 136.227c-.336 0-.669-.139-.907-.41l-1.947-2.218h-11.58c-.282 0-.558-.1-.776-.281l-8.345-6.994a1.21 1.21 0 0 1 1.55-1.853l8.01 6.712h11.689c.347 0 .677.149.907.41l2.307 2.628a1.208 1.208 0 0 1-.908 2.006"/></g><g><path fill="#3f3e3e" d="M283.549 154.972c-.26 0-.516-.084-.73-.246l-10.801-8.199a1.208 1.208 0 0 1-.455-1.197l2.538-12.864-5.517-16.307-4.6-10.354a1.207 1.207 0 0 1 .306-1.397l26.217-23.116.378-4.692a1.22 1.22 0 0 1 .35-.755l13.673-13.72a1.208 1.208 0 1 1 1.712 1.706l-13.36 13.405-.382 4.738c-.024.31-.17.6-.405.808l-25.919 22.851 4.278 9.648 5.662 16.718c.067.2.08.413.04.62l-2.456 12.439 9.614 7.297 46.442-22.163a1.208 1.208 0 1 1 1.042 2.18l-47.106 22.482a1.215 1.215 0 0 1-.521.118"/></g><g><path fill="#3f3e3e" d="M275.35 133.598a1.2 1.2 0 0 1-.667-.202l-5.841-3.876a1.206 1.206 0 0 1-.466-.59l-4.273-11.633a1.213 1.213 0 0 1 .106-1.05l2.898-4.712a1.209 1.209 0 0 1 2.058 1.265l-2.59 4.213 3.934 10.712 5.512 3.657c.555.37.706 1.119.339 1.677-.234.349-.618.539-1.01.539"/></g><g><path fill="#3f3e3e" d="M269.728 116.983a1.208 1.208 0 0 1-.322-2.373l7.433-2.065 2.415-2.744-2.83.825c-.25.074-.521.06-.765-.028l-10.997-4.15a1.21 1.21 0 0 1-.704-1.557 1.215 1.215 0 0 1 1.557-.705l10.619 4.008 6.438-1.876a1.208 1.208 0 1 1 1.247 1.957l-5.402 6.137a1.22 1.22 0 0 1-.585.366l-7.782 2.16a1.19 1.19 0 0 1-.322.045"/></g><g><path fill="#3f3e3e" d="M269.728 116.985a1.208 1.208 0 0 1-.851-2.066l6.358-6.307a1.207 1.207 0 1 1 1.703 1.714l-6.358 6.308c-.236.234-.543.35-.852.35"/></g><g><path fill="#3f3e3e" d="M301.489 92.583a1.208 1.208 0 0 1-.845-2.072l5.063-4.953-.716-1.968c-.133-.37-.08-.782.146-1.106a1.21 1.21 0 0 1 .99-.514h4.32c.193 0 .386.047.558.137.004.001 1.785.928 3.591 1.83 1.302.643 3.278 1.617 3.644 1.735.49.159.848.618.858 1.134.009.516-.288.989-.773 1.165l-5.94 2.16c-.191.064-.397.086-.594.058l-3.43-.49-6.39 2.784c-.155.068-.32.1-.482.1m6.7-5.345c.054 0 .11.003.165.012l2.31.316c.003.002.008.002.013.003l1.169.174 2.894-1.048-1.218-.597a283.989 283.989 0 0 1-3.37-1.712h-2.3l.393 1.076c.163.444.05.942-.29 1.273l-.918.894.669-.29c.152-.067.318-.1.482-.1"/></g><g><path fill="#3f3e3e" d="M308.187 89.664c-.471 0-.92-.279-1.113-.741l-1.08-2.578a1.207 1.207 0 1 1 2.229-.934l1.079 2.577a1.207 1.207 0 0 1-1.115 1.676"/></g><g><path fill="#3f3e3e" d="M311.376 89.604l-1.756-1.66 3.563-3.755a1.2 1.2 0 0 1 1.707-.045c.484.457.505 1.223.045 1.707z"/></g><g><path fill="#3f3e3e" d="M307.999 69.326a1.208 1.208 0 0 1-.937-.76l-3.632-9.446a1.21 1.21 0 0 1 .372-1.377l33.04-26.557a1.207 1.207 0 0 1 1.614.092c.436.438.47 1.135.078 1.614l-6.628 8.124a1.134 1.134 0 0 1-.146.152l-22.633 27.73a1.209 1.209 0 0 1-1.128.428zm-1.996-10.252l2.57 6.682 20.763-25.427z"/></g><g><path fill="#3f3e3e" d="M290.739 174.045a1.208 1.208 0 0 1-1.209-1.209v-22.504a1.209 1.209 0 0 1 2.418 0v19.506l87.63-91.166a1.208 1.208 0 0 1 1.888 1.498l-35.276 52.889a1.208 1.208 0 1 1-2.011-1.34l27.72-41.567-80.29 83.522c-.23.242-.548.37-.87.37"/></g><g><path fill="#3f3e3e" d="M303.039 189.114c-.587 0-1.104-.43-1.193-1.028l-3.632-24.077a1.207 1.207 0 1 1 2.388-.361l3.632 24.077a1.206 1.206 0 0 1-1.195 1.389"/></g><g><path fill="#3f3e3e" d="M329.743 77.47a1.22 1.22 0 0 1-.426-.078l-21.554-8.125a1.21 1.21 0 0 1-.706-1.557 1.219 1.219 0 0 1 1.559-.705l21.553 8.124a1.21 1.21 0 0 1-.426 2.34"/></g><g><path fill="#3f3e3e" d="M296.605 110.154c-.463 0-.903-.267-1.105-.717l-3.976-8.934a1.21 1.21 0 0 1 .24-1.334l5.226-5.374a1.208 1.208 0 1 1 1.733 1.686l-4.658 4.788 3.645 8.186a1.21 1.21 0 0 1-1.105 1.7"/></g><g><path fill="#3f3e3e" d="M328.34 199.787c-.018 0-.038 0-.058-.002a1.211 1.211 0 0 1-1.066-.763l-11.242-28.52a1.21 1.21 0 0 1 2.25-.887l10.259 26.029c2.993-5.869 6.814-13.454 7.155-14.392.13-.528.606-.928 1.172-.928.667 0 1.208.528 1.208 1.196v.025c-.054.426-.169 1.12-8.6 17.584a1.212 1.212 0 0 1-1.077.658"/></g><g><path fill="#333" d="M45.87 357.625V271.67h32.223c16.499 0 25.907 11.599 25.907 25.129 0 13.53-9.538 25.13-25.907 25.13H53.218v35.696zm31.448-79.253h-24.1v36.864h24.1c11.343 0 18.948-7.605 18.948-18.432 0-10.828-7.605-18.432-18.948-18.432z"/></g><g><path fill="#333" d="M163.426 357.625l-24.103-35.567h-18.946v35.567h-7.347V271.67h32.093c14.822 0 26.165 9.408 26.165 25.129 0 15.592-11.084 24.226-23.845 24.743l24.876 36.083zm-18.953-79.253h-24.096v36.982h24.096c11.34 0 19.071-7.73 19.071-18.555s-7.731-18.427-19.071-18.427z"/></g><g/><g clip-path="url(#vys1c)"><path fill="#333" d="M183.16 357.625h7.348V271.67h-7.348z"/></g><g clip-path="url(#vys1c)"><path fill="#333" d="M205.46 357.625V271.67h27.454c26.68 0 43.436 19.46 43.436 43.043 0 23.839-16.756 42.912-43.436 42.912zm27.454-79.253h-20.107v72.55h20.107c22.685 0 35.701-16.109 35.701-36.21 0-20.103-12.887-36.34-35.701-36.34z"/></g><g clip-path="url(#vys1c)"><path fill="#333" d="M288.22 357.625V271.67h54.522v6.702h-47.175V310.2h46.27v6.702h-46.27v34.02h47.175v6.702z"/></g><g clip-path="url(#vys1c)"><path fill="#333" d="M378.2 314.71c0-26.55 19.46-44.46 43.563-44.46 14.18 0 24.49 5.67 32.352 14.69l-5.541 3.995c-6.06-7.215-15.855-11.986-26.811-11.986-20.234 0-35.83 15.338-35.83 37.76 0 22.166 15.596 37.887 35.83 37.887 11.472 0 20.493-5.67 25.265-10.438v-20.62h-32.483v-6.57h39.829v30.025c-7.604 8.505-19.075 14.302-32.611 14.302-24.102 0-43.563-18.04-43.563-44.586"/></g><g clip-path="url(#vys1c)"><path fill="#333" d="M517.026 357.625l-24.103-35.567h-18.947v35.567h-7.346V271.67h32.093c14.822 0 26.165 9.408 26.165 25.129 0 15.592-11.084 24.226-23.846 24.743l24.875 36.083zm-18.954-79.253h-24.096v36.982h24.096c11.34 0 19.07-7.73 19.07-18.555s-7.73-18.427-19.07-18.427z"/></g><g clip-path="url(#vys1c)"><path fill="#333" d="M533.53 314.71c0-25.13 16.499-44.46 41.761-44.46 25.133 0 41.76 19.33 41.76 44.46 0 25.126-16.627 44.456-41.76 44.456-25.262 0-41.761-19.33-41.761-44.457m75.796 0c0-21.907-13.406-37.76-34.03-37.76-20.885 0-34.032 15.853-34.032 37.76 0 21.65 13.147 37.758 34.032 37.758 20.624 0 34.03-16.108 34.03-37.758"/></g><g clip-path="url(#vys1c)"><path fill="#333" d="M628.8 324.635V271.67h7.475v52.836c0 17.398 9.151 27.965 26.037 27.965 17.014 0 26.033-10.567 26.033-27.965V271.67h7.478v52.965c0 21.262-11.342 34.535-33.511 34.535-22.04 0-33.512-13.402-33.512-34.535"/></g><g clip-path="url(#vys1c)"><path fill="#333" d="M710.78 357.625V271.67h32.221c16.498 0 25.908 11.599 25.908 25.129 0 13.53-9.54 25.13-25.908 25.13h-24.876v35.696zm31.45-79.253h-24.105v36.864h24.104c11.343 0 18.947-7.605 18.947-18.432 0-10.828-7.604-18.432-18.947-18.432z"/></g><g clip-path="url(#vys1c)"><path fill="#333" d="M81.24 422.16v-18.666h2.899v3.014c1.507-1.97 3.673-3.398 6.223-3.398v2.973a5.245 5.245 0 0 0-1.159-.116c-1.778 0-4.214 1.47-5.064 2.976v13.217z"/></g><g clip-path="url(#vys1c)"><path fill="#333" d="M96.78 412.807c0-5.41 3.864-9.777 9.2-9.777 5.641 0 8.966 4.405 8.966 10.01v.734H99.832c.233 3.518 2.707 6.453 6.726 6.453 2.128 0 4.292-.85 5.76-2.356l1.39 1.894c-1.853 1.853-4.365 2.86-7.42 2.86-5.527 0-9.508-3.98-9.508-9.818m9.161-7.38c-3.981 0-5.951 3.359-6.109 6.216h12.256c-.041-2.781-1.895-6.217-6.147-6.217"/></g><g clip-path="url(#vys1c)"><path fill="#333" d="M121.88 419.685l1.507-2.086c1.237 1.43 3.594 2.665 6.147 2.665 2.86 0 4.406-1.35 4.406-3.206 0-4.521-11.557-1.74-11.557-8.657 0-2.898 2.512-5.371 6.959-5.371 3.169 0 5.41 1.199 6.917 2.706l-1.353 2.008c-1.12-1.353-3.169-2.357-5.564-2.357-2.553 0-4.14 1.274-4.14 2.938 0 4.095 11.56 1.392 11.56 8.658 0 3.127-2.514 5.642-7.345 5.642-3.052 0-5.643-.93-7.537-2.94"/></g><g clip-path="url(#vys1c)"><path fill="#333" d="M145.93 418.254v-12.212h-3.09v-2.552h3.09v-5.1h2.9v5.1h3.789v2.552h-3.79v11.593c0 1.391.62 2.398 1.895 2.398.812 0 1.586-.35 1.974-.774l.85 2.165c-.737.695-1.778 1.199-3.482 1.199-2.744 0-4.135-1.587-4.135-4.369"/></g><g clip-path="url(#vys1c)"><path fill="#333" d="M172.268 422.159v-2.124c-1.545 1.698-3.672 2.59-6.184 2.59-3.17 0-6.534-2.127-6.534-6.184 0-4.176 3.365-6.145 6.534-6.145 2.552 0 4.677.812 6.184 2.548v-3.36c0-2.512-2.01-3.943-4.714-3.943-2.244 0-4.06.812-5.722 2.59l-1.353-2.007c2.011-2.09 4.406-3.094 7.462-3.094 3.941 0 7.226 1.778 7.226 6.3v12.829zm0-7.452c-1.12-1.546-3.09-2.32-5.14-2.32-2.706 0-4.6 1.7-4.6 4.099 0 2.357 1.894 4.058 4.6 4.058 2.05 0 4.02-.77 5.14-2.317z"/></g><g clip-path="url(#vys1c)"><path fill="#333" d="M197.442 422.156v-2.627c-1.432 1.622-3.865 3.093-6.65 3.093-3.903 0-5.952-1.894-5.952-5.954V403.49h2.899v12.29c0 3.285 1.662 4.252 4.177 4.252 2.278 0 4.443-1.316 5.526-2.823V403.49h2.898v18.666z"/></g><g clip-path="url(#vys1c)"><path fill="#333" d="M210.01 422.16v-18.666h2.899v3.014c1.507-1.97 3.673-3.398 6.223-3.398v2.973a5.245 5.245 0 0 0-1.159-.116c-1.778 0-4.214 1.47-5.064 2.976v13.217z"/></g><g clip-path="url(#vys1c)"><path fill="#333" d="M238.315 422.159v-2.124c-1.546 1.698-3.673 2.59-6.185 2.59-3.169 0-6.53-2.127-6.53-6.184 0-4.176 3.361-6.145 6.53-6.145 2.553 0 4.677.812 6.185 2.548v-3.36c0-2.512-2.011-3.943-4.715-3.943-2.243 0-4.06.812-5.722 2.59l-1.353-2.007c2.01-2.09 4.406-3.094 7.463-3.094 3.94 0 7.225 1.778 7.225 6.3v12.829zm-.002-7.452c-1.12-1.546-3.09-2.32-5.138-2.32-2.705 0-4.6 1.7-4.6 4.099 0 2.357 1.895 4.058 4.6 4.058 2.048 0 4.018-.77 5.138-2.317z"/></g><g clip-path="url(#vys1c)"><path fill="#333" d="M263.492 422.159v-12.212c0-3.286-1.662-4.326-4.176-4.326-2.279 0-4.445 1.39-5.527 2.897v13.64h-2.899v-18.665h2.899v2.707c1.315-1.546 3.865-3.17 6.65-3.17 3.903 0 5.951 1.97 5.951 6.03v13.099z"/></g><g clip-path="url(#vys1c)"><path fill="#333" d="M276.65 418.254v-12.212h-3.09v-2.552h3.09v-5.1h2.9v5.1h3.789v2.552h-3.79v11.593c0 1.391.62 2.398 1.895 2.398.812 0 1.586-.35 1.973-.774l.85 2.165c-.736.695-1.778 1.199-3.481 1.199-2.744 0-4.135-1.587-4.135-4.369"/></g><g clip-path="url(#vys1c)"><path fill="#333" d="M305.964 422.161v-16.114h-3.094v-2.551h3.094v-1.43c0-3.826 2.087-6.066 5.41-6.066 1.47 0 2.786.345 3.944 1.429l-1.199 1.894c-.616-.542-1.353-.928-2.32-.928-1.891 0-2.936 1.315-2.936 3.67v1.43h3.79v2.552h-3.79v16.114z"/></g><g clip-path="url(#vys1c)"><path fill="#333" d="M319.96 422.16v-18.666h2.899v3.014c1.507-1.97 3.672-3.398 6.222-3.398v2.973a5.234 5.234 0 0 0-1.159-.116c-1.778 0-4.214 1.47-5.063 2.976v13.217z"/></g><g clip-path="url(#vys1c)"><path fill="#333" d="M348.265 422.159v-2.124c-1.545 1.698-3.673 2.59-6.185 2.59-3.168 0-6.53-2.127-6.53-6.184 0-4.176 3.362-6.145 6.53-6.145 2.554 0 4.678.812 6.185 2.548v-3.36c0-2.512-2.01-3.943-4.714-3.943-2.243 0-4.06.812-5.722 2.59l-1.353-2.007c2.01-2.09 4.406-3.094 7.462-3.094 3.94 0 7.226 1.778 7.226 6.3v12.829zm.01-7.452c-1.12-1.546-3.093-2.32-5.144-2.32-2.71 0-4.607 1.7-4.607 4.099 0 2.357 1.898 4.058 4.607 4.058 2.05 0 4.023-.77 5.144-2.317z"/></g><g clip-path="url(#vys1c)"><path fill="#333" d="M373.442 422.159v-12.212c0-3.286-1.663-4.326-4.176-4.326-2.28 0-4.445 1.39-5.527 2.897v13.64h-2.899v-18.665h2.899v2.707c1.315-1.546 3.864-3.17 6.65-3.17 3.902 0 5.95 1.97 5.95 6.03v13.099z"/></g><g clip-path="url(#vys1c)"><path fill="#333" d="M384.93 412.807c0-5.525 3.749-9.777 9.316-9.777 3.403 0 5.41 1.391 6.843 3.248l-1.933 1.778c-1.237-1.702-2.823-2.435-4.756-2.435-3.981 0-6.454 3.052-6.454 7.186s2.473 7.228 6.454 7.228c1.933 0 3.519-.774 4.756-2.436l1.933 1.779c-1.433 1.853-3.44 3.248-6.843 3.248-5.567 0-9.316-4.252-9.316-9.819"/></g><g clip-path="url(#vys1c)"><path fill="#333" d="M421.66 422.164v-12.287c0-3.285-1.7-4.25-4.214-4.25-2.241 0-4.407 1.39-5.527 2.897v13.64h-2.899V396.39h2.899v9.815c1.315-1.545 3.865-3.17 6.688-3.17 3.903 0 5.951 1.895 5.951 5.951v13.178z"/></g><g clip-path="url(#vys1c)"><path fill="#333" d="M433.73 398.9a1.94 1.94 0 0 0 1.934 1.932c1.083 0 1.974-.85 1.974-1.932a1.98 1.98 0 0 0-1.974-1.97c-1.041 0-1.934.888-1.934 1.97zm.504 23.253h2.9v-18.656h-2.9z"/></g><g clip-path="url(#vys1c)"><path fill="#333" d="M445.19 419.685l1.507-2.086c1.237 1.43 3.595 2.665 6.148 2.665 2.86 0 4.405-1.35 4.405-3.206 0-4.521-11.556-1.74-11.556-8.657 0-2.898 2.512-5.371 6.959-5.371 3.169 0 5.41 1.199 6.917 2.706l-1.354 2.008c-1.12-1.353-3.169-2.357-5.563-2.357-2.553 0-4.14 1.274-4.14 2.938 0 4.095 11.56 1.392 11.56 8.658 0 3.127-2.514 5.642-7.345 5.642-3.053 0-5.644-.93-7.538-2.94"/></g><g clip-path="url(#vys1c)"><path fill="#333" d="M468.16 398.9c0 1.082.89 1.932 1.932 1.932 1.082 0 1.974-.85 1.974-1.932a1.98 1.98 0 0 0-1.974-1.97c-1.042 0-1.932.888-1.932 1.97zm.502 23.253h2.901v-18.656h-2.901z"/></g><g clip-path="url(#vys1c)"><path fill="#333" d="M493.832 422.159v-12.212c0-3.286-1.663-4.326-4.176-4.326-2.279 0-4.445 1.39-5.527 2.897v13.64h-2.899v-18.665h2.899v2.707c1.315-1.546 3.865-3.17 6.65-3.17 3.902 0 5.951 1.97 5.951 6.03v13.099z"/></g><g clip-path="url(#vys1c)"><path fill="#333" d="M506.364 426.951l1.47-2.165c1.545 1.857 3.4 2.553 6.068 2.553 3.09 0 5.989-1.508 5.989-5.606v-2.664c-1.353 1.894-3.632 3.322-6.26 3.322-4.871 0-8.311-3.634-8.311-9.66 0-5.99 3.402-9.701 8.312-9.701 2.51 0 4.751 1.237 6.259 3.285v-2.823h2.899v18.125c0 6.184-4.327 8.116-8.888 8.116-3.17 0-5.335-.617-7.538-2.782m13.527-10.164v-8.153c-1.004-1.624-3.245-3.014-5.564-3.014-3.751 0-5.992 2.976-5.992 7.111 0 4.094 2.24 7.108 5.992 7.108 2.319 0 4.56-1.427 5.564-3.052"/></g><g clip-path="url(#vys1c)"><path fill="#333" d="M545.23 412.807c0-5.525 3.752-9.777 9.316-9.777 3.403 0 5.41 1.391 6.843 3.248l-1.933 1.778c-1.237-1.702-2.823-2.435-4.756-2.435-3.981 0-6.454 3.052-6.454 7.186s2.473 7.228 6.454 7.228c1.933 0 3.519-.774 4.756-2.436l1.933 1.779c-1.433 1.853-3.44 3.248-6.843 3.248-5.564 0-9.316-4.252-9.316-9.819"/></g><g clip-path="url(#vys1c)"><path fill="#333" d="M568.24 412.807c0-5.41 3.556-9.777 9.236-9.777 5.685 0 9.242 4.368 9.242 9.777 0 5.413-3.557 9.819-9.242 9.819-5.68 0-9.236-4.406-9.236-9.819m15.421.005c0-3.788-2.203-7.191-6.185-7.191-3.98 0-6.221 3.403-6.221 7.191 0 3.83 2.24 7.233 6.221 7.233 3.982 0 6.185-3.404 6.185-7.233"/></g><g clip-path="url(#vys1c)"><path fill="#333" d="M617.844 422.159v-12.675c0-2.356-1.046-3.863-3.44-3.863-1.933 0-3.982 1.39-4.949 2.86v13.678h-2.897v-12.675c0-2.356-1.004-3.863-3.44-3.863-1.894 0-3.903 1.39-4.91 2.897v13.64h-2.898v-18.665h2.898v2.707c.774-1.2 3.285-3.17 6.03-3.17 2.861 0 4.484 1.545 5.026 3.477 1.042-1.698 3.553-3.477 6.26-3.477 3.403 0 5.218 1.895 5.218 5.642v13.487z"/></g><g clip-path="url(#vys1c)"><path fill="#333" d="M633.329 419.34v9.93h-2.899v-25.777h2.899v2.785c1.353-1.895 3.672-3.248 6.3-3.248 4.91 0 8.312 3.71 8.312 9.777 0 6.03-3.403 9.819-8.312 9.819-2.552 0-4.793-1.2-6.3-3.286m11.546-6.528c0-4.137-2.239-7.191-5.985-7.191-2.279 0-4.559 1.353-5.561 2.978v8.43c1.002 1.624 3.282 3.016 5.561 3.016 3.746 0 5.985-3.096 5.985-7.233"/></g><g clip-path="url(#vys1c)"><path fill="#333" d="M668.088 422.159v-2.124c-1.545 1.698-3.672 2.59-6.184 2.59-3.17 0-6.534-2.127-6.534-6.184 0-4.176 3.365-6.145 6.534-6.145 2.552 0 4.677.812 6.184 2.548v-3.36c0-2.512-2.01-3.943-4.714-3.943-2.244 0-4.06.812-5.722 2.59l-1.353-2.007c2.01-2.09 4.406-3.094 7.462-3.094 3.94 0 7.226 1.778 7.226 6.3v12.829zm0-7.452c-1.12-1.546-3.09-2.32-5.14-2.32-2.706 0-4.6 1.7-4.6 4.099 0 2.357 1.894 4.058 4.6 4.058 2.05 0 4.02-.77 5.14-2.317z"/></g><g clip-path="url(#vys1c)"><path fill="#333" d="M693.262 422.159v-12.212c0-3.286-1.662-4.326-4.176-4.326-2.279 0-4.445 1.39-5.527 2.897v13.64h-2.899v-18.665h2.899v2.707c1.315-1.546 3.865-3.17 6.65-3.17 3.903 0 5.951 1.97 5.951 6.03v13.099z"/></g><g clip-path="url(#vys1c)"><path fill="#333" d="M705.264 426.832c.424.195 1.12.312 1.583.312 1.277 0 2.127-.429 2.785-1.974l1.236-2.819-7.808-18.861h3.132l6.221 15.306 6.185-15.306h3.169l-9.354 22.454c-1.12 2.704-3.015 3.749-5.488 3.786-.62 0-1.586-.113-2.128-.27z"/></g></g></g></g></svg>