<svg xmlns="http://www.w3.org/2000/svg" width="526" height="603" viewBox="0 0 526 603"><defs><linearGradient id="28zwa" x1="42.75" x2="500.75" y1="-34.14" y2="624" gradientUnits="userSpaceOnUse"><stop offset=".01" stop-color="#e9b977"/><stop offset=".19" stop-color="#dbae75"/><stop offset=".6" stop-color="#b77e41"/><stop offset=".87" stop-color="#e8b67c"/><stop offset="1" stop-color="#ecd8be"/></linearGradient></defs><g><g opacity=".1"><path fill="url(#28zwa)" d="M159.509 156.971c-1.19 7.819-1.19 7.819-12.3 6.631M282.91 402.61l-.172.085.172-.184zm-.172.085a18.083 18.083 0 0 1-19.171 4.566 44.922 44.922 0 0 0 19.171-4.566zm-88.212 114.22c4.463-1.383 4.86 1.484 4.96 3.461.099 1.978-.199 4.054-2.58 2.57-2.38-1.482-7.043.693-7.34-3.36-.298-4.054 3.968-1.88 4.96-2.571zM180.34 185.079c.695 5.74 9.226 11.975-1.388 17.914m61.403 78.184a68.471 68.471 0 0 0 7.638 2.079 6.262 6.262 0 0 1-6.646 0c-2.58-.792-6.746-.792-6.746-3.662a9.899 9.899 0 0 1 5.158-6.928c4.266-2.276 3.076 2.969 5.655 4.454-7.638.494-9.226 1.979-5.06 4.057zm12.796 194.77a40.734 40.734 0 0 0 21.228-19.498c-.43 11.293-9.906 20.128-21.228 19.794zm-35.81-263.355c1.389-5.443-2.678-11.38 2.678-16.824 3.175-3.266-2.579-5.047-4.067-7.72a8.533 8.533 0 0 1 6.734 4.3 8.494 8.494 0 0 1 .21 7.972 96.38 96.38 0 0 0-5.555 12.57zm20.435-88.774c.066-.015.132-.03.198-.047l-.198.245zm.198-.047c5.78-7.253 2.855-14.999 1.189-24.002 4.658 4.552 9.414 7.62 8.522 13.46a12.971 12.971 0 0 1-9.71 10.542zm-44.044-2.625a70.61 70.61 0 0 1 0-51.364c.695-1.683-.297-5.84 4.167-4.256 4.464 1.584.694 3.959 0 5.542A59.255 59.255 0 0 0 195.914 116c.893 2.375 3.075 4.948 1.39 7.818-2.084.1-2.58-1.385-3.374-2.672zm129.85 53.839a92.65 92.65 0 0 0 42.545-27.118c-7.339 19.101-28.86 33.452-42.546 27.513zM198.492 99.867l-.027.248-.37-.644zm-.027.248a114.993 114.993 0 0 0 26.215 31.035c.695.792 1.786 1.683.695 2.97-1.091 1.287-2.48.495-3.968.495-14.991-4.48-24.628-18.998-22.942-34.5zm98.133-49.732c-7.44 10.392-12.102 22.169-18.45 32.56-1.984 3.464-4.067 7.324-8.928 6.136-4.86-1.187-4.86-5.938-4.86-9.896-.054-9.462 5.571-18.037 14.284-21.773 5.753-2.672 12.102-4.058 17.954-7.027zm-86.4 15.043a134.126 134.126 0 0 0 21.03 36.222 24.81 24.81 0 0 1 4.364 10.392 6.825 6.825 0 0 1-3.77 7.027c-3.074 1.781-4.662-.396-6.546-2.376a73.395 73.395 0 0 1-17.26-29.69 29.628 29.628 0 0 1 2.182-21.575zm-3.869 300.162c6.25 5.145 9.721 4.254 19.641-3.958a13.971 13.971 0 0 1-10.618 10.041 14.007 14.007 0 0 1-13.784-4.896c-2.183-2.375-6.25-2.968-5.754-7.816.298-2.77-.1-5.541 2.282-7.718a53.603 53.603 0 0 0 9.126-14.643c5.356 5.046 16.764 3.463 15.772 14.94-.893 9.597-6.745 13.456-16.665 14.05zm8.73 167.57a25.346 25.346 0 0 1-10.615-14.353c-.992-2.772 0-4.257 2.877-5.247a37.296 37.296 0 0 0 14.979-10.69c1.488-1.584 2.876-4.06 5.852-2.574a7.03 7.03 0 0 1 4.067 5.444 5.543 5.543 0 0 1-3.967 6.039 42.424 42.424 0 0 1-6.051 1.781 8.04 8.04 0 0 0 6.695 3.586 8.04 8.04 0 0 0 6.696-3.586 12.751 12.751 0 0 0-2.182-18.313c-1.389-1.089-3.968-1.386-2.58-4.058.398-.792-.495-1.881 1.687-2.08 2.182-.197 3.075 1.783 4.166 3.268a23.03 23.03 0 0 1 4.563 16.729 12.66 12.66 0 0 1-4.335 9.437 12.715 12.715 0 0 1-9.949 3.036c-2.976 0-5.952-1.683-9.027-.495a14.106 14.106 0 0 0 17.26 3.266c12.102-5.048 12.102-15.74 11.507-26.826 5.411 10.121 2.73 22.66-6.348 29.697-9.523 7.523-16.467 6.039-30.751-6.93-1.588 5.841 2.083 9.306 5.455 12.87zm5.158-256.04a28.622 28.622 0 0 1-25.792 4.751c-3.273-.99-3.868-2.672-3.273-5.84a44.845 44.845 0 0 0-6.051-32.758c-2.976-4.849-.992-7.62 2.877-10.59 2.48 2.673-2.183 4.652.595 8.611 4.166 5.84 5.555 4.75 9.92 1.188 4.364-3.563 5.257.99 6.348 3.365 1.984 4.354-.893 8.808-.893 13.36a13.362 13.362 0 0 0 6.511-8.993 13.337 13.337 0 0 0-2.543-10.8c-.793-1.485-3.77-3.068-1.686-4.652 2.083-1.583 3.57 1.287 4.86 2.771a16.213 16.213 0 0 1 5.379 12.777A16.22 16.22 0 0 1 210 262.57a45.92 45.92 0 0 1-10.415 7.72c8.431 3.76 18.351-3.86 24.303-18.012 2.083 6.136-.893 12.37-8.333 17.715a81.172 81.172 0 0 1-20.93 7.126c9.424 7.026 17.36 1.088 25.493 0zM96.32 161.13c-4.067 2.376 1.092 8.118-4.761 9.207 17.26 0 23.906 4.553 25.692 18.413-3.571-6.534-7.043-12.375-15.475-12.375.695 5.148 7.043 5.346 7.54 10.692a65.304 65.304 0 0 0-18.65 1.089 32.366 32.366 0 0 0-9.92 4.85c-4.364 3.564-7.836-.89-11.11-1.781-3.273-.891-2.281-4.455-1.587-6.732 4.663-16.235 22.419-31.381 40.572-27.322a9.928 9.928 0 0 1 2.38 1.187 28.719 28.719 0 0 0-14.68 2.772zm69.835 353.222a13.877 13.877 0 0 1-9.262 8.385 13.91 13.91 0 0 1-12.264-2.446c-2.281-1.188-5.356-4.85-7.142-2.178-1.785 2.673 1.885 5.346 4.266 7.326a23.448 23.448 0 0 0 17.458 4.157c-9.92 5.94-18.55 1.188-29.759-15.838-2.777 1.286-.892 4.355-2.777 6.335a33.1 33.1 0 0 1 1.587-25.738 4.357 4.357 0 0 1 2.106-2.623 4.373 4.373 0 0 1 3.35-.346c3.291.445 6.628.445 9.92 0 3.67-.396 9.72-3.168 10.415-2.08 3.274 4.851 5.555 10.296 8.531 15.443 1.587 2.772-1.885 4.95-4.166 6.534a25.837 25.837 0 0 1-12.3 2.574c6.943 6.038 7.836 5.939 20.037.495zm84.516-38.505c-.793 2.474-2.38 2.474-4.464 2.474-12.691-2.072-22.365-12.457-23.51-25.237a3.366 3.366 0 0 1 2.58-3.562 44.107 44.107 0 0 0 23.41-20.982c1.687-3.167 3.968-2.474 6.646-1.583 9.29 4.21 14.128 14.536 11.408 24.346a19.1 19.1 0 0 1-10.595 15.979 19.183 19.183 0 0 1-19.164-1.233l-4.166-2.276c2.48 9.402 9.622 11.282 17.855 12.074zm-10.804-143.009c-7.442 6.73-25.5 1.09-31.85-4.948a31.705 31.705 0 0 1-3.472-36.42c2.778 2.672-.893 6.532 1.985 9.204 2.976-2.573 2.48-7.423 6.25-9.897.496 3.76-3.472 7.126 0 10.49 2.778-1.088 2.382-4.156 3.473-6.234a12.884 12.884 0 0 1 7.489-7.186 12.928 12.928 0 0 1 10.37.654c5.723 4.371 7.068 12.42 3.076 18.408-3.175 4.948-7.442 4.058-12.006 2.375-1.686 0-4.365-2.177-5.258 0-.893 2.177 1.984 3.365 3.87 4.256 7.002 3.83 15.788 1.42 19.843-5.444-3.175 10.986-14.387 13.856-27.88 8.017 1.587 5.74 4.167 7.126 11.509 7.62 12.501.792 16.867-1.781 22.92-13.657.002 8.075-5.53 15.106-13.395 17.022-12.332 2.712-24.848-3.738-29.765-15.34-4.366 13.955 12.402 24.742 32.84 21.08zm-93.254 75.414c-.197.035-.394.069-.59.101.198-.13.395-.262.59-.398zm-.59.101a24.75 24.75 0 0 1-24.332 1.552 24.642 24.642 0 0 1-13.864-20.754c-.396-6.532-.496-11.975 8.432-12.767a29.196 29.196 0 0 0 10.912-4.948c2.678-1.781 4.761-4.652 8.134-1.781a16.614 16.614 0 0 1 6.745 13.558 8.22 8.22 0 0 1-6.348 7.62c-1.587.495-3.472-.197-4.762 1.683a6.856 6.856 0 0 0 9.424.792 11.573 11.573 0 0 0 6.349-11.777c.062-7.2-5.096-13.392-12.202-14.648 3.869-5.344 4.266-5.443 8.234-1.385a21.642 21.642 0 0 1 6.25 19.793c-2.183 10.887-10.417 14.648-25.197 11.877 5.06 5.938 7.44 6.235 22.022 3.266a21.563 21.563 0 0 1-16.242 4.17 21.533 21.533 0 0 1-14.31-8.723c.98 9.788 13.12 15.413 30.755 12.472zm-35.517 61.061l-.12-.47.12.173zm-.12-.47a35.957 35.957 0 0 1-5.565-27.45 36.024 36.024 0 0 1 16.001-23.246c-2.38 5.344-7.737 8.709-6.25 15.24 5.953-4.65 9.325-14.35 19.84-10.688-7.182 15.184-1.324 33.323 13.392 41.468a41.735 41.735 0 0 1-19.145-5.542 20.435 20.435 0 0 0 16.863 11.381c-10.657 1.09-20.946-4.237-26.188-13.559 1.687 10.59 9.126 14.054 16.467 18.013-16.864-.693-24.204-11.283-24.204-32.66-4.514 6.168-4.854 12.627-1.211 27.042zm67.97-12.287c-10.485 5.963-23.668 4.223-32.239-4.257a22.139 22.139 0 0 1-4.662-26.726 9.912 9.912 0 0 1 5.952-5.444 40.864 40.864 0 0 0 18.153-13.264c1.587-1.88 1.885-5.74 5.357-4.751 3.472.99 5.654 3.96 6.447 9.305-1.983-1.782-2.579-2.871-4.067-3.564-1.488-.693-3.57-2.376-4.96-.693-1.388 1.683.1 3.069.993 4.356 7.24 11.383 5.555 16.53-7.143 21.281l-2.777.99c8.928 2.97 13.59-.198 18.847-11.779 3.274 7.028 3.274 7.028 0 10.69-6.366 8.152-17.597 10.716-26.882 6.137 2.281 8.315 9.92 8.81 28.47 1.683-6.845 12.868-24.403 12.77-35.81-.89-.695 12.768 11.903 18.806 34.321 16.926zm51.48-404.59a96.18 96.18 0 0 0 13.982 35.925 83.295 83.295 0 0 1-17.553-29.69 41.906 41.906 0 0 0 7.636 22.861c3.868 7.225 9.322 13.36 13.785 20.288a90.772 90.772 0 0 1-25.487-33.649c0 6.928 4.066 10.887 4.86 16.33-15.807-14.38-17.342-38.679-3.471-54.927.297.495.991.495.991.495.794 3.266-1.289 9.105 2.777 9.896 4.066.792 4.066-5.344 5.851-8.412a46.851 46.851 0 0 1 17.157-18.21 48.415 48.415 0 0 1-5.455 22.367c-3.47 5.047-3.272 12.173-6.05 17.22-3.47 6.73 1.786 12.272 0 19.299a206.444 206.444 0 0 1-9.024-19.794zm-124.39 213.572c.199 10.293-6.249 14.746-16.169 17.023 10.615 2.474 15.872-1.287 23.61-15.538 1.289 16.923-14.087 25.533-33.926 18.804 2.38 6.73 4.761 8.016 18.45 8.016-10.118 5.74-18.35 1.584-29.46-14.944-2.382 5.245.098 12.173 7.538 17.814 12.499 9.501 27.577 6.433 43.25-8.907-7.255 13.709-22.856 20.82-37.993 17.32-14.482-4.85-20.83-22.664-15.177-42.458 1.39 1.88-.694 4.355 1.39 5.84h1.19c3.174-2.97 3.967-9.403 7.24-9.898 3.274-.494 7.044 3.266 10.813 4.553a125.141 125.141 0 0 0 12.698 2.672c0 6.136-6.647 7.126-9.92 12.47a21.518 21.518 0 0 0 16.467-12.767zm78.078 53.542c-.1 9.6-1.489 19.1-11.41 22.07-9.922 2.969-14.685-3.662-19.844-9.897-2.183 8.808 5.259 15.142 19.844 17.418a19.89 19.89 0 0 1-13.692-.692 17.53 17.53 0 0 1-9.922-11.58 146.517 146.517 0 0 1-1.984-15.439c-10.021 15.241 2.282 33.65 22.72 35.629-7.752 3.6-16.968 1.383-22.224-5.345a33.877 33.877 0 0 1-5.259-31.67 16.158 16.158 0 0 1 11.708-10.49 42.068 42.068 0 0 1 26.59 1.584c7.243 2.474 8.533 9.402 9.128 17.022-2.381-2.87-2.48-6.334-5.655-8.61zm96.42 68.89c1.588 1.88-.1 2.87-1.091 3.959a21.16 21.16 0 0 1-16.418 6.665 21.15 21.15 0 0 1-15.73-8.15 41.197 41.197 0 0 0-3.175-3.86c-7.143-7.425-7.54-9.107-3.175-18.412a42.777 42.777 0 0 1 12.601-16.135 7.451 7.451 0 0 1 11.807 1.188 38.364 38.364 0 0 0 6.251 5.74c7.01 4.819 9.607 13.92 6.192 21.699-3.414 7.779-11.88 12.047-20.182 10.176a14.222 14.222 0 0 0-2.976 0c8.136 8.216 14.883 7.325 25.896-2.87zM59.022 246.24c-3.868-.197-5.654-3.463-9.92-3.463 1.489 7.422 8.333 8.412 14.186 12.173-11.507-.297-16.467-8.116-23.014-14.944a22.653 22.653 0 0 0 9.92 17.319c-11.471-4.399-18.8-15.665-18.153-27.909-.439-14.385 9.02-27.211 22.914-31.076-4.364 3.76-8.63 6.334-9.92 12.371 7.837-3.76 14.285-9.897 24.205-7.72-2.976 2.574-7.738 1.584-9.92 5.345.992 2.177 2.877 1.088 4.265 1.088 3.67-.197 4.464.792 3.67 4.553a70.308 70.308 0 0 0-1.884 21.872c.794 9.204.794 9.204-7.638 6.136zm139.273-113.714c-5.257.693-10.515-1.088-16.17 3.365a42.029 42.029 0 0 1 36.803 9.897c-5.059 1.485-5.257 1.584-7.936-1.188a20.668 20.668 0 0 0-21.03-4.651c6.448 1.386 13.69.693 19.046 7.225-6.15 2.77-11.209-4.949-16.863-.792 1.984 1.781 5.158.396 6.844 2.672-3.075 4.058-7.737.495-11.606 2.177-.297 1.485 4.762 1.584 1.092 4.256-10.416 7.423-10.317 19.2-11.904 30.185A138.256 138.256 0 0 1 173 209.82c-1.885-7.422-3.77-13.162-4.662-19.1a12.456 12.456 0 0 1 5.356-14.648c1.091-.693 2.679-2.276 1.885-3.167-.794-.89-2.58-.692-3.869 0l-11.903 6.235c3.174-10.985 3.967-20.98 13.094-27.315 1.09-.792 2.38-1.188 1.984-3.266-.397-2.078-2.084-2.078-3.373-2.078H159.41c7.084-14.336 24.271-20.504 38.885-13.955zm8.225 344.71c-6.446 9.008-13.686 10.097-27.968 3.96 1.983 11.878 13.587 12.472 32.431 1.98a17.343 17.343 0 0 1-14.083 12.966c-11.703 2.08-20.134-2.87-28.564-16.827a14.139 14.139 0 0 0 4.86 16.432c11.406 10.195 23.406 9.403 43.837-2.574-8.064 13.153-24.593 18.384-38.779 12.274-13.017-6.079-19.82-20.575-16.166-34.447a3.569 3.569 0 0 1 3.868-3.167 45.178 45.178 0 0 0 28.762-10.79c.992-.89 2.083-2.375 3.57-.89a6.23 6.23 0 0 1 2.282 5.048 13.167 13.167 0 0 1-8.63 11.977 69.535 69.535 0 0 1-6.842 1.88c4.363 4.95 8.529 4.752 14.281 0a16.114 16.114 0 0 0 2.579-23.954c8.008 6.256 9.978 17.542 4.562 26.132zM344.016 43.755c-8.432 10.195-7.44 22.963-15.178 31.476a66.888 66.888 0 0 1 5.754-24.547c-7.54 8.71-7.54 20.092-10.614 31.97-2.183-7.027 1.488-11.383 1.488-16.925-5.06 6.73-4.067 14.945-8.134 23.062-1.488-6.137 1.19-10.096 1.19-15.342a44.19 44.19 0 0 0-4.761 11.482c-1.885-2.772 1.09-5.246 0-8.71-5.357 8.314-2.48 19.696-11.805 26.427a48.421 48.421 0 0 1 4.266-14.154c3.57-8.81.694-20.192 6.547-26.923a272.991 272.991 0 0 0 18.847-20.983 81.91 81.91 0 0 1 13.094-14.946 18.57 18.57 0 0 1 12.102-5.147c-2.58 6.928-5.158 13.362-7.44 19.796-1.09 2.177-3.372 4.157-1.09 6.532 2.28 2.376 4.86-.297 7.042-1.187a88.633 88.633 0 0 1 27.974-7.82 167.681 167.681 0 0 0-35.513 23.063l-.893-6.335c-3.57 4.85-2.083 11.877-9.92 13.263.596-8.413 5.258-14.748 7.044-24.052zM162.088 188.049l-.05.023c.01-.237.026-.476.05-.716zm-.05.023c-.277 6.705 4.751 12.273.249 18.487a18.166 18.166 0 0 1-16.566 8.018c5.555 6.335 11.606 4.652 21.525-5.246a6.62 6.62 0 0 1 .849 5.687 6.638 6.638 0 0 1-3.924 4.211 20.57 20.57 0 0 1-21.03 1.485c-1.785 0-4.761-2.375-5.951 0-1.19 2.376 1.388 4.257 3.174 5.741 10.114 7.225 24.09 5.503 32.14-3.96l3.273-3.464c-2.37 10.326-11.93 17.385-22.517 16.63-12.562-.531-23.288-9.222-26.387-21.38a27.367 27.367 0 0 1 2.356-22.247 27.474 27.474 0 0 1 18.178-13.092c5.158-.792 7.936.297 5.952 6.236-.496 2.376-3.175 5.445-.496 7.325 2.678 1.881 4.265-1.98 6.448-3.167zm-4.903 108.84a21.768 21.768 0 0 1-24.903-4.354 37.165 37.165 0 0 1-10.914-26.227c0-1.188-.595-2.771 0-3.464 3.671-5.245 9.029-8.808 13.593-14.35s11.509-4.256 17.76-1.485c1.19 0 3.968.594 3.968 0 4.862-5.047 7.342-.297 9.922 2.375a28.054 28.054 0 0 1 5.445 22.604 28.11 28.11 0 0 1-13.482 18.963 22.27 22.27 0 0 1-19.843-2.969c-2.084-1.089-3.175-3.662-7.243-3.662 5.33 8.88 15.396 13.804 25.697 12.57zm44.83 96.891c16.864-3.959 25.593-1.286 29.76 8.612 3.978 9.595.615 20.657-8.035 26.429-11.11 7.028-20.832 4.355-31.942-8.612-.267 8.64 5.114 16.454 13.292 19.302 12.896 5.84 24.105-.594 37.299-21.48-3.27 14.476-15.985 24.879-30.85 25.242-14.91-1.253-26.259-13.88-25.891-28.805.445-16.33 13.409-29.567 29.759-30.388-4.365 3.464-10.713 3.761-13.392 9.7zM171.91 567.095a16.297 16.297 0 0 0 17.458 2.87c7.34-2.97 9.92-8.61 9.92-24.346a24.898 24.898 0 0 1-5.654 25.731c-9.82 8.61-19.244 4.355-28.47-2.177 2.877 14.548 20.633 17.418 35.612 6.334-1.762 6.635-7.704 11.313-14.582 11.48-12.625 1.109-24.57-5.882-29.76-17.418a21.635 21.635 0 0 0 3.572 14.35c-10.423-8.778-13.53-23.502-7.539-35.727.298-.396.992-.99.992-.99a66.339 66.339 0 0 0 25.196-11.183c2.678-1.584 6.15.297 8.73 1.88a18.38 18.38 0 0 1 5.455 19.794 11.086 11.086 0 0 1-5.135 7.046 11.132 11.132 0 0 1-8.653 1.168 9.044 9.044 0 0 0-7.142 1.188zM95.73 212.987c.992 1.386 2.58.891 3.87.891a13.306 13.306 0 0 1 11.998 5.886 13.233 13.233 0 0 1 .8 13.314c-1.289 3.76-2.579 7.125 4.069 5.938-9.327 11.183-21.729 11.876-36.71 2.771.098 5.542.198 5.74 8.135 11.381-11.211-1.484-16.768-9.897-16.768-27.612 0-17.715 9.327-31.076 25.003-32.758-4.068 2.375-7.342 4.156-10.517 6.334a12.564 12.564 0 0 0-5.953 9.897 31.394 31.394 0 0 1 27.88-10.788 15.17 15.17 0 0 1 12.502 10.392c-8.399-9.537-22.944-10.51-32.544-2.178a22.75 22.75 0 0 0-10.914 19.794c11.609-22.763 32.048-24.05 38.497-11.48-10.12-6.136-13.89-6.928-19.348-1.782zm176.368-19.003a76.25 76.25 0 0 1 9.324 39.584 334.972 334.972 0 0 0 0 66.897c-6.844-11.084-19.542-19.594-16.764-35.428.198-1.286.694-2.77-1.29-3.661-1.984-.89-2.976.692-3.868 2.177-2.58 4.156-5.06 8.51-7.738 12.964a34.969 34.969 0 0 1-6.745-38.397 234.229 234.229 0 0 0 13.292-41.959c.992-4.948.298-9.995 1.587-14.844.596 17.714-2.38 35.23-3.273 52.845a218 218 0 0 0 5.654-57.694 68.145 68.145 0 0 1 5.258 23.454c.91 8.04.676 16.17-.695 24.146-1.488 7.52-3.075 15.14-4.166 22.76a103.698 103.698 0 0 0 8.63-38.99 172.87 172.87 0 0 1 1.19 52.053 149.87 149.87 0 0 0-.396-65.907zm33.727-143.205a92.246 92.246 0 0 1-7.936 48.296c-2.38-3.068 1.587-5.344-.595-7.917a57.994 57.994 0 0 1-19.84 28.601l11.408-19.892c-9.225 9.105-12.995 23.356-28.271 27.711l9.92-12.47a65.479 65.479 0 0 1-18.65 12.569 54.438 54.438 0 0 0 9.92-13.559c-5.456 4.75-9.225 11.679-19.145 13.658 13.094-9.897 11.705-21.476 8.333-33.55a66.004 66.004 0 0 0-3.274-9.897c-7.043-15.736-1.587-24.94 14.185-31.373a21.142 21.142 0 0 0-17.458 9.303c-1.29-7.027 4.761-12.767 18.55-18.408-5.357-.396-5.357-.396-18.749 7.324 1.687-7.72 9.126-12.272 25.792-16.627-3.732.36-7.44.921-11.11 1.683a133.901 133.901 0 0 0-12.797 5.047 191.858 191.858 0 0 1 19.84-21.872c-.1 7.027 3.075 6.829 6.745 5.84 3.67-.99 11.21-6.236 8.73 5.046-.596 2.772 1.884 2.772 3.868 2.772l12.102-1.09c4.96-.593 5.158 1.386 3.174 5.147a21.01 21.01 0 0 1-10.713 9.897c-5.357 2.177-10.217 3.76-15.276 5.938a29.032 29.032 0 0 0-15.994 15.885 28.936 28.936 0 0 0 .221 22.515c2.183 5.146 5.258 9.896 11.606 9.896 6.158.06 11.597-3.99 13.293-9.896 4.067-9.105 8.035-18.21 12.201-27.216a34.744 34.744 0 0 1 9.92-13.361zm-108.72 184.089l.2-.215.097.215zm.2-.215a76.978 76.978 0 0 0-10.616-16.908 12.844 12.844 0 0 1-1.389-14.45 13.335 13.335 0 0 0 .496-9.899 33.979 33.979 0 0 1 1.587-25.14 61.174 61.174 0 0 0 12.4 39.096 70.249 70.249 0 0 1-8.73-34.642 35.785 35.785 0 0 0 5.258 12.966c-.496-6.433-2.777-11.68-2.777-17.42a13.835 13.835 0 0 1 3.163-11.306 13.9 13.9 0 0 1 10.724-4.827c4.266-.396 8.531-.396 12.797-.89a23.026 23.026 0 0 0 18.053-9.898c2.679 8.314-1.983 14.747-3.273 22.27 5.059-4.356 4.96-10.195 7.638-16.332a55.412 55.412 0 0 1-3.273 30.88 45.657 45.657 0 0 0 7.737-24.347c6.349 7.027 3.869 26.426-6.646 51.27 5.654-5.147 8.928-13.164 13.49-32.96 3.076 17.42-4.463 32.366-12.498 47.113 5.158-3.76 6.448-9.6 10.812-13.658-5.456 14.45-5.456 30.98-17.558 42.857-3.075 3.068-4.86 4.058-6.844-.99a48.697 48.697 0 0 1-1.091-39.591 52.06 52.06 0 0 0 3.868-19.795 16.31 16.31 0 0 0-4.067-10.888 13.108 13.108 0 0 0-15.078-5.543c-5.396 2.08-8.35 7.888-6.844 13.461.496 4.454 1.488 8.81 2.38 13.263a40.32 40.32 0 0 1-9.72 36.308zm208.506-8.404a147.392 147.392 0 0 1-39.082-34.54 228.215 228.215 0 0 0 65.07 40.874 264.355 264.355 0 0 1-56.837-39.587c3.77-1.88 5.555.198 7.737 1.682a289.771 289.771 0 0 0 41.165 28.008 12.32 12.32 0 0 0 8.53 2.276 187.86 187.86 0 0 1-43.148-30.878 158.899 158.899 0 0 0 33.328 14.153c-8.332-5.344-16.465-6.928-22.02-13.064 9.919 2.078 17.954 9.897 29.757 9.897-6.546-3.76-13.291-4.553-18.945-8.61a36.266 36.266 0 0 1 22.516 6.235c1.488-2.673-4.067-3.464-1.785-4.256 2.281-.792 3.967 1.287 6.05 1.287 17.657-1.188 33.23 9.303 53.068 7.917-11.407-4.75-22.12-3.959-32.039-8.907 14.383 1.089 28.071 7.126 43.05 6.433-.1-2.177-2.877-1.089-2.877-3.365l9.125-.693c-10.861 14.85-29.567 21.786-47.512 17.616a82.294 82.294 0 0 0-25.79-5.047c-2.182.198-5.357-.594-6.25 1.98-.892 2.573 1.885 3.562 3.274 5.047 5.456 5.245 10.316 10.49 15.375 15.835.992.89 2.678 1.88 1.984 3.266-.695 1.385-2.48 1.385-3.77 1.385a67.077 67.077 0 0 1-34.915-8.115 15.105 15.105 0 0 0-8.927-1.88 8.833 8.833 0 0 0-6.646 3.661c-1.19 2.573 2.38 2.97 3.372 4.75a25.418 25.418 0 0 1 3.075 5.543 33.135 33.135 0 0 0 10.514 18.903c-13.366 4.47-28.096-.215-36.403-11.58a301.771 301.771 0 0 1-19.838-27.513A196.995 196.995 0 0 0 323.879 183a32.517 32.517 0 0 1 16.069 13.46 355.663 355.663 0 0 0 42.95 52.156 27.669 27.669 0 0 0 7.637 5.74 504.874 504.874 0 0 1-52.174-67.496c17.755 16.527 28.07 39.983 49.595 53.343a265.724 265.724 0 0 1-35.113-44.337c13.688 9.303 23.012 24.148 38.585 31.274-13.787-11.876-25.591-26.425-39.677-38.598a21.53 21.53 0 0 1 12.598 8.017 119.02 119.02 0 0 0 41.065 29.69zm-113.18 26.227c-1.587-8.314-6.646-13.163-6.646-19.794a100.832 100.832 0 0 0 33.43 36.915c-.397-3.266-2.48-4.058-3.968-5.047a79.879 79.879 0 0 1-29.065-39.588c-3.67-10.59-4.265-22.168-7.936-33.055-2.876-8.214-6.646-16.033-9.92-24.05a137.608 137.608 0 0 1 29.76 67.398 118.025 118.025 0 0 0-31.148-75.81c5.753 1.683 9.622 5.444 18.252 18.805 4.662 7.818 9.424 15.933 14.582 23.653a226.777 226.777 0 0 0-11.606-25.534 100.022 100.022 0 0 1 15.872 25.336 115.998 115.998 0 0 0-6.944-21.278l6.25 7.323c.594-4.453-3.473-6.73-3.473-11.183a59.42 59.42 0 0 1 10.813 12.47c-.893-6.136-4.96-8.907-6.646-13.262 19.244 7.72 30.75 22.763 41.96 40.181a19.876 19.876 0 0 0-20.435 3.266 13.952 13.952 0 0 0-5.897 9.183 13.93 13.93 0 0 0 2.525 10.61c2.579 4.553 5.654 8.71 8.134 13.362a24.297 24.297 0 0 1 1.686 21.278c-2.777-.792-2.281-5.938-5.555-5.048-3.273.891-2.48 4.355-3.273 6.73a44.427 44.427 0 0 1-14.98 23.159c-1.289-7.918-2.28-15.044-3.67-22.07-.694-2.97-.892-7.72-4.76-7.62-3.87.098-3.77 4.354-4.465 7.224a55.042 55.042 0 0 1-8.134 23.356 184.855 184.855 0 0 1-3.472-34.54c3.075-1.484 2.976 3.167 6.051 1.782-.397-4.454-5.158-7.72-4.662-12.965 3.869 3.068 5.059 7.819 10.515 9.897a38.461 38.461 0 0 1-9.424-19.794zm65.669-69.674c11.408-9.303 19.84-21.278 29.76-31.175a201.96 201.96 0 0 0-19.84 16.429 163.43 163.43 0 0 1 21.228-28.107 17.851 17.851 0 0 0-8.829 6.63 250.636 250.636 0 0 1-22.517 26.524 19.866 19.866 0 0 1-18.848 6.334 84.338 84.338 0 0 0 28.073-26.226 141.942 141.942 0 0 1 24.998-27.315c-4.861 1.187-8.234 5.245-12.797 7.125a85.019 85.019 0 0 1 24.8-24.247c.495.792.991 1.485.991 1.485 0 3.86-2.975 9.006 0 11.38 2.976 2.376 6.647-1.88 9.92-3.562a64.997 64.997 0 0 1 32.24-7.522c4.364.1 4.86 1.386 2.578 4.85a233.54 233.54 0 0 1-19.84 25.336c-1.388 1.682-4.562 2.77-2.777 5.839 1.786 3.068 4.266.792 6.349 0a65.215 65.215 0 0 1 45.234 0 45.148 45.148 0 0 0-12.598 15.736c-.893 2.672-2.182 5.443 1.785 7.026 14.186 5.74 23.41 18.31 35.91 26.92-12.598.594-24.7-2.672-38.29-2.672a69.587 69.587 0 0 1 22.815-3.266c-16.864-3.761-32.04 1.682-48.706 4.156a71.643 71.643 0 0 1 38.985-11.183c-7.143-2.97-11.011-2.87-25.296 1.484-8.332 2.475-16.565 5.246-25.196 7.027a86.906 86.906 0 0 1 42.655-17.517c-14.681-2.573-26.882 5.344-39.679 11.48-4.563 2.177-8.332 7.324-15.673 4.652 11.805-8.71 24.7-14.054 36.108-21.773a399.473 399.473 0 0 0-44.54 21.377c6.944-10.194 18.054-14.35 27.974-21.08a67.79 67.79 0 0 0-29.76 17.022 7.45 7.45 0 0 1-9.919 2.573c12.896-8.016 23.212-18.606 36.306-25.534-17.26 4.75-28.073 21.477-46.226 24.545 20.038-15.044 37.596-33.749 63.09-40.38a72.4 72.4 0 0 0-37.398 15.934 191.297 191.297 0 0 1-34.52 22.466l21.823-19.793c-13.094 4.75-18.351 19.298-32.933 19.298a318.977 318.977 0 0 0 29.759-28.898c-13.69 7.125-21.228 22.663-37.199 26.622zm-47.464 156.546c-8.434 12.598-21.711 12.277-40.325-1.061-.397 6.335 2.876 10.295 11.705 14.056 13.094 5.642 24.997 1.782 37.893-12.175-4.84 11.64-16.68 18.81-29.263 17.718-12.022.448-22.994-6.798-27.28-18.015-3.82-12.135.528-25.35 10.813-32.864 1.389 2.772-2.678 3.564-1.884 6.434 3.372-.495 6.348-.297 5.852 4.752-.297 3.167.695 3.068 3.67 1.286 2.976-1.781 4.365-5.642 8.035-6.533 1.29-3.266 2.381-7.919 6.448-7.226 6.448.99 13.59 1.188 17.955 7.523 5.621 8.363 4.052 19.593-3.619 26.105zm-192.783 14.174a24.06 24.06 0 0 1-23.654 2.298 23.956 23.956 0 0 1-14.048-19.123 39.489 39.489 0 0 1 0-5.245c-8.036 15.142 4.96 30.086 29.765 34.144-11.112 2.375-20.637 2.474-27.582-6.433a34.672 34.672 0 0 1-6.747-35.925 9.204 9.204 0 0 1 4.116-5.879 9.247 9.247 0 0 1 7.095-1.148c7.442.495 14.883-.89 22.423.495a19.838 19.838 0 0 1 15.592 11.642 19.752 19.752 0 0 1-1.9 19.335zm138.471-218.917a124.9 124.9 0 0 0 22.619-7.819 142.818 142.818 0 0 0 29.76-22.663c1.29-1.386 2.381-3.167 4.564-3.167 7.341-7.62 15.575-14.35 22.221-22.664 17.659-18.012 49.602-38.499 62.796-39.587A139.774 139.774 0 0 1 371.402 67.8a57.368 57.368 0 0 1 36.804 1.98 76.483 76.483 0 0 1-18.055 12.866c-1.488.89-3.869 1.484-3.77 3.562.1 2.079 2.282 1.584 3.87 2.771 1.587 1.188 4.463 1.09 4.463 3.761a7.036 7.036 0 0 1-5.456 5.147 32.514 32.514 0 0 1-16.864 0c-2.877-.495-8.73-4.157-5.655 4.156 1.29 2.771-2.083 2.771-3.472 2.771a44.988 44.988 0 0 0-19.245 8.808 28.18 28.18 0 0 0-9.92 20.784c.834 8.607 7.905 15.282 16.566 15.637h7.936c-13.194 12.37-25.99 22.168-44.145 20.98a66.235 66.235 0 0 0 29.761-14.25 72.048 72.048 0 0 1-33.332 9.896c8.928-3.958 19.146-5.64 25.396-14.449a59.61 59.61 0 0 1-29.067 10.689 133.139 133.139 0 0 0 26.587-18.409c-14.782 7.72-28.472 18.112-46.428 17.122a69.52 69.52 0 0 0 25.297-11.58 66.604 66.604 0 0 1-34.423 6.236 66.033 66.033 0 0 0 41.368-19.794c-2.977 1.88-5.754 3.86-8.83 5.641-3.075 1.782-6.547 3.266-9.92 4.949-1.19-2.574 1.786-2.475 1.786-4.553-7.837 1.782-14.682 7.027-23.115 6.433 18.948-4.157 29.563-18.507 40.475-32.461-14.384 12.074-25.594 29.492-48.014 28.304 28.273-8.412 41.864-33.847 61.704-53.64a24.692 24.692 0 0 0-10.813 8.511c-7.043 7.72-13.392 16.132-20.733 23.455a59.583 59.583 0 0 1-43.749 19.794c-3.174-.099-6.15-.198-7.936-4.058 6.349-1.088 12.896 1.089 18.848-1.88l-1.785-2.078zm-73.208-21.872c.496 4.156 1.687 10.095-4.067 11.48a40.258 40.258 0 0 0-26.585 20.882c-2.083 3.563-4.463 5.444-6.745 10.392-2.282 4.948-14.086 5.344-18.65 1.682a35.233 35.233 0 0 0-8.53-5.047 43.239 43.239 0 0 0-36.183 3.624 43.05 43.05 0 0 0-20.558 29.926c-.297 2.771-.099 4.652-3.868 5.344-18.05 1.872-32.057 16.56-33.033 34.64-2.36 18.142 8.305 35.464 25.593 41.566 2.777.99 3.77 1.583 3.77 5.146-3.483 16.674 4.64 33.612 19.839 41.369-18.848 21.278-2.877 52.156 13.292 60.865 4.464 2.375 11.309.99 13.788 4.256 2.48 3.265-.793 9.303 0 14.449a39.564 39.564 0 0 0 12.5 22.169 37.442 37.442 0 0 0-10.912 11.876c-10.912 22.367-7.936 47.01 18.054 59.38 3.769 1.782 4.265 2.97 2.48 6.73-7.54 16.231-3.076 45.427 19.839 52.157 3.075.89 3.273 2.078 2.083 5.047-6.775 14.258-3.16 31.275 8.829 41.566 12.237 11.363 30.237 14.001 45.233 6.631 14.236-5.392 23.423-19.26 22.816-34.44a119.1 119.1 0 0 0-2.778-18.21 39.764 39.764 0 0 0 25.692-1.881c19.546-10.2 28.299-33.415 20.336-53.938-1.885-4.453-1.984-6.73 2.678-9.896 12.814-8.153 19.525-23.14 17.062-38.103a51.797 51.797 0 0 0-10.614-25.039c19.938-6.433 31.545-22.07 28.271-41.072-1.091-9.303.694-12.173 8.829-15.834a39.631 39.631 0 0 0 21.314-21.629 39.503 39.503 0 0 0-.285-30.33 4.643 4.643 0 0 1 0-5.245 47.907 47.907 0 0 0 6.349-41.27c-.992-5.344-3.968-10.886-2.182-15.933a97.197 97.197 0 0 0 5.455-22.862 25.272 25.272 0 0 1 12.5 11.678 129.684 129.684 0 0 0 19.839 25.732c11.135 11.473 28.549 14.18 42.654 6.63 5.853-3.562 5.853-4.453 0-7.422a7.43 7.43 0 0 1-3.868-4.058c-1.984-5.839-3.968-11.678-6.051-18.012a17.59 17.59 0 0 1 2.777.792c1.29.693 2.381 1.584 3.571 2.375 12.674 9.675 29.994 10.617 43.647 2.375 6.15-3.562 6.15-4.75 0-9.105l-15.97-11.38c37.1 14.053 60.807-3.465 82.432-25.535 2.679-2.672 3.373-5.938-1.984-5.938a34.662 34.662 0 0 1-21.327-8.808 95.055 95.055 0 0 0-26.188-16.923c-3.472-1.188-2.183-2.87-.695-4.652a40.444 40.444 0 0 1 11.309-9.897c7.043-4.156 7.043-5.146 0-9.006a55.962 55.962 0 0 0-38.29-5.245 107.928 107.928 0 0 0 13.887-22.763c1.786-4.552.893-6.532-3.868-7.422a81.426 81.426 0 0 0-21.923-1.683 154.053 154.053 0 0 0-21.228 5.048c-.496-2.277.694-3.068 1.488-4.355.794-1.286 2.58-3.068 1.488-4.256-1.091-1.187-3.373-1.781-4.563-1.187-1.19.594-2.282.594-3.472.594a57.928 57.928 0 0 0-31.942 22.663 63.836 63.836 0 0 1-20.434 18.012c-4.754 3.23-11.175 2.425-14.979-1.88a10.77 10.77 0 0 1 2.182-15.34 41.711 41.711 0 0 1 31.942-13.163c2.182 0 6.15 1.287 6.15-1.583.595-4.553 3.968-3.959 6.448-5.245 6.25-3.266 12.4-6.928 12.4-14.846a5.934 5.934 0 0 1 3.075-6.037 57.758 57.758 0 0 0 14.284-14.746c1.984-3.167 1.389-5.146-2.777-4.552a47.999 47.999 0 0 1-22.717-5.939 54.4 54.4 0 0 0 12.4-21.871c1.29-4.949.595-7.819-5.357-7.819a81.512 81.512 0 0 0-37 5.74c-1.984.792-3.869 2.87-6.547 1.386a44.782 44.782 0 0 1 6.15-13.658c1.19-1.781 3.869-3.86 2.182-6.037-1.686-2.177-4.463-.99-6.745-.99a47.423 47.423 0 0 0-33.43 21.872c-3.273 4.553-6.249 8.908-9.92 14.45-.693-12.965-.693-12.965-12.895-6.334a36.684 36.684 0 0 0 7.34-14.746c1.092-4.256 0-5.939-4.86-5.939a61.441 61.441 0 0 1-14.284 1.287c.221-.959.554-1.889.992-2.771 4.364-5.344.893-6.433-3.67-7.522-4.564-1.088-8.73 1.089-12.797 1.089-.992-2.276 2.678-4.454 0-6.136-2.678-1.682-4.265 1.089-6.15 2.276a37.415 37.415 0 0 1-9.92 5.938c.695-4.453 1.389-8.115 2.083-11.876.595-1.98 2.083-4.453 0-5.938-2.083-1.484-3.968.693-5.753 1.683a73.617 73.617 0 0 0-23.212 23.257c-2.48-1.98-.595-9.105-5.159-5.641a35.427 35.427 0 0 0-17.359 26.127c-.1 7.621-2.877 6.928-8.333 5.345-9.423-2.87-13.193-.594-15.871 8.61-1.19 3.86-1.686 7.917-2.678 11.876-2.923 13.753-12.805 25-26.09 29.69a84.702 84.702 0 0 1-34.52 3.464c-23.014-1.484-48.21-29.591-51.682-51.859a27.757 27.757 0 0 1 4.167-22.466 14.605 14.605 0 0 1 21.427-2.771c6.708 5.145 8.192 14.637 3.372 21.575-1.885 2.376-4.166 4.355-7.34 2.97a4.161 4.161 0 0 1-2.703-2.75 4.15 4.15 0 0 1 .718-3.783c1.19-1.88.496-3.265-1.09-3.86-1.588-.593-2.679.496-3.572 1.683a6.618 6.618 0 0 0-.893 6.73 9.915 9.915 0 0 0 8.829 7.126 12.004 12.004 0 0 0 11.308-7.324 21.036 21.036 0 0 0 1.012-16.278 21.097 21.097 0 0 0-10.931-12.126 19.881 19.881 0 0 0-16.082-.544 19.815 19.815 0 0 0-11.197 11.53 45.926 45.926 0 0 0 3.57 38.894c.893 1.98 3.175 3.563 2.183 6.334-3.77-1.188-7.34-2.573-10.912-3.464a51.588 51.588 0 0 0-40.77 4.652C2.412 88.66-4.934 110.344 3.472 128.667A19.832 19.832 0 0 0 19.14 140.78a19.861 19.861 0 0 0 18.357-7.462 10.866 10.866 0 0 0 .496-12.668 8.029 8.029 0 0 0-4.722-4.176 8.052 8.052 0 0 0-6.29.514 5.944 5.944 0 0 0-3.335 3.56 5.926 5.926 0 0 0 .459 4.853 6.54 6.54 0 0 0 4.145 4.095 6.56 6.56 0 0 0 5.775-.83c.452.216.856.518 1.19.891a14.28 14.28 0 0 1-10.659 8.031 14.304 14.304 0 0 1-12.652-4.27 24.902 24.902 0 0 1-7.043-26.721C8.307 92.145 19.977 81.084 34.62 78.39a50.282 50.282 0 0 1 46.126 9.897c9.523 8.709 18.154 19.1 31.347 21.08 25.196 3.959 49.698 3.365 68.148-21.476.397 9.6 2.38 17.121 3.075 24.84z"/></g></g></svg>