<svg xmlns="http://www.w3.org/2000/svg" viewBox="0 0 517.87 383.08">
<defs>
    <style>
      .cls-3 {
        fill: #ba2a5d;
      }
    </style>
  </defs>
  <title>Ресурс 3</title>
  <g class="cls-1">
      <path class="cls-3" d="M398.74,19.57c-2.93,5.82-3.24,12.54-4.15,19S391.84,51.83,386.86,56c-4.3,3.62-11,5.59-12.05,11.12-1,5.38,4.85,10,10.32,10.1,9.3.25,16.65-7.6,21.9-15.27s10.43-16.39,19.17-19.57c6.62-2.41,14.44-1.22,20.42-4.95A17.33,17.33,0,0,0,454,26.17c2.07-10-4-21.15-13.57-24.83-7.8-3-16.89-.77-23,4.75-3.73,3.38-4.08,3.34-8.73,4.82A17.11,17.11,0,0,0,398.74,19.57Z"/>
  </g>
</svg>
