<svg xmlns="http://www.w3.org/2000/svg" viewBox="0 0 517.87 383.08">
<defs>
    <style>
      .cls-3 {
        fill: #ba2a5d;
      }
    </style>
  </defs>
  <title>Ресурс 3</title>
  <g class="cls-1">
      <path class="cls-3" d="M143.76,326.1c-1.3,4.95-.57,10.76,3.14,14.28,4.63,4.39,12.12,3.94,17.44,7.46a13.55,13.55,0,0,1,5.77,8.62c.44,2.25,1,5.33,3.29,5.39a3.8,3.8,0,0,0,2.53-1.27c5.34-5,6.37-13.49,3.84-20.36s-8-12.27-14.11-16.34c-2-1.34-4.16-2.63-5.54-4.62a39.92,39.92,0,0,1-2.41-5.12C152.27,303.06,145,321.48,143.76,326.1Z"/>
  </g>
</svg>
