<svg xmlns="http://www.w3.org/2000/svg" width="400" height="220" viewBox="0 0 400 220"><defs><clipPath id="iaw2a"><path d="M232.03 0h19.615v21.27H232.03z"/></clipPath><clipPath id="iaw2b"><path d="M0 219.191h400V0H0z"/></clipPath></defs><g><g><g><path fill="#fefefe" d="M196.848 34.008a.667.667 0 0 1-.518-.65V1.107a.667.667 0 0 1 1.032-.56l11.994 7.777c.285.184.386.55.237.855l-11.994 24.471a.67.67 0 0 1-.751.357zm.819-31.669v28.134l10.455-21.349z"/></g><g><path fill="#fefefe" d="M199.948 26.488a.67.67 0 0 1 .125-.822L218.5 8.546l-9.438 1.008c-.356.027-.696-.226-.735-.594a.67.67 0 0 1 .594-.736l11.435-1.221c.033-.001.067-.001.091-.003h.003a.665.665 0 0 1 .381.136l.03.023 11.05 9.239a.672.672 0 0 1-.237 1.155l-30.954 9.243a.667.667 0 0 1-.772-.308zM220.451 8.56l-17.368 16.145 27.016-8.073z"/></g><g><path fill="#fefefe" d="M232.38 35.85c-.03-.016-.063-.034-.214-.192-1.456-.393-4.949-1.694-13.669-4.94l-13.962-5.2a.669.669 0 0 1 .467-1.254 13603.52 13603.52 0 0 0 25.461 9.474c-1.678-1.937-4.882-5.677-11.055-12.937a.67.67 0 0 1 .076-.944.673.673 0 0 1 .942.077c4.863 5.72 12.262 14.389 12.72 14.83.305.17.313.466.167.784-.098.209-.158.344-.866.18z"/></g><g><path fill="#fefefe" d="M227.087 29.45a.67.67 0 0 1-.627-.9l4.39-11.874a.676.676 0 0 1 .765-.423l11.399 2.406c-15.685-7.043-20.844-9.38-22.503-10.335a1.315 1.315 0 0 1-.09.008V8.27c-.723-.426-.694-.56-.654-.747a.67.67 0 0 1 .655-.53c.416-.041 9.709-1.51 15.843-2.487a.67.67 0 0 1 .765.555.666.666 0 0 1-.554.765A3096.379 3096.379 0 0 1 222.692 8c4.81 2.21 17.548 7.947 26.549 11.988a.666.666 0 0 1 .36.816.667.667 0 0 1-.773.448l-16.925-3.573-3.684 9.968 8.59-3.184a.674.674 0 0 1 .859.393.67.67 0 0 1-.394.86l-9.955 3.69a.66.66 0 0 1-.232.043"/></g><g><path fill="#fefefe" d="M239.414 71.463a.67.67 0 0 1-.657-.545l-6.72-35.527a.66.66 0 0 1 .044-.387l4.04-9.459-7.074-1.88a.668.668 0 1 1 .343-1.293l7.82 2.08a.672.672 0 0 1 .43.353c.086.174.09.376.014.555l-4.264 9.982 6.682 35.33a.668.668 0 0 1-.658.791"/></g><g><path fill="#fefefe" d="M251.827 87.534a.668.668 0 0 1-.534-.265L228.34 57.038l-16.867 10.14a.666.666 0 0 1-.752-.043.667.667 0 0 1-.235-.716l3.634-12.562a.666.666 0 0 1 .176-.292l7.477-7.296a.67.67 0 0 1 .945.013.667.667 0 0 1-.012.945l-7.351 7.172-3.111 10.756 15.92-9.572a.665.665 0 0 1 .879.169l23.315 30.709a.67.67 0 0 1-.532 1.073"/></g><g><path fill="#fefefe" d="M211.128 67.27a.669.669 0 0 1-.635-.459l-4.621-14.023-2.614-3.807a.664.664 0 0 1-.098-.538l1.753-7.128a.68.68 0 0 1 .809-.489.67.67 0 0 1 .49.81l-1.682 6.837 2.498 3.637a.636.636 0 0 1 .084.17l4.65 14.113a.669.669 0 0 1-.634.877"/></g><g><path fill="#fefefe" d="M205.558 42.15a.668.668 0 0 1-.138-1.324l3.43-.724a.73.73 0 0 1 .358.022l1.152.4a.67.67 0 0 1-.437 1.263l-.977-.338-3.25.686a.736.736 0 0 1-.138.014"/></g><g><path fill="#fefefe" d="M213.18 42.875a.676.676 0 0 1-.22-.037l-3.04-1.049a.669.669 0 0 1 .437-1.264l3.04 1.05a.668.668 0 0 1-.217 1.3"/></g><g><path fill="#fefefe" d="M204.768 45.38a.669.669 0 0 1-.086-1.331l5.378-.707.877-1.976a.67.67 0 0 1 1.222.543l-1.03 2.319a.67.67 0 0 1-.523.392l-5.75.756a.865.865 0 0 1-.088.005"/></g><g><path fill="#fefefe" d="M209.833 109.434a.672.672 0 0 1-.349-.732l9.853-47.569a.654.654 0 0 1 .681-.533.67.67 0 0 1 .637.585l4.891 38.55a.67.67 0 0 1-1.327.167l-.598-4.717-12.991 14.105a.664.664 0 0 1-.491.216.694.694 0 0 1-.306-.072zm10-44.103l-8.55 41.276 12.004-13.032a.652.652 0 0 1 .116-.1z"/></g><g><path fill="#fefefe" d="M197 118.68a.67.67 0 0 1-.655-.807l7.063-33.803a.67.67 0 0 1 1.31.275l-7.065 33.804a.669.669 0 0 1-.654.53"/></g><g><path fill="#fefefe" d="M196.999 118.676a.669.669 0 0 1-.491-1.123l13.824-14.96a.669.669 0 1 1 .982.909l-13.824 14.96a.66.66 0 0 1-.491.214"/></g><g><path fill="#fefefe" d="M210.822 103.72a.666.666 0 0 1-.651-.522l-4.884-21.658-.57 2.8a.669.669 0 0 1-.486.515l-7.065 1.83a.67.67 0 0 1-.814-.481.667.667 0 0 1 .478-.814l6.66-1.726 1.106-5.447a.67.67 0 0 1 .649-.537c.338.039.59.212.659.522l5.57 24.703a.669.669 0 0 1-.652.815"/></g><g><path fill="#fefefe" d="M210.819 102.305a.669.669 0 0 1-.669-.668V74.409a.67.67 0 0 1 1.337 0v27.228a.668.668 0 0 1-.668.668"/></g><g><path fill="#fefefe" d="M224.888 100.486a.668.668 0 0 1-.597-.968l14.534-29.03a.668.668 0 0 1 1.196.6l-14.534 29.03a.671.671 0 0 1-.599.368"/></g><g><path fill="#fefefe" d="M224.89 100.49a.666.666 0 0 1-.578-.331c-.14-.24-.375-.642 3.532-44.064.033-.369.34-.675.726-.605a.667.667 0 0 1 .606.724c-1.502 16.69-3.697 41.915-3.631 43.475a.67.67 0 0 1-.655.801"/></g><g><path fill="#fefefe" d="M222.232 47.412a.669.669 0 0 1-.655-.542c-1.75-9.043-1.75-9.043-1.318-9.29a.67.67 0 0 1 .237-.082c.49-.1 7.44-1.774 12.044-2.887a.665.665 0 0 1 .807.493.668.668 0 0 1-.493.806c-7.082 1.712-10.132 2.448-11.498 2.716.269 1.432 1.01 5.288 1.533 7.99a.669.669 0 0 1-.657.796"/></g><g><path fill="#fefefe" d="M228.508 56.82a.723.723 0 0 1-.103-.007L214.657 54.7a.67.67 0 0 1 .204-1.323l13.748 2.112a.67.67 0 0 1-.101 1.33"/></g><g><path fill="#fefefe" d="M196.376 67.268a.666.666 0 0 1 .288-.822l5.293-3.06 2.74-2.117a.667.667 0 0 1 .956.911l-2.813 4.041a.67.67 0 0 1-.402.272l-5.294 1.184a.668.668 0 0 1-.768-.409zm5.836-2.499l-1.116.653.789-.177z"/></g><g><path fill="#fefefe" d="M205.181 78.701a.658.658 0 0 1-.272-.058l-8.183-3.658a.67.67 0 0 1-.396-.61V70.79a.67.67 0 0 1 .14-.409l3.531-4.562a.668.668 0 1 1 1.057.818l-3.391 4.381v2.922l7.456 3.334 5.045-3.239.292-7.459c.015-.369.364-.63.694-.642a.67.67 0 0 1 .641.695l-.304 7.807a.666.666 0 0 1-.307.536l-5.642 3.622a.68.68 0 0 1-.361.106"/></g><g><path fill="#fefefe" d="M207.868 44.888a2.948 2.948 0 0 1-2.888-3.534.668.668 0 1 1 1.311.268 1.61 1.61 0 0 0 1.577 1.929 1.609 1.609 0 0 0 1.504-2.175.668.668 0 1 1 1.25-.477 2.947 2.947 0 0 1-2.755 3.989"/></g><g><path fill="#fefefe" d="M202.286 64.627h-10.587a.668.668 0 1 1 0-1.337h10.587a.668.668 0 0 1 0 1.337"/></g><g><path fill="#fefefe" d="M255.838 58.27a.667.667 0 0 1-.502-1.108l1.273-1.452a.666.666 0 0 1 .502-.228h6.478l4.43-3.715a.669.669 0 0 1 .86 1.023l-4.616 3.873a.67.67 0 0 1-.43.156h-6.419l-1.074 1.224a.66.66 0 0 1-.502.228"/></g><g><path fill="#fefefe" d="M262.603 68.645a.672.672 0 0 1-.288-.064L236.25 56.143a.67.67 0 0 1 .577-1.21l25.696 12.265 5.316-4.041-1.354-6.877a.7.7 0 0 1 .023-.343l3.106-9.198 2.397-5.4-14.342-12.64a.66.66 0 0 1-.223-.446l-.219-2.622-7.383-7.421a.667.667 0 1 1 .947-.943l7.556 7.593a.667.667 0 0 1 .192.416l.217 2.598 14.508 12.786a.671.671 0 0 1 .17.774l-2.575 5.79-3.027 8.972 1.4 7.113a.667.667 0 0 1-.252.66l-5.972 4.54a.676.676 0 0 1-.405.136"/></g><g><path fill="#fefefe" d="M267.14 56.82a.67.67 0 0 1-.372-1.226l3.045-2.029L272 47.63l-1.437-2.32a.67.67 0 0 1 .217-.922.674.674 0 0 1 .92.218l1.608 2.598c.108.174.13.39.06.583l-2.375 6.446a.69.69 0 0 1-.257.325l-3.226 2.15a.673.673 0 0 1-.37.112"/></g><g><path fill="#fefefe" d="M270.242 47.628a.641.641 0 0 1-.178-.024l-4.299-1.193a.661.661 0 0 1-.323-.204l-2.986-3.406a.666.666 0 0 1 .691-1.08l3.548 1.04 5.884-2.218a.668.668 0 1 1 .472 1.251l-6.095 2.297a.624.624 0 0 1-.424.016l-1.553-.456 1.336 1.525 4.106 1.14a.669.669 0 0 1-.179 1.312"/></g><g><path fill="#fefefe" d="M270.24 47.63a.669.669 0 0 1-.471-.193l-3.521-3.493a.668.668 0 0 1 .942-.95l3.52 3.492a.668.668 0 0 1-.47 1.144"/></g><g><path fill="#fefefe" d="M252.676 34.126a.662.662 0 0 1-.267-.055l-3.529-1.536-1.904.27a.65.65 0 0 1-.32-.033l-3.286-1.194a.668.668 0 0 1 .04-1.27c.291-.099 2.262-1.084 4.003-1.983a.665.665 0 0 1 .306-.075h2.39a.67.67 0 0 1 .63.895l-.394 1.09 2.8 2.746a.67.67 0 0 1-.469 1.145m-7.333-3.254l1.608.585 1.923-.273a.657.657 0 0 1 .36.049l.381.165-.518-.508a.672.672 0 0 1-.161-.704l.216-.599h-1.275c-.647.335-1.667.857-2.534 1.285"/></g><g><path fill="#fefefe" d="M248.969 32.512a.668.668 0 0 1-.617-.926l.597-1.433a.665.665 0 0 1 .875-.359.668.668 0 0 1 .36.874l-.598 1.433a.67.67 0 0 1-.617.411"/></g><g><path fill="#fefefe" d="M247.701 32.697a.666.666 0 0 1-.485-.21l-1.983-2.088a.67.67 0 0 1 .97-.92l1.983 2.09a.67.67 0 0 1-.485 1.128"/></g><g><g/><g clip-path="url(#iaw2a)"><path fill="#fefefe" d="M248.451 21.025l-16.27-19.932a.67.67 0 0 1 .043-.895.665.665 0 0 1 .893-.049l18.278 14.694c.226.181.31.489.205.759l-2.007 5.239a.668.668 0 0 1-1.142.184zM237.245 5.183l11.512 14.113 1.421-3.71z"/></g></g><g><path fill="#fefefe" d="M258.615 79.19a.662.662 0 0 1-.482-.205l-44.42-46.224 15.347 23.022a.671.671 0 0 1-.185.929.67.67 0 0 1-.927-.187L208.432 27.25a.669.669 0 0 1 1.038-.834l48.477 50.445V66.08a.668.668 0 1 1 1.336 0v12.443a.666.666 0 0 1-.668.668"/></g><g><path fill="#fefefe" d="M251.82 87.535a.67.67 0 0 1-.662-.768l2.013-13.318a.669.669 0 0 1 1.322.199l-2.013 13.317a.668.668 0 0 1-.66.57"/></g><g><path fill="#fefefe" d="M237.05 25.76a.667.667 0 0 1-.236-1.294l11.924-4.493a.668.668 0 0 1 .473 1.25l-11.926 4.493a.678.678 0 0 1-.236.043"/></g><g><path fill="#fefefe" d="M255.38 43.846a.668.668 0 0 1-.61-.94l2.005-4.525-2.576-2.647a.668.668 0 0 1 .958-.933l2.891 2.97a.67.67 0 0 1 .132.74l-2.189 4.938a.669.669 0 0 1-.61.397"/></g><g><path fill="#fefefe" d="M237.82 93.437a.667.667 0 0 1-.594-.364c-4.91-9.585-4.884-9.637-4.681-10.04a.67.67 0 0 1 1.254.173c.227.597 2.31 4.732 3.944 7.94l5.682-14.405a.669.669 0 0 1 1.243.491l-6.225 15.782a.671.671 0 0 1-.59.423z"/></g><g><path fill="#fefefe" d="M196.492 33.652l-11.994-24.47a.668.668 0 0 1 .236-.856L196.73.548a.667.667 0 1 1 1.032.561v32.248a.668.668 0 0 1-1.269.295zM185.96 9.125l10.455 21.35V2.34z"/></g><g><path fill="#fefefe" d="M193.37 26.796l-30.953-9.243a.671.671 0 1 1-.238-1.155l11.05-9.239.024-.018a.671.671 0 0 1 .388-.14c.009-.002.014 0 .022 0l.07.002 11.437 1.221c.366.04.633.37.593.736a.676.676 0 0 1-.735.594l-9.438-1.008 18.427 17.121a.667.667 0 0 1-.647 1.13zm-29.38-10.169l27.018 8.068-17.37-16.135z"/></g><g><path fill="#fefefe" d="M161.715 35.85l-.068-.121c-.71.163-.77.026-.866-.181a.673.673 0 0 1 .285-.867c.34-.358 7.739-9.027 12.602-14.747a.673.673 0 0 1 .942-.077.67.67 0 0 1 .076.944c-6.173 7.26-9.377 11-11.055 12.937a13603.52 13603.52 0 0 0 25.46-9.474.669.669 0 1 1 .467 1.254l-13.961 5.2c-8.72 3.246-12.213 4.547-13.67 4.94-.15.158-.183.176-.212.193"/></g><g><path fill="#fefefe" d="M166.999 29.45a.66.66 0 0 1-.232-.043l-9.955-3.69a.67.67 0 0 1-.394-.86.672.672 0 0 1 .859-.394l8.59 3.184-3.684-9.968-16.925 3.573a.667.667 0 0 1-.774-.448.665.665 0 0 1 .36-.816c9.002-4.04 21.739-9.778 26.55-11.988-2.522-.388-7.13-1.114-13.784-2.174a.666.666 0 0 1-.554-.765.675.675 0 0 1 .765-.555c6.134.977 15.427 2.446 15.889 2.49.29.028.548.242.609.527.04.188.069.321-.655.75v.058c-.012 0-.042-.003-.09-.008-1.658.956-6.817 3.292-22.502 10.335l11.399-2.406c.333-.056.652.113.765.423l4.39 11.874a.67.67 0 0 1-.627.9"/></g><g><path fill="#fefefe" d="M154.67 71.464a.668.668 0 0 1-.658-.792l6.682-35.329-4.265-9.982a.668.668 0 0 1 .444-.909l7.82-2.079a.668.668 0 1 1 .343 1.292l-7.074 1.881 4.04 9.459a.66.66 0 0 1 .044.387l-6.72 35.527a.67.67 0 0 1-.656.545"/></g><g><path fill="#fefefe" d="M142.268 87.534a.668.668 0 0 1-.532-1.073l23.315-30.71a.665.665 0 0 1 .878-.168l15.92 9.572-3.11-10.756-7.351-7.172a.668.668 0 1 1 .933-.958l7.477 7.296a.666.666 0 0 1 .176.292l3.634 12.562a.667.667 0 0 1-.235.716.665.665 0 0 1-.752.044l-16.867-10.141-22.953 30.23a.665.665 0 0 1-.533.266"/></g><g><path fill="#fefefe" d="M182.969 67.27a.67.67 0 0 1-.635-.877l4.65-14.113a.636.636 0 0 1 .085-.17l2.498-3.636-1.682-6.837a.67.67 0 0 1 .49-.81.678.678 0 0 1 .809.489l1.753 7.128a.664.664 0 0 1-.098.538l-2.614 3.807-4.621 14.023a.669.669 0 0 1-.635.459"/></g><g><path fill="#fefefe" d="M188.532 42.15a.736.736 0 0 1-.14-.015l-3.248-.686-.977.338a.67.67 0 0 1-.437-1.264l1.152-.399a.731.731 0 0 1 .357-.022l3.43.724a.668.668 0 0 1-.137 1.323"/></g><g><path fill="#fefefe" d="M180.909 42.875a.67.67 0 0 1-.218-1.3l3.04-1.05a.669.669 0 0 1 .437 1.264l-3.04 1.05a.676.676 0 0 1-.22.036"/></g><g><path fill="#fefefe" d="M189.329 45.38a.865.865 0 0 1-.088-.004l-5.75-.756a.67.67 0 0 1-.524-.392l-1.03-2.32a.667.667 0 0 1 .34-.881.67.67 0 0 1 .883.339l.877 1.976 5.378.707a.67.67 0 0 1-.086 1.332"/></g><g><path fill="#fefefe" d="M183.461 109.29l-12.99-14.105-.599 4.717a.675.675 0 0 1-.747.58.67.67 0 0 1-.58-.747l4.892-38.55a.669.669 0 0 1 .637-.585c.302-.005.614.212.68.533l9.853 47.57a.67.67 0 0 1-.654.803.664.664 0 0 1-.492-.216zm-12.773-15.816a.652.652 0 0 1 .117.101l12.003 13.032-8.55-41.276z"/></g><g><path fill="#fefefe" d="M197.092 118.678a.669.669 0 0 1-.654-.531l-7.064-33.804a.67.67 0 0 1 .517-.792.677.677 0 0 1 .792.517l7.064 33.803a.67.67 0 0 1-.655.807"/></g><g><path fill="#fefefe" d="M197.093 118.678a.66.66 0 0 1-.49-.215l-13.825-14.959a.669.669 0 1 1 .982-.909l13.824 14.96a.668.668 0 0 1-.49 1.123"/></g><g><path fill="#fefefe" d="M183.27 103.72a.669.669 0 0 1-.653-.815l5.57-24.703c.07-.31.382-.475.66-.522a.668.668 0 0 1 .647.537l1.106 5.447 6.661 1.726a.667.667 0 0 1 .478.814.672.672 0 0 1-.815.481l-7.064-1.83a.669.669 0 0 1-.487-.515l-.569-2.8-4.884 21.658a.666.666 0 0 1-.65.522"/></g><g><path fill="#fefefe" d="M183.268 102.305a.668.668 0 0 1-.668-.668V74.409a.669.669 0 1 1 1.336 0v27.228a.668.668 0 0 1-.668.668"/></g><g><path fill="#fefefe" d="M169.204 100.487a.671.671 0 0 1-.6-.369L154.072 71.09a.668.668 0 0 1 1.196-.6L169.8 99.52a.668.668 0 0 1-.597.968"/></g><g><path fill="#fefefe" d="M169.199 100.49a.67.67 0 0 1-.655-.8c.066-1.56-2.13-26.785-3.631-43.476a.668.668 0 0 1 .606-.724c.367-.07.692.237.726.606 3.907 43.421 3.672 43.824 3.532 44.064a.667.667 0 0 1-.578.33z"/></g><g><path fill="#fefefe" d="M171.854 47.41a.669.669 0 0 1-.657-.796c.522-2.701 1.264-6.557 1.533-7.99-1.366-.267-4.416-1.003-11.498-2.715a.668.668 0 1 1 .314-1.3c4.603 1.114 11.553 2.787 12.044 2.888a.67.67 0 0 1 .237.082c.43.247.43.247-1.318 9.29a.669.669 0 0 1-.655.542"/></g><g><path fill="#fefefe" d="M165.588 56.82a.669.669 0 0 1-.101-1.33l13.748-2.113a.67.67 0 0 1 .204 1.323l-13.748 2.112a.723.723 0 0 1-.103.007"/></g><g><path fill="#fefefe" d="M196.95 67.677l-5.295-1.184a.676.676 0 0 1-.402-.271l-2.813-4.041a.669.669 0 0 1 .956-.911l2.813 2.164 5.221 3.012a.668.668 0 0 1-.481 1.23zm-4.749-2.432l.784.174-1.107-.64z"/></g><g><path fill="#fefefe" d="M188.915 78.7a.68.68 0 0 1-.361-.106l-5.642-3.622a.666.666 0 0 1-.307-.536l-.304-7.807a.67.67 0 0 1 .64-.695c.335.017.68.273.695.642l.292 7.46 5.045 3.238 7.456-3.334v-2.922l-3.391-4.38a.668.668 0 1 1 1.057-.819l3.53 4.562a.67.67 0 0 1 .14.41v3.582a.67.67 0 0 1-.395.611l-8.183 3.658a.658.658 0 0 1-.272.058"/></g><g><path fill="#fefefe" d="M186.227 44.879a2.947 2.947 0 0 1-2.755-3.99.668.668 0 1 1 1.25.477 1.609 1.609 0 1 0 3.081.246.668.668 0 0 1 .522-.788.677.677 0 0 1 .79.52 2.948 2.948 0 0 1-2.888 3.534"/></g><g><path fill="#fefefe" d="M202.395 64.627H191.8a.668.668 0 1 1 0-1.337h10.595a.67.67 0 1 1 0 1.337"/></g><g><path fill="#fefefe" d="M138.258 58.27a.66.66 0 0 1-.502-.227l-1.074-1.224h-6.419a.67.67 0 0 1-.43-.156l-4.615-3.873a.669.669 0 1 1 .86-1.023l4.43 3.715h6.477c.192 0 .376.083.502.228l1.273 1.452a.67.67 0 0 1-.502 1.109"/></g><g><path fill="#fefefe" d="M131.487 68.645a.676.676 0 0 1-.405-.136l-5.972-4.54a.667.667 0 0 1-.252-.66l1.4-7.113-3.05-9.03-2.55-5.732a.671.671 0 0 1 .168-.774l14.508-12.786.217-2.598a.667.667 0 0 1 .192-.416l7.556-7.593a.668.668 0 1 1 .947.943l-7.383 7.42-.219 2.623a.66.66 0 0 1-.223.446l-14.342 12.64 2.374 5.342 3.13 9.256a.7.7 0 0 1 .022.343l-1.354 6.877 5.316 4.04 25.696-12.263a.67.67 0 0 1 .577 1.209L131.775 68.58a.672.672 0 0 1-.288.064"/></g><g><path fill="#fefefe" d="M126.947 56.82a.673.673 0 0 1-.37-.113l-3.225-2.15a.685.685 0 0 1-.257-.325l-2.375-6.446a.673.673 0 0 1 .06-.583l1.607-2.598a.674.674 0 0 1 .92-.218.67.67 0 0 1 .217.921l-1.436 2.321 2.187 5.936 3.044 2.028a.67.67 0 0 1-.372 1.226"/></g><g><path fill="#fefefe" d="M123.842 47.629a.668.668 0 0 1-.179-1.313l4.106-1.139 1.336-1.525-1.553.456a.624.624 0 0 1-.424-.016l-6.096-2.297a.669.669 0 0 1 .473-1.251l5.884 2.218 3.548-1.041a.666.666 0 0 1 .691 1.081l-2.986 3.406a.661.661 0 0 1-.323.204l-4.299 1.193a.641.641 0 0 1-.178.024"/></g><g><path fill="#fefefe" d="M123.849 47.62a.668.668 0 0 1-.471-1.144l3.52-3.492a.667.667 0 0 1 .947.006c.26.26.258.684-.004.945l-3.521 3.493a.669.669 0 0 1-.471.193"/></g><g><path fill="#fefefe" d="M141.419 34.127a.67.67 0 0 1-.468-1.146l2.799-2.746-.393-1.09a.67.67 0 0 1 .63-.895h2.389c.107 0 .21.027.306.075 1.746.9 3.72 1.89 4.005 1.983a.68.68 0 0 1 .468.629.663.663 0 0 1-.43.641l-3.285 1.194a.642.642 0 0 1-.322.033l-1.903-.27-3.53 1.536a.663.663 0 0 1-.266.056m3.703-2.95c.03 0 .063.002.094.007l1.925.274 1.609-.586c-.868-.428-1.89-.95-2.536-1.284h-1.277l.216.599a.668.668 0 0 1-.16.703l-.52.508.382-.165a.683.683 0 0 1 .267-.056"/></g><g><path fill="#fefefe" d="M145.117 32.511a.67.67 0 0 1-.617-.41l-.598-1.434a.668.668 0 0 1 .36-.874.667.667 0 0 1 .875.36l.597 1.432a.668.668 0 0 1-.617.926"/></g><g><path fill="#fefefe" d="M146.389 32.697a.67.67 0 0 1-.485-1.128l1.983-2.09a.67.67 0 0 1 .97.92l-1.983 2.089a.668.668 0 0 1-.485.209"/></g><g><path fill="#fefefe" d="M145.01 21.26a.67.67 0 0 1-.518-.421l-2.007-5.24a.665.665 0 0 1 .205-.758L160.968.148a.67.67 0 0 1 .937.944l-16.271 19.932a.666.666 0 0 1-.624.237zm-1.103-5.682l1.42 3.707L156.84 5.182z"/></g><g><path fill="#fefefe" d="M135.478 79.19a.666.666 0 0 1-.668-.668V66.08a.668.668 0 1 1 1.336 0V76.86l48.477-50.445a.668.668 0 0 1 1.038.834l-19.516 29.275a.67.67 0 0 1-.927.187.671.671 0 0 1-.185-.929l15.348-23.022-44.421 46.224a.662.662 0 0 1-.482.206"/></g><g><path fill="#fefefe" d="M142.27 87.535a.668.668 0 0 1-.66-.57l-2.012-13.317a.669.669 0 0 1 1.32-.199l2.015 13.318a.67.67 0 0 1-.662.768"/></g><g><path fill="#fefefe" d="M157.045 25.76a.678.678 0 0 1-.236-.043l-11.926-4.493a.668.668 0 1 1 .472-1.25l11.926 4.492a.667.667 0 0 1-.236 1.294"/></g><g><path fill="#fefefe" d="M138.708 43.846a.669.669 0 0 1-.611-.397l-2.19-4.939a.672.672 0 0 1 .133-.739l2.891-2.97a.67.67 0 0 1 .958.933l-2.576 2.647 2.006 4.525a.668.668 0 0 1-.611.94"/></g><g><path fill="#fefefe" d="M156.274 93.437h-.032a.671.671 0 0 1-.59-.423l-6.225-15.782a.669.669 0 0 1 1.243-.491l5.682 14.404c1.634-3.207 3.716-7.342 3.944-7.94a.667.667 0 0 1 1.254-.174c.203.405.228.457-4.681 10.042a.667.667 0 0 1-.595.364"/></g><g><path fill="#fefefe" d="M0 179.289V131.73h17.826c9.127 0 14.332 6.417 14.332 13.904 0 7.486-5.277 13.904-14.332 13.904H4.064v19.751zm17.398-43.851H4.064v20.391h13.334c6.274 0 10.482-4.206 10.482-10.195s-4.208-10.196-10.482-10.196z"/></g><g><path fill="#fefefe" d="M65.041 179.289L51.706 159.61H41.225v19.679H37.16V131.73h17.755c8.2 0 14.475 5.205 14.475 13.904 0 8.627-6.132 13.404-13.192 13.69l13.762 19.965zm-10.488-43.851h-13.33v20.464h13.33c6.273 0 10.55-4.279 10.55-10.268 0-5.989-4.277-10.196-10.55-10.196z"/></g><g/><g clip-path="url(#iaw2b)"><path fill="#fefefe" d="M75.95 179.29h4.064v-47.56H75.95z"/></g><g clip-path="url(#iaw2b)"><path fill="#fefefe" d="M88.29 179.289V131.73h15.188c14.76 0 24.03 10.766 24.03 23.816 0 13.19-9.27 23.743-24.03 23.743zm15.188-43.851H92.355v40.143h11.123c12.55 0 19.751-8.913 19.751-20.035 0-11.124-7.13-20.108-19.751-20.108z"/></g><g clip-path="url(#iaw2b)"><path fill="#fefefe" d="M134.07 179.29v-47.56h30.162v3.708h-26.098v17.612h25.598v3.709h-25.598v18.823h26.098v3.708z"/></g><g clip-path="url(#iaw2b)"><path fill="#fefefe" d="M183.85 155.551c0-14.689 10.766-24.601 24.1-24.601 7.844 0 13.548 3.138 17.897 8.128l-3.066 2.211c-3.351-3.992-8.77-6.632-14.831-6.632-11.194 0-19.822 8.487-19.822 20.894 0 12.265 8.628 20.963 19.822 20.963 6.347 0 11.338-3.138 13.976-5.775v-11.41h-17.969v-3.635h22.033v16.613c-4.206 4.707-10.553 7.914-18.04 7.914-13.334 0-24.1-9.982-24.1-24.67"/></g><g clip-path="url(#iaw2b)"><path fill="#fefefe" d="M260.65 179.289l-13.334-19.679h-10.481v19.679h-4.065V131.73h17.755c8.2 0 14.475 5.205 14.475 13.904 0 8.627-6.133 13.404-13.192 13.69l13.762 19.965zm-10.488-43.851h-13.327v20.464h13.327c6.273 0 10.549-4.279 10.549-10.268 0-5.989-4.276-10.196-10.549-10.196z"/></g><g clip-path="url(#iaw2b)"><path fill="#fefefe" d="M269.78 155.551c0-13.904 9.127-24.601 23.102-24.601 13.905 0 23.103 10.697 23.103 24.601 0 13.902-9.198 24.599-23.103 24.599-13.975 0-23.102-10.697-23.102-24.599m41.925-.005c0-12.12-7.416-20.889-18.823-20.889-11.55 0-18.823 8.77-18.823 20.889 0 11.976 7.273 20.887 18.823 20.887 11.407 0 18.823-8.91 18.823-20.887"/></g><g clip-path="url(#iaw2b)"><path fill="#fefefe" d="M322.49 161.042V131.73h4.136v29.241c0 9.629 5.062 15.476 14.403 15.476 9.413 0 14.403-5.847 14.403-15.476V131.73h4.137v29.312c0 11.767-6.275 19.113-18.54 19.113-12.193 0-18.539-7.418-18.539-19.113"/></g><g clip-path="url(#iaw2b)"><path fill="#fefefe" d="M367.84 179.289V131.73h17.825c9.127 0 14.333 6.417 14.333 13.904 0 7.486-5.278 13.904-14.333 13.904h-13.762v19.751zm17.399-43.851h-13.336v20.391h13.336c6.274 0 10.481-4.206 10.481-10.195s-4.207-10.196-10.481-10.196z"/></g><g clip-path="url(#iaw2b)"><path fill="#fefefe" d="M19.57 215v-10.328h1.607v1.668c.836-1.09 2.035-1.88 3.448-1.88v1.645a2.863 2.863 0 0 0-.641-.064c-.986 0-2.337.813-2.807 1.647V215z"/></g><g clip-path="url(#iaw2b)"><path fill="#fefefe" d="M28.17 209.83c0-2.993 2.137-5.41 5.089-5.41 3.122 0 4.96 2.437 4.96 5.539v.405h-8.361c.129 1.946 1.498 3.571 3.721 3.571 1.177 0 2.375-.47 3.186-1.304l.77 1.049c-1.026 1.025-2.415 1.582-4.106 1.582-3.057 0-5.259-2.203-5.259-5.432m5.068-4.085c-2.203 0-3.292 1.861-3.38 3.444h6.78c-.023-1.541-1.048-3.444-3.4-3.444"/></g><g clip-path="url(#iaw2b)"><path fill="#fefefe" d="M42.05 213.636l.834-1.154c.685.79 1.988 1.474 3.4 1.474 1.583 0 2.438-.747 2.438-1.774 0-2.502-6.393-.963-6.393-4.789 0-1.604 1.389-2.973 3.849-2.973 1.754 0 2.993.663 3.827 1.497l-.748 1.112c-.62-.749-1.754-1.304-3.079-1.304-1.412 0-2.289.705-2.289 1.626 0 2.264 6.395.769 6.395 4.79 0 1.73-1.391 3.121-4.064 3.121-1.689 0-3.122-.514-4.17-1.626"/></g><g clip-path="url(#iaw2b)"><path fill="#fefefe" d="M55.36 212.842v-6.758h-1.71v-1.412h1.71v-2.822h1.604v2.822h2.096v1.412h-2.096v6.414c0 .77.342 1.327 1.047 1.327.45 0 .878-.193 1.092-.428l.47 1.198c-.407.385-.984.663-1.925.663-1.518 0-2.288-.877-2.288-2.416"/></g><g clip-path="url(#iaw2b)"><path fill="#fefefe" d="M69.926 215.004v-1.175c-.855.94-2.032 1.433-3.421 1.433-1.754 0-3.615-1.177-3.615-3.421 0-2.311 1.861-3.401 3.615-3.401 1.412 0 2.587.449 3.421 1.41v-1.859c0-1.39-1.113-2.182-2.608-2.182-1.242 0-2.246.45-3.166 1.433l-.748-1.11c1.112-1.157 2.437-1.712 4.128-1.712 2.18 0 3.998.984 3.998 3.486v7.098zm0-4.126c-.62-.855-1.71-1.283-2.843-1.283-1.498 0-2.546.94-2.546 2.266 0 1.305 1.048 2.244 2.546 2.244 1.133 0 2.223-.426 2.843-1.281z"/></g><g clip-path="url(#iaw2b)"><path fill="#fefefe" d="M83.851 214.998v-1.453c-.792.898-2.138 1.711-3.679 1.711-2.159 0-3.292-1.048-3.292-3.294v-7.292h1.603v6.801c0 1.818.92 2.352 2.311 2.352 1.26 0 2.458-.727 3.057-1.561v-7.592h1.604v10.328z"/></g><g clip-path="url(#iaw2b)"><path fill="#fefefe" d="M90.81 215v-10.328h1.604v1.668c.834-1.09 2.031-1.88 3.441-1.88v1.645a2.852 2.852 0 0 0-.64-.064c-.984 0-2.331.813-2.801 1.647V215z"/></g><g clip-path="url(#iaw2b)"><path fill="#fefefe" d="M106.464 215.004v-1.175c-.855.94-2.032 1.433-3.421 1.433-1.754 0-3.613-1.177-3.613-3.421 0-2.311 1.859-3.401 3.613-3.401 1.412 0 2.587.449 3.421 1.41v-1.859c0-1.39-1.113-2.182-2.608-2.182-1.242 0-2.246.45-3.165 1.433l-.749-1.11c1.112-1.157 2.438-1.712 4.128-1.712 2.18 0 3.998.984 3.998 3.486v7.098zm-.01-4.126c-.619-.855-1.707-1.283-2.838-1.283-1.495 0-2.541.94-2.541 2.266 0 1.305 1.046 2.244 2.541 2.244 1.131 0 2.22-.426 2.838-1.281z"/></g><g clip-path="url(#iaw2b)"><path fill="#fefefe" d="M120.391 215.004v-6.757c0-1.817-.919-2.394-2.311-2.394-1.26 0-2.458.77-3.057 1.604v7.547h-1.603v-10.328h1.603v1.498c.728-.856 2.139-1.754 3.679-1.754 2.159 0 3.293 1.09 3.293 3.336v7.248z"/></g><g clip-path="url(#iaw2b)"><path fill="#fefefe" d="M127.67 212.842v-6.758h-1.71v-1.412h1.71v-2.822h1.604v2.822h2.096v1.412h-2.096v6.414c0 .77.342 1.327 1.047 1.327.45 0 .878-.193 1.092-.428l.47 1.198c-.407.385-.984.663-1.925.663-1.518 0-2.288-.877-2.288-2.416"/></g><g clip-path="url(#iaw2b)"><path fill="#fefefe" d="M143.892 214.996v-8.916h-1.712v-1.412h1.712v-.79c0-2.117 1.154-3.358 2.993-3.358.813 0 1.541.193 2.181.791l-.663 1.048c-.341-.3-.749-.513-1.283-.513-1.047 0-1.624.727-1.624 2.032v.79h2.096v1.412h-2.096v8.916z"/></g><g clip-path="url(#iaw2b)"><path fill="#fefefe" d="M151.63 215v-10.328h1.607v1.668c.836-1.09 2.035-1.88 3.448-1.88v1.645a2.863 2.863 0 0 0-.641-.064c-.986 0-2.336.813-2.807 1.647V215z"/></g><g clip-path="url(#iaw2b)"><path fill="#fefefe" d="M167.294 215.004v-1.175c-.854.94-2.032 1.433-3.421 1.433-1.753 0-3.613-1.177-3.613-3.421 0-2.311 1.86-3.401 3.613-3.401 1.412 0 2.587.449 3.421 1.41v-1.859c0-1.39-1.112-2.182-2.608-2.182-1.242 0-2.246.45-3.165 1.433l-.749-1.11c1.112-1.157 2.438-1.712 4.128-1.712 2.18 0 3.998.984 3.998 3.486v7.098zm-.008-4.126c-.62-.855-1.707-1.283-2.84-1.283-1.495 0-2.543.94-2.543 2.266 0 1.305 1.048 2.244 2.543 2.244 1.133 0 2.22-.426 2.84-1.281z"/></g><g clip-path="url(#iaw2b)"><path fill="#fefefe" d="M181.222 215.004v-6.757c0-1.817-.919-2.394-2.311-2.394-1.26 0-2.458.77-3.057 1.604v7.547h-1.604v-10.328h1.604v1.498c.728-.856 2.138-1.754 3.679-1.754 2.159 0 3.293 1.09 3.293 3.336v7.248z"/></g><g clip-path="url(#iaw2b)"><path fill="#fefefe" d="M187.58 209.83c0-3.058 2.074-5.41 5.154-5.41 1.882 0 2.993.769 3.785 1.797l-1.069.983c-.684-.941-1.562-1.348-2.631-1.348-2.202 0-3.571 1.69-3.571 3.978 0 2.287 1.369 3.999 3.571 3.999 1.069 0 1.947-.429 2.631-1.348l1.069.984c-.792 1.025-1.903 1.797-3.785 1.797-3.08 0-5.154-2.352-5.154-5.432"/></g><g clip-path="url(#iaw2b)"><path fill="#fefefe" d="M207.892 215.001v-6.799c0-1.817-.94-2.352-2.332-2.352-1.239 0-2.437.77-3.057 1.604v7.547H200.9V200.74h1.603v5.431c.728-.856 2.138-1.754 3.7-1.754 2.159 0 3.293 1.048 3.293 3.293v7.291z"/></g><g clip-path="url(#iaw2b)"><path fill="#fefefe" d="M214.58 202.13c0 .599.493 1.069 1.07 1.069.598 0 1.091-.47 1.091-1.069s-.493-1.09-1.091-1.09c-.577 0-1.07.491-1.07 1.09zm.279 12.872h1.604v-10.328h-1.604z"/></g><g clip-path="url(#iaw2b)"><path fill="#fefefe" d="M220.91 213.636l.834-1.154c.684.79 1.988 1.474 3.4 1.474 1.583 0 2.438-.747 2.438-1.774 0-2.502-6.394-.963-6.394-4.789 0-1.604 1.39-2.973 3.85-2.973 1.753 0 2.993.663 3.827 1.497l-.749 1.112c-.62-.749-1.753-1.304-3.078-1.304-1.412 0-2.29.705-2.29 1.626 0 2.264 6.395.769 6.395 4.79 0 1.73-1.391 3.121-4.063 3.121-1.689 0-3.122-.514-4.17-1.626"/></g><g clip-path="url(#iaw2b)"><path fill="#fefefe" d="M233.62 202.13c0 .599.493 1.069 1.069 1.069.599 0 1.092-.47 1.092-1.069s-.493-1.09-1.092-1.09c-.576 0-1.069.491-1.069 1.09zm.279 12.872h1.604v-10.328h-1.604z"/></g><g clip-path="url(#iaw2b)"><path fill="#fefefe" d="M247.821 215.004v-6.757c0-1.817-.919-2.394-2.31-2.394-1.261 0-2.459.77-3.058 1.604v7.547h-1.603v-10.328h1.603v1.498c.728-.856 2.139-1.754 3.68-1.754 2.158 0 3.292 1.09 3.292 3.336v7.248z"/></g><g clip-path="url(#iaw2b)"><path fill="#fefefe" d="M254.759 217.656l.813-1.198c.855 1.027 1.88 1.412 3.357 1.412 1.709 0 3.313-.834 3.313-3.101v-1.474c-.749 1.048-2.009 1.838-3.463 1.838-2.695 0-4.599-2.011-4.599-5.345 0-3.316 1.883-5.368 4.599-5.368 1.389 0 2.629.684 3.463 1.818v-1.562h1.604v10.029c0 3.421-2.395 4.49-4.917 4.49-1.754 0-2.952-.342-4.17-1.539m7.485-5.624v-4.511c-.557-.898-1.796-1.669-3.081-1.669-2.076 0-3.317 1.648-3.317 3.936 0 2.265 1.24 3.932 3.317 3.932 1.285 0 2.524-.79 3.08-1.688"/></g><g clip-path="url(#iaw2b)"><path fill="#fefefe" d="M276.26 209.83c0-3.058 2.075-5.41 5.154-5.41 1.882 0 2.992.769 3.785 1.797l-1.069.983c-.684-.941-1.562-1.348-2.631-1.348-2.202 0-3.571 1.69-3.571 3.978 0 2.287 1.369 3.999 3.571 3.999 1.069 0 1.947-.429 2.631-1.348l1.069.984c-.793 1.025-1.903 1.797-3.785 1.797-3.079 0-5.154-2.352-5.154-5.432"/></g><g clip-path="url(#iaw2b)"><path fill="#fefefe" d="M288.99 209.83c0-2.993 1.967-5.41 5.11-5.41 3.144 0 5.112 2.417 5.112 5.41 0 2.994-1.968 5.432-5.112 5.432-3.143 0-5.11-2.438-5.11-5.432m8.531 0c0-2.095-1.219-3.978-3.421-3.978-2.203 0-3.442 1.883-3.442 3.978 0 2.117 1.239 3.999 3.442 3.999 2.202 0 3.421-1.882 3.421-3.999"/></g><g clip-path="url(#iaw2b)"><path fill="#fefefe" d="M316.426 215.004v-7.013c0-1.303-.578-2.138-1.903-2.138-1.069 0-2.202.77-2.737 1.583v7.568h-1.603v-7.013c0-1.303-.556-2.138-1.903-2.138-1.048 0-2.159.77-2.716 1.604v7.547h-1.604v-10.328h1.604v1.498c.428-.664 1.817-1.754 3.336-1.754 1.582 0 2.481.855 2.78 1.924.576-.94 1.966-1.924 3.463-1.924 1.882 0 2.887 1.048 2.887 3.122v7.462z"/></g><g clip-path="url(#iaw2b)"><path fill="#fefefe" d="M324.993 213.444v5.495h-1.603v-14.263h1.603v1.541a4.32 4.32 0 0 1 3.486-1.797c2.716 0 4.598 2.053 4.598 5.41 0 3.336-1.882 5.432-4.598 5.432-1.412 0-2.652-.663-3.486-1.818m6.406-3.613c0-2.289-1.243-3.98-3.32-3.98-1.266 0-2.53.75-3.088 1.649v4.664c.558.898 1.822 1.669 3.088 1.669 2.077 0 3.32-1.713 3.32-4.002"/></g><g clip-path="url(#iaw2b)"><path fill="#fefefe" d="M344.226 215.004v-1.175c-.855.94-2.032 1.433-3.421 1.433-1.754 0-3.615-1.177-3.615-3.421 0-2.311 1.861-3.401 3.615-3.401 1.412 0 2.587.449 3.421 1.41v-1.859c0-1.39-1.113-2.182-2.608-2.182-1.242 0-2.246.45-3.165 1.433l-.749-1.11c1.112-1.157 2.437-1.712 4.128-1.712 2.18 0 3.998.984 3.998 3.486v7.098zm0-4.126c-.62-.855-1.71-1.283-2.843-1.283-1.498 0-2.546.94-2.546 2.266 0 1.305 1.048 2.244 2.546 2.244 1.133 0 2.223-.426 2.843-1.281z"/></g><g clip-path="url(#iaw2b)"><path fill="#fefefe" d="M358.152 215.004v-6.757c0-1.817-.919-2.394-2.311-2.394-1.26 0-2.458.77-3.057 1.604v7.547h-1.604v-10.328h1.604v1.498c.728-.856 2.138-1.754 3.679-1.754 2.159 0 3.293 1.09 3.293 3.336v7.248z"/></g><g clip-path="url(#iaw2b)"><path fill="#fefefe" d="M364.789 217.586c.235.107.62.172.876.172.707 0 1.177-.236 1.541-1.092l.684-1.559-4.32-10.437h1.733l3.442 8.469 3.421-8.469h1.753l-5.174 12.425c-.62 1.496-1.668 2.073-3.037 2.095-.342 0-.877-.063-1.176-.15z"/></g></g></g></svg>