<svg xmlns="http://www.w3.org/2000/svg" width="400" height="311" viewBox="0 0 400 311"><defs><clipPath id="fp5ca"><path d="M301.35 45.25h98.327v134.823H301.35z"/></clipPath><clipPath id="fp5cb"><path d="M291.31.61h51.282v55.616H291.31z"/></clipPath><clipPath id="fp5cc"><path d="M162.08 268.28h39.636v42.619H162.08z"/></clipPath></defs><g><g><g><path fill="#706f6e" d="M228.12 116.187c-3.266 0-5.93-2.664-5.93-5.93 0-.426.037-.815.105-1.205v-.036l8.77-1.846 2.665.889v.034l-.037.036c.251.675.39 1.383.39 2.129 0 2.875-2.021 5.254-4.756 5.824a6.946 6.946 0 0 1-1.208.105"/></g><g><path fill="#c5c5c5" d="M181.5 220.74l18.356 4.758 18.319-4.758-18.32 87.801z"/></g><g><path fill="#403f3e" d="M199.854 185.492l-9.124-11.715v-.037l9.054 2.058H199.89l9.053-2.058v.037z"/></g><g><path fill="#9c9b9b" d="M186.12 167.81h27.446l-13.705 7.953z"/></g><g><path fill="#c5c5c5" d="M190.738 69.005L168.62 23.847l31.1-20.167v83.647z"/></g><g><path fill="#595958" d="M199.75 308.933l-35.93-38.913.782-3.516 13.775-61.064 3.124 15.302 18.356 87.801z"/></g><g><path fill="#706f6e" d="M178.377 205.445l-13.778 61.064-.779-.175V195.15l14.769 9.48z"/></g><g><path fill="#706f6e" d="M168.617 107.17l8.769 1.846v.036c.07.39.107.782.107 1.208 0 3.266-2.664 5.927-5.966 5.927a5.937 5.937 0 0 1-5.537-8.058l-.037-.034v-.036z"/></g><g><path fill="#9c9b9b" d="M190.733 69.006L138.72 20.65l29.895 3.197z"/></g><g><path fill="#9c9b9b" d="M168.086 71.457l-30.285 31.49c.283-1.527.463-2.484.463-2.557-.037.037-31.634-7.597-31.634-7.597s.037 0 .07-.037c1.172-.319 39.517-14.625 60.286-22.366z"/></g><g><path fill="#9c9b9b" d="M140.068 53.845l-30.248-9.017 28.829-24.144c.036 0 .07-.034.07-.034l52.013 48.356-11.113-3.302z"/></g><g><path fill="#595958" d="M153.53 141.887l-35.93 5.54L134 122.86z"/></g><g><path fill="#222221" d="M168.614 70.88l-34.617 51.98-.037-.038s2.735-14.023 3.835-19.882l30.285-31.49z"/></g><g><path fill="#9c9b9b" d="M153.53 141.89l9.513 32.842-23.218-13.953-22.225-13.35z"/></g><g><path fill="#222221" d="M163.82 270.024l-1.312.283L139.82 160.78l23.218 13.953.782 20.413v71.187l.782.175z"/></g><g><path fill="#595958" d="M128.96 246.346l10.863-85.566 22.687 109.53 3.09 14.841-35.647-38.7z"/></g><g><path fill="#c5c5c5" d="M138.72 20.643s-.037.037-.07.037c-1.527.993-72.252 32.769-74.49 33.765l-.07.034L97.002 14.11h.037c1.527.251 40.973 6.533 41.681 6.533"/></g><g><path fill="#595958" d="M138.646 20.68l-28.828 24.141-45.658 9.624c2.235-.996 72.96-32.772 74.486-33.765"/></g><g><path fill="#9c9b9b" d="M96.579 145.829l41.22-42.889c-1.1 5.859-3.834 19.882-3.834 19.882l.034.037-16.4 24.567-28.369 37.386z"/></g><g><path fill="#706f6e" d="M139.825 160.776l-10.863 85.566-1.919 15.23c.711-1.206-9.443-114.142-9.443-114.142z"/></g><g><path fill="#c5c5c5" d="M121.293 75.853c8.983-10.51 18.782-22.013 18.782-22.013l39.55 11.859c-.567.178-5.54 2.057-12.637 4.685-20.772 7.741-59.117 22.05-60.288 22.368.782-.781 7.459-8.52 14.593-16.899"/></g><g><path fill="#403f3e" d="M109.82 44.83l30.248 9.017S130.27 65.353 121.29 75.86l-5.574-15.088z"/></g><g><path fill="#222221" d="M105.49 218.47l-16.44-32.805.178-.85 28.368-37.385s10.155 112.936 9.444 114.141l-21.55-43.064z"/></g><g><path fill="#222221" d="M95.27 66.2l26.024 9.655c-7.135 8.379-13.812 16.118-14.594 16.9-.034.036-.068.036-.068.036z"/></g><g><path fill="#403f3e" d="M96.58 145.833l10.05-53.043s31.597 7.634 31.631 7.597c0 .074-.178 1.03-.46 2.557z"/></g><g><path fill="#9c9b9b" d="M121.294 75.858L95.27 66.203l20.45-5.433z"/></g><g><path fill="#403f3e" d="M89.053 185.67l16.44 32.805v.036c0 .78-12.249 24.638-12.249 24.638l-16.261-41.254-.463-.356 12.711-16.719z"/></g><g><path fill="#595958" d="M51.38 192.87l45.195-47.04-7.347 38.983-12.713 16.719-19.88 26.167z"/></g><g><path fill="#9c9b9b" d="M97.007 14.109L64.095 54.478l-2.946-7.705-2.309-6L106.63 2.36l-9.586 11.749z"/></g><g><path fill="#706f6e" d="M115.714 60.762l-20.45 5.433L64.09 54.48l.07-.036 45.658-9.624z"/></g><g><path fill="#403f3e" d="M67.361 76.21s2.59 1.349 5.218 2.664l-5.181 5.467-3.305-.46-1.563-3.765-1.42-3.906z"/></g><g><path fill="#222221" d="M96.578 145.83l-45.195 47.04-12.533 13.033V173.38z"/></g><g><path fill="#403f3e" d="M27.524 111.36l-7.81 8.878L8.46 123.36l9.195-9.124z"/></g><g><path fill="#858585" d="M1.75 108.23l15.906 6-9.195 9.124-2.306-5.218z"/></g><g><path fill="#403f3e" d="M199.452 89.278c-.792-.183-1.482-.64-1.482-1.45V3.68c0-.61.319-1.263.837-1.582.525-.314 1.168-.431 1.715-.15.149.077.426.25.549.367l.11.105 30.839 19.96a1.753 1.753 0 0 1 .62 2.236l-31.101 63.48c-.32.642-1.083 1.215-1.802 1.215-.099 0-.196-.013-.285-.034zm2.015-82.544V80.3l27.339-55.83z"/></g><g><path fill="#403f3e" d="M207.431 69.87a1.744 1.744 0 0 1 .327-2.147l48.165-44.779-24.672 2.638c-.99.136-1.82-.596-1.924-1.553a1.748 1.748 0 0 1 1.553-1.924l29.895-3.198c.374-.03.696.037.99.191.14.06.268.142.39.243l28.832 24.144c.491.413.716 1.064.588 1.692a1.76 1.76 0 0 1-1.21 1.323l-80.92 24.177a1.745 1.745 0 0 1-2.013-.808zm53.603-46.902L215.6 65.198l70.649-21.12z"/></g><g><path fill="#403f3e" d="M293.031 94.54c-.256 0-.512-.058-.76-.18l-.07-.037a1.63 1.63 0 0 1-.456-.332c-.714-.711-5.103-5.796-14.685-16.996L258.28 54.979a1.747 1.747 0 0 1 .193-2.463 1.753 1.753 0 0 1 2.465.196l18.78 22.01c3.67 4.291 13.333 15.588 14.46 16.762.562.517.758 1.367.402 2.073-.303.62-.91.983-1.548.983"/></g><g><path fill="#403f3e" d="M292.981 94.507c-.154 0-.303-.021-.46-.06-.941-.26-19.94-7.323-54.667-20.272l-12.355-4.6c-3.404-1.265-5.629-2.09-5.992-2.214a1.723 1.723 0 0 1-.73-.465c-.656-.706-.638-1.83.068-2.489a1.735 1.735 0 0 1 2.008-.274c.75.266 2.855 1.045 5.862 2.164l12.363 4.602c19.801 7.383 52.944 19.74 54.384 20.177a1.767 1.767 0 0 1 1.187 2.163 1.744 1.744 0 0 1-1.668 1.268"/></g><g><path fill="#403f3e" d="M278.39 77.6a1.746 1.746 0 0 1-1.64-2.353l11.472-31.032c.298-.81 1.168-1.29 1.995-1.101l29.78 6.272c-20.816-9.365-56.567-25.48-59.73-27.135a1.831 1.831 0 0 1-.586-.415 1.74 1.74 0 0 1-.325-1.888 1.741 1.741 0 0 1 1.603-1.051c1.095-.112 25.375-3.958 41.404-6.51.933-.172 1.848.497 2 1.449.152.956-.5 1.85-1.454 2.002-17.385 2.771-29.424 4.675-36.013 5.686 16.118 7.417 66.068 29.875 69.328 31.32.042.019.081.04.123.063.693.372 1.088 1.185.907 1.953a1.757 1.757 0 0 1-2.45 1.182l-43.832-9.2-9.626 26.047 22.455-8.332a1.744 1.744 0 0 1 2.248 1.03 1.752 1.752 0 0 1-1.027 2.249l-26.026 9.654a1.75 1.75 0 0 1-.607.11"/></g><g><path fill="#403f3e" d="M310.631 187.414c-.816 0-1.54-.567-1.71-1.39l-.18-.856-7.35-38.98a1.743 1.743 0 0 1 1.392-2.04c.983-.172 1.866.448 2.039 1.394l7.519 39.77a1.744 1.744 0 0 1-1.71 2.102"/></g><g><path fill="#403f3e" d="M303.106 147.584a1.748 1.748 0 0 1-1.715-1.422l-10.047-53.04a1.75 1.75 0 0 1 .11-1.015l10.565-24.735-18.5-4.915a1.741 1.741 0 0 1-1.239-2.135 1.747 1.747 0 0 1 2.141-1.242l20.447 5.435a1.744 1.744 0 0 1 1.156 2.376l-11.148 26.102 9.945 52.518a1.746 1.746 0 0 1-1.715 2.073"/></g><g><path fill="#403f3e" d="M236.64 176.481a1.73 1.73 0 0 1-1.064-.363 1.749 1.749 0 0 1-.617-1.872l9.514-32.84a1.79 1.79 0 0 1 .46-.765l19.53-19.064a1.75 1.75 0 0 1 2.47.028c.674.69.659 1.796-.034 2.473l-19.195 18.743-8.146 28.123 19.362-11.626a1.75 1.75 0 0 1 2.4.598 1.75 1.75 0 0 1-.596 2.398l-23.182 13.916c-.28.17-.593.251-.902.251"/></g><g><path fill="#403f3e" d="M343.047 229.445a1.751 1.751 0 0 1-1.393-.69l-60.96-80.274a1.747 1.747 0 1 1 2.787-2.11l60.96 80.27a1.75 1.75 0 0 1-1.394 2.804"/></g><g><path fill="#403f3e" d="M236.646 176.478c-.732 0-1.42-.468-1.663-1.202l-12.065-36.651-6.847-9.943a1.758 1.758 0 0 1-.262-1.412l4.58-18.635a1.74 1.74 0 0 1 2.113-1.283 1.746 1.746 0 0 1 1.284 2.11l-4.392 17.882 6.544 9.506c.096.138.17.285.224.447l12.147 36.886a1.748 1.748 0 0 1-1.663 2.295"/></g><g><path fill="#403f3e" d="M222.662 110.726l-.575-1.675-.277-1.726 8.9-1.867c.3-.065.614-.047.91.053l2.66.889c.31.102.568.277.767.507.47.455.724 1.124.536 1.744-.28.93-1.083 1.5-2 1.223l-.356-.107a1.688 1.688 0 0 1-.366-.16l-1.895-.63z"/></g><g><path fill="#403f3e" d="M242.031 112.677a1.75 1.75 0 0 1-.562-.094l-7.966-2.737a1.753 1.753 0 0 1-1.077-2.227 1.765 1.765 0 0 1 2.225-1.075l7.94 2.73a1.749 1.749 0 0 1-.56 3.403"/></g><g><path fill="#403f3e" d="M220.029 119.255c-.865 0-1.616-.64-1.733-1.52a1.746 1.746 0 0 1 1.5-1.96l14.053-1.867 2.298-5.142a1.751 1.751 0 0 1 3.197 1.43l-2.7 6.036a1.746 1.746 0 0 1-1.37 1.015l-15.012 1.99c-.081.012-.16.018-.233.018"/></g><g><path fill="#403f3e" d="M234.079 286.894c-.272 0-.546-.063-.803-.194a1.756 1.756 0 0 1-.91-1.914l25.742-124.329c0-.614.287-.865.815-1.182l22.26-13.349a1.752 1.752 0 0 1 2.394.602 1.752 1.752 0 0 1-.601 2.4l-21.64 12.975-24.258 117.404 31.364-34.045a1.744 1.744 0 1 1 2.565 2.366l-35.644 38.7a1.736 1.736 0 0 1-1.284.566"/></g><g><path fill="#403f3e" d="M272.646 263.32a1.75 1.75 0 0 1-1.736-1.524l-12.816-100.76a1.747 1.747 0 0 1 1.514-1.956c.952-.1 1.83.557 1.953 1.514l12.818 100.755a1.752 1.752 0 0 1-1.733 1.971"/></g><g><path fill="#403f3e" d="M199.692 310.782c-.11 0-.222-.01-.332-.034-.918-.202-1.524-.978-1.365-1.899l.034-.209c.01-.055.123-.499.139-.546l18.298-87.707c.196-.947 1.14-1.564 2.065-1.357a1.757 1.757 0 0 1 1.36 2.07l-18.322 87.8c-.01.033-.12.454-.128.485-.214.795-.951 1.397-1.749 1.397"/></g><g><path fill="#403f3e" d="M201.215 310.125l-1.496-.975-1.239-1.237.141-.138 35.956-38.933a1.745 1.745 0 0 1 2.468-.097c.71.65.755 1.76.1 2.468z"/></g><g><path fill="#403f3e" d="M235.858 271.77a1.747 1.747 0 0 1-1.705-1.37l-.779-3.516-11.987-53.12-1.495 7.329a1.75 1.75 0 0 1-1.276 1.34l-18.319 4.756-1.017-3.346 17.407-4.52 2.901-14.236a1.752 1.752 0 0 1 1.695-1.396c.81-.034 1.545.562 1.725 1.362l14.557 64.591a1.748 1.748 0 0 1-1.707 2.126"/></g><g><path fill="#403f3e" d="M235.859 268.077a1.75 1.75 0 0 1-1.749-1.749v-71.182a1.748 1.748 0 0 1 3.498 0v71.182a1.75 1.75 0 0 1-1.749 1.75"/></g><g><path fill="#403f3e" d="M272.638 263.322c-.267 0-.533-.058-.784-.183a1.754 1.754 0 0 1-.78-2.348l21.551-43.064a1.746 1.746 0 0 1 3.122 1.563l-21.548 43.067c-.306.612-.92.965-1.56.965"/></g><g><path fill="#403f3e" d="M294.189 220.221a1.75 1.75 0 0 1-.785-.183 1.755 1.755 0 0 1-.779-2.35l16.437-32.803a1.749 1.749 0 0 1 3.127 1.566l-16.44 32.805a1.745 1.745 0 0 1-1.56.965"/></g><g><path fill="#403f3e" d="M272.643 263.32c-.599 0-1.179-.306-1.506-.86-.376-.633-.999-1.691 9.205-115.19.084-.956.98-1.665 1.896-1.584.965.087 1.67.936 1.584 1.898-3.921 43.616-9.644 109.538-9.47 113.634a1.745 1.745 0 0 1-.823 1.86 1.704 1.704 0 0 1-.886.242"/></g><g><path fill="#403f3e" d="M263.965 123.162s-2.7-13.961-3.8-19.86c-.32-1.712-.495-2.833-.495-2.912a1.751 1.751 0 0 1 1.459-1.722c1.242-.27 23.119-5.543 31.519-7.574.93-.21 1.882.35 2.104 1.291a1.744 1.744 0 0 1-1.289 2.107c-18.496 4.468-26.48 6.398-30.065 7.098.063.312.126.675.201 1.075 1.098 5.885 3.796 19.833 3.796 19.833z"/></g><g><path fill="#403f3e" d="M282.086 149.182c-.084 0-.175-.008-.264-.021l-35.927-5.538a1.747 1.747 0 1 1 .526-3.453l35.932 5.537a1.75 1.75 0 0 1 1.464 1.995 1.754 1.754 0 0 1-1.731 1.48"/></g><g><path fill="#403f3e" d="M198.195 176.19c-.172-.745.16-1.48.77-1.864l-.027-.052.073-.037 13.676-7.934 7.169-5.52a1.738 1.738 0 0 1 2.269.124c.625.593.719 1.555.227 2.261l-7.351 10.544c-.251.36-.628.614-1.051.708l-13.666 3.085a1.744 1.744 0 0 1-2.089-1.315zm15.186-6.26l-2.895 1.688 2.04-.457z"/></g><g><path fill="#403f3e" d="M221.094 206.377c-.24 0-.486-.053-.714-.155l-21.236-9.513c-.628-.283-1.174-.975-1.174-1.666v-9.372c0-.395.133-.78.38-1.088l9.22-11.88a1.748 1.748 0 0 1 2.76 2.144l-8.862 11.428v7.636l19.477 8.735 13.205-8.476.745-19.503c.037-.965.845-1.796 1.82-1.679.962.037 1.715.85 1.676 1.812l-.782 20.413a1.75 1.75 0 0 1-.805 1.407l-14.769 9.48c-.28.185-.611.277-.94.277"/></g><g><path fill="#403f3e" d="M228.121 117.936c-4.233 0-7.681-3.443-7.681-7.679 0-.54.047-1.03.139-1.527a1.744 1.744 0 0 1 2.041-1.398 1.753 1.753 0 0 1 1.402 2.039 4.433 4.433 0 0 0-.084.886 4.187 4.187 0 0 0 4.183 4.183c.319 0 .604-.028.897-.078a4.163 4.163 0 0 0 3.317-4.105 4.28 4.28 0 0 0-.28-1.519 1.748 1.748 0 1 1 3.276-1.218c.333.892.5 1.814.5 2.737 0 3.687-2.526 6.782-6.147 7.535a8.548 8.548 0 0 1-1.563.144"/></g><g><path fill="#403f3e" d="M186.114 169.555c-.964 0-1.874-.784-1.874-1.749 0-.964.659-1.746 1.624-1.746h.25a1.748 1.748 0 1 1 0 3.495"/></g><g><path fill="#403f3e" d="M353.549 152.982a1.73 1.73 0 0 1-1.148-.431 1.744 1.744 0 0 1-.172-2.463l3.304-3.801a1.747 1.747 0 0 1 1.32-.6h16.931l11.587-9.712a1.748 1.748 0 0 1 2.46.22c.628.737.526 1.84-.211 2.463l-12.074 10.12a1.77 1.77 0 0 1-1.124.405h-16.774l-2.779 3.2a1.75 1.75 0 0 1-1.32.599"/></g><g><g/><g clip-path="url(#fp5ca)"><path fill="#403f3e" d="M371.227 180.073c-.254 0-.513-.055-.75-.17l-68.129-32.452a1.744 1.744 0 0 1-.828-2.327 1.763 1.763 0 0 1 2.332-.829l67.166 31.993 13.872-10.555-3.52-17.96c-.06-.298-.036-.61.058-.895l8.136-24.073 6.248-14.104-37.49-33.057a1.765 1.765 0 0 1-.585-1.16l-.589-6.858-19.286-19.396a1.75 1.75 0 0 1 .005-2.473 1.752 1.752 0 0 1 2.474.008l19.733 19.845c.293.29.47.678.507 1.083l.578 6.792 37.927 33.44c.572.508.75 1.323.441 2.024l-6.708 15.124-7.93 23.483 3.64 18.572a1.755 1.755 0 0 1-.654 1.728l-15.587 11.86a1.75 1.75 0 0 1-1.061.357"/></g></g><g><path fill="#403f3e" d="M383.089 149.175c-.56 0-1.117-.272-1.454-.774a1.751 1.751 0 0 1 .479-2.426l7.947-5.328 5.72-15.501-3.738-6.092a1.744 1.744 0 0 1 .575-2.405c.821-.504 1.9-.25 2.4.573l4.188 6.818a1.74 1.74 0 0 1 .152 1.52l-6.214 16.828a1.77 1.77 0 0 1-.664.847l-8.419 5.644a1.726 1.726 0 0 1-.972.296"/></g><g><path fill="#403f3e" d="M391.226 125.107a1.85 1.85 0 0 1-.47-.063l-11.255-3.127a1.73 1.73 0 0 1-.845-.53l-7.809-8.874a1.739 1.739 0 0 1-.162-2.091 1.731 1.731 0 0 1 1.966-.74l9.273 2.711 15.397-5.796a1.76 1.76 0 0 1 2.248 1.02 1.75 1.75 0 0 1-1.017 2.253l-15.943 6.003a1.74 1.74 0 0 1-1.105.04l-4.053-1.188 3.488 3.964 10.758 2.988a1.75 1.75 0 0 1 1.216 2.149 1.756 1.756 0 0 1-1.687 1.28"/></g><g><path fill="#403f3e" d="M391.23 125.111c-.448 0-.89-.167-1.23-.504l-9.23-9.127a1.744 1.744 0 0 1-.014-2.47 1.744 1.744 0 0 1 2.47-.014l9.232 9.124c.688.678.69 1.786.016 2.474a1.75 1.75 0 0 1-1.245.517"/></g><g><path fill="#403f3e" d="M345.282 89.812c-.233 0-.468-.045-.693-.142l-9.244-3.997-4.965.714c-.298.039-.583.008-.855-.09l-8.593-3.12a1.753 1.753 0 0 1-1.15-1.718 1.756 1.756 0 0 1 1.294-1.613c.373-.123 2.285-1.062 3.822-1.812l6.62-3.378c.245-.128.525-.196.805-.196h6.25c.568 0 1.104.277 1.433.742.322.471.406 1.067.21 1.603l-1.038 2.845 7.33 7.166c.599.588.696 1.526.228 2.222a1.74 1.74 0 0 1-1.454.774m-19.176-8.483l4.192 1.52 1.687-.256c.01 0 .013 0 .019-.003l3.338-.458c.319-.047.637-.006.932.125l1.027.443-1.382-1.347a1.748 1.748 0 0 1-.418-1.84l.567-1.555h-3.328l-6.308 3.21c-.112.054-.222.106-.326.161"/></g><g><path fill="#403f3e" d="M335.589 85.625a1.75 1.75 0 0 1-1.616-2.418l1.56-3.76a1.764 1.764 0 0 1 2.288-.946 1.753 1.753 0 0 1 .947 2.283l-1.564 3.764a1.75 1.75 0 0 1-1.615 1.077"/></g><g><path fill="#403f3e" d="M332.248 86.088c-.465 0-.925-.18-1.27-.547l-5.148-5.432 2.518-2.429 5.168 5.459c.664.7.636 1.806-.068 2.468a1.733 1.733 0 0 1-1.2.48"/></g><g><g/><g clip-path="url(#fp5cb)"><path fill="#403f3e" d="M334.24 55.584l-42.538-52.12a1.75 1.75 0 1 1 2.455-2.468l47.786 38.415a1.75 1.75 0 0 1 .53 1.992l-5.249 13.7a1.742 1.742 0 0 1-1.634 1.124 1.737 1.737 0 0 1-1.349-.643zM304.914 14.13l30.132 36.905 3.721-9.7z"/></g></g><g><path fill="#403f3e" d="M348.303 194.627c-.46 0-.915-.18-1.26-.539l-45.192-47.001c-.013-.01-.026-.026-.04-.04l-58.373-60.755 40.104 60.172c.536.803.317 1.89-.486 2.424a1.747 1.747 0 0 1-2.426-.486l-51.017-76.544a1.75 1.75 0 0 1 2.719-2.18l71.875 74.815c.112.09.211.194.303.314l45.053 46.86c.67.695.646 1.804-.05 2.47a1.729 1.729 0 0 1-1.21.49"/></g><g><path fill="#403f3e" d="M360.794 207.656c-.465 0-.926-.186-1.26-.536l-12.497-12.994a1.748 1.748 0 0 1 .052-2.473 1.747 1.747 0 0 1 2.47.05l9.488 9.866v-28.18a1.747 1.747 0 1 1 3.496 0v32.52c0 .711-.431 1.355-1.098 1.619-.21.086-.432.128-.651.128"/></g><g><path fill="#403f3e" d="M343.04 229.454a1.748 1.748 0 0 1-1.73-2.01l5.26-34.79c0-.965.773-1.634 1.738-1.634s1.738.894 1.738 1.859l-5.278 35.09a1.75 1.75 0 0 1-1.728 1.485"/></g><g><path fill="#403f3e" d="M304.417 67.945a1.743 1.743 0 0 1-1.634-1.135c-.34-.9.115-1.908 1.022-2.248l31.174-11.715c.896-.327 1.916.12 2.248 1.02a1.744 1.744 0 0 1-1.02 2.253l-31.176 11.715c-.199.073-.408.11-.614.11"/></g><g><path fill="#403f3e" d="M352.345 115.233c-.236 0-.479-.05-.706-.152a1.745 1.745 0 0 1-.892-2.303l5.242-11.843-6.745-6.928a1.75 1.75 0 0 1 2.505-2.44l7.566 7.776c.499.51.635 1.273.345 1.927l-5.718 12.925a1.743 1.743 0 0 1-1.597 1.038"/></g><g><path fill="#403f3e" d="M306.437 244.899a1.762 1.762 0 0 1-1.558-.95c-12.439-24.235-12.439-24.901-12.439-25.44 0-.965.782-1.765 1.746-1.765.968 0 1.75.764 1.75 1.731.35.866 5.931 11.898 10.292 20.434l14.845-37.655c.347-.9 1.377-1.33 2.266-.985a1.745 1.745 0 0 1 .983 2.266l-16.261 41.258a1.745 1.745 0 0 1-1.537 1.103c-.03.003-.06.003-.087.003"/></g><g><path fill="#403f3e" d="M198.369 88.525c-.018-.031-.21-.405-.222-.434l-31.1-63.48a1.753 1.753 0 0 1 .619-2.235L198.764 2.21l1.056 1.302-.933-1.396.11-.07a1.742 1.742 0 0 1 1.793-.087c.57.303.925.894.925 1.537V87.82c0 .826-.58 1.54-1.388 1.713-.12.023-.243.034-.36.034-.683 0-1.316-.4-1.598-1.04zm-27.498-64.06l27.346 55.828V6.723z"/></g><g><path fill="#403f3e" d="M190.238 70.677L109.318 46.5a1.749 1.749 0 1 1-.622-3.017l28.83-24.142c.124-.101.252-.183.388-.245.295-.152.625-.22.99-.189l29.899 3.198c.96.102 1.652.965 1.55 1.924a1.732 1.732 0 0 1-1.924 1.553l-24.67-2.638 48.163 44.78c.596.55.734 1.44.327 2.146a1.742 1.742 0 0 1-2.01.807zM113.433 44.08l70.646 21.119-45.43-42.23z"/></g><g><path fill="#403f3e" d="M106.629 94.54a1.75 1.75 0 0 1-1.749-1.749c0-.58.282-1.093.719-1.412 1.067-1.145 6.502-7.427 14.369-16.656l18.779-22.013 2.658 2.267-18.781 22.015c-6.622 7.776-13.796 16.113-14.688 17.002-.33.326-.842.546-1.307.546"/></g><g><path fill="#403f3e" d="M106.699 94.507c-.769 0-1.472-.51-1.69-1.289a1.75 1.75 0 0 1 1.23-2.144c1.388-.423 32.099-11.869 52.415-19.445l15.747-5.862c2.439-.91 4.068-1.514 4.583-1.691a1.777 1.777 0 0 1 1.85.332c.71.658.756 1.749.103 2.455l-.032.033c-.209.22-.468.385-.76.476-.309.097-1.943.711-4.52 1.67l-15.745 5.865c-34.23 12.756-51.777 19.281-52.718 19.54-.157.039-.312.06-.463.06"/></g><g><path fill="#403f3e" d="M64.144 56.197c-.664 0-1.302-.363-1.598-.988-.408-.86-.089-1.867.761-2.293l.07-.037c3.326-1.474 53.211-23.906 69.397-31.354-11.511-1.767-35.702-5.637-36.016-5.686a1.748 1.748 0 0 1-1.443-2.005c.154-.95 1.022-1.621 2.005-1.446 1.93.314 39.937 6.366 41.514 6.512.666.066 1.26.502 1.495 1.124.236.62.12 1.329-.332 1.812-.16.173-.366.317-.588.418-4.465 2.33-73.84 33.478-74.539 33.786a1.793 1.793 0 0 1-.726.157"/></g><g><path fill="#403f3e" d="M121.294 77.602c-.204 0-.408-.036-.61-.11l-26.023-9.654a1.748 1.748 0 1 1 1.218-3.278l22.458 8.331-9.626-26.047-44.183 9.31c-.96.222-1.872-.405-2.07-1.352a1.744 1.744 0 0 1 1.35-2.068l45.658-9.62c.84-.165 1.7.292 1.995 1.103l11.472 31.032a1.746 1.746 0 0 1-1.64 2.353"/></g><g><path fill="#403f3e" d="M89.057 187.42a1.744 1.744 0 0 1-1.71-2.102l.175-.855 17.289-91.47L93.663 66.89a1.753 1.753 0 0 1 .034-1.454 1.767 1.767 0 0 1 1.122-.922l20.447-5.433a1.744 1.744 0 0 1 2.141 1.242 1.744 1.744 0 0 1-1.24 2.136L97.67 67.373l10.564 24.734c.139.32.173.672.11 1.015l-17.576 92.907c-.17.823-.9 1.39-1.71 1.39"/></g><g><path fill="#403f3e" d="M56.637 229.454c-.368 0-.74-.115-1.053-.358a1.741 1.741 0 0 1-.337-2.447l60.962-80.27a1.753 1.753 0 0 1 2.293-.441l41.623 25.004-8.146-28.118-19.198-18.706c-.687-.672-.721-1.786-.062-2.476.664-.695 1.74-.745 2.444-.086l19.587 19.088c.217.211.374.478.46.766l9.514 32.839a1.757 1.757 0 0 1-.617 1.874 1.764 1.764 0 0 1-1.966.113l-44.094-26.497-60.016 79.025c-.348.452-.865.69-1.394.69"/></g><g><path fill="#403f3e" d="M163.04 176.476a1.748 1.748 0 0 1-1.663-2.295l12.146-36.886a1.83 1.83 0 0 1 .222-.447l6.547-9.506-4.429-17.875a1.745 1.745 0 0 1 1.281-2.115c.949-.264 1.877.34 2.115 1.273l4.614 18.644c.12.483.027.998-.258 1.411l-6.847 9.943-12.066 36.65a1.757 1.757 0 0 1-1.663 1.203"/></g><g><path fill="#403f3e" d="M177.554 110.8c-.105 0-.214-.013-.324-.034l-8.507-1.789-1.906.636a1.636 1.636 0 0 1-.356.151c-.925.288-2.076-.188-2.358-1.113-.277-.926.068-1.846.99-2.126l.043-.013c.08-.044.172-.084.269-.115l2.661-.886c.296-.1.62-.118.913-.053l8.766 1.849c.938.196 1.634 1.132 1.443 2.07-.167.832-.826 1.423-1.634 1.423"/></g><g><path fill="#403f3e" d="M157.65 112.679a1.755 1.755 0 0 1-1.658-1.187 1.752 1.752 0 0 1 1.098-2.217l7.937-2.73a1.767 1.767 0 0 1 2.228 1.075 1.753 1.753 0 0 1-1.078 2.227l-7.966 2.737a1.749 1.749 0 0 1-.562.095"/></g><g><path fill="#403f3e" d="M179.655 119.247c-.073 0-.152-.005-.227-.018l-15.017-1.99a1.747 1.747 0 0 1-1.37-1.014l-2.7-6.037a1.756 1.756 0 0 1 .883-2.311c.868-.403 1.916-.003 2.31.881l2.302 5.145 14.047 1.864a1.745 1.745 0 0 1 1.505 1.96 1.753 1.753 0 0 1-1.733 1.52"/></g><g><path fill="#403f3e" d="M164.312 286.333l-33.99-36.894-1.552 12.355c-.115.954-1.035 1.605-1.95 1.517a1.753 1.753 0 0 1-1.517-1.953l12.782-100.8c.11-.845.813-1.49 1.668-1.525.842-.117 1.605.557 1.778 1.391l25.778 124.366a1.753 1.753 0 0 1-.91 1.914c-.257.13-.528.193-.803.193a1.74 1.74 0 0 1-1.284-.564zm-33.422-41.357c.126.078.24.178.345.29l31.362 34.045-22.363-107.917z"/></g><g><path fill="#403f3e" d="M199.907 310.796c-.81 0-1.517-.512-1.658-1.351l-.034-.212-18.418-88.128a1.755 1.755 0 0 1 1.351-2.07c.978-.189 1.875.415 2.071 1.356l18.356 87.799c.002.02.08.431.08.455.163.949-.457 1.958-1.406 2.12-.115.021-.227.031-.342.031"/></g><g><g/><g clip-path="url(#fp5cc)"><path fill="#403f3e" d="M199.97 310.9a1.763 1.763 0 0 1-1.355-.641 1.504 1.504 0 0 1-.144-.134l-35.927-38.912a1.743 1.743 0 0 1 .1-2.468c.7-.659 1.812-.61 2.468.097l35.927 38.912c.156.105.198.178.313.327.589.763.45 1.864-.313 2.45a1.718 1.718 0 0 1-1.07.368"/></g></g><g><path fill="#403f3e" d="M163.829 271.768a1.748 1.748 0 0 1-1.707-2.125l.779-3.516 13.778-61.075a1.75 1.75 0 0 1 1.704-1.362h.021c.824.01 1.53.593 1.694 1.396L183 219.321l17.297 4.484-.327 1.728-.551 1.66-.11-.034-18.238-4.727a1.75 1.75 0 0 1-1.276-1.34l-1.495-7.329-12.766 56.635c-.18.814-.9 1.37-1.705 1.37"/></g><g><path fill="#403f3e" d="M163.829 268.077a1.75 1.75 0 0 1-1.749-1.749v-71.182a1.748 1.748 0 0 1 3.495 0v71.182c0 .965-.781 1.75-1.746 1.75"/></g><g><path fill="#403f3e" d="M127.036 263.322c-.64 0-1.255-.353-1.561-.965l-21.55-43.067a1.746 1.746 0 0 1 3.122-1.563l21.552 43.064a1.754 1.754 0 0 1-.779 2.348 1.742 1.742 0 0 1-.784.183"/></g><g><path fill="#403f3e" d="M105.495 220.221a1.752 1.752 0 0 1-1.563-.965l-16.437-32.805a1.746 1.746 0 1 1 3.124-1.566l16.437 32.803a1.751 1.751 0 0 1-.777 2.35 1.75 1.75 0 0 1-.784.183"/></g><g><path fill="#403f3e" d="M127.036 263.32a1.745 1.745 0 0 1-1.71-2.102c.176-4.096-5.55-70.018-9.469-113.634a1.746 1.746 0 0 1 1.584-1.898 1.765 1.765 0 0 1 1.896 1.585c10.204 113.498 9.582 114.556 9.205 115.19-.327.553-.907.86-1.506.86z"/></g><g><path fill="#403f3e" d="M135.682 123.163l-3.43-.67s2.732-14.018 3.836-19.869c.07-.392.133-.737.193-1.038-3.59-.7-11.576-2.63-30.065-7.095a1.747 1.747 0 0 1-1.286-2.108c.227-.938 1.192-1.495 2.107-1.291 8.4 2.031 30.274 7.305 31.519 7.574a1.753 1.753 0 0 1 1.456 1.723c0 .076-.16 1.098-.46 2.724-1.132 6.016-3.87 20.05-3.87 20.05"/></g><g><path fill="#403f3e" d="M117.599 149.181c-.85 0-1.593-.617-1.729-1.48a1.75 1.75 0 0 1 1.464-1.994l35.93-5.538c.928-.14 1.846.507 1.992 1.46a1.749 1.749 0 0 1-1.464 1.994l-35.927 5.537a1.86 1.86 0 0 1-.266.021"/></g><g><path fill="#403f3e" d="M199.786 177.549l-14.05-3.13a1.746 1.746 0 0 1-1.05-.706l-7.355-10.546a1.749 1.749 0 0 1 2.5-2.384l7.354 5.644 13.545 7.825c.541.314.873.889.873 1.514 0 .964-.781 1.783-1.749 1.783zm-12.622-6.388l2.023.455-2.862-1.666z"/></g><g><path fill="#403f3e" d="M199.945 177.577c-.256 0-.512-.057-.76-.18l-.071-.037a1.747 1.747 0 0 1-.78-2.342 1.745 1.745 0 0 1 2.343-.785c.86.432 1.25 1.498.816 2.361-.303.62-.91.983-1.548.983"/></g><g><path fill="#403f3e" d="M199.893 177.545h-.037a1.748 1.748 0 0 1 0-3.495c.965 0 1.768.782 1.768 1.746 0 .965-.766 1.75-1.731 1.75"/></g><g><path fill="#403f3e" d="M178.59 206.376c-.329 0-.66-.091-.943-.277l-14.766-9.48a1.75 1.75 0 0 1-.805-1.406l-.785-20.413a1.747 1.747 0 0 1 1.679-1.812c.936-.107 1.777.714 1.82 1.679l.744 19.503 13.206 8.476 19.477-8.714v-7.678l-8.863-11.404a1.75 1.75 0 0 1 .306-2.453 1.753 1.753 0 0 1 2.452.304l9.122 11.717c.17.275.48.928.48 1.252v9.373a1.75 1.75 0 0 1-.802 1.47l-21.61 9.71c-.225.101-.47.153-.711.153"/></g><g><path fill="#403f3e" d="M171.526 117.934c-4.233 0-7.676-3.443-7.676-7.678 0-.912.167-1.83.494-2.727a1.749 1.749 0 1 1 3.286 1.197c-.19.52-.282 1.02-.282 1.53a4.186 4.186 0 0 0 4.178 4.183c2.33 0 4.22-1.877 4.22-4.183 0-.314-.027-.599-.082-.886a1.753 1.753 0 0 1 1.402-2.04c.936-.19 1.859.453 2.039 1.4.094.496.136.985.136 1.526 0 4.235-3.459 7.678-7.715 7.678"/></g><g><path fill="#403f3e" d="M213.813 169.555h-27.697a1.748 1.748 0 0 1 0-3.495h27.444c.964 0 1.877.782 1.877 1.746 0 .965-.66 1.75-1.624 1.75"/></g><g><path fill="#403f3e" d="M46.125 152.982c-.488 0-.97-.201-1.315-.596l-2.813-3.203H25.252c-.413 0-.813-.146-1.127-.405l-12.07-10.12a1.747 1.747 0 0 1-.215-2.463 1.752 1.752 0 0 1 2.463-.22l11.585 9.713h16.901c.5 0 .983.214 1.318.593l3.333 3.8c.633.726.568 1.83-.164 2.467a1.73 1.73 0 0 1-1.15.434"/></g><g><path fill="#403f3e" d="M28.448 180.064c-.373 0-.745-.12-1.053-.356L11.77 167.847a1.748 1.748 0 0 1-.661-1.73l3.668-18.573-7.977-23.63-6.65-14.974a1.75 1.75 0 0 1 .441-2.024l37.922-33.438.546-6.784c.037-.41.215-.8.505-1.093l19.772-19.846a1.748 1.748 0 1 1 2.479 2.466L42.493 67.614l-.552 6.85a1.75 1.75 0 0 1-.585 1.171l-37.49 33.056 6.19 13.956 8.189 24.222c.096.288.12.596.057.897l-3.548 17.958 13.904 10.557 67.168-32.029a1.752 1.752 0 0 1 2.332.824c.413.87.047 1.913-.829 2.329l-68.128 32.492a1.782 1.782 0 0 1-.753.167"/></g><g><path fill="#403f3e" d="M16.582 149.178c-.337 0-.674-.094-.97-.293l-8.45-5.645a1.755 1.755 0 0 1-.666-.852L.318 125.562a1.739 1.739 0 0 1 .152-1.519l4.185-6.818a1.737 1.737 0 0 1 2.403-.573 1.744 1.744 0 0 1 .575 2.405l-3.74 6.095 5.683 15.495 7.976 5.328a1.746 1.746 0 0 1 .484 2.426 1.742 1.742 0 0 1-1.454.777"/></g><g><path fill="#403f3e" d="M8.457 125.107c-.766 0-1.47-.507-1.687-1.28a1.75 1.75 0 0 1 1.216-2.15l10.758-2.988 3.496-3.969-4.102 1.192c-.361.11-.75.092-1.106-.039l-15.906-6.002a1.749 1.749 0 0 1 1.24-3.274l15.359 5.796 9.312-2.71a1.739 1.739 0 0 1 1.96.74c.422.653.351 1.508-.161 2.09l-7.81 8.874a1.73 1.73 0 0 1-.844.53l-11.255 3.127a1.85 1.85 0 0 1-.47.063"/></g><g><path fill="#403f3e" d="M8.457 125.111c-.452 0-.896-.172-1.244-.515a1.752 1.752 0 0 1 .016-2.473l9.194-9.124a1.744 1.744 0 0 1 2.471.008c.68.687.675 1.793-.013 2.473l-9.195 9.124a1.72 1.72 0 0 1-1.229.507"/></g><g><path fill="#403f3e" d="M54.4 89.812c-.57 0-1.122-.275-1.455-.772a1.756 1.756 0 0 1 .228-2.224l7.33-7.164-1.04-2.847a1.75 1.75 0 0 1 1.644-2.345h6.252c.28 0 .559.068.805.199.005.002 2.58 1.34 5.192 2.648l1.336.659c1.574.779 3.53 1.752 3.945 1.887.706.236 1.218.902 1.229 1.648.01.742-.419 1.422-1.122 1.675l-8.588 3.125a1.799 1.799 0 0 1-.85.086l-4.97-.714-9.244 3.997c-.225.097-.46.142-.693.142m9.692-7.693c.08 0 .16.006.24.016l3.302.462c.005.003.01.003.016.003l1.728.253 4.227-1.535a18.78 18.78 0 0 1-.465-.227l-1.333-.657a379.574 379.574 0 0 1-4.876-2.479h-3.328l.57 1.558a1.75 1.75 0 0 1-.419 1.842l-1.383 1.351 1.028-.443c.217-.094.455-.144.693-.144"/></g><g><path fill="#403f3e" d="M64.091 85.628a1.75 1.75 0 0 1-1.616-1.077l-1.563-3.765a1.75 1.75 0 0 1 .946-2.282 1.755 1.755 0 0 1 2.288.946l1.558 3.76a1.747 1.747 0 0 1-1.613 2.418"/></g><g><path fill="#403f3e" d="M67.399 86.09c-.431 0-.865-.159-1.203-.48a1.744 1.744 0 0 1-.068-2.468l5.185-5.467c.674-.698 1.778-.732 2.47-.065.704.664.735 1.77.07 2.468l-5.186 5.466a1.723 1.723 0 0 1-1.268.547"/></g><g><path fill="#403f3e" d="M63.81 56.204a1.76 1.76 0 0 1-1.356-1.101l-5.247-13.702a1.753 1.753 0 0 1 .53-1.99L105.526.993a1.75 1.75 0 0 1 2.452 2.47l-9.582 11.752a1.806 1.806 0 0 1-.222.225l-32.73 40.141a1.752 1.752 0 0 1-1.633.623zm-2.886-14.868l3.72 9.695 30.019-36.814z"/></g><g><path fill="#403f3e" d="M38.846 207.65c-.217 0-.441-.042-.65-.128a1.74 1.74 0 0 1-1.096-1.618v-32.52a1.747 1.747 0 1 1 3.495 0v28.18L167.338 69.687a1.764 1.764 0 0 1 2.363-.173c.709.568.87 1.582.369 2.34l-51.022 76.544a1.736 1.736 0 0 1-2.421.484 1.738 1.738 0 0 1-.484-2.421l40.15-60.228L40.106 207.114c-.335.35-.795.536-1.26.536"/></g><g><path fill="#403f3e" d="M56.632 229.452a1.75 1.75 0 0 1-1.728-1.485l-5.255-34.828a1.75 1.75 0 0 1 1.472-1.99 1.759 1.759 0 0 1 1.987 1.464l5.255 34.829a1.748 1.748 0 0 1-1.73 2.01"/></g><g><path fill="#403f3e" d="M95.266 67.947c-.207 0-.416-.037-.615-.11L63.475 56.122a1.748 1.748 0 0 1-1.022-2.254c.334-.899 1.364-1.351 2.25-1.02l31.174 11.716a1.744 1.744 0 0 1 1.023 2.248 1.743 1.743 0 0 1-1.634 1.135"/></g><g><path fill="#403f3e" d="M47.334 115.242c-.669 0-1.307-.387-1.597-1.038l-5.757-12.923a1.748 1.748 0 0 1 .348-1.93l7.566-7.774a1.747 1.747 0 1 1 2.505 2.44l-6.738 6.924 5.268 11.843a1.744 1.744 0 0 1-1.595 2.458"/></g><g><path fill="#403f3e" d="M93.238 244.898c-.029 0-.058 0-.086-.003a1.745 1.745 0 0 1-1.538-1.103l-16.261-41.258c-.356-.9.086-1.913.983-2.266.894-.343 1.919.086 2.267.985l14.844 37.655c4.366-8.544 9.953-19.618 10.353-20.823 0-.965.75-1.553 1.715-1.553.967 0 1.72.975 1.72 1.942v.034c0 .539 0 1.205-12.439 25.44a1.762 1.762 0 0 1-1.558.95"/></g></g></g></svg>