<?xml version="1.0" encoding="UTF-8"?>
<svg width="421px" height="18px" viewBox="0 0 421 18" version="1.1" xmlns="http://www.w3.org/2000/svg" xmlns:xlink="http://www.w3.org/1999/xlink">
    <!-- Generator: Sketch 63.1 (92452) - https://sketch.com -->
    <title>dvorik_сopperplate_3</title>
    <desc>Created with Sketch.</desc>
    <g id="Кейс" stroke="none" stroke-width="1" fill="none" fill-rule="evenodd" opacity="0.400000006">
        <g id="Дворик-Be" transform="translate(-1241.000000, -3620.000000)" fill="#12171E" fill-rule="nonzero">
            <g id="Цвета-и-шрифты" transform="translate(175.000000, 3225.000000)">
                <g id="Group-29-Copy" transform="translate(1066.500000, 305.500000)">
                    <path d="M1.58,104 L3.26,100.26 L11.06,100.26 L12.74,104 L14.3,104 L7.9,90 L6.44,90 L0.04,104 L1.58,104 Z M10.52,99.06 L3.8,99.06 L7.16,91.54 L10.52,99.06 Z M25.06,104 C26.7933333,104 28.1033333,103.676667 28.99,103.03 C29.8766667,102.383333 30.32,101.46 30.32,100.26 C30.32,99.3266667 30.07,98.5633333 29.57,97.97 C29.07,97.3766667 28.36,96.98 27.44,96.78 C28.1066667,96.5133333 28.63,96.11 29.01,95.57 C29.39,95.03 29.58,94.3733333 29.58,93.6 C29.58,92.4533333 29.15,91.5666667 28.29,90.94 C27.43,90.3133333 26.22,90 24.66,90 L24.66,90 L18.62,90 L18.62,104 L25.06,104 Z M24.56,96.3 L20.1,96.3 L20.1,91.22 L24.56,91.22 C25.6933333,91.22 26.5666667,91.4366667 27.18,91.87 C27.7933333,92.3033333 28.1,92.9333333 28.1,93.76 C28.1,94.5866667 27.7933333,95.2166667 27.18,95.65 C26.5666667,96.0833333 25.6933333,96.3 24.56,96.3 L24.56,96.3 Z M25.04,102.78 L20.1,102.78 L20.1,97.52 L25.04,97.52 C27.5733333,97.52 28.84,98.3933333 28.84,100.14 C28.84,101.046667 28.52,101.713333 27.88,102.14 C27.24,102.566667 26.2933333,102.78 25.04,102.78 L25.04,102.78 Z M41.78,104.12 C42.82,104.12 43.7833333,103.943333 44.67,103.59 C45.5566667,103.236667 46.3066667,102.726667 46.92,102.06 L46.92,102.06 L45.98,101.12 C44.9,102.24 43.52,102.8 41.84,102.8 C40.7333333,102.8 39.7266667,102.546667 38.82,102.04 C37.9133333,101.533333 37.2033333,100.84 36.69,99.96 C36.1766667,99.08 35.92,98.0933333 35.92,97 C35.92,95.9066667 36.1766667,94.92 36.69,94.04 C37.2033333,93.16 37.9133333,92.4666667 38.82,91.96 C39.7266667,91.4533333 40.7333333,91.2 41.84,91.2 C43.5066667,91.2 44.8866667,91.7533333 45.98,92.86 L45.98,92.86 L46.92,91.92 C46.3066667,91.2533333 45.56,90.7466667 44.68,90.4 C43.8,90.0533333 42.84,89.88 41.8,89.88 C40.4133333,89.88 39.16,90.1866667 38.04,90.8 C36.92,91.4133333 36.0433333,92.2633333 35.41,93.35 C34.7766667,94.4366667 34.46,95.6533333 34.46,97 C34.46,98.3466667 34.7766667,99.5633333 35.41,100.65 C36.0433333,101.736667 36.9166667,102.586667 38.03,103.2 C39.1433333,103.813333 40.3933333,104.12 41.78,104.12 Z M57.78,104 C59.26,104 60.5666667,103.703333 61.7,103.11 C62.8333333,102.516667 63.7133333,101.69 64.34,100.63 C64.9666667,99.57 65.28,98.36 65.28,97 C65.28,95.64 64.9666667,94.43 64.34,93.37 C63.7133333,92.31 62.8333333,91.4833333 61.7,90.89 C60.5666667,90.2966667 59.26,90 57.78,90 L57.78,90 L52.08,90 L52.08,104 L57.78,104 Z M57.7,102.72 L53.56,102.72 L53.56,91.28 L57.7,91.28 C58.9266667,91.28 60,91.5233333 60.92,92.01 C61.84,92.4966667 62.5533333,93.17 63.06,94.03 C63.5666667,94.89 63.82,95.88 63.82,97 C63.82,98.12 63.5666667,99.11 63.06,99.97 C62.5533333,100.83 61.84,101.503333 60.92,101.99 C60,102.476667 58.9266667,102.72 57.7,102.72 L57.7,102.72 Z M80.5,104 L80.5,102.72 L72.08,102.72 L72.08,97.52 L79.32,97.52 L79.32,96.26 L72.08,96.26 L72.08,91.28 L80.2,91.28 L80.2,90 L70.6,90 L70.6,104 L80.5,104 Z M87.46,104 L87.46,98.06 L94.7,98.06 L94.7,96.78 L87.46,96.78 L87.46,91.28 L95.58,91.28 L95.58,90 L85.98,90 L85.98,104 L87.46,104 Z M106.6,104.12 C107.586667,104.12 108.526667,103.966667 109.42,103.66 C110.313333,103.353333 111.086667,102.913333 111.74,102.34 L111.74,102.34 L111.74,97 L110.32,97 L110.32,101.72 C109.32,102.44 108.1,102.8 106.66,102.8 C105.526667,102.8 104.506667,102.546667 103.6,102.04 C102.693333,101.533333 101.98,100.84 101.46,99.96 C100.94,99.08 100.68,98.0933333 100.68,97 C100.68,95.9066667 100.94,94.9166667 101.46,94.03 C101.98,93.1433333 102.696667,92.45 103.61,91.95 C104.523333,91.45 105.546667,91.2 106.68,91.2 C108.386667,91.2 109.793333,91.7466667 110.9,92.84 L110.9,92.84 L111.82,91.9 C111.206667,91.2333333 110.453333,90.73 109.56,90.39 C108.666667,90.05 107.686667,89.88 106.62,89.88 C105.206667,89.88 103.94,90.1866667 102.82,90.8 C101.7,91.4133333 100.82,92.2633333 100.18,93.35 C99.54,94.4366667 99.22,95.6533333 99.22,97 C99.22,98.3466667 99.54,99.5633333 100.18,100.65 C100.82,101.736667 101.7,102.586667 102.82,103.2 C103.94,103.813333 105.2,104.12 106.6,104.12 Z M119.4,104 L119.4,97.54 L128.16,97.54 L128.16,104 L129.62,104 L129.62,90 L128.16,90 L128.16,96.24 L119.4,96.24 L119.4,90 L117.92,90 L117.92,104 L119.4,104 Z M137.66,104 L137.66,90 L136.18,90 L136.18,104 L137.66,104 Z M145.72,104.12 C147.066667,104.12 148.083333,103.75 148.77,103.01 C149.456667,102.27 149.8,101.166667 149.8,99.7 L149.8,99.7 L149.8,90 L143.22,90 L143.22,91.28 L148.34,91.28 L148.34,99.76 C148.34,101.813333 147.473333,102.84 145.74,102.84 C144.5,102.84 143.493333,102.266667 142.72,101.12 L142.72,101.12 L141.84,102.12 C142.266667,102.76 142.82,103.253333 143.5,103.6 C144.18,103.946667 144.92,104.12 145.72,104.12 Z M157.72,104 L157.72,100.32 L160.58,97.42 L166.3,104 L168.06,104 L161.58,96.34 L167.64,90 L165.94,90 L157.72,98.46 L157.72,90 L156.24,90 L156.24,104 L157.72,104 Z M181.78,104 L181.78,102.72 L173.94,102.72 L173.94,90 L172.46,90 L172.46,104 L181.78,104 Z M187.66,104 L187.66,92.86 L193.16,102.22 L193.86,102.22 L199.36,92.8 L199.36,104 L200.78,104 L200.78,90 L199.56,90 L193.54,100.38 L187.46,90 L186.24,90 L186.24,104 L187.66,104 Z M208.82,104 L208.82,92.64 L217.82,104 L219.04,104 L219.04,90 L217.58,90 L217.58,101.36 L208.56,90 L207.34,90 L207.34,104 L208.82,104 Z M231.72,104.12 C233.106667,104.12 234.356667,103.813333 235.47,103.2 C236.583333,102.586667 237.46,101.736667 238.1,100.65 C238.74,99.5633333 239.06,98.3466667 239.06,97 C239.06,95.6533333 238.74,94.4366667 238.1,93.35 C237.46,92.2633333 236.583333,91.4133333 235.47,90.8 C234.356667,90.1866667 233.106667,89.88 231.72,89.88 C230.333333,89.88 229.076667,90.19 227.95,90.81 C226.823333,91.43 225.943333,92.28 225.31,93.36 C224.676667,94.44 224.36,95.6533333 224.36,97 C224.36,98.3466667 224.676667,99.56 225.31,100.64 C225.943333,101.72 226.823333,102.57 227.95,103.19 C229.076667,103.81 230.333333,104.12 231.72,104.12 Z M231.72,102.8 C230.613333,102.8 229.61,102.55 228.71,102.05 C227.81,101.55 227.103333,100.856667 226.59,99.97 C226.076667,99.0833333 225.82,98.0933333 225.82,97 C225.82,95.9066667 226.076667,94.9166667 226.59,94.03 C227.103333,93.1433333 227.81,92.45 228.71,91.95 C229.61,91.45 230.613333,91.2 231.72,91.2 C232.826667,91.2 233.826667,91.45 234.72,91.95 C235.613333,92.45 236.313333,93.1433333 236.82,94.03 C237.326667,94.9166667 237.58,95.9066667 237.58,97 C237.58,98.0933333 237.326667,99.0833333 236.82,99.97 C236.313333,100.856667 235.613333,101.55 234.72,102.05 C233.826667,102.55 232.826667,102.8 231.72,102.8 Z M245.86,104 L245.86,99.58 L249.62,99.58 C251.406667,99.58 252.806667,99.1566667 253.82,98.31 C254.833333,97.4633333 255.34,96.2933333 255.34,94.8 C255.34,93.3066667 254.833333,92.1333333 253.82,91.28 C252.806667,90.4266667 251.406667,90 249.62,90 L249.62,90 L244.38,90 L244.38,104 L245.86,104 Z M249.58,98.28 L245.86,98.28 L245.86,91.28 L249.58,91.28 C250.966667,91.28 252.026667,91.5833333 252.76,92.19 C253.493333,92.7966667 253.86,93.6666667 253.86,94.8 C253.86,95.9066667 253.493333,96.7633333 252.76,97.37 C252.026667,97.9766667 250.966667,98.28 249.58,98.28 L249.58,98.28 Z M271.44,106.78 C272.12,106.78 272.75,106.643333 273.33,106.37 C273.91,106.096667 274.413333,105.7 274.84,105.18 L274.84,105.18 L274.12,104.32 C273.386667,105.173333 272.5,105.6 271.46,105.6 C270.46,105.6 269.446667,105.06 268.42,103.98 C269.553333,103.766667 270.556667,103.333333 271.43,102.68 C272.303333,102.026667 272.983333,101.21 273.47,100.23 C273.956667,99.25 274.2,98.1733333 274.2,97 C274.2,95.6533333 273.88,94.4366667 273.24,93.35 C272.6,92.2633333 271.723333,91.4133333 270.61,90.8 C269.496667,90.1866667 268.246667,89.88 266.86,89.88 C265.473333,89.88 264.216667,90.19 263.09,90.81 C261.963333,91.43 261.083333,92.28 260.45,93.36 C259.816667,94.44 259.5,95.6533333 259.5,97 C259.5,98.32 259.806667,99.5133333 260.42,100.58 C261.033333,101.646667 261.88,102.493333 262.96,103.12 C264.04,103.746667 265.253333,104.08 266.6,104.12 C267.52,105.08 268.35,105.763333 269.09,106.17 C269.83,106.576667 270.613333,106.78 271.44,106.78 Z M266.86,102.8 C265.753333,102.8 264.75,102.546667 263.85,102.04 C262.95,101.533333 262.243333,100.84 261.73,99.96 C261.216667,99.08 260.96,98.0933333 260.96,97 C260.96,95.9066667 261.216667,94.92 261.73,94.04 C262.243333,93.16 262.95,92.4666667 263.85,91.96 C264.75,91.4533333 265.753333,91.2 266.86,91.2 C267.966667,91.2 268.966667,91.4533333 269.86,91.96 C270.753333,92.4666667 271.453333,93.16 271.96,94.04 C272.466667,94.92 272.72,95.9066667 272.72,97 C272.72,98.0933333 272.466667,99.08 271.96,99.96 C271.453333,100.84 270.753333,101.533333 269.86,102.04 C268.966667,102.546667 267.966667,102.8 266.86,102.8 Z M281,104 L281,99.56 L284.76,99.56 C285.146667,99.56 285.52,99.54 285.88,99.5 L285.88,99.5 L289.08,104 L290.7,104 L287.28,99.2 C288.306667,98.8666667 289.096667,98.3233333 289.65,97.57 C290.203333,96.8166667 290.48,95.8933333 290.48,94.8 C290.48,93.3066667 289.973333,92.1333333 288.96,91.28 C287.946667,90.4266667 286.546667,90 284.76,90 L284.76,90 L279.52,90 L279.52,104 L281,104 Z M284.72,98.3 L281,98.3 L281,91.28 L284.72,91.28 C286.106667,91.28 287.166667,91.5833333 287.9,92.19 C288.633333,92.7966667 289,93.6666667 289,94.8 C289,95.9066667 288.633333,96.7666667 287.9,97.38 C287.166667,97.9933333 286.106667,98.3 284.72,98.3 L284.72,98.3 Z M299.84,104.12 C300.986667,104.12 301.953333,103.95 302.74,103.61 C303.526667,103.27 304.11,102.81 304.49,102.23 C304.87,101.65 305.06,101.006667 305.06,100.3 C305.06,99.4466667 304.84,98.77 304.4,98.27 C303.96,97.77 303.423333,97.3966667 302.79,97.15 C302.156667,96.9033333 301.326667,96.6533333 300.3,96.4 C299.433333,96.1866667 298.743333,95.99 298.23,95.81 C297.716667,95.63 297.29,95.37 296.95,95.03 C296.61,94.69 296.44,94.24 296.44,93.68 C296.44,92.9333333 296.75,92.3233333 297.37,91.85 C297.99,91.3766667 298.913333,91.14 300.14,91.14 C300.78,91.14 301.433333,91.2366667 302.1,91.43 C302.766667,91.6233333 303.393333,91.9133333 303.98,92.3 L303.98,92.3 L304.48,91.12 C303.92,90.7333333 303.256667,90.43 302.49,90.21 C301.723333,89.99 300.94,89.88 300.14,89.88 C298.993333,89.88 298.033333,90.0533333 297.26,90.4 C296.486667,90.7466667 295.913333,91.21 295.54,91.79 C295.166667,92.37 294.98,93.0133333 294.98,93.72 C294.98,94.5866667 295.203333,95.2733333 295.65,95.78 C296.096667,96.2866667 296.633333,96.6633333 297.26,96.91 C297.886667,97.1566667 298.726667,97.4133333 299.78,97.68 C300.66,97.8933333 301.346667,98.09 301.84,98.27 C302.333333,98.45 302.75,98.7066667 303.09,99.04 C303.43,99.3733333 303.6,99.82 303.6,100.38 C303.6,101.113333 303.286667,101.71 302.66,102.17 C302.033333,102.63 301.093333,102.86 299.84,102.86 C298.946667,102.86 298.08,102.703333 297.24,102.39 C296.4,102.076667 295.726667,101.666667 295.22,101.16 L295.22,101.16 L294.64,102.3 C295.16,102.846667 295.896667,103.286667 296.85,103.62 C297.803333,103.953333 298.8,104.12 299.84,104.12 Z M314.28,104 L314.28,91.28 L319.2,91.28 L319.2,90 L307.88,90 L307.88,91.28 L312.8,91.28 L312.8,104 L314.28,104 Z M328.92,104.12 C330.733333,104.12 332.143333,103.6 333.15,102.56 C334.156667,101.52 334.66,100.006667 334.66,98.02 L334.66,98.02 L334.66,90 L333.22,90 L333.22,97.96 C333.22,99.5866667 332.853333,100.8 332.12,101.6 C331.386667,102.4 330.32,102.8 328.92,102.8 C327.533333,102.8 326.473333,102.4 325.74,101.6 C325.006667,100.8 324.64,99.5866667 324.64,97.96 L324.64,97.96 L324.64,90 L323.16,90 L323.16,98.02 C323.16,100.006667 323.666667,101.52 324.68,102.56 C325.693333,103.6 327.106667,104.12 328.92,104.12 Z M346.56,104 L352.76,90 L351.26,90 L345.86,102.16 L340.5,90 L338.9,90 L345.1,104 L346.56,104 Z M361.8,104 L365.92,92.06 L370.02,104 L371.58,104 L376.3,90 L374.88,90 L370.78,102.1 L366.66,90 L365.28,90 L361.1,102.04 L357.06,90 L355.54,90 L360.26,104 L361.8,104 Z M380.62,104 L385.12,97.84 L389.64,104 L391.36,104 L386.02,96.76 L390.98,90 L389.38,90 L385.18,95.72 L380.96,90 L379.26,90 L384.24,96.8 L378.92,104 L380.62,104 Z M400.18,104 L400.18,99.16 L405.78,90 L404.3,90 L399.5,97.86 L394.7,90 L393.12,90 L398.72,99.16 L398.72,104 L400.18,104 Z M420.18,104 L420.18,102.72 L410.68,102.72 L419.94,91.02 L419.94,90 L408.84,90 L408.84,91.28 L417.98,91.28 L408.7,102.98 L408.7,104 L420.18,104 Z" id="dvorik_сopperplate_3"></path>
                </g>
            </g>
        </g>
    </g>
</svg>