<?xml version="1.0" encoding="UTF-8"?>
<svg width="388px" height="14px" viewBox="0 0 388 14" version="1.1" xmlns="http://www.w3.org/2000/svg" xmlns:xlink="http://www.w3.org/1999/xlink">
    <!-- Generator: Sketch 63.1 (92452) - https://sketch.com -->
    <title>dvorik_сopperplate_1</title>
    <desc>Created with Sketch.</desc>
    <g id="Кейс" stroke="none" stroke-width="1" fill="none" fill-rule="evenodd" opacity="0.400000006">
        <g id="Дворик-Be" transform="translate(-1242.000000, -3451.000000)" fill="#12171E" fill-rule="nonzero">
            <g id="Цвета-и-шрифты" transform="translate(175.000000, 3225.000000)">
                <g id="Group-29" transform="translate(1066.500000, 137.500000)">
                    <path d="M4.36,100 L4.36,99.76 C4.21333333,99.76 4.11666667,99.7433333 4.07,99.71 C4.02333333,99.6766667 4,99.6266667 4,99.56 C4,99.5333333 4.01,99.49 4.03,99.43 C4.05,99.37 4.08333333,99.2733333 4.13,99.14 C4.17666667,99.0066667 4.24,98.8266667 4.32,98.6 C4.4,98.3733333 4.50666667,98.08 4.64,97.72 L4.64,97.72 L9.38,97.72 C9.39333333,97.7866667 9.43666667,97.9133333 9.51,98.1 C9.58333333,98.2866667 9.66,98.4833333 9.74,98.69 C9.82,98.8966667 9.89333333,99.0833333 9.96,99.25 C10.0266667,99.4166667 10.06,99.5066667 10.06,99.52 C10.06,99.6666667 9.93333333,99.7466667 9.68,99.76 L9.68,99.76 L9.68,100 L13.62,100 L13.62,99.76 C13.5,99.76 13.4033333,99.72 13.33,99.64 C13.2566667,99.56 13.1666667,99.4 13.06,99.16 C12.8466667,98.6533333 12.61,98.08 12.35,97.44 C12.09,96.8 11.82,96.1433333 11.54,95.47 C11.26,94.7966667 10.99,94.1366667 10.73,93.49 C10.47,92.8433333 10.24,92.2633333 10.04,91.75 C9.84,91.2366667 9.67666667,90.82 9.55,90.5 C9.42333333,90.18 9.36,90.0066667 9.36,89.98 C9.36,89.8733333 9.39333333,89.8066667 9.46,89.78 C9.52666667,89.7533333 9.61333333,89.7333333 9.72,89.72 L9.72,89.72 L9.72,89.48 L4.5,89.48 L4.5,89.72 C4.59333333,89.7333333 4.68333333,89.7533333 4.77,89.78 C4.85666667,89.8066667 4.9,89.8533333 4.9,89.92 C4.9,89.9333333 4.85,90.0733333 4.75,90.34 C4.65,90.6066667 4.52,90.9533333 4.36,91.38 C4.2,91.8066667 4.01666667,92.29 3.81,92.83 C3.60333333,93.37 3.39333333,93.9233333 3.18,94.49 C2.96666667,95.0566667 2.75333333,95.6133333 2.54,96.16 C2.32666667,96.7066667 2.13333333,97.2033333 1.96,97.65 C1.78666667,98.0966667 1.64666667,98.4666667 1.54,98.76 C1.43333333,99.0533333 1.36666667,99.2333333 1.34,99.3 C1.27333333,99.46 1.20666667,99.57 1.14,99.63 C1.07333333,99.69 0.966666667,99.7333333 0.82,99.76 L0.82,99.76 L0.82,100 L4.36,100 Z M8.86,96.12 L5.14,96.12 L6.92,91.36 L8.86,96.12 Z M24.7,100 C25.4066667,100 26.0166667,99.92 26.53,99.76 C27.0433333,99.6 27.4633333,99.3866667 27.79,99.12 C28.1166667,98.8533333 28.3566667,98.54 28.51,98.18 C28.6633333,97.82 28.74,97.44 28.74,97.04 C28.74,96.2933333 28.5233333,95.7266667 28.09,95.34 C27.6566667,94.9533333 27.1,94.6666667 26.42,94.48 L26.42,94.48 L26.42,94.44 C26.98,94.32 27.44,94.0766667 27.8,93.71 C28.16,93.3433333 28.34,92.86 28.34,92.26 C28.34,91.7666667 28.2466667,91.3433333 28.06,90.99 C27.8733333,90.6366667 27.6133333,90.35 27.28,90.13 C26.9466667,89.91 26.5533333,89.7466667 26.1,89.64 C25.6466667,89.5333333 25.1466667,89.48 24.6,89.48 L24.6,89.48 L16.98,89.48 L16.98,89.72 C17.2333333,89.7466667 17.39,89.79 17.45,89.85 C17.51,89.91 17.54,89.9866667 17.54,90.08 L17.54,90.08 L17.54,99.4 C17.54,99.4933333 17.51,99.57 17.45,99.63 C17.39,99.69 17.2333333,99.7333333 16.98,99.76 L16.98,99.76 L16.98,100 L24.7,100 Z M23.26,93.44 L20.54,93.44 L20.54,91.6 L23.26,91.6 C23.6866667,91.6 24.04,91.61 24.32,91.63 C24.6,91.65 24.82,91.6933333 24.98,91.76 C25.14,91.8266667 25.2533333,91.92 25.32,92.04 C25.3866667,92.16 25.42,92.32 25.42,92.52 C25.42,92.72 25.3866667,92.88 25.32,93 C25.2533333,93.12 25.14,93.2133333 24.98,93.28 C24.82,93.3466667 24.6,93.39 24.32,93.41 C24.04,93.43 23.6866667,93.44 23.26,93.44 L23.26,93.44 Z M23.94,97.88 L20.54,97.88 L20.54,95.48 L23.94,95.48 C24.66,95.48 25.1666667,95.57 25.46,95.75 C25.7533333,95.93 25.9,96.24 25.9,96.68 C25.9,97.12 25.7533333,97.43 25.46,97.61 C25.1666667,97.79 24.66,97.88 23.94,97.88 L23.94,97.88 Z M38.64,100.06 C39.3866667,100.06 40.06,100.01 40.66,99.91 C41.26,99.81 41.7833333,99.6966667 42.23,99.57 C42.6766667,99.4433333 43.04,99.3233333 43.32,99.21 C43.6,99.0966667 43.7866667,99.04 43.88,99.04 C43.9466667,99.04 44.0033333,99.05 44.05,99.07 C44.0966667,99.09 44.1333333,99.1333333 44.16,99.2 L44.16,99.2 L44.4,99.06 L42.34,95.92 L42.12,96.06 C42.1466667,96.1133333 42.1733333,96.16 42.2,96.2 C42.2266667,96.24 42.24,96.2933333 42.24,96.36 C42.24,96.5066667 42.0966667,96.6466667 41.81,96.78 C41.5233333,96.9133333 41.1933333,97.0333333 40.82,97.14 C40.4466667,97.2466667 40.0733333,97.33 39.7,97.39 C39.3266667,97.45 39.0533333,97.48 38.88,97.48 C38.48,97.48 38.06,97.4333333 37.62,97.34 C37.18,97.2466667 36.7766667,97.0933333 36.41,96.88 C36.0433333,96.6666667 35.7433333,96.3833333 35.51,96.03 C35.2766667,95.6766667 35.16,95.2466667 35.16,94.74 C35.16,94.2333333 35.2766667,93.8033333 35.51,93.45 C35.7433333,93.0966667 36.0433333,92.8133333 36.41,92.6 C36.7766667,92.3866667 37.18,92.2333333 37.62,92.14 C38.06,92.0466667 38.48,92 38.88,92 C39.3066667,92 39.7133333,92.03 40.1,92.09 C40.4866667,92.15 40.83,92.2233333 41.13,92.31 C41.43,92.3966667 41.67,92.4933333 41.85,92.6 C42.03,92.7066667 42.12,92.8133333 42.12,92.92 C42.12,92.9866667 42.1166667,93.0433333 42.11,93.09 C42.1033333,93.1366667 42.0933333,93.18 42.08,93.22 L42.08,93.22 L42.28,93.36 L44.08,90.06 L43.86,90 C43.78,90.1066667 43.68,90.16 43.56,90.16 C43.4533333,90.16 43.2933333,90.1233333 43.08,90.05 C42.8666667,89.9766667 42.5666667,89.8866667 42.18,89.78 C41.78,89.6733333 41.29,89.5766667 40.71,89.49 C40.13,89.4033333 39.44,89.36 38.64,89.36 C37.84,89.36 37.0466667,89.4733333 36.26,89.7 C35.4733333,89.9266667 34.7666667,90.2633333 34.14,90.71 C33.5133333,91.1566667 33.0066667,91.7166667 32.62,92.39 C32.2333333,93.0633333 32.04,93.8466667 32.04,94.74 C32.04,95.6333333 32.2333333,96.4166667 32.62,97.09 C33.0066667,97.7633333 33.5133333,98.3233333 34.14,98.77 C34.7666667,99.2166667 35.4733333,99.5433333 36.26,99.75 C37.0466667,99.9566667 37.84,100.06 38.64,100.06 Z M54.36,100 C55.2933333,100 56.11,99.8533333 56.81,99.56 C57.51,99.2666667 58.0966667,98.8766667 58.57,98.39 C59.0433333,97.9033333 59.3966667,97.3433333 59.63,96.71 C59.8633333,96.0766667 59.98,95.42 59.98,94.74 C59.98,93.9933333 59.87,93.3 59.65,92.66 C59.43,92.02 59.1,91.4633333 58.66,90.99 C58.22,90.5166667 57.66,90.1466667 56.98,89.88 C56.3,89.6133333 55.5,89.48 54.58,89.48 L54.58,89.48 L47.94,89.48 L47.94,89.72 C48.1933333,89.7466667 48.35,89.79 48.41,89.85 C48.47,89.91 48.5,89.9866667 48.5,90.08 L48.5,90.08 L48.5,99.4 C48.5,99.4933333 48.47,99.57 48.41,99.63 C48.35,99.69 48.1933333,99.7333333 47.94,99.76 L47.94,99.76 L47.94,100 L54.36,100 Z M54.04,97.64 L51.5,97.64 L51.5,91.84 L54.04,91.84 C55.0933333,91.84 55.8533333,92.11 56.32,92.65 C56.7866667,93.19 57.02,93.8866667 57.02,94.74 C57.02,95.5933333 56.7866667,96.29 56.32,96.83 C55.8533333,97.37 55.0933333,97.64 54.04,97.64 L54.04,97.64 Z M73.96,100.38 L73.96,96.96 L73.72,96.96 C73.6933333,97.2133333 73.6533333,97.3766667 73.6,97.45 C73.5466667,97.5233333 73.4666667,97.56 73.36,97.56 L73.36,97.56 L66.94,97.56 L66.94,95.7 L70.66,95.7 C70.86,95.7 71.0033333,95.7433333 71.09,95.83 C71.1766667,95.9166667 71.2333333,96.0266667 71.26,96.16 L71.26,96.16 L71.5,96.16 L71.5,93.04 L71.26,93.04 C71.2333333,93.1733333 71.1766667,93.2833333 71.09,93.37 C71.0033333,93.4566667 70.86,93.5 70.66,93.5 L70.66,93.5 L66.94,93.5 L66.94,91.84 L73.36,91.84 C73.4666667,91.84 73.5466667,91.8766667 73.6,91.95 C73.6533333,92.0233333 73.6933333,92.1733333 73.72,92.4 L73.72,92.4 L73.96,92.4 L73.96,88.92 L73.72,88.92 C73.6933333,89.1466667 73.6533333,89.2966667 73.6,89.37 C73.5466667,89.4433333 73.4666667,89.48 73.36,89.48 L73.36,89.48 L63.38,89.48 L63.38,89.72 C63.6333333,89.7466667 63.79,89.79 63.85,89.85 C63.91,89.91 63.94,89.9866667 63.94,90.08 L63.94,90.08 L63.94,99.4 C63.94,99.4933333 63.91,99.57 63.85,99.63 C63.79,99.69 63.6333333,99.7333333 63.38,99.76 L63.38,99.76 L63.38,100 L73.36,100 C73.4666667,100 73.5466667,100.02 73.6,100.06 C73.6533333,100.1 73.6933333,100.206667 73.72,100.38 L73.72,100.38 L73.96,100.38 Z M81.92,100 L81.92,99.76 C81.6666667,99.7333333 81.51,99.69 81.45,99.63 C81.39,99.57 81.36,99.4933333 81.36,99.4 L81.36,99.4 L81.36,96.06 L85.8,96.06 C85.9066667,96.06 85.9866667,96.0933333 86.04,96.16 C86.0933333,96.2266667 86.1333333,96.3733333 86.16,96.6 L86.16,96.6 L86.4,96.6 L86.4,93.24 L86.16,93.24 C86.1333333,93.4266667 86.0933333,93.55 86.04,93.61 C85.9866667,93.67 85.9066667,93.7 85.8,93.7 L85.8,93.7 L81.36,93.7 L81.36,91.92 L87.96,91.92 C88.0666667,91.92 88.1466667,91.9533333 88.2,92.02 C88.2533333,92.0866667 88.2933333,92.2133333 88.32,92.4 L88.32,92.4 L88.56,92.4 L88.56,88.92 L88.32,88.92 C88.2933333,89.1466667 88.2533333,89.2966667 88.2,89.37 C88.1466667,89.4433333 88.0666667,89.48 87.96,89.48 L87.96,89.48 L77.72,89.48 L77.72,89.72 C77.9733333,89.7466667 78.13,89.79 78.19,89.85 C78.25,89.91 78.28,89.9866667 78.28,90.08 L78.28,90.08 L78.28,99.4 C78.28,99.4933333 78.25,99.57 78.19,99.63 C78.13,99.69 77.9733333,99.7333333 77.72,99.76 L77.72,99.76 L77.72,100 L81.92,100 Z M97.78,100.06 C100.26,100.06 102.406667,99.58 104.22,98.62 L104.22,98.62 L104.22,98.38 L104.12,98.38 C104.013333,98.38 103.946667,98.3466667 103.92,98.28 C103.893333,98.2133333 103.88,98.1333333 103.88,98.04 L103.88,98.04 L103.88,94.72 C103.88,94.5066667 103.986667,94.3933333 104.2,94.38 L104.2,94.38 L104.2,94.14 L98.3,94.14 C98.1266667,94.14 98.0266667,94.02 98,93.78 L98,93.78 L97.76,93.78 L97.76,96.58 L98,96.58 C98.0133333,96.46 98.04,96.3633333 98.08,96.29 C98.12,96.2166667 98.1933333,96.18 98.3,96.18 L98.3,96.18 L100.88,96.18 L100.88,97.5 C100.466667,97.62 100.036667,97.7133333 99.59,97.78 C99.1433333,97.8466667 98.64,97.88 98.08,97.88 C97.64,97.88 97.1933333,97.82 96.74,97.7 C96.2866667,97.58 95.8766667,97.3933333 95.51,97.14 C95.1433333,96.8866667 94.84,96.5633333 94.6,96.17 C94.36,95.7766667 94.24,95.3133333 94.24,94.78 C94.24,94.2333333 94.34,93.7633333 94.54,93.37 C94.74,92.9766667 95.01,92.6466667 95.35,92.38 C95.69,92.1133333 96.0766667,91.9166667 96.51,91.79 C96.9433333,91.6633333 97.4,91.6 97.88,91.6 C98.2933333,91.6 98.7166667,91.6333333 99.15,91.7 C99.5833333,91.7666667 99.9733333,91.8466667 100.32,91.94 C100.666667,92.0333333 100.953333,92.1366667 101.18,92.25 C101.406667,92.3633333 101.52,92.4666667 101.52,92.56 C101.52,92.6266667 101.506667,92.7 101.48,92.78 L101.48,92.78 L101.72,92.92 L103.02,90.28 L102.78,90.2 C102.7,90.3066667 102.606667,90.36 102.5,90.36 C102.42,90.36 102.24,90.2966667 101.96,90.17 C101.68,90.0433333 101.373333,89.9333333 101.04,89.84 C100.693333,89.7466667 100.393333,89.67 100.14,89.61 C99.8866667,89.55 99.64,89.5 99.4,89.46 C99.16,89.42 98.9133333,89.3933333 98.66,89.38 C98.4066667,89.3666667 98.1133333,89.36 97.78,89.36 C96.94,89.36 96.13,89.47 95.35,89.69 C94.57,89.91 93.88,90.2433333 93.28,90.69 C92.68,91.1366667 92.1966667,91.6966667 91.83,92.37 C91.4633333,93.0433333 91.28,93.8333333 91.28,94.74 C91.28,95.6466667 91.4633333,96.4366667 91.83,97.11 C92.1966667,97.7833333 92.68,98.34 93.28,98.78 C93.88,99.22 94.57,99.5433333 95.35,99.75 C96.13,99.9566667 96.94,100.06 97.78,100.06 Z M111.62,100 L111.62,99.76 C111.366667,99.7333333 111.21,99.69 111.15,99.63 C111.09,99.57 111.06,99.4933333 111.06,99.4 L111.06,99.4 L111.06,95.7 L116.26,95.7 L116.26,99.4 C116.26,99.4933333 116.23,99.57 116.17,99.63 C116.11,99.69 115.953333,99.7333333 115.7,99.76 L115.7,99.76 L115.7,100 L119.82,100 L119.82,99.76 C119.566667,99.7333333 119.41,99.69 119.35,99.63 C119.29,99.57 119.26,99.4933333 119.26,99.4 L119.26,99.4 L119.26,90.08 C119.26,89.9866667 119.29,89.91 119.35,89.85 C119.41,89.79 119.566667,89.7466667 119.82,89.72 L119.82,89.72 L119.82,89.48 L115.7,89.48 L115.7,89.72 C115.953333,89.7466667 116.11,89.79 116.17,89.85 C116.23,89.91 116.26,89.9866667 116.26,90.08 L116.26,90.08 L116.26,93.26 L111.06,93.26 L111.06,90.08 C111.06,89.9866667 111.09,89.91 111.15,89.85 C111.21,89.79 111.366667,89.7466667 111.62,89.72 L111.62,89.72 L111.62,89.48 L107.5,89.48 L107.5,89.72 C107.753333,89.7466667 107.91,89.79 107.97,89.85 C108.03,89.91 108.06,89.9866667 108.06,90.08 L108.06,90.08 L108.06,99.4 C108.06,99.4933333 108.03,99.57 107.97,99.63 C107.91,99.69 107.753333,99.7333333 107.5,99.76 L107.5,99.76 L107.5,100 L111.62,100 Z M128.4,100 L128.4,99.76 C128.146667,99.7333333 127.99,99.69 127.93,99.63 C127.87,99.57 127.84,99.4933333 127.84,99.4 L127.84,99.4 L127.84,90.08 C127.84,89.9866667 127.87,89.91 127.93,89.85 C127.99,89.79 128.146667,89.7466667 128.4,89.72 L128.4,89.72 L128.4,89.48 L124.28,89.48 L124.28,89.72 C124.533333,89.7466667 124.69,89.79 124.75,89.85 C124.81,89.91 124.84,89.9866667 124.84,90.08 L124.84,90.08 L124.84,99.4 C124.84,99.4933333 124.81,99.57 124.75,99.63 C124.69,99.69 124.533333,99.7333333 124.28,99.76 L124.28,99.76 L124.28,100 L128.4,100 Z M135.7,100.06 C136.326667,100.06 136.913333,100.023333 137.46,99.95 C138.006667,99.8766667 138.483333,99.72 138.89,99.48 C139.296667,99.24 139.616667,98.9 139.85,98.46 C140.083333,98.02 140.2,97.4466667 140.2,96.74 L140.2,96.74 L140.2,90.08 C140.2,89.9866667 140.23,89.91 140.29,89.85 C140.35,89.79 140.506667,89.7466667 140.76,89.72 L140.76,89.72 L140.76,89.48 L136.64,89.48 L136.64,89.72 C136.893333,89.7466667 137.05,89.79 137.11,89.85 C137.17,89.91 137.2,89.9866667 137.2,90.08 L137.2,90.08 L137.2,96.24 C137.2,96.7466667 137.11,97.1266667 136.93,97.38 C136.75,97.6333333 136.373333,97.76 135.8,97.76 C135.653333,97.76 135.426667,97.7433333 135.12,97.71 C134.813333,97.6766667 134.506667,97.6133333 134.2,97.52 C133.893333,97.4266667 133.623333,97.3033333 133.39,97.15 C133.156667,96.9966667 133.04,96.8 133.04,96.56 C133.04,96.5333333 133.043333,96.4933333 133.05,96.44 C133.056667,96.3866667 133.066667,96.3266667 133.08,96.26 L133.08,96.26 L132.84,96.18 L131.48,99.54 L131.78,99.72 C131.886667,99.6266667 131.963333,99.56 132.01,99.52 C132.056667,99.48 132.133333,99.46 132.24,99.46 C132.293333,99.46 132.413333,99.4933333 132.6,99.56 C132.786667,99.6266667 133.03,99.7 133.33,99.78 C133.63,99.86 133.98,99.9266667 134.38,99.98 C134.78,100.033333 135.22,100.06 135.7,100.06 Z M149.08,100 L149.08,99.76 C148.826667,99.7333333 148.67,99.69 148.61,99.63 C148.55,99.57 148.52,99.4933333 148.52,99.4 L148.52,99.4 L148.52,97 L150.48,95.24 C150.533333,95.32 150.64,95.4733333 150.8,95.7 C150.96,95.9266667 151.14,96.1933333 151.34,96.5 C151.54,96.8066667 151.753333,97.1266667 151.98,97.46 C152.206667,97.7933333 152.413333,98.1066667 152.6,98.4 C152.786667,98.6933333 152.94,98.94 153.06,99.14 C153.18,99.34 153.24,99.46 153.24,99.5 C153.24,99.6333333 153.206667,99.71 153.14,99.73 C153.073333,99.75 152.98,99.76 152.86,99.76 L152.86,99.76 L152.86,100 L157.44,100 L157.44,99.76 C157.306667,99.76 157.193333,99.7466667 157.1,99.72 C157.006667,99.6933333 156.906667,99.6 156.8,99.44 L156.8,99.44 L152.72,93.34 L156.18,90.36 C156.3,90.2533333 156.403333,90.1633333 156.49,90.09 C156.576667,90.0166667 156.656667,89.9533333 156.73,89.9 C156.803333,89.8466667 156.883333,89.8066667 156.97,89.78 C157.056667,89.7533333 157.166667,89.7333333 157.3,89.72 L157.3,89.72 L157.3,89.48 L152.22,89.48 L152.22,89.72 C152.326667,89.7333333 152.413333,89.75 152.48,89.77 C152.546667,89.79 152.58,89.86 152.58,89.98 C152.58,90.0333333 152.45,90.1833333 152.19,90.43 C151.93,90.6766667 151.606667,90.9766667 151.22,91.33 C150.833333,91.6833333 150.41,92.0666667 149.95,92.48 C149.49,92.8933333 149.06,93.2933333 148.66,93.68 L148.66,93.68 L148.52,93.68 L148.52,90.08 C148.52,89.9866667 148.55,89.91 148.61,89.85 C148.67,89.79 148.826667,89.7466667 149.08,89.72 L149.08,89.72 L149.08,89.48 L144.96,89.48 L144.96,89.72 C145.213333,89.7466667 145.37,89.79 145.43,89.85 C145.49,89.91 145.52,89.9866667 145.52,90.08 L145.52,90.08 L145.52,99.4 C145.52,99.4933333 145.49,99.57 145.43,99.63 C145.37,99.69 145.213333,99.7333333 144.96,99.76 L144.96,99.76 L144.96,100 L149.08,100 Z M171.44,100.46 L171.44,97 L171.2,97 C171.173333,97.2266667 171.133333,97.3766667 171.08,97.45 C171.026667,97.5233333 170.946667,97.56 170.84,97.56 L170.84,97.56 L163.96,97.56 L163.96,90.08 C163.96,89.9866667 163.99,89.91 164.05,89.85 C164.11,89.79 164.266667,89.7466667 164.52,89.72 L164.52,89.72 L164.52,89.48 L160.4,89.48 L160.4,89.72 C160.653333,89.7466667 160.81,89.79 160.87,89.85 C160.93,89.91 160.96,89.9866667 160.96,90.08 L160.96,90.08 L160.96,99.4 C160.96,99.4933333 160.93,99.57 160.87,99.63 C160.81,99.69 160.653333,99.7333333 160.4,99.76 L160.4,99.76 L160.4,100 L170.84,100 C170.946667,100 171.026667,100.023333 171.08,100.07 C171.133333,100.116667 171.173333,100.246667 171.2,100.46 L171.2,100.46 L171.44,100.46 Z M178.18,100 L178.18,99.76 C177.926667,99.7333333 177.77,99.69 177.71,99.63 C177.65,99.57 177.62,99.4933333 177.62,99.4 L177.62,99.4 L177.62,91.92 L177.66,91.92 L181.18,99.76 L184.74,92 L184.78,92.04 L184.78,99.4 C184.78,99.4933333 184.75,99.57 184.69,99.63 C184.63,99.69 184.473333,99.7333333 184.22,99.76 L184.22,99.76 L184.22,100 L188.22,100 L188.22,99.76 C187.966667,99.7333333 187.81,99.69 187.75,99.63 C187.69,99.57 187.66,99.4933333 187.66,99.4 L187.66,99.4 L187.66,90.08 C187.66,89.9866667 187.69,89.91 187.75,89.85 C187.81,89.79 187.966667,89.7466667 188.22,89.72 L188.22,89.72 L188.22,89.48 L182.8,89.48 L182.8,89.72 C183.12,89.7333333 183.28,89.8533333 183.28,90.08 C183.28,90.1466667 183.22,90.3133333 183.1,90.58 C182.98,90.8466667 182.823333,91.18 182.63,91.58 C182.436667,91.98 182.22,92.42 181.98,92.9 C181.74,93.38 181.506667,93.8733333 181.28,94.38 C181.24,94.3 181.166667,94.14 181.06,93.9 C180.953333,93.66 180.83,93.3833333 180.69,93.07 C180.55,92.7566667 180.403333,92.43 180.25,92.09 C180.096667,91.75 179.956667,91.4333333 179.83,91.14 C179.703333,90.8466667 179.6,90.6 179.52,90.4 C179.44,90.2 179.4,90.0933333 179.4,90.08 C179.4,89.8533333 179.56,89.7333333 179.88,89.72 L179.88,89.72 L179.88,89.48 L174.66,89.48 L174.66,89.72 C174.913333,89.7466667 175.07,89.79 175.13,89.85 C175.19,89.91 175.22,89.9866667 175.22,90.08 L175.22,90.08 L175.22,99.4 C175.22,99.4933333 175.19,99.57 175.13,99.63 C175.07,99.69 174.913333,99.7333333 174.66,99.76 L174.66,99.76 L174.66,100 L178.18,100 Z M196.2,100 L196.2,99.76 C195.946667,99.7333333 195.79,99.69 195.73,99.63 C195.67,99.57 195.64,99.4933333 195.64,99.4 L195.64,99.4 L195.64,93.12 C196.52,94.1066667 197.273333,94.9433333 197.9,95.63 C198.526667,96.3166667 199.053333,96.89 199.48,97.35 C199.906667,97.81 200.25,98.1766667 200.51,98.45 C200.77,98.7233333 200.966667,98.9333333 201.1,99.08 C201.233333,99.2266667 201.32,99.33 201.36,99.39 C201.4,99.45 201.42,99.5 201.42,99.54 C201.42,99.6066667 201.39,99.66 201.33,99.7 C201.27,99.74 201.146667,99.76 200.96,99.76 L200.96,99.76 L200.96,100 L204.76,100 L204.76,99.76 C204.506667,99.7333333 204.35,99.69 204.29,99.63 C204.23,99.57 204.2,99.4933333 204.2,99.4 L204.2,99.4 L204.2,90.08 C204.2,89.9866667 204.23,89.91 204.29,89.85 C204.35,89.79 204.506667,89.7466667 204.76,89.72 L204.76,89.72 L204.76,89.48 L201.1,89.48 L201.1,89.72 C201.38,89.7333333 201.52,89.8533333 201.52,90.08 L201.52,90.08 L201.52,95.42 C201.28,95.1666667 200.993333,94.8633333 200.66,94.51 C200.326667,94.1566667 199.98,93.7833333 199.62,93.39 C199.26,92.9966667 198.903333,92.6033333 198.55,92.21 C198.196667,91.8166667 197.88,91.46 197.6,91.14 C197.32,90.82 197.093333,90.5533333 196.92,90.34 C196.746667,90.1266667 196.66,90.0066667 196.66,89.98 C196.66,89.9133333 196.696667,89.8566667 196.77,89.81 C196.843333,89.7633333 196.993333,89.7333333 197.22,89.72 L197.22,89.72 L197.22,89.48 L192.4,89.48 L192.4,89.72 C192.653333,89.7466667 192.81,89.79 192.87,89.85 C192.93,89.91 192.96,89.9866667 192.96,90.08 L192.96,90.08 L192.96,99.4 C192.96,99.4933333 192.93,99.57 192.87,99.63 C192.81,99.69 192.653333,99.7333333 192.4,99.76 L192.4,99.76 L192.4,100 L196.2,100 Z M214.56,100.06 C215.413333,100.06 216.216667,99.9533333 216.97,99.74 C217.723333,99.5266667 218.383333,99.1933333 218.95,98.74 C219.516667,98.2866667 219.966667,97.7266667 220.3,97.06 C220.633333,96.3933333 220.8,95.62 220.8,94.74 C220.8,93.86 220.633333,93.0866667 220.3,92.42 C219.966667,91.7533333 219.516667,91.1933333 218.95,90.74 C218.383333,90.2866667 217.723333,89.9433333 216.97,89.71 C216.216667,89.4766667 215.413333,89.36 214.56,89.36 C213.706667,89.36 212.903333,89.4766667 212.15,89.71 C211.396667,89.9433333 210.736667,90.2866667 210.17,90.74 C209.603333,91.1933333 209.153333,91.7533333 208.82,92.42 C208.486667,93.0866667 208.32,93.86 208.32,94.74 C208.32,95.62 208.486667,96.3933333 208.82,97.06 C209.153333,97.7266667 209.603333,98.2866667 210.17,98.74 C210.736667,99.1933333 211.396667,99.5266667 212.15,99.74 C212.903333,99.9533333 213.706667,100.06 214.56,100.06 Z M214.56,97.68 C214.12,97.68 213.703333,97.6133333 213.31,97.48 C212.916667,97.3466667 212.57,97.1566667 212.27,96.91 C211.97,96.6633333 211.73,96.3566667 211.55,95.99 C211.37,95.6233333 211.28,95.2066667 211.28,94.74 C211.28,94.2733333 211.37,93.8566667 211.55,93.49 C211.73,93.1233333 211.97,92.8166667 212.27,92.57 C212.57,92.3233333 212.916667,92.1333333 213.31,92 C213.703333,91.8666667 214.12,91.8 214.56,91.8 C215,91.8 215.416667,91.8666667 215.81,92 C216.203333,92.1333333 216.55,92.3233333 216.85,92.57 C217.15,92.8166667 217.39,93.1233333 217.57,93.49 C217.75,93.8566667 217.84,94.2733333 217.84,94.74 C217.84,95.2066667 217.75,95.6233333 217.57,95.99 C217.39,96.3566667 217.15,96.6633333 216.85,96.91 C216.55,97.1566667 216.203333,97.3466667 215.81,97.48 C215.416667,97.6133333 215,97.68 214.56,97.68 Z M228.52,100 L228.52,99.76 C228.266667,99.7333333 228.11,99.69 228.05,99.63 C227.99,99.57 227.96,99.4933333 227.96,99.4 L227.96,99.4 L227.96,96.14 L231.56,96.14 C232.186667,96.14 232.74,96.05 233.22,95.87 C233.7,95.69 234.1,95.45 234.42,95.15 C234.74,94.85 234.98,94.4966667 235.14,94.09 C235.3,93.6833333 235.38,93.26 235.38,92.82 C235.38,92.38 235.3,91.9566667 235.14,91.55 C234.98,91.1433333 234.74,90.7866667 234.42,90.48 C234.1,90.1733333 233.7,89.93 233.22,89.75 C232.74,89.57 232.186667,89.48 231.56,89.48 L231.56,89.48 L224.4,89.48 L224.4,89.72 C224.653333,89.7466667 224.81,89.79 224.87,89.85 C224.93,89.91 224.96,89.9866667 224.96,90.08 L224.96,90.08 L224.96,99.4 C224.96,99.4933333 224.93,99.57 224.87,99.63 C224.81,99.69 224.653333,99.7333333 224.4,99.76 L224.4,99.76 L224.4,100 L228.52,100 Z M231,94.02 L227.96,94.02 L227.96,91.72 L231,91.72 C231.56,91.72 231.97,91.8066667 232.23,91.98 C232.49,92.1533333 232.62,92.4333333 232.62,92.82 C232.62,93.2466667 232.49,93.5533333 232.23,93.74 C231.97,93.9266667 231.56,94.02 231,94.02 L231,94.02 Z M247.84,102.22 L250.26,100.44 L250.14,100.2 C250.073333,100.24 250.01,100.273333 249.95,100.3 C249.89,100.326667 249.813333,100.34 249.72,100.34 C249.653333,100.34 249.56,100.283333 249.44,100.17 C249.32,100.056667 249.196667,99.9266667 249.07,99.78 C248.943333,99.6333333 248.816667,99.4833333 248.69,99.33 C248.563333,99.1766667 248.46,99.06 248.38,98.98 C249.06,98.54 249.596667,97.9633333 249.99,97.25 C250.383333,96.5366667 250.58,95.7 250.58,94.74 C250.58,93.86 250.413333,93.0866667 250.08,92.42 C249.746667,91.7533333 249.296667,91.1933333 248.73,90.74 C248.163333,90.2866667 247.503333,89.9433333 246.75,89.71 C245.996667,89.4766667 245.193333,89.36 244.34,89.36 C243.486667,89.36 242.683333,89.4766667 241.93,89.71 C241.176667,89.9433333 240.516667,90.2866667 239.95,90.74 C239.383333,91.1933333 238.933333,91.7533333 238.6,92.42 C238.266667,93.0866667 238.1,93.86 238.1,94.74 C238.1,95.62 238.266667,96.3933333 238.6,97.06 C238.933333,97.7266667 239.383333,98.2866667 239.95,98.74 C240.516667,99.1933333 241.176667,99.5266667 241.93,99.74 C242.683333,99.9533333 243.486667,100.06 244.34,100.06 C244.74,100.06 245.133333,100.043333 245.52,100.01 C245.906667,99.9766667 246.273333,99.9066667 246.62,99.8 C246.686667,99.9066667 246.79,100.046667 246.93,100.22 C247.07,100.393333 247.213333,100.576667 247.36,100.77 C247.506667,100.963333 247.633333,101.143333 247.74,101.31 C247.846667,101.476667 247.9,101.593333 247.9,101.66 C247.9,101.726667 247.876667,101.79 247.83,101.85 C247.783333,101.91 247.74,101.966667 247.7,102.02 L247.7,102.02 L247.84,102.22 Z M244.79,98.05 C244.636667,98.0433333 244.5,98.04 244.38,98.04 C243.873333,98.04 243.413333,97.9566667 243,97.79 C242.586667,97.6233333 242.236667,97.3933333 241.95,97.1 C241.663333,96.8066667 241.443333,96.4566667 241.29,96.05 C241.136667,95.6433333 241.06,95.2066667 241.06,94.74 C241.06,94.2733333 241.15,93.8566667 241.33,93.49 C241.51,93.1233333 241.75,92.8166667 242.05,92.57 C242.35,92.3233333 242.696667,92.1333333 243.09,92 C243.483333,91.8666667 243.9,91.8 244.34,91.8 C244.78,91.8 245.196667,91.8666667 245.59,92 C245.983333,92.1333333 246.33,92.3233333 246.63,92.57 C246.93,92.8166667 247.17,93.1233333 247.35,93.49 C247.53,93.8566667 247.62,94.2733333 247.62,94.74 C247.62,94.98 247.596667,95.2166667 247.55,95.45 C247.503333,95.6833333 247.443333,95.9033333 247.37,96.11 C247.296667,96.3166667 247.21,96.4966667 247.11,96.65 C247.01,96.8033333 246.9,96.92 246.78,97 C246.46,96.6266667 246.116667,96.3333333 245.75,96.12 C245.383333,95.9066667 244.993333,95.8 244.58,95.8 C244.513333,95.8 244.4,95.8066667 244.24,95.82 C244.08,95.8333333 243.913333,95.8566667 243.74,95.89 C243.566667,95.9233333 243.416667,95.97 243.29,96.03 C243.163333,96.09 243.1,96.16 243.1,96.24 C243.1,96.28 243.18,96.32 243.34,96.36 C243.5,96.4 243.693333,96.4733333 243.92,96.58 C244.146667,96.6866667 244.376667,96.8466667 244.61,97.06 C244.843333,97.2733333 245.033333,97.5733333 245.18,97.96 C245.073333,98.0266667 244.943333,98.0566667 244.79,98.05 Z M258.3,100 L258.3,99.76 C258.046667,99.7333333 257.89,99.69 257.83,99.63 C257.77,99.57 257.74,99.4933333 257.74,99.4 L257.74,99.4 L257.74,96.04 L259.7,96.04 C259.74,96.1066667 259.826667,96.2333333 259.96,96.42 C260.093333,96.6066667 260.25,96.82 260.43,97.06 C260.61,97.3 260.796667,97.55 260.99,97.81 C261.183333,98.07 261.36,98.3133333 261.52,98.54 C261.68,98.7666667 261.813333,98.96 261.92,99.12 C262.026667,99.28 262.08,99.3733333 262.08,99.4 C262.08,99.6266667 261.933333,99.7466667 261.64,99.76 L261.64,99.76 L261.64,100 L265.8,100 L265.8,99.76 C265.573333,99.76 265.38,99.64 265.22,99.4 L265.22,99.4 L262.86,96.08 C263.686667,95.8533333 264.37,95.48 264.91,94.96 C265.45,94.44 265.72,93.72 265.72,92.8 C265.72,91.6666667 265.386667,90.83 264.72,90.29 C264.053333,89.75 262.98,89.48 261.5,89.48 L261.5,89.48 L254.18,89.48 L254.18,89.72 C254.433333,89.7466667 254.59,89.79 254.65,89.85 C254.71,89.91 254.74,89.9866667 254.74,90.08 L254.74,90.08 L254.74,99.4 C254.74,99.4933333 254.71,99.57 254.65,99.63 C254.59,99.69 254.433333,99.7333333 254.18,99.76 L254.18,99.76 L254.18,100 L258.3,100 Z M261.1,93.92 L257.74,93.92 L257.74,91.72 L261.1,91.72 C261.686667,91.72 262.09,91.83 262.31,92.05 C262.53,92.27 262.64,92.5266667 262.64,92.82 C262.64,93.1133333 262.53,93.37 262.31,93.59 C262.09,93.81 261.686667,93.92 261.1,93.92 L261.1,93.92 Z M274.74,100.06 C275.82,100.06 276.723333,99.96 277.45,99.76 C278.176667,99.56 278.756667,99.29 279.19,98.95 C279.623333,98.61 279.93,98.2266667 280.11,97.8 C280.29,97.3733333 280.38,96.94 280.38,96.5 C280.38,95.9266667 280.26,95.45 280.02,95.07 C279.78,94.69 279.466667,94.3833333 279.08,94.15 C278.693333,93.9166667 278.253333,93.74 277.76,93.62 C277.266667,93.5 276.76,93.4066667 276.24,93.34 C275.72,93.2733333 275.213333,93.2233333 274.72,93.19 C274.226667,93.1566667 273.786667,93.1133333 273.4,93.06 C273.013333,93.0066667 272.7,92.9233333 272.46,92.81 C272.22,92.6966667 272.1,92.5266667 272.1,92.3 C272.1,92.0733333 272.273333,91.86 272.62,91.66 C272.966667,91.46 273.573333,91.36 274.44,91.36 C274.906667,91.36 275.386667,91.3933333 275.88,91.46 C276.373333,91.5266667 276.82,91.61 277.22,91.71 C277.62,91.81 277.95,91.9233333 278.21,92.05 C278.47,92.1766667 278.6,92.3 278.6,92.42 L278.6,92.42 L278.6,92.64 L278.84,92.76 L280.22,89.98 L280,89.9 C279.933333,89.98 279.86,90.05 279.78,90.11 C279.7,90.17 279.593333,90.2 279.46,90.2 C279.326667,90.2 279.106667,90.1566667 278.8,90.07 C278.493333,89.9833333 278.113333,89.8866667 277.66,89.78 C277.206667,89.6733333 276.686667,89.5766667 276.1,89.49 C275.513333,89.4033333 274.88,89.36 274.2,89.36 C273.466667,89.36 272.8,89.4433333 272.2,89.61 C271.6,89.7766667 271.09,90.0066667 270.67,90.3 C270.25,90.5933333 269.923333,90.9466667 269.69,91.36 C269.456667,91.7733333 269.34,92.2333333 269.34,92.74 C269.34,93.38 269.543333,93.8833333 269.95,94.25 C270.356667,94.6166667 270.866667,94.8966667 271.48,95.09 C272.093333,95.2833333 272.753333,95.4166667 273.46,95.49 C274.166667,95.5633333 274.826667,95.63 275.44,95.69 C276.053333,95.75 276.563333,95.83 276.97,95.93 C277.376667,96.03 277.58,96.2 277.58,96.44 C277.58,96.88 277.346667,97.2166667 276.88,97.45 C276.413333,97.6833333 275.68,97.8 274.68,97.8 C274.16,97.8 273.646667,97.75 273.14,97.65 C272.633333,97.55 272.183333,97.4266667 271.79,97.28 C271.396667,97.1333333 271.076667,96.9766667 270.83,96.81 C270.583333,96.6433333 270.46,96.4933333 270.46,96.36 C270.46,96.16 270.473333,96.02 270.5,95.94 L270.5,95.94 L270.3,95.84 L268.82,99.4 L269.06,99.46 C269.126667,99.3933333 269.19,99.3333333 269.25,99.28 C269.31,99.2266667 269.38,99.2 269.46,99.2 C269.58,99.2 269.763333,99.2466667 270.01,99.34 C270.256667,99.4333333 270.593333,99.5366667 271.02,99.65 C271.446667,99.7633333 271.963333,99.86 272.57,99.94 C273.176667,100.02 273.9,100.06 274.74,100.06 Z M290.5,100 L290.5,99.76 C290.246667,99.7333333 290.09,99.69 290.03,99.63 C289.97,99.57 289.94,99.4933333 289.94,99.4 L289.94,99.4 L289.94,91.92 L293.38,91.92 C293.486667,91.92 293.566667,91.9566667 293.62,92.03 C293.673333,92.1033333 293.713333,92.2533333 293.74,92.48 L293.74,92.48 L293.98,92.48 L293.98,88.92 L293.74,88.92 C293.713333,89.1466667 293.673333,89.2966667 293.62,89.37 C293.566667,89.4433333 293.486667,89.48 293.38,89.48 L293.38,89.48 L283.5,89.48 C283.393333,89.48 283.313333,89.4433333 283.26,89.37 C283.206667,89.2966667 283.166667,89.1466667 283.14,88.92 L283.14,88.92 L282.9,88.92 L282.9,92.48 L283.14,92.48 C283.166667,92.2533333 283.206667,92.1033333 283.26,92.03 C283.313333,91.9566667 283.393333,91.92 283.5,91.92 L283.5,91.92 L286.94,91.92 L286.94,99.4 C286.94,99.4933333 286.91,99.57 286.85,99.63 C286.79,99.69 286.633333,99.7333333 286.38,99.76 L286.38,99.76 L286.38,100 L290.5,100 Z M303.34,100.06 C304.1,100.06 304.816667,99.99 305.49,99.85 C306.163333,99.71 306.75,99.46 307.25,99.1 C307.75,98.74 308.143333,98.26 308.43,97.66 C308.716667,97.06 308.86,96.32 308.86,95.44 L308.86,95.44 L308.86,90.08 C308.86,89.9866667 308.89,89.91 308.95,89.85 C309.01,89.79 309.166667,89.7466667 309.42,89.72 L309.42,89.72 L309.42,89.48 L305.3,89.48 L305.3,89.72 C305.553333,89.7466667 305.71,89.79 305.77,89.85 C305.83,89.91 305.86,89.9866667 305.86,90.08 L305.86,90.08 L305.86,95.44 C305.86,96.2133333 305.64,96.7666667 305.2,97.1 C304.76,97.4333333 304.14,97.6 303.34,97.6 C302.54,97.6 301.92,97.4333333 301.48,97.1 C301.04,96.7666667 300.82,96.2133333 300.82,95.44 L300.82,95.44 L300.82,90.08 C300.82,89.9866667 300.85,89.91 300.91,89.85 C300.97,89.79 301.126667,89.7466667 301.38,89.72 L301.38,89.72 L301.38,89.48 L297.26,89.48 L297.26,89.72 C297.513333,89.7466667 297.67,89.79 297.73,89.85 C297.79,89.91 297.82,89.9866667 297.82,90.08 L297.82,90.08 L297.82,95.44 C297.82,96.32 297.963333,97.06 298.25,97.66 C298.536667,98.26 298.93,98.74 299.43,99.1 C299.93,99.46 300.516667,99.71 301.19,99.85 C301.863333,99.99 302.58,100.06 303.34,100.06 Z M320.92,100 L320.92,99.74 C320.733333,99.74 320.64,99.68 320.64,99.56 C320.64,99.5333333 320.693333,99.38 320.8,99.1 C320.906667,98.82 321.05,98.4666667 321.23,98.04 C321.41,97.6133333 321.616667,97.1266667 321.85,96.58 C322.083333,96.0333333 322.323333,95.4733333 322.57,94.9 C322.816667,94.3266667 323.056667,93.7633333 323.29,93.21 C323.523333,92.6566667 323.736667,92.1533333 323.93,91.7 C324.123333,91.2466667 324.286667,90.8666667 324.42,90.56 C324.553333,90.2533333 324.633333,90.06 324.66,89.98 C324.686667,89.8866667 324.723333,89.8266667 324.77,89.8 C324.816667,89.7733333 324.88,89.7466667 324.96,89.72 L324.96,89.72 L324.96,89.48 L321.52,89.48 L321.52,89.72 C321.64,89.7333333 321.72,89.7566667 321.76,89.79 C321.8,89.8233333 321.82,89.8733333 321.82,89.94 C321.82,89.9933333 321.793333,90.0966667 321.74,90.25 C321.686667,90.4033333 321.563333,90.6866667 321.37,91.1 C321.176667,91.5133333 320.903333,92.11 320.55,92.89 C320.196667,93.67 319.72,94.72 319.12,96.04 C318.493333,94.68 317.996667,93.6066667 317.63,92.82 C317.263333,92.0333333 316.983333,91.4333333 316.79,91.02 C316.596667,90.6066667 316.47,90.3366667 316.41,90.21 C316.35,90.0833333 316.32,90 316.32,89.96 C316.32,89.8933333 316.346667,89.84 316.4,89.8 C316.453333,89.76 316.56,89.7333333 316.72,89.72 L316.72,89.72 L316.72,89.48 L312.62,89.48 L312.62,89.72 C312.726667,89.7333333 312.806667,89.7733333 312.86,89.84 C312.913333,89.9066667 312.986667,90.0533333 313.08,90.28 C313.133333,90.4133333 313.23,90.6466667 313.37,90.98 C313.51,91.3133333 313.68,91.7066667 313.88,92.16 C314.08,92.6133333 314.3,93.1066667 314.54,93.64 C314.78,94.1733333 315.016667,94.7133333 315.25,95.26 C315.483333,95.8066667 315.713333,96.3333333 315.94,96.84 C316.166667,97.3466667 316.363333,97.8 316.53,98.2 C316.696667,98.6 316.833333,98.9233333 316.94,99.17 C317.046667,99.4166667 317.1,99.5533333 317.1,99.58 C317.1,99.62 317.08,99.6533333 317.04,99.68 C317,99.7066667 316.92,99.7333333 316.8,99.76 L316.8,99.76 L316.8,100 L320.92,100 Z M334.28,100 L334.28,99.76 C333.986667,99.76 333.84,99.6666667 333.84,99.48 C333.84,99.3866667 333.92,99.08 334.08,98.56 C334.24,98.04 334.433333,97.4266667 334.66,96.72 C334.886667,96.0133333 335.12,95.2766667 335.36,94.51 C335.6,93.7433333 335.8,93.0666667 335.96,92.48 L335.96,92.48 L336,92.48 C336.186667,93.1466667 336.39,93.8566667 336.61,94.61 C336.83,95.3633333 337.036667,96.0733333 337.23,96.74 C337.423333,97.4066667 337.586667,97.99 337.72,98.49 C337.853333,98.99 337.92,99.32 337.92,99.48 C337.92,99.6266667 337.786667,99.72 337.52,99.76 L337.52,99.76 L337.52,100 L341.68,100 L341.68,99.76 C341.586667,99.7466667 341.496667,99.7266667 341.41,99.7 C341.323333,99.6733333 341.28,99.6 341.28,99.48 C341.28,99.4533333 341.323333,99.3033333 341.41,99.03 C341.496667,98.7566667 341.613333,98.4033333 341.76,97.97 C341.906667,97.5366667 342.07,97.0466667 342.25,96.5 C342.43,95.9533333 342.62,95.3966667 342.82,94.83 C343.02,94.2633333 343.213333,93.7033333 343.4,93.15 C343.586667,92.5966667 343.753333,92.1033333 343.9,91.67 C344.046667,91.2366667 344.166667,90.8766667 344.26,90.59 C344.353333,90.3033333 344.406667,90.14 344.42,90.1 C344.446667,89.9933333 344.483333,89.9066667 344.53,89.84 C344.576667,89.7733333 344.653333,89.7333333 344.76,89.72 L344.76,89.72 L344.76,89.48 L341.4,89.48 L341.4,89.72 C341.506667,89.7466667 341.603333,89.78 341.69,89.82 C341.776667,89.86 341.82,89.94 341.82,90.06 C341.82,90.1 341.776667,90.26 341.69,90.54 C341.603333,90.82 341.493333,91.16 341.36,91.56 C341.226667,91.96 341.083333,92.3966667 340.93,92.87 C340.776667,93.3433333 340.626667,93.8 340.48,94.24 C340.333333,94.68 340.203333,95.0766667 340.09,95.43 C339.976667,95.7833333 339.9,96.04 339.86,96.2 L339.86,96.2 L339.82,96.2 C339.766667,95.9866667 339.686667,95.6866667 339.58,95.3 C339.473333,94.9133333 339.36,94.4966667 339.24,94.05 C339.12,93.6033333 338.993333,93.1433333 338.86,92.67 C338.726667,92.1966667 338.606667,91.7666667 338.5,91.38 C338.393333,90.9933333 338.306667,90.6733333 338.24,90.42 C338.173333,90.1666667 338.14,90.0333333 338.14,90.02 C338.14,89.9133333 338.173333,89.8433333 338.24,89.81 C338.306667,89.7766667 338.386667,89.7466667 338.48,89.72 L338.48,89.72 L338.48,89.48 L333.72,89.48 L333.72,89.72 C333.8,89.7466667 333.89,89.7766667 333.99,89.81 C334.09,89.8433333 334.14,89.9133333 334.14,90.02 C334.14,90.06 334.106667,90.2033333 334.04,90.45 C333.973333,90.6966667 333.883333,91.0066667 333.77,91.38 C333.656667,91.7533333 333.53,92.1666667 333.39,92.62 C333.25,93.0733333 333.11,93.5233333 332.97,93.97 C332.83,94.4166667 332.7,94.8366667 332.58,95.23 C332.46,95.6233333 332.36,95.9466667 332.28,96.2 L332.28,96.2 L332.24,96.2 C332.16,95.9333333 332.056667,95.6 331.93,95.2 C331.803333,94.8 331.666667,94.3766667 331.52,93.93 C331.373333,93.4833333 331.226667,93.0366667 331.08,92.59 C330.933333,92.1433333 330.8,91.7333333 330.68,91.36 C330.56,90.9866667 330.463333,90.68 330.39,90.44 C330.316667,90.2 330.28,90.06 330.28,90.02 C330.28,89.9133333 330.32,89.8433333 330.4,89.81 C330.48,89.7766667 330.58,89.7466667 330.7,89.72 L330.7,89.72 L330.7,89.48 L327.04,89.48 L327.04,89.72 C327.133333,89.72 327.2,89.7933333 327.24,89.94 C327.253333,89.98 327.306667,90.1466667 327.4,90.44 C327.493333,90.7333333 327.613333,91.1033333 327.76,91.55 C327.906667,91.9966667 328.073333,92.5 328.26,93.06 C328.446667,93.62 328.636667,94.1866667 328.83,94.76 C329.023333,95.3333333 329.21,95.8966667 329.39,96.45 C329.57,97.0033333 329.733333,97.4966667 329.88,97.93 C330.026667,98.3633333 330.143333,98.7133333 330.23,98.98 C330.316667,99.2466667 330.36,99.3933333 330.36,99.42 C330.36,99.5533333 330.32,99.6366667 330.24,99.67 C330.16,99.7033333 330.066667,99.7333333 329.96,99.76 L329.96,99.76 L329.96,100 L334.28,100 Z M351.9,100 L351.9,99.76 C351.82,99.76 351.72,99.75 351.6,99.73 C351.48,99.71 351.42,99.6466667 351.42,99.54 C351.42,99.4866667 351.466667,99.3966667 351.56,99.27 C351.653333,99.1433333 351.773333,98.9933333 351.92,98.82 C352.066667,98.6466667 352.226667,98.4633333 352.4,98.27 L352.57,98.08 C352.681111,97.9555556 352.787778,97.8355556 352.89,97.72 C353.043333,97.5466667 353.183333,97.3866667 353.31,97.24 C353.436667,97.0933333 353.52,96.9866667 353.56,96.92 C353.773333,97.2 353.996667,97.49 354.23,97.79 C354.463333,98.09 354.676667,98.37 354.87,98.63 C355.063333,98.89 355.223333,99.1133333 355.35,99.3 C355.476667,99.4866667 355.54,99.6066667 355.54,99.66 C355.54,99.7266667 355.413333,99.76 355.16,99.76 L355.16,99.76 L355.16,100 L359.84,100 L359.84,99.76 C359.773333,99.76 359.706667,99.7566667 359.64,99.75 C359.573333,99.7433333 359.52,99.7133333 359.48,99.66 L359.48,99.66 L355.42,94.52 L359.1,89.96 C359.22,89.8133333 359.386667,89.7333333 359.6,89.72 L359.6,89.72 L359.6,89.48 L355.02,89.48 L355.02,89.72 C355.1,89.72 355.19,89.7366667 355.29,89.77 C355.39,89.8033333 355.44,89.8733333 355.44,89.98 C355.44,90.02 355.356667,90.1433333 355.19,90.35 C355.023333,90.5566667 354.836667,90.7866667 354.63,91.04 C354.423333,91.2933333 354.22,91.5366667 354.02,91.77 C353.82,92.0033333 353.68,92.1666667 353.6,92.26 C353.546667,92.1933333 353.423333,92.0433333 353.23,91.81 C353.036667,91.5766667 352.83,91.33 352.61,91.07 C352.39,90.81 352.193333,90.57 352.02,90.35 C351.846667,90.13 351.76,90.0066667 351.76,89.98 C351.76,89.8733333 351.8,89.8066667 351.88,89.78 C351.96,89.7533333 352.08,89.7333333 352.24,89.72 L352.24,89.72 L352.24,89.48 L347.56,89.48 L347.56,89.72 C347.626667,89.72 347.696667,89.7366667 347.77,89.77 C347.843333,89.8033333 347.926667,89.8733333 348.02,89.98 L348.02,89.98 L351.74,94.66 L347.74,99.42 C347.553333,99.6466667 347.4,99.76 347.28,99.76 L347.28,99.76 L347.28,100 L351.9,100 Z M370.6,100 L370.6,99.76 C370.346667,99.7333333 370.19,99.69 370.13,99.63 C370.07,99.57 370.04,99.4933333 370.04,99.4 L370.04,99.4 L370.04,95.5 L373.88,90.08 C373.946667,89.9866667 374.016667,89.9033333 374.09,89.83 C374.163333,89.7566667 374.253333,89.72 374.36,89.72 L374.36,89.72 L374.36,89.48 L370.56,89.48 L370.56,89.72 C370.653333,89.72 370.75,89.7333333 370.85,89.76 C370.95,89.7866667 371,89.8533333 371,89.96 C371,89.9866667 370.946667,90.0833333 370.84,90.25 C370.733333,90.4166667 370.603333,90.6133333 370.45,90.84 C370.296667,91.0666667 370.123333,91.3133333 369.93,91.58 C369.736667,91.8466667 369.556667,92.1 369.39,92.34 C369.223333,92.58 369.073333,92.79 368.94,92.97 C368.806667,93.15 368.72,93.2733333 368.68,93.34 C368.52,93.0866667 368.313333,92.78 368.06,92.42 C367.806667,92.06 367.563333,91.7066667 367.33,91.36 C367.096667,91.0133333 366.893333,90.7066667 366.72,90.44 C366.546667,90.1733333 366.46,90.0133333 366.46,89.96 C366.46,89.8533333 366.513333,89.7866667 366.62,89.76 C366.726667,89.7333333 366.84,89.72 366.96,89.72 L366.96,89.72 L366.96,89.48 L362.56,89.48 L362.56,89.72 C362.653333,89.72 362.733333,89.7566667 362.8,89.83 C362.866667,89.9033333 363.006667,90.0933333 363.22,90.4 L363.22,90.4 L367.04,95.88 L367.04,99.4 C367.04,99.4933333 367.01,99.57 366.95,99.63 C366.89,99.69 366.733333,99.7333333 366.48,99.76 L366.48,99.76 L366.48,100 L370.6,100 Z M387.56,100.38 L387.56,97.2 L387.32,97.2 C387.293333,97.3733333 387.253333,97.49 387.2,97.55 C387.146667,97.61 387.066667,97.64 386.96,97.64 L386.96,97.64 L381.76,97.64 L387.56,89.72 L387.56,89.48 L377.7,89.48 C377.593333,89.48 377.513333,89.4433333 377.46,89.37 C377.406667,89.2966667 377.366667,89.1466667 377.34,88.92 L377.34,88.92 L377.1,88.92 L377.1,92.3 L377.34,92.3 C377.366667,92.1133333 377.406667,91.99 377.46,91.93 C377.513333,91.87 377.593333,91.84 377.7,91.84 L377.7,91.84 L382.48,91.84 L376.72,99.76 L376.72,100 L386.96,100 C387.066667,100 387.146667,100.02 387.2,100.06 C387.253333,100.1 387.293333,100.206667 387.32,100.38 L387.32,100.38 L387.56,100.38 Z" id="dvorik_сopperplate_1"></path>
                </g>
            </g>
        </g>
    </g>
</svg>