<?xml version="1.0" encoding="UTF-8"?>
<svg width="336px" height="12px" viewBox="0 0 336 12" version="1.1" xmlns="http://www.w3.org/2000/svg" xmlns:xlink="http://www.w3.org/1999/xlink">
    <!-- Generator: Sketch 63.1 (92452) - https://sketch.com -->
    <title>dvorik_сopperplate_2</title>
    <desc>Created with Sketch.</desc>
    <g id="Кейс" stroke="none" stroke-width="1" fill="none" fill-rule="evenodd" opacity="0.400000006">
        <g id="Дворик-Be" transform="translate(-1242.000000, -3483.000000)" fill="#12171E" fill-rule="nonzero">
            <g id="Цвета-и-шрифты" transform="translate(175.000000, 3225.000000)">
                <g id="Group-29" transform="translate(1066.500000, 137.500000)">
                    <path d="M3.8,130 L3.8,129.76 C3.76,129.76 3.70666667,129.753333 3.64,129.74 C3.57333333,129.726667 3.54,129.673333 3.54,129.58 C3.54,129.526667 3.56666667,129.443333 3.62,129.33 C3.67333333,129.216667 3.73333333,129.093333 3.8,128.96 C3.86666667,128.826667 3.93,128.693333 3.99,128.56 C4.05,128.426667 4.09333333,128.313333 4.12,128.22 L4.12,128.22 L8.76,128.22 C8.8,128.313333 8.85333333,128.426667 8.92,128.56 C8.98666667,128.693333 9.05,128.826667 9.11,128.96 C9.17,129.093333 9.22333333,129.216667 9.27,129.33 C9.31666667,129.443333 9.34,129.526667 9.34,129.58 C9.34,129.673333 9.30666667,129.726667 9.24,129.74 C9.17333333,129.753333 9.12,129.76 9.08,129.76 L9.08,129.76 L9.08,130 L12.4,130 L12.4,129.76 C12.32,129.76 12.24,129.743333 12.16,129.71 C12.08,129.676667 12.0266667,129.626667 12,129.56 C11.8533333,129.213333 11.66,128.783333 11.42,128.27 C11.18,127.756667 10.9233333,127.213333 10.65,126.64 C10.3766667,126.066667 10.1033333,125.493333 9.83,124.92 C9.55666667,124.346667 9.30666667,123.823333 9.08,123.35 C8.85333333,122.876667 8.67,122.483333 8.53,122.17 C8.39,121.856667 8.32,121.68 8.32,121.64 C8.32,121.52 8.40666667,121.453333 8.58,121.44 L8.58,121.44 L8.58,121.2 L4.4,121.2 L4.4,121.44 C4.57333333,121.453333 4.66,121.52 4.66,121.64 C4.66,121.706667 4.55333333,121.983333 4.34,122.47 C4.12666667,122.956667 3.85666667,123.57 3.53,124.31 C3.20333333,125.05 2.83333333,125.876667 2.42,126.79 C2.00666667,127.703333 1.6,128.626667 1.2,129.56 C1.17333333,129.626667 1.12,129.676667 1.04,129.71 C0.96,129.743333 0.88,129.76 0.8,129.76 L0.8,129.76 L0.8,130 L3.8,130 Z M8.08,126.78 L4.76,126.78 L6.4,123.28 L8.08,126.78 Z M21.9,130 C23.1666667,130 24.08,129.77 24.64,129.31 C25.2,128.85 25.48,128.226667 25.48,127.44 C25.48,126.84 25.3433333,126.376667 25.07,126.05 C24.7966667,125.723333 24.3933333,125.473333 23.86,125.3 C24.22,125.126667 24.53,124.87 24.79,124.53 C25.05,124.19 25.18,123.806667 25.18,123.38 C25.18,122.94 25.1166667,122.576667 24.99,122.29 C24.8633333,122.003333 24.6666667,121.78 24.4,121.62 C24.1333333,121.46 23.7866667,121.35 23.36,121.29 C22.9333333,121.23 22.42,121.2 21.82,121.2 L21.82,121.2 L15.8,121.2 L15.8,121.44 C16,121.453333 16.1566667,121.48 16.27,121.52 C16.3833333,121.56 16.44,121.653333 16.44,121.8 L16.44,121.8 L16.44,129.4 C16.44,129.546667 16.3833333,129.64 16.27,129.68 C16.1566667,129.72 16,129.746667 15.8,129.76 L15.8,129.76 L15.8,130 L21.9,130 Z M21.5,124.8 L19.12,124.8 L19.12,122.88 L21.5,122.88 C21.94,122.88 22.27,122.94 22.49,123.06 C22.71,123.18 22.82,123.44 22.82,123.84 C22.82,124.106667 22.73,124.333333 22.55,124.52 C22.37,124.706667 22.02,124.8 21.5,124.8 L21.5,124.8 Z M21.3,128.32 L19.12,128.32 L19.12,126.16 L21.3,126.16 C21.5,126.16 21.6966667,126.166667 21.89,126.18 C22.0833333,126.193333 22.26,126.233333 22.42,126.3 C22.58,126.366667 22.71,126.473333 22.81,126.62 C22.91,126.766667 22.96,126.973333 22.96,127.24 C22.96,127.64 22.8,127.92 22.48,128.08 C22.16,128.24 21.7666667,128.32 21.3,128.32 L21.3,128.32 Z M34.16,130.06 C34.8,130.06 35.3833333,130.006667 35.91,129.9 C36.4366667,129.793333 36.8933333,129.663333 37.28,129.51 C37.6666667,129.356667 37.9766667,129.22 38.21,129.1 C38.4433333,128.98 38.5866667,128.92 38.64,128.92 C38.7333333,128.92 38.84,128.993333 38.96,129.14 L38.96,129.14 L39.2,129 L37.3,126.26 L37.08,126.4 C37.0933333,126.44 37.1,126.5 37.1,126.58 L37.1,126.58 L37.1,126.76 C37.1,126.826667 37.0233333,126.93 36.87,127.07 C36.7166667,127.21 36.5033333,127.35 36.23,127.49 C35.9566667,127.63 35.6433333,127.75 35.29,127.85 C34.9366667,127.95 34.56,128 34.16,128 C33.7866667,128 33.4066667,127.953333 33.02,127.86 C32.6333333,127.766667 32.2866667,127.623333 31.98,127.43 C31.6733333,127.236667 31.42,126.986667 31.22,126.68 C31.02,126.373333 30.92,126.013333 30.92,125.6 C30.92,125.173333 31.02,124.81 31.22,124.51 C31.42,124.21 31.6733333,123.963333 31.98,123.77 C32.2866667,123.576667 32.6333333,123.433333 33.02,123.34 C33.4066667,123.246667 33.7866667,123.2 34.16,123.2 C34.4933333,123.2 34.8233333,123.233333 35.15,123.3 C35.4766667,123.366667 35.77,123.443333 36.03,123.53 C36.29,123.616667 36.5033333,123.713333 36.67,123.82 C36.8366667,123.926667 36.92,124.02 36.92,124.1 C36.92,124.166667 36.91,124.226667 36.89,124.28 C36.87,124.333333 36.8533333,124.386667 36.84,124.44 L36.84,124.44 L37.12,124.58 L38.56,121.66 L38.32,121.58 C38.2933333,121.62 38.2533333,121.66 38.2,121.7 C38.1466667,121.74 38.0866667,121.76 38.02,121.76 C37.9133333,121.76 37.7333333,121.723333 37.48,121.65 C37.2266667,121.576667 36.9266667,121.5 36.58,121.42 C36.2333333,121.34 35.8533333,121.263333 35.44,121.19 C35.0266667,121.116667 34.6,121.08 34.16,121.08 C33.4266667,121.08 32.71,121.163333 32.01,121.33 C31.31,121.496667 30.6866667,121.76 30.14,122.12 C29.5933333,122.48 29.1533333,122.946667 28.82,123.52 C28.4866667,124.093333 28.32,124.786667 28.32,125.6 C28.32,126.426667 28.4866667,127.126667 28.82,127.7 C29.1533333,128.273333 29.5933333,128.736667 30.14,129.09 C30.6866667,129.443333 31.31,129.693333 32.01,129.84 C32.71,129.986667 33.4266667,130.06 34.16,130.06 Z M48,130 C48.7466667,130 49.38,129.88 49.9,129.64 C50.42,129.4 50.85,129.08 51.19,128.68 C51.53,128.28 51.7766667,127.813333 51.93,127.28 C52.0833333,126.746667 52.16,126.186667 52.16,125.6 C52.16,125.013333 52.0833333,124.453333 51.93,123.92 C51.7766667,123.386667 51.53,122.92 51.19,122.52 C50.85,122.12 50.42,121.8 49.9,121.56 C49.38,121.32 48.7466667,121.2 48,121.2 L48,121.2 L42,121.2 L42,121.44 C42.1466667,121.453333 42.27,121.48 42.37,121.52 C42.47,121.56 42.52,121.653333 42.52,121.8 L42.52,121.8 L42.52,129.4 C42.52,129.546667 42.47,129.64 42.37,129.68 C42.27,129.72 42.1466667,129.746667 42,129.76 L42,129.76 L42,130 L48,130 Z M46.64,128.08 L45.2,128.08 L45.2,123.12 L46.64,123.12 C47.68,123.12 48.4266667,123.303333 48.88,123.67 C49.3333333,124.036667 49.56,124.68 49.56,125.6 C49.56,126.52 49.3333333,127.163333 48.88,127.53 C48.4266667,127.896667 47.68,128.08 46.64,128.08 L46.64,128.08 Z M64.9,130.36 L64.9,127.74 L64.66,127.74 C64.58,128.073333 64.4066667,128.24 64.14,128.24 L64.14,128.24 L58.46,128.24 L58.46,126.26 L62.22,126.26 C62.3,126.26 62.38,126.29 62.46,126.35 C62.54,126.41 62.58,126.533333 62.58,126.72 L62.58,126.72 L62.82,126.72 L62.82,124.12 L62.58,124.12 C62.58,124.306667 62.54,124.43 62.46,124.49 C62.38,124.55 62.3,124.58 62.22,124.58 L62.22,124.58 L58.46,124.58 L58.46,122.96 L64.3,122.96 C64.38,122.96 64.46,122.99 64.54,123.05 C64.62,123.11 64.66,123.24 64.66,123.44 L64.66,123.44 L64.9,123.44 L64.9,120.76 L64.66,120.76 C64.66,120.946667 64.62,121.066667 64.54,121.12 C64.46,121.173333 64.38,121.2 64.3,121.2 L64.3,121.2 L55.22,121.2 L55.22,121.44 C55.3666667,121.453333 55.4966667,121.48 55.61,121.52 C55.7233333,121.56 55.78,121.653333 55.78,121.8 L55.78,121.8 L55.78,129.4 C55.78,129.546667 55.7233333,129.64 55.61,129.68 C55.4966667,129.72 55.3666667,129.746667 55.22,129.76 L55.22,129.76 L55.22,130 L64.14,130 C64.3,130 64.4166667,130.013333 64.49,130.04 C64.5633333,130.066667 64.6333333,130.173333 64.7,130.36 L64.7,130.36 L64.9,130.36 Z M72.28,130 L72.28,129.76 C72.12,129.746667 71.9866667,129.72 71.88,129.68 C71.7733333,129.64 71.72,129.546667 71.72,129.4 L71.72,129.4 L71.72,126.66 L75.38,126.66 C75.46,126.66 75.54,126.69 75.62,126.75 C75.7,126.81 75.74,126.94 75.74,127.14 L75.74,127.14 L75.98,127.14 L75.98,124.46 L75.74,124.46 C75.74,124.646667 75.7,124.766667 75.62,124.82 C75.54,124.873333 75.46,124.9 75.38,124.9 L75.38,124.9 L71.72,124.9 L71.72,123.04 L77.14,123.04 C77.22,123.04 77.3,123.07 77.38,123.13 C77.46,123.19 77.5,123.32 77.5,123.52 L77.5,123.52 L77.74,123.52 L77.74,120.76 L77.5,120.76 C77.5,120.946667 77.46,121.066667 77.38,121.12 C77.3,121.173333 77.22,121.2 77.14,121.2 L77.14,121.2 L68.44,121.2 L68.44,121.44 C68.6266667,121.453333 68.7733333,121.48 68.88,121.52 C68.9866667,121.56 69.04,121.653333 69.04,121.8 L69.04,121.8 L69.04,129.4 C69.04,129.546667 68.9866667,129.64 68.88,129.68 C68.7733333,129.72 68.64,129.746667 68.48,129.76 L68.48,129.76 L68.48,130 L72.28,130 Z M85.38,130.06 C85.8866667,130.06 86.3933333,130.023333 86.9,129.95 C87.4066667,129.876667 87.9,129.773333 88.38,129.64 C88.86,129.506667 89.3066667,129.356667 89.72,129.19 C90.1333333,129.023333 90.5,128.86 90.82,128.7 L90.82,128.7 L90.82,128.46 L90.64,128.46 C90.52,128.46 90.4266667,128.406667 90.36,128.3 C90.2933333,128.193333 90.26,128.073333 90.26,127.94 L90.26,127.94 L90.26,125.2 L86.1,125.2 C85.94,125.2 85.84,125.14 85.8,125.02 C85.76,124.9 85.74,124.8 85.74,124.72 L85.74,124.72 L85.5,124.72 L85.5,127.2 L85.74,127.2 C85.74,127.12 85.76,127.02 85.8,126.9 C85.84,126.78 85.94,126.72 86.1,126.72 L86.1,126.72 L87.78,126.72 L87.78,128.02 C87.46,128.126667 87.14,128.203333 86.82,128.25 C86.5,128.296667 86.1733333,128.32 85.84,128.32 C85.4,128.32 84.9933333,128.266667 84.62,128.16 C84.2466667,128.053333 83.92,127.89 83.64,127.67 C83.36,127.45 83.14,127.17 82.98,126.83 C82.82,126.49 82.74,126.08 82.74,125.6 C82.74,125.133333 82.82,124.736667 82.98,124.41 C83.14,124.083333 83.3566667,123.813333 83.63,123.6 C83.9033333,123.386667 84.2266667,123.233333 84.6,123.14 C84.9733333,123.046667 85.3666667,123 85.78,123 C86.02,123 86.29,123.023333 86.59,123.07 C86.89,123.116667 87.1733333,123.183333 87.44,123.27 C87.7066667,123.356667 87.93,123.453333 88.11,123.56 C88.29,123.666667 88.38,123.78 88.38,123.9 L88.38,123.9 L88.38,124.04 L88.62,124.16 L89.66,121.52 L89.42,121.48 C89.3666667,121.533333 89.3233333,121.58 89.29,121.62 C89.2566667,121.66 89.1866667,121.68 89.08,121.68 C89.0133333,121.68 88.8766667,121.65 88.67,121.59 C88.4633333,121.53 88.2,121.46 87.88,121.38 C87.56,121.3 87.19,121.23 86.77,121.17 C86.35,121.11 85.8866667,121.08 85.38,121.08 C84.7,121.08 84.0433333,121.17 83.41,121.35 C82.7766667,121.53 82.2133333,121.803333 81.72,122.17 C81.2266667,122.536667 80.8333333,123.003333 80.54,123.57 C80.2466667,124.136667 80.1,124.813333 80.1,125.6 C80.1,126.386667 80.23,127.063333 80.49,127.63 C80.75,128.196667 81.11,128.663333 81.57,129.03 C82.03,129.396667 82.5866667,129.66 83.24,129.82 C83.8933333,129.98 84.6066667,130.06 85.38,130.06 Z M97.58,130 L97.58,129.76 C97.42,129.746667 97.2866667,129.72 97.18,129.68 C97.0733333,129.64 97.02,129.546667 97.02,129.4 L97.02,129.4 L97.02,126.36 L101.44,126.36 L101.44,129.4 C101.44,129.546667 101.386667,129.64 101.28,129.68 C101.173333,129.72 101.04,129.746667 100.88,129.76 L100.88,129.76 L100.88,130 L104.68,130 L104.68,129.76 C104.52,129.746667 104.386667,129.72 104.28,129.68 C104.173333,129.64 104.12,129.546667 104.12,129.4 L104.12,129.4 L104.12,121.8 C104.12,121.653333 104.173333,121.56 104.28,121.52 C104.386667,121.48 104.52,121.453333 104.68,121.44 L104.68,121.44 L104.68,121.2 L100.88,121.2 L100.88,121.44 C101.04,121.453333 101.173333,121.48 101.28,121.52 C101.386667,121.56 101.44,121.653333 101.44,121.8 L101.44,121.8 L101.44,124.32 L97.02,124.32 L97.02,121.8 C97.02,121.653333 97.0733333,121.56 97.18,121.52 C97.2866667,121.48 97.42,121.453333 97.58,121.44 L97.58,121.44 L97.58,121.2 L93.78,121.2 L93.78,121.44 C93.94,121.453333 94.0733333,121.48 94.18,121.52 C94.2866667,121.56 94.34,121.653333 94.34,121.8 L94.34,121.8 L94.34,129.4 C94.34,129.546667 94.2866667,129.64 94.18,129.68 C94.0733333,129.72 93.94,129.746667 93.78,129.76 L93.78,129.76 L93.78,130 L97.58,130 Z M112.22,130 L112.22,129.76 C112.02,129.746667 111.863333,129.72 111.75,129.68 C111.636667,129.64 111.58,129.546667 111.58,129.4 L111.58,129.4 L111.58,121.8 C111.58,121.653333 111.636667,121.56 111.75,121.52 C111.863333,121.48 112.02,121.453333 112.22,121.44 L112.22,121.44 L112.22,121.2 L108.26,121.2 L108.26,121.44 C108.46,121.453333 108.616667,121.48 108.73,121.52 C108.843333,121.56 108.9,121.653333 108.9,121.8 L108.9,121.8 L108.9,129.4 C108.9,129.546667 108.843333,129.64 108.73,129.68 C108.616667,129.72 108.46,129.746667 108.26,129.76 L108.26,129.76 L108.26,130 L112.22,130 Z M117.86,130.06 C118.446667,130.06 118.98,130.023333 119.46,129.95 C119.94,129.876667 120.353333,129.726667 120.7,129.5 C121.046667,129.273333 121.316667,128.966667 121.51,128.58 C121.703333,128.193333 121.8,127.706667 121.8,127.12 L121.8,127.12 L121.8,121.8 C121.8,121.653333 121.846667,121.56 121.94,121.52 C122.033333,121.48 122.113333,121.453333 122.18,121.44 L122.18,121.44 L122.18,121.2 L118.68,121.2 L118.68,121.44 C118.786667,121.453333 118.886667,121.48 118.98,121.52 C119.073333,121.56 119.12,121.653333 119.12,121.8 L119.12,121.8 L119.12,126.9 C119.12,127.366667 119,127.68 118.76,127.84 C118.52,128 118.166667,128.08 117.7,128.08 C117.1,128.08 116.646667,128.013333 116.34,127.88 C116.033333,127.746667 115.866667,127.58 115.84,127.38 L115.84,127.38 L115.84,127.12 L115.6,127.04 L114.76,129.84 L114.94,129.92 C114.993333,129.866667 115.043333,129.82 115.09,129.78 C115.136667,129.74 115.193333,129.72 115.26,129.72 C115.3,129.72 115.406667,129.74 115.58,129.78 C115.753333,129.82 115.963333,129.863333 116.21,129.91 C116.456667,129.956667 116.726667,129.993333 117.02,130.02 C117.313333,130.046667 117.593333,130.06 117.86,130.06 Z M129.26,130 L129.26,129.76 C129.126667,129.746667 129,129.72 128.88,129.68 C128.76,129.64 128.7,129.546667 128.7,129.4 L128.7,129.4 L128.7,127.76 L130.44,126.08 C130.493333,126.173333 130.583333,126.313333 130.71,126.5 C130.836667,126.686667 130.98,126.896667 131.14,127.13 C131.3,127.363333 131.466667,127.61 131.64,127.87 C131.813333,128.13 131.97,128.366667 132.11,128.58 C132.25,128.793333 132.366667,128.976667 132.46,129.13 C132.553333,129.283333 132.6,129.38 132.6,129.42 C132.6,129.566667 132.53,129.66 132.39,129.7 C132.25,129.74 132.133333,129.76 132.04,129.76 L132.04,129.76 L132.04,130 L136.12,130 L136.12,129.76 C136.026667,129.746667 135.943333,129.72 135.87,129.68 C135.796667,129.64 135.726667,129.566667 135.66,129.46 L135.66,129.46 L132.34,124.54 C132.593333,124.34 132.896667,124.07 133.25,123.73 C133.603333,123.39 133.96,123.056667 134.32,122.73 C134.68,122.403333 135.02,122.113333 135.34,121.86 C135.66,121.606667 135.92,121.466667 136.12,121.44 L136.12,121.44 L136.12,121.2 L132.22,121.2 L132.22,121.44 C132.326667,121.453333 132.436667,121.48 132.55,121.52 C132.663333,121.56 132.72,121.653333 132.72,121.8 C132.72,121.84 132.65,121.933333 132.51,122.08 C132.37,122.226667 132.183333,122.41 131.95,122.63 C131.716667,122.85 131.453333,123.086667 131.16,123.34 C130.866667,123.593333 130.57,123.85 130.27,124.11 C129.97,124.37 129.683333,124.62 129.41,124.86 C129.136667,125.1 128.9,125.306667 128.7,125.48 L128.7,125.48 L128.7,121.8 C128.7,121.653333 128.76,121.56 128.88,121.52 C129,121.48 129.126667,121.453333 129.26,121.44 L129.26,121.44 L129.26,121.2 L125.52,121.2 L125.52,121.44 C125.64,121.426667 125.753333,121.446667 125.86,121.5 C125.966667,121.553333 126.02,121.653333 126.02,121.8 L126.02,121.8 L126.02,129.4 C126.02,129.546667 125.966667,129.646667 125.86,129.7 C125.753333,129.753333 125.64,129.773333 125.52,129.76 L125.52,129.76 L125.52,130 L129.26,130 Z M148.14,130.44 L148.14,127.46 L147.9,127.46 C147.9,127.673333 147.86,127.81 147.78,127.87 C147.7,127.93 147.62,127.96 147.54,127.96 L147.54,127.96 L142.06,127.96 L142.06,121.8 C142.06,121.653333 142.11,121.56 142.21,121.52 C142.31,121.48 142.433333,121.453333 142.58,121.44 L142.58,121.44 L142.58,121.2 L138.84,121.2 L138.84,121.44 C138.986667,121.453333 139.113333,121.48 139.22,121.52 C139.326667,121.56 139.38,121.653333 139.38,121.8 L139.38,121.8 L139.38,129.4 C139.38,129.546667 139.326667,129.64 139.22,129.68 C139.113333,129.72 138.986667,129.746667 138.84,129.76 L138.84,129.76 L138.84,130 L147.54,130 C147.62,130 147.7,130.02 147.78,130.06 C147.86,130.1 147.9,130.226667 147.9,130.44 L147.9,130.44 L148.14,130.44 Z M154.46,130 L154.46,129.76 C154.3,129.746667 154.166667,129.72 154.06,129.68 C153.953333,129.64 153.9,129.546667 153.9,129.4 L153.9,129.4 L153.9,123.72 L153.94,123.72 L156.82,129.5 L159.8,123.72 L159.84,123.72 L159.84,129.4 C159.84,129.546667 159.79,129.64 159.69,129.68 C159.59,129.72 159.466667,129.746667 159.32,129.76 L159.32,129.76 L159.32,130 L162.66,130 L162.66,129.76 C162.566667,129.746667 162.473333,129.72 162.38,129.68 C162.286667,129.64 162.24,129.546667 162.24,129.4 L162.24,129.4 L162.24,121.8 C162.24,121.653333 162.286667,121.56 162.38,121.52 C162.473333,121.48 162.566667,121.453333 162.66,121.44 L162.66,121.44 L162.66,121.2 L158.3,121.2 L158.3,121.44 C158.406667,121.453333 158.496667,121.466667 158.57,121.48 C158.643333,121.493333 158.68,121.533333 158.68,121.6 C158.68,121.666667 158.62,121.826667 158.5,122.08 C158.38,122.333333 158.23,122.63 158.05,122.97 C157.87,123.31 157.676667,123.67 157.47,124.05 C157.263333,124.43 157.08,124.78 156.92,125.1 C156.88,124.993333 156.773333,124.763333 156.6,124.41 C156.426667,124.056667 156.24,123.68 156.04,123.28 C155.84,122.88 155.663333,122.513333 155.51,122.18 C155.356667,121.846667 155.28,121.653333 155.28,121.6 C155.28,121.533333 155.316667,121.493333 155.39,121.48 C155.463333,121.466667 155.553333,121.453333 155.66,121.44 L155.66,121.44 L155.66,121.2 L151.32,121.2 L151.32,121.44 C151.426667,121.453333 151.53,121.48 151.63,121.52 C151.73,121.56 151.78,121.653333 151.78,121.8 L151.78,121.8 L151.78,129.4 C151.78,129.546667 151.73,129.64 151.63,129.68 C151.53,129.72 151.426667,129.746667 151.32,129.76 L151.32,129.76 L151.32,130 L154.46,130 Z M169.9,130 L169.9,129.76 C169.753333,129.746667 169.63,129.72 169.53,129.68 C169.43,129.64 169.38,129.546667 169.38,129.4 L169.38,129.4 L169.38,124.16 L169.42,124.12 C169.98,124.786667 170.546667,125.416667 171.12,126.01 C171.693333,126.603333 172.21,127.14 172.67,127.62 C173.13,128.1 173.506667,128.503333 173.8,128.83 C174.093333,129.156667 174.24,129.38 174.24,129.5 C174.24,129.62 174.17,129.693333 174.03,129.72 C173.89,129.746667 173.766667,129.76 173.66,129.76 L173.66,129.76 L173.66,130 L177.36,130 L177.36,129.76 C177.2,129.746667 177.066667,129.72 176.96,129.68 C176.853333,129.64 176.8,129.546667 176.8,129.4 L176.8,129.4 L176.8,121.8 C176.8,121.653333 176.853333,121.56 176.96,121.52 C177.066667,121.48 177.2,121.453333 177.36,121.44 L177.36,121.44 L177.36,121.2 L173.84,121.2 L173.84,121.44 C174,121.453333 174.133333,121.48 174.24,121.52 C174.346667,121.56 174.4,121.653333 174.4,121.8 L174.4,121.8 L174.4,125.74 L174.4,125.74 L173.12,124.38 C172.693333,123.926667 172.306667,123.513333 171.96,123.14 C171.613333,122.766667 171.33,122.456667 171.11,122.21 C170.89,121.963333 170.78,121.826667 170.78,121.8 C170.78,121.653333 170.826667,121.56 170.92,121.52 C171.013333,121.48 171.106667,121.453333 171.2,121.44 L171.2,121.44 L171.2,121.2 L166.44,121.2 L166.44,121.44 C166.586667,121.453333 166.713333,121.48 166.82,121.52 C166.926667,121.56 166.98,121.653333 166.98,121.8 L166.98,121.8 L166.98,129.4 C166.98,129.546667 166.93,129.64 166.83,129.68 C166.73,129.72 166.613333,129.746667 166.48,129.76 L166.48,129.76 L166.48,130 L169.9,130 Z M185.66,130.06 C186.286667,130.06 186.916667,129.98 187.55,129.82 C188.183333,129.66 188.756667,129.4 189.27,129.04 C189.783333,128.68 190.2,128.216667 190.52,127.65 C190.84,127.083333 191,126.4 191,125.6 C191,124.813333 190.84,124.133333 190.52,123.56 C190.2,122.986667 189.783333,122.516667 189.27,122.15 C188.756667,121.783333 188.183333,121.513333 187.55,121.34 C186.916667,121.166667 186.286667,121.08 185.66,121.08 C185.033333,121.08 184.403333,121.166667 183.77,121.34 C183.136667,121.513333 182.563333,121.783333 182.05,122.15 C181.536667,122.516667 181.12,122.986667 180.8,123.56 C180.48,124.133333 180.32,124.813333 180.32,125.6 C180.32,126.4 180.48,127.083333 180.8,127.65 C181.12,128.216667 181.536667,128.68 182.05,129.04 C182.563333,129.4 183.136667,129.66 183.77,129.82 C184.403333,129.98 185.033333,130.06 185.66,130.06 Z M185.66,128 C185.286667,128 184.933333,127.943333 184.6,127.83 C184.266667,127.716667 183.973333,127.556667 183.72,127.35 C183.466667,127.143333 183.27,126.893333 183.13,126.6 C182.99,126.306667 182.92,125.973333 182.92,125.6 C182.92,125.226667 182.99,124.893333 183.13,124.6 C183.27,124.306667 183.466667,124.056667 183.72,123.85 C183.973333,123.643333 184.266667,123.483333 184.6,123.37 C184.933333,123.256667 185.286667,123.2 185.66,123.2 C186.046667,123.2 186.403333,123.256667 186.73,123.37 C187.056667,123.483333 187.346667,123.643333 187.6,123.85 C187.853333,124.056667 188.05,124.306667 188.19,124.6 C188.33,124.893333 188.4,125.226667 188.4,125.6 C188.4,125.973333 188.33,126.306667 188.19,126.6 C188.05,126.893333 187.853333,127.143333 187.6,127.35 C187.346667,127.556667 187.056667,127.716667 186.73,127.83 C186.403333,127.943333 186.046667,128 185.66,128 Z M197.6,130 L197.6,129.76 C197.493333,129.746667 197.39,129.72 197.29,129.68 C197.19,129.64 197.14,129.546667 197.14,129.4 L197.14,129.4 L197.14,126.92 L199.4,126.92 C199.893333,126.92 200.37,126.88 200.83,126.8 C201.29,126.72 201.693333,126.573333 202.04,126.36 C202.386667,126.146667 202.666667,125.853333 202.88,125.48 C203.093333,125.106667 203.2,124.633333 203.2,124.06 C203.2,123.473333 203.093333,122.996667 202.88,122.63 C202.666667,122.263333 202.386667,121.973333 202.04,121.76 C201.693333,121.546667 201.29,121.4 200.83,121.32 C200.37,121.24 199.893333,121.2 199.4,121.2 L199.4,121.2 L194.14,121.2 L194.14,121.44 C194.18,121.453333 194.243333,121.48 194.33,121.52 C194.416667,121.56 194.46,121.653333 194.46,121.8 L194.46,121.8 L194.46,129.4 C194.46,129.546667 194.416667,129.64 194.33,129.68 C194.243333,129.72 194.18,129.746667 194.14,129.76 L194.14,129.76 L194.14,130 L197.6,130 Z M199.04,125.24 L197.14,125.24 L197.14,122.88 L199.2,122.88 C199.706667,122.88 200.066667,122.973333 200.28,123.16 C200.493333,123.346667 200.6,123.646667 200.6,124.06 C200.6,124.486667 200.48,124.79 200.24,124.97 C200,125.15 199.6,125.24 199.04,125.24 L199.04,125.24 Z M214.44,131.68 L216.58,130.08 L216.44,129.98 C216.373333,129.993333 216.31,130.013333 216.25,130.04 C216.19,130.066667 216.1,130.08 215.98,130.08 C215.873333,130.08 215.76,130.046667 215.64,129.98 C215.52,129.913333 215.4,129.823333 215.28,129.71 C215.16,129.596667 215.05,129.473333 214.95,129.34 C214.85,129.206667 214.766667,129.08 214.7,128.96 C215.18,128.6 215.573333,128.143333 215.88,127.59 C216.186667,127.036667 216.34,126.373333 216.34,125.6 C216.34,124.813333 216.18,124.133333 215.86,123.56 C215.54,122.986667 215.123333,122.516667 214.61,122.15 C214.096667,121.783333 213.523333,121.513333 212.89,121.34 C212.256667,121.166667 211.626667,121.08 211,121.08 C210.373333,121.08 209.743333,121.166667 209.11,121.34 C208.476667,121.513333 207.903333,121.783333 207.39,122.15 C206.876667,122.516667 206.46,122.986667 206.14,123.56 C205.82,124.133333 205.66,124.813333 205.66,125.6 C205.66,126.4 205.82,127.083333 206.14,127.65 C206.46,128.216667 206.876667,128.68 207.39,129.04 C207.903333,129.4 208.476667,129.66 209.11,129.82 C209.743333,129.98 210.373333,130.06 211,130.06 C211.693333,130.06 212.413333,129.96 213.16,129.76 C213.266667,129.853333 213.393333,129.96 213.54,130.08 C213.686667,130.2 213.823333,130.33 213.95,130.47 C214.076667,130.61 214.186667,130.74 214.28,130.86 C214.373333,130.98 214.42,131.066667 214.42,131.12 C214.42,131.186667 214.403333,131.253333 214.37,131.32 C214.336667,131.386667 214.306667,131.446667 214.28,131.5 L214.28,131.5 L214.44,131.68 Z M211,128.2 C210.64,128.2 210.293333,128.143333 209.96,128.03 C209.626667,127.916667 209.336667,127.75 209.09,127.53 C208.843333,127.31 208.643333,127.036667 208.49,126.71 C208.336667,126.383333 208.26,126.013333 208.26,125.6 C208.26,125.226667 208.33,124.893333 208.47,124.6 C208.61,124.306667 208.806667,124.056667 209.06,123.85 C209.313333,123.643333 209.606667,123.483333 209.94,123.37 C210.273333,123.256667 210.626667,123.2 211,123.2 C211.386667,123.2 211.743333,123.256667 212.07,123.37 C212.396667,123.483333 212.686667,123.643333 212.94,123.85 C213.193333,124.056667 213.39,124.306667 213.53,124.6 C213.67,124.893333 213.74,125.226667 213.74,125.6 C213.74,126.013333 213.683333,126.36 213.57,126.64 C213.456667,126.92 213.306667,127.153333 213.12,127.34 C212.773333,127.1 212.406667,126.87 212.02,126.65 C211.633333,126.43 211.22,126.32 210.78,126.32 C210.62,126.32 210.476667,126.333333 210.35,126.36 C210.223333,126.386667 210.16,126.44 210.16,126.52 C210.16,126.586667 210.216667,126.636667 210.33,126.67 C210.443333,126.703333 210.54,126.753333 210.62,126.82 C210.886667,127.02 211.126667,127.22 211.34,127.42 C211.553333,127.62 211.746667,127.846667 211.92,128.1 C211.76,128.14 211.603333,128.166667 211.45,128.18 C211.296667,128.193333 211.146667,128.2 211,128.2 Z M223.02,130 L223.02,129.76 C222.873333,129.746667 222.75,129.72 222.65,129.68 C222.55,129.64 222.5,129.546667 222.5,129.4 L222.5,129.4 L222.5,126.72 L224.42,126.72 C224.46,126.8 224.563333,126.98 224.73,127.26 C224.896667,127.54 225.07,127.833333 225.25,128.14 C225.43,128.446667 225.59,128.733333 225.73,129 C225.87,129.266667 225.94,129.433333 225.94,129.5 C225.94,129.606667 225.883333,129.676667 225.77,129.71 C225.656667,129.743333 225.553333,129.76 225.46,129.76 L225.46,129.76 L225.46,130 L229.5,130 L229.5,129.76 C229.353333,129.76 229.216667,129.72 229.09,129.64 C228.963333,129.56 228.866667,129.466667 228.8,129.36 L228.8,129.36 L227.02,126.68 C227.66,126.44 228.19,126.11 228.61,125.69 C229.03,125.27 229.24,124.7 229.24,123.98 C229.24,123.06 228.943333,122.366667 228.35,121.9 C227.756667,121.433333 226.96,121.2 225.96,121.2 L225.96,121.2 L219.54,121.2 L219.54,121.44 C219.646667,121.453333 219.746667,121.48 219.84,121.52 C219.933333,121.56 219.98,121.653333 219.98,121.8 L219.98,121.8 L219.98,129.4 C219.98,129.546667 219.933333,129.64 219.84,129.68 C219.746667,129.72 219.66,129.746667 219.58,129.76 L219.58,129.76 L219.58,130 L223.02,130 Z M225.34,125.04 L222.5,125.04 L222.5,122.88 L225.2,122.88 C225.8,122.88 226.203333,122.983333 226.41,123.19 C226.616667,123.396667 226.72,123.653333 226.72,123.96 C226.72,124.32 226.596667,124.59 226.35,124.77 C226.103333,124.95 225.766667,125.04 225.34,125.04 L225.34,125.04 Z M237.1,130.06 C237.86,130.06 238.516667,129.99 239.07,129.85 C239.623333,129.71 240.08,129.506667 240.44,129.24 C240.8,128.973333 241.066667,128.663333 241.24,128.31 C241.413333,127.956667 241.5,127.586667 241.5,127.2 C241.5,126.613333 241.34,126.156667 241.02,125.83 C240.7,125.503333 240.296667,125.253333 239.81,125.08 C239.323333,124.906667 238.796667,124.783333 238.23,124.71 C237.663333,124.636667 237.136667,124.57 236.65,124.51 C236.163333,124.45 235.76,124.37 235.44,124.27 C235.12,124.17 234.96,124 234.96,123.76 C234.96,123.533333 235.056667,123.363333 235.25,123.25 C235.443333,123.136667 235.666667,123.05 235.92,122.99 C236.173333,122.93 236.426667,122.896667 236.68,122.89 C236.933333,122.883333 237.12,122.88 237.24,122.88 C237.586667,122.88 237.923333,122.91 238.25,122.97 C238.576667,123.03 238.87,123.1 239.13,123.18 C239.39,123.26 239.6,123.34 239.76,123.42 C239.92,123.5 240,123.566667 240,123.62 C240,123.66 239.996667,123.7 239.99,123.74 C239.983333,123.78 239.98,123.813333 239.98,123.84 L239.98,123.84 L240.24,123.96 L241.44,121.44 L241.22,121.36 C241.166667,121.4 241.106667,121.45 241.04,121.51 C240.973333,121.57 240.886667,121.6 240.78,121.6 C240.673333,121.6 240.496667,121.573333 240.25,121.52 C240.003333,121.466667 239.703333,121.406667 239.35,121.34 C238.996667,121.273333 238.603333,121.213333 238.17,121.16 C237.736667,121.106667 237.28,121.08 236.8,121.08 C235.986667,121.08 235.296667,121.176667 234.73,121.37 C234.163333,121.563333 233.706667,121.806667 233.36,122.1 C233.013333,122.393333 232.76,122.716667 232.6,123.07 C232.44,123.423333 232.36,123.753333 232.36,124.06 C232.36,124.62 232.52,125.056667 232.84,125.37 C233.16,125.683333 233.563333,125.923333 234.05,126.09 C234.536667,126.256667 235.063333,126.373333 235.63,126.44 C236.196667,126.506667 236.723333,126.57 237.21,126.63 C237.696667,126.69 238.1,126.776667 238.42,126.89 C238.74,127.003333 238.9,127.193333 238.9,127.46 C238.9,127.66 238.83,127.816667 238.69,127.93 C238.55,128.043333 238.38,128.13 238.18,128.19 C237.98,128.25 237.776667,128.286667 237.57,128.3 C237.363333,128.313333 237.2,128.32 237.08,128.32 C236.68,128.32 236.25,128.29 235.79,128.23 C235.33,128.17 234.903333,128.09 234.51,127.99 C234.116667,127.89 233.793333,127.78 233.54,127.66 C233.286667,127.54 233.16,127.413333 233.16,127.28 C233.16,127.226667 233.163333,127.183333 233.17,127.15 C233.176667,127.116667 233.18,127.086667 233.18,127.06 L233.18,127.06 L232.92,126.94 L232.1,129.62 L232.32,129.68 C232.386667,129.613333 232.456667,129.55 232.53,129.49 C232.603333,129.43 232.686667,129.4 232.78,129.4 C232.82,129.4 232.976667,129.436667 233.25,129.51 C233.523333,129.583333 233.866667,129.663333 234.28,129.75 C234.693333,129.836667 235.146667,129.91 235.64,129.97 C236.133333,130.03 236.62,130.06 237.1,130.06 Z M250.82,130 L250.82,129.76 C250.713333,129.746667 250.61,129.72 250.51,129.68 C250.41,129.64 250.36,129.546667 250.36,129.4 L250.36,129.4 L250.36,123.24 L253.22,123.24 C253.3,123.24 253.38,123.266667 253.46,123.32 C253.54,123.373333 253.58,123.493333 253.58,123.68 L253.58,123.68 L253.82,123.68 L253.82,120.76 L253.58,120.76 C253.58,120.946667 253.54,121.066667 253.46,121.12 C253.38,121.173333 253.3,121.2 253.22,121.2 L253.22,121.2 L244.82,121.2 C244.74,121.2 244.66,121.173333 244.58,121.12 C244.5,121.066667 244.46,120.946667 244.46,120.76 L244.46,120.76 L244.22,120.76 L244.22,123.68 L244.46,123.68 C244.46,123.493333 244.5,123.373333 244.58,123.32 C244.66,123.266667 244.74,123.24 244.82,123.24 L244.82,123.24 L247.68,123.24 L247.68,129.4 C247.68,129.546667 247.63,129.64 247.53,129.68 C247.43,129.72 247.326667,129.746667 247.22,129.76 L247.22,129.76 L247.22,130 L250.82,130 Z M262.24,130.06 C263.12,130.06 263.86,129.963333 264.46,129.77 C265.06,129.576667 265.54,129.303333 265.9,128.95 C266.26,128.596667 266.52,128.183333 266.68,127.71 C266.84,127.236667 266.92,126.733333 266.92,126.2 L266.92,126.2 L266.92,121.8 C266.92,121.653333 266.976667,121.56 267.09,121.52 C267.203333,121.48 267.34,121.453333 267.5,121.44 L267.5,121.44 L267.5,121.2 L263.9,121.2 L263.9,121.44 C263.966667,121.453333 264.04,121.48 264.12,121.52 C264.2,121.56 264.24,121.653333 264.24,121.8 L264.24,121.8 L264.24,126.66 C264.24,127.166667 264.056667,127.53 263.69,127.75 C263.323333,127.97 262.84,128.08 262.24,128.08 C261.64,128.08 261.156667,127.97 260.79,127.75 C260.423333,127.53 260.24,127.166667 260.24,126.66 L260.24,126.66 L260.24,121.8 C260.24,121.653333 260.28,121.56 260.36,121.52 C260.44,121.48 260.513333,121.453333 260.58,121.44 L260.58,121.44 L260.58,121.2 L256.98,121.2 L256.98,121.44 C257.14,121.453333 257.276667,121.48 257.39,121.52 C257.503333,121.56 257.56,121.653333 257.56,121.8 L257.56,121.8 L257.56,126.2 C257.56,126.733333 257.64,127.236667 257.8,127.71 C257.96,128.183333 258.22,128.596667 258.58,128.95 C258.94,129.303333 259.42,129.576667 260.02,129.77 C260.62,129.963333 261.36,130.06 262.24,130.06 Z M277.36,130 L277.36,129.76 C277.266667,129.773333 277.173333,129.75 277.08,129.69 C276.986667,129.63 276.94,129.546667 276.94,129.44 C276.94,129.413333 277.01,129.223333 277.15,128.87 C277.29,128.516667 277.47,128.076667 277.69,127.55 C277.91,127.023333 278.146667,126.45 278.4,125.83 C278.653333,125.21 278.896667,124.62 279.13,124.06 C279.363333,123.5 279.563333,123.006667 279.73,122.58 C279.896667,122.153333 280,121.866667 280.04,121.72 C280.066667,121.613333 280.116667,121.543333 280.19,121.51 C280.263333,121.476667 280.353333,121.453333 280.46,121.44 L280.46,121.44 L280.46,121.2 L277.12,121.2 L277.12,121.44 C277.186667,121.44 277.28,121.446667 277.4,121.46 C277.52,121.473333 277.58,121.533333 277.58,121.64 C277.58,121.68 277.503333,121.89 277.35,122.27 C277.196667,122.65 277.013333,123.1 276.8,123.62 C276.586667,124.14 276.36,124.683333 276.12,125.25 C275.88,125.816667 275.673333,126.313333 275.5,126.74 L275.5,126.74 L275.46,126.74 C275.433333,126.646667 275.37,126.46 275.27,126.18 C275.17,125.9 275.053333,125.576667 274.92,125.21 C274.786667,124.843333 274.646667,124.456667 274.5,124.05 C274.353333,123.643333 274.216667,123.266667 274.09,122.92 C273.963333,122.573333 273.86,122.28 273.78,122.04 C273.7,121.8 273.66,121.666667 273.66,121.64 C273.66,121.533333 273.723333,121.473333 273.85,121.46 C273.976667,121.446667 274.08,121.44 274.16,121.44 L274.16,121.44 L274.16,121.2 L270.38,121.2 L270.38,121.44 C270.433333,121.44 270.483333,121.443333 270.53,121.45 C270.576667,121.456667 270.64,121.486667 270.72,121.54 C270.773333,121.566667 270.876667,121.78 271.03,122.18 C271.183333,122.58 271.366667,123.07 271.58,123.65 C271.793333,124.23 272.016667,124.856667 272.25,125.53 C272.483333,126.203333 272.696667,126.826667 272.89,127.4 C273.083333,127.973333 273.243333,128.453333 273.37,128.84 C273.496667,129.226667 273.56,129.426667 273.56,129.44 C273.56,129.546667 273.513333,129.63 273.42,129.69 C273.326667,129.75 273.233333,129.773333 273.14,129.76 L273.14,129.76 L273.14,130 L277.36,130 Z M289,130 L289,129.76 C288.853333,129.733333 288.73,129.703333 288.63,129.67 C288.53,129.636667 288.48,129.58 288.48,129.5 C288.48,129.433333 288.52,129.28 288.6,129.04 C288.68,128.8 288.78,128.513333 288.9,128.18 C289.02,127.846667 289.15,127.486667 289.29,127.1 C289.43,126.713333 289.566667,126.346667 289.7,126 C289.833333,125.653333 289.946667,125.346667 290.04,125.08 C290.133333,124.813333 290.193333,124.626667 290.22,124.52 L290.22,124.52 L290.26,124.52 C290.286667,124.626667 290.346667,124.813333 290.44,125.08 C290.533333,125.346667 290.646667,125.653333 290.78,126 C290.913333,126.346667 291.05,126.713333 291.19,127.1 C291.33,127.486667 291.46,127.846667 291.58,128.18 C291.7,128.513333 291.8,128.8 291.88,129.04 C291.96,129.28 292,129.433333 292,129.5 C292,129.633333 291.806667,129.72 291.42,129.76 L291.42,129.76 L291.42,130 L295.64,130 L295.64,129.76 C295.266667,129.72 295.08,129.633333 295.08,129.5 C295.08,129.46 295.133333,129.266667 295.24,128.92 C295.346667,128.573333 295.486667,128.143333 295.66,127.63 C295.833333,127.116667 296.016667,126.56 296.21,125.96 C296.403333,125.36 296.593333,124.786667 296.78,124.24 C296.966667,123.693333 297.126667,123.213333 297.26,122.8 C297.393333,122.386667 297.48,122.113333 297.52,121.98 C297.573333,121.833333 297.626667,121.713333 297.68,121.62 C297.733333,121.526667 297.853333,121.466667 298.04,121.44 L298.04,121.44 L298.04,121.2 L294.72,121.2 L294.72,121.44 C294.853333,121.44 294.98,121.463333 295.1,121.51 C295.22,121.556667 295.28,121.653333 295.28,121.8 C295.28,121.88 295.246667,122.04 295.18,122.28 C295.113333,122.52 295.026667,122.803333 294.92,123.13 C294.813333,123.456667 294.7,123.803333 294.58,124.17 C294.46,124.536667 294.343333,124.893333 294.23,125.24 C294.116667,125.586667 294.016667,125.903333 293.93,126.19 C293.843333,126.476667 293.786667,126.693333 293.76,126.84 L293.76,126.84 L293.72,126.84 C293.693333,126.746667 293.63,126.563333 293.53,126.29 C293.43,126.016667 293.31,125.7 293.17,125.34 C293.03,124.98 292.886667,124.6 292.74,124.2 C292.593333,123.8 292.456667,123.43 292.33,123.09 C292.203333,122.75 292.096667,122.46 292.01,122.22 C291.923333,121.98 291.88,121.84 291.88,121.8 C291.88,121.653333 291.94,121.556667 292.06,121.51 C292.18,121.463333 292.306667,121.44 292.44,121.44 L292.44,121.44 L292.44,121.2 L288.38,121.2 L288.38,121.44 C288.5,121.44 288.62,121.463333 288.74,121.51 C288.86,121.556667 288.92,121.653333 288.92,121.8 C288.92,121.88 288.88,122.04 288.8,122.28 C288.72,122.52 288.616667,122.8 288.49,123.12 C288.363333,123.44 288.226667,123.79 288.08,124.17 C287.933333,124.55 287.793333,124.913333 287.66,125.26 C287.526667,125.606667 287.41,125.92 287.31,126.2 C287.21,126.48 287.146667,126.693333 287.12,126.84 L287.12,126.84 L287.08,126.84 C287.053333,126.706667 286.996667,126.496667 286.91,126.21 C286.823333,125.923333 286.723333,125.603333 286.61,125.25 C286.496667,124.896667 286.38,124.53 286.26,124.15 C286.14,123.77 286.026667,123.416667 285.92,123.09 C285.813333,122.763333 285.726667,122.48 285.66,122.24 C285.593333,122 285.56,121.853333 285.56,121.8 C285.56,121.653333 285.62,121.556667 285.74,121.51 C285.86,121.463333 285.98,121.44 286.1,121.44 L286.1,121.44 L286.1,121.2 L282.58,121.2 L282.58,121.44 C282.646667,121.44 282.71,121.456667 282.77,121.49 C282.83,121.523333 282.873333,121.593333 282.9,121.7 C282.913333,121.766667 282.983333,121.996667 283.11,122.39 C283.236667,122.783333 283.393333,123.26 283.58,123.82 C283.766667,124.38 283.966667,124.983333 284.18,125.63 C284.393333,126.276667 284.59,126.876667 284.77,127.43 C284.95,127.983333 285.1,128.453333 285.22,128.84 C285.34,129.226667 285.4,129.446667 285.4,129.5 C285.4,129.633333 285.22,129.72 284.86,129.76 L284.86,129.76 L284.86,130 L289,130 Z M304.48,130 L304.48,129.76 C304.426667,129.76 304.35,129.753333 304.25,129.74 C304.15,129.726667 304.1,129.686667 304.1,129.62 C304.1,129.566667 304.176667,129.436667 304.33,129.23 C304.483333,129.023333 304.653333,128.796667 304.84,128.55 C305.026667,128.303333 305.206667,128.066667 305.38,127.84 C305.553333,127.613333 305.66,127.46 305.7,127.38 C305.753333,127.46 305.866667,127.6 306.04,127.8 C306.213333,128 306.396667,128.216667 306.59,128.45 C306.783333,128.683333 306.956667,128.91 307.11,129.13 C307.263333,129.35 307.34,129.513333 307.34,129.62 C307.34,129.686667 307.293333,129.726667 307.2,129.74 C307.106667,129.753333 307.046667,129.76 307.02,129.76 L307.02,129.76 L307.02,130 L311.18,130 L311.18,129.76 C311.033333,129.76 310.926667,129.726667 310.86,129.66 L310.86,129.66 L307.28,125.24 L310.06,121.62 C310.126667,121.54 310.21,121.49 310.31,121.47 C310.41,121.45 310.473333,121.44 310.5,121.44 L310.5,121.44 L310.5,121.2 L306.52,121.2 L306.52,121.44 C306.613333,121.44 306.703333,121.446667 306.79,121.46 C306.876667,121.473333 306.92,121.533333 306.92,121.64 C306.92,121.693333 306.876667,121.783333 306.79,121.91 C306.703333,122.036667 306.596667,122.18 306.47,122.34 C306.343333,122.5 306.213333,122.663333 306.08,122.83 C305.946667,122.996667 305.833333,123.146667 305.74,123.28 C305.62,123.146667 305.483333,123.003333 305.33,122.85 C305.176667,122.696667 305.036667,122.543333 304.91,122.39 C304.783333,122.236667 304.673333,122.093333 304.58,121.96 C304.486667,121.826667 304.44,121.72 304.44,121.64 C304.44,121.533333 304.506667,121.473333 304.64,121.46 C304.773333,121.446667 304.86,121.44 304.9,121.44 L304.9,121.44 L304.9,121.2 L300.64,121.2 L300.64,121.44 C300.693333,121.44 300.773333,121.45 300.88,121.47 C300.986667,121.49 301.073333,121.54 301.14,121.62 L301.14,121.62 L304.12,125.4 L300.86,129.66 C300.82,129.726667 300.726667,129.76 300.58,129.76 L300.58,129.76 L300.58,130 L304.48,130 Z M320.88,130 L320.88,129.76 C320.786667,129.746667 320.693333,129.72 320.6,129.68 C320.506667,129.64 320.46,129.546667 320.46,129.4 L320.46,129.4 L320.46,126.74 L323.88,121.64 C323.933333,121.56 324.02,121.506667 324.14,121.48 C324.26,121.453333 324.353333,121.44 324.42,121.44 L324.42,121.44 L324.42,121.2 L320.46,121.2 L320.46,121.44 C320.526667,121.44 320.613333,121.45 320.72,121.47 C320.826667,121.49 320.88,121.553333 320.88,121.66 C320.88,121.726667 320.8,121.88 320.64,122.12 C320.48,122.36 320.296667,122.626667 320.09,122.92 C319.883333,123.213333 319.686667,123.493333 319.5,123.76 C319.313333,124.026667 319.193333,124.213333 319.14,124.32 C318.94,124.053333 318.726667,123.776667 318.5,123.49 C318.273333,123.203333 318.066667,122.933333 317.88,122.68 C317.693333,122.426667 317.536667,122.21 317.41,122.03 C317.283333,121.85 317.22,121.726667 317.22,121.66 C317.22,121.553333 317.276667,121.49 317.39,121.47 C317.503333,121.45 317.6,121.44 317.68,121.44 L317.68,121.44 L317.68,121.2 L313.38,121.2 L313.38,121.44 C313.46,121.44 313.563333,121.453333 313.69,121.48 C313.816667,121.506667 313.906667,121.56 313.96,121.64 L313.96,121.64 L317.78,126.82 L317.78,129.4 C317.78,129.546667 317.733333,129.64 317.64,129.68 C317.546667,129.72 317.453333,129.746667 317.36,129.76 L317.36,129.76 L317.36,130 L320.88,130 Z M336.26,130.4 L336.26,127.44 L336.02,127.44 C336.02,127.68 335.99,127.826667 335.93,127.88 C335.87,127.933333 335.78,127.96 335.66,127.96 L335.66,127.96 L331.36,127.96 L335.98,121.44 L335.98,121.2 L327.94,121.2 C327.82,121.2 327.73,121.176667 327.67,121.13 C327.61,121.083333 327.58,120.953333 327.58,120.74 L327.58,120.74 L327.34,120.74 L327.34,123.7 L327.58,123.7 C327.58,123.486667 327.61,123.356667 327.67,123.31 C327.73,123.263333 327.82,123.24 327.94,123.24 L327.94,123.24 L331.8,123.24 L327.14,129.76 L327.14,130 L335.66,130 C335.78,130 335.87,130.013333 335.93,130.04 C335.99,130.066667 336.02,130.186667 336.02,130.4 L336.02,130.4 L336.26,130.4 Z" id="dvorik_сopperplate_2"></path>
                </g>
            </g>
        </g>
    </g>
</svg>