<svg xmlns="http://www.w3.org/2000/svg" width="503" height="890" viewBox="0 0 503 890"><defs><linearGradient id="qf6fa" x1="82.68" x2="436.5" y1="-5.11" y2="910.49" gradientUnits="userSpaceOnUse"><stop offset=".01" stop-color="#e9b977"/><stop offset=".19" stop-color="#dbae75"/><stop offset=".6" stop-color="#b77e41"/><stop offset=".87" stop-color="#e8b67c"/><stop offset="1" stop-color="#ecd8be"/></linearGradient></defs><g><g opacity=".1"><path fill="url(#qf6fa)" d="M179.861 726.97a62.074 62.074 0 0 1-18.41 15.093m74.147-454.58c-.012-.173-.02-.344-.027-.516.074.17.15.342.228.515zm-.027-.516c-4.548-10.386-2.705-14.494 8.787-15.583a17.102 17.102 0 0 0-8.787 15.583zm-40.217-28.864a41.871 41.871 0 0 1 32.103-3.019c-10.767.1-21.506 1.11-32.103 3.019zM339.32 175.9c-.302-2.616-.1-4.93-.1-6.742 0-1.81-2.216-4.326 0-5.232a20.157 20.157 0 0 1 8.458-.603c1.611.302.806 2.314 0 3.42a20.13 20.13 0 0 1-8.358 9.157zm68.912 29.48a30.18 30.18 0 0 1-14.487-8.15c-2.213-2.113-6.338-5.232-2.917-8.15 3.42-2.918 6.237 1.107 8.25 3.522 3.32 4.024 6.136 8.552 9.154 12.778zm-245.674 6.238a75.042 75.042 0 0 1 38.833-5.131m-9.155 500.763c-5.935 10.867-15.996 16.4-26.056 25.255m91.954-429.226a84.17 84.17 0 0 0-2.819-29.38c-.604-1.71-.906-3.42 1.108-4.427 2.013-1.006 3.02.704 4.127 2.012v.503c12.584 14.087 12.584 14.49-2.215 31.795zm-80.284-.604a264.688 264.688 0 0 0 24.749-16.903c2.213-1.409 4.93-3.824 7.746-1.409 2.817 2.415 1.71 5.735.503 8.653a20.12 20.12 0 0 1-19.416 11.37c-4.125-.202-8.15-.705-13.582-1.208zm66.1 20.828a126.9 126.9 0 0 0-3.223-35.518 11.363 11.363 0 0 1 .806-7.043 5.436 5.436 0 0 1 4.732-3.924c2.819-.201 3.524 2.113 4.027 4.226a111.217 111.217 0 0 1 3.725 25.657c0 7.043-5.84 11.772-10.068 17.105zm-5.335 386.061a209.207 209.207 0 0 0 5.938-35.014c.604-3.42 1.107-7.244 5.335-7.445 4.227-.202 6.24 3.32 7.448 6.74a21.626 21.626 0 0 1-4.831 23.344c-3.825 4.024-8.354 7.848-13.89 12.878zm-41.047-364.63a75.055 75.055 0 0 1 25.151-25.255c1.409-1.006.805-2.616.805-3.924-.06-2.87.862-5.675 2.616-7.948l.503 9.457a52.225 52.225 0 0 0 2.112-22.236 62.892 62.892 0 0 1 2.214 25.054 36.225 36.225 0 0 0 1.509-16.803c-.704-5.936-1.811-11.772-2.918-19.218a85.532 85.532 0 0 1 6.338 29.078l2.113-8.15c2.918 19.42-1.61 29.28-16.298 37.63-1.308-1.509 0-2.314.503-3.823.503-1.51.906-2.918-.704-3.924-1.61-1.006-2.716.302-3.823 1.208a41.346 41.346 0 0 1-20.12 9.357zm82.495-69.324c-2.515-3.421-7.847-4.629-7.847-10.565 4.93 1.107 6.238 6.942 11.268 6.942.503-2.314-2.817-1.81-2.817-3.924a26.559 26.559 0 0 0 23.944-13.784 111.683 111.683 0 0 1 13.179-18.916c-2.012 10.364-1.409 20.224-14.085 22.438 3.622 4.628 8.35-.202 11.972 3.018a35.917 35.917 0 0 1-13.984 12.879c-1.911.704-5.13 1.107-5.03 3.119.1 2.012 2.917 2.515 4.326 3.42 1.408.906 2.917 1.61 4.527 2.516-8.752 6.44-19.517 7.848-25.15.906a57.049 57.049 0 0 1-15.695-22.337c6.54 4.025 6.54 13.382 15.392 14.288zm89.94-50.409c-14.185-4.83-11.268-16.5-10.765-27.468-4.426.1-5.734 6.037-7.545 5.232-8.25-4.226-3.521 4.73-6.74 5.836-4.024-.906-4.024-4.729-4.024-7.848a38.537 38.537 0 0 1 14.587-27.066c1.912-2.113 4.024.805 5.332 2.013 13.48 12.778 20.624 29.178 9.457 49.301zm-56.749 331.327c-.098.045-.194.092-.29.139a69.88 69.88 0 0 1-.011-.139zm-.29.139c.82 9.104 3.378 17.715-2.727 26.625-.503 1.308-1.71 2.817-.503 3.823 1.207 1.006 2.615.503 4.023 0a379.56 379.56 0 0 1 10.059-3.521 25.755 25.755 0 0 1-20.117 23.343 48.268 48.268 0 0 1-24.242 1.408 16.794 16.794 0 0 0-13.378 1.308c2.401-4.77 6.599-8.389 11.668-10.061 20.218-9.66 25.348-20.828 19.313-42.661a135.16 135.16 0 0 1-5.733-22.84 74.356 74.356 0 0 1 10.662 15.394 10.768 10.768 0 0 1 0 12.275c0 .906-1.409 1.71 0 3.12 1.408 1.408 1.106 1.207 3.52-1.007 2.354-2.158 3.751-5.369 7.456-7.206zm-21.64 168.694a50.323 50.323 0 0 1-3.319-22.639 55.953 55.953 0 0 0-13.88-40.246c-3.52-4.527-7.443-8.854-10.561-13.784-4.995-6.566-4.259-15.837 1.71-21.532-1.938 10.731 4.013 21.327 14.182 25.255a125.93 125.93 0 0 1 13.277 8.753c14.308 8.713 20.694 26.164 15.39 42.058-.403-.604-1.208-.604-1.208-.604-2.112-2.415-3.118-7.546-5.934-6.943-2.817.604-1.207 5.434-1.71 8.351a45.79 45.79 0 0 1-7.946 21.331zM276.14 190.388c-6.439 5.735-12.475 11.873-19.014 18.212-.403-3.22 3.219-5.132 4.024-10.062a187.651 187.651 0 0 0-15.594 24.953c4.024-11.571 4.226-24.047 7.948-35.719a103.037 103.037 0 0 0-9.256 22.639 57.759 57.759 0 0 1 6.841-30.185 243.602 243.602 0 0 0 22.536-45.981c1.308 10.061 7.042 20.123-.604 30.184-.69.736-.69 1.881 0 2.616 1.207 1.308 2.314.604 3.32 0l9.557-6.338a28.375 28.375 0 0 1-9.758 29.681zm-83.907 142.774c-.805.302-2.012.503-2.012-.906.403-4.83-3.42-3.32-5.934-4.226-2.515-.905-4.628-2.716-2.515-5.332 2.112-2.616-.1-3.723-2.314-4.629a28.363 28.363 0 0 1-10.562-5.03 16.897 16.897 0 0 1 15.491-5.836c4.024.302 8.148.805 12.171.805 11.562-.212 21.104-9.106 22.13-20.626.9-4.401-.973-8.906-4.728-11.37a10.057 10.057 0 0 0-12.573 2.314c-6.84 5.635-13.58 11.47-20.621 17.004a11.365 11.365 0 0 1-8.148 3.22 55.128 55.128 0 0 1 39.733-36.222l-10.059 7.848c10.059-3.622 18.307-13.885 30.177-4.83-.201 1.309-2.515 1.208-3.621 3.02 3.822 0 7.04-2.315 11.467-.705-11.367 3.723-13.58 12.376-14.988 22.437-.604 3.824-.905 7.748-1.61 11.47-1.408 7.245-6.84 10.565-16.898 11.672 1.996.319 4.013.487 6.035.503 2.197-.21 4.38-.546 6.538-1.006-2.112 4.628-6.74 4.125-10.059 6.339 1.409 2.112 3.722-.504 5.03 1.006-3.018 2.918-3.018 2.918-14.787 4.83l9.154.804v1.61zm231.291 347.123c11.397 4.006 17.825 16.076 14.789 27.77-5.759 10.878-19.049 15.308-30.181 10.062a90.54 90.54 0 0 1-20.825-11.37c-8.048-5.333-15.694-11.168-23.642-16.601-4.326-2.516-3.32-3.924 0-5.836a81.28 81.28 0 0 1 37.123-8.05 64.279 64.279 0 0 1 22.736 4.025zM182.78 131.124c5.728 19.8 9.7 40.066 11.87 60.563-6.136-17.103-6.136-36.418-16.196-52.414a239.737 239.737 0 0 1 10.06 43.26c-7.243-12.375-8.25-24.85-16.6-34.91l14.487 39.436c-8.048-11.066-9.255-25.553-19.316-35.613a114.084 114.084 0 0 1 10.06 29.175 168.31 168.31 0 0 0-21.73-38.129 157.243 157.243 0 0 1 15.695 35.11c-9.86-13.28-14.89-29.677-27.163-41.448a201.207 201.207 0 0 1 20.12 36.62c-6.136-3.622-6.136-10.161-11.066-12.878-1.107 2.616 2.616 3.723 1.509 7.445a59.356 59.356 0 0 0-15.392-15.493l8.45 10.06c-4.527-1.61-6.64-4.627-9.255-5.734-4.729-2.113-7.545-7.243-13.481-7.243-1.71.1-2.515-1.208-3.42-2.314a57.948 57.948 0 0 0-20.121-15.996 23.742 23.742 0 0 0-11.067-1.912 15.795 15.795 0 0 1-8.45-2.615c15.19-4.427 29.074-6.54 41.247 5.633a46.479 46.479 0 0 0 14.386 10.866c1.71 0 3.723 1.509 5.232 0 1.509-1.51-.704-3.12-.704-4.628-2.013-6.137-4.025-12.274-6.44-19.316a40.845 40.845 0 0 1 23.743 16.197c2.415 3.22 4.729 7.143 10.06 6.439 1.41-.201 3.622-.403 2.818-2.214-3.924-7.847 3.42-16.197-2.515-24.144 12.72 1.8 22.402 12.325 23.138 25.15 2.515 15.594 4.628 30.483 7.043 45.775.603 3.924 2.213 7.847 2.213 11.972-8.35-21.73-8.048-45.775-19.215-66.7zm51.408 102.941a119.464 119.464 0 0 1-6.64-36.325 100.646 100.646 0 0 0 0 21.332 94.907 94.907 0 0 1-3.923-22.338v15.596h-1.107l-1.207-4.528c-2.314 1.812-.302 4.327-1.61 6.24a50.32 50.32 0 0 1-4.225-15.598c-2.113 4.428 1.308 8.654 0 12.578a63.1 63.1 0 0 1-15.191-38.942 45.367 45.367 0 0 0 8.45 3.724c9.86 2.213 16.801-5.032 15.09-16.201a27.274 27.274 0 0 1 4.93-24.15c1.811 1.51 0 4.73 2.415 5.232 2.414.504 3.018-1.911 4.326-3.22a36.218 36.218 0 0 1 12.676-9.358c1.509-.704 3.22-1.81 4.527-.704 1.308 1.107 0 2.717 0 4.025-1.308 4.428-2.716 8.754-3.823 13.182-.402 1.71-.503 4.327 1.409 5.031 1.911.704 3.118-1.006 4.225-2.214 3.924-4.125 6.942-11.068 13.984-14.188a66.22 66.22 0 0 1-8.45 22.842c-2.415 4.428-4.226 4.93-4.226 7.849-2.213-1.107-1.912-3.522-3.42-5.031 1.81 6.943-5.836 11.27-4.327 18.313-2.414-5.635-1.307-11.873-4.93-17.207 7.345 23.044-7.444 43.772-6.035 66.212a100.646 100.646 0 0 1 0-45.483 97.223 97.223 0 0 0-2.918 53.331zm-35.01-5.644a62.067 62.067 0 0 1 25.05 6.137 53.012 53.012 0 0 0-29.376 0 95.16 95.16 0 0 1 17.807 1.208l-11.368 1.006v.906h14.386a106.934 106.934 0 0 0-29.074 10.967c13.48-3.622 26.66-10.766 42.655-2.314a62.468 62.468 0 0 0-35.412 5.332c15.895-4.326 31.992-7.647 46.076 4.73-19.617-10.867-38.229-4.529-56.74 3.32a153.91 153.91 0 0 1-37.022 11.67c4.024 1.208 8.048-.804 12.072 0a131.977 131.977 0 0 1-53.219 5.736 82.188 82.188 0 0 1 27.565-11.57 47.685 47.685 0 0 1-24.144-13.584 35.409 35.409 0 0 1 15.392-3.12c2.917-.502 7.243-.2 2.917-4.93-.905-1.005-2.314-2.213-1.509-3.722a4.728 4.728 0 0 1 5.131-1.811c4.94.673 9.566 2.81 13.28 6.137 1.71 1.308 4.125 2.918 4.829-.704.704-3.622 3.621-1.107 5.231-1.107a24.545 24.545 0 0 0 18.31-1.71 16.3 16.3 0 0 0 10.06-14.489c-.2-7.143-5.03-11.671-13.682-13.885 13.481-4.326 25.252-7.143 37.123-.704a113.267 113.267 0 0 0-20.12-.906l18.611 4.93c-5.13 2.114-10.262-.2-16.197 2.114a81.178 81.178 0 0 1 20.624 3.018l-17.606 1.71c10.966 1.208 21.026-.603 31.086 5.534a54.622 54.622 0 0 0-22.736.101zm-92.05-83.409l-6.238-1.006c6.842 5.836 15.595 5.736 25.656 10.063a104.121 104.121 0 0 1-24.248-2.114 142.352 142.352 0 0 0 31.09 7.145 104.524 104.524 0 0 1-26.864 1.409 118.506 118.506 0 0 0 35.315 2.012v2.717l-31.995 2.516c12.727.956 25.507.956 38.233 0a86.518 86.518 0 0 1-26.863 5.937 157.54 157.54 0 0 0 34.208-2.113 115.59 115.59 0 0 1-33.504 6.339c14.186 3.522 26.964-4.528 40.245-1.006a169.21 169.21 0 0 1-51.111 8.15c19.317 4.529 37.528-3.622 56.645-3.622-2.314.805-4.729 1.811-7.144 2.516a33.1 33.1 0 0 0-8.15 3.32l7.547-1.409a70.419 70.419 0 0 0 7.646-1.81c2.817-.705 5.635-2.013 8.351 1.81a225.353 225.353 0 0 0-30.184 10.063c11.168-.604 21.028-7.95 32.8-6.54-12.399 1.5-17.245 15.224-29.254 17.566 14.084-2.71 25.616-15.525 41.428-10.02-17.406 2.013-30.888 13.987-48.596 19.019l5.433.905a42.857 42.857 0 0 1-24.247 7.648c.402-.604-.302.1 1.006-1.912s4.225-3.32 2.817-6.239c-1.409-2.918-4.729-1.207-7.144-1.207a47.988 47.988 0 0 1-28.876-7.85 122.642 122.642 0 0 1 24.248-12.88c1.811-.905 5.131-.704 4.628-3.622-.503-2.918-3.622-1.912-5.533-1.912a49.6 49.6 0 0 1-30.184-14.993l5.232-1.912c11.067-4.226 11.47-5.635 5.936-15.698-4.427-7.95-8.05-16.402-11.973-24.552l1.006-1.208zM247.869 707.15c3.622-3.22 7.747-6.34 11.067-10.062 9.165-10.838 8.19-26.969-2.214-36.624a11.066 11.066 0 0 0-19.617 7.647c-.705 11.269-1.61 22.538-2.415 33.807a20.125 20.125 0 0 1-2.515 8.049c-.805-.604-1.61-.604-1.61-.604-1.61-2.213-1.207-6.64-4.527-6.64-3.32 0-4.527 3.924-5.935 6.54a149.024 149.024 0 0 0-8.552 26.059 25.959 25.959 0 0 1-12.575 17.608c.654-7.095.654-14.236 0-21.33-.201-1.41.1-3.22-1.61-3.724-1.71-.503-2.515 1.107-3.521 2.013a71.932 71.932 0 0 1-20.12 14.79c4.124-5.735 8.45-11.47 12.474-17.306a399.059 399.059 0 0 0 32.596-63.589 58.655 58.655 0 0 1 40.241-37.328c-7.847 15.394.604 26.16 9.457 36.222a70.433 70.433 0 0 1 14.386 25.656 44.275 44.275 0 0 1-6.438 32.801c-.403 1.208-1.308 2.012-1.912 1.208-4.628-6.037-7.344 1.509-10.06 2.414-2.717.906-4.527 2.616-4.83-1.911-.301-4.528-2.816-4.327-5.935-2.818l-12.676 6.037a20.124 20.124 0 0 1 6.841-18.915zm-29.275-167.932a86.726 86.726 0 0 0 2.012 45.575 22.335 22.335 0 0 1-11.67-21.429c-.805-11.972-1.71-23.944-3.421-35.917a292.273 292.273 0 0 0 0 43.966c-11.972-16.701-7.042-36.118-14.89-52.115a143.47 143.47 0 0 1 2.818 30.182 321.948 321.948 0 0 0-22.837-56.742 102.917 102.917 0 0 1 19.718 13.079 19.417 19.417 0 0 1 5.432 8.35c.604 2.113 1.107 5.634 3.421 5.332 2.314-.301 1.71-2.012 2.314-5.533.604-3.521 1.308-6.942 2.113-11.268 7.746 6.238 15.996 11.067 16.8 21.832.101 1.509 0 3.22 2.113 3.32 2.113.1 2.716-1.71 3.622-3.12 4.728-8.148 4.93-8.249 10.764-.905a40.244 40.244 0 0 1 10.06 29.277 41.954 41.954 0 0 0 4.125 18.411 14.487 14.487 0 0 0 13.683 9.558 9.457 9.457 0 0 0 10.06-12.073 41.55 41.55 0 0 0-7.545-13.884 37.83 37.83 0 0 1-4.326-33.502c5.533 3.723 10.966 7.244 16.096 10.966a10.765 10.765 0 0 1 5.232 8.25c.1 1.71-1.308 4.226 1.106 5.03 2.415.805 1.51-3.32 4.326-3.32a123.649 123.649 0 0 1 6.338 27.768c1.343 10.257-4.904 19.989-14.788 23.039a43.058 43.058 0 0 0-20.624 14.588 95.88 95.88 0 0 1-8.048-19.518 42.155 42.155 0 0 0 4.225 21.43c-5.332-1.61-7.344-4.73-10.664-17.003a172.345 172.345 0 0 0-5.936-20.122 168.119 168.119 0 0 0 4.427 31.692c-11.972-14.085-11.972-32.195-16.298-48.895a116.205 116.205 0 0 0 4.326 40.242c-12.274-16.5-12.676-36.62-13.581-56.742zm-151.71 52.934c5.997-.352 12.01-.352 18.007 0a10.06 10.06 0 0 0 8.652-2.918c2.515-2.616 4.527-4.83-.905-6.339a12.274 12.274 0 0 1-6.036-5.031 30.182 30.182 0 0 0-14.588-11.773 27.863 27.863 0 0 1 26.358-5.132 56.335 56.335 0 0 1 20.12 10.666 97.782 97.782 0 0 0 17.305 10.063 20.117 20.117 0 0 0 14.688 1.61 16.098 16.098 0 0 0 11.67-12.377 12.478 12.478 0 0 0-5.634-13.282 73.947 73.947 0 0 1-14.286-11.974 19.12 19.12 0 0 1-4.728-12.578c7.143 2.918 7.445 2.717 6.64-4.83-.9-8.32.564-16.725 4.225-24.25 3.823 2.013 4.83 6.138 6.64 8.956 1.81 2.817 3.722 6.64 5.03 8.754 1.308 2.113 2.616 4.628 5.634 3.622 3.018-1.006 1.911-4.025 1.911-6.238-.603-4.83-2.112-9.56-2.112-14.289a10.064 10.064 0 0 1 1.61-8.05 132.832 132.832 0 0 1 14.486 30.187c3.823 9.257 6.439 18.817 10.06 27.973a103.234 103.234 0 0 0 36.822 44.576l6.438 5.03a77.263 77.263 0 0 1-45.674-30.186 60.369 60.369 0 0 0 28.471 30.187 91.842 91.842 0 0 1-42.958-17.81c2.515 5.131 2.515 5.131 10.866 10.062 4.225 2.616 8.752 4.73 15.19 8.15a123.724 123.724 0 0 1-62.474-15.496 83.193 83.193 0 0 0 32.495 16.301c-19.014 4.73-29.075 7.748-63.28-12.376 2.515 4.125 4.024 5.433 12.576 10.062 5.03 2.616 9.96 4.73 15.09 7.245-8.149 4.327-8.149 4.327-45.775-4.327a20.12 20.12 0 0 0 10.06 6.34c4.126 1.509 8.25 2.615 12.476 3.923-.101 2.415-2.214 2.415-3.622 2.415a265.96 265.96 0 0 0-39.336 11.974c-18.41 8.553-38.833 10.264-57.143 18.616 5.478-17.706 21.713-29.884 40.241-30.187a55.323 55.323 0 0 0 18.914-4.025c1.408-.604 2.917-.402 3.22-2.616.301-2.214-1.812-2.616-3.32-3.32L48.07 599.396a27.16 27.16 0 0 1 18.813-7.245zM194.347 697.19c-8.652 11.872-38.23 34.209-53.924 30.184a67.514 67.514 0 0 1 10.564-16.199c2.414-2.918 2.314-4.729-2.012-4.729-2.012-.1-5.533.604-5.533-2.113a7.144 7.144 0 0 1 3.722-6.64 28.971 28.971 0 0 1 14.386-4.327c3.018-.201 5.735-1.308 3.018-4.729-2.716-3.42 1.409-3.823 2.918-4.93a29.18 29.18 0 0 0 14.487-25.858 14.79 14.79 0 0 0-8.753-14.59 17 17 0 0 0-18.813 3.422 45.78 45.78 0 0 0-10.06 16.3 182.327 182.327 0 0 1-10.563 24.55c-1.308 2.112-1.912 5.03-4.93 5.735-4.125-11.47-4.225-12.074-13.078-2.013a54.727 54.727 0 0 1-27.566 16.703 148.221 148.221 0 0 1 8.45-31.493c.806-2.113 3.421-4.427.806-6.54-2.616-2.113-4.125 1.308-5.735 2.616a59.252 59.252 0 0 1-31.891 14.287c-4.225.503-6.439.201-3.622-4.527a24.15 24.15 0 0 0 1.71-4.025c3.823-10.766 2.717-12.577-8.048-14.489a256.116 256.116 0 0 1-32.998-11.168c28.773-5.433 54.527-20.324 83.3-25.556a329.88 329.88 0 0 0-31.489 23.242c24.95-14.388 48.793-31.593 80.483-33.807a229.07 229.07 0 0 0-64.185 40.246c30.08-18.916 59.557-39.039 95.976-43.969-21.73 9.257-43.26 19.318-57.948 39.442 30.08-22.94 62.274-40.146 101.409-38.737a122.527 122.527 0 0 0-41.55 16.903 126.445 126.445 0 0 1 70.423-10.062c-18.914 2.818-38.43 3.12-54.326 15.998a144.251 144.251 0 0 1 43.964-10.061 25.25 25.25 0 0 1-15.393 8.451 50.298 50.298 0 0 0-30.18 11.772 94.558 94.558 0 0 1 31.991-7.848 12.374 12.374 0 0 1-11.268 8.553 41.548 41.548 0 0 0-27.766 15.193 86.916 86.916 0 0 1 23.139-10.062c1.911-.905 4.829-3.42 5.634 0 .804 3.421-2.717 3.421-4.93 3.421a39.336 39.336 0 0 0-24.749 16.602 99.494 99.494 0 0 1 17.002-10.062c2.616-1.006 6.238-4.326 7.848-1.006 1.61 3.32-2.918 4.628-5.835 5.735a43.964 43.964 0 0 0-18.713 13.784 69.414 69.414 0 0 1 21.228-11.269c-6.238 7.949-15.896 12.175-23.039 21.029 7.646-2.918 12.274-8.552 18.914-11.168-6.64 10.464-18.21 15.494-25.453 25.556zm101.006-442.206a50.313 50.313 0 0 0 3.823-25.757 42.966 42.966 0 0 1-9.457 26.462c-5.03 5.534-8.551 7.647-15.694 4.93-14.185-5.333-14.185-5.333-23.642-3.622.604-4.629 4.326-7.345 7.143-11.169-4.125.101-4.829 4.327-8.149 5.434a38.838 38.838 0 0 1 11.77-18.01 38.031 38.031 0 0 0-13.38 15.092c1.208-9.961 3.522-13.785 17.606-31.593-2.716 2.515-5.533 4.93-8.048 7.646a92.058 92.058 0 0 1-7.545 7.848 139.153 139.153 0 0 1 21.328-31.895c6.136-6.137 10.965-14.488 21.931-14.488a36.224 36.224 0 0 1-11.77 30.184 38.435 38.435 0 0 0-10.06 13.18 12.478 12.478 0 0 0 5.13 17.508c5.332 1.71 10.463-1.71 12.274-10.062a37.832 37.832 0 0 1 16.499-26.864 34.406 34.406 0 0 1 3.722-1.71c.905 5.634 1.81 10.967 2.515 16.4a7.647 7.647 0 0 1-2.314 7.949c-5.432 3.823-5.734 9.76-6.941 15.293 3.118-1.308 2.012-3.823 3.118-6.842 1.107-3.018 1.006-3.119 6.036-4.628-3.018 4.427-3.018 10.263-9.154 11.47-2.415 2.113-2.314 6.339-6.74 7.244zm194.769-73.44a14.995 14.995 0 0 1 4.627 10.063 206.53 206.53 0 0 0-37.726-23.145 167.373 167.373 0 0 0-43.662-12.176 80.465 80.465 0 0 1 46.881-5.433 45.362 45.362 0 0 0-29.376-1.812 176.419 176.419 0 0 1-51.61 5.736c2.817-5.333 9.96-6.239 12.174-11.975-10.161 5.736-18.41 14.893-31.59 16.403a76.695 76.695 0 0 0 5.332-36.73l-3.924 22.24c-3.219.905-3.018-2.919-5.332-2.919a16.204 16.204 0 0 1-1.006 18.717c-.804 1.006-.905 5.031-3.32 1.006-2.414-4.025-6.237-3.32-10.06-3.32a11.469 11.469 0 0 1-11.469-7.346 19.224 19.224 0 0 1 2.113-14.591c.805-2.415 2.314-.805 3.42 0a31.388 31.388 0 0 0 9.055 6.238c.805-6.138-5.13-12.175.805-17.61a20.13 20.13 0 0 1-.503-4.226 4.126 4.126 0 0 1 1.207-3.12c1.308-1.005 2.012.705 2.817 1.41 7.243 5.635 7.143 5.635 11.972-1.711.81-1.5 1.717-2.946 2.716-4.327 1.61-2.013 2.113-6.641 5.231-5.434a9.258 9.258 0 0 1 5.634 8.654c-.402 4.73-.1 8.15 6.439 5.333a23.547 23.547 0 0 1-7.143 10.667c-3.32 3.723-5.734 7.849-1.107 11.975 4.628 4.125 8.552.503 11.57-3.12 5.835-6.44 10.261-13.383 15.895-19.622 1.61-1.812 5.03-9.258 7.545 0 .604 2.113 3.42.604 5.232.604a61.857 61.857 0 0 1 21.529 0 14.184 14.184 0 0 1 8.652 4.125 41.138 41.138 0 0 1-17.002 1.912 20.922 20.922 0 0 0-16.7 4.83c24.446-10.062 42.454 5.937 63.984 14.893a18.91 18.91 0 0 1-13.079 2.918c13.28 7.547 20.221 20.83 29.779 30.893zm-31.992 8.242l-8.853-4.629c-1.006 4.528 2.615 6.842 3.621 10.062-2.313 1.912-4.225.604-6.136 0a139.23 139.23 0 0 1-45.272-22.84c4.326 3.622 6.439 9.357 11.167 12.678l.704-1.208c10.362 6.64 23.743 8.452 31.891 19.52a12.474 12.474 0 0 1-15.895-.705c-5.634-4.024-8.853-9.96-14.084-14.086 2.112 6.842 7.947 10.364 12.173 15.797-3.723.604-6.338-1.71-9.256-2.314-2.817 2.113 1.107 4.527-.805 6.842a36.823 36.823 0 0 1-10.664-11.27 30.183 30.183 0 0 0-9.054-10.061c-6.137-3.522-9.054-2.515-11.368 4.427-.704 1.61-1.71 1.61-3.22 1.61 6.238 8.955 17.405 11.37 25.252 19.016-3.32 1.409-6.137-.503-8.551 1.409.704 5.131 5.13 7.848 7.947 12.074-4.124 1.71-7.143-2.113-11.57-2.113l10.061 13.08c2.415 3.42 1.409 4.326-2.615 4.326-7.747-1.006-15.695-1.106-19.216-10.061-.503.503-1.308.503-1.308.503-2.012 1.308 1.61 6.44-3.018 5.534a8.652 8.652 0 0 1-7.947-7.245 23.345 23.345 0 0 1 2.213-10.061c1.308-3.824 2.314-7.748 3.622-12.376 5.332 6.741 7.042 14.891 15.392 21.029-12.475-15.998-16.197-33.908-24.145-49.704-2.616-5.937-9.255-6.238-14.386-10.062 13.682-7.747 26.76-11.973 40.845-2.817-1.409-3.421-5.634-3.421-8.551-6.943a91.037 91.037 0 0 1 47.485 6.641c.603-.302 1.61-.905 1.61-.905a160.96 160.96 0 0 1 56.337 29.48l-16.298 2.113a14.386 14.386 0 0 1-13.883-5.635 49.198 49.198 0 0 0-10.664-11.168c.604 4.125 4.729 5.936 6.439 10.062zm-316.5 96.49a63.575 63.575 0 0 1-27.866-3.824c9.306.315 18.613-.633 27.666-2.817 2.112-.603 5.13-1.61 4.426 2.717 3.722-1.107 4.93-6.64 10.06-4.83-1.106 4.427-6.539 5.434-8.148 11.169a47.085 47.085 0 0 0 10.764-10.666c1.107-1.509 2.616-4.326 4.125-3.018 6.942 6.137 9.859-.604 13.682-4.528 1.107 3.22-3.018 4.226-1.911 6.842 8.55-.402 9.96-11.47 19.315-12.476a97.393 97.393 0 0 0-19.617 23.544c-.403.805-1.208 1.911-2.012 1.911-11.771.805-20.926 9.458-31.892 12.779-4.024.905-8.149 3.018-12.374 0 3.722-6.138 12.676-8.452 13.783-16.803zm103.019 70.028a138.032 138.032 0 0 0-22.334 18.916c-1.107-1.71-.1-2.616.503-3.522 17.102-27.669 36.318-53.628 54.326-80.492 2.213-3.32 4.527-2.515 7.444-1.51 13.18 4.227 22.435-3.722 34.206-10.06-5.936-2.114-10.966-.403-14.99-4.227 11.066-3.018 15.09-12.375 21.127-20.123 1.81-2.414 1.61-4.226-2.214-3.42-1.308.603-2.716 1.71-3.722 0a154.76 154.76 0 0 1 17.203-54.434l1.107 5.132c1.911 8.854 4.829 10.061 12.978 6.238 1.509-.805 4.829-2.415 4.829 2.213 0 13.382 10.965 19.319 19.416 26.764 8.45 7.446 20.12 5.232 30.181 7.446 2.616.503 6.338 1.71 8.049-1.006 1.71-2.717-1.61-5.132-3.12-7.446l-3.62-5.433a17 17 0 0 0 13.178-1.308 73.949 73.949 0 0 1-13.783-14.891c7.445 4.326 11.47 4.226 8.652-4.629 4.427 2.013 8.35 6.34 11.67 4.528 3.32-1.811-2.414-4.528-1.106-7.949a44.06 44.06 0 0 0 24.748 0c3.622-.804 4.326-5.232 6.54-5.232 9.557 1.61 18.008-4.326 27.565-3.521 6.942.503 13.984-1.006 19.517 5.534a67.015 67.015 0 0 0-10.06-27.569c-6.238-6.942-9.357-16.5-20.825-21.833 7.243-.202 8.149-2.013 4.93-5.434-1.61-1.71-3.22-3.521-4.93-5.232a58.548 58.548 0 0 0-25.855-11.872c6.338-1.107 7.746-2.516 3.018-5.937a44.664 44.664 0 0 0-30.181-9.357h-3.924c-2.213-7.949-7.042-2.817-10.06-1.912a27.265 27.265 0 0 0-12.475 10.666l-11.067 14.287c-1.408 1.71-2.716 4.025-5.533 2.214-2.817-1.811-.603-4.226.604-6.239 2.414-3.823 6.84-6.439 7.948-11.067.804-3.019 4.728-8.653-3.823-7.043a1.911 1.911 0 0 1-2.214-1.409c-1.61-6.238-7.847-10.062-7.847-18.211a40.95 40.95 0 0 0-12.273 14.488c-4.326 7.043-4.729 7.245-8.552 0-2.414-4.226-3.722-3.622-6.237 0a37.231 37.231 0 0 0-4.527 18.413c-3.924 1.308-10.765-10.162-10.765 5.03L312.96 108.79a102.635 102.635 0 0 1-11.872-30.185 41.457 41.457 0 0 1 7.28-33.781 41.447 41.447 0 0 1 30.346-16.526c16.647-2.225 32.02 9.262 34.608 25.858a20.124 20.124 0 0 1-23.038 22.135c.1-2.113 2.213-2.314 3.219-3.521a8.15 8.15 0 0 0 .503-11.27c-4.024-3.722-6.237 1.208-8.551 3.623a17.004 17.004 0 0 0-3.018 4.83c-3.924 8.049-1.811 12.073 7.344 12.073a25.05 25.05 0 0 0 23.038-12.375 23.949 23.949 0 0 0 0-26.06 41.449 41.449 0 0 0-58.149-13.382c-2.113 1.308-3.722 4.025-6.942 3.22-.301-2.213-.402-4.427-.905-6.54A30.185 30.185 0 0 0 271.209.527a20.122 20.122 0 0 0-15.795 16.199 18.816 18.816 0 0 0 5.735 19.117 6.941 6.941 0 0 0 9.054 1.308 6.641 6.641 0 0 0 3.018-8.15c-1.207-3.622-4.024-6.037-7.646-4.93-7.243 2.415-5.734-2.113-5.231-5.836A14.489 14.489 0 0 1 267.99 7.37a21.729 21.729 0 0 1 26.76 5.03 28.678 28.678 0 0 1 6.942 30.185 54.237 54.237 0 0 0-4.225 50.308 237.363 237.363 0 0 0 18.913 37.429c11.268 20.123 18.612 40.95 11.268 64.293a62.486 62.486 0 0 1-10.865 23.343 16.402 16.402 0 0 1 1.61-16.2 38.53 38.53 0 0 0-29.478 16.1 40.249 40.249 0 0 0-7.645 18.513c-.302 1.81-.503 4.427-3.019 4.225-2.515-.2-2.515-2.716-2.515-4.628a14.791 14.791 0 0 1 5.534-13.382 48.399 48.399 0 0 0 15.493-39.542c-.101-2.414 1.509-5.232-3.22-3.622-4.728 1.61-3.118-1.408-3.118-3.622.814-6.676.982-13.415.503-20.123.1-3.823-.805-5.433-4.528-2.515-3.722 2.917-5.13 1.408-5.13-2.516a74.062 74.062 0 0 1 .503-30.185 40.843 40.843 0 0 0-22.837 11.068c-1.308-2.213.301-3.32.905-5.03.604-1.711 2.616-3.22 1.107-5.333-1.51-2.113-4.025-.503-6.037-.503a48.388 48.388 0 0 0-15.694 7.244c-1.106.704-2.817 3.12-3.823.704-2.515-6.037-4.728-1.71-6.539 0a42.563 42.563 0 0 0-11.871 29.48c-.201 5.132-1.71 10.163-7.545 10.062-5.835-.1-7.344-4.729-8.15-9.458-1.508-7.848-2.514-15.696-4.325-23.443a31.996 31.996 0 0 0-14.89-21.33 18.811 18.811 0 0 0-20.12-1.107c8.953 6.64 2.314 13.885 3.118 20.928h-1.408l-3.119-4.83a30.784 30.784 0 0 0-27.666-14.992c-6.438-.1-7.243 1.61-4.225 7.144a39.645 39.645 0 0 1 5.734 12.678c-21.127-21.733-40.644-18.312-64.386-10.062-3.119 1.308-3.924 3.22 0 5.132a28.775 28.775 0 0 1 12.877 13.885 130.805 130.805 0 0 0 8.45 15.192c5.232 7.95 5.433 7.748-3.52 10.062l-4.226.805c-2.012.402-4.93-.302-5.734 1.912-.805 2.213 1.408 3.924 2.716 5.634a48.088 48.088 0 0 0 22.636 15.394l-14.185 10.062c-5.533 3.723-4.527 6.64 0 10.061a59.25 59.25 0 0 0 29.175 10.062c-.805 2.918-5.03 2.415-4.426 5.433.603 3.019 3.923 2.214 6.136 3.019 3.763.958 7.706.958 11.47 0a157.13 157.13 0 0 0 25.854-8.955 28.568 28.568 0 0 1 14.185-1.811 8.049 8.049 0 0 1 7.445 6.842 7.848 7.848 0 0 1-5.332 8.552 28.87 28.87 0 0 1-23.944.604c-7.645-3.623-14.788 0-22.132 0a6.438 6.438 0 0 0-4.93 2.515c-2.817 5.635-7.948 6.037-12.877 7.546a33.197 33.197 0 0 0-7.244 3.22c-2.615 1.409-4.024 3.22 0 4.729a31.59 31.59 0 0 1 13.079 11.671 45.271 45.271 0 0 0-13.481 8.553c-5.835 5.634-5.634 7.143 1.308 10.967a64.48 64.48 0 0 0 30.18 7.546 27.768 27.768 0 0 1-10.06 8.452c-1.307.905-3.32 2.012-2.816 3.521.503 1.51 2.012 2.314 3.42 2.314a34.503 34.503 0 0 0 28.672-2.213c3.722-2.113 7.847-4.528 13.783-7.949-4.729 7.345-1.61 9.357 4.225 9.357-11.469 10.162-11.469 10.162 1.811 15.193l1.71 1.107c-4.728 5.433-4.124 7.345 2.918 10.062 1.81.704 5.734 0 4.93 2.616-2.214 7.646 2.716 3.622 5.13 3.622h6.54c-.504 3.521-4.025 6.238-4.628 7.546-.604 1.308-2.616 1.912-1.61 3.823 1.006 1.912 2.917 1.006 4.527 1.006a50.298 50.298 0 0 0 20.12-6.037c.906-.804 3.421-3.119 3.421 0-.2 5.333 2.515 3.32 4.83 2.516l10.563-3.522-20.825 33.103a69.728 69.728 0 0 1-5.634 9.156c-4.326 5.131-7.042 4.628-9.256-1.71a75.16 75.16 0 0 0-19.114-29.481 83.597 83.597 0 0 0-49.598-21.13 107.639 107.639 0 0 1-59.557-23.845 81.599 81.599 0 0 1-24.85-34.109 11.672 11.672 0 0 1 1.812-11.57 5.533 5.533 0 0 1 8.35-1.41c3.118 2.516 1.308 5.233-.503 7.547a52.616 52.616 0 0 1-4.226 3.924 3.12 3.12 0 0 0-.704 3.924 3.018 3.018 0 0 0 3.622 1.71 17.004 17.004 0 0 0 10.06-14.991c-.736-6.228-6.338-10.71-12.575-10.062a15.895 15.895 0 0 0-13.884 20.123 70.432 70.432 0 0 0 23.14 36.725 100.599 100.599 0 0 0 58.55 27.267 19.014 19.014 0 0 1-7.444 5.332 65.596 65.596 0 0 0-18.41 16.099c-6.951 7.99-6.951 19.88 0 27.87a27.06 27.06 0 0 0 31.79 6.037 13.583 13.583 0 0 0 2.918-21.632 9.054 9.054 0 0 0-10.664-1.71 6.138 6.138 0 0 0-3.32 7.344 7.646 7.646 0 0 0 7.243 6.842c1.308.1 2.918-.603 4.024.805a16.297 16.297 0 0 1-23.34 2.817 15.192 15.192 0 0 1-6.338-21.632 54.022 54.022 0 0 1 41.851-22.135c36.685 5.553 62.44 39.084 58.35 75.964a148.525 148.525 0 0 0 4.125 59.263 33.307 33.307 0 0 1 0 22.74 91.151 91.151 0 0 1-30.18-27.871 50.312 50.312 0 0 0-8.15 32.197c-2.213-4.428-3.52-6.943-4.627-9.458-2.214-4.93-4.427-3.924-6.841 0a59.267 59.267 0 0 0-7.244 20.123c-.302 1.61 1.61 5.634-3.018 3.924-4.628-1.71-4.628 1.509-4.628 4.527a44.576 44.576 0 0 0 11.368 30.185c2.757 3.19 5.311 6.55 7.646 10.062a7.144 7.144 0 0 1-.603 8.753 7.243 7.243 0 0 1-8.15 3.22 27.866 27.866 0 0 1-10.864-5.534 108.146 108.146 0 0 0-28.069-16.098 31.084 31.084 0 0 0-35.01 8.35c-1.81 2.516-8.652 7.849 2.213 6.943 2.616-.201 4.326 2.012 5.936 3.824 3.119 3.722 6.137 7.546 9.356 11.57a16.598 16.598 0 0 1-8.752-1.408 36.819 36.819 0 0 0-35.514 13.08c-3.42 4.628-2.414 6.54 2.918 7.747a43.759 43.759 0 0 1 17.404 5.534h-7.645a43.055 43.055 0 0 0-7.244.604C21.41 618.709 9.54 637.926.585 659.76c-1.509 4.024-.1 5.835 4.226 4.024a30.178 30.178 0 0 1 20.12 0c6.942 2.013 13.884 4.126 20.926 5.534 10.865 2.415 11.066 2.415 5.332 12.476-1.81 3.019-7.042 5.031-4.93 8.754 2.113 3.723 7.848 2.616 12.174 2.616a48.587 48.587 0 0 0 19.517-4.528l6.941-2.817a100.626 100.626 0 0 0-3.32 20.123c.202 7.446 1.107 8.351 8.552 6.943a62.372 62.372 0 0 0 32.092-16.904c0 1.71-.1 1.71 0 3.522.1 1.81-1.308 4.226.704 5.232 2.013 1.006 3.622-.604 5.232-1.51a35.213 35.213 0 0 0 12.273-12.073 167.333 167.333 0 0 0 11.67-26.16 33.204 33.204 0 0 1 10.06-15.395 10.06 10.06 0 0 1 12.073-.804 9.257 9.257 0 0 1 2.616 11.772 35.013 35.013 0 0 1-19.517 21.129c-9.457 3.723-12.374 12.677-17.405 20.123a6.843 6.843 0 0 0 0 7.546c2.817 2.817.503 4.327-.503 6.138a54.034 54.034 0 0 0-6.74 15.897c-.604 3.018-1.107 6.54 4.125 3.723a36.012 36.012 0 0 1 16.298-2.415c2.917-.1 4.225 1.006 2.917 4.226a44.88 44.88 0 0 0-2.012 19.318c.302 4.226 3.521 5.131 6.237 4.226 2.717-.906 5.534-1.61 8.25-2.717a80.483 80.483 0 0 0 26.358-18.714 31.094 31.094 0 0 1-.604 15.394c0 1.61-1.81 3.119 0 4.729 1.811 1.61 3.622 0 5.232-.906a41.856 41.856 0 0 0 22.233-30.184 34.313 34.313 0 0 1 3.521-13.08c3.521 8.954 3.521 8.954 10.966 2.917v10.062c.1 6.037 2.716 6.842 7.747 4.025 2.917-1.61 5.533-4.226 9.456-4.226.202 8.049 1.71 9.055 8.954 6.137 1.71-.704 3.823-1.911 5.03-2.716 1.208-.805 2.515-2.415 3.32 0 2.415 7.043 4.125 2.515 5.936 0 1.81-2.516 3.42-5.132 5.332-7.949 3.018 3.421 1.509 7.446 3.018 10.766.604 1.409-.503 3.521 2.012 4.326 2.515.805 3.119-1.61 4.326-3.018a71.743 71.743 0 0 0 12.475-27.166c3.22 5.835 5.13 5.433 7.646 0 8.891-14.605 5.673-33.528-7.546-44.372a146.179 146.179 0 0 0-24.849-18.513 21.028 21.028 0 0 1-8.853-9.156 5.434 5.434 0 0 1 1.61-6.54c1.71-1.71 3.42-1.006 5.231 0a74.346 74.346 0 0 1 20.926 14.086 503.044 503.044 0 0 0 44.768 43.365c1.51 1.61 2.717 2.918 1.51 5.434a69.13 69.13 0 0 0 0 53.527c4.024 12.577 9.154 24.953 12.676 37.63a47.796 47.796 0 0 1-11.179 47.349 47.783 47.783 0 0 1-46.87 13.02c-3.923-.905-6.137-2.313-6.137-6.54a20.124 20.124 0 0 0-9.155-15.595c-5.432-3.622-8.953-2.314-10.664 3.924a16.905 16.905 0 0 0 5.936 17.507c6.338 6.34 6.238 7.748-1.308 13.382a51.806 51.806 0 0 1-43.26 8.653c-7.746-1.71-15.291-4.226-22.937-6.137a44.361 44.361 0 0 0-22.938-.805c-12.336 2.579-20.562 14.28-18.812 26.763 1.006 2.516 1.71 5.534 4.829 4.73 3.118-.806 1.207-3.522 1.207-5.535a14.59 14.59 0 0 1 5.734-14.69 25.752 25.752 0 0 1 25.151-4.93c7.847 2.013 15.493 5.333 23.44 7.144 23.24 5.132 44.266 2.012 59.76-18.11 2.112-2.818 4.124-1.41 6.237-1.41a70.414 70.414 0 0 0 26.66 0 53.62 53.62 0 0 0 35.924-20.944 53.633 53.633 0 0 0 10.152-40.33 252.668 252.668 0 0 0-15.09-48.195 64.3 64.3 0 0 1-2.717-43.164c1.51-4.226 2.918-4.729 6.439-1.71a294.468 294.468 0 0 0 32.092 23.443 50.297 50.297 0 0 0 38.33 9.156 25.754 25.754 0 0 0 20.121-33.706 38.635 38.635 0 0 0-22.837-25.557 69.214 69.214 0 0 1-21.227-13.482 38.84 38.84 0 0 1 8.25-60.37 18.208 18.208 0 0 1 20.12 1.812 22.136 22.136 0 0 1 9.759 17.205 27.968 27.968 0 0 1-3.522-2.113c-2.716-2.314-5.734-4.226-8.853-.905a7.748 7.748 0 0 0 0 10.061 10.06 10.06 0 0 0 12.676 4.025 12.175 12.175 0 0 0 7.847-12.778c-.804-15.495-21.126-35.417-42.253-23.645a45.177 45.177 0 0 0-8.753 70.43c2.013 1.912 4.93 3.02 5.735 6.742h-2.817a81.884 81.884 0 0 0-46.68 11.57c-2.716 1.812-4.024-.1-5.533-1.408a724.381 724.381 0 0 1-63.28-58.457c-1.51-1.61-4.024-2.818-3.42-6.138h6.438a40.238 40.238 0 0 0 24.749-6.238c12.776-7.546 13.48-21.029 17.505-32.8a3.12 3.12 0 0 0-.705-2.617c-1.207-.805-2.213.201-3.118 1.006a25.956 25.956 0 0 1-11.972 8.25c6.438-12.274 1.81-23.443 0-34.712-.201-1.308-.1-3.119-1.912-3.521-1.81-.403-2.314 1.308-3.118 2.314-.805 1.006-.604 3.019-3.22 3.019-3.219-7.748-10.462-12.477-13.984-20.124-1.207-2.515-.301-7.445-3.52-7.445-3.22 0-3.12 5.735-3.723 7.043-.604 1.308-1.308 3.42-2.817 2.113a82.398 82.398 0 0 1-17.505-15.897c-.905-1.308-.201-4.226-2.414-4.226-2.214 0-2.918 2.314-3.823 4.024a50.313 50.313 0 0 0-5.735 30.688 53.631 53.631 0 0 0 10.06 23.645c.906 1.61 2.717 4.226.906 5.634-1.81 1.409-4.024 0-5.936-1.308a18.313 18.313 0 0 1-7.042-16.5 55.24 55.24 0 0 0-19.618-42.662c-4.829-4.527-7.243-5.433-9.155 2.214-4.124-4.83-9.255-8.452-11.066-13.281-7.948-20.727-17.203-41.353-11.57-64.797a128.09 128.09 0 0 1 21.329-47.993 263.296 263.296 0 0 1 27.263-27.77 12.375 12.375 0 0 0-4.728-5.635z"/></g></g></svg>