<svg xmlns="http://www.w3.org/2000/svg" width="307" height="210" viewBox="0 0 307 210"><defs><clipPath id="k9oxa"><path d="M262.65 98.6h43.641v62.935H262.65z"/></clipPath><clipPath id="k9oxb"><path d="M100.5 180.06h18.726V210H100.5z"/></clipPath><clipPath id="k9oxc"><path d="M.03 209h306V0H.03z"/></clipPath></defs><g><g><g><path fill="#e6923a" d="M218.58 25.124c-.55-.425-.996-.777-1.55-1.435.084-.091.209-.268.403-.419.183-.142.284-.237.44-.345.29-.198.598-.382.923-.548.336-.141.69-.281 1.086-.334.435-.022.75-.169 1.477.248l.293.168-.01.579c-.011.567.264 1.422.755 2.19.491.758.978 1.642 1.633 2.344l-.323.428-.004-.002c-.397-.273-.806-.536-1.198-.829-.146-.075-.286-.164-.441-.226-.61-.259-1.26-.434-1.836-.744-.572-.31-1.11-.69-1.647-1.075m-.911-1.464c-.108 0-.28-.031-.494.029.612-.044 1.32.235 1.924.45a12.8 12.8 0 0 1 1.378.666c-.023-.046-.051-.086-.073-.133a3.592 3.592 0 0 1-.308-1.216c-.047-.006-.095-.015-.136-.013a5.076 5.076 0 0 0-.87.024c-.31.02-.629.065-.952.129a3.78 3.78 0 0 1-.47.064"/></g><g><path fill="#e6923a" d="M203.766 16.682c1.523-.423 2.951-1.133 4.277-1.993a20.788 20.788 0 0 0 3.689-3.057l.298-.313-.136-.451c-.49-1.608-1.157-3.18-2.735-4.298-.801-.52-1.896-.704-2.79-.469-.827.197-1.654.572-2.338 1.146-1.375 1.177-2.04 2.885-2.274 4.478-.214 1.498-.146 2.97.113 4.394a8.728 8.728 0 0 1-2.662.045c-1.473-.166-2.799-.943-4.06-1.777l-.118.156c1.204.952 2.52 1.889 4.07 2.208 1.52.363 3.134.32 4.666-.069"/></g><g><path fill="#e6923a" d="M245.294 75.22c.331.441.623.964.709 1.553.09.585-.057 1.175-.302 1.672-.253.495-.582.924-.943 1.328a2.592 2.592 0 0 1-.64.533.509.509 0 0 1-.162.067l-.314.207c.238.585.253 1.288.013 1.914-.29.831-.908 1.482-1.577 1.983-.694.47-1.468.827-2.31.941a3.41 3.41 0 0 1-1.287-.048 1.284 1.284 0 0 1-.526-.341l-.137.031c-.71 1.22-2.061 2.167-3.66 2.072-.638-.072-1.19-.316-1.708-.617-.031.52-.289 1.101-.588 1.352-1.021.827-3.241.577-3.241.577s-.462 1.77-3.55 1.288c-.964-.154-2.738-.768-2.951-1.865-1.62-8.934-6.693-7.662-6.693-7.662s-6.039.288-12.48 1.097c-6.213.77-15.609 1.712-18.636 2.983-3.028 1.289-7.02-3.484-7.02-3.484.829 7.872-13.234 8.432-13.234 8.432 1.118-.962 1.601-2.387 1.601-2.387-4.94 2.695-17.555 3.02-14.68 2.54 2.875-.481 5.594-3.368 5.594-3.368-3.203.924-24.421.02-29.996 2.58-5.574 2.54-9.974 15.59-17.226 19.576-2.317 1.27-7.775 3.002-13.272 4.56-6.058 1.714-12.153 3.215-14.238 3.638-3.992.79-13.483 18.844-18.112 20.596-3.666 1.398-5.2.099-5.685-.503l-2.169 2.606c-.787.87-1.517 1.937-2.694 2.516-.564.289-1.243.503-1.944.375-.57-.099-1.034-.425-1.418-.85-.455.296-.875.374-1.327.503-.544.124-1.089.183-1.633.219-1.089.01-2.125.145-3.349-.297-1.26-.474-1.81-1.946-1.814-3.049-.04-.937.122-1.809.354-2.68a2.031 2.031 0 0 1-.417-.383 2.63 2.63 0 0 1-.446-.96c-.154-.622-.168-1.203-.15-1.765.064-1.145.199-2.145.551-3.274.342-1.141 1.051-2.17 1.906-2.93.841-.786 1.787-1.397 2.749-1.898 3.819-2.01 7.997-2.916 11.198-5.267 1.49-1.158 2.633-2.91 3.72-4.624 1.065-1.754 1.994-3.605 2.882-5.476.874-1.88 1.69-3.794 2.513-5.708.857-1.92 1.47-3.857 2.543-5.778 1.242-.703 2.413-1.042 3.456-1.724 1.038-.644 1.968-1.387 2.722-2.289.776-.875 1.394-1.882 1.954-2.94.512-1.04 1-2.346 1.559-3.51 2.131-4.704 4.733-9.121 7.566-13.379-3.22.352-6.473.358-9.72.02-3.3-.371-6.653-1.079-9.715-2.866-1.504-.969-2.758-2.289-3.726-3.75-.967-1.476-1.56-3.12-2.039-4.765-.825-3.326-.94-6.754-.493-10.072.88-6.59 3.403-13.106 7.931-18.035 4.46-4.923 9.96-8.734 15.834-11.66l.034.07c-.94-3.197-.471-8.265 3.032-10.646 3.51-2.387 3.03-7.489 3.03-7.489 7.503 8.432 1.755 19.096-6.058 22.926-.057.025-.114.055-.169.082-4.667 2.647-8.955 6.02-11.854 10.382-3.022 4.436-4.262 9.829-4.079 15.147.057 1.35.106 2.642.445 3.857.334 1.21.838 2.36 1.572 3.358 1.458 2.028 3.839 3.293 6.356 4.009 2.538.714 5.247.983 7.955.964 2.662-.008 5.37-.214 7.992-.692.863-1.043 1.963-1.754 3.085-2.327a26.405 26.405 0 0 1 3.672-1.539c2.51-.823 5.057-1.482 7.615-2.093 5.116-1.185 10.286-2.23 15.382-3.293 2.39-.522 4.675-1.798 6.925-3.017 2.247-1.265 4.416-2.701 6.54-4.202 3.982-2.758 7.835-5.73 11.669-8.738-2.794-.733-4.638-1.792-4.638-1.792 6.463-2.52 5.138-3.76 8.864-7.476a86.654 86.654 0 0 1-6.77-2.05l-1.334-.47 1.395-.325c3.766-.875 6.699-3.697 9.402-6.482 2.711-2.834 5.35-5.853 8.604-8.277 3.22-2.535 7.286-3.872 11.306-4.316a33.595 33.595 0 0 1 6.57-.04 26.237 26.237 0 0 0-1.972-.741l-1.821-.59 1.502-1.082c3.281-2.362 6.828-3.621 10.508-4.562C192.843.47 196.6-.175 200.46.042c3.817.215 7.65 1.19 10.99 3.158 1.646.994 3.256 2.158 4.465 3.807.579.792 1.114 1.676 1.427 2.685.287.888.34 1.798.342 2.646 2.093 2.036 4.165 4.085 6.186 6.198 1.042 1.112 2.078 2.218 3.058 3.426.244.307.483.61.715.998.055.086.12.23.175.358.034.114.057.27.059.356l-.006.14-.015.552c-.01.725.036 1.43.234 2.066.19.667.56 1.095 1.131 1.634l1.629 1.568a57.637 57.637 0 0 1 3.19 3.266c.977 1.162 2.066 2.299 2.526 3.878.163.897-.245 1.58-.519 2.3a5.962 5.962 0 0 1-.795 1.187c-.003.05-.017.099-.024.151a7.882 7.882 0 0 1 .165 3.786 5.528 5.528 0 0 1-.804 1.992c-.428.619-1.112 1.19-1.929 1.351l-.122.023h-.019c-.502.422-.736.571-.99.984-.261.404-.512.911-.757 1.4l-.722 1.51c-.21.549-.69 1.269-1.38 1.579-1.42.595-2.652.115-3.734-.224-1.095-.4-2.119-.897-3.13-1.398-.753-.377-1.5-.758-2.249-1.132-.534 1.137-1.116 2.505-1.92 3.661a15.101 15.101 0 0 1-3.192 3.436c-2.469 1.937-5.356 3.055-8.225 3.937-.144.044-.291.072-.435.114 3.769-.023 7.541.143 11.29.579 4.217.482 8.428 1.137 12.551 2.301 2.064.592 4.108 1.228 6.107 2.283 1.939 1.216 3.466 2.667 5.03 4.114l2.29 2.191c.757.727 1.565 1.428 2.24 2.316m-11.166-31.362c.278-.813.517-1.687.762-2.584a7.91 7.91 0 0 1-.971 1.097c-.736.687-1.51 1.287-2.264 1.912-.31.284-.648.56-1.004.819.192.41.424.773.713.973.308.22.633.246.994.223.841-.358 1.38-1.33 1.77-2.44m1.629-4.91c.167-.478.378-1.021.42-1.514-.403-.257-.794-.518-1.21-.722a6.714 6.714 0 0 0-2.441-.787c.285.25.568.502.834.782.684.746 1.376 1.531 1.776 2.63.062.169.093.369.108.577.203-.305.374-.634.513-.966M155.26 21.695c-2.488 2.446-5.24 5.03-8.717 6.177a70.081 70.081 0 0 0 14.75 3.63c1.365.179 2.736.303 4.11.339.662.03 1.44.017 2.152.328.743.272 1.306 1.078 1.344 1.853.1 1.55-.534 2.87-1.116 4.135-.53 1.068-1.14 2.085-1.773 3.08 3.229.337 6.529.403 9.721-.077 3.376-.506 6.533-2.08 9.187-4.211l3.393-2.723-2.692 3.426a95.062 95.062 0 0 0-4.1 5.583c-.64.954-1.26 1.925-1.78 2.917-.499.936-.887 2.113-1.448 3.17-1.087 2.137-2.604 4.091-4.495 5.643a15.196 15.196 0 0 1-4.26 2.381c3.57 1.428 7.354 2.455 11.16 2.941 4.568.558 9.326.217 13.475-1.724a19.423 19.423 0 0 0 5.612-3.865c1.711-1.592 2.823-3.523 3.604-5.74.79-2.183 1.357-4.48 2.13-6.74.398-1.122.843-2.254 1.563-3.248.694-1 1.823-1.756 3.047-1.842l.023.191c-1.163.169-2.112.93-2.71 1.9-.622.96-.995 2.075-1.327 3.189-.647 2.247-1.044 4.588-1.8 6.868-.38 1.141-.814 2.278-1.426 3.35-.587 1.105-1.433 2.023-2.226 2.922-1.669 1.769-3.66 3.261-5.87 4.327a20.986 20.986 0 0 1-3.353 1.276c1.93.442 3.887.751 5.853.772 2.952.049 5.877-.499 8.632-1.513 2.756-1.009 5.461-2.253 7.599-4.133a13.59 13.59 0 0 0 2.692-3.228c.677-1.107 1.084-2.257 1.629-3.59a29.851 29.851 0 0 0-2.11-.893c-1.045-.376-2.123-.688-3.23-.74-1.1-.072-2.252.206-3.12.938.817-.785 1.986-1.153 3.122-1.15 1.145-.014 2.272.239 3.36.557 2.178.654 4.233 1.619 6.293 2.49 1.03.434 2.063.855 3.104 1.163 1.01.294 2.162.492 2.833.1.33-.197.53-.473.688-.974l.56-1.602c.198-.54.383-1.07.668-1.647.159-.375.456-.747.737-1.059-.005-.008-.015-.015-.021-.025a2.15 2.15 0 0 1-.283-1.364c-1.239.86-2.716 1.488-4.317 1.383-2.144-.122-4.083-1.396-5.13-3.074l.104-.1c1.643 1.087 3.312 1.85 5.087 1.883 1.703-.002 3.72-.116 5.19-1.41a9.62 9.62 0 0 0 1.986-2.05c.279-.376.515-.78.675-1.18.129-.348.083-.554-.074-.927-.75-1.431-2.403-2.648-3.78-3.819l-1.085-.922 1.26-.369c.736-.216 1.303-.155 1.92-.067a5.906 5.906 0 0 1 1.683.569c.893.492 1.614 1.166 2.199 1.932-.01-.073-.002-.151-.023-.22-.46-1.333-1.585-2.447-2.602-3.513-1.053-1.063-2.186-2.055-3.308-3.063l-1.701-1.516c-.553-.463-1.232-1.198-1.469-2.01-.282-.8-.358-1.624-.377-2.407l-.005-.581v-.076c-.025-.036-.031-.067-.08-.135a8.306 8.306 0 0 0-.64-.817c-.965-1.107-2.042-2.175-3.11-3.23a265.446 265.446 0 0 0-6.54-6.248l-.266-.249.008-.35c.051-1.808-.443-3.238-1.55-4.617-1.007-1.324-2.476-2.356-3.999-3.223-3.068-1.748-6.596-2.66-10.145-2.834-3.543-.19-7.155.44-10.672 1.284-2.83.741-5.714 1.74-8.187 3.14.618.26 1.226.545 1.823.848 1.2.613 2.331 1.267 3.47 2.068l4.195 2.947-4.994-1.316a34.358 34.358 0 0 0-11.424-.991c-3.82.334-7.574 1.494-10.666 3.773-3.158 2.233-5.832 5.133-8.64 7.929m35.872 39.538c-.008 0-.015.002-.023.004.283.072.572.158.852.223-.276-.076-.555-.147-.829-.227m54.185 17.037c.422-.937.152-1.914-.54-2.64-1.38-1.449-3.192-2.693-4.781-4.034-1.642-1.28-3.313-2.634-5.073-3.466-1.778-.831-3.808-1.396-5.806-1.924-7.928-1.99-16.07-3.34-24.272-4.525a24.659 24.659 0 0 1-5.553.762c-9.704 3.771-17.596 4.424-23.873 3.46-14.912-2.272-20.815-13.532-20.815-13.532 18.076 2.482 22.627-9.546 21.874-8.853-.308.27-.616.518-.924.75-4.38 3.214-9.318 1.867-13.64 1.366-3.761-.443-6.23 2.714-6.23 2.714-1.929-8.007 5.807-9.894.637-8.624-3.076.753-6.03.452-8.379-.101a110.475 110.475 0 0 1-11.174 9.834c-2.112 1.577-4.277 3.095-6.56 4.464-2.277 1.372-4.706 2.568-7.46 3.151-5.202.895-10.418 1.34-15.544 2.394-2.56.512-5.108 1.116-7.547 2.024-2.382.89-4.942 1.998-6.339 3.981l-.107.154-.177.042c-5.436 1.25-11.13 1.897-16.769.526-2.762-.713-5.595-2.08-7.467-4.529-.935-1.198-1.593-2.598-1.977-4.04-.405-1.448-.462-2.935-.523-4.329-.154-5.668 1.458-11.512 4.899-16.07 3.323-4.48 8.04-7.582 12.979-9.71.639-1.146.586-3.637.384-4.422 0-.038-.02-.057-.02-.076-.008-.042-.02-.042-.033-.067-5.718 3.132-11.031 7.148-15.184 12.112-4.243 4.893-6.458 11.226-7.127 17.572-.313 3.177-.064 6.399.8 9.397.883 2.968 2.483 5.752 4.975 7.411 2.523 1.703 5.714 2.535 8.86 3.154 3.175.608 6.435.92 9.706 1.099l.004.095.084.05a125.858 125.858 0 0 0-3.418 6.94c-1.084 2.33-2.12 4.684-2.99 7.083-.447 1.214-.745 2.372-1.245 3.71-.53 1.277-1.293 2.486-2.297 3.486-2.013 2.046-4.982 2.802-7.461 2.84-1.393 3.805-2.543 7.923-4.182 11.763-.81 1.937-1.665 3.864-2.682 5.73-1.043 1.85-2.203 3.68-3.973 5.155-3.57 2.653-7.767 3.712-11.34 5.555-1.761.9-3.397 2.095-3.922 3.823a14.19 14.19 0 0 0-.589 2.864c-.042.473-.04.947.036 1.343a.912.912 0 0 0 .11.345l-.007-.04c.268.021.743-.059 1.13-.137.407-.086.818-.2 1.23-.33.82-.263 1.637-.594 2.439-.973a20.414 20.414 0 0 1-1.982 1.82c-.356.283-.728.557-1.122.812-.338.206-.66.396-1.07.575-.23.736-.414 1.513-.41 2.25-.012.944.286 1.811 1.062 2.154.743.341 1.89.343 2.887.364.962-.008 2.16-.143 2.743-.576l.396-.295.004.008 2.596-2.516-1.279 3.634c.506.12 1.076.055 1.589-.238 1.023-.467 1.724-1.44 2.54-2.31 1.562-1.795 3.02-3.694 4.528-5.547 3.022-3.706 5.955-7.491 9.175-11.062 1.63-1.767 3.239-3.565 5.102-5.148.439-.42.93-.792 1.422-1.164.492-.375.96-.771 1.525-1.078.566-.306 1.039-.706 1.716-.897.641-.247 1.287-.466 1.855-.548 4.71-.905 9.355-1.848 13.873-3.255 4.496-1.404 8.902-3.158 12.768-5.72 1.871-1.337 3.698-2.786 5.049-4.611.78-.84 1.28-1.855 1.88-2.815.548-1.03 1.061-2.125 1.585-3.19 2.084-4.29 4.095-8.634 6.393-12.854 1.148-2.107 2.33-4.21 3.76-6.162 1.407-1.935 3.057-3.85 5.27-4.904l.083.173c-2.061 1.183-3.511 3.139-4.748 5.135-1.23 2.021-2.331 4.125-3.346 6.276a282.705 282.705 0 0 0-2.416 5.325c1.69-1.249 3.568-2.242 5.532-3.017 2.535-1.013 5.252-1.638 7.991-1.756 2.768-.086 5.419.375 8.084.524 2.667.173 5.338.145 8.005.025 5.323-.296 10.651-.454 15.798-1.29 2.53-.438 5.165-.914 7.178-2.266.996-.688 1.72-1.547 2.03-2.819.202-.71.28-1.47.234-2.232a9.428 9.428 0 0 0-1.156-2.644c.232.11 2.477 1.23 4.907 2.341l4.284 1.478a4.748 4.748 0 0 0 2.038.373c.711.015 1.433-.01 2.154-.032l4.332-.238 17.374-1.097c2.901-.166 5.809-.303 8.738-.334 1.466.008 2.935.023 4.44.174.759.097 1.495.181 2.367.491l.329.128c.139.078.274.165.405.255.302.2.331.327.51.495.309.318.505.642.743.966 1.604 2.62 2.602 5.296 4.142 7.628.75 1.146 1.7 2.198 2.92 2.476 1.068.26 2.269-.259 3.132-1.113-.135-.937-.437-1.885-.84-2.78-.424-.871-.905-1.81-1.802-2.292.979.339 1.644 1.23 2.222 2.057a11.17 11.17 0 0 1 1.325 2.718c.4.097.882-.03 1.291-.156a8.252 8.252 0 0 0 1.92-1.002 5.43 5.43 0 0 0 1.465-1.506c.257-.417.354-.918.371-1.448-.45-.815-.962-1.602-1.587-2.304a7.517 7.517 0 0 0-1.034-.97c-.377-.278-.793-.548-1.276-.609.491-.019.97.186 1.405.405.439.231.85.515 1.237.825.717.577 1.348 1.257 1.928 1.977.186-.124.367-.32.5-.489.315-.404.597-.846.79-1.305"/></g><g><path fill="#fefefe" d="M.03 98h20.142c3.303 0 6.41.397 9.321 1.194 2.912.798 5.444 1.96 7.596 3.489 2.15 1.53 3.845 3.415 5.084 5.654 1.237 2.242 1.857 4.805 1.857 7.69 0 2.843-.597 5.33-1.791 7.465-1.197 2.13-2.772 3.887-4.727 5.264-1.956 1.379-4.184 2.414-6.683 3.102a28.708 28.708 0 0 1-7.659 1.035c-1.128 0-2.293-.034-3.487-.099a161.75 161.75 0 0 1-3.488-.224 53.531 53.531 0 0 1-3.13-.326 33.24 33.24 0 0 1-2.346-.386V161H.03zm10.69 30.314a63.98 63.98 0 0 0 3.91.968c1.392.302 2.783.454 4.172.454 2.304 0 4.313-.345 6.03-1.033 1.718-.691 3.151-1.628 4.303-2.814a11.336 11.336 0 0 0 2.575-4.168c.566-1.594.847-3.297.847-5.107 0-2.112-.368-4.029-1.107-5.753-.74-1.724-1.75-3.19-3.032-4.395-1.282-1.207-2.791-2.143-4.53-2.813-1.738-.668-3.608-1.002-5.607-1.002h-7.562z"/></g><g><path fill="#fefefe" d="M67.03 98h21.752c3.778 0 7.08.41 9.911 1.226 2.833.818 5.193 1.95 7.079 3.392 1.89 1.444 3.315 3.178 4.281 5.203.966 2.024 1.447 4.221 1.447 6.591 0 1.982-.364 3.823-1.093 5.525-.73 1.7-1.77 3.24-3.122 4.62-1.35 1.379-2.97 2.563-4.858 3.553-1.888.991-3.97 1.768-6.244 2.326L119.03 161h-12.228l-21.816-29.594h-7.4V161H67.03zm10.555 30.24h6.113c2.36 0 4.549-.312 6.564-.938 2.017-.623 3.755-1.517 5.214-2.68a12.237 12.237 0 0 0 3.41-4.234c.817-1.658 1.223-3.52 1.223-5.587 0-1.898-.32-3.63-.964-5.202a11.805 11.805 0 0 0-2.737-4.072c-1.179-1.142-2.584-2.025-4.214-2.649-1.63-.625-3.412-.938-5.342-.938h-9.267z"/></g><g><path fill="#fefefe" d="M184.03 98h20.99c6.46 0 12.013.602 16.664 1.81 4.65 1.204 8.525 3.144 11.625 5.813 3.575 3.017 6.254 6.484 8.04 10.405 1.79 3.919 2.681 8.228 2.681 12.923 0 4.435-.797 8.593-2.39 12.47-1.592 3.877-3.94 7.269-7.038 10.178-3.101 2.907-6.924 5.201-11.466 6.88-4.542 1.681-9.74 2.521-15.596 2.521h-23.51zm10.593 58.412h11.236c3.575 0 6.924-.592 10.046-1.778 3.12-1.184 5.844-2.928 8.17-5.233 2.324-2.304 4.164-5.146 5.52-8.53 1.356-3.381 2.036-7.29 2.036-11.727 0-3.877-.636-7.443-1.907-10.694-1.27-3.251-3.046-6.04-5.327-8.368-2.282-2.326-4.995-4.146-8.138-5.46-3.145-1.314-6.588-1.97-10.335-1.97h-11.301z"/></g><g><g/><g clip-path="url(#k9oxa)"><path fill="#fefefe" d="M306.291 98.6v4.066h-33.084v22.527h22.143v4.068h-22.143v28.206h33.084v4.068H262.65V98.6z"/></g></g><g><path fill="#fefefe" d="M158.03 102.07V98h-17v4.07h3.176v54.86h-3.176V161h17v-4.07h-3.471v-54.86z"/></g><g><path fill="#e6923a" d="M87.19 197.162c-1.894 1.892-4.276 2.838-7.148 2.838s-5.259-.946-7.161-2.838c-1.9-1.891-2.851-4.274-2.851-7.15 0-2.891.948-5.283 2.842-7.174 1.894-1.892 4.285-2.838 7.17-2.838 2.884 0 5.27.946 7.16 2.838 1.884 1.891 2.828 4.283 2.828 7.174 0 2.876-.946 5.259-2.84 7.15m-7.143-14.235c-1.836 0-3.405.63-4.698 1.889-1.299 1.258-1.944 2.987-1.944 5.19 0 1.49.32 2.779.968 3.875.64 1.093 1.46 1.895 2.451 2.414.994.51 2.068.768 3.223.768 1.821 0 3.383-.625 4.687-1.876 1.303-1.25 1.955-2.976 1.955-5.18 0-2.22-.644-3.954-1.932-5.204-1.288-1.25-2.86-1.876-4.71-1.876"/></g><g><g/><g clip-path="url(#k9oxb)"><path fill="#e6923a" d="M115.994 183.209v-2.703h3.232v18.532c0 .981-.021 1.775-.055 2.377-.04.606-.202 1.408-.483 2.412-.29 1.005-.71 1.886-1.266 2.646-.748 1.043-1.766 1.89-3.054 2.545-1.291.655-2.763.983-4.418.983-2.755 0-4.975-.855-6.66-2.568-1.627-1.651-2.44-3.69-2.44-6.119h3.21c0 1.55.476 2.86 1.427 3.932 1.086 1.218 2.588 1.828 4.507 1.828 2.255 0 3.904-.885 4.943-2.656.704-1.16 1.057-2.775 1.057-4.844v-2.746c-1.642 2.144-3.774 3.215-6.395 3.215-2.58 0-4.712-.856-6.396-2.569-1.802-1.83-2.703-4.33-2.703-7.5 0-3.08.9-5.536 2.703-7.369a8.477 8.477 0 0 1 2.868-1.875 9.336 9.336 0 0 1 3.528-.67c2.665 0 4.797 1.05 6.395 3.149m-6.044-.224c-1.643 0-3.05.595-4.222 1.787-1.26 1.31-1.89 3.046-1.89 5.207 0 2.397.703 4.259 2.11 5.586 1.128 1.042 2.462 1.563 4.002 1.563 1.67 0 3.033-.536 4.088-1.607.645-.626 1.161-1.426 1.55-2.404a8.273 8.273 0 0 0 .582-3.094c0-1.086-.18-2.107-.538-3.061-.36-.952-.838-1.72-1.439-2.301-1.099-1.117-2.514-1.676-4.243-1.676"/></g></g><g/><g clip-path="url(#k9oxc)"><path fill="#e6923a" d="M135.03 199h3v-19h-3z"/></g><g clip-path="url(#k9oxc)"><path fill="#e6923a" d="M135.03 178h3v-3h-3z"/></g><g clip-path="url(#k9oxc)"><path fill="#e6923a" d="M198.03 199h3v-19h-3z"/></g><g clip-path="url(#k9oxc)"><path fill="#e6923a" d="M198.03 178h3v-3h-3z"/></g><g clip-path="url(#k9oxc)"><path fill="#e6923a" d="M163.84 183.418l-2.667 1.43a3.351 3.351 0 0 0-1.034-1.385 2.472 2.472 0 0 0-1.564-.536c-.631 0-1.168.184-1.61.549-.44.365-.661.895-.661 1.595 0 .626.208 1.104.619 1.43.41.33 1.219.752 2.423 1.275 2.35.982 3.907 1.958 4.67 2.928.677.832 1.014 1.853 1.014 3.061 0 1.935-.61 3.461-1.83 4.567-1.218 1.11-2.76 1.668-4.625 1.668-.265 0-.545-.017-.838-.045-.294-.032-.736-.134-1.334-.314a6.526 6.526 0 0 1-1.63-.738c-.492-.312-1-.797-1.518-1.452-.524-.654-.93-1.429-1.225-2.323l2.798-1.185c.103.313.242.623.419.928.177.306.415.637.716.993.3.359.684.65 1.145.871.465.225.966.338 1.511.338.984 0 1.74-.31 2.27-.931.528-.615.792-1.32.792-2.11 0-.431-.066-.805-.198-1.116-.133-.314-.36-.596-.682-.85a6.29 6.29 0 0 0-.893-.592c-.274-.14-.686-.34-1.244-.591-1.266-.568-2.24-1.053-2.933-1.454-.688-.402-1.232-.85-1.63-1.339-.572-.715-.858-1.646-.858-2.795 0-1.637.507-2.93 1.52-3.875 1.012-.946 2.328-1.42 3.945-1.42 2.364 0 4.076 1.14 5.133 3.418"/></g><g clip-path="url(#k9oxc)"><path fill="#e6923a" d="M184.03 182.949h-2.82V199h-3.259v-16.051h-2.921V180h9z"/></g><g clip-path="url(#k9oxc)"><path fill="#e6923a" d="M54.365 195.768V180H51.03v19h7v-3.232z"/></g><g clip-path="url(#k9oxc)"><path fill="#e6923a" d="M229.897 181.832v3.933c-.78-.997-1.706-1.721-2.779-2.167-1.075-.447-2.104-.67-3.091-.67-1.854 0-3.425.63-4.71 1.889-1.29 1.258-1.932 2.99-1.932 5.195 0 2.188.651 3.913 1.952 5.173 1.303 1.258 2.851 1.888 4.646 1.888 1.043 0 2.11-.25 3.2-.75 1.088-.497 2.037-1.247 2.847-2.246v3.957c-1.752 1.31-3.736 1.966-5.959 1.966-2.914 0-5.316-.942-7.207-2.83-1.89-1.88-2.834-4.254-2.834-7.113 0-2.906.949-5.31 2.847-7.207 1.9-1.902 4.297-2.85 7.194-2.85 2.178 0 4.12.61 5.826 1.832"/></g><g clip-path="url(#k9oxc)"><path fill="#e6923a" d="M254.84 183.418l-2.667 1.43a3.351 3.351 0 0 0-1.034-1.385 2.472 2.472 0 0 0-1.564-.536c-.631 0-1.168.184-1.608.549-.442.365-.661.895-.661 1.595 0 .626.206 1.104.617 1.43.41.33 1.219.752 2.423 1.275 2.35.982 3.907 1.958 4.67 2.928.677.832 1.014 1.853 1.014 3.061 0 1.935-.61 3.461-1.83 4.567-1.218 1.11-2.76 1.668-4.625 1.668-.265 0-.543-.017-.838-.045-.294-.032-.736-.134-1.334-.314a6.526 6.526 0 0 1-1.63-.738c-.492-.312-1-.797-1.518-1.452-.524-.654-.93-1.429-1.225-2.323l2.8-1.185c.103.313.24.623.417.928.177.306.415.637.716.993.3.359.684.65 1.145.871.465.225.966.338 1.511.338.984 0 1.74-.31 2.27-.931.528-.615.792-1.32.792-2.11 0-.431-.066-.805-.198-1.116-.133-.314-.36-.596-.682-.85a6.29 6.29 0 0 0-.893-.592c-.274-.14-.686-.34-1.244-.591-1.266-.568-2.24-1.053-2.933-1.454-.688-.402-1.232-.85-1.63-1.339-.572-.715-.858-1.646-.858-2.795 0-1.637.507-2.93 1.52-3.875 1.012-.946 2.328-1.42 3.945-1.42 2.364 0 4.076 1.14 5.133 3.418"/></g></g></g></svg>