<svg xmlns="http://www.w3.org/2000/svg" width="181" height="158" viewBox="0 0 181 158"><g><g><g><path fill="#c79636" d="M135.162 40.423a8.673 8.673 0 0 1 3.217-.514c1.133.011.64.616.846 1.461.08.286.756.788.424.913-.16.046-.538-.216-.847-.308-.309-.091-.64-.16-.961-.228a7.412 7.412 0 0 1-2.633-1.324zm-10.918-.96c-.115-.547-.4-1.29-.47-1.689a60.654 60.654 0 0 0-.423-2.077 6.354 6.354 0 0 1-.16-3.208c.47-1.827 2.358-3.254 4.155-2.283.9.549 1.679 1.275 2.289 2.134.32.423.71.982.915 1.302.206.32.183.525-.206.32-.847-.434-1.43-1.416-2.186-1.998a2.73 2.73 0 0 0-2.483-.514c-1.122.354-1.27 1.107-1.282 2.283-.012 1.176.24 2.397.332 3.539a4.09 4.09 0 0 1-.481 2.192zm-26.85 6.325a9.18 9.18 0 0 1-.767 5.343c-.652 1.78-1.465 3.481-2.094 5.274a11.32 11.32 0 0 0-.733 5.4c.13.832.384 1.64.755 2.396a4.042 4.042 0 0 0 1.408 1.918 3.97 3.97 0 0 0 2.29 0c.869-.137 1.75-.274 2.62-.388 1.751-.24 3.502-.456 5.253-.593 3.6-.328 7.224-.29 10.816.114a19.845 19.845 0 0 1 9.259 3.219c.687.514.412 1.05.412 1.804-.075.929-.04 1.864.103 2.785a2.608 2.608 0 0 0 2.552 1.975c2.507.32 5.54-1.758 6.558-4.041 1.729-3.802 1.042-6.393-1.007-8.779s-6.627-3.573-9.625-4.28c-1.591-.377-3.182-.743-4.75-1.2-.847-.24-4.143-1.426-4.143-1.94a39.833 39.833 0 0 0 6.043 1.473 24.36 24.36 0 0 1 5.723 1.415c1.133.468 2.94-.867 3.72-1.598.777-.73 2.025-2.215.777-3.014-2.552-1.655-5.962-2.134-7.645-5.16-1.682-3.025-.183-6.952 2.29-9.052a22.318 22.318 0 0 1 4.463-2.671c.8-.4 1.614-.788 2.403-1.21a20.066 20.066 0 0 1 1.98-1.142 5.58 5.58 0 0 1-1.957 1.724c-.835.502-1.682 1.096-2.506 1.644a15.647 15.647 0 0 0-4.28 3.561c-1.729 2.375-2.13 5.582.308 7.797 2.438 2.215 5.872 2.888 8.32 5.091 1.191 1.142 1.592 2.592 3.09 3.54 1.5.947 2.862.399 4.007-.743a6.052 6.052 0 0 0 1.66-2.157c.17-.674-1.409-.286-1.924-.286a9.485 9.485 0 0 1-2.632-.605l-1.339-.445a3.437 3.437 0 0 1-.927-.445c.551-.075 1.113 0 1.625.217a9.176 9.176 0 0 0 1.751.445 5.473 5.473 0 0 0 3.033-.194c.29-.136.566-.3.824-.491.32-.285.149.274.39.274.389.011 1.03-.788 1.144-1.005.114-.216.538-1.37.4-1.552-.137-.183-.583.285-.8.594-.218.308-.653.936-.87.445a7.857 7.857 0 0 0-.607-1.199c-.183-.251-.813-.879-.813-1.21 0-.548.836-.114 1.145 0 .72.263 2.266.365 2.758-.183s-.183-1.975-.446-2.522c-.847-1.838-2.518-3.642-2.667-5.708-.034-.491.24-.936.172-1.404a2.281 2.281 0 0 0-.527-.97c-.606-.834-1.27-1.633-1.877-2.455-.332-.457-.011-.788.16-1.29.174-.461.296-.94.367-1.427a8.654 8.654 0 0 0-.126-3.07c-.08-.343-.927-1.45-1.225-2.021-3.822-7.5-13.001-9.68-14.627-9.407-.217.034.985.89 1.145 1.324-10.793-5.696-25.545 4.007-26.598 4.92.85.137 1.69.324 2.517.56a21.472 21.472 0 0 0-14.031 9.51 19.79 19.79 0 0 1 6.02-1.953c-2.507 1.655-5.38 3.025-6.867 5.81 1.124-.438 2.27-.82 3.433-1.141a19.675 19.675 0 0 1 3.434-.57 17.646 17.646 0 0 1 7.119.65 8.235 8.235 0 0 1 4.944 4.11c.527 1.141 1.946 6.335 1.671 6.849a30.792 30.792 0 0 0-2.575-5 8.674 8.674 0 0 0-3.25-3.425c-3.182-1.62-7.314-1.632-10.747-.936-1.75.31-3.429.932-4.956 1.838a39.324 39.324 0 0 0-4.315 3.596 93.502 93.502 0 0 1-9.236 7.363 29.116 29.116 0 0 1-9.923 4.635c-1.82.376-5.494.616-8.4 1.381-3.571.936-6.421 2.58-8.367 3.105-1.74.468-3.64-.708-5.047-1.644a23.653 23.653 0 0 1-7.073-7.74 46.187 46.187 0 0 1-4.166-10.525 110.348 110.348 0 0 1-2.598-11.918c-.31-1.952-.71-3.87-1.145-5.81a77.747 77.747 0 0 0-3.56-10.81 14.66 14.66 0 0 1-1.144-5.617c-.091-1.644-.183-3.665-1.545-4.658C20.437 1.29 17.656 1.142 16.512 0a8.848 8.848 0 0 0-.287 4.932 5.442 5.442 0 0 0 1.351 2.363 13.317 13.317 0 0 0 1.854 1.427 10.36 10.36 0 0 1 3.022 3.653 29.297 29.297 0 0 1 1.705 5.034c.275.913.47 1.85.675 2.785.243.913.43 1.84.561 2.774.195 1.975.412 3.939.664 5.914.503 3.915.767 7.853 1.522 11.735a44.769 44.769 0 0 0 3.514 11.096 30.008 30.008 0 0 0 2.964 4.897c1.11 1.461 2.45 2.694 3.674 4.064 2.403 2.683 4.154 6.564 1.75 9.84-.594.754-1.224 1.404-1.739 2.18-.43.713-.812 1.453-1.144 2.215a44.612 44.612 0 0 0-2.095 5.343c-2.209 6.815-3.811 15.56-10.735 19.292-.74.393-1.504.736-2.29 1.028-.812.308-1.853.388-2.14 1.255-.583 1.736.23 3.87.092 5.708a37.921 37.921 0 0 1-2.518 10.548c-.64 1.838-1.339 3.939-1.888 5.822-.4 1.427-.893 3.573.149 4.852a3.21 3.21 0 0 0 2.609.947 10.045 10.045 0 0 0 3.937-1.141 8.653 8.653 0 0 0 3.022-2.112 6.12 6.12 0 0 0 1.144-3.516c.218-2.9-.24-5.822-.24-8.722a8.545 8.545 0 0 1 1.35-4.886 16.663 16.663 0 0 1 3.64-3.801 100.386 100.386 0 0 1 9.625-6.541 48.72 48.72 0 0 0 8.927-7.272 47.074 47.074 0 0 1 4.235-3.893c1.476-1.187 2.884-2.465 4.406-3.607a22.224 22.224 0 0 1 10.3-4.11c3.95-.49 7.635 1.222 11.537 1.347 3.865.158 7.73-.309 11.445-1.38 7.13-2.078 14.215-6.04 18.644-12.113.126-.16.836-.753.767-1.061-.068-.309-.618-.092-.824-.092l-2.998.411c-2.003.297-4.006.594-6.009.868l-3.01.4c-.754.14-1.522.198-2.29.17-1.155-.114-1.716-1.015-2.23-1.952a11.39 11.39 0 0 1-.482-10.433c1.42-3.265 4.441-6.21 4.578-9.966.024-.177.07-.35.138-.514z"/></g><g><path fill="#c79636" d="M124.525 70.806a2.084 2.084 0 0 0-1.112-1.53 14.57 14.57 0 0 0-2.58-1.244 20.64 20.64 0 0 0-5.558-1.141c-.39 0-2.335-.434-2.29.17 0 .263 2.923 3.871 3.524 4.567.6.697.433 1.222-.234 1.998a37.144 37.144 0 0 1-4.18 3.574c-1.356 1.141-2.123 2.591-1.367 4.384 1.667 3.961 7.337 3.607 9.805 1.312 1.379-1.347 4.136-10.948 3.992-12.09z"/></g><g><path fill="#c79636" d="M69.07 81.78a20.418 20.418 0 0 0-5.363 1.281 37.78 37.78 0 0 0-5.34 3.151c-3.204 2.351-9.566 8.335-9.907 8.582 0 0-.33.177.443.141 2.056-.094 3.488 0 5.544-.117 3.613-.212 5.397-.235 8.192-2.904a13.424 13.424 0 0 0 3.204-4.62c.489-1.023 2.966-5.15 3.227-5.514z"/></g><g><path fill="#c79636" d="M26.77 115.766c0 1.786-.06 4.187 1.75 4.535a2.957 2.957 0 0 0 2.076-.545 6.064 6.064 0 0 0 2.69-3.294c.384-1.644.466-3.34.242-5.011a26.023 26.023 0 0 1 .217-5.232c.06-.394.58-1.89.543-1.879-.708.408-1.364.895-1.955 1.45a32.064 32.064 0 0 0-2.51 2.401c-1.915 2.1-2.997 4.783-3.053 7.575z"/></g><g><path fill="#211f1e" d="M6.602 94.88h4.358a8.54 8.54 0 0 1 3.221.596c.956.39 1.83.966 2.575 1.695a7.707 7.707 0 0 1 1.75 2.623c.434 1.09.65 2.258.635 3.436a9.133 9.133 0 0 1-.49 3.046 6.63 6.63 0 0 1-1.483 2.485 6.956 6.956 0 0 1-2.463 1.684 8.92 8.92 0 0 1-3.466.618c-.81 0-1.618-.093-2.408-.274a42.414 42.414 0 0 1-2.229-.573zM.45 129.72h6.152v-17.397c.357.08.791.15 1.349.23.557.08 1.159.194 1.805.194l2.006.137c.691.058 1.36.058 2.007.058a15.928 15.928 0 0 0 4.458-.619 12.115 12.115 0 0 0 3.845-1.855 9.244 9.244 0 0 0 2.72-3.138 9.203 9.203 0 0 0 1.036-4.455 9.598 9.598 0 0 0-1.115-4.581 10.027 10.027 0 0 0-2.931-3.379 13.542 13.542 0 0 0-4.369-2.073 19.37 19.37 0 0 0-5.372-.722H.45z"/></g><g><path fill="#211f1e" d="M45.274 94.48h5.525a8.78 8.78 0 0 1 3.19.56c.936.345 1.79.883 2.506 1.58a6.87 6.87 0 0 1 1.629 2.484c.396.985.594 2.04.58 3.102a7.258 7.258 0 0 1-2.767 5.86c-.93.7-1.98 1.22-3.1 1.533-1.27.386-2.59.575-3.918.561h-3.645zm-6.284 35.217h6.284V112.05h4.382l13.069 17.671h7.285L56.35 111.5a16.723 16.723 0 0 0 3.71-1.409 11.387 11.387 0 0 0 2.892-2.128 9.158 9.158 0 0 0 1.867-2.747 8.348 8.348 0 0 0 .649-3.296 8.98 8.98 0 0 0-.865-3.938 8.402 8.402 0 0 0-2.55-3.101 12.8 12.8 0 0 0-4.212-2.026 21.609 21.609 0 0 0-5.908-.733H38.99z"/></g><g><path fill="#211f1e" d="M115.785 94.945h6.717a15.6 15.6 0 0 1 6.147 1.146 14.525 14.525 0 0 1 4.847 3.252 14.782 14.782 0 0 1 3.16 4.994c.779 2.034 1.166 4.199 1.14 6.379a18.991 18.991 0 0 1-1.21 7.009 14.895 14.895 0 0 1-3.284 5.085 13.964 13.964 0 0 1-4.858 3.126 16.61 16.61 0 0 1-5.976 1.054h-6.683zm-6.295 34.77h13.959c3.155.058 6.295-.45 9.272-1.5a19.93 19.93 0 0 0 6.842-4.1 17.375 17.375 0 0 0 4.231-6.127 19.438 19.438 0 0 0 1.415-7.444 18.276 18.276 0 0 0-1.597-7.708 17.582 17.582 0 0 0-4.779-6.207 16.703 16.703 0 0 0-6.91-3.436 39.595 39.595 0 0 0-9.957-1.065H109.49z"/></g><g><path fill="#211f1e" d="M180.93 92.12v2.424h-19.277v13.506h12.896v2.424h-12.896v16.822h19.277v2.424h-25.38v-37.6z"/></g><g><path fill="#211f1e" d="M93.51 94.548V92.12H83.17v2.428h1.938v32.744H83.17v2.428h10.34v-2.428h-2.109V94.548h2.109z"/></g><g><path fill="#c79636" d="M47.458 142.649a3.646 3.646 0 0 1 2.666 1.012 4.425 4.425 0 0 1 0 5.865 3.658 3.658 0 0 1-2.634 1.1 3.9 3.9 0 0 1-1.814-.428 3.517 3.517 0 0 1-1.41-1.32 4.25 4.25 0 0 1-.545-2.202 3.9 3.9 0 0 1 1.092-2.927 3.658 3.658 0 0 1 2.645-1.1zm4.031 8.033a5.895 5.895 0 0 0 0-8.077 5.881 5.881 0 0 0-8.074 0 5.884 5.884 0 0 0 0 8.077 5.562 5.562 0 0 0 4.043 1.595 5.443 5.443 0 0 0 4.02-1.595z"/></g><g><path fill="#c79636" d="M65.308 142.718c1.542-.083 2.956.814 3.469 2.2.22.552.33 1.138.323 1.728a4.374 4.374 0 0 1-.347 1.74c-.204.513-.523.98-.936 1.364a3.472 3.472 0 0 1-2.462.902 3.568 3.568 0 0 1-2.405-.88 3.977 3.977 0 0 1-1.272-3.148 3.898 3.898 0 0 1 1.157-2.938 3.557 3.557 0 0 1 2.531-1.012zm3.7.088c-.895-1.166-2.333-1.84-3.85-1.805a5.965 5.965 0 0 0-2.127.386 5.284 5.284 0 0 0-1.722 1.1c-1.12 1.115-1.71 2.619-1.63 4.16-.088 1.561.501 3.088 1.63 4.225a5.357 5.357 0 0 0 3.85 1.453c1.518.033 2.957-.646 3.849-1.816v1.507a4.946 4.946 0 0 1-.636 2.73c-.612.995-1.761 1.578-2.971 1.507a3.561 3.561 0 0 1-2.717-1.034 3.082 3.082 0 0 1-.855-2.201h-1.92a4.605 4.605 0 0 0 1.469 3.455 5.58 5.58 0 0 0 4.011 1.442c.92.02 1.832-.168 2.66-.55a4.873 4.873 0 0 0 1.849-1.431c.344-.451.598-.959.751-1.497.15-.443.25-.9.301-1.364v-11.797h-1.942z"/></g><g><path fill="#c79636" d="M79.41 141.94h1.88v10.34h-1.88z"/></g><g><path fill="#c79636" d="M79.41 138.18h1.88v1.88h-1.88z"/></g><g><path fill="#c79636" d="M117.95 141.94h1.88v10.34h-1.88z"/></g><g><path fill="#c79636" d="M117.95 138.18h1.88v1.88h-1.88z"/></g><g><path fill="#c79636" d="M96.583 142.91l-1.526.804a1.927 1.927 0 0 0-.597-.781 1.408 1.408 0 0 0-.896-.308 1.475 1.475 0 0 0-.928.308c-.267.23-.407.574-.376.925a.923.923 0 0 0 .353.803c.435.296.902.54 1.394.726a6.693 6.693 0 0 1 2.675 1.651c.396.489.604 1.101.586 1.729a3.295 3.295 0 0 1-1.106 2.575 3.858 3.858 0 0 1-2.653.936h-.486c-.259-.041-.513-.1-.763-.176a4.277 4.277 0 0 1-.94-.419 3.73 3.73 0 0 1-.873-.825 4.012 4.012 0 0 1-.697-1.31l1.603-.66c.06.18.142.355.243.517.116.201.253.39.41.561.38.442.94.692 1.525.683a1.64 1.64 0 0 0 1.305-.529c.294-.326.456-.75.453-1.188a1.557 1.557 0 0 0-.11-.628 1.223 1.223 0 0 0-.399-.473 4.58 4.58 0 0 0-.508-.341l-.719-.33a18.439 18.439 0 0 1-1.68-.826 3.314 3.314 0 0 1-.94-.748 2.414 2.414 0 0 1-.486-1.574 2.822 2.822 0 0 1 .873-2.202 3.226 3.226 0 0 1 2.211-.803 3.075 3.075 0 0 1 3.052 1.904z"/></g><g><path fill="#c79636" d="M108.53 142.755h-1.476v9.525h-1.698v-9.525h-1.506V141h4.7z"/></g><g><path fill="#c79636" d="M31.827 150.366V141H29.59v11.28h4.7v-1.914h-2.463z"/></g><g><path fill="#c79636" d="M136.682 142.012v2.2a3.962 3.962 0 0 0-1.63-1.22 4.884 4.884 0 0 0-1.812-.386 3.942 3.942 0 0 0-2.774 1.1 4.31 4.31 0 0 0 0 5.843 3.86 3.86 0 0 0 2.729 1.1 4.638 4.638 0 0 0 1.88-.417 4.627 4.627 0 0 0 1.675-1.266v2.201c-2.367 1.65-5.603 1.447-7.733-.484a5.303 5.303 0 0 1-1.665-4.006 5.422 5.422 0 0 1 1.676-4.07c2.097-1.905 5.27-2.142 7.643-.573z"/></g><g><path fill="#c79636" d="M150.167 142.93l-1.548.804a1.841 1.841 0 0 0-.601-.782 1.38 1.38 0 0 0-.902-.308 1.436 1.436 0 0 0-.924.308c-.266.224-.41.559-.39.903-.02.31.113.609.356.804.44.291.91.535 1.403.727 1.02.334 1.947.9 2.706 1.651.396.49.601 1.103.579 1.729a3.284 3.284 0 0 1-1.058 2.576 3.902 3.902 0 0 1-2.672.936h-.479a5.397 5.397 0 0 1-.78-.176 4.009 4.009 0 0 1-.935-.419 3.547 3.547 0 0 1-.88-.825 3.829 3.829 0 0 1-.712-1.31l1.615-.661c.065.18.147.352.245.517.12.199.258.387.412.562.189.205.415.373.668.495.272.124.568.188.868.187.497.034.982-.161 1.314-.528.301-.324.465-.75.457-1.19a1.548 1.548 0 0 0-.112-.627 1.291 1.291 0 0 0-.39-.473 4.65 4.65 0 0 0-.523-.342l-.712-.33a17.677 17.677 0 0 1-1.704-.826 3.267 3.267 0 0 1-.935-.748 2.404 2.404 0 0 1-.502-1.575 2.813 2.813 0 0 1 .88-2.202 3.296 3.296 0 0 1 2.227-.803 3.097 3.097 0 0 1 3.029 1.926z"/></g></g></g></svg>