<svg xmlns="http://www.w3.org/2000/svg" width="540" height="182" viewBox="0 0 540 182"><g><g><g><g><path fill="#d1d1d1" d="M149.352 46.838c.215.43.215.646.215 1.056v51.623c0 5.947-4.89 10.622-10.622 10.622s-10.407-4.675-10.407-10.622V47.894v-1.056-.841c0-11.893-9.78-21.459-21.674-21.459-11.893 0-21.674 9.566-21.674 21.459v53.52c0 5.947-4.675 10.622-10.407 10.622-5.731 0-10.621-4.675-10.621-10.622v-53.54a21.405 21.405 0 0 0-21.46-21.458c-11.893 0-21.673 9.565-21.673 21.458v53.52c0 5.947-4.676 10.622-10.407 10.622C4.675 110.12 0 105.444 0 99.498v-53.52C0 22.62 19.112 3.49 42.703 3.49c12.754 0 24.217 5.516 32.08 14.652C82.647 9.006 94.11 3.49 106.864 3.49c23.572 0 42.703 19.112 42.703 42.487-.02.43-.02.646-.215.861z"/></g><g><path fill="#d1d1d1" d="M316.874 21.269c17.86 0 32.296 14.455 32.296 32.295 0 17.645-14.455 32.296-32.296 32.296-17.86 0-32.295-14.67-32.295-32.296 0-17.86 14.455-32.295 32.295-32.295zm0 85.62c29.538 0 53.325-24.002 53.325-53.325 0-29.537-23.806-53.324-53.325-53.324-29.322 0-53.324 23.806-53.324 53.324 0 29.304 24.002 53.305 53.324 53.325z"/></g><g><path fill="#d1d1d1" d="M156.32 53.754C156.32 24.236 180.107.43 209.43.43c19.11 0 36.755 10.192 46.301 26.545 2.974 5.105 1.057 11.463-3.814 14.436-5.106 2.758-11.463 1.057-14.437-3.814-5.731-9.977-16.353-16.138-28.031-16.138-17.625 0-32.296 14.436-32.296 32.295 0 17.625 14.651 32.296 32.296 32.296 11.052 0 21.244-5.516 27.19-14.866 3.189-4.89 9.781-6.162 14.652-3.189 4.89 3.189 6.162 9.78 2.973 14.652-9.78 15.297-26.545 24.432-44.815 24.432-29.323 0-53.129-24.002-53.129-53.325z"/></g><g><path fill="#d1d1d1" d="M486.595 21.269c12.754 0 26.35 6.807 30.81 21.674H456.02c4.46-12.54 16.354-21.674 30.575-21.674zm.02-21.029c-29.538 0-53.325 23.806-53.325 53.324 0 29.323 23.806 53.325 53.324 53.325 7.845 0 18.682.215 32.707-9.135 4.89-3.189 7.649-8.725 5.106-14.026-2.563-5.105-9.135-8.079-14.026-4.89-10.191 6.573-18.896 7.003-23.787 7.003-14.24 0-26.134-9.116-30.594-21.87h73.278c5.946 0 10.621-4.675 10.621-10.407 0-34.643-27.6-53.324-53.305-53.324z"/></g><g><path fill="#d1d1d1" d="M440.546 10.856c0 5.732-4.675 10.622-10.622 10.622-17.84 0-32.295 14.436-32.295 32.296v42.703c0 5.731-4.676 10.622-10.407 10.622-5.947 0-10.622-4.89-10.622-10.622V53.754C376.6 24.236 400.602.43 429.924.43c5.947.02 10.622 4.695 10.622 10.426z"/></g></g><g><g><path fill="#b1b1b1" d="M124.487 180.315v-25.088h8.29c16.463 0 16.463 25.088 0 25.088zm8.294-25.655h-8.861v26.232h8.861c17.234 0 17.234-26.232 0-26.232z"/></g><g><path fill="#b1b1b1" d="M154.976 180.325h13.967v.567H154.37V154.66h14.495v.567h-13.889v12.226h13.576v.607h-13.576z"/></g><g><path fill="#b1b1b1" d="M198.697 154.66h.646l-10.544 26.643h-.645L177.61 154.66h.646l10.21 25.9z"/></g><g><path fill="#b1b1b1" d="M208.616 180.325h13.967v.567H208.01V154.66h14.495v.567h-13.889v12.226h13.576v.607h-13.576z"/></g><g><path fill="#b1b1b1" d="M231.856 180.285h14.104v.607h-14.71V154.66h.606v25.625z"/></g><g><path fill="#b1b1b1" d="M280.803 167.747c0 3.56-1.428 6.75-3.715 9.077-2.327 2.367-5.554 3.834-9.073 3.834-3.52 0-6.707-1.467-9.034-3.834-2.288-2.328-3.755-5.516-3.755-9.077 0-3.56 1.467-6.748 3.755-9.076 2.327-2.367 5.514-3.834 9.034-3.834 3.52 0 6.746 1.467 9.073 3.834a12.887 12.887 0 0 1 3.715 9.076zm-26.183 0c0 3.717 1.526 7.082 3.932 9.527 2.386 2.465 5.77 3.97 9.448 3.97a13.19 13.19 0 0 0 9.487-3.97c2.387-2.426 3.932-5.81 3.932-9.527 0-3.716-1.526-7.08-3.932-9.526A13.236 13.236 0 0 0 268 154.25c-3.678 0-7.042 1.487-9.448 3.971-2.406 2.445-3.932 5.81-3.932 9.526z"/></g><g><path fill="#b1b1b1" d="M290.696 170.347v-15.12h8.49c9.761 0 9.761 15.12 0 15.12zm-.606-15.727v26.271h.606v-9.976h8.49c10.505 0 10.505-16.295 0-16.295z"/></g><g><path fill="#b1b1b1" d="M316.297 180.891h-.567V154.62h.606l10.877 16.1 10.915-16.1h.606v26.271h-.567v-25.41l-10.7 15.903h-.49l-10.7-15.903.02 25.41z"/></g><g><path fill="#b1b1b1" d="M348.006 180.325h13.967v.567H347.4V154.66h14.495v.567h-13.889v12.226h13.576v.607h-13.576z"/></g><g><path fill="#b1b1b1" d="M370.64 180.89v-26.31l.528.04 17.449 25.214v-25.215h.567v26.271h-.606l-17.332-25.078v25.078z"/></g><g><path fill="#b1b1b1" d="M406.927 181.008v-25.782h-9.077v-.606h18.72v.606h-9.076v25.782z"/></g></g></g></g></svg>